<?xml version="1.0" encoding="UTF-8" standalone="no"?>
<svg width="100px" height="100px" viewBox="0 0 100 100" version="1.1" xmlns="http://www.w3.org/2000/svg" xmlns:xlink="http://www.w3.org/1999/xlink" xmlns:sketch="http://www.bohemiancoding.com/sketch/ns">
    <!-- Generator: Sketch 3.2.2 (9983) - http://www.bohemiancoding.com/sketch -->
    <title>01-03-2015 - strawberry</title>
    <desc>Created with Sketch.</desc>
    <defs></defs>
    <g id="January" stroke="none" stroke-width="1" fill="none" fill-rule="evenodd" sketch:type="MSPage">
        <g id="01-03-2015---strawberry" sketch:type="MSArtboardGroup" fill="#000000">
            <path d="M49.2814457,21.2558086 C45.3591249,22.1364036 35.1694454,24.6630723 34.8097736,27.2188915 C27.5676487,29.5368927 26.3375134,35.1604151 27,47.8482151 C28,67 42,82 50,82 C58,82 72,67 73,47.8482151 C73.6373,35.642782 72.5231139,29.9746575 65.9901083,27.4977698 L65.9901083,27.4977698 C65.9966699,27.4515914 66,27.4047192 66,27.3571429 C66,24.8053311 56.4198588,22.2535193 52.4708671,21.3100442 C53.500363,19.9597791 54.3791679,18.476007 54,17.7142857 C53.2,16.1071429 48.4,17.7142857 48.4,17.7142857 L49.2814457,21.2558086 L49.2814457,21.2558086 Z M51.3295227,22.5357143 C46.7119474,22.5357143 39.7855843,24.9464286 36.7072007,27.3571429 C33.6288171,29.7678571 44.4031597,27.3571429 44.4031597,27.3571429 C44.4031597,27.3571429 45.9423515,33.7857143 47.4815433,32.9821429 C49.020735,32.1785714 51.3295227,27.3571429 51.3295227,27.3571429 C51.3295227,27.3571429 54.4079063,32.1785714 55.9470981,32.1785714 C57.4862899,32.1785714 56.716694,26.5535714 56.716694,26.5535714 C56.716694,26.5535714 62.1038653,28.9642857 64.412653,28.1607143 C66.7214407,27.3571429 55.9470981,22.5357143 51.3295227,22.5357143 Z M50.48,22.5357143 L50,18.7949507 C50,18.7949507 52.4,18.1714901 52.4,18.7949507 C52.4,19.4184113 50.96,22.5357143 50.96,22.5357143 L50.48,22.5357143 Z M35.5,38 C35.7761424,38 36,37.3284271 36,36.5 C36,35.6715729 35.7761424,35 35.5,35 C35.2238576,35 35,35.6715729 35,36.5 C35,37.3284271 35.2238576,38 35.5,38 Z M43.5,42 C43.7761424,42 44,41.3284271 44,40.5 C44,39.6715729 43.7761424,39 43.5,39 C43.2238576,39 43,39.6715729 43,40.5 C43,41.3284271 43.2238576,42 43.5,42 Z M43.5,52 C43.7761424,52 44,51.3284271 44,50.5 C44,49.6715729 43.7761424,49 43.5,49 C43.2238576,49 43,49.6715729 43,50.5 C43,51.3284271 43.2238576,52 43.5,52 Z M45.5,60 C45.7761424,60 46,59.3284271 46,58.5 C46,57.6715729 45.7761424,57 45.5,57 C45.2238576,57 45,57.6715729 45,58.5 C45,59.3284271 45.2238576,60 45.5,60 Z M35.5,63 C35.7761424,63 36,62.3284271 36,61.5 C36,60.6715729 35.7761424,60 35.5,60 C35.2238576,60 35,60.6715729 35,61.5 C35,62.3284271 35.2238576,63 35.5,63 Z M40.5,70 C40.7761424,70 41,69.3284271 41,68.5 C41,67.6715729 40.7761424,67 40.5,67 C40.2238576,67 40,67.6715729 40,68.5 C40,69.3284271 40.2238576,70 40.5,70 Z M47.5,75 C47.7761424,75 48,74.3284271 48,73.5 C48,72.6715729 47.7761424,72 47.5,72 C47.2238576,72 47,72.6715729 47,73.5 C47,74.3284271 47.2238576,75 47.5,75 Z M34.5,51 C34.7761424,51 35,50.3284271 35,49.5 C35,48.6715729 34.7761424,48 34.5,48 C34.2238576,48 34,48.6715729 34,49.5 C34,50.3284271 34.2238576,51 34.5,51 Z M66.5,46 C66.7761424,46 67,45.3284271 67,44.5 C67,43.6715729 66.7761424,43 66.5,43 C66.2238576,43 66,43.6715729 66,44.5 C66,45.3284271 66.2238576,46 66.5,46 Z M56.5,44 C56.7761424,44 57,43.3284271 57,42.5 C57,41.6715729 56.7761424,41 56.5,41 C56.2238576,41 56,41.6715729 56,42.5 C56,43.3284271 56.2238576,44 56.5,44 Z M61.5,52 C61.7761424,52 62,51.3284271 62,50.5 C62,49.6715729 61.7761424,49 61.5,49 C61.2238576,49 61,49.6715729 61,50.5 C61,51.3284271 61.2238576,52 61.5,52 Z M53.5,55 C53.7761424,55 54,54.3284271 54,53.5 C54,52.6715729 53.7761424,52 53.5,52 C53.2238576,52 53,52.6715729 53,53.5 C53,54.3284271 53.2238576,55 53.5,55 Z M62.5,61 C62.7761424,61 63,60.3284271 63,59.5 C63,58.6715729 62.7761424,58 62.5,58 C62.2238576,58 62,58.6715729 62,59.5 C62,60.3284271 62.2238576,61 62.5,61 Z M57.5,72 C57.7761424,72 58,71.3284271 58,70.5 C58,69.6715729 57.7761424,69 57.5,69 C57.2238576,69 57,69.6715729 57,70.5 C57,71.3284271 57.2238576,72 57.5,72 Z M51.5,66 C51.7761424,66 52,65.3284271 52,64.5 C52,63.6715729 51.7761424,63 51.5,63 C51.2238576,63 51,63.6715729 51,64.5 C51,65.3284271 51.2238576,66 51.5,66 Z M63.5,38 C63.7761424,38 64,37.3284271 64,36.5 C64,35.6715729 63.7761424,35 63.5,35 C63.2238576,35 63,35.6715729 63,36.5 C63,37.3284271 63.2238576,38 63.5,38 Z" id="Oval-1" sketch:type="MSShapeGroup"></path>
        </g>
    </g>
</svg>