<?xml version="1.0" encoding="UTF-8" standalone="no"?>
<svg width="100px" height="100px" viewBox="0 0 100 100" version="1.1" xmlns="http://www.w3.org/2000/svg" xmlns:xlink="http://www.w3.org/1999/xlink" xmlns:sketch="http://www.bohemiancoding.com/sketch/ns">
    <!-- Generator: Sketch 3.2.2 (9983) - http://www.bohemiancoding.com/sketch -->
    <title>02-03-2015 - clock</title>
    <desc>Created with Sketch.</desc>
    <defs></defs>
    <g id="January" stroke="none" stroke-width="1" fill="none" fill-rule="evenodd" sketch:type="MSPage">
        <g id="02-03-2015---clock" sketch:type="MSArtboardGroup" fill="#000000">
            <path d="M51.9755071,47.7422097 C51.4477699,47.280078 50.7565928,47 50,47 C49.9076254,47 49.8162259,47.004175 49.7259799,47.0123467 L49.7259799,47.0123467 C46.2135219,43.175855 35.1980492,31.2103761 34.7628155,31.5628214 C34.3149783,31.9254728 44.2948054,45.9567239 47.0098067,49.7556619 C47.0033109,49.8362506 47,49.9177387 47,50 C47,51.6568542 48.3431458,53 50,53 C51.0387431,53 51.9541832,52.4720766 52.4926487,51.6699013 C54.8869364,50.6369552 68.7079243,44.645667 68.5096672,44.0698866 C68.3263827,43.5375899 55.8518494,46.7347173 51.9755071,47.7422097 Z M20.0163528,51.000005 C20.5329696,66.773628 33.2263718,79.4670302 48.9999947,79.9836472 L49,78.0093689 C49,77.4519098 49.4438648,77 50,77 C50.5522847,77 51,77.4433532 51,78.0093689 L51,79.9836473 L51.0000053,79.9836472 C66.7736282,79.4670302 79.4670304,66.773628 79.9836472,51.000005 L79.9836473,51 L78.0093689,51 C77.4519098,51 77,50.5561352 77,50 C77,49.4477153 77.4433532,49 78.0093689,49 L79.9836472,48.999995 C79.4670304,33.226372 66.7736282,20.5329698 51.0000053,20.0163528 L51,20.0163527 L51,21.9906311 C51,22.5480902 50.5561352,23 50,23 C49.4477153,23 49,22.5566468 49,21.9906311 L48.9999947,20.0163528 C33.2263718,20.5329698 20.5329696,33.226372 20.0163528,48.999995 L21.9906311,49 C22.5480902,49 23,49.4438648 23,50 C23,50.5522847 22.5566468,51 21.9906311,51 L20.0163527,51 L20.0163528,51.000005 Z M50,85 C69.3299662,85 85,69.3299662 85,50 C85,30.6700338 69.3299662,15 50,15 C30.6700338,15 15,30.6700338 15,50 C15,69.3299662 30.6700338,85 50,85 Z" id="Oval-18" sketch:type="MSShapeGroup"></path>
        </g>
    </g>
</svg>