<?xml version="1.0" encoding="UTF-8" standalone="no"?>
<svg width="100px" height="100px" viewBox="0 0 100 100" version="1.1" xmlns="http://www.w3.org/2000/svg" xmlns:xlink="http://www.w3.org/1999/xlink" xmlns:sketch="http://www.bohemiancoding.com/sketch/ns">
    <!-- Generator: Sketch 3.2.2 (9983) - http://www.bohemiancoding.com/sketch -->
    <title>04-03-2015 - tomato</title>
    <desc>Created with Sketch.</desc>
    <defs></defs>
    <g id="January" stroke="none" stroke-width="1" fill="none" fill-rule="evenodd" sketch:type="MSPage">
        <g id="04-03-2015---tomato" sketch:type="MSArtboardGroup" fill="#000000">
            <path d="M64.8855127,31.4454279 C73.9036971,35.9789866 80,44.643212 80,54.5865052 C80,69.2220511 66.7924001,81.0865052 50.5,81.0865052 C34.2075999,81.0865052 21,69.2220511 21,54.5865052 C21,44.7740204 26.936959,36.2071713 35.7600972,31.6264888 C39.6540488,30.977497 45,30.0865052 45,30.0865052 C45,30.0865052 44.0000002,32.0865049 42.0000002,35.0865059 C44.0000002,35.0865059 49.9999998,33.0865052 50,32.0865052 C50.0000002,31.0865052 56.0000002,36.0865059 59.0000002,36.0865059 C57.0000002,33.0865049 54,30.0865052 54,30.0865052 C54,30.0865052 60.0227201,32.6676707 64.8855127,31.4454279 L64.8855127,31.4454279 Z M48,26.0865052 C48,26.0865052 44.0000002,27.0865049 35.9999999,30.0865049 C29.9999999,31.0865049 46.0000002,29.0865049 46.0000002,29.0865049 C46.0000002,29.0865049 45.0000003,31.086504 43.0000003,34.0865049 C45.0000003,34.0865049 49.9999996,32.0865049 49.9999994,31.0865049 C49.9999992,30.0865049 53.9999994,34.0865049 56.9999994,34.0865049 C54.9999994,31.086504 52.9999994,29.0865049 52.9999994,29.0865049 C52.9999994,29.0865049 60.0000032,32.0865049 65.0000013,30.0865049 C57.0000032,28.0865049 52,26.0865052 52,26.0865052 L52,20.0865052 C52,20.0865052 48.9999998,20.0865052 48,19.0865052 C47.0000002,18.0865052 48,26.0865052 48,26.0865052 Z" id="tomato" sketch:type="MSShapeGroup"></path>
        </g>
    </g>
</svg>