<?xml version="1.0" encoding="UTF-8" standalone="no"?>
<svg width="100px" height="100px" viewBox="0 0 100 100" version="1.1" xmlns="http://www.w3.org/2000/svg" xmlns:xlink="http://www.w3.org/1999/xlink" xmlns:sketch="http://www.bohemiancoding.com/sketch/ns">
    <!-- Generator: Sketch 3.2.2 (9983) - http://www.bohemiancoding.com/sketch -->
    <title>05-03-2015 - safe</title>
    <desc>Created with Sketch.</desc>
    <defs></defs>
    <g id="January" stroke="none" stroke-width="1" fill="none" fill-rule="evenodd" sketch:type="MSPage">
        <g id="05-03-2015---safe" sketch:type="MSArtboardGroup" fill="#000000">
            <path d="M65,40.6631844 L65,59.4986925 C65,60.3278417 64.3342028,61 63.5,61 C62.6715729,61 62,60.3330537 62,59.4986925 L62,40.6631844 C60.8175263,40.1014525 60,38.896198 60,37.5 C60,35.5670034 61.5670034,34 63.5,34 C65.4329966,34 67,35.5670034 67,37.5 C67,38.896198 66.1824737,40.1014525 65,40.6631844 Z M66,41.2422255 C67.2059857,40.4349641 68,39.0602081 68,37.5 C68,35.0147186 65.9852814,33 63.5,33 C61.0147186,33 59,35.0147186 59,37.5 C59,39.0602081 59.7940143,40.4349641 61,41.2422255 L61,59.4994984 C61,60.8746206 62.1192881,62 63.5,62 C64.8903379,62 66,60.8804873 66,59.4994984 L66,41.2422255 L66,41.2422255 Z M13,20.9957852 C13,16.579835 16.5816681,13 21.0072221,13 L78.9927779,13 C83.4150446,13 87,16.579658 87,20.9957852 L87,75.0042148 C87,79.420165 83.4183319,83 78.9927779,83 L21.0072221,83 C16.5849554,83 13,79.420342 13,75.0042148 L13,20.9957852 Z M21,83 L33,83 L33,85.5 C33,86.8807119 31.8710691,88 30.4990137,88 L23.5009863,88 C22.1197297,88 21,86.8903379 21,85.5 L21,83 Z M67,83 L79,83 L79,85.5 C79,86.8807119 77.8710691,88 76.4990137,88 L69.5009863,88 C68.1197297,88 67,86.8903379 67,85.5 L67,83 Z M20,24.0049083 C20,21.7930585 21.7956808,20 24.0065556,20 L75.9934444,20 C78.206204,20 80,21.799795 80,24.0049083 L80,71.9950917 C80,74.2069415 78.2043192,76 75.9934444,76 L24.0065556,76 C21.793796,76 20,74.200205 20,71.9950917 L20,24.0049083 Z M22,25.0014819 C22,23.3438092 23.3427539,22 24.9910051,22 L75.0089949,22 C76.6608814,22 78,23.3376562 78,25.0014819 L78,70.9985181 C78,72.6561908 76.6572461,74 75.0089949,74 L24.9910051,74 C23.3391186,74 22,72.6623438 22,70.9985181 L22,25.0014819 Z M37,56 C41.418278,56 45,52.418278 45,48 C45,43.581722 41.418278,40 37,40 C32.581722,40 29,43.581722 29,48 C29,52.418278 32.581722,56 37,56 Z M37,50 C38.1045695,50 39,49.1045695 39,48 C39,46.8954305 38.1045695,46 37,46 C35.8954305,46 35,46.8954305 35,48 C35,49.1045695 35.8954305,50 37,50 Z M41,48 C41,47.4477153 41.4426603,47 41.9989566,47 L43.0010434,47 C43.5527519,47 44,47.4438648 44,48 C44,48.5522847 43.5573397,49 43.0010434,49 L41.9989566,49 C41.4472481,49 41,48.5561352 41,48 Z M30,48 C30,47.4477153 30.4426603,47 30.9989566,47 L32.0010434,47 C32.5527519,47 33,47.4438648 33,48 C33,48.5522847 32.5573397,49 32.0010434,49 L30.9989566,49 C30.4472481,49 30,48.5561352 30,48 Z M36,41.9989566 C36,41.4472481 36.4438648,41 37,41 C37.5522847,41 38,41.4426603 38,41.9989566 L38,43.0010434 C38,43.5527519 37.5561352,44 37,44 C36.4477153,44 36,43.5573397 36,43.0010434 L36,41.9989566 Z M36,52.9989566 C36,52.4472481 36.4438648,52 37,52 C37.5522847,52 38,52.4426603 38,52.9989566 L38,54.0010434 C38,54.5527519 37.5561352,55 37,55 C36.4477153,55 36,54.5573397 36,54.0010434 L36,52.9989566 Z" id="safe" sketch:type="MSShapeGroup"></path>
        </g>
    </g>
</svg>