<?xml version="1.0" encoding="UTF-8" standalone="no"?>
<svg width="100px" height="100px" viewBox="0 0 100 100" version="1.1" xmlns="http://www.w3.org/2000/svg" xmlns:xlink="http://www.w3.org/1999/xlink" xmlns:sketch="http://www.bohemiancoding.com/sketch/ns">
    <!-- Generator: Sketch 3.2.2 (9983) - http://www.bohemiancoding.com/sketch -->
    <title>06-03-2015 - pot</title>
    <desc>Created with Sketch.</desc>
    <defs></defs>
    <g id="January" stroke="none" stroke-width="1" fill="none" fill-rule="evenodd" sketch:type="MSPage">
        <g id="06-03-2015---pot" sketch:type="MSArtboardGroup" fill="#000000">
            <path d="M46.9117136,26.9872383 C30.3854685,27.1703541 26.9991402,28.8022516 26.9991402,28.8022516 C23.7717896,29.4656262 21.2,32.8097895 21.2,36.0944342 L21.2,38.8823529 L78.8,38.8823529 L78.8,36.0944342 C78.8,32.8153999 76.2092838,29.5459987 73.0134735,28.8045534 C73.0134735,28.8045534 69.8280553,27.2726309 54.6220163,27.0089897 C56.1867323,26.502282 57.2,25.6922359 57.2,24.7794118 C57.2,23.244385 54.3346224,22 50.8,22 C47.2653776,22 44.4,23.244385 44.4,24.7794118 C44.4,25.679284 45.3847175,26.4792741 46.9117136,26.9872383 Z M21.2,43.8529412 L78.8,43.8529412 L78.8,71.597239 C78.8,75.1333863 75.943607,78 72.4018564,78 L27.5981436,78 C24.0645464,78 21.2,75.1327377 21.2,71.597239 L21.2,43.8529412 Z M18,42.2647059 C18,41.3875478 18.71875,40.6764706 19.5820312,40.6764706 L80.4179688,40.6764706 C81.2917005,40.6764706 82,41.3814324 82,42.2647059 C82,43.141864 81.28125,43.8529412 80.4179688,43.8529412 L19.5820312,43.8529412 C18.7082995,43.8529412 18,43.1479794 18,42.2647059 Z" id="Rectangle-27" sketch:type="MSShapeGroup"></path>
        </g>
    </g>
</svg>