<?xml version="1.0" encoding="UTF-8" standalone="no"?>
<svg width="100px" height="100px" viewBox="0 0 100 100" version="1.1" xmlns="http://www.w3.org/2000/svg" xmlns:xlink="http://www.w3.org/1999/xlink" xmlns:sketch="http://www.bohemiancoding.com/sketch/ns">
    <!-- Generator: Sketch 3.2.2 (9983) - http://www.bohemiancoding.com/sketch -->
    <title>06-03-2015 - thumbtack</title>
    <desc>Created with Sketch.</desc>
    <defs></defs>
    <g id="January" stroke="none" stroke-width="1" fill="none" fill-rule="evenodd" sketch:type="MSPage">
        <g id="06-03-2015---thumbtack" sketch:type="MSArtboardGroup" fill="#000000">
            <path d="M53.9201292,54.0000001 L70,54.0000001 L70,51.0000001 C70,49.3465172 68.6539436,48.0000001 66.9934988,48.0000001 L33.0065012,48.0000001 C31.3423094,48.0000001 30,49.3431458 30,51.0000001 L30,54.0000001 L46.0798708,54.0000001 C46.5330872,59.6179596 48.8034463,87.0000001 50,87.0000001 C51.1965537,87.0000001 53.4669128,59.6179596 53.9201292,54.0000001 L53.9201292,54.0000001 Z M39.9999999,18 L59.9999999,18 C59.9999999,18 49.9999997,18 60,48 C60,48 39.9999997,48 39.9999999,48 C49.9999997,18 39.9999999,18 39.9999999,18 Z M47,54.0000001 L53,54.0000001 C53,54.0000001 51,85.0000001 50,85.0000001 C49,85.0000001 47,54.0000001 47,54.0000001 Z M34,15.5 C34,14.1192881 35.1201337,13 36.4976575,13 L63.5023425,13 C64.8817606,13 66,14.1096621 66,15.5 C66,16.8807119 64.8798663,18 63.5023425,18 L36.4976575,18 C35.1182394,18 34,16.8903379 34,15.5 Z" id="Rectangle-22" sketch:type="MSShapeGroup" transform="translate(50.000000, 50.000000) rotate(-45.000000) translate(-50.000000, -50.000000) "></path>
        </g>
    </g>
</svg>