<?xml version="1.0" encoding="UTF-8" standalone="no"?>
<svg width="100px" height="100px" viewBox="0 0 100 100" version="1.1" xmlns="http://www.w3.org/2000/svg" xmlns:xlink="http://www.w3.org/1999/xlink" xmlns:sketch="http://www.bohemiancoding.com/sketch/ns">
    <!-- Generator: Sketch 3.2.2 (9983) - http://www.bohemiancoding.com/sketch -->
    <title>08-03-2015 - tulip</title>
    <desc>Created with Sketch.</desc>
    <defs></defs>
    <g id="January" stroke="none" stroke-width="1" fill="none" fill-rule="evenodd" sketch:type="MSPage">
        <g id="08-03-2015---tulip" sketch:type="MSArtboardGroup" fill="#000000">
            <path d="M51,80.4347701 L51,50.2207861 C51.9158024,50.2054268 52.8668639,50.1222579 53.6687012,49.9086371 C57.6506476,49.3468828 68.6536236,45.5715417 68.6536236,21 C58.7180677,21 54.6536236,30 52.2519608,35.5019531 C56.9065459,44.5480663 57.4260647,48.7692623 54.1316735,49.7638516 L54.1316735,49.7638516 C55.0377517,49.4326933 55.6604819,48.8839319 55.6536236,48 C55.5884857,39.6047802 45.4682764,21 31,21 C31,51 47.4016621,50 47.4016621,50 C47.4016621,50 48.057781,50.0959013 49,50.1620622 L49,50.1620622 L49,80.594348 C46.0538537,73.7977688 39.9576013,62.9619501 31.0346133,62.9619501 C30.2361895,82.9225448 43.4623377,85.6711647 48.8269338,85.9682193 C48.8268515,85.968489 48.8268118,85.9686194 48.8268118,85.9686194 C48.8268118,85.9686194 49.1984015,86.0040088 49.8301305,85.9996237 C49.8851924,85.9999711 49.9386065,86.0000696 49.9903219,85.9999536 C49.9935443,85.9999845 49.9967704,86 50,86 C50.0053073,86 50.0106043,85.9999594 50.0158908,85.9998784 C50.6610297,85.9975295 51.0346133,85.9619501 51.0346133,85.9619501 C51.0346133,85.9619501 51.033232,85.9574115 51.0304722,85.9484619 C55.6683518,85.592053 65.9614678,83.0051094 65.3212634,67 C58.430432,67.0000001 53.5836902,74.8356761 51,80.4347701 Z M39,22 C41,23 47.6536236,26 51.6536236,34 C51.6536236,34 55.3463764,24.5 61,22 C57,17 50.1536236,15 50.1536236,15 C50.1536236,15 42,17 39,22 Z" id="tulip" sketch:type="MSShapeGroup"></path>
        </g>
    </g>
</svg>