<?xml version="1.0" encoding="UTF-8" standalone="no"?>
<svg width="100px" height="100px" viewBox="0 0 100 100" version="1.1" xmlns="http://www.w3.org/2000/svg" xmlns:xlink="http://www.w3.org/1999/xlink" xmlns:sketch="http://www.bohemiancoding.com/sketch/ns">
    <!-- Generator: Sketch 3.2.2 (9983) - http://www.bohemiancoding.com/sketch -->
    <title>08-03-2015 - arrow</title>
    <desc>Created with Sketch.</desc>
    <defs></defs>
    <g id="January" stroke="none" stroke-width="1" fill="none" fill-rule="evenodd" sketch:type="MSPage">
        <g id="08-03-2015---arrow" sketch:type="MSArtboardGroup" fill="#000000">
            <path d="M52.1756808,77.2584836 L52.1756808,32.05562 L52.1756808,32.05562 C55.8433202,32.2658339 57.6871721,33 57.6871721,33 C58.7936687,33 59.4275727,32.1388416 59.1105208,31.0765489 C59.1105208,31.0765489 52.6854534,9 50.1845941,9 C47.6825703,9 41.2585801,31.0765489 41.2585801,31.0765489 C40.9372929,32.1458273 41.5788703,33 42.682016,33 C42.682016,33 44.519893,32.2682127 48.1756808,32.0566467 L48.1756808,77.1202814 L48.1756808,77.1202814 C43.179957,78.5848141 36.1991766,92.8980244 40.1756808,91 C43.3166923,89.5007644 46.685689,89.1253825 48.1758487,89.0313935 C48.1898682,90.1281376 49.0798537,91 50.1756808,91 C51.2695873,91 52.1463063,90.1361022 52.1749578,89.0594985 C53.809155,89.1920204 56.8942107,89.6197102 59.7860218,91 C63.660128,92.8491488 57.1340006,79.3112165 52.1756808,77.2584836 Z" id="Rectangle-31" sketch:type="MSShapeGroup" transform="translate(49.980851, 50.086505) rotate(-45.000000) translate(-49.980851, -50.086505) "></path>
        </g>
    </g>
</svg>