<?xml version="1.0" encoding="UTF-8" standalone="no"?>
<svg width="100px" height="100px" viewBox="0 0 100 100" version="1.1" xmlns="http://www.w3.org/2000/svg" xmlns:xlink="http://www.w3.org/1999/xlink" xmlns:sketch="http://www.bohemiancoding.com/sketch/ns">
    <!-- Generator: Sketch 3.2.2 (9983) - http://www.bohemiancoding.com/sketch -->
    <title>08-03-2015 - crystal ball</title>
    <desc>Created with Sketch.</desc>
    <defs></defs>
    <g id="January" stroke="none" stroke-width="1" fill="none" fill-rule="evenodd" sketch:type="MSPage">
        <g id="08-03-2015---crystal-ball" sketch:type="MSArtboardGroup" fill="#000000">
            <path d="M30.7627925,68.0604332 C31.2410685,67.3169765 32.1110013,67.2482731 32.7363711,67.8703291 C32.7363711,67.8703291 38.0995264,74.6645961 50.1217335,74.6645964 C62.1439405,74.6645966 68.230502,67.8030725 68.230502,67.8030725 C68.8604994,67.2017521 69.7255056,67.3352683 70.1453374,68.1217787 C70.1453374,68.1217787 74.1893945,74.6645962 74.1893939,82.6149068 C58.1287879,85.7950311 42.0681818,85.7950311 26.0075758,82.6149068 C26.0075758,74.6645963 30.7627925,68.0604332 30.7627925,68.0604332 Z M77,47.2360248 C77,32.7462684 65.1355459,21 50.5,21 C35.8644541,21 24,32.7462684 24,47.2360248 C24,61.7257812 35.8644541,73.4720497 50.5,73.4720497 C65.1355459,73.4720497 77,61.7257812 77,47.2360248 Z M26.4090909,47.2360248 C26.4090909,34.063519 37.1949583,23.3850932 50.5,23.3850932 C63.8050417,23.3850932 74.5909091,34.063519 74.5909091,47.2360248 C74.5909091,60.4085307 63.8050417,71.0869565 50.5,71.0869565 C37.1949583,71.0869565 26.4090909,60.4085307 26.4090909,47.2360248 Z M30.0227273,43.6583851 C30.0227273,35.7080745 37.25,29.3478261 39.6590909,28.552795 C34.6297391,35.3103524 33.2348485,37.2981366 30.0227273,43.6583851 Z" id="crystal-ball" sketch:type="MSShapeGroup"></path>
        </g>
    </g>
</svg>