<?xml version="1.0" encoding="UTF-8" standalone="no"?>
<svg width="100px" height="100px" viewBox="0 0 100 100" version="1.1" xmlns="http://www.w3.org/2000/svg" xmlns:xlink="http://www.w3.org/1999/xlink" xmlns:sketch="http://www.bohemiancoding.com/sketch/ns">
    <!-- Generator: Sketch 3.2.2 (9983) - http://www.bohemiancoding.com/sketch -->
    <title>11-03-2015 - pear</title>
    <desc>Created with Sketch.</desc>
    <defs></defs>
    <g id="January" stroke="none" stroke-width="1" fill="none" fill-rule="evenodd" sketch:type="MSPage">
        <g id="11-03-2015---pear" sketch:type="MSArtboardGroup" fill="#000000">
            <path d="M50.564987,25.2519629 C53.3561558,25.2528489 63.9375,25.3653396 63.9375,39.6490746 C63.9375,54.0461937 72,61.5947515 72,68.4433131 C72,83.352018 59.6034936,85 50.5,85 C41.3965064,85 29,83.352018 29,68.4433131 C29,61.417496 37.0625,54.0461937 37.0625,39.6490746 C37.0625,25.9666123 46.7717525,25.2874306 50.0424892,25.2537168 C49.5451195,23.3176318 48.7365843,21.0565329 47.470876,19.5654102 C44.8564077,16.485322 50.2975512,19.793628 50.2975512,19.793628 L50.564987,25.2519629 L50.564987,25.2519629 Z M50.7437696,22.7790593 C50.7437696,22.7790593 49.0806692,16.0997459 59.9815508,15.9931604 C60.0166594,21.4980675 50.7437696,22.7790593 50.7437696,22.7790593 Z" id="Oval-27" sketch:type="MSShapeGroup"></path>
        </g>
    </g>
</svg>