<?xml version="1.0" encoding="UTF-8" standalone="no"?>
<svg width="100px" height="100px" viewBox="0 0 100 100" version="1.1" xmlns="http://www.w3.org/2000/svg" xmlns:xlink="http://www.w3.org/1999/xlink" xmlns:sketch="http://www.bohemiancoding.com/sketch/ns">
    <!-- Generator: Sketch 3.2.2 (9983) - http://www.bohemiancoding.com/sketch -->
    <title>12-03-2015 - settings</title>
    <desc>Created with Sketch.</desc>
    <defs></defs>
    <g id="January" stroke="none" stroke-width="1" fill="none" fill-rule="evenodd" sketch:type="MSPage">
        <g id="12-03-2015---settings" sketch:type="MSArtboardGroup" fill="#000000">
            <path d="M84,30.8320874 L84,19.2618184 C84,17.0431425 82.209139,15.2571429 80,15.2571429 C77.7953562,15.2571429 76,17.0500972 76,19.2618184 L76,30.8320874 C77.2249247,30.296895 78.5777906,30 80,30 C81.4222094,30 82.7750753,30.296895 84,30.8320874 Z M84,49.1679126 L84,85.7381816 C84,87.9499028 82.2046438,89.7428571 80,89.7428571 C77.790861,89.7428571 76,87.9568575 76,85.7381816 L76,49.1679126 C77.2249247,49.703105 78.5777906,50 80,50 C81.4222094,50 82.7750753,49.703105 84,49.1679126 Z M80,48 C84.418278,48 88,44.418278 88,40 C88,35.581722 84.418278,32 80,32 C75.581722,32 72,35.581722 72,40 C72,44.418278 75.581722,48 80,48 Z" id="Rectangle-37" sketch:type="MSShapeGroup"></path>
            <path d="M64,50.8320874 L64,19.2618184 C64,17.0431425 62.209139,15.2571429 60,15.2571429 C57.7953562,15.2571429 56,17.0500972 56,19.2618184 L56,50.8320874 C57.2249247,50.296895 58.5777906,50 60,50 C61.4222094,50 62.7750753,50.296895 64,50.8320874 L64,50.8320874 Z M64,69.1679126 L64,85.7381816 C64,87.9499028 62.2046438,89.7428571 60,89.7428571 C57.790861,89.7428571 56,87.9568575 56,85.7381816 L56,69.1679126 C57.2249247,69.703105 58.5777906,70 60,70 C61.4222094,70 62.7750753,69.703105 64,69.1679126 L64,69.1679126 Z M60,68 C64.418278,68 68,64.418278 68,60 C68,55.581722 64.418278,52 60,52 C55.581722,52 52,55.581722 52,60 C52,64.418278 55.581722,68 60,68 Z" id="Rectangle-38" sketch:type="MSShapeGroup"></path>
            <path d="M44,20.8320874 L44,19.2618184 C44,17.0431425 42.209139,15.2571429 40,15.2571429 C37.7953562,15.2571429 36,17.0500972 36,19.2618184 L36,20.8320874 C37.2249247,20.296895 38.5777906,20 40,20 C41.4222094,20 42.7750753,20.296895 44,20.8320874 L44,20.8320874 Z M44,39.1679126 L44,85.7381816 C44,87.9499028 42.2046438,89.7428571 40,89.7428571 C37.790861,89.7428571 36,87.9568575 36,85.7381816 L36,39.1679126 C37.2249247,39.703105 38.5777906,40 40,40 C41.4222094,40 42.7750753,39.703105 44,39.1679126 L44,39.1679126 Z M40,38 C44.418278,38 48,34.418278 48,30 C48,25.581722 44.418278,22 40,22 C35.581722,22 32,25.581722 32,30 C32,34.418278 35.581722,38 40,38 Z" id="Rectangle-39" sketch:type="MSShapeGroup"></path>
            <path d="M24,60.8320874 L24,19.2618184 C24,17.0431425 22.209139,15.2571429 20,15.2571429 C17.7953562,15.2571429 16,17.0500972 16,19.2618184 L16,60.8320874 C17.2249247,60.296895 18.5777906,60 20,60 C21.4222094,60 22.7750753,60.296895 24,60.8320874 L24,60.8320874 Z M24,79.1679126 L24,85.7381816 C24,87.9499028 22.2046438,89.7428571 20,89.7428571 C17.790861,89.7428571 16,87.9568575 16,85.7381816 L16,79.1679126 C17.2249247,79.703105 18.5777906,80 20,80 C21.4222094,80 22.7750753,79.703105 24,79.1679126 L24,79.1679126 Z M20,78 C24.418278,78 28,74.418278 28,70 C28,65.581722 24.418278,62 20,62 C15.581722,62 12,65.581722 12,70 C12,74.418278 15.581722,78 20,78 Z" id="Rectangle-40" sketch:type="MSShapeGroup"></path>
        </g>
    </g>
</svg>