<?xml version="1.0" encoding="UTF-8" standalone="no"?>
<svg width="100px" height="100px" viewBox="0 0 100 100" version="1.1" xmlns="http://www.w3.org/2000/svg" xmlns:xlink="http://www.w3.org/1999/xlink" xmlns:sketch="http://www.bohemiancoding.com/sketch/ns">
    <!-- Generator: Sketch 3.2.2 (9983) - http://www.bohemiancoding.com/sketch -->
    <title>14-03-2015 - guitar</title>
    <desc>Created with Sketch.</desc>
    <defs></defs>
    <g id="January" stroke="none" stroke-width="1" fill="none" fill-rule="evenodd" sketch:type="MSPage">
        <g id="14-03-2015---guitar" sketch:type="MSArtboardGroup" fill="#000000">
            <path d="M48.6895958,20.7963521 L51.5150114,21.8809275 C56.3955695,10.9525154 70.728513,17.1004308 69.9710867,25.3943374 C68.3743617,34.1365012 63.5841867,33.3417584 61.9874616,35.7259838 C60.3907366,38.1102092 66.7776367,66.7209289 66.7776367,66.7209289 C66.7776367,66.7209289 56.3989241,71.4893872 56.3989241,85 L40.4316739,84.9999973 C40.4316739,84.9999973 42.0283989,79.4367992 34.8431363,76.2578308 C34.8431363,75.6672668 35.7738,72.4436536 37.1862161,67.8551512 L37.1862161,67.8551512 L34.2656796,66.7340623 C33.4608737,67.9163784 32.2739564,68.5298507 31.2989706,68.1555887 C30.0640581,67.6815502 29.636776,65.8024342 30.3446092,63.9584656 C31.0524425,62.114497 32.627349,61.0039492 33.8622615,61.4779877 C34.8344174,61.8511633 35.3060641,63.0951016 35.1174332,64.5071678 L35.1174332,64.5071678 L37.8932156,65.5726909 C38.5036758,63.6125701 39.1774846,61.472881 39.8874295,59.2304988 L39.8874295,59.2304988 L36.6607671,57.9918992 C35.8559612,59.1742153 34.6690439,59.7876875 33.6940582,59.4134256 C32.4591457,58.9393871 32.0318635,57.060271 32.7396968,55.2163024 C33.44753,53.3723338 35.0224366,52.261786 36.257349,52.7358245 C37.2295049,53.1090002 37.7011516,54.3529384 37.5125207,55.7650047 L37.5125207,55.7650047 L40.6093534,56.9537674 C41.2938738,54.7978949 42.0021144,52.5744788 42.7117335,50.3466338 L42.7117335,50.3466338 L39.8542172,49.249736 C39.0494113,50.4320522 37.862494,51.0455244 36.8875082,50.6712624 C35.6525957,50.1972239 35.2253136,48.3181079 35.9331468,46.4741393 C36.64098,44.6301707 38.2158866,43.5196229 39.4507991,43.9936614 C40.4229549,44.366837 40.8946016,45.6107753 40.7059707,47.0228415 L40.7059707,47.0228415 L43.4364792,48.0709855 C44.1199223,45.9244661 44.7975578,43.7938542 45.4492862,41.7359307 L45.4492862,41.7359307 L42.2493047,40.5075729 C41.4444988,41.689889 40.2575815,42.3033613 39.2825957,41.9290993 C38.0476832,41.4550608 37.6204011,39.5759448 38.3282343,37.7319761 C39.0360676,35.8880075 40.6109741,34.7774597 41.8458866,35.2514982 C42.8180425,35.6246739 43.2896891,36.8686122 43.1010583,38.2806784 L46.1692258,39.4584375 C46.9172047,37.0873663 47.6179866,34.8489212 48.2378558,32.8383485 L48.2378558,32.8383485 L45.4427547,31.7654098 C44.6379488,32.9477259 43.4510315,33.5611981 42.4760457,33.1869361 C41.2411333,32.7128977 40.8138511,30.8337816 41.5216844,28.989813 C42.2295176,27.1458444 43.8044242,26.0352966 45.0393366,26.5093351 C46.0114925,26.8825108 46.4831392,28.126449 46.2945083,29.5385152 L46.2945083,29.5385152 L48.9371287,30.5529222 C49.8535803,27.5308279 50.5082836,25.2462113 50.7453871,24.1393485 L50.7453871,24.1393485 L47.8378422,23.0232466 C47.0330363,24.2055627 45.846119,24.819035 44.8711333,24.444773 C43.6362208,23.9707345 43.2089386,22.0916185 43.9167719,20.2476499 C44.6246051,18.4036813 46.1995117,17.2931335 47.4344242,17.7671719 C48.40658,18.1403476 48.8782267,19.3842859 48.6895958,20.7963521 L48.6895958,20.7963521 Z M48.3296336,22.1119041 L48.2463805,22.3287857 L51.2277229,23.4732159 L51.512533,22.7312602 L48.5311906,21.5868301 L48.4435968,21.8150198 C48.4261481,21.8647849 48.4078798,21.9145528 48.3887856,21.9642951 C48.3696913,22.0140374 48.349966,22.0632459 48.3296336,22.1119041 L48.3296336,22.1119041 Z M45.9380569,30.8456454 L45.8977285,30.9507043 L48.3628809,31.8969877 L48.601361,31.2757258 L46.1362086,30.3294425 L46.045483,30.5657908 C46.0289513,30.6126869 46.0116914,30.6595839 45.993698,30.7064582 C45.9757047,30.7533325 45.957151,30.7997329 45.9380569,30.8456454 L45.9380569,30.8456454 Z M42.741096,39.5962304 L42.6578429,39.813112 L45.6391854,40.9575422 L45.9239955,40.2155865 L42.942653,39.0711563 L42.8550592,39.2993461 C42.8376105,39.3491112 42.8193423,39.3988791 42.800248,39.4486214 C42.7811537,39.4983636 42.7614285,39.5475722 42.741096,39.5962304 L42.741096,39.5962304 Z M40.5326225,47.8188642 L43.0597858,48.7889514 L42.7749757,49.530907 L40.2471937,48.5605825 C40.3036893,48.4409707 40.3564758,48.3176124 40.4051605,48.1907845 C40.4527444,48.0668241 40.4951986,47.9427048 40.5326225,47.8188642 L40.5326225,47.8188642 Z M37.1525584,57.0805567 L37.0693054,57.2974383 L40.0506478,58.4418684 L40.3354579,57.6999128 L37.3541155,56.5554826 L37.2665217,56.7836723 C37.249073,56.8334375 37.2308047,56.8832054 37.2117104,56.9329476 C37.1926162,56.9826899 37.1728909,57.0318985 37.1525584,57.0805567 L37.1525584,57.0805567 Z M34.9603905,65.2481575 L37.6309198,66.2732776 L37.3461097,67.0152333 L34.6828725,65.9929123 C34.7302957,65.889635 34.7749612,65.7836433 34.8166229,65.6751108 C34.8712579,65.5327816 34.9191303,65.3902431 34.9603905,65.2481575 L34.9603905,65.2481575 Z M40.8308552,72.2841213 C41.9331638,72.2841213 42.8267614,71.3945759 42.8267614,70.297266 C42.8267614,69.1999562 41.9331638,68.3104108 40.8308552,68.3104108 C39.7285466,68.3104108 38.8349489,69.1999562 38.8349489,70.297266 C38.8349489,71.3945759 39.7285466,72.2841213 40.8308552,72.2841213 Z M43.2259427,63.5419582 C44.3282513,63.5419582 45.221849,62.6524128 45.221849,61.5551029 C45.221849,60.457793 44.3282513,59.5682476 43.2259427,59.5682476 C42.1236341,59.5682476 41.2300364,60.457793 41.2300364,61.5551029 C41.2300364,62.6524128 42.1236341,63.5419582 43.2259427,63.5419582 Z M46.0202115,54.799795 C47.1225201,54.799795 48.0161177,53.9102496 48.0161177,52.8129398 C48.0161177,51.7156299 47.1225201,50.8260845 46.0202115,50.8260845 C44.9179029,50.8260845 44.0243052,51.7156299 44.0243052,52.8129398 C44.0243052,53.9102496 44.9179029,54.799795 46.0202115,54.799795 Z M48.8144803,46.0576319 C49.9167888,46.0576319 50.8103865,45.1680865 50.8103865,44.0707766 C50.8103865,42.9734668 49.9167888,42.0839214 48.8144803,42.0839214 C47.7121717,42.0839214 46.818574,42.9734668 46.818574,44.0707766 C46.818574,45.1680865 47.7121717,46.0576319 48.8144803,46.0576319 Z M52.0079303,36.5207266 C53.1102389,36.5207266 54.0038366,35.6311812 54.0038366,34.5338714 C54.0038366,33.4365615 53.1102389,32.5470161 52.0079303,32.5470161 C50.9056217,32.5470161 50.012024,33.4365615 50.012024,34.5338714 C50.012024,35.6311812 50.9056217,36.5207266 52.0079303,36.5207266 Z M54.4030178,27.7785635 C55.5053264,27.7785635 56.3989241,26.8890181 56.3989241,25.7917082 C56.3989241,24.6943984 55.5053264,23.804853 54.4030178,23.804853 C53.3007092,23.804853 52.4071115,24.6943984 52.4071115,25.7917082 C52.4071115,26.8890181 53.3007092,27.7785635 54.4030178,27.7785635 Z M31.5837807,67.413633 C32.4070557,67.7296587 33.5207503,66.8232011 34.0712873,65.3890032 C34.6218242,63.9548054 34.4007264,62.535969 33.5774514,62.2199433 C32.7541764,61.9039177 31.6404818,62.8103753 31.0899448,64.2445731 C30.5394079,65.6787709 30.7605057,67.0976074 31.5837807,67.413633 Z M33.9788682,58.6714699 C34.8021432,58.9874955 35.9158379,58.0810379 36.4663748,56.6468401 C37.0169118,55.2126423 36.7958139,53.7938058 35.9725389,53.4777802 C35.149264,53.1617545 34.0355693,54.0682122 33.4850324,55.50241 C32.9344954,56.9366078 33.1555933,58.3554442 33.9788682,58.6714699 Z M37.1723183,49.9293067 C37.9955933,50.2453324 39.1092879,49.3388748 39.6598249,47.904677 C40.2103618,46.4704792 39.989264,45.0516427 39.165989,44.735617 C38.342714,44.4195914 37.2290194,45.326049 36.6784824,46.7602468 C36.1279454,48.1944446 36.3490433,49.6132811 37.1723183,49.9293067 Z M39.5674058,41.1871436 C40.3906808,41.5031693 41.5043754,40.5967116 42.0549124,39.1625138 C42.6054493,37.728316 42.3843515,36.3094796 41.5610765,35.9934539 C40.7378015,35.6774282 39.6241069,36.5838859 39.0735699,38.0180837 C38.523033,39.4522815 38.7441308,40.8711179 39.5674058,41.1871436 Z M42.7608558,32.4449805 C43.5841308,32.7610061 44.6978255,31.8545485 45.2483624,30.4203507 C45.7988994,28.9861529 45.5778015,27.5673164 44.7545265,27.2512908 C43.9312515,26.9352651 42.8175569,27.8417227 42.26702,29.2759205 C41.716483,30.7101184 41.9375809,32.1289548 42.7608558,32.4449805 Z M45.1559434,23.7028173 C45.9792184,24.018843 47.092913,23.1123854 47.6434499,21.6781875 C48.1939869,20.2439897 47.972889,18.8251533 47.1496141,18.5091276 C46.3263391,18.193102 45.2126445,19.0995596 44.6621075,20.5337574 C44.1115705,21.9679552 44.3326684,23.3867917 45.1559434,23.7028173 Z" id="guitar" sketch:type="MSShapeGroup"></path>
        </g>
    </g>
</svg>