<?xml version="1.0" encoding="UTF-8" standalone="no"?>
<svg width="100px" height="100px" viewBox="0 0 100 100" version="1.1" xmlns="http://www.w3.org/2000/svg" xmlns:xlink="http://www.w3.org/1999/xlink" xmlns:sketch="http://www.bohemiancoding.com/sketch/ns">
    <!-- Generator: Sketch 3.2.2 (9983) - http://www.bohemiancoding.com/sketch -->
    <title>15-03-2015 - piano</title>
    <desc>Created with Sketch.</desc>
    <defs></defs>
    <g id="January" stroke="none" stroke-width="1" fill="none" fill-rule="evenodd" sketch:type="MSPage">
        <g id="15-03-2015---piano" sketch:type="MSArtboardGroup" fill="#000000">
            <path d="M63,23.6 L54,23.6 L54,53 L50.5833333,53 L50.5833333,76.4 L66,76.4 L66,53 L63,53 L63,23.6 Z M71,23.6 L83.4166667,23.6 L83.4166667,76.4 L67.5833333,76.4 L67.5833333,53 L71,53 L71,23.6 Z M46,23.6 L37,23.6 L37,23.6 L37,53 L33.5833333,53 L33.5833333,76.4 L49,76.4 L49,53 L46,53 L46,23.6 L46,23.6 Z M29,23.6 L16.5833333,23.6 L16.5833333,76.4 L32,76.4 L32,53 L29,53 L29,23.6 L29,23.6 Z M67,22 L50,22 L33,22 L33,22 L15,22 L15,78 L33,78 L50,78 L50,78 L67,78 L85,78 L85,22 L67,22 L67,22 Z" id="Rectangle-49" sketch:type="MSShapeGroup"></path>
        </g>
    </g>
</svg>