<?xml version="1.0" encoding="UTF-8" standalone="no"?>
<svg width="100px" height="100px" viewBox="0 0 100 100" version="1.1" xmlns="http://www.w3.org/2000/svg" xmlns:xlink="http://www.w3.org/1999/xlink" xmlns:sketch="http://www.bohemiancoding.com/sketch/ns">
    <!-- Generator: Sketch 3.2.2 (9983) - http://www.bohemiancoding.com/sketch -->
    <title>16-03-2015 - trumpet</title>
    <desc>Created with Sketch.</desc>
    <defs></defs>
    <g id="January" stroke="none" stroke-width="1" fill="none" fill-rule="evenodd" sketch:type="MSPage">
        <g id="16-03-2015---trumpet" sketch:type="MSArtboardGroup" fill="#000000">
            <path d="M56,65 L50,65 L50,66.0067126 C50,67.1075748 49.1122704,68 48,68 C46.8954305,68 46,67.1002873 46,66.0067126 L46,65 L40,65 L40,66.0067126 C40,67.1075748 39.1122704,68 38,68 C36.8954305,68 36,67.1002873 36,66.0067126 L36,65 L36,65 L31.996221,65 C25.3708911,65 20,59.6288742 20,53 C20,49.4159224 21.5703675,46.1988334 24.0606932,44 L24.0606932,44 L12,44 L12,41 L31.9981105,41 L36,41 L36,39 L40,39 L40,41 L46,41 L46,41 L46,39 L50,39 L50,41 L56,41 L56,39 L60,39 L60,41 L64.003779,41 C70.6291089,41 76,46.3711258 76,53 C76,59.627417 70.6304846,65 64.003779,65 L60,65 L60,66.0067126 C60,67.1075748 59.1122704,68 58,68 C56.8954305,68 56,67.1002873 56,66.0067126 L56,65 L56,65 Z M56,44 L50,44 L50,44 L50,62 L56,62 L56,44 Z M60,44 L64.0032553,44 C68.9720202,44 73,48.0283444 73,53 C73,57.9705627 68.9717501,62 64.0032553,62 L60,62 L60,44 L60,44 Z M46,44 L40,44 L40,44 L40,62 L46,62 L46,44 L46,44 Z M36,44 L31.9967447,44 C27.0282499,44 23,48.0294373 23,53 C23,57.9716556 27.0279798,62 31.9967447,62 L36,62 L36,44 L36,44 Z M9,40.5016756 C9,39.6723231 9.66579723,39 10.5,39 C11.3284271,39 12,39.6711894 12,40.5016756 L12,44.4983244 C12,45.3276769 11.3342028,46 10.5,46 C9.67157288,46 9,45.3288106 9,44.4983244 L9,40.5016756 Z M36,36 L40,36 L40,38 L36,38 L36,36 Z M46,36 L50,36 L50,38 L46,38 L46,36 Z M56,36 L60,36 L60,38 L56,38 L56,36 Z" id="Rectangle-60" sketch:type="MSShapeGroup"></path>
            <path d="M62,43.0204086 C62,43.0204086 82,42 92,52 L92,32 C82,42 62,41 62,41 L62,43.0204086 Z" id="Path-25" sketch:type="MSShapeGroup"></path>
        </g>
    </g>
</svg>