<?xml version="1.0" encoding="UTF-8" standalone="no"?>
<svg width="100px" height="100px" viewBox="0 0 100 100" version="1.1" xmlns="http://www.w3.org/2000/svg" xmlns:xlink="http://www.w3.org/1999/xlink" xmlns:sketch="http://www.bohemiancoding.com/sketch/ns">
    <!-- Generator: Sketch 3.2.2 (9983) - http://www.bohemiancoding.com/sketch -->
    <title>17-03-2015 - drums</title>
    <desc>Created with Sketch.</desc>
    <defs></defs>
    <g id="January" stroke="none" stroke-width="1" fill="none" fill-rule="evenodd" sketch:type="MSPage">
        <g id="17-03-2015---drums" sketch:type="MSArtboardGroup" fill="#000000">
            <path d="M43.8079749,42.3348916 L39.336478,36.0504105 C37.6063516,36.4184054 35.9872937,36.8479765 34.502032,37.3308575 L34.502032,37.3308575 L41.3469337,43.3723299 C41.836693,43.1066164 42.4549811,43.1631468 42.8891559,43.5540795 L43.5749193,44.1715436 C44.119521,44.6619052 44.1690416,45.5233441 43.6679836,46.0798253 C43.1634324,46.6401862 42.3128838,46.6841741 41.7604278,46.1867405 L41.0746645,45.5692764 C40.6793405,45.2133251 40.5448869,44.6618443 40.6925307,44.1734117 L40.6925307,44.1734117 L32.8421436,37.9137921 C27.7042552,39.8624487 24.5469453,42.5073052 24.5469453,45.4203722 C24.5469453,51.4109272 37.8990703,56.2672316 54.3697513,56.2672316 C70.8404322,56.2672316 84.1925572,51.4109272 84.1925572,45.4203722 C84.1925572,39.4298172 70.8404322,34.5735128 54.3697513,34.5735128 C49.4953363,34.5735128 44.894055,34.9988445 40.8311604,35.7530329 L40.8311604,35.7530329 L44.6719919,41.7662597 C45.1717641,41.668736 45.7013037,41.8589568 46.0182344,42.2951745 L46.5606342,43.0417238 C46.9913832,43.6345988 46.8607184,44.4875091 46.2549108,44.9276541 C45.6448797,45.3708677 44.8037721,45.2370553 44.3668108,44.6356298 L43.824411,43.8890805 C43.4856103,43.4227612 43.4941243,42.795573 43.8079749,42.3348916 Z M38.2540594,34.5291214 C36.3942766,34.9705554 34.6572557,35.4860682 33.0683973,36.0654975 L33.0683973,36.0654975 L17.1940143,22.0543908 C16.6449171,21.5697446 15.8159289,21.6285057 15.3458774,22.1886913 L15.3050278,22.2373739 C14.840765,22.7906607 14.9194447,23.6228691 15.4936932,24.0807545 L31.3643738,36.735471 C26.0173494,39.0017657 22.7395025,42.0579214 22.7395025,45.4203722 C22.7395025,46.9026512 23.3764985,48.3254067 24.5469453,49.6472123 L24.5469453,71.2864143 C23.9565448,72.2659634 23.6432239,73.2905775 23.6432239,74.3453307 C23.6432239,81.3343116 37.3999588,87 54.3697513,87 C71.3395437,87 85.0962786,81.3343116 85.0962786,74.3453307 C85.0962786,73.2905775 84.7829577,72.2659634 84.1925572,71.2864143 L84.1925572,49.6472123 C85.363004,48.3254067 86,46.9026512 86,45.4203722 C86,38.4313913 71.8386553,32.7657029 54.3697513,32.7657029 C49.1260432,32.7657029 44.1803605,33.276206 39.8262653,34.1797635 L27.323598,14.6055193 C26.9293586,13.9882958 26.1162872,13.8162804 25.5100366,14.2252016 L25.4573507,14.2607387 C24.8585661,14.664624 24.7048102,15.486281 25.130603,16.0847131 L38.2540594,34.5291214 L38.2540594,34.5291214 Z M27.6952922,76.5429442 C28.5233744,77.7024949 29.7414308,78.8549444 31.4211583,79.924079 C36.160478,82.9406223 43.6145128,84.2882847 54.3697509,84.2882847 C65.124989,84.2882847 72.5790246,82.9406223 77.3183442,79.924079 C78.9980717,78.8549444 80.2161281,77.7024949 81.0442103,76.5429442 C81.5517696,75.8322169 81.8173693,75.2662592 81.9158679,74.921444 L82.0400036,74.4868809 L81.1710538,74.2385591 L81.0469182,74.6731223 C81.0322669,74.724412 80.9890655,74.8407471 80.9081995,75.0130618 C80.7674425,75.3129963 80.5707367,75.6508051 80.308822,76.0175602 C79.5483315,77.0824631 78.4153002,78.1544672 76.8331583,79.1614892 C72.2528511,82.0768222 64.9649307,83.3843798 54.3697509,83.3843798 C43.7745711,83.3843798 36.4866515,82.0768222 31.9063442,79.1614892 C30.3242023,78.1544672 29.191171,77.0824631 28.4306805,76.0175602 C28.1687658,75.6508051 27.97206,75.3129963 27.831303,75.0130618 C27.750437,74.8407471 27.7072356,74.724412 27.6925844,74.6731223 L27.5684487,74.2385591 L26.6994989,74.4868809 L26.8236346,74.921444 C26.9221332,75.2662592 27.1877329,75.8322169 27.6952922,76.5429442 Z" id="drums" sketch:type="MSShapeGroup"></path>
        </g>
    </g>
</svg>