<?xml version="1.0" encoding="UTF-8" standalone="no"?>
<svg width="100px" height="100px" viewBox="0 0 100 100" version="1.1" xmlns="http://www.w3.org/2000/svg" xmlns:xlink="http://www.w3.org/1999/xlink" xmlns:sketch="http://www.bohemiancoding.com/sketch/ns">
    <!-- Generator: Sketch 3.2.2 (9983) - http://www.bohemiancoding.com/sketch -->
    <title>18-03-2015 - tuning fork</title>
    <desc>Created with Sketch.</desc>
    <defs></defs>
    <g id="January" stroke="none" stroke-width="1" fill="none" fill-rule="evenodd" sketch:type="MSPage">
        <g id="18-03-2015---tuning-fork" sketch:type="MSArtboardGroup" fill="#000000">
            <path d="M81.3558416,19.602848 C84.0628599,22.0562477 86,28.6178609 86,36.3270495 C86,43.5165596 84.3152235,49.7079964 81.8924312,52.5 C83.1928222,48.5128203 84,42.9492655 84,36.7942803 C84,29.8317682 82.9671266,23.6260569 81.3558416,19.602848 Z M86,22.102848 C88.7070183,24.1833583 90.6441584,29.7476796 90.6441584,36.2851575 C90.6441584,42.3819423 88.9593819,47.6323498 86.5365896,50 C87.8369806,46.6188271 88.6441584,41.9008705 88.6441584,36.6813744 C88.6441584,30.7770865 87.611285,25.514574 86,22.102848 L86,22.102848 Z M32.6441584,22.102848 C29.9371401,24.1833583 28,29.7476796 28,36.2851575 C28,42.3819423 29.6847765,47.6323498 32.1075688,50 C30.8071778,46.6188271 30,41.9008705 30,36.6813744 C30,30.7770865 31.0328734,25.514574 32.6441584,22.102848 L32.6441584,22.102848 Z M28,19.602848 C25.2929817,22.0562477 23.3558416,28.6178609 23.3558416,36.3270495 C23.3558416,43.5165596 25.0406181,49.7079964 27.4634104,52.5 C26.1630194,48.5128203 25.3558416,42.9492655 25.3558416,36.7942803 C25.3558416,29.8317682 26.388715,23.6260569 28,19.602848 L28,19.602848 Z M55,86.4160437 L55,72.9974219 C55,72.9667418 55.0006866,72.9362232 55.0020457,72.9058809 C48.8310173,72.1449439 44.2231576,66.8631659 44.4557075,60.468045 L46,18 L68,18 L69.5442925,60.468045 C69.7769899,66.8672233 65.1736406,72.1461682 58.9979582,72.9060887 L58.9979582,72.9060887 C58.9993145,72.9363586 59,72.9668077 59,72.9974219 L59,86.4160437 C60.7659048,87.1876003 62,88.949681 62,91 C62,93.7614237 59.7614237,96 57,96 C54.2385763,96 52,93.7614237 52,91 C52,88.949681 53.2340952,87.1876003 55,86.4160437 L55,86.4160437 Z M49,18 L65,18 L65,59.9943671 C65,64.415756 61.4092877,68 57,68 C52.581722,68 49,64.424189 49,59.9943671 L49,18 Z" id="tuning-fork" sketch:type="MSShapeGroup" transform="translate(57.000000, 57.000000) rotate(-45.000000) translate(-57.000000, -57.000000) "></path>
        </g>
    </g>
</svg>