<?xml version="1.0" encoding="UTF-8" standalone="no"?>
<svg width="100px" height="100px" viewBox="0 0 100 100" version="1.1" xmlns="http://www.w3.org/2000/svg" xmlns:xlink="http://www.w3.org/1999/xlink" xmlns:sketch="http://www.bohemiancoding.com/sketch/ns">
    <!-- Generator: Sketch 3.2.2 (9983) - http://www.bohemiancoding.com/sketch -->
    <title>19-03-2015 - headphones</title>
    <desc>Created with Sketch.</desc>
    <defs></defs>
    <g id="January" stroke="none" stroke-width="1" fill="none" fill-rule="evenodd" sketch:type="MSPage">
        <g id="19-03-2015---headphones" sketch:type="MSArtboardGroup" fill="#000000">
            <path d="M29.4117648,32.0655597 C26.7921543,36.1089025 24.9917524,40.9452236 24.3070587,46.221004 C25.8747568,46.7651437 27,48.2529375 27,49.9968389 L27,65.4693095 C27.1118231,65.7214768 27.2264778,65.9715836 27.3439139,66.2195698 C27.2276174,66.0426109 27.1129711,65.8642372 27,65.6844764 L27,70.0031611 C27,72.2105543 25.2122004,74 22.990237,74 L21.009763,74 C18.795232,74 17,72.2058797 17,70.0031611 L17,65.8799783 L17,65.8799783 C15.8588798,65.3240539 15,62.9027495 15,60 C15,57.0972505 15.8588798,54.6759461 17,54.1200217 L17,49.9968389 C17,47.7894457 18.7877996,46 21.009763,46 L22.0573364,46 L22.0573364,46 C22.3984381,40.0692082 24.2458746,34.5917304 27.1806851,30.031416 C27.2503105,29.4991725 27.5003104,28.8328162 28,28 C40.0000006,12 61.0000006,13 72.0000009,27.9999996 C72.642192,28.8562546 72.8719736,29.5292164 72.8364822,30.0581216 C75.7613294,34.6131081 77.6022275,40.0807808 77.9426636,46 L77.9426636,46 L78.990237,46 C81.204768,46 83,47.7941203 83,49.9968389 L83,54.1200217 C84.1411202,54.6759461 85,57.0972505 85,60 C85,62.9027495 84.1411202,65.3240539 83,65.8799783 L83,65.8799783 L83,70.0031611 C83,72.2105543 81.2122004,74 78.990237,74 L77.009763,74 C74.795232,74 73,72.2058797 73,70.0031611 L73,65.6844764 C72.8870289,65.8642372 72.7723826,66.0426109 72.6560861,66.2195698 L72.6560861,66.2195698 C72.7735222,65.9715836 72.8881769,65.7214768 73,65.4693095 L73,49.9968389 C73,48.2482249 74.1218824,46.7618819 75.6927564,46.21958 C74.9957757,40.8507785 73.1433891,35.9371164 70.448072,31.8511605 C69.6687407,32.0000005 69.0000002,32.0000005 69.0000002,32.0000005 C63.0000002,24.2268052 47.0000002,14 31.0000001,32.0000005 C31.0000001,32.0000005 30.2493143,32.1251148 29.4117648,32.0655597 Z" id="headphones" sketch:type="MSShapeGroup"></path>
        </g>
    </g>
</svg>