<?xml version="1.0" encoding="UTF-8" standalone="no"?>
<svg width="100px" height="100px" viewBox="0 0 100 100" version="1.1" xmlns="http://www.w3.org/2000/svg" xmlns:xlink="http://www.w3.org/1999/xlink" xmlns:sketch="http://www.bohemiancoding.com/sketch/ns">
    <!-- Generator: Sketch 3.2.2 (9983) - http://www.bohemiancoding.com/sketch -->
    <title>20-03-2015 - pizza</title>
    <desc>Created with Sketch.</desc>
    <defs></defs>
    <g id="January" stroke="none" stroke-width="1" fill="none" fill-rule="evenodd" sketch:type="MSPage">
        <g id="20-03-2015---pizza" sketch:type="MSArtboardGroup" fill="#000000">
            <path d="M22.8048307,30.9783685 C21.0692719,27.291297 20,25 20,25 C20,25 30,15 50,15 C70,15 80,25 80,25 C80,25 79.3407781,26.4126184 78.2174104,28.8043526 L77,28.5 C76.9445914,28.5 76.8081343,28.492419 76.6025877,28.4679492 C76.241452,28.4249569 75.83423,28.346645 75.3926437,28.2239821 C74.1173284,27.8697279 72.8383155,27.2302214 71.6401844,26.2317788 C71.350833,25.9906527 70.5032582,25.2706206 70.462569,25.2363848 C70.0400306,24.8808619 69.7345054,24.6362203 69.4275988,24.4133477 C68.1832785,23.5097341 66.9522378,23.0325647 64.6320112,22.5786073 C63.7188738,22.39995 62.6020874,22.2187171 61.1414214,22.0100505 C59.6282016,21.7938763 58.4522621,21.9141901 54.9690241,22.4739783 C53.5795921,22.6972727 52.7925705,22.8099537 51.9370963,22.8949846 C51.2400607,22.9642673 50.601828,23 50,23 C42.0010584,22.1050748 38.1208505,22.4233803 32.713248,24.0419952 C30.6024067,24.6738167 28.7247181,25.6003424 27.0754272,26.7441567 C25.1084991,28.1082584 23.82261,29.4839963 23.1734868,30.4370828 L22.8048307,30.9783685 L22.8048307,30.9783685 Z M24.0958288,33.7174364 C31.9479104,50.3555475 48.4802533,85 50,85 C51.6263552,85 70.4454126,45.3245333 77.4202922,30.5 L77,30.5 C76.5394464,30.5 75.7943754,30.4113011 74.857356,30.1510179 C73.3201714,29.7240222 71.7866844,28.9572787 70.3598156,27.7682214 C70.0616669,27.5197642 69.2089734,26.7953837 69.174931,26.7667404 C68.7857237,26.4392622 68.5131508,26.2210064 68.2524012,26.0316525 C67.2697052,25.318028 66.3037359,24.9436041 64.247988,24.5413926 C63.3736969,24.3703356 62.2882347,24.1941861 60.8585786,23.9899495 C59.6306512,23.8145313 58.5337249,23.926761 55.2863704,24.4486406 C53.8593319,24.6779788 53.041605,24.7950559 52.1349139,24.8851776 C51.3757593,24.9606347 50.6726434,25 49.8895685,24.9938837 C42.0417818,24.1219074 38.4314912,24.4180708 33.286752,25.9580049 C31.3845437,26.5273779 29.6963446,27.3604021 28.2151923,28.387609 C27.1928122,29.0966489 26.3303471,29.8548046 25.6247662,30.6096864 C25.2099447,31.0534927 24.9449134,31.3890742 24.8265132,31.5629174 L24.0958288,33.7174364 L24.0958288,33.7174364 Z M41.5,52 C43.9852814,52 46,49.9852814 46,47.5 C46,45.0147186 43.9852814,43 41.5,43 C39.0147186,43 37,45.0147186 37,47.5 C37,49.9852814 39.0147186,52 41.5,52 Z M54.5,40 C56.9852814,40 59,37.9852814 59,35.5 C59,33.0147186 56.9852814,31 54.5,31 C52.0147186,31 50,33.0147186 50,35.5 C50,37.9852814 52.0147186,40 54.5,40 Z M54.5,65 C56.9852814,65 59,62.9852814 59,60.5 C59,58.0147186 56.9852814,56 54.5,56 C52.0147186,56 50,58.0147186 50,60.5 C50,62.9852814 52.0147186,65 54.5,65 Z" id="pizza" sketch:type="MSShapeGroup"></path>
        </g>
    </g>
</svg>