<?xml version="1.0" encoding="UTF-8" standalone="no"?>
<svg width="100px" height="100px" viewBox="0 0 100 100" version="1.1" xmlns="http://www.w3.org/2000/svg" xmlns:xlink="http://www.w3.org/1999/xlink" xmlns:sketch="http://www.bohemiancoding.com/sketch/ns">
    <!-- Generator: Sketch 3.2.2 (9983) - http://www.bohemiancoding.com/sketch -->
    <title>21-03-2015 - popsicle</title>
    <desc>Created with Sketch.</desc>
    <defs></defs>
    <g id="January" stroke="none" stroke-width="1" fill="none" fill-rule="evenodd" sketch:type="MSPage">
        <g id="21-03-2015---popsicle" sketch:type="MSArtboardGroup" fill="#000000">
            <path d="M45.952381,67.8915663 L54.047619,67.8915663 L54.047619,78.951217 C54.047619,81.1872981 52.2308896,83 50,83 C47.7645617,83 45.952381,81.1925767 45.952381,78.951217 L45.952381,67.8915663 Z M47.3015873,67.8915663 L52.6984127,67.8915663 L52.6984127,78.9937272 C52.6984127,80.4807516 51.4872597,81.6862232 50,81.6862232 C48.5097078,81.6862232 47.3015873,80.4861694 47.3015873,78.9937272 L47.3015873,67.8915663 Z M33,33.9992144 C33,24.6108075 40.6090949,17 50,17 C59.3888407,17 67,24.6189817 67,33.9992144 L67,67.8915663 L33,67.8915663 L33,33.9992144 Z M34.6190476,54.373494 C34.6190476,51.2697563 36.4284858,63.8485788 45.952381,57.5542168 C48.0934208,56.1391992 53.2380952,55.9638554 56.4761905,59.9397589 C59.7142857,63.9156623 63.1540043,53.6965484 65.3809524,56.7590361 L65.3809524,66.3012048 L34.6190476,66.3012048 L34.6190476,54.373494 Z" id="popsicle" sketch:type="MSShapeGroup" transform="translate(50.000000, 50.000000) rotate(-45.000000) translate(-50.000000, -50.000000) "></path>
        </g>
    </g>
</svg>