<?xml version="1.0" encoding="UTF-8" standalone="no"?>
<svg width="100px" height="100px" viewBox="0 0 100 100" version="1.1" xmlns="http://www.w3.org/2000/svg" xmlns:xlink="http://www.w3.org/1999/xlink" xmlns:sketch="http://www.bohemiancoding.com/sketch/ns">
    <!-- Generator: Sketch 3.2.2 (9983) - http://www.bohemiancoding.com/sketch -->
    <title>22-03-2015 - movie</title>
    <desc>Created with Sketch.</desc>
    <defs></defs>
    <g id="January" stroke="none" stroke-width="1" fill="none" fill-rule="evenodd" sketch:type="MSPage">
        <g id="22-03-2015---movie" sketch:type="MSArtboardGroup" fill="#000000">
            <path d="M14,37 L86,37 L86,50 L14,50 L14,37 Z M61,38 L71.5,49 L84,49 L73,38 L61,38 Z M38,38 L48.5,49 L61,49 L50,38 L38,38 Z M15,38 L25.5,49 L38,49 L27,38 L15,38 Z M84,40 L84,39 L83,39 L84,40 Z M81.2406305,8.5214426 L80.8612923,7 L79.3398497,7.37933825 L14.9471819,23.4342335 L11,24.4183765 L11.3793382,25.9398191 L11.3793382,25.9398191 L13.9030627,36.0619252 L14.8733585,35.8200033 L12.9708941,28.1896355 L22.5037263,33.9175389 L13.9030627,36.0619252 L14.1449846,37.0322209 L84.0062769,19.6138444 L83.764355,18.6435487 L80.0151702,19.5783255 L80.0151702,19.5783255 L66.6807763,11.5662134 L79.0306247,8.48705032 L80.4077512,9.31451138 L82.7940593,18.8854706 L83.764355,18.6435487 L81.2406305,8.5214426 Z M69.0779211,22.305288 L55.7435273,14.2931758 L55.7435273,14.2931758 L43.3936789,17.3723388 L56.7280727,25.384451 L69.0779211,22.305288 L69.0779211,22.305288 Z M33.4409753,31.1905765 L20.1065815,23.1784643 L32.4564298,20.0993013 L45.7908237,28.1114134 L33.4409753,31.1905765 L33.4409753,31.1905765 Z M14,50 L86,50 L86,79.9992049 C86,84.417922 82.4172013,88 78.0023206,88 L21.9976794,88 C17.5806831,88 14,84.4250523 14,79.9992049 L14,50 Z" id="Rectangle-84" sketch:type="MSShapeGroup"></path>
        </g>
    </g>
</svg>