<?xml version="1.0" encoding="UTF-8" standalone="no"?>
<svg width="100px" height="100px" viewBox="0 0 100 100" version="1.1" xmlns="http://www.w3.org/2000/svg" xmlns:xlink="http://www.w3.org/1999/xlink" xmlns:sketch="http://www.bohemiancoding.com/sketch/ns">
    <!-- Generator: Sketch 3.2.2 (9983) - http://www.bohemiancoding.com/sketch -->
    <title>23-03-2015 - film</title>
    <desc>Created with Sketch.</desc>
    <defs></defs>
    <g id="January" stroke="none" stroke-width="1" fill="none" fill-rule="evenodd" sketch:type="MSPage">
        <g id="23-03-2015---film" sketch:type="MSArtboardGroup" fill="#000000">
            <path d="M64.3761966,67.7222222 C64.3338516,68.4556969 64.2115585,69.0202918 63.9335574,69.3333333 L53.549262,69.3333333 L53.549262,74.1666667 L23.1951678,74.1666667 L23.1951678,29.0555556 L53.549262,29.0555556 L53.549262,33.8888889 L53.549262,33.8888889 L79.9093965,33.8888889 C79.9093965,33.8888889 81.5238577,54.0277778 71.122685,54.0277778 C64.1689398,54.0277778 64.134029,59.9569583 64.3143743,64.5 L61.5371816,64.5 L61.5371816,67.7222222 L64.3761966,67.7222222 Z M23.9939598,33.8888889 L41.5673827,33.8888889 L41.5673827,69.3333333 L23.9939598,69.3333333 L23.9939598,33.8888889 Z M20,26.6388889 C20,25.3042007 21.0797914,24.2222222 22.4109047,24.2222222 L54.3335252,24.2222222 C55.6650311,24.2222222 56.7444298,25.2948955 56.7444298,26.6388889 C56.7444298,27.973577 55.6646384,29.0555556 54.3335252,29.0555556 L22.4109047,29.0555556 C21.0793988,29.0555556 20,27.9828822 20,26.6388889 Z M20,76.5833333 C20,75.2486452 21.0797914,74.1666667 22.4109047,74.1666667 L54.3335252,74.1666667 C55.6650311,74.1666667 56.7444298,75.23934 56.7444298,76.5833333 C56.7444298,77.9180215 55.6646384,79 54.3335252,79 L22.4109047,79 C21.0793988,79 20,77.9273267 20,76.5833333 Z M20.798792,76.5833333 C20.798792,75.6935412 21.5167902,74.9722222 22.4003086,74.9722222 L54.3441213,74.9722222 C55.2286145,74.9722222 55.9456379,75.6873378 55.9456379,76.5833333 C55.9456379,77.4731254 55.2276397,78.1944444 54.3441213,78.1944444 L22.4003086,78.1944444 C21.5158154,78.1944444 20.798792,77.4793289 20.798792,76.5833333 Z M20.798792,26.6388889 C20.798792,25.7490968 21.5167902,25.0277778 22.4003086,25.0277778 L54.3441213,25.0277778 C55.2286145,25.0277778 55.9456379,25.7428933 55.9456379,26.6388889 C55.9456379,27.528681 55.2276397,28.25 54.3441213,28.25 L22.4003086,28.25 C21.5158154,28.25 20.798792,27.5348845 20.798792,26.6388889 Z M33.5794632,21 L43.1649666,21 L43.1649666,24.2222222 L33.5794632,24.2222222 L33.5794632,21 Z M53.549262,34.6944444 L55.1468459,34.6944444 L55.1468459,68.5277778 L53.549262,68.5277778 L53.549262,34.6944444 Z M56.7444298,35.5 L59.9395977,35.5 L59.9395977,38.7222222 L56.7444298,38.7222222 L56.7444298,35.5 Z M61.5371816,35.5 L64.7323494,35.5 L64.7323494,38.7222222 L61.5371816,38.7222222 L61.5371816,35.5 Z M66.3299333,35.5 L69.5251011,35.5 L69.5251011,38.7222222 L66.3299333,38.7222222 L66.3299333,35.5 Z M71.122685,35.5 L74.3178528,35.5 L74.3178528,38.7222222 L71.122685,38.7222222 L71.122685,35.5 Z M75.9154367,35.5 L79.1106045,35.5 L79.1106045,38.7222222 L75.9154367,38.7222222 L75.9154367,35.5 Z M56.7444298,64.5 L59.9395977,64.5 L59.9395977,67.7222222 L56.7444298,67.7222222 L56.7444298,64.5 Z" id="film" sketch:type="MSShapeGroup"></path>
        </g>
    </g>
</svg>