<?xml version="1.0" encoding="UTF-8" standalone="no"?>
<svg width="100px" height="100px" viewBox="0 0 100 100" version="1.1" xmlns="http://www.w3.org/2000/svg" xmlns:xlink="http://www.w3.org/1999/xlink" xmlns:sketch="http://www.bohemiancoding.com/sketch/ns">
    <!-- Generator: Sketch 3.2.2 (9983) - http://www.bohemiancoding.com/sketch -->
    <title>24-03-2015 - eye dropper</title>
    <desc>Created with Sketch.</desc>
    <defs></defs>
    <g id="January" stroke="none" stroke-width="1" fill="none" fill-rule="evenodd" sketch:type="MSPage">
        <g id="24-03-2015---eye-dropper" sketch:type="MSArtboardGroup" fill="#000000">
            <path d="M43.7142868,31.7045455 L42.3885215,31.7045455 C41.070264,31.7045455 40,32.7729568 40,34.0909091 C40,35.4180499 41.0693775,36.4772727 42.3885215,36.4772727 L58.6114785,36.4772727 C59.929736,36.4772727 61,35.4088613 61,34.0909091 C61,32.7637683 59.9306225,31.7045455 58.6114785,31.7045455 L57,31.7045455 L57,15.6415894 C57,11.9767871 54.0258918,9 50.3571434,9 C46.6958602,9 43.7142868,11.9735409 43.7142868,15.6415894 L43.7142868,31.7045455 Z M52.6879983,80.4981163 C54.236865,79.7046728 55.2996666,78.0932474 55.2996666,76.2344403 L55.2996666,36.4772727 L45.7142857,36.4772727 L45.7142857,76.2344403 C45.7142857,78.0908298 46.7754637,79.7042748 48.3258561,80.4984012 C48.1876441,80.9004462 48.1106309,81.3473724 48.1106309,81.8181818 C48.1106309,83.5754515 49.1835112,85 50.5069761,85 C51.8304411,85 52.9033214,83.5754515 52.9033214,81.8181818 C52.9033214,81.3472612 52.8262718,80.9002351 52.6879983,80.4981163 L52.6879983,80.4981163 Z M46.9124583,68.6828301 L46.9124583,36.4772727 L54.101494,36.4772727 L54.101494,69.8863636 C54.101494,71.4837527 49.9078898,65.9090909 46.9124583,68.6828301 Z" id="Rectangle-111" sketch:type="MSShapeGroup" transform="translate(50.500000, 50.000000) rotate(45.000000) translate(-50.500000, -50.000000) "></path>
        </g>
    </g>
</svg>