<?xml version="1.0" encoding="UTF-8" standalone="no"?>
<svg width="100px" height="100px" viewBox="0 0 100 100" version="1.1" xmlns="http://www.w3.org/2000/svg" xmlns:xlink="http://www.w3.org/1999/xlink" xmlns:sketch="http://www.bohemiancoding.com/sketch/ns">
    <!-- Generator: Sketch 3.2.2 (9983) - http://www.bohemiancoding.com/sketch -->
    <title>26-03-2015 - flask</title>
    <desc>Created with Sketch.</desc>
    <defs></defs>
    <g id="January" stroke="none" stroke-width="1" fill="none" fill-rule="evenodd" sketch:type="MSPage">
        <g id="26-03-2015---flask" sketch:type="MSArtboardGroup" fill="#000000">
            <path d="M44.7114801,45.5857865 L44.71148,31.1857865 L55.6195971,31.1857865 C55.6195971,31.1857865 55.6195971,45.5857865 55.6195955,45.5857865 L73.1191214,81.6817942 C75.503169,86.5993333 72.9956629,90.5857864 67.5273155,90.5857864 L31.901519,90.5857864 C26.9274959,90.5857864 24.6528777,86.9603615 26.8207539,82.4887162 L44.7114801,45.5857865 Z M33.803367,69.8857865 C37.4394048,62.6857865 45.6204901,45.5857865 45.6204901,45.5857865 L45.6204901,31.1857865 L54.7105848,31.1857865 C54.7105848,31.1857865 54.7105864,45.5857865 54.7105848,45.5857865 C58.3466227,52.7857865 61.0736511,59.0857865 64.709689,66.2857865 C50.1655382,62.6857865 43.802471,77.0857865 33.803367,69.8857865 Z M58.8011274,77.0857864 C60.5582397,77.0857864 61.9826606,75.6754834 61.9826606,73.9357864 C61.9826606,72.1960895 60.5582397,70.7857864 58.8011274,70.7857864 C57.0440152,70.7857864 55.6195943,72.1960895 55.6195943,73.9357864 C55.6195943,75.6754834 57.0440152,77.0857864 58.8011274,77.0857864 Z M51.0745469,76.1857864 C52.0786111,76.1857864 52.8925659,75.379899 52.8925659,74.3857864 C52.8925659,73.3916739 52.0786111,72.5857864 51.0745469,72.5857864 C50.0704828,72.5857864 49.256528,73.3916739 49.256528,74.3857864 C49.256528,75.379899 50.0704828,76.1857864 51.0745469,76.1857864 Z M64.709689,80.6857864 C65.7137531,80.6857864 66.5277079,79.879899 66.5277079,78.8857864 C66.5277079,77.8916739 65.7137531,77.0857864 64.709689,77.0857864 C63.7056248,77.0857864 62.89167,77.8916739 62.89167,78.8857864 C62.89167,79.879899 63.7056248,80.6857864 64.709689,80.6857864 Z M58.8011274,76.1857864 C60.0562076,76.1857864 61.0736511,75.1784271 61.0736511,73.9357864 C61.0736511,72.6931458 60.0562076,71.6857864 58.8011274,71.6857864 C57.5460473,71.6857864 56.5286037,72.6931458 56.5286037,73.9357864 C56.5286037,75.1784271 57.5460473,76.1857864 58.8011274,76.1857864 Z M51.0745469,75.2857864 C51.576579,75.2857864 51.9835564,74.8828427 51.9835564,74.3857864 C51.9835564,73.8887302 51.576579,73.4857864 51.0745469,73.4857864 C50.5725149,73.4857864 50.1655375,73.8887302 50.1655375,74.3857864 C50.1655375,74.8828427 50.5725149,75.2857864 51.0745469,75.2857864 Z M64.709689,79.7857864 C65.211721,79.7857864 65.6186984,79.3828427 65.6186984,78.8857864 C65.6186984,78.3887302 65.211721,77.9857864 64.709689,77.9857864 C64.2076569,77.9857864 63.8006795,78.3887302 63.8006795,78.8857864 C63.8006795,79.3828427 64.2076569,79.7857864 64.709689,79.7857864 Z M42.8934617,29.3857864 C42.8934617,28.3916739 43.6961354,27.5857864 44.6914475,27.5857864 L55.6396275,27.5857864 C56.6326276,27.5857864 57.4376132,28.3847431 57.4376132,29.3857864 C57.4376132,30.379899 56.6349395,31.1857864 55.6396275,31.1857864 L44.6914475,31.1857864 C43.6984474,31.1857864 42.8934617,30.3868298 42.8934617,29.3857864 Z M43.8024712,29.3857864 C43.8024712,28.8887302 44.197294,28.4857864 44.6973481,28.4857864 L55.6337268,28.4857864 C56.1279537,28.4857864 56.5286037,28.8852648 56.5286037,29.3857864 C56.5286037,29.8828427 56.1337809,30.2857864 55.6337268,30.2857864 L44.6973481,30.2857864 C44.2031212,30.2857864 43.8024712,29.8863081 43.8024712,29.3857864 Z M48.0101566,23.5857864 C49.1147261,23.5857864 50.0101566,22.6903559 50.0101566,21.5857864 C50.0101566,20.4812169 49.1147261,19.5857864 48.0101566,19.5857864 C46.9055871,19.5857864 46.0101566,20.4812169 46.0101566,21.5857864 C46.0101566,22.6903559 46.9055871,23.5857864 48.0101566,23.5857864 Z M48.0101566,22.9191198 C48.7465363,22.9191198 49.3434899,22.3221661 49.3434899,21.5857864 C49.3434899,20.8494068 48.7465363,20.2524531 48.0101566,20.2524531 C47.2737769,20.2524531 46.6768233,20.8494068 46.6768233,21.5857864 C46.6768233,22.3221661 47.2737769,22.9191198 48.0101566,22.9191198 Z M36.6964481,13 C37.8010176,13 38.6964481,12.1045695 38.6964481,11 C38.6964481,9.8954305 37.8010176,9 36.6964481,9 C35.5918786,9 34.6964481,9.8954305 34.6964481,11 C34.6964481,12.1045695 35.5918786,13 36.6964481,13 Z M36.6964481,12.3333333 C37.4328278,12.3333333 38.0297814,11.7363797 38.0297814,11 C38.0297814,10.2636203 37.4328278,9.66666667 36.6964481,9.66666667 C35.9600684,9.66666667 35.3631148,10.2636203 35.3631148,11 C35.3631148,11.7363797 35.9600684,12.3333333 36.6964481,12.3333333 Z M39.9893413,20.7071068 C41.0939108,20.7071068 41.9893413,19.8116763 41.9893413,18.7071068 C41.9893413,17.6025373 41.0939108,16.7071068 39.9893413,16.7071068 C38.8847718,16.7071068 37.9893413,17.6025373 37.9893413,18.7071068 C37.9893413,19.8116763 38.8847718,20.7071068 39.9893413,20.7071068 Z M39.9893413,20.0404401 C40.725721,20.0404401 41.3226747,19.4434864 41.3226747,18.7071068 C41.3226747,17.9707271 40.725721,17.3737734 39.9893413,17.3737734 C39.2529617,17.3737734 38.656008,17.9707271 38.656008,18.7071068 C38.656008,19.4434864 39.2529617,20.0404401 39.9893413,20.0404401 Z" id="flask" sketch:type="MSShapeGroup" transform="translate(50.010375, 49.792893) rotate(45.000000) translate(-50.010375, -49.792893) "></path>
        </g>
    </g>
</svg>