<?xml version="1.0" encoding="UTF-8" standalone="no"?>
<svg width="100px" height="100px" viewBox="0 0 100 100" version="1.1" xmlns="http://www.w3.org/2000/svg" xmlns:xlink="http://www.w3.org/1999/xlink" xmlns:sketch="http://www.bohemiancoding.com/sketch/ns">
    <!-- Generator: Sketch 3.2.2 (9983) - http://www.bohemiancoding.com/sketch -->
    <title>27-03-2015 - cheese</title>
    <desc>Created with Sketch.</desc>
    <defs></defs>
    <g id="January" stroke="none" stroke-width="1" fill="none" fill-rule="evenodd" sketch:type="MSPage">
        <g id="27-03-2015---cheese" sketch:type="MSArtboardGroup" fill="#000000">
            <path d="M24,48.1542612 L77,32.1542612 L76,66.1542612 L24,76.1542612 L24,48.1542612 Z M24,47.1542612 C24,47.1542612 40,28.1542611 46,23.1542612 C56,22.1542612 70,26.1542612 77,31.1542612 L24,47.1542612 Z M57.5,54.1542612 C59.9852814,54.1542612 62,51.9156849 62,49.1542612 C62,46.3928375 59.9852814,44.1542612 57.5,44.1542612 C55.0147186,44.1542612 53,46.3928375 53,49.1542612 C53,51.9156849 55.0147186,54.1542612 57.5,54.1542612 Z M44.5,64.1542612 C45.8807119,64.1542612 47,62.8111154 47,61.1542612 C47,59.4974069 45.8807119,58.1542612 44.5,58.1542612 C43.1192881,58.1542612 42,59.4974069 42,61.1542612 C42,62.8111154 43.1192881,64.1542612 44.5,64.1542612 Z M35.5,59.1542612 C36.8807119,59.1542612 38,57.8111154 38,56.1542612 C38,54.4974069 36.8807119,53.1542612 35.5,53.1542612 C34.1192881,53.1542612 33,54.4974069 33,56.1542612 C33,57.8111154 34.1192881,59.1542612 35.5,59.1542612 Z M65,64.1542612 C66.1045695,64.1542612 67,63.2588307 67,62.1542612 C67,61.0496917 66.1045695,60.1542612 65,60.1542612 C63.8954305,60.1542612 63,61.0496917 63,62.1542612 C63,63.2588307 63.8954305,64.1542612 65,64.1542612 Z" id="cheese" sketch:type="MSShapeGroup"></path>
        </g>
    </g>
</svg>