<?xml version="1.0" encoding="UTF-8" standalone="no"?>
<svg width="100px" height="100px" viewBox="0 0 100 100" version="1.1" xmlns="http://www.w3.org/2000/svg" xmlns:xlink="http://www.w3.org/1999/xlink" xmlns:sketch="http://www.bohemiancoding.com/sketch/ns">
    <!-- Generator: Sketch 3.2.2 (9983) - http://www.bohemiancoding.com/sketch -->
    <title>28-03-2015 - 8 ball</title>
    <desc>Created with Sketch.</desc>
    <defs></defs>
    <g id="January" stroke="none" stroke-width="1" fill="none" fill-rule="evenodd" sketch:type="MSPage">
        <g id="28-03-2015---8-ball" sketch:type="MSArtboardGroup" fill="#000000">
            <path d="M43.0417353,39.5654928 C44.2449832,40.6627945 45,42.2432254 45,44 C45,47.3137085 42.3137085,50 39,50 C35.6862915,50 33,47.3137085 33,44 C33,41.3072009 34.7739135,39.0287215 37.2169019,38.2694004 C36.4586772,37.3928166 36,36.2499732 36,35 C36,32.2385763 38.2385763,30 41,30 C43.7614237,30 46,32.2385763 46,35 C46,37.034128 44.7853187,38.784552 43.0417353,39.5654928 L43.0417353,39.5654928 Z M39,38 C38.3790906,38 37.7802096,38.0943151 37.2169019,38.2694004 L39,38 Z M50,86 C69.882251,86 86,69.882251 86,50 C86,30.117749 69.882251,14 50,14 C30.117749,14 14,30.117749 14,50 C14,69.882251 30.117749,86 50,86 Z M41,59 C50.9411255,59 59,50.9411255 59,41 C59,31.0588745 50.9411255,23 41,23 C31.0588745,23 23,31.0588745 23,41 C23,50.9411255 31.0588745,59 41,59 Z M39,48 C41.209139,48 43,46.209139 43,44 C43,41.790861 41.209139,40 39,40 C36.790861,40 35,41.790861 35,44 C35,46.209139 36.790861,48 39,48 Z M41,38 C42.6568542,38 44,36.6568542 44,35 C44,33.3431458 42.6568542,32 41,32 C39.3431458,32 38,33.3431458 38,35 C38,36.6568542 39.3431458,38 41,38 Z" id="8-ball" sketch:type="MSShapeGroup"></path>
        </g>
    </g>
</svg>