<?xml version="1.0" encoding="UTF-8" standalone="no"?>
<svg width="100px" height="100px" viewBox="0 0 100 100" version="1.1" xmlns="http://www.w3.org/2000/svg" xmlns:xlink="http://www.w3.org/1999/xlink" xmlns:sketch="http://www.bohemiancoding.com/sketch/ns">
    <!-- Generator: Sketch 3.2.2 (9983) - http://www.bohemiancoding.com/sketch -->
    <title>29-03-2015 - bug</title>
    <desc>Created with Sketch.</desc>
    <defs></defs>
    <g id="January" stroke="none" stroke-width="1" fill="none" fill-rule="evenodd" sketch:type="MSPage">
        <g id="29-03-2015---bug" sketch:type="MSArtboardGroup" fill="#000000">
            <path d="M49.5,79.2304603 C59.7172679,79.2304603 68,68.037579 68,54.2304603 C68,47.4303786 65.9909268,41.2644106 62.7311547,36.7573865 C59.3721738,32.1131945 39.9674723,31.9084648 36.6384342,36.2604992 C33.1615958,40.8057521 31,47.1769793 31,54.2304603 C31,68.037579 39.2827321,79.2304603 49.5,79.2304603 Z M17,48.2304603 C17,47.1258908 17.9019504,46.2304603 19.0085302,46.2304603 L26.9914698,46.2304603 C28.1007504,46.2304603 29,47.1181899 29,48.2304603 C29,49.3350298 28.0980496,50.2304603 26.9914698,50.2304603 L19.0085302,50.2304603 C17.8992496,50.2304603 17,49.3427306 17,48.2304603 Z M21.204445,32.677546 C21.4903287,31.6106138 22.5933003,30.9791363 23.6621743,31.2655402 L31.3731019,33.331677 C32.4445846,33.6187799 33.0834317,34.7090039 32.795555,35.7833745 C32.5096713,36.8503067 31.4066997,37.4817842 30.3378257,37.1953803 L22.6268981,35.1292435 C21.5554154,34.8421406 20.9165683,33.7519166 21.204445,32.677546 Z M18.204445,64.7833745 C17.9185614,63.7164423 18.5580241,62.6180809 19.6268981,62.331677 L27.3378257,60.2655402 C28.4093085,59.9784373 29.5076782,60.6031753 29.795555,61.677546 C30.0814386,62.7444782 29.4419759,63.8428396 28.3731019,64.1292435 L20.6621743,66.1953803 C19.5906915,66.4824833 18.4923218,65.8577452 18.204445,64.7833745 Z M25.8038476,81.2304603 C25.2515628,80.273875 25.5849595,79.0474343 26.5432858,78.4941443 L33.4567142,74.5026745 C34.4173794,73.9480342 35.6400172,74.2672059 36.1961524,75.2304603 C36.7484372,76.1870455 36.4150405,77.4134862 35.4567142,77.9667762 L28.5432858,81.958246 C27.5826206,82.5128863 26.3599828,82.1937146 25.8038476,81.2304603 Z M82.4629469,48.2304603 C82.4629469,47.1258908 81.5609965,46.2304603 80.4544167,46.2304603 L72.4714771,46.2304603 C71.3621965,46.2304603 70.4629469,47.1181899 70.4629469,48.2304603 C70.4629469,49.3350298 71.3648972,50.2304603 72.4714771,50.2304603 L80.4544167,50.2304603 C81.5636973,50.2304603 82.4629469,49.3427306 82.4629469,48.2304603 Z M78.2585018,32.677546 C77.9726182,31.6106138 76.8696466,30.9791363 75.8007726,31.2655402 L68.089845,33.331677 C67.0183622,33.6187799 66.3795152,34.7090039 66.6673919,35.7833745 C66.9532755,36.8503067 68.0562472,37.4817842 69.1251212,37.1953803 L76.8360487,35.1292435 C77.9075315,34.8421406 78.5463786,33.7519166 78.2585018,32.677546 Z M81.2585018,64.7833745 C81.5443855,63.7164423 80.9049228,62.6180809 79.8360487,62.331677 L72.1251212,60.2655402 C71.0536384,59.9784373 69.9552687,60.6031753 69.6673919,61.677546 C69.3815083,62.7444782 70.020971,63.8428396 71.089845,64.1292435 L78.8007726,66.1953803 C79.8722553,66.4824833 80.9706251,65.8577452 81.2585018,64.7833745 Z M73.6590993,81.2304603 C74.2113841,80.273875 73.8779874,79.0474343 72.9196611,78.4941443 L66.0062326,74.5026745 C65.0455675,73.9480342 63.8229296,74.2672059 63.2667945,75.2304603 C62.7145097,76.1870455 63.0479064,77.4134862 64.0062326,77.9667762 L70.9196611,81.958246 C71.8803263,82.5128863 73.1029641,82.1937146 73.6590993,81.2304603 Z M41.6540266,28.3121293 C42.9890376,31.0609166 56.7879243,31.1919811 58.2015731,28.5927763 C58.714436,27.6498014 59,26.6026911 59,25.5 C59,21.3578644 54.9705627,18 50,18 C45.0294373,18 41,21.3578644 41,25.5 C41,26.4944527 41.2322544,27.4437004 41.6540266,28.3121293 Z" id="Oval-97" sketch:type="MSShapeGroup" transform="translate(49.731473, 50.115065) rotate(-45.000000) translate(-49.731473, -50.115065) "></path>
        </g>
    </g>
</svg>