<?xml version="1.0" encoding="UTF-8" standalone="no"?>
<svg width="100px" height="100px" viewBox="0 0 100 100" version="1.1" xmlns="http://www.w3.org/2000/svg" xmlns:xlink="http://www.w3.org/1999/xlink" xmlns:sketch="http://www.bohemiancoding.com/sketch/ns">
    <!-- Generator: Sketch 3.2.2 (9983) - http://www.bohemiancoding.com/sketch -->
    <title>30-03-2015 - bullet</title>
    <desc>Created with Sketch.</desc>
    <defs></defs>
    <g id="January" stroke="none" stroke-width="1" fill="none" fill-rule="evenodd" sketch:type="MSPage">
        <g id="30-03-2015---bullet" sketch:type="MSArtboardGroup" fill="#000000">
            <path d="M64,34.8 C63.9999808,34.7997471 62.7271769,18 50,18 C37.2727273,18 36,34.8 36,34.8 L64,34.8 L64,34.8 Z M64,35.6 L64,74 L36,74 L36,35.6 L64,35.6 L64,35.6 Z M36,78.8 L64,78.8 L64,82 L36,82 L36,78.8 Z M37.2727273,74.8 L62.7272727,74.8 L62.7272727,78 L37.2727273,78 L37.2727273,74.8 Z M45.6000001,20.4 C44.8000004,19.6 39.2,26.3885045 38.4,32.4 C39.2,33.2000004 46.3999998,21.2 45.6000001,20.4 Z M37.7860125,37.2246812 L38.2149621,72.431158 L39.1999999,39.6000001 L37.7860125,37.2246812 Z" id="Rectangle-133" sketch:type="MSShapeGroup" transform="translate(50.000000, 50.000000) rotate(-45.000000) translate(-50.000000, -50.000000) "></path>
        </g>
    </g>
</svg>