<?xml version="1.0" encoding="UTF-8" standalone="no"?>
<svg width="100px" height="100px" viewBox="0 0 100 100" version="1.1" xmlns="http://www.w3.org/2000/svg" xmlns:xlink="http://www.w3.org/1999/xlink" xmlns:sketch="http://www.bohemiancoding.com/sketch/ns">
    <!-- Generator: Sketch 3.2.2 (9983) - http://www.bohemiancoding.com/sketch -->
    <title>31-03-2015 - route</title>
    <desc>Created with Sketch.</desc>
    <defs></defs>
    <g id="January" stroke="none" stroke-width="1" fill="none" fill-rule="evenodd" sketch:type="MSPage">
        <g id="31-03-2015---route" sketch:type="MSArtboardGroup" fill="#000000">
            <path d="M86,71 C78.0000019,89 60.0000011,76 50.0000011,90 C39.9999992,76 22,89 14,71 C5.99999997,53 31.0000004,46 15,25 L30.0000003,11 C30.0000003,11 39.9999992,20 50,11 C60.0000011,20 70,11 70,11 C70,11 79.0000003,19 85.0000003,25 C69.0000003,46 93.9999981,53 86,71 Z M77,36.0277901 C75.0569226,36.0277897 26.9429355,36.0277893 23,36.0277901 C22.4657136,32.6754155 21.01648,29.0404742 18,25 L30,14 C30,14 40.6974585,22.5443038 50,14 C59.3025418,22.5443038 70,14 70,14 C70,14 76.4184755,19.3037975 82,25 C78.9837885,29.0401146 77.534412,32.6756635 77,36.0277901 Z M42.055,56.1005 C42.9570045,56.1005 43.8342457,56.2489985 44.68675,56.546 C45.5392543,56.8430015 46.2899968,57.291247 46.939,57.89075 C47.5880032,58.490253 48.110498,59.2354955 48.5065,60.1265 C48.902502,61.0175045 49.1005,62.0569941 49.1005,63.245 C49.1005,64.3560056 48.897002,65.3982451 48.49,66.37175 C48.082998,67.3452549 47.5110037,68.1949964 46.774,68.921 C46.0369963,69.6470036 45.1487552,70.2189979 44.10925,70.637 C43.0697448,71.0550021 41.9230063,71.264 40.669,71.264 C39.3929936,71.264 38.2490051,71.060502 37.237,70.6535 C36.2249949,70.246498 35.3615036,69.6772537 34.6465,68.94575 C33.9314964,68.2142463 33.3842519,67.3342551 33.00475,66.30575 C32.6252481,65.2772449 32.4355,64.1360063 32.4355,62.882 C32.4355,61.7599944 32.6637477,60.6077559 33.12025,59.42525 C33.5767523,58.2427441 34.2834952,57.0135064 35.2405,55.7375 L40.933,48.098 C41.131001,47.8339987 41.4197481,47.6085009 41.79925,47.4215 C42.1787519,47.2344991 42.6159975,47.141 43.111,47.141 L46.741,47.141 L39.6625,55.8035 C39.5084992,55.9905009 39.3627507,56.1664992 39.22525,56.3315 C39.0877493,56.4965008 38.9530007,56.6669991 38.821,56.843 C39.2830023,56.6119988 39.7807473,56.4305007 40.31425,56.2985 C40.8477527,56.1664993 41.4279969,56.1005 42.055,56.1005 Z M36.346,63.509 C36.346,64.1690033 36.4367491,64.7712473 36.61825,65.31575 C36.7997509,65.8602527 37.0692482,66.3249981 37.42675,66.71 C37.7842518,67.0950019 38.2269974,67.3947489 38.755,67.60925 C39.2830026,67.8237511 39.8934965,67.931 40.5865,67.931 C41.2355032,67.931 41.8322473,67.8210011 42.37675,67.601 C42.9212527,67.3809989 43.388748,67.073002 43.77925,66.677 C44.169752,66.280998 44.4749989,65.8162527 44.695,65.28275 C44.9150011,64.7492473 45.025,64.1690031 45.025,63.542 C45.025,62.8599966 44.920501,62.2467527 44.7115,61.70225 C44.502499,61.1577473 44.2055019,60.6957519 43.8205,60.31625 C43.4354981,59.9367481 42.9735027,59.648001 42.4345,59.45 C41.8954973,59.251999 41.3015032,59.153 40.6525,59.153 C40.0034968,59.153 39.4150026,59.2629989 38.887,59.483 C38.3589974,59.7030011 37.9052519,60.008248 37.52575,60.39875 C37.1462481,60.789252 36.854751,61.2512473 36.65125,61.78475 C36.447749,62.3182527 36.346,62.8929969 36.346,63.509 Z M61.195,56.1005 C62.0970045,56.1005 62.9742457,56.2489985 63.82675,56.546 C64.6792543,56.8430015 65.4299968,57.291247 66.079,57.89075 C66.7280032,58.490253 67.250498,59.2354955 67.6465,60.1265 C68.042502,61.0175045 68.2405,62.0569941 68.2405,63.245 C68.2405,64.3560056 68.037002,65.3982451 67.63,66.37175 C67.222998,67.3452549 66.6510037,68.1949964 65.914,68.921 C65.1769963,69.6470036 64.2887552,70.2189979 63.24925,70.637 C62.2097448,71.0550021 61.0630063,71.264 59.809,71.264 C58.5329936,71.264 57.3890051,71.060502 56.377,70.6535 C55.3649949,70.246498 54.5015036,69.6772537 53.7865,68.94575 C53.0714964,68.2142463 52.5242519,67.3342551 52.14475,66.30575 C51.7652481,65.2772449 51.5755,64.1360063 51.5755,62.882 C51.5755,61.7599944 51.8037477,60.6077559 52.26025,59.42525 C52.7167523,58.2427441 53.4234952,57.0135064 54.3805,55.7375 L60.073,48.098 C60.271001,47.8339987 60.5597481,47.6085009 60.93925,47.4215 C61.3187519,47.2344991 61.7559975,47.141 62.251,47.141 L65.881,47.141 L58.8025,55.8035 C58.6484992,55.9905009 58.5027507,56.1664992 58.36525,56.3315 C58.2277493,56.4965008 58.0930007,56.6669991 57.961,56.843 C58.4230023,56.6119988 58.9207473,56.4305007 59.45425,56.2985 C59.9877527,56.1664993 60.5679969,56.1005 61.195,56.1005 Z M55.486,63.509 C55.486,64.1690033 55.5767491,64.7712473 55.75825,65.31575 C55.9397509,65.8602527 56.2092482,66.3249981 56.56675,66.71 C56.9242518,67.0950019 57.3669974,67.3947489 57.895,67.60925 C58.4230026,67.8237511 59.0334965,67.931 59.7265,67.931 C60.3755032,67.931 60.9722473,67.8210011 61.51675,67.601 C62.0612527,67.3809989 62.528748,67.073002 62.91925,66.677 C63.309752,66.280998 63.6149989,65.8162527 63.835,65.28275 C64.0550011,64.7492473 64.165,64.1690031 64.165,63.542 C64.165,62.8599966 64.060501,62.2467527 63.8515,61.70225 C63.642499,61.1577473 63.3455019,60.6957519 62.9605,60.31625 C62.5754981,59.9367481 62.1135027,59.648001 61.5745,59.45 C61.0354973,59.251999 60.4415032,59.153 59.7925,59.153 C59.1434968,59.153 58.5550026,59.2629989 58.027,59.483 C57.4989974,59.7030011 57.0452519,60.008248 56.66575,60.39875 C56.2862481,60.789252 55.994751,61.2512473 55.79125,61.78475 C55.587749,62.3182527 55.486,62.8929969 55.486,63.509 Z" id="route" sketch:type="MSShapeGroup"></path>
        </g>
    </g>
</svg>