<?xml version="1.0" encoding="UTF-8" standalone="no"?>
<svg width="100px" height="100px" viewBox="0 0 100 100" version="1.1" xmlns="http://www.w3.org/2000/svg" xmlns:xlink="http://www.w3.org/1999/xlink" xmlns:sketch="http://www.bohemiancoding.com/sketch/ns">
    <!-- Generator: Sketch 3.3.2 (12043) - http://www.bohemiancoding.com/sketch -->
    <title>01-07-2015 - button</title>
    <desc>Created with Sketch.</desc>
    <defs></defs>
    <g id="January" stroke="none" stroke-width="1" fill="none" fill-rule="evenodd" sketch:type="MSPage">
        <g id="01-07-2015---button" sketch:type="MSArtboardGroup" fill="#000000">
            <path d="M50,87 C70.4345357,87 87,70.4345357 87,50 C87,29.5654643 70.4345357,13 50,13 C29.5654643,13 13,29.5654643 13,50 C13,70.4345357 29.5654643,87 50,87 Z M50,82 C67.673112,82 82,67.673112 82,50 C82,32.326888 67.673112,18 50,18 C32.326888,18 18,32.326888 18,50 C18,67.673112 32.326888,82 50,82 Z M50,80 C66.5685425,80 80,66.5685425 80,50 C80,33.4314575 66.5685425,20 50,20 C33.4314575,20 20,33.4314575 20,50 C20,66.5685425 33.4314575,80 50,80 Z M44,47 C45.6568542,47 47,45.6568542 47,44 C47,42.3431458 45.6568542,41 44,41 C42.3431458,41 41,42.3431458 41,44 C41,45.6568542 42.3431458,47 44,47 Z M44,59 C45.6568542,59 47,57.6568542 47,56 C47,54.3431458 45.6568542,53 44,53 C42.3431458,53 41,54.3431458 41,56 C41,57.6568542 42.3431458,59 44,59 Z M56,59 C57.6568542,59 59,57.6568542 59,56 C59,54.3431458 57.6568542,53 56,53 C54.3431458,53 53,54.3431458 53,56 C53,57.6568542 54.3431458,59 56,59 Z M56,47 C57.6568542,47 59,45.6568542 59,44 C59,42.3431458 57.6568542,41 56,41 C54.3431458,41 53,42.3431458 53,44 C53,45.6568542 54.3431458,47 56,47 Z" id="Oval-1" sketch:type="MSShapeGroup"></path>
        </g>
    </g>
</svg>