<?xml version="1.0" encoding="UTF-8" standalone="no"?>
<svg width="100px" height="100px" viewBox="0 0 100 100" version="1.1" xmlns="http://www.w3.org/2000/svg" xmlns:xlink="http://www.w3.org/1999/xlink" xmlns:sketch="http://www.bohemiancoding.com/sketch/ns">
    <!-- Generator: Sketch 3.3.2 (12043) - http://www.bohemiancoding.com/sketch -->
    <title>02-07-2015 - trash</title>
    <desc>Created with Sketch.</desc>
    <defs></defs>
    <g id="January" stroke="none" stroke-width="1" fill="none" fill-rule="evenodd" sketch:type="MSPage">
        <g id="02-07-2015---trash" sketch:type="MSArtboardGroup" fill="#000000">
            <path d="M24,32 L24,32 L26,30 L26,78.0063223 C26,81.3106035 28.6882879,84 31.9968376,84 L68.0031624,84 C71.3190805,84 74,81.3187188 74,78.0063223 L74,30 L76,32 L24,32 Z M24,30 L76,30 L76,78.0063223 C76,82.4211086 72.4258294,86 68.0031624,86 L31.9968376,86 C27.5803062,86 24,82.4117595 24,78.0063223 L24,30 Z M21,25.9968697 L21,29.0031303 C21,29.5515384 21.4469102,30 21.9903889,30 L78.0096111,30 C78.548023,30 79,29.5484802 79,29.0031303 L79,25.9968697 C79,25.4484616 78.5530898,25 78.0096111,25 L21.9903889,25 C21.451977,25 21,25.4515198 21,25.9968697 Z M19,25.9968697 C19,24.3417443 20.3526179,23 21.9903889,23 L78.0096111,23 C79.6611573,23 81,24.3473909 81,25.9968697 L81,29.0031303 C81,30.6582557 79.6473821,32 78.0096111,32 L21.9903889,32 C20.3388427,32 19,30.6526091 19,29.0031303 L19,25.9968697 Z M42,18.0003297 L42,25 L40,23 L60,23 L58,25 L58,18.0003297 C58,17.449902 57.5515693,17 57.0057979,17 L42.9942021,17 C42.4475582,17 42,17.4481885 42,18.0003297 Z M40,18.0003297 C40,16.3432934 41.343312,15 42.9942021,15 L57.0057979,15 C58.6594501,15 60,16.3486445 60,18.0003297 L60,25 L40,25 L40,18.0003297 Z M34,37.9967825 C34,37.4462747 34.4438648,37 35,37 C35.5522847,37 36,37.4432618 36,37.9967825 L36,78.0032175 C36,78.5537253 35.5561352,79 35,79 C34.4477153,79 34,78.5567382 34,78.0032175 L34,37.9967825 Z M44,37.9967825 C44,37.4462747 44.4438648,37 45,37 C45.5522847,37 46,37.4432618 46,37.9967825 L46,78.0032175 C46,78.5537253 45.5561352,79 45,79 C44.4477153,79 44,78.5567382 44,78.0032175 L44,37.9967825 Z M54,37.9967825 C54,37.4462747 54.4438648,37 55,37 C55.5522847,37 56,37.4432618 56,37.9967825 L56,78.0032175 C56,78.5537253 55.5561352,79 55,79 C54.4477153,79 54,78.5567382 54,78.0032175 L54,37.9967825 Z M64,37.9967825 C64,37.4462747 64.4438648,37 65,37 C65.5522847,37 66,37.4432618 66,37.9967825 L66,78.0032175 C66,78.5537253 65.5561352,79 65,79 C64.4477153,79 64,78.5567382 64,78.0032175 L64,37.9967825 Z" id="trash" sketch:type="MSShapeGroup"></path>
        </g>
    </g>
</svg>