<?xml version="1.0" encoding="UTF-8" standalone="no"?>
<svg width="100px" height="100px" viewBox="0 0 100 100" version="1.1" xmlns="http://www.w3.org/2000/svg" xmlns:xlink="http://www.w3.org/1999/xlink" xmlns:sketch="http://www.bohemiancoding.com/sketch/ns">
    <!-- Generator: Sketch 3.3.2 (12043) - http://www.bohemiancoding.com/sketch -->
    <title>03-07-2015 - bone</title>
    <desc>Created with Sketch.</desc>
    <defs></defs>
    <g id="January" stroke="none" stroke-width="1" fill="none" fill-rule="evenodd" sketch:type="MSPage">
        <g id="03-07-2015---bone" sketch:type="MSArtboardGroup" fill="#000000">
            <path d="M16.4201845,58.1232791 C11.2546781,53.3221098 17.2148779,48.9210392 17.2148779,48.9210392 C17.2148779,48.9210392 10.8573312,45.3201624 16.022838,40.5189937 C21.1883447,35.717825 22.7777311,45.7202598 22.7777311,45.7202598 L77.6115699,45.7202598 C77.6115699,45.7202598 76.8168772,35.7178252 83.1744238,40.1188963 C89.5319703,44.5199674 83.1744238,48.9210391 83.1744238,48.9210391 C83.1744238,48.9210391 87.9425837,56.5228895 83.1744238,59.3235712 C78.4062639,62.124253 77.6115699,55.3225971 77.6115699,55.3225971 L22.7777311,55.3225971 C22.7777311,55.3225971 21.585691,62.9244484 16.4201845,58.1232791 Z" id="Rectangle-5" sketch:type="MSShapeGroup" transform="translate(50.000000, 49.500000) rotate(-45.000000) translate(-50.000000, -49.500000) "></path>
        </g>
    </g>
</svg>