<?xml version="1.0" encoding="UTF-8" standalone="no"?>
<svg width="100px" height="100px" viewBox="0 0 100 100" version="1.1" xmlns="http://www.w3.org/2000/svg" xmlns:xlink="http://www.w3.org/1999/xlink" xmlns:sketch="http://www.bohemiancoding.com/sketch/ns">
    <!-- Generator: Sketch 3.3.2 (12043) - http://www.bohemiancoding.com/sketch -->
    <title>04-07-2015 - paint roller</title>
    <desc>Created with Sketch.</desc>
    <defs></defs>
    <g id="January" stroke="none" stroke-width="1" fill="none" fill-rule="evenodd" sketch:type="MSPage">
        <g id="04-07-2015---paint-roller" sketch:type="MSArtboardGroup" fill="#000000">
            <path d="M46.2999992,57 L46.2999992,45.6068439 C46.2999992,45.5865175 46.3005923,45.5663318 46.3017623,45.5463036 C46.2967759,45.5256424 46.2923983,45.5046827 46.2886527,45.48344 C46.1927495,44.9395457 46.5613492,44.4199297 47.0967351,44.3255267 L82,38.1711394 L82,28 L82,28 L79,28 L79,30.0029699 C79,30.5536144 78.5561352,31 78,31 C77.4477153,31 77,30.5469637 77,30.0029699 L77,23.9970301 C77,23.4463856 77.4438648,23 78,23 C78.5522847,23 79,23.4530363 79,23.9970301 L79,26 L79,26 L83.009222,26 C83.2828178,26 83.5305123,26.1109662 83.7098079,26.2914493 C83.8883997,26.4774251 84,26.728806 84,27.0068455 L84,38.9931545 C84,39.5252807 83.5935302,39.9609917 83.0711759,39.9975211 L83.0711759,39.9975211 C83.01742,40.0172478 82.9613231,40.0324854 82.9032649,40.0427226 L48.2999992,46.144212 L48.2999992,57 L52,57 L52,77.5016276 C52,79.9860101 49.9802243,82 47.5,82 C45.0147186,82 43,79.9753216 43,77.5016276 L43,57 L46.2999992,57 Z M20,23.9935641 C20,20.68341 22.6821302,18 25.992981,18 L70.007019,18 C73.316851,18 76,20.6937005 76,23.9935641 L76,29.0064359 C76,32.31659 73.3178698,35 70.007019,35 L25.992981,35 C22.683149,35 20,32.3062995 20,29.0064359 L20,23.9935641 Z M17,23.9970301 C17,23.4463856 17.4438648,23 18,23 C18.5522847,23 19,23.4530363 19,23.9970301 L19,30.0029699 C19,30.5536144 18.5561352,31 18,31 C17.4477153,31 17,30.5469637 17,30.0029699 L17,23.9970301 Z" id="paint-roller" sketch:type="MSShapeGroup"></path>
        </g>
    </g>
</svg>