<?xml version="1.0" encoding="UTF-8" standalone="no"?>
<svg width="100px" height="100px" viewBox="0 0 100 100" version="1.1" xmlns="http://www.w3.org/2000/svg" xmlns:xlink="http://www.w3.org/1999/xlink" xmlns:sketch="http://www.bohemiancoding.com/sketch/ns">
    <!-- Generator: Sketch 3.3.2 (12043) - http://www.bohemiancoding.com/sketch -->
    <title>05-07-2015 - ladder</title>
    <desc>Created with Sketch.</desc>
    <defs></defs>
    <g id="January" stroke="none" stroke-width="1" fill="none" fill-rule="evenodd" sketch:type="MSPage">
        <g id="05-07-2015---ladder" sketch:type="MSArtboardGroup" fill="#000000">
            <path d="M37.1666667,75.5697674 L37.1666667,61.244186 L37.1666667,61.244186 L65.8333333,61.244186 L65.8333333,75.5697674 L37.1666667,75.5697674 Z M37.1666667,79.1511628 L37.1666667,85.415024 C37.1666667,87.3949516 35.5583268,89 33.5833333,89 C31.604313,89 30,87.3917456 30,85.415024 L30,15.584976 C30,13.6050484 31.6083399,12 33.5833333,12 C35.5623537,12 37.1666667,13.6082544 37.1666667,15.584976 L37.1666667,21.8488372 L37.1666667,21.8488372 L65.8333333,21.8488372 L65.8333333,15.584976 C65.8333333,13.6050484 67.4416732,12 69.4166667,12 C71.395687,12 73,13.6082544 73,15.584976 L73,85.415024 C73,87.3949516 71.3916601,89 69.4166667,89 C67.4376463,89 65.8333333,87.3917456 65.8333333,85.415024 L65.8333333,79.1511628 L37.1666667,79.1511628 Z M37.1666667,57.6627907 L37.1666667,43.3372093 L37.1666667,43.3372093 L65.8333333,43.3372093 L65.8333333,57.6627907 L37.1666667,57.6627907 L37.1666667,57.6627907 Z M37.1666667,39.755814 L37.1666667,25.4302326 L65.8333333,25.4302326 L65.8333333,39.755814 L37.1666667,39.755814 L37.1666667,39.755814 Z" id="ladder" sketch:type="MSShapeGroup" transform="translate(51.500000, 50.500000) rotate(-45.000000) translate(-51.500000, -50.500000) "></path>
        </g>
    </g>
</svg>