<?xml version="1.0" encoding="UTF-8" standalone="no"?>
<svg width="100px" height="100px" viewBox="0 0 100 100" version="1.1" xmlns="http://www.w3.org/2000/svg" xmlns:xlink="http://www.w3.org/1999/xlink" xmlns:sketch="http://www.bohemiancoding.com/sketch/ns">
    <!-- Generator: Sketch 3.3.2 (12043) - http://www.bohemiancoding.com/sketch -->
    <title>06-07-2015 - male</title>
    <desc>Created with Sketch.</desc>
    <defs></defs>
    <g id="January" stroke="none" stroke-width="1" fill="none" fill-rule="evenodd" sketch:type="MSPage">
        <g id="06-07-2015---male" sketch:type="MSArtboardGroup" fill="#000000">
            <path d="M52,36.0857512 C63.7660625,37.0992575 73,46.9712779 73,59 C73,71.7025492 62.7025492,82 50,82 C37.2974508,82 27,71.7025492 27,59 C27,46.9712779 36.2339375,37.0992575 48,36.0857512 L48,27 L52,27 L52,36.0857512 L52,36.0857512 Z M50,77 C59.9411255,77 68,68.9411255 68,59 C68,49.0588745 59.9411255,41 50,41 C40.0588745,41 32,49.0588745 32,59 C32,68.9411255 40.0588745,77 50,77 Z M50,17 C52.3333333,17 57,27 57,27 L43,27 C43,27 47.6666667,17 50,17 Z" id="male" sketch:type="MSShapeGroup" transform="translate(50.000000, 49.500000) rotate(30.000000) translate(-50.000000, -49.500000) "></path>
        </g>
    </g>
</svg>