<?xml version="1.0" encoding="UTF-8" standalone="no"?>
<svg width="100px" height="100px" viewBox="0 0 100 100" version="1.1" xmlns="http://www.w3.org/2000/svg" xmlns:xlink="http://www.w3.org/1999/xlink" xmlns:sketch="http://www.bohemiancoding.com/sketch/ns">
    <!-- Generator: Sketch 3.3.2 (12043) - http://www.bohemiancoding.com/sketch -->
    <title>07-07-2015 - female</title>
    <desc>Created with Sketch.</desc>
    <defs></defs>
    <g id="January" stroke="none" stroke-width="1" fill="none" fill-rule="evenodd" sketch:type="MSPage">
        <g id="07-07-2015---female" sketch:type="MSArtboardGroup" fill="#000000">
            <path d="M48,28 L48,35.0857512 C36.2339375,36.0992575 27,45.9712779 27,58 C27,70.7025492 37.2974508,81 50,81 C62.7025492,81 73,70.7025492 73,58 C73,45.9712779 63.7660625,36.0992575 52,35.0857512 L52,35.0857512 L52,28 L58,28 L58,24 L52,24 L52,19 L48,19 L48,24 L42,24 L42,28 L48,28 Z M50,76 C59.9411255,76 68,67.9411255 68,58 C68,48.0588745 59.9411255,40 50,40 C40.0588745,40 32,48.0588745 32,58 C32,67.9411255 40.0588745,76 50,76 Z" id="female" sketch:type="MSShapeGroup" transform="translate(50.000000, 50.000000) scale(1, -1) translate(-50.000000, -50.000000) "></path>
        </g>
    </g>
</svg>