<?xml version="1.0" encoding="UTF-8" standalone="no"?>
<svg width="100px" height="100px" viewBox="0 0 100 100" version="1.1" xmlns="http://www.w3.org/2000/svg" xmlns:xlink="http://www.w3.org/1999/xlink" xmlns:sketch="http://www.bohemiancoding.com/sketch/ns">
    <!-- Generator: Sketch 3.3.2 (12043) - http://www.bohemiancoding.com/sketch -->
    <title>08-07-2015 - pie chart</title>
    <desc>Created with Sketch.</desc>
    <defs></defs>
    <g id="January" stroke="none" stroke-width="1" fill="none" fill-rule="evenodd" sketch:type="MSPage">
        <g id="08-07-2015---pie-chart" sketch:type="MSArtboardGroup" fill="#000000">
            <path d="M47,83 C63.5685425,83 77,69.5685425 77,53 L77,52 L76,52 L47,52 L48,53 L48,24 L48,23 L47,23 C30.4314575,23 17,36.4314575 17,53 C17,69.5685425 30.4314575,83 47,83 L47,83 Z M47,81 C31.536027,81 19,68.463973 19,53 C19,37.536027 31.536027,25 47,25 L46,24 L46,53 L46,54 L47,54 L76,54 L75,53 C75,68.463973 62.463973,81 47,81 Z M83,47 C83,30.4314575 69.5685425,17 53,17 L52,17 L52,18 L52,47 L52,48 L53,48 L82,48 L83,48 L83,47 Z M81,47 L82,46 L53,46 L54,47 L54,18 L53,19 C68.463973,19 81,31.536027 81,47 L81,47 Z" id="Shape" sketch:type="MSShapeGroup"></path>
        </g>
    </g>
</svg>