<?xml version="1.0" encoding="UTF-8" standalone="no"?>
<svg width="100px" height="100px" viewBox="0 0 100 100" version="1.1" xmlns="http://www.w3.org/2000/svg" xmlns:xlink="http://www.w3.org/1999/xlink" xmlns:sketch="http://www.bohemiancoding.com/sketch/ns">
    <!-- Generator: Sketch 3.3.2 (12043) - http://www.bohemiancoding.com/sketch -->
    <title>09-07-2015 - money</title>
    <desc>Created with Sketch.</desc>
    <defs></defs>
    <g id="January" stroke="none" stroke-width="1" fill="none" fill-rule="evenodd" sketch:type="MSPage">
        <g id="09-07-2015---money" sketch:type="MSArtboardGroup" fill="#000000">
            <path d="M11,31.9967825 C11,31.4462747 11.449907,31 11.9970148,31 L90.0029852,31 C90.5536213,31 91,31.4432618 91,31.9967825 L91,72.0032175 C91,72.5537253 90.550093,73 90.0029852,73 L11.9970148,73 C11.4463787,73 11,72.5567382 11,72.0032175 L11,31.9967825 Z M13,38 C15.7614237,38 18,35.7614237 18,33 L13,33 L13,38 Z M13,66 C15.7614237,66 18,68.2385763 18,71 L13,71 L13,66 Z M89,66 C86.2385763,66 84,68.2385763 84,71 L89,71 L89,66 Z M89,38 C86.2385763,38 84,35.7614237 84,33 L89,33 L89,38 Z M48.4453125,38.9619141 L50.9355469,38.9619141 L50.9355469,40.5585938 C51.2187514,40.6269535 51.8583935,40.8955055 52.8544922,41.3642578 C53.0009773,41.2373041 53.1181636,41.0859384 53.2060547,40.9101562 C53.3623055,40.617186 53.557616,40.4707031 53.7919922,40.4707031 L54.5244141,40.4707031 L54.7880859,40.4560547 C54.934571,40.475586 55.0273436,40.6123034 55.0664062,40.8662109 C55.0664062,40.8857423 55.0957028,41.0273424 55.1542969,41.2910156 L55.828125,44.8652344 C55.8378907,44.9238284 55.8574217,45.0214837 55.8867188,45.1582031 C56.0527352,45.9003943 56.1357422,46.3593741 56.1357422,46.5351562 C56.1357422,46.7597667 55.8574247,46.8720703 55.3007812,46.8720703 C54.7539035,46.8720703 54.4316411,46.8549806 54.3339844,46.8208008 C54.2363276,46.7866209 54.0751964,46.5400414 53.8505859,46.0810547 C52.9521439,44.2939364 51.980474,43.1464869 50.9355469,42.6386719 L50.9355469,48.4101562 C53.386731,49.9531327 55.0004844,51.3349548 55.7768555,52.5556641 C56.5532265,53.7763733 56.9414062,55.1777265 56.9414062,56.7597656 C56.9414062,58.1757883 56.658206,59.318355 56.0917969,60.1875 C55.5253878,61.056645 54.8588906,61.7060525 54.0922852,62.1357422 C53.3256798,62.5654318 52.278327,62.8291011 50.9501953,62.9267578 L50.9501953,65.3291016 L48.4599609,65.3291016 L48.4599609,62.6777344 C47.6591757,62.3457015 47.1269544,62.0917978 46.8632812,61.9160156 C46.6289051,61.7597648 46.4482428,61.6816406 46.3212891,61.6816406 C46.1064442,61.6816406 45.9160165,61.8915995 45.75,62.3115234 C45.6425776,62.565431 45.530274,62.719238 45.4130859,62.7729492 C45.2958979,62.8266604 44.9345733,62.8535156 44.3291016,62.8535156 C44.1435538,62.8535156 44.0117191,62.619143 43.9335938,62.1503906 L43.0400391,56.9648438 C42.9912107,56.6914049 42.9667969,56.5302737 42.9667969,56.4814453 C42.9667969,56.1396467 43.293942,55.96875 43.9482422,55.96875 C44.4658229,55.96875 44.7954094,56.0322259 44.9370117,56.1591797 C45.078614,56.2861334 45.3496074,56.7109339 45.75,57.4335938 C46.7265674,59.191415 47.6298787,60.2607403 48.4599609,60.6416016 L48.4599609,53.859375 C44.4950974,51.642567 42.5126953,48.9961091 42.5126953,45.9199219 C42.5126953,44.8652291 42.6738265,43.9838903 42.9960938,43.2758789 C43.318361,42.5678676 43.8994099,41.9160186 44.7392578,41.3203125 C45.5791058,40.7246064 46.814445,40.4072268 48.4453125,40.3681641 L48.4453125,38.9619141 Z M48.4306641,47.0185547 L48.4306641,41.9501953 C47.7568326,41.9501953 47.2197286,42.1577128 46.8193359,42.5727539 C46.4189433,42.987795 46.21875,43.4296852 46.21875,43.8984375 C46.21875,44.9726616 46.9560473,46.0126903 48.4306641,47.0185547 L48.4306641,47.0185547 Z M50.9501953,55.4560547 L50.9501953,61.1542969 C52.4150464,60.9296864 53.1474609,60.1386787 53.1474609,58.78125 C53.1474609,57.5703064 52.4150464,56.4619191 50.9501953,55.4560547 L50.9501953,55.4560547 Z" id="money" sketch:type="MSShapeGroup"></path>
        </g>
    </g>
</svg>