<?xml version="1.0" encoding="UTF-8" standalone="no"?>
<svg width="100px" height="100px" viewBox="0 0 100 100" version="1.1" xmlns="http://www.w3.org/2000/svg" xmlns:xlink="http://www.w3.org/1999/xlink" xmlns:sketch="http://www.bohemiancoding.com/sketch/ns">
    <!-- Generator: Sketch 3.3.2 (12043) - http://www.bohemiancoding.com/sketch -->
    <title>10-07-2015 - bezier</title>
    <desc>Created with Sketch.</desc>
    <defs></defs>
    <g id="January" stroke="none" stroke-width="1" fill="none" fill-rule="evenodd" sketch:type="MSPage">
        <g id="10-07-2015---bezier" sketch:type="MSArtboardGroup" fill="#000000">
            <path d="M53.6235351,31.6963466 C52.9852575,33.0574088 51.6027057,34 50,34 C48.3972943,34 47.0147425,33.0574088 46.3764649,31.6963466 C35.337144,32.930479 28.1399686,39.9209861 24.0309078,50.9249118 C22.4768889,55.0865217 21.4819135,59.5496067 20.9371169,64.0320796 C20.8523388,64.7296164 20.7810263,65.4082216 20.7220379,66.064997 C22.5865317,66.404903 24,68.0373849 24,70 C24,72.209139 22.209139,74 20,74 C17.790861,74 16,72.209139 16,70 C16,67.8839683 17.6430854,66.1516997 19.7230099,66.0094407 C19.7835044,65.331864 19.8569025,64.6315208 19.944422,63.9114282 C20.4980966,59.3559091 21.5098107,54.8177403 23.0940922,50.5750882 C27.0695713,39.9288899 33.918701,32.8748803 44.2252197,31 L23.8739825,31 C23.4299397,32.7252272 21.8638394,34 20,34 C17.790861,34 16,32.209139 16,30 C16,27.790861 17.790861,26 20,26 C22.209139,26 24,27.790861 24,30 L46,30 C46,27.790861 47.790861,26 50,26 C52.209139,26 54,27.790861 54,30 L76,30 C76,27.790861 77.790861,26 80,26 C82.209139,26 84,27.790861 84,30 C84,32.209139 82.209139,34 80,34 C78.1361606,34 76.5700603,32.7252272 76.1260175,31 L55.7747803,31 C66.0812991,32.8748803 72.9304289,39.9288899 76.9059083,50.5750882 C78.49019,54.8177405 79.5019043,59.3559096 80.0555789,63.9114289 C80.1430985,64.6315213 80.2164965,65.3318643 80.276991,66.0094407 C82.3569151,66.1517002 84,67.8839686 84,70 C84,72.209139 82.209139,74 80,74 C77.790861,74 76,72.209139 76,70 C76,68.0373846 77.4134687,66.4049025 79.277963,66.0649969 C79.2189746,65.4082217 79.1476621,64.7296168 79.062884,64.0320803 C78.5180873,59.5496072 77.5231118,55.0865219 75.9690927,50.9249118 C71.8600316,39.9209861 64.6628561,32.930479 53.6235351,31.6963466 Z" id="bezier" sketch:type="MSShapeGroup" transform="translate(50.000000, 50.000000) rotate(-30.000000) translate(-50.000000, -50.000000) "></path>
        </g>
    </g>
</svg>