<?xml version="1.0" encoding="UTF-8" standalone="no"?>
<svg width="100px" height="100px" viewBox="0 0 100 100" version="1.1" xmlns="http://www.w3.org/2000/svg" xmlns:xlink="http://www.w3.org/1999/xlink" xmlns:sketch="http://www.bohemiancoding.com/sketch/ns">
    <!-- Generator: Sketch 3.3.2 (12043) - http://www.bohemiancoding.com/sketch -->
    <title>12-07-2015 - pill</title>
    <desc>Created with Sketch.</desc>
    <defs></defs>
    <g id="January" stroke="none" stroke-width="1" fill="none" fill-rule="evenodd" sketch:type="MSPage">
        <g id="12-07-2015---pill" sketch:type="MSArtboardGroup" fill="#000000">
            <path d="M51.3292707,41 C50.4730777,39.7610291 49.3633208,39 48,39 L29.9951243,39 C23.9301897,39 19,43.9248678 19,50 C19,56.076468 23.9226848,61 29.9951243,61 L48,61 C53.512854,61 54.8795654,48.5560527 52.1001343,42.3860054 L29,41 L51.3292707,41 Z M17,50 C17,42.8202983 22.8281075,37 30.0000817,37 L69.9999183,37 C77.1796652,37 83,42.8187196 83,50 C83,57.1797017 77.1718925,63 69.9999183,63 L30.0000817,63 C22.8203348,63 17,57.1812804 17,50 Z" id="pill" sketch:type="MSShapeGroup" transform="translate(50.000000, 50.000000) rotate(-45.000000) translate(-50.000000, -50.000000) "></path>
        </g>
    </g>
</svg>