<?xml version="1.0" encoding="UTF-8" standalone="no"?>
<svg width="100px" height="100px" viewBox="0 0 100 100" version="1.1" xmlns="http://www.w3.org/2000/svg" xmlns:xlink="http://www.w3.org/1999/xlink" xmlns:sketch="http://www.bohemiancoding.com/sketch/ns">
    <!-- Generator: Sketch 3.3.2 (12043) - http://www.bohemiancoding.com/sketch -->
    <title>13-07-2015 - briefcase</title>
    <desc>Created with Sketch.</desc>
    <defs></defs>
    <g id="January" stroke="none" stroke-width="1" fill="none" fill-rule="evenodd" sketch:type="MSPage">
        <g id="13-07-2015---briefcase" sketch:type="MSArtboardGroup" fill="#000000">
            <path d="M19.8055556,33.4372313 L19.8055556,33.4372313 L19.8055556,76.4135149 C19.8055556,77.4021746 20.6168144,78.2089552 21.6105826,78.2089552 L79.3894174,78.2089552 C80.382025,78.2089552 81.1944444,77.4029532 81.1944444,76.4135149 L81.1944444,33.4372313 C81.1944444,32.4485717 80.3831856,31.641791 79.3894174,31.641791 L21.6105826,31.641791 C20.617975,31.641791 19.8055556,32.447793 19.8055556,33.4372313 L19.8055556,33.4372313 Z M18,33.4372313 C18,31.4564703 19.6229673,29.8507463 21.6105826,29.8507463 L79.3894174,29.8507463 C81.3834871,29.8507463 83,31.462503 83,33.4372313 L83,76.4135149 C83,78.3942759 81.3770327,80 79.3894174,80 L21.6105826,80 C19.6165129,80 18,78.3882433 18,76.4135149 L18,33.4372313 Z M41.4722222,23.5879145 L41.4722222,31.641791 L39.6666667,29.8507463 L61.3333333,29.8507463 L59.5277778,31.641791 L59.5277778,23.5879145 C59.5277778,22.593974 58.721691,21.7910448 57.7312021,21.7910448 L43.2687979,21.7910448 C42.2771425,21.7910448 41.4722222,22.5930818 41.4722222,23.5879145 Z M39.6666667,23.5879145 C39.6666667,21.606364 41.277487,20 43.2687979,20 L57.7312021,20 C59.7206043,20 61.3333333,21.6065184 61.3333333,23.5879145 L61.3333333,31.641791 L39.6666667,31.641791 L39.6666667,23.5879145 L39.6666667,23.5879145 Z M45.9861111,48.6567164 L45.9861111,51.3432836 L55.0138889,51.3432836 L55.0138889,48.6567164 L45.9861111,48.6567164 Z M55.9166667,47.761194 L55.9166667,52.238806 L45.0833333,52.238806 L45.0833333,47.761194 L55.9166667,47.761194 Z M81.1944444,47.761194 L81.1944444,48.6567164 L19.8055556,48.6567164 L19.8055556,47.761194 L81.1944444,47.761194 Z" id="briefcase" sketch:type="MSShapeGroup"></path>
        </g>
    </g>
</svg>