<?xml version="1.0" encoding="UTF-8" standalone="no"?>
<svg width="100px" height="100px" viewBox="0 0 100 100" version="1.1" xmlns="http://www.w3.org/2000/svg" xmlns:xlink="http://www.w3.org/1999/xlink" xmlns:sketch="http://www.bohemiancoding.com/sketch/ns">
    <!-- Generator: Sketch 3.3.2 (12043) - http://www.bohemiancoding.com/sketch -->
    <title>14-07-2015 - matchstick</title>
    <desc>Created with Sketch.</desc>
    <defs></defs>
    <g id="January" stroke="none" stroke-width="1" fill="none" fill-rule="evenodd" sketch:type="MSPage">
        <g id="14-07-2015---matchstick" sketch:type="MSArtboardGroup" fill="#000000">
            <path d="M54.4295803,51.233804 C58.4643325,49.8761992 63.946061,46.1734105 61.3095058,36.1353508 C57.3135906,20.921849 38,11 38,11 C38,11 53.9836611,18.2760226 43.9938729,32.1666112 C36.8140069,42.1500626 43.3949868,48.033336 47.6652332,50.5531518 C46.6656729,49.1409191 46.5011139,46.9329593 46.5011139,44.4515464 C46.5011139,40.1881359 48.6760158,36.7319588 51.3588933,36.7319588 C54.0417707,36.7319588 56.2166726,40.1881359 56.2166726,44.4515464 C56.2166726,47.3784483 55.9877231,49.9248971 54.4295803,51.233804 L54.4295803,51.233804 Z M49.7396335,52.0103093 C49.7396335,52.0103093 50.1444484,52.4123711 51.3588933,52.4123711 C52.5733381,52.4123711 52.9781531,52.0103093 52.9781531,52.0103093 L52.9781531,88.1930175 C52.9781531,88.6387016 52.6192011,89 52.1776199,89 L50.5401666,89 C50.0980444,89 49.7396335,88.6339 49.7396335,88.1930175 L49.7396335,52.0103093 Z M51.3588933,51.2061856 C55.0022278,51.2061856 55.4070427,48.326038 55.4070427,44.7731959 C55.4070427,41.2203538 53.5946245,38.3402062 51.3588933,38.3402062 C49.123162,38.3402062 47.3107438,41.2203538 47.3107438,44.7731959 C47.3107438,48.326038 47.7155587,51.2061856 51.3588933,51.2061856 Z" id="matchstick" sketch:type="MSShapeGroup"></path>
        </g>
    </g>
</svg>