<?xml version="1.0" encoding="UTF-8" standalone="no"?>
<svg width="100px" height="100px" viewBox="0 0 100 100" version="1.1" xmlns="http://www.w3.org/2000/svg" xmlns:xlink="http://www.w3.org/1999/xlink" xmlns:sketch="http://www.bohemiancoding.com/sketch/ns">
    <!-- Generator: Sketch 3.3.2 (12043) - http://www.bohemiancoding.com/sketch -->
    <title>15-07-2015 - bandaid</title>
    <desc>Created with Sketch.</desc>
    <defs></defs>
    <g id="January" stroke="none" stroke-width="1" fill="none" fill-rule="evenodd" sketch:type="MSPage">
        <g id="15-07-2015---bandaid" sketch:type="MSArtboardGroup" fill="#000000">
            <path d="M36,18.9989785 L36,18.9989785 L36,81.0010215 C36,84.3153845 38.6827294,87 41.9924054,87 L58.0075946,87 C61.3171476,87 64,84.3147878 64,81.0010215 L64,18.9989785 C64,15.6846155 61.3172706,13 58.0075946,13 L41.9924054,13 C38.6828524,13 36,15.6852122 36,18.9989785 L36,18.9989785 Z M34,18.9989785 C34,14.5812646 37.5776607,11 41.9924054,11 L58.0075946,11 C62.4216782,11 66,14.5798836 66,18.9989785 L66,81.0010215 C66,85.4187354 62.4223393,89 58.0075946,89 L41.9924054,89 C37.5783218,89 34,85.4201164 34,81.0010215 L34,18.9989785 Z M40,43.0095579 L40,56.9904421 C40,58.6493638 41.3494245,60 43.0095579,60 L56.9904421,60 C58.6493638,60 60,58.6505755 60,56.9904421 L60,43.0095579 C60,41.3506362 58.6505755,40 56.9904421,40 L43.0095579,40 C41.3506362,40 40,41.3494245 40,43.0095579 Z M39,43.0095579 C39,40.7951402 40.8003523,39 43.0095579,39 L56.9904421,39 C59.2048598,39 61,40.8003523 61,43.0095579 L61,56.9904421 C61,59.2048598 59.1996477,61 56.9904421,61 L43.0095579,61 C40.7951402,61 39,59.1996477 39,56.9904421 L39,43.0095579 Z M44,22 C44.5522847,22 45,21.5522847 45,21 C45,20.4477153 44.5522847,20 44,20 C43.4477153,20 43,20.4477153 43,21 C43,21.5522847 43.4477153,22 44,22 Z M44,34 C44.5522847,34 45,33.5522847 45,33 C45,32.4477153 44.5522847,32 44,32 C43.4477153,32 43,32.4477153 43,33 C43,33.5522847 43.4477153,34 44,34 Z M50,28 C50.5522847,28 51,27.5522847 51,27 C51,26.4477153 50.5522847,26 50,26 C49.4477153,26 49,26.4477153 49,27 C49,27.5522847 49.4477153,28 50,28 Z M56,22 C56.5522847,22 57,21.5522847 57,21 C57,20.4477153 56.5522847,20 56,20 C55.4477153,20 55,20.4477153 55,21 C55,21.5522847 55.4477153,22 56,22 Z M56,34 C56.5522847,34 57,33.5522847 57,33 C57,32.4477153 56.5522847,32 56,32 C55.4477153,32 55,32.4477153 55,33 C55,33.5522847 55.4477153,34 56,34 Z M44,68 C44.5522847,68 45,67.5522847 45,67 C45,66.4477153 44.5522847,66 44,66 C43.4477153,66 43,66.4477153 43,67 C43,67.5522847 43.4477153,68 44,68 Z M44,80 C44.5522847,80 45,79.5522847 45,79 C45,78.4477153 44.5522847,78 44,78 C43.4477153,78 43,78.4477153 43,79 C43,79.5522847 43.4477153,80 44,80 Z M50,74 C50.5522847,74 51,73.5522847 51,73 C51,72.4477153 50.5522847,72 50,72 C49.4477153,72 49,72.4477153 49,73 C49,73.5522847 49.4477153,74 50,74 Z M56,68 C56.5522847,68 57,67.5522847 57,67 C57,66.4477153 56.5522847,66 56,66 C55.4477153,66 55,66.4477153 55,67 C55,67.5522847 55.4477153,68 56,68 Z M56,80 C56.5522847,80 57,79.5522847 57,79 C57,78.4477153 56.5522847,78 56,78 C55.4477153,78 55,78.4477153 55,79 C55,79.5522847 55.4477153,80 56,80 Z" id="bandaid" sketch:type="MSShapeGroup" transform="translate(50.000000, 50.000000) rotate(-45.000000) translate(-50.000000, -50.000000) "></path>
        </g>
    </g>
</svg>