<?xml version="1.0" encoding="UTF-8" standalone="no"?>
<svg width="100px" height="100px" viewBox="0 0 100 100" version="1.1" xmlns="http://www.w3.org/2000/svg" xmlns:xlink="http://www.w3.org/1999/xlink" xmlns:sketch="http://www.bohemiancoding.com/sketch/ns">
    <!-- Generator: Sketch 3.3.2 (12043) - http://www.bohemiancoding.com/sketch -->
    <title>16-07-2015 - stopwatch</title>
    <desc>Created with Sketch.</desc>
    <defs></defs>
    <g id="January" stroke="none" stroke-width="1" fill="none" fill-rule="evenodd" sketch:type="MSPage">
        <g id="16-07-2015---stopwatch" sketch:type="MSArtboardGroup" fill="#000000">
            <path d="M50,85 C69.3299662,85 85,69.3299662 85,50 C85,30.6700338 69.3299662,15 50,15 C30.6700338,15 15,30.6700338 15,50 C15,69.3299662 30.6700338,85 50,85 Z M50,83 C31.7746033,83 17,68.2253967 17,50 C17,31.7746033 31.7746033,17 50,17 C68.2253967,17 83,31.7746033 83,50 C83,68.2253967 68.2253967,83 50,83 Z M50,24 C51.1045695,24 52,23.1045695 52,22 C52,20.8954305 51.1045695,20 50,20 C48.8954305,20 48,20.8954305 48,22 C48,23.1045695 48.8954305,24 50,24 Z M64.0486648,28.1222422 C64.9750347,28.7238339 66.2136924,28.4605491 66.815284,27.5341792 C67.4168757,26.6078092 67.1535909,25.3691516 66.227221,24.7675599 C65.300851,24.1659683 64.0621934,24.4292531 63.4606018,25.355623 C62.8590101,26.2819929 63.1222949,27.5206506 64.0486648,28.1222422 Z M73.6570803,39.2136162 C74.1238915,40.2146961 75.3138525,40.6478065 76.3149324,40.1809952 C77.3160123,39.714184 77.7491227,38.5242231 77.2823114,37.5231431 C76.8155002,36.5220632 75.6255393,36.0889528 74.6244593,36.5557641 C73.6233794,37.0225753 73.1902691,38.2125362 73.6570803,39.2136162 Z M75.7344642,53.7064693 C75.5807379,54.8002892 76.3428343,55.8116252 77.4366542,55.9653516 C78.5304741,56.119078 79.5418101,55.3569816 79.6955365,54.2631617 C79.8492629,53.1693418 79.0871665,52.1580057 77.9933466,52.0042793 C76.8995267,51.850553 75.8881906,52.6126494 75.7344642,53.7064693 Z M69.6515689,67.0239825 C68.9269061,67.8576117 69.0152408,69.1208569 69.84887,69.8455197 C70.6824992,70.5701825 71.9457444,70.4818478 72.6704072,69.6482186 C73.39507,68.8145894 73.3067353,67.5513442 72.4731061,66.8266814 C71.639477,66.1020186 70.3762317,66.1903533 69.6515689,67.0239825 Z M57.3372369,74.9432799 C56.2754565,75.2477405 55.6615276,76.3552976 55.9659882,77.417078 C56.2704488,78.4788583 57.378006,79.0927873 58.4397863,78.7883267 C59.5015667,78.483866 60.1154956,77.3763089 59.811035,76.3145285 C59.5065744,75.2527482 58.3990172,74.6388193 57.3372369,74.9432799 Z M42.6627631,74.9432799 C41.6009828,74.6388193 40.4934256,75.2527482 40.188965,76.3145285 C39.8845044,77.3763089 40.4984333,78.483866 41.5602137,78.7883267 C42.621994,79.0927873 43.7295512,78.4788583 44.0340118,77.417078 C44.3384724,76.3552976 43.7245435,75.2477405 42.6627631,74.9432799 Z M30.3484311,67.0239825 C29.6237683,66.1903533 28.360523,66.1020186 27.5268939,66.8266814 C26.6932647,67.5513442 26.60493,68.8145894 27.3295928,69.6482186 C28.0542556,70.4818478 29.3175008,70.5701825 30.15113,69.8455197 C30.9847592,69.1208569 31.0730939,67.8576117 30.3484311,67.0239825 Z M24.2655358,53.7064693 C24.1118094,52.6126494 23.1004733,51.850553 22.0066534,52.0042793 C20.9128335,52.1580057 20.1507371,53.1693418 20.3044635,54.2631617 C20.4581899,55.3569816 21.4695259,56.119078 22.5633458,55.9653516 C23.6571657,55.8116252 24.4192621,54.8002892 24.2655358,53.7064693 Z M26.3429197,39.2136162 C26.8097309,38.2125362 26.3766206,37.0225753 25.3755407,36.5557641 C24.3744607,36.0889528 23.1844998,36.5220632 22.7176886,37.5231431 C22.2508773,38.5242231 22.6839877,39.714184 23.6850676,40.1809952 C24.6861475,40.6478065 25.8761085,40.2146961 26.3429197,39.2136162 Z M35.9513352,28.1222422 C36.8777051,27.5206506 37.1409899,26.2819929 36.5393982,25.355623 C35.9378066,24.4292531 34.699149,24.1659683 33.772779,24.7675599 C32.8464091,25.3691516 32.5831243,26.6078092 33.184716,27.5341792 C33.7863076,28.4605491 35.0249653,28.7238339 35.9513352,28.1222422 Z M49,28.9987461 C49,28.4471539 49.4438648,28 50,28 C50.5522847,28 51,28.4386148 51,28.9987461 L51,48.0012539 C51,48.5528461 50.5561352,49 50,49 C49.4477153,49 49,48.5613852 49,48.0012539 L49,28.9987461 Z" id="Shape" sketch:type="MSShapeGroup"></path>
            <path d="M47,12 L53,12 L53,16 L47,16 L47,12 Z M43,10 C43,8.8954305 43.8933973,8 44.9918842,8 L56.0081158,8 C57.1082031,8 58,8.88772964 58,10 C58,11.1045695 57.1066027,12 56.0081158,12 L44.9918842,12 C43.8917969,12 43,11.1122704 43,10 Z" id="Rectangle-31" sketch:type="MSShapeGroup"></path>
            <path d="M70,20 L76,20 L76,24 L70,24 L70,20 Z M66,18 C66,16.8954305 66.8933973,16 67.9918842,16 L79.0081158,16 C80.1082031,16 81,16.8877296 81,18 C81,19.1045695 80.1066027,20 79.0081158,20 L67.9918842,20 C66.8917969,20 66,19.1122704 66,18 Z" id="Rectangle-31-Copy" sketch:type="MSShapeGroup" transform="translate(73.500000, 20.000000) rotate(37.000000) translate(-73.500000, -20.000000) "></path>
        </g>
    </g>
</svg>