<?xml version="1.0" encoding="UTF-8" standalone="no"?>
<svg width="100px" height="100px" viewBox="0 0 100 100" version="1.1" xmlns="http://www.w3.org/2000/svg" xmlns:xlink="http://www.w3.org/1999/xlink" xmlns:sketch="http://www.bohemiancoding.com/sketch/ns">
    <!-- Generator: Sketch 3.3.2 (12043) - http://www.bohemiancoding.com/sketch -->
    <title>18-07-2015 - billiard</title>
    <desc>Created with Sketch.</desc>
    <defs></defs>
    <g id="January" stroke="none" stroke-width="1" fill="none" fill-rule="evenodd" sketch:type="MSPage">
        <g id="18-07-2015---billiard" sketch:type="MSArtboardGroup" fill="#000000">
            <path d="M41.2770061,24.1916973 L16.100842,66.6575162 C11.1988689,74.9259047 15.1898724,81.9345776 24.8023507,81.9345776 L75.7958809,81.9345776 C85.4082078,81.9345776 89.4000228,74.9270181 84.4973895,66.6575162 L59.3212255,24.1916973 C54.4270702,15.9364956 46.1716294,15.9357062 41.2770061,24.1916973 Z M42.9973895,25.2116389 C47.1172464,18.2624827 53.481346,18.2630914 57.600842,25.2116389 L82.7770061,67.6774578 C86.8892556,74.6137823 83.8582959,79.9345776 75.7958809,79.9345776 L24.8023507,79.9345776 C16.7399583,79.9345776 13.7095474,74.6128185 17.8212255,67.6774578 L42.9973895,25.2116389 Z M27.9632949,77.9345776 C31.9199618,77.9345776 35.127474,74.7051561 35.127474,70.7214628 C35.127474,66.7377695 31.9199618,63.508348 27.9632949,63.508348 C24.006628,63.508348 20.7991158,66.7377695 20.7991158,70.7214628 C20.7991158,74.7051561 24.006628,77.9345776 27.9632949,77.9345776 Z M43.1871755,77.9345776 C47.1438424,77.9345776 50.3513546,74.7051561 50.3513546,70.7214628 C50.3513546,66.7377695 47.1438424,63.508348 43.1871755,63.508348 C39.2305086,63.508348 36.0229964,66.7377695 36.0229964,70.7214628 C36.0229964,74.7051561 39.2305086,77.9345776 43.1871755,77.9345776 Z M58.4110561,77.9345776 C62.367723,77.9345776 65.5752352,74.7051561 65.5752352,70.7214628 C65.5752352,66.7377695 62.367723,63.508348 58.4110561,63.508348 C54.4543892,63.508348 51.246877,66.7377695 51.246877,70.7214628 C51.246877,74.7051561 54.4543892,77.9345776 58.4110561,77.9345776 Z M73.6349367,77.9345776 C77.5916036,77.9345776 80.7991158,74.7051561 80.7991158,70.7214628 C80.7991158,66.7377695 77.5916036,63.508348 73.6349367,63.508348 C69.6782698,63.508348 66.4707576,66.7377695 66.4707576,70.7214628 C66.4707576,74.7051561 69.6782698,77.9345776 73.6349367,77.9345776 Z M65.5752352,64.4099874 C69.5319021,64.4099874 72.7394143,61.1805659 72.7394143,57.1968726 C72.7394143,53.2131794 69.5319021,49.9837579 65.5752352,49.9837579 C61.6185683,49.9837579 58.4110561,53.2131794 58.4110561,57.1968726 C58.4110561,61.1805659 61.6185683,64.4099874 65.5752352,64.4099874 Z M50.3513546,64.4099874 C54.3080215,64.4099874 57.5155337,61.1805659 57.5155337,57.1968726 C57.5155337,53.2131794 54.3080215,49.9837579 50.3513546,49.9837579 C46.3946877,49.9837579 43.1871755,53.2131794 43.1871755,57.1968726 C43.1871755,61.1805659 46.3946877,64.4099874 50.3513546,64.4099874 Z M35.127474,64.4099874 C39.0841409,64.4099874 42.2916531,61.1805659 42.2916531,57.1968726 C42.2916531,53.2131794 39.0841409,49.9837579 35.127474,49.9837579 C31.1708071,49.9837579 27.9632949,53.2131794 27.9632949,57.1968726 C27.9632949,61.1805659 31.1708071,64.4099874 35.127474,64.4099874 Z M43.1871755,50.8853972 C47.1438424,50.8853972 50.3513546,47.6559758 50.3513546,43.6722825 C50.3513546,39.6885892 47.1438424,36.4591677 43.1871755,36.4591677 C39.2305086,36.4591677 36.0229964,39.6885892 36.0229964,43.6722825 C36.0229964,47.6559758 39.2305086,50.8853972 43.1871755,50.8853972 Z M58.4110561,50.8853972 C62.367723,50.8853972 65.5752352,47.6559758 65.5752352,43.6722825 C65.5752352,39.6885892 62.367723,36.4591677 58.4110561,36.4591677 C54.4543892,36.4591677 51.246877,39.6885892 51.246877,43.6722825 C51.246877,47.6559758 54.4543892,50.8853972 58.4110561,50.8853972 Z M50.3513546,37.3608071 C54.3080215,37.3608071 57.5155337,34.1313856 57.5155337,30.1476923 C57.5155337,26.163999 54.3080215,22.9345776 50.3513546,22.9345776 C46.3946877,22.9345776 43.1871755,26.163999 43.1871755,30.1476923 C43.1871755,34.1313856 46.3946877,37.3608071 50.3513546,37.3608071 Z" id="billiard" sketch:type="MSShapeGroup"></path>
        </g>
    </g>
</svg>