<?xml version="1.0" encoding="UTF-8" standalone="no"?>
<svg width="100px" height="100px" viewBox="0 0 100 100" version="1.1" xmlns="http://www.w3.org/2000/svg" xmlns:xlink="http://www.w3.org/1999/xlink" xmlns:sketch="http://www.bohemiancoding.com/sketch/ns">
    <!-- Generator: Sketch 3.3.2 (12043) - http://www.bohemiancoding.com/sketch -->
    <title>19-07-2015 - first aid kit</title>
    <desc>Created with Sketch.</desc>
    <defs></defs>
    <g id="January" stroke="none" stroke-width="1" fill="none" fill-rule="evenodd" sketch:type="MSPage">
        <g id="19-07-2015---first-aid-kit" sketch:type="MSArtboardGroup" fill="#000000">
            <path d="M54,49 L54,44 L46,44 L46,49 L41,49 L41,57 L46,57 L46,62 L54,62 L54,57 L59,57 L59,49 L54,49 L54,49 Z M13,32.9936777 C13,28.5788914 16.5816681,25 21.0072221,25 L78.9927779,25 C83.4150446,25 87,28.5882405 87,32.9936777 L87,73.0063223 C87,77.4211086 83.4183319,81 78.9927779,81 L21.0072221,81 C16.5849554,81 13,77.4117595 13,73.0063223 L13,32.9936777 Z M50,71 C59.9411255,71 68,62.9411255 68,53 C68,43.0588745 59.9411255,35 50,35 C40.0588745,35 32,43.0588745 32,53 C32,62.9411255 40.0588745,71 50,71 Z M41,25 L59,25 L59,23.25 C59,22.5611614 58.4399337,22 57.7538242,22 L42.2461758,22 C41.5624628,22 41,22.5622691 41,23.25 L41,25 Z M39,23.25 C39,21.4550746 40.4605192,20 42.2461758,20 L57.7538242,20 C59.5466376,20 61,21.4587269 61,23.25 L61,25 L39,25 L39,23.25 Z" id="first-aid-kit" sketch:type="MSShapeGroup"></path>
        </g>
    </g>
</svg>