<?xml version="1.0" encoding="UTF-8" standalone="no"?>
<svg width="100px" height="100px" viewBox="0 0 100 100" version="1.1" xmlns="http://www.w3.org/2000/svg" xmlns:xlink="http://www.w3.org/1999/xlink" xmlns:sketch="http://www.bohemiancoding.com/sketch/ns">
    <!-- Generator: Sketch 3.3.2 (12043) - http://www.bohemiancoding.com/sketch -->
    <title>20-07-2015 - dart</title>
    <desc>Created with Sketch.</desc>
    <defs></defs>
    <g id="January" stroke="none" stroke-width="1" fill="none" fill-rule="evenodd" sketch:type="MSPage">
        <g id="20-07-2015---dart" sketch:type="MSArtboardGroup" fill="#000000">
            <path d="M49.021806,84.8033509 C42.1873293,84.0549253 46.009738,67.1540898 46.009738,46.4146043 C46.009738,41.8034696 46.009738,37.382092 46.0456726,33.2858097 L33.3512234,27.7963185 C32.3341991,27.3565243 31.7715198,26.1361203 32.088186,25.0911218 L35.9312899,12.4088788 C36.2507579,11.3546341 37.3955107,10.664032 38.4727539,10.8635215 L47.1757227,12.4751824 L47.1757227,12.4751824 C47.6917067,9.61858279 48.4360295,8 49.509738,8 C50.5832278,8 51.3274661,9.61792366 51.843438,12.4734374 L51.843438,12.4734374 L60.5369841,10.8635215 C61.6142273,10.664032 62.75898,11.3546341 63.0784481,12.4088788 L66.921552,25.0911218 C67.2382182,26.1361203 66.6755389,27.3565243 65.6585145,27.7963185 L52.9737665,33.2816146 C53.009738,37.3790732 53.009738,41.8018954 53.009738,46.4146043 C53.009738,67.1540898 56.8321466,84.0549253 49.9976699,84.8033509 C49.9476733,89.4943775 49.7482004,93 49.509738,93 C49.2712755,93 49.0718026,89.4943775 49.021806,84.8033509 Z" id="dart" sketch:type="MSShapeGroup" transform="translate(49.504869, 50.500000) rotate(-140.000000) translate(-49.504869, -50.500000) "></path>
        </g>
    </g>
</svg>