<?xml version="1.0" encoding="UTF-8" standalone="no"?>
<svg width="100px" height="100px" viewBox="0 0 100 100" version="1.1" xmlns="http://www.w3.org/2000/svg" xmlns:xlink="http://www.w3.org/1999/xlink" xmlns:sketch="http://www.bohemiancoding.com/sketch/ns">
    <!-- Generator: Sketch 3.3.2 (12043) - http://www.bohemiancoding.com/sketch -->
    <title>21-07-2015 - user</title>
    <desc>Created with Sketch.</desc>
    <defs></defs>
    <g id="January" stroke="none" stroke-width="1" fill="none" fill-rule="evenodd" sketch:type="MSPage">
        <g id="21-07-2015---user" sketch:type="MSArtboardGroup" fill="#000000">
            <path d="M63.6759668,38.455838 C72.2112611,45.7784155 78,58.6092718 78,66.1328358 C78,77.1051676 65.6878306,86 50.5,86 C35.3121694,86 23,77.1051676 23,66.1328358 C23,58.4489948 29.0380048,45.229327 37.8732338,37.9954563 C40.8279148,42.0010175 45.5853019,44.6 50.9508197,44.6 C56.1078997,44.6 60.7031803,42.199024 63.6759668,38.455838 Z M50.9508197,42.8 C58.9182062,42.8 65.3770492,36.3529004 65.3770492,28.4 C65.3770492,20.4470996 58.9182062,14 50.9508197,14 C42.9834331,14 36.5245902,20.4470996 36.5245902,28.4 C36.5245902,36.3529004 42.9834331,42.8 50.9508197,42.8 Z" id="user" sketch:type="MSShapeGroup"></path>
        </g>
    </g>
</svg>