<?xml version="1.0" encoding="UTF-8" standalone="no"?>
<svg width="100px" height="100px" viewBox="0 0 100 100" version="1.1" xmlns="http://www.w3.org/2000/svg" xmlns:xlink="http://www.w3.org/1999/xlink" xmlns:sketch="http://www.bohemiancoding.com/sketch/ns">
    <!-- Generator: Sketch 3.3.2 (12043) - http://www.bohemiancoding.com/sketch -->
    <title>22-07-2015 - money bag</title>
    <desc>Created with Sketch.</desc>
    <defs></defs>
    <g id="January" stroke="none" stroke-width="1" fill="none" fill-rule="evenodd" sketch:type="MSPage">
        <g id="22-07-2015---money-bag" sketch:type="MSArtboardGroup" fill="#000000">
            <path d="M49.5,84.3437411 C66.0685425,84.3437411 80,81.1214226 80,62.3437411 C80,46.5583082 69.4021451,30.1053096 57,25.2625321 L43,25.2625321 C30.8160206,30.097213 20,46.5513596 20,62.3437411 C20,81.1214226 32.9314575,84.3437411 49.5,84.3437411 Z M48.875,41.6155187 L51.53125,41.6155187 L51.53125,43.3186437 C51.8333348,43.3915607 52.5156197,43.6780162 53.578125,44.1780187 C53.7343758,44.0426013 53.8593745,43.8811446 53.953125,43.6936437 C54.1197925,43.3811421 54.3281238,43.2248937 54.578125,43.2248937 L55.359375,43.2248937 L55.640625,43.2092687 C55.7968758,43.2301021 55.8958331,43.375934 55.9375,43.6467687 C55.9375,43.6676021 55.9687497,43.8186423 56.03125,44.0998937 L56.75,47.9123937 C56.7604167,47.974894 56.7812498,48.0790596 56.8125,48.2248937 C56.9895842,49.0165643 57.078125,49.5061427 57.078125,49.6936437 C57.078125,49.9332282 56.781253,50.0530187 56.1875,50.0530187 C55.6041637,50.0530187 55.2604172,50.0347897 55.15625,49.9983312 C55.0520828,49.9618726 54.8802095,49.6988544 54.640625,49.2092687 C53.6822869,47.3030091 52.6458389,46.079063 51.53125,45.5373937 L51.53125,51.6936437 C54.1458464,53.3394852 55.8671834,54.8134288 56.6953125,56.1155187 C57.5234416,57.4176085 57.9375,58.9123852 57.9375,60.5998937 C57.9375,62.1103179 57.6354197,63.3290557 57.03125,64.2561437 C56.4270803,65.1832316 55.7161499,65.875933 54.8984375,66.3342687 C54.0807251,66.7926043 52.9635488,67.0738515 51.546875,67.1780187 L51.546875,69.7405187 L48.890625,69.7405187 L48.890625,66.9123937 C48.0364541,66.5582252 47.4687514,66.2873946 47.1875,66.0998937 C46.9374988,65.9332262 46.7447923,65.8498937 46.609375,65.8498937 C46.3802072,65.8498937 46.1770842,66.0738498 46,66.5217687 C45.8854161,66.7926033 45.7656256,66.9566642 45.640625,67.0139562 C45.5156244,67.0712481 45.1302116,67.0998937 44.484375,67.0998937 C44.2864573,67.0998937 44.1458338,66.8498962 44.0625,66.3498937 L43.109375,60.8186437 C43.0572914,60.5269755 43.03125,60.3551023 43.03125,60.3030187 C43.03125,59.9384335 43.3802048,59.7561437 44.078125,59.7561437 C44.6302111,59.7561437 44.9817701,59.8238513 45.1328125,59.9592687 C45.2838549,60.094686 45.5729145,60.5478065 46,61.3186437 C47.0416719,63.193653 48.0052039,64.3342666 48.890625,64.7405187 L48.890625,57.5061437 C44.6614372,55.1415485 42.546875,52.3186601 42.546875,49.0373937 C42.546875,47.912388 42.7187483,46.9722933 43.0625,46.2170812 C43.4062517,45.4618691 44.0260372,44.7665635 44.921875,44.1311437 C45.8177128,43.4957238 47.135408,43.1571855 48.875,43.1155187 L48.875,41.6155187 Z M48.859375,50.2092687 L48.859375,44.8030187 C48.1406214,44.8030187 47.5677105,45.0243706 47.140625,45.4670812 C46.7135395,45.9097917 46.5,46.3811412 46.5,46.8811437 C46.5,48.0269827 47.2864505,49.1363466 48.859375,50.2092687 L48.859375,50.2092687 Z M51.546875,59.2092687 L51.546875,65.2873937 C53.1093828,65.0478091 53.890625,64.2040676 53.890625,62.7561437 C53.890625,61.4644705 53.1093828,60.2821907 51.546875,59.2092687 Z M42,23.2561437 C42,22.7038589 42.4446309,22.2561437 43.0008717,22.2561437 L56.9991283,22.2561437 C57.5518945,22.2561437 58,22.7000085 58,23.2561437 C58,23.8084284 57.5553691,24.2561437 56.9991283,24.2561437 L43.0008717,24.2561437 C42.4481055,24.2561437 42,23.8122788 42,23.2561437 Z M43,21.2561437 C43,21.2561437 37.5000001,18.2561437 41.0000001,15.7561437 C44.5000001,13.2561437 48.5,17.7561436 48.5,17.7561436 C48.5,17.7561436 51.9999995,13.7561436 57,15.7561437 C61.6021007,17.5969838 57.0000005,21.2561438 57.0000005,21.2561438 L43,21.2561437 Z" id="money-bag" sketch:type="MSShapeGroup"></path>
        </g>
    </g>
</svg>