<?xml version="1.0" encoding="UTF-8" standalone="no"?>
<svg width="100px" height="100px" viewBox="0 0 100 100" version="1.1" xmlns="http://www.w3.org/2000/svg" xmlns:xlink="http://www.w3.org/1999/xlink" xmlns:sketch="http://www.bohemiancoding.com/sketch/ns">
    <!-- Generator: Sketch 3.3.3 (12081) - http://www.bohemiancoding.com/sketch -->
    <title>23-07-2015 - random</title>
    <desc>Created with Sketch.</desc>
    <defs></defs>
    <g id="January" stroke="none" stroke-width="1" fill="none" fill-rule="evenodd" sketch:type="MSPage">
        <g id="23-07-2015---random" sketch:type="MSArtboardGroup" fill="#000000">
            <path d="M77.4696499,63.6185713 C76.8479752,63.6092378 76.1283635,63.5775574 75.3202709,63.5156217 C73.4057245,63.3688825 71.3401489,63.074913 69.1639054,62.5996382 C63.2316507,61.3040798 57.3500574,58.8721658 51.8490812,55.0270527 C50.2050996,53.8779302 48.614257,52.6134504 47.0822816,51.2291304 L47.0822811,51.2291308 L49.2319695,49.3308762 C50.5241308,50.4651693 51.8594641,51.5113266 53.2344149,52.4723999 C58.4449758,56.1145163 64.0280963,58.4230182 69.6630447,59.6536472 C71.7294888,60.1049426 73.6882152,60.3837056 75.4982493,60.5224345 C76.2278376,60.5783533 76.8758361,60.6077914 77.4696499,60.6162607 L77.4696499,57.2100695 C77.4696499,56.1022643 78.2219046,55.67437 79.1706889,56.2673601 L86.968611,61.1410615 C87.9080689,61.7282226 87.9173952,62.67437 86.968611,63.2673601 L79.1706889,68.1410615 C78.231231,68.7282226 77.4696499,68.3071507 77.4696499,67.1983521 L77.4696499,63.6185713 Z M77.4696499,38.5887924 C76.912672,38.5950706 76.2668148,38.6177755 75.5408284,38.6628252 C73.7938768,38.7712288 71.9075899,38.9919909 69.920724,39.3509974 C64.5241719,40.3260996 59.1819192,42.1625523 54.2007454,45.0614841 C51.4497949,46.6624757 48.8710376,48.5569018 46.4937923,50.7651468 C44.8068338,52.3321779 43.0464767,53.750766 41.2205687,55.0270527 C35.7195925,58.8721658 29.8379993,61.3040798 23.9057445,62.5996382 C21.729501,63.074913 19.6639255,63.3688825 17.749379,63.5156217 C16.4390466,63.6160513 15.3613571,63.6369303 14.5566268,63.6119763 C14.4447185,63.6085061 14.365213,63.6048768 14.3193717,63.6021376 L13,63.5232993 L13.1388812,60.5274458 L14.4582529,60.6062841 C14.4820689,60.6077072 14.5393353,60.6103213 14.628771,60.6130946 C15.3525507,60.6355384 16.3471004,60.6162702 17.5714006,60.5224345 C19.3814347,60.3837056 21.3401612,60.1049426 23.4066052,59.6536472 C29.0415536,58.4230182 34.6246742,56.1145163 39.835235,52.4723999 C41.5618176,51.2655404 43.225928,49.924513 44.8205275,48.4432749 C47.3463432,46.0970216 50.0820926,44.0872648 52.9953775,42.3917981 C58.2439735,39.3372327 63.8496663,37.4102198 69.5054101,36.3882843 C72.6380946,35.82224 75.3560793,35.5995487 77.4696499,35.585853 L77.4696499,32.2100695 C77.4696499,31.1022643 78.2219046,30.67437 79.1706889,31.2673601 L86.968611,36.1410615 C87.9080689,36.7282226 87.9173952,37.67437 86.968611,38.2673601 L79.1706889,43.1410615 C78.231231,43.7282226 77.4696499,43.3071507 77.4696499,42.1983521 L77.4696499,38.5887924 L77.4696499,38.5887924 Z M43.7924256,48.3921949 C42.2224855,47.1653053 40.5789642,46.0567006 38.8689045,45.0614841 C33.8877307,42.1625523 28.545478,40.3260996 23.1489259,39.3509974 C21.1620601,38.9919909 19.2757731,38.7712288 17.5288216,38.6628252 C16.3371584,38.5888789 15.3613893,38.5751364 14.4453883,38.602513 L13.1256859,38.6738607 L13,35.6772563 L14.3197024,35.6059086 C14.3681304,35.6032904 14.4536464,35.5997537 14.5747534,35.5963465 C16.8008281,35.5337186 19.8986365,35.7259469 23.5642398,36.3882843 C29.2199836,37.4102198 34.8256764,39.3372327 40.0742724,42.3917981 C42.121638,43.5833191 44.0813215,44.9300629 45.9420782,46.4397369 L43.7924256,48.3921949 L43.7924256,48.3921949 Z" id="random" sketch:type="MSShapeGroup"></path>
        </g>
    </g>
</svg>