<?xml version="1.0" encoding="UTF-8" standalone="no"?>
<svg width="100px" height="100px" viewBox="0 0 100 100" version="1.1" xmlns="http://www.w3.org/2000/svg" xmlns:xlink="http://www.w3.org/1999/xlink" xmlns:sketch="http://www.bohemiancoding.com/sketch/ns">
    <!-- Generator: Sketch 3.3.3 (12081) - http://www.bohemiancoding.com/sketch -->
    <title>24-07-2015 - boomerang</title>
    <desc>Created with Sketch.</desc>
    <defs></defs>
    <g id="January" stroke="none" stroke-width="1" fill="none" fill-rule="evenodd" sketch:type="MSPage">
        <g id="24-07-2015---boomerang" sketch:type="MSArtboardGroup" fill="#000000">
            <path d="M53.4370724,66.1928094 C48.3322086,60.4653064 44,53.4065825 44,45.5 C44,37.3960637 48.5511777,30.2573941 53.8207242,24.5468828 L53.8207242,24.5468828 C52.4845803,23.7210035 51.2723746,22.8812062 50.2094528,22.0308688 C48.9689331,21.038453 47.8719422,19.8837258 46.9091479,18.6 C46.8852283,18.5681073 46.8614155,18.5361696 46.8377091,18.5041878 C35.4219186,24.795652 24,34.2113172 24,45.5 C24,56.6578443 35.1586875,66.1271678 46.4407893,72.5495094 C46.5921351,72.3311578 46.748227,72.1145611 46.9091479,71.9 C47.8719422,70.6162742 48.9689331,69.461547 50.2094528,68.4691312 C51.1697138,67.7009224 52.2518145,66.9413161 53.4370666,66.1928029 Z M54.8154335,67.6895638 C62.9775906,76.2784905 72.2570524,81.5 69,81.5 C66.5659927,81.5 57.5370205,78.5839812 48.1988552,73.5257329 C48.3000561,73.3828374 48.4034797,73.2408909 48.5091479,73.1 C49.3744785,71.9462258 50.3556127,70.913453 51.4588429,70.0308688 C52.4390908,69.2466705 53.5667302,68.463943 54.8154335,67.6895638 Z M55.2325631,23.0660919 C63.2894383,14.8774689 72.2016881,10 69,10 C66.6026184,10 57.8072536,12.7347071 48.620171,17.5465338 C49.4581447,18.6413398 50.4025275,19.6240788 51.4588429,20.4691312 C52.5470969,21.3397344 53.8170117,22.2085248 55.2325631,23.0660919 L55.2325631,23.0660919 Z" id="boomerang" sketch:type="MSShapeGroup" transform="translate(46.834148, 45.750000) rotate(23.000000) translate(-46.834148, -45.750000) "></path>
        </g>
    </g>
</svg>