<?xml version="1.0" encoding="UTF-8" standalone="no"?>
<svg width="100px" height="100px" viewBox="0 0 100 100" version="1.1" xmlns="http://www.w3.org/2000/svg" xmlns:xlink="http://www.w3.org/1999/xlink" xmlns:sketch="http://www.bohemiancoding.com/sketch/ns">
    <!-- Generator: Sketch 3.3.3 (12081) - http://www.bohemiancoding.com/sketch -->
    <title>25-07-2015 - loading</title>
    <desc>Created with Sketch.</desc>
    <defs></defs>
    <g id="January" stroke="none" stroke-width="1" fill="none" fill-rule="evenodd" sketch:type="MSPage">
        <g id="25-07-2015---loading" sketch:type="MSArtboardGroup" fill="#000000">
            <path d="M50,24.2432432 C51.9792887,24.2432432 53.5838192,22.621788 53.5838192,20.6216216 C53.5838192,18.6214552 51.9792887,17 50,17 C48.0207113,17 46.4161808,18.6214552 46.4161808,20.6216216 C46.4161808,22.621788 48.0207113,24.2432432 50,24.2432432 Z M64.1967638,28.9120035 C65.798042,30.0754002 68.0492019,29.7067347 69.2248702,28.0885661 C70.4005385,26.4703975 70.0555135,24.2154933 68.4542353,23.0520966 C66.8529572,21.8886999 64.6017972,22.2573654 63.4261289,23.875534 C62.2504606,25.4937026 62.5954856,27.7486068 64.1967638,28.9120035 Z M72.9708463,41.1349764 C73.5824802,43.0173919 75.6204029,44.0423338 77.5226742,43.4242484 C79.4249455,42.806163 80.4712139,40.7791066 79.85958,38.8966912 C79.2479462,37.0142758 77.2100234,35.9893338 75.3077521,36.6074192 C73.4054809,37.2255046 72.3592125,39.252561 72.9708463,41.1349764 Z M72.9708463,56.2434019 C72.3592125,58.1258173 73.4054809,60.1528738 75.3077521,60.7709592 C77.2100234,61.3890446 79.2479462,60.3641026 79.85958,58.4816872 C80.4712139,56.5992718 79.4249455,54.5722154 77.5226742,53.95413 C75.6204029,53.3360445 73.5824802,54.3609865 72.9708463,56.2434019 Z M64.1967638,68.4663749 C62.5954856,69.6297716 62.2504606,71.8846758 63.4261289,73.5028444 C64.6017972,75.121013 66.8529572,75.4896785 68.4542353,74.3262818 C70.0555135,73.1628851 70.4005385,70.9079809 69.2248702,69.2898123 C68.0492019,67.6716437 65.798042,67.3029782 64.1967638,68.4663749 Z M50,72.2297297 C47.031067,72.2297297 44.6242712,74.6619126 44.6242712,77.6621622 C44.6242712,80.6624117 47.031067,83.0945946 50,83.0945946 C52.968933,83.0945946 55.3757288,80.6624117 55.3757288,77.6621622 C55.3757288,74.6619126 52.968933,72.2297297 50,72.2297297 Z M35.8032362,68.4663749 C34.201958,67.3029782 31.9507981,67.6716437 30.7751298,69.2898123 C29.5994615,70.9079809 29.9444865,73.1628851 31.5457647,74.3262818 C33.1470428,75.4896785 35.3982028,75.121013 36.5738711,73.5028444 C37.7495394,71.8846758 37.4045144,69.6297716 35.8032362,68.4663749 Z M27.0291537,56.2434019 C26.4175198,54.3609865 24.3795971,53.3360445 22.4773258,53.95413 C20.5750545,54.5722154 19.5287861,56.5992718 20.14042,58.4816872 C20.7520538,60.3641026 22.7899766,61.3890446 24.6922479,60.7709592 C26.5945191,60.1528738 27.6407875,58.1258173 27.0291537,56.2434019 Z M27.0291537,41.1349764 C27.6407875,39.252561 26.5945191,37.2255046 24.6922479,36.6074192 C22.7899766,35.9893338 20.7520538,37.0142758 20.14042,38.8966912 C19.5287861,40.7791066 20.5750545,42.806163 22.4773258,43.4242484 C24.3795971,44.0423338 26.4175198,43.0173919 27.0291537,41.1349764 Z M35.8032362,28.9120035 C37.4045144,27.7486068 37.7495394,25.4937026 36.5738711,23.875534 C35.3982028,22.2573654 33.1470428,21.8886999 31.5457647,23.0520966 C29.9444865,24.2154933 29.5994615,26.4703975 30.7751298,28.0885661 C31.9507981,29.7067347 34.201958,30.0754002 35.8032362,28.9120035 Z" id="loading" sketch:type="MSShapeGroup" transform="translate(50.000000, 50.500000) rotate(-124.000000) translate(-50.000000, -50.500000) "></path>
        </g>
    </g>
</svg>