<?xml version="1.0" encoding="UTF-8" standalone="no"?>
<svg width="100px" height="100px" viewBox="0 0 100 100" version="1.1" xmlns="http://www.w3.org/2000/svg" xmlns:xlink="http://www.w3.org/1999/xlink" xmlns:sketch="http://www.bohemiancoding.com/sketch/ns">
    <!-- Generator: Sketch 3.3.3 (12081) - http://www.bohemiancoding.com/sketch -->
    <title>26-07-2015 - folder</title>
    <desc>Created with Sketch.</desc>
    <defs></defs>
    <g id="January" stroke="none" stroke-width="1" fill="none" fill-rule="evenodd" sketch:type="MSPage">
        <g id="26-07-2015---folder" sketch:type="MSArtboardGroup" fill="#000000">
            <path d="M19.8055556,30.2018812 L19.8055556,30.2018812 L19.8055556,75.1981188 C19.8055556,75.2012768 19.8042738,75.2 19.8063129,75.2 L81.1936871,75.2 C81.1931722,75.2 81.1944444,75.1987315 81.1944444,75.1981188 L81.1944444,30.2018812 C81.1944444,30.1987232 81.1957262,30.2 81.1936871,30.2 L19.8063129,30.2 C19.8068278,30.2 19.8055556,30.2012685 19.8055556,30.2018812 L19.8055556,30.2018812 Z M18,30.2018812 C18,29.2067297 18.8100745,28.4 19.8063129,28.4 L81.1936871,28.4 C82.1912862,28.4 83,29.2029955 83,30.2018812 L83,75.1981188 C83,76.1932703 82.1899255,77 81.1936871,77 L19.8063129,77 C18.8087138,77 18,76.1970045 18,75.1981188 L18,30.2018812 L18,30.2018812 Z M47.3402778,28.4 L46.4770951,25.1794833 C46.437442,25.0213587 46.1525601,24.8 45.9828658,24.8 L27.0310231,24.8 C26.8559129,24.8 26.5777052,25.0163412 26.5367938,25.1794833 L25.6736111,28.4 L47.3402778,28.4 Z M24.7851476,24.7429192 C25.0265372,23.7803315 26.0254807,23 27.0310231,23 L45.9828658,23 C46.9818389,23 47.9883299,23.7842323 48.2287413,24.7429192 L49.5972222,30.2 L23.4166667,30.2 L24.7851476,24.7429192 L24.7851476,24.7429192 Z" id="folder" sketch:type="MSShapeGroup"></path>
        </g>
    </g>
</svg>