<?xml version="1.0" encoding="UTF-8" standalone="no"?>
<svg width="100px" height="100px" viewBox="0 0 100 100" version="1.1" xmlns="http://www.w3.org/2000/svg" xmlns:xlink="http://www.w3.org/1999/xlink" xmlns:sketch="http://www.bohemiancoding.com/sketch/ns">
    <!-- Generator: Sketch 3.3.3 (12081) - http://www.bohemiancoding.com/sketch -->
    <title>27-07-2015 - brightness</title>
    <desc>Created with Sketch.</desc>
    <defs></defs>
    <g id="January" stroke="none" stroke-width="1" fill="none" fill-rule="evenodd" sketch:type="MSPage">
        <g id="27-07-2015---brightness" sketch:type="MSArtboardGroup" fill="#000000">
            <path d="M49.5,58.2738095 C54.3456412,58.2738095 58.2738095,54.3456412 58.2738095,49.5 C58.2738095,44.6543588 54.3456412,40.7261905 49.5,40.7261905 C44.6543588,40.7261905 40.7261905,44.6543588 40.7261905,49.5 C40.7261905,54.3456412 44.6543588,58.2738095 49.5,58.2738095 Z M46.6182796,18.8745543 C46.6182796,17.2869818 47.9117082,16 49.5,16 C51.0915302,16 52.3817204,17.2995844 52.3817204,18.8745543 L52.3817204,30.4157683 C52.3817204,32.0033408 51.0882918,33.2903226 49.5,33.2903226 C47.9084698,33.2903226 46.6182796,31.9907382 46.6182796,30.4157683 L46.6182796,18.8745543 Z M62.3170797,21.5367258 C63.110866,20.1618477 64.874499,19.6940031 66.25,20.488149 C67.6283056,21.2839141 68.0958509,23.0544823 67.3083659,24.4184463 L61.537759,34.4134307 C60.7439727,35.7883088 58.9803398,36.2561535 57.6048387,35.4620076 C56.2265331,34.6662424 55.7589878,32.8956743 56.5464728,31.5317103 L62.3170797,21.5367258 Z M74.5815537,31.6916341 C75.9564319,30.8978478 77.7177051,31.374499 78.511851,32.75 C79.3076162,34.1283056 78.8272381,35.8954353 77.4632742,36.6829203 L67.4682897,42.4535272 C66.0934116,43.2473135 64.3321383,42.7706623 63.5379924,41.3951613 C62.7422273,40.0168557 63.2226053,38.249726 64.5865693,37.462241 L74.5815537,31.6916341 Z M80.1254457,46.6182796 C81.7130182,46.6182796 83,47.9117082 83,49.5 C83,51.0915302 81.7004156,52.3817204 80.1254457,52.3817204 L68.5842317,52.3817204 C66.9966592,52.3817204 65.7096774,51.0882918 65.7096774,49.5 C65.7096774,47.9084698 67.0092618,46.6182796 68.5842317,46.6182796 L80.1254457,46.6182796 Z M77.4632742,62.3170797 C78.8381523,63.110866 79.3059969,64.874499 78.511851,66.25 C77.7160859,67.6283056 75.9455177,68.0958509 74.5815537,67.3083659 L64.5865693,61.537759 C63.2116912,60.7439727 62.7438465,58.9803398 63.5379924,57.6048387 C64.3337576,56.2265331 66.1043257,55.7589878 67.4682897,56.5464728 L77.4632742,62.3170797 Z M67.3083659,74.5815537 C68.1021522,75.9564319 67.625501,77.7177051 66.25,78.511851 C64.8716944,79.3076162 63.1045647,78.8272381 62.3170797,77.4632742 L56.5464728,67.4682897 C55.7526865,66.0934116 56.2293377,64.3321383 57.6048387,63.5379924 C58.9831443,62.7422273 60.750274,63.2226053 61.537759,64.5865693 L67.3083659,74.5815537 Z M52.3817204,80.1254457 C52.3817204,81.7130182 51.0882918,83 49.5,83 C47.9084698,83 46.6182796,81.7004156 46.6182796,80.1254457 L46.6182796,68.5842317 C46.6182796,66.9966592 47.9117082,65.7096774 49.5,65.7096774 C51.0915302,65.7096774 52.3817204,67.0092618 52.3817204,68.5842317 L52.3817204,80.1254457 Z M36.6829203,77.4632742 C35.889134,78.8381523 34.125501,79.3059969 32.75,78.511851 C31.3716944,77.7160859 30.9041491,75.9455177 31.6916341,74.5815537 L37.462241,64.5865693 C38.2560273,63.2116912 40.0196602,62.7438465 41.3951613,63.5379924 C42.7734669,64.3337576 43.2410122,66.1043257 42.4535272,67.4682897 L36.6829203,77.4632742 Z M24.4184463,67.3083659 C23.0435681,68.1021522 21.2822949,67.625501 20.488149,66.25 C19.6923838,64.8716944 20.1727619,63.1045647 21.5367258,62.3170797 L31.5317103,56.5464728 C32.9065884,55.7526865 34.6678617,56.2293377 35.4620076,57.6048387 C36.2577727,58.9831443 35.7773947,60.750274 34.4134307,61.537759 L24.4184463,67.3083659 Z M18.8745543,52.3817204 C17.2869818,52.3817204 16,51.0882918 16,49.5 C16,47.9084698 17.2995844,46.6182796 18.8745543,46.6182796 L30.4157683,46.6182796 C32.0033408,46.6182796 33.2903226,47.9117082 33.2903226,49.5 C33.2903226,51.0915302 31.9907382,52.3817204 30.4157683,52.3817204 L18.8745543,52.3817204 Z M21.5367258,36.6829203 C20.1618477,35.889134 19.6940031,34.125501 20.488149,32.75 C21.2839141,31.3716944 23.0544823,30.9041491 24.4184463,31.6916341 L34.4134307,37.462241 C35.7883088,38.2560273 36.2561535,40.0196602 35.4620076,41.3951613 C34.6662424,42.7734669 32.8956743,43.2410122 31.5317103,42.4535272 L21.5367258,36.6829203 Z M31.6916341,24.4184463 C30.8978478,23.0435681 31.374499,21.2822949 32.75,20.488149 C34.1283056,19.6923838 35.8954353,20.1727619 36.6829203,21.5367258 L42.4535272,31.5317103 C43.2473135,32.9065884 42.7706623,34.6678617 41.3951613,35.4620076 C40.0168557,36.2577727 38.249726,35.7773947 37.462241,34.4134307 L31.6916341,24.4184463 Z" id="brightness" sketch:type="MSShapeGroup"></path>
        </g>
    </g>
</svg>