<?xml version="1.0" encoding="UTF-8" standalone="no"?>
<svg width="100px" height="100px" viewBox="0 0 100 100" version="1.1" xmlns="http://www.w3.org/2000/svg" xmlns:xlink="http://www.w3.org/1999/xlink" xmlns:sketch="http://www.bohemiancoding.com/sketch/ns">
    <!-- Generator: Sketch 3.3.3 (12081) - http://www.bohemiancoding.com/sketch -->
    <title>28-07-2015 - power</title>
    <desc>Created with Sketch.</desc>
    <defs></defs>
    <g id="January" stroke="none" stroke-width="1" fill="none" fill-rule="evenodd" sketch:type="MSPage">
        <g id="28-07-2015---power" sketch:type="MSArtboardGroup" fill="#000000">
            <path d="M54.7647059,26.8446275 C67.4039344,29.1191778 77,40.2821968 77,53.7105263 C77,68.7820865 64.9116882,81 50,81 C35.0883118,81 23,68.7820865 23,53.7105263 C23,40.2821968 32.5960656,29.1191778 45.2352941,26.8446275 L45.2352941,31.754025 C35.244716,33.9585978 27.7647059,42.9516718 27.7647059,53.7105263 C27.7647059,66.1223994 37.7197862,76.1842105 50,76.1842105 C62.2802138,76.1842105 72.2352941,66.1223994 72.2352941,53.7105263 C72.2352941,42.9516718 64.755284,33.9585978 54.7647059,31.754025 L54.7647059,26.8446275 L54.7647059,26.8446275 Z M46.8235294,23.1751487 C46.8235294,21.4215625 48.2492534,20 50,20 C51.7543163,20 53.1764706,21.4174797 53.1764706,23.1751487 L53.1764706,42.5090618 C53.1764706,44.262648 51.7507466,45.6842105 50,45.6842105 C48.2456837,45.6842105 46.8235294,44.2667308 46.8235294,42.5090618 L46.8235294,23.1751487 Z" id="power" sketch:type="MSShapeGroup"></path>
        </g>
    </g>
</svg>