<?xml version="1.0" encoding="UTF-8" standalone="no"?>
<svg width="100px" height="100px" viewBox="0 0 100 100" version="1.1" xmlns="http://www.w3.org/2000/svg" xmlns:xlink="http://www.w3.org/1999/xlink" xmlns:sketch="http://www.bohemiancoding.com/sketch/ns">
    <!-- Generator: Sketch 3.3.3 (12081) - http://www.bohemiancoding.com/sketch -->
    <title>29-07-2015 - paw</title>
    <desc>Created with Sketch.</desc>
    <defs></defs>
    <g id="January" stroke="none" stroke-width="1" fill="none" fill-rule="evenodd" sketch:type="MSPage">
        <g id="29-07-2015---paw" sketch:type="MSArtboardGroup" fill="#000000">
            <path d="M50,73 C61.5979797,73 71,81.2172679 71,71 C71,60.7827321 58,48.5 50,48.5 C42,48.5 29,60.7827321 29,71 C29,81.2172679 38.4020203,73 50,73 Z M30,57.5 C33.5,56 35,53.918278 35,49.5 C35,45.081722 35,39 31.5,40.5 C28,42 25,45.081722 25,49.5 C25,53.918278 26.5,59 30,57.5 Z M70,57.5 C66.5,56 65,53.918278 65,49.5 C65,45.081722 65,39 68.5,40.5 C72,42 75,45.081722 75,49.5 C75,53.918278 73.5,59 70,57.5 Z M42.5,46.5 C47.5,44.5 49,42.9035594 49,36 C49,29.0964406 48.5898509,23 45,23 C41.4101491,23 36,29.0964406 36,36 C36,42.9035594 37.5,48.5 42.5,46.5 Z M57.5,46.5 C52.5,44.5 51,42.9035594 51,36 C51,29.0964406 51.4101491,23 55,23 C58.5898509,23 64,29.0964406 64,36 C64,42.9035594 62.5,48.5 57.5,46.5 Z" id="paw" sketch:type="MSShapeGroup"></path>
        </g>
    </g>
</svg>