<?xml version="1.0" encoding="UTF-8" standalone="no"?>
<svg width="100px" height="100px" viewBox="0 0 100 100" version="1.1" xmlns="http://www.w3.org/2000/svg" xmlns:xlink="http://www.w3.org/1999/xlink" xmlns:sketch="http://www.bohemiancoding.com/sketch/ns">
    <!-- Generator: Sketch 3.3.3 (12081) - http://www.bohemiancoding.com/sketch -->
    <title>30-07-2015 - video camera</title>
    <desc>Created with Sketch.</desc>
    <defs></defs>
    <g id="January" stroke="none" stroke-width="1" fill="none" fill-rule="evenodd" sketch:type="MSPage">
        <g id="30-07-2015---video-camera" sketch:type="MSArtboardGroup" fill="#000000">
            <path d="M15,35.2050696 C15,31.2258196 18.2270688,28 22.2094301,28 L52.6623647,28 C56.6440231,28 59.8717949,31.2182299 59.8717949,35.2050696 L59.8717949,65.7949304 C59.8717949,69.7741804 56.644726,73 52.6623647,73 L22.2094301,73 C18.2277718,73 15,69.7817701 15,65.7949304 L15,35.2050696 Z M62.7266579,52.6618935 C61.130135,51.4679127 61.1202142,49.5395067 62.7266579,48.3381065 L82.145137,33.8157396 C83.7416599,32.6217588 85.0358974,33.2734375 85.0358974,35.250869 L85.0358974,65.749131 C85.0358974,67.7357119 83.7515807,68.3856605 82.145137,67.1842604 L62.7266579,52.6618935 Z" id="video-camera" sketch:type="MSShapeGroup"></path>
        </g>
    </g>
</svg>