<?xml version="1.0" encoding="UTF-8" standalone="no"?>
<svg width="100px" height="100px" viewBox="0 0 100 100" version="1.1" xmlns="http://www.w3.org/2000/svg" xmlns:xlink="http://www.w3.org/1999/xlink" xmlns:sketch="http://www.bohemiancoding.com/sketch/ns">
    <!-- Generator: Sketch 3.3.1 (12005) - http://www.bohemiancoding.com/sketch -->
    <title>01-05-2015 - gear</title>
    <desc>Created with Sketch.</desc>
    <defs></defs>
    <g id="January" stroke="none" stroke-width="1" fill="none" fill-rule="evenodd" sketch:type="MSPage">
        <g id="01-05-2015---gear" sketch:type="MSArtboardGroup" fill="#000000">
            <path d="M28.5381343,32.3970807 C27.8611725,33.2104047 27.2291773,34.0627912 26.6459878,34.9503838 L26.6459878,34.9503838 L20.9435067,34.6383506 L17.4872728,45.2755448 L22.1179557,48.2675964 C22.0652892,48.9718829 22.0384805,49.683414 22.0384805,50.4012346 C22.0384805,50.8577472 22.0493235,51.311716 22.0707649,51.7628953 L17.4872728,54.7244552 L20.9435067,65.3616494 L26.1543371,65.0765187 L26.1543371,65.0765187 C26.810828,66.1504994 27.5372146,67.176733 28.3271346,68.1488288 L28.3271346,68.1488288 L26.4497956,73.0059786 L35.4983334,79.5801261 L39.4052769,76.4014104 C40.6024384,76.8941222 41.8411788,77.3058362 43.1147427,77.6297669 L44.4076961,82.5 L55.5923039,82.5 L56.8852573,77.6297669 L56.8852573,77.6297669 C58.1588212,77.3058362 59.3975616,76.8941222 60.5947231,76.4014104 L60.5947231,76.4014104 L64.5016666,79.5801261 L73.5502044,73.0059786 L71.6728654,68.1488288 C72.4627854,67.176733 73.189172,66.1504994 73.8456629,65.0765187 L79.0564933,65.3616494 L82.5127272,54.7244552 L77.9292351,51.7628953 L77.9292351,51.7628953 C77.9506765,51.311716 77.9615195,50.8577472 77.9615195,50.4012346 C77.9615195,49.683414 77.9347108,48.9718829 77.8820443,48.2675964 L77.8820443,48.2675964 L82.5127272,45.2755448 L79.0564933,34.6383506 L73.3540122,34.9503838 C72.7708227,34.0627912 72.1388275,33.2104047 71.4618657,32.3970807 L73.5502044,26.9940214 L64.5016666,20.4198739 L59.9316321,24.138085 L59.9316321,24.138085 C59.0145427,23.7879801 58.074364,23.484949 57.1140213,23.23193 L57.1140213,23.23193 L55.5923039,17.5 L44.4076961,17.5 L42.8859787,23.23193 C41.925636,23.484949 40.9854573,23.7879801 40.0683679,24.138085 L35.4983334,20.4198739 L26.4497956,26.9940214 L28.5381343,32.3970807 L28.5381343,32.3970807 Z M50,55.7453147 C52.9383289,55.7453147 55.3203151,53.3526886 55.3203151,50.4012346 C55.3203151,47.4497806 52.9383289,45.0571544 50,45.0571544 C47.0616711,45.0571544 44.6796849,47.4497806 44.6796849,50.4012346 C44.6796849,53.3526886 47.0616711,55.7453147 50,55.7453147 Z" id="gear" sketch:type="MSShapeGroup"></path>
        </g>
    </g>
</svg>