<?xml version="1.0" encoding="UTF-8" standalone="no"?>
<svg width="100px" height="100px" viewBox="0 0 100 100" version="1.1" xmlns="http://www.w3.org/2000/svg" xmlns:xlink="http://www.w3.org/1999/xlink" xmlns:sketch="http://www.bohemiancoding.com/sketch/ns">
    <!-- Generator: Sketch 3.3.1 (12005) - http://www.bohemiancoding.com/sketch -->
    <title>02-05-2015 - ghost</title>
    <desc>Created with Sketch.</desc>
    <defs></defs>
    <g id="January" stroke="none" stroke-width="1" fill="none" fill-rule="evenodd" sketch:type="MSPage">
        <g id="02-05-2015---ghost" sketch:type="MSArtboardGroup" fill="#000000">
            <path d="M24.7140097,64.92968 C24.7140097,60.635662 19.2439952,12.8647142 50.9700809,14.4749709 C82.6961667,16.0852277 73.3971397,56.878397 75.5851456,64.9296807 C77.7731516,72.9809644 87.4999971,91.999997 66.2861205,81.0322481 C66.2861205,81.0322481 55.5000009,90.999997 50.0000009,81.0322464 C50.0000009,81.0322464 36.7480426,91.23054 32.9190323,81.0322473 C10.0000003,92.999997 24.7140097,69.5000008 24.7140097,64.92968 Z M43.5,41.5 C45.9852814,41.5 48,39.1944204 48,34.5 C48,29.8055796 45.9852814,26 43.5,26 C41.0147186,26 39,29.8055796 39,34.5 C39,39.1944204 41.0147186,41.5 43.5,41.5 Z M55.5,41.5 C57.9852814,41.5 60,39.1944204 60,34.5 C60,29.8055796 57.9852814,26 55.5,26 C53.0147186,26 51,29.8055796 51,34.5 C51,39.1944204 53.0147186,41.5 55.5,41.5 Z" id="Path-1" sketch:type="MSShapeGroup"></path>
            <circle id="Oval-5" sketch:type="MSShapeGroup" cx="44" cy="36" r="2"></circle>
            <circle id="Oval-5-Copy" sketch:type="MSShapeGroup" cx="55" cy="36" r="2"></circle>
        </g>
    </g>
</svg>