<?xml version="1.0" encoding="UTF-8" standalone="no"?>
<svg width="100px" height="100px" viewBox="0 0 100 100" version="1.1" xmlns="http://www.w3.org/2000/svg" xmlns:xlink="http://www.w3.org/1999/xlink" xmlns:sketch="http://www.bohemiancoding.com/sketch/ns">
    <!-- Generator: Sketch 3.3.1 (12005) - http://www.bohemiancoding.com/sketch -->
    <title>04-05-2015 - angle</title>
    <desc>Created with Sketch.</desc>
    <defs></defs>
    <g id="January" stroke="none" stroke-width="1" fill="none" fill-rule="evenodd" sketch:type="MSPage">
        <g id="04-05-2015---angle" sketch:type="MSArtboardGroup" fill="#000000">
            <path d="M17.4954024,70.5383253 C17.201585,70.712309 17,71.0330764 17,71.4 C17,71.7758624 17.2039315,72.1004431 17.5061591,72.2713769 C17.7123839,72.3954588 17.9538792,72.4388901 18.1850624,72.4 L82.0027928,72.4 C82.543298,72.4 83,71.9522847 83,71.4 C83,70.8438648 82.5535351,70.4 82.0027928,70.4 L20.6379812,70.4 L66.2518404,29.3290967 C66.6535141,28.9674281 66.6933299,28.3291175 66.3237792,27.91869 C65.9516522,27.505401 65.3228606,27.4742885 64.9135792,27.8428071 L17.4954024,70.5383253 L17.4954024,70.5383253 Z M47,48.4 C49.0000001,51.4 54.5000001,58.4000004 52.0000001,68.9 L53.5,68.9 C55.0000001,62.4 54.0000002,54.9 48.0000001,47.4 L47,48.4 Z" id="Rectangle-13" sketch:type="MSShapeGroup"></path>
        </g>
    </g>
</svg>