<?xml version="1.0" encoding="UTF-8" standalone="no"?>
<svg width="100px" height="100px" viewBox="0 0 100 100" version="1.1" xmlns="http://www.w3.org/2000/svg" xmlns:xlink="http://www.w3.org/1999/xlink" xmlns:sketch="http://www.bohemiancoding.com/sketch/ns">
    <!-- Generator: Sketch 3.3.1 (12005) - http://www.bohemiancoding.com/sketch -->
    <title>05-05-2015 - battery</title>
    <desc>Created with Sketch.</desc>
    <defs></defs>
    <g id="January" stroke="none" stroke-width="1" fill="none" fill-rule="evenodd" sketch:type="MSPage">
        <g id="05-05-2015---battery" sketch:type="MSArtboardGroup" fill="#000000">
            <path d="M14,38.9992748 C14,36.7905363 15.7838823,35 17.9998408,35 L78.0001592,35 C80.2092103,35 82,36.7867947 82,38.9992748 L82,61.0007252 C82,63.2094637 80.2161177,65 78.0001592,65 L17.9998408,65 C15.7907897,65 14,63.2132053 14,61.0007252 L14,38.9992748 Z M82,44.5 L84,44.5 C85.1045695,44.5 86,45.4001762 86,46.492017 L86,53.507983 C86,54.6081436 85.1122704,55.5 84,55.5 L82,55.5 L82,44.5 Z M17,40.0049466 C17,38.8976452 17.8874333,38 18.999615,38 L25.000385,38 C26.1047419,38 27,38.8970262 27,40.0049466 L27,59.9950534 C27,61.1023548 26.1125667,62 25.000385,62 L18.999615,62 C17.8952581,62 17,61.1029738 17,59.9950534 L17,40.0049466 Z M29,40.0049466 C29,38.8976452 29.8874333,38 30.999615,38 L37.000385,38 C38.1047419,38 39,38.8970262 39,40.0049466 L39,59.9950534 C39,61.1023548 38.1125667,62 37.000385,62 L30.999615,62 C29.8952581,62 29,61.1029738 29,59.9950534 L29,40.0049466 Z M41,40.0049466 C41,38.8976452 41.8874333,38 42.999615,38 L49.000385,38 C50.1047419,38 51,38.8970262 51,40.0049466 L51,59.9950534 C51,61.1023548 50.1125667,62 49.000385,62 L42.999615,62 C41.8952581,62 41,61.1029738 41,59.9950534 L41,40.0049466 Z M53,40.0049466 C53,38.8976452 53.8874333,38 54.999615,38 L61.000385,38 C62.1047419,38 63,38.8970262 63,40.0049466 L63,59.9950534 C63,61.1023548 62.1125667,62 61.000385,62 L54.999615,62 C53.8952581,62 53,61.1029738 53,59.9950534 L53,40.0049466 Z" id="Rectangle-15" sketch:type="MSShapeGroup"></path>
        </g>
    </g>
</svg>