<?xml version="1.0" encoding="UTF-8" standalone="no"?>
<svg width="100px" height="100px" viewBox="0 0 100 100" version="1.1" xmlns="http://www.w3.org/2000/svg" xmlns:xlink="http://www.w3.org/1999/xlink" xmlns:sketch="http://www.bohemiancoding.com/sketch/ns">
    <!-- Generator: Sketch 3.3.1 (12005) - http://www.bohemiancoding.com/sketch -->
    <title>06-05-2015 - heath</title>
    <desc>Created with Sketch.</desc>
    <defs></defs>
    <g id="January" stroke="none" stroke-width="1" fill="none" fill-rule="evenodd" sketch:type="MSPage">
        <g id="06-05-2015---heath" sketch:type="MSArtboardGroup" fill="#000000">
            <path d="M32.935583,50.0387751 C35.7810012,42.8647911 31.935583,34.77732 22.9355821,44.1830819 C14.136644,34.7773199 10.3615731,42.3715739 12.9355832,50.0387749 C14.6033512,55.0065538 21.3628755,60.1830805 22.9355823,60.183081 C24.5758277,60.1830815 30.9577577,55.0253488 32.935583,50.0387751 Z M59.935583,50.0387751 C62.7810012,42.8647911 58.935583,34.77732 49.9355821,44.1830819 C41.136644,34.7773199 37.3615731,42.3715739 39.9355832,50.0387749 C41.6033512,55.0065538 48.3628755,60.1830805 49.9355823,60.183081 C51.5758277,60.1830815 57.9577577,55.0253488 59.935583,50.0387751 Z M86.935583,50.0387751 C89.7810012,42.8647911 85.935583,34.77732 76.9355821,44.1830819 C68.136644,34.7773199 64.3615731,42.3715739 66.9355832,50.0387749 C68.6033512,55.0065538 75.3628755,60.1830805 76.9355823,60.183081 C78.5758277,60.1830815 84.9577577,55.0253488 86.935583,50.0387751 Z M86.0431575,49.719256 C88.7946384,43.0265028 85.6384623,36.4082585 76.9355832,45.1830819 L76.9355832,59.1830819 C78.5216783,59.1830824 84.1306272,54.3713304 86.0431575,49.719256 Z" id="Path-3" sketch:type="MSShapeGroup"></path>
        </g>
    </g>
</svg>