<?xml version="1.0" encoding="UTF-8" standalone="no"?>
<svg width="100px" height="100px" viewBox="0 0 100 100" version="1.1" xmlns="http://www.w3.org/2000/svg" xmlns:xlink="http://www.w3.org/1999/xlink" xmlns:sketch="http://www.bohemiancoding.com/sketch/ns">
    <!-- Generator: Sketch 3.3.1 (12005) - http://www.bohemiancoding.com/sketch -->
    <title>07-05-2015 - credit card</title>
    <desc>Created with Sketch.</desc>
    <defs></defs>
    <g id="January" stroke="none" stroke-width="1" fill="none" fill-rule="evenodd" sketch:type="MSPage">
        <g id="07-05-2015---credit-card" sketch:type="MSArtboardGroup" fill="#000000">
            <path d="M20.5949367,32.1740426 L20.5949367,32.1740426 L20.5949367,67.8259574 C20.5949367,68.7039397 21.3093872,69.4150943 22.1890405,69.4150943 L78.8109595,69.4150943 C79.6870765,69.4150943 80.4050633,68.7014782 80.4050633,67.8259574 L80.4050633,32.1740426 C80.4050633,31.2960603 79.6906128,30.5849057 78.8109595,30.5849057 L22.1890405,30.5849057 C21.3129235,30.5849057 20.5949367,31.2985218 20.5949367,32.1740426 L20.5949367,32.1740426 Z M19,32.1740426 C19,30.4210673 20.4342126,29 22.1890405,29 L78.8109595,29 C80.5722179,29 82,30.4214815 82,32.1740426 L82,67.8259574 C82,69.5789327 80.5657874,71 78.8109595,71 L22.1890405,71 C20.4277821,71 19,69.5785185 19,67.8259574 L19,32.1740426 L19,32.1740426 Z M19.7974684,35.3396226 L81.2025316,35.3396226 L81.2025316,45.6415094 L19.7974684,45.6415094 L19.7974684,35.3396226 Z" id="Shape" sketch:type="MSShapeGroup" transform="translate(50.500000, 50.000000) rotate(-30.000000) translate(-50.500000, -50.000000) "></path>
            <path d="M36.1216815,73 C38.950308,73 41.2433629,70.7069451 41.2433629,67.8783185 C41.2433629,65.049692 38.950308,62.7566371 36.1216815,62.7566371 C33.2930549,62.7566371 31,65.049692 31,67.8783185 C31,70.7069451 33.2930549,73 36.1216815,73 L36.1216815,73 Z M36.1216815,72.3171091 C33.6702051,72.3171091 31.6828909,70.3297949 31.6828909,67.8783185 C31.6828909,65.4268422 33.6702051,63.4395279 36.1216815,63.4395279 C38.5731578,63.4395279 40.5604721,65.4268422 40.5604721,67.8783185 C40.5604721,70.3297949 38.5731578,72.3171091 36.1216815,72.3171091 L36.1216815,72.3171091 Z" id="Shape" sketch:type="MSShapeGroup"></path>
            <path d="M41.2433629,70.4391593 C44.0719895,70.4391593 46.3650444,68.1461044 46.3650444,65.3174778 C46.3650444,62.4888512 44.0719895,60.1957963 41.2433629,60.1957963 C38.4147364,60.1957963 36.1216815,62.4888512 36.1216815,65.3174778 C36.1216815,68.1461044 38.4147364,70.4391593 41.2433629,70.4391593 L41.2433629,70.4391593 Z M41.2433629,69.7562684 C38.7918866,69.7562684 36.8045723,67.7689542 36.8045723,65.3174778 C36.8045723,62.8660014 38.7918866,60.8786872 41.2433629,60.8786872 C43.6948393,60.8786872 45.6821536,62.8660014 45.6821536,65.3174778 C45.6821536,67.7689542 43.6948393,69.7562684 41.2433629,69.7562684 L41.2433629,69.7562684 Z" id="Shape" sketch:type="MSShapeGroup"></path>
        </g>
    </g>
</svg>