<?xml version="1.0" encoding="UTF-8" standalone="no"?>
<svg width="100px" height="100px" viewBox="0 0 100 100" version="1.1" xmlns="http://www.w3.org/2000/svg" xmlns:xlink="http://www.w3.org/1999/xlink" xmlns:sketch="http://www.bohemiancoding.com/sketch/ns">
    <!-- Generator: Sketch 3.3.1 (12005) - http://www.bohemiancoding.com/sketch -->
    <title>08-05-2015 - weight</title>
    <desc>Created with Sketch.</desc>
    <defs></defs>
    <g id="January" stroke="none" stroke-width="1" fill="none" fill-rule="evenodd" sketch:type="MSPage">
        <g id="08-05-2015---weight" sketch:type="MSArtboardGroup" fill="#000000">
            <path d="M46.7208385,36.7014925 L27.7640646,36.7014925 C26.8752037,36.7014925 26.0259639,37.4032329 25.8552944,38.2688736 L18.5281021,75.4326189 C18.3569823,76.3005439 18.9367619,77 19.8220702,77 L80.1780152,77 C81.0671774,77 81.6426527,76.2982596 81.4719833,75.4326189 L74.1447909,38.2688736 C73.9736711,37.4009486 73.119536,36.7014925 72.2360208,36.7014925 L53.2791615,36.7014925 C55.5787979,35.4955783 57.150717,33.06087 57.150717,30.2537313 C57.150717,26.2476061 53.9492319,23 50,23 C46.0507681,23 42.849283,26.2476061 42.849283,30.2537313 C42.849283,33.06087 44.4212021,35.4955783 46.7208385,36.7014925 Z M50,35.8955224 C46.9283752,35.8955224 44.4383313,33.3696065 44.4383313,30.2537313 C44.4383313,27.1378562 46.9283752,24.6119403 50,24.6119403 C53.0716248,24.6119403 55.5616687,27.1378562 55.5616687,30.2537313 C55.5616687,33.3696065 53.0716248,35.8955224 50,35.8955224 L50,35.8955224 Z" id="Rectangle-22" sketch:type="MSShapeGroup"></path>
        </g>
    </g>
</svg>