<?xml version="1.0" encoding="UTF-8" standalone="no"?>
<svg width="100px" height="100px" viewBox="0 0 100 100" version="1.1" xmlns="http://www.w3.org/2000/svg" xmlns:xlink="http://www.w3.org/1999/xlink" xmlns:sketch="http://www.bohemiancoding.com/sketch/ns">
    <!-- Generator: Sketch 3.3.1 (12005) - http://www.bohemiancoding.com/sketch -->
    <title>09-05-2015 - wizard hat</title>
    <desc>Created with Sketch.</desc>
    <defs></defs>
    <g id="January" stroke="none" stroke-width="1" fill="none" fill-rule="evenodd" sketch:type="MSPage">
        <g id="09-05-2015---wizard-hat" sketch:type="MSArtboardGroup" fill="#000000">
            <path d="M49.0769231,16.7264957 L24.0769231,76.7264957 L23.723589,77.5744976 L24.5386473,77.9983279 C24.6360159,78.0489596 24.8168177,78.1389758 25.0774692,78.2627286 C25.5055754,78.465986 26.0063106,78.6916506 26.5760977,78.9340692 C28.1972186,79.6237824 30.0512183,80.3124109 32.1095673,80.9546158 C46.2284096,85.3596946 61.3048784,85.3596946 75.4613527,77.9983279 L76.276411,77.5744976 L75.9230769,76.7264957 L50.9230769,16.7264957 L50,14.5111111 L49.0769231,16.7264957 L49.0769231,16.7264957 Z M50.9230769,17.4957265 L49.0769231,17.4957265 L74.0769231,77.4957265 L74.5386473,76.2238943 C60.9173438,83.3069721 46.364183,83.3069721 32.7052475,79.0453842 C30.7126706,78.4237002 28.920837,77.758162 27.3590875,77.0937086 C26.81487,76.8621688 26.3390426,76.6477293 25.9352623,76.4560214 C25.6967818,76.342795 25.5375952,76.2635404 25.4613527,76.2238943 L25.9230769,77.4957265 L50.9230769,17.4957265 L50.9230769,17.4957265 Z" id="Shape" sketch:type="MSShapeGroup"></path>
            <polygon id="Star-1" sketch:type="MSShapeGroup" points="43.5 63.75 39.6793959 65.7586105 40.4090663 61.5043052 37.3181326 58.4913895 41.5896979 57.8706948 43.5 54 45.4103021 57.8706948 49.6818674 58.4913895 46.5909337 61.5043052 47.3206041 65.7586105 "></polygon>
            <polygon id="Star-1-Copy-2" sketch:type="MSShapeGroup" points="53 48.5 50.0610737 50.045085 50.6223587 46.7725425 48.2447174 44.454915 51.5305369 43.9774575 53 41 54.4694631 43.9774575 57.7552826 44.454915 55.3776413 46.7725425 55.9389263 50.045085 "></polygon>
            <polygon id="Star-1-Copy" sketch:type="MSShapeGroup" points="58 74.5 55.0610737 76.045085 55.6223587 72.7725425 53.2447174 70.454915 56.5305369 69.9774575 58 67 59.4694631 69.9774575 62.7552826 70.454915 60.3776413 72.7725425 60.9389263 76.045085 "></polygon>
        </g>
    </g>
</svg>