<?xml version="1.0" encoding="UTF-8" standalone="no"?>
<svg width="100px" height="100px" viewBox="0 0 100 100" version="1.1" xmlns="http://www.w3.org/2000/svg" xmlns:xlink="http://www.w3.org/1999/xlink" xmlns:sketch="http://www.bohemiancoding.com/sketch/ns">
    <!-- Generator: Sketch 3.3.1 (12005) - http://www.bohemiancoding.com/sketch -->
    <title>10-05-2015 - gavel</title>
    <desc>Created with Sketch.</desc>
    <defs></defs>
    <g id="January" stroke="none" stroke-width="1" fill="none" fill-rule="evenodd" sketch:type="MSPage">
        <g id="10-05-2015---gavel" sketch:type="MSArtboardGroup" fill="#000000">
            <path d="M39.574606,32.9273223 L65.5553681,17.9273223 L74.5553681,33.5157796 L48.574606,48.5157796 L39.574606,32.9273223 Z M34.0131216,37.2945488 C33.1843115,35.8590076 33.6785462,34.0220129 35.1105044,33.1952715 C36.5453822,32.3668444 38.3801212,32.858414 39.2092741,34.2945488 L47.2078871,48.148553 C48.0366972,49.5840943 47.5424626,51.4210889 46.1105044,52.2478304 C44.6756265,53.0762575 42.8408875,52.5846879 42.0117347,51.148553 L34.0131216,37.2945488 Z M66.922087,18.2945488 C66.0932769,16.8590076 66.5875115,15.0220129 68.0194697,14.1952715 C69.4543476,13.3668444 71.2890866,13.858414 72.1182394,15.2945488 L80.1168525,29.148553 C80.9456626,30.5840943 80.4514279,32.4210889 79.0194697,33.2478304 C77.5845919,34.0762575 75.7498529,33.5846879 74.9207,32.148553 L66.922087,18.2945488 Z M60.5636711,42.7485902 L63.1617473,41.2485902 L86.203598,77.4316082 C87.1370697,78.8974551 86.6723531,80.7909603 85.1616635,81.6631574 L84.9967675,81.7583601 C83.4878513,82.6295333 81.6033172,82.0989041 80.7815789,80.5620124 L60.5636711,42.7485902 Z M13.314987,84.2071225 C13.314987,83.102553 14.2128275,82.2071225 15.3066041,82.2071225 L41.32337,82.2071225 C42.4233097,82.2071225 43.314987,83.0948522 43.314987,84.2071225 C43.314987,85.311692 42.4171466,86.2071225 41.32337,86.2071225 L15.3066041,86.2071225 C14.2066644,86.2071225 13.314987,85.3193929 13.314987,84.2071225 Z M16.314987,79.2071225 C16.314987,78.102553 17.2120133,77.2071225 18.3199336,77.2071225 L38.3100405,77.2071225 C39.4173419,77.2071225 40.314987,78.0948522 40.314987,79.2071225 C40.314987,80.311692 39.4179608,81.2071225 38.3100405,81.2071225 L18.3199336,81.2071225 C17.2126322,81.2071225 16.314987,80.3193929 16.314987,79.2071225 Z" id="gavel" sketch:type="MSShapeGroup"></path>
        </g>
    </g>
</svg>