<?xml version="1.0" encoding="UTF-8" standalone="no"?>
<svg width="100px" height="100px" viewBox="0 0 100 100" version="1.1" xmlns="http://www.w3.org/2000/svg" xmlns:xlink="http://www.w3.org/1999/xlink" xmlns:sketch="http://www.bohemiancoding.com/sketch/ns">
    <!-- Generator: Sketch 3.3.2 (12043) - http://www.bohemiancoding.com/sketch -->
    <title>11-05-2015 - PIG</title>
    <desc>Created with Sketch.</desc>
    <defs></defs>
    <g id="January" stroke="none" stroke-width="1" fill="none" fill-rule="evenodd" sketch:type="MSPage">
        <g id="11-05-2015---PIG" sketch:type="MSArtboardGroup" fill="#000000">
            <path d="M50,87 C69.3299662,87 85,71.2636381 85,51.8518519 C85,32.4400656 69.3299662,16.7037037 50,16.7037037 C30.6700338,16.7037037 15,32.4400656 15,51.8518519 C15,71.2636381 30.6700338,87 50,87 L50,87 Z M50,85.1975309 C31.6613141,85.1975309 16.7948718,70.2681618 16.7948718,51.8518519 C16.7948718,33.4355419 31.6613141,18.5061728 50,18.5061728 C68.3386859,18.5061728 83.2051282,33.4355419 83.2051282,51.8518519 C83.2051282,70.2681618 68.3386859,85.1975309 50,85.1975309 L50,85.1975309 Z" id="Shape" sketch:type="MSShapeGroup"></path>
            <path d="M50,67.1728395 C56.9236304,67.1728395 62.5641026,61.9442113 62.5641026,55.4567901 C62.5641026,48.9693689 56.9236304,43.7407407 50,43.7407407 C43.0763696,43.7407407 37.4358974,48.9693689 37.4358974,55.4567901 C37.4358974,61.9442113 43.0763696,67.1728395 50,67.1728395 L50,67.1728395 Z M50,65.3703704 C44.0369862,65.3703704 39.2307692,60.9150835 39.2307692,55.4567901 C39.2307692,49.9984967 44.0369862,45.5432099 50,45.5432099 C55.9630138,45.5432099 60.7692308,49.9984967 60.7692308,55.4567901 C60.7692308,60.9150835 55.9630138,65.3703704 50,65.3703704 L50,65.3703704 Z" id="Shape" sketch:type="MSShapeGroup"></path>
            <ellipse id="Oval-10" sketch:type="MSShapeGroup" cx="44.6153846" cy="37.4320988" rx="1.79487179" ry="1.80246914"></ellipse>
            <rect id="Rectangle-29" sketch:type="MSShapeGroup" x="45.5128205" y="51.8518519" width="1.79487179" height="7.20987654" rx="7.2"></rect>
            <rect id="Rectangle-29-Copy" sketch:type="MSShapeGroup" x="52.6923077" y="51.8518519" width="1.79487179" height="7.20987654" rx="7.2"></rect>
            <ellipse id="Oval-10-Copy" sketch:type="MSShapeGroup" cx="55.3846154" cy="37.4320988" rx="1.79487179" ry="1.80246914"></ellipse>
            <path d="M24.8717951,29.3209876 C24.8717951,23.1873799 23.2136049,17.6049383 19.0384615,17.6049383 C18.8813317,17.6049383 18.7886097,17.5895897 18.7708486,17.5815334 C18.8745351,17.6285653 18.9903393,17.7584115 19.027894,17.9414943 C19.053617,18.0668964 19.0370998,18.1368144 19.026878,18.1550561 C19.0638287,18.0891141 19.1457845,17.989608 19.2684971,17.8734178 C19.9620661,17.2167133 21.3496641,16.5297408 22.8860918,16.1736798 C27.1875118,15.1768429 31.2438717,16.7394756 33.9590895,21.647555 L34.3422441,20.403788 C30.6814795,22.2419179 27.1654036,24.841898 23.3397762,28.6837185 L24.8717951,29.3209876 L24.8717951,29.3209876 Z M23.0769233,29.3209876 L23.0769233,31.4967603 L24.6089422,29.9582566 C28.3022267,26.2493392 31.6625631,23.7645215 35.1449351,22.0159655 L35.9832842,21.5950167 L35.5280897,20.7721986 C32.404521,15.1259762 27.5291381,13.247831 22.4824978,14.4173698 C20.6530694,14.8413325 18.9791767,15.6700439 18.037192,16.5619603 C16.7230519,17.8062513 17.0514879,19.4074074 19.0384615,19.4074074 C21.6400182,19.4074074 23.0769233,24.2448735 23.0769233,29.3209876 L23.0769233,29.3209876 Z" id="Shape" sketch:type="MSShapeGroup"></path>
            <path d="M71.5384617,29.3209876 C71.5384617,23.1873799 69.8802715,17.6049383 65.7051282,17.6049383 C65.5479984,17.6049383 65.4552763,17.5895897 65.4375153,17.5815334 C65.5412017,17.6285653 65.657006,17.7584115 65.6945607,17.9414943 C65.7202837,18.0668964 65.7037665,18.1368144 65.6935447,18.1550561 C65.7304954,18.0891141 65.8124512,17.989608 65.9351638,17.8734178 C66.6287328,17.2167133 68.0163307,16.5297408 69.5527585,16.1736798 C73.8541785,15.1768429 77.9105384,16.7394756 80.6257562,21.647555 L81.0089108,20.403788 C77.3481461,22.2419179 73.8320702,24.841898 70.0064428,28.6837185 L71.5384617,29.3209876 L71.5384617,29.3209876 Z M69.7435899,29.3209876 L69.7435899,31.4967603 L71.2756088,29.9582566 C74.9688934,26.2493392 78.3292297,23.7645215 81.8116018,22.0159655 L82.6499509,21.5950167 L82.1947564,20.7721986 C79.0711877,15.1259762 74.1958047,13.247831 69.1491645,14.4173698 C67.3197361,14.8413325 65.6458434,15.6700439 64.7038586,16.5619603 C63.3897186,17.8062513 63.7181546,19.4074074 65.7051282,19.4074074 C68.3066848,19.4074074 69.7435899,24.2448735 69.7435899,29.3209876 L69.7435899,29.3209876 Z" id="Shape-Copy" sketch:type="MSShapeGroup" transform="translate(73.283148, 22.791224) scale(-1, 1) translate(-73.283148, -22.791224) "></path>
        </g>
    </g>
</svg>