<?xml version="1.0" encoding="UTF-8" standalone="no"?>
<svg width="100px" height="100px" viewBox="0 0 100 100" version="1.1" xmlns="http://www.w3.org/2000/svg" xmlns:xlink="http://www.w3.org/1999/xlink" xmlns:sketch="http://www.bohemiancoding.com/sketch/ns">
    <!-- Generator: Sketch 3.3.2 (12043) - http://www.bohemiancoding.com/sketch -->
    <title>12-05-2015 - spear</title>
    <desc>Created with Sketch.</desc>
    <defs></defs>
    <g id="January" stroke="none" stroke-width="1" fill="none" fill-rule="evenodd" sketch:type="MSPage">
        <g id="12-05-2015---spear" sketch:type="MSArtboardGroup" fill="#000000">
            <path d="M48,29 L52,29 L52,89.0073698 C52,90.1078691 51.1122704,91 50,91 C48.8954305,91 48,90.099649 48,89.0073698 L48,29 Z M46,29 L47,26 L44,19 L50,9 L56,19 L53,26 L54,29 L46,29 Z M47,28 L48,26 L45,19 L50,10 L55,19 L52,26 L53,28 L47,28 Z M46,19 L49,26 L47,19 L50,11.5 L46,19 Z" id="spear" sketch:type="MSShapeGroup" transform="translate(50.000000, 50.000000) rotate(45.000000) translate(-50.000000, -50.000000) "></path>
        </g>
    </g>
</svg>