<?xml version="1.0" encoding="UTF-8" standalone="no"?>
<svg width="100px" height="100px" viewBox="0 0 100 100" version="1.1" xmlns="http://www.w3.org/2000/svg" xmlns:xlink="http://www.w3.org/1999/xlink" xmlns:sketch="http://www.bohemiancoding.com/sketch/ns">
    <!-- Generator: Sketch 3.3.2 (12043) - http://www.bohemiancoding.com/sketch -->
    <title>14-05-2015 - notebook</title>
    <desc>Created with Sketch.</desc>
    <defs></defs>
    <g id="January" stroke="none" stroke-width="1" fill="none" fill-rule="evenodd" sketch:type="MSPage">
        <g id="14-05-2015---notebook" sketch:type="MSArtboardGroup" fill="#000000">
            <path d="M23.2,23.4033548 C23.2,19.8668796 26.0574784,17 29.5952004,17 L69.6047996,17 C73.1367713,17 76,19.8571216 76,23.4033548 L76,76.5966452 C76,80.1331204 73.1425216,83 69.6047996,83 L29.5952004,83 C26.0632287,83 23.2,80.1428784 23.2,76.5966452 L23.2,23.4033548 Z M24.8,23.3894474 C24.8,20.7389854 26.9471702,18.5903614 29.600924,18.5903614 L69.599076,18.5903614 C72.2505531,18.5903614 74.4,20.7345702 74.4,23.3894474 L74.4,76.6105526 C74.4,79.2610146 72.2528298,81.4096386 69.599076,81.4096386 L29.600924,81.4096386 C26.9494469,81.4096386 24.8,79.2654298 24.8,76.6105526 L24.8,23.3894474 Z" id="Rectangle-32" sketch:type="MSShapeGroup"></path>
            <rect id="Rectangle-34" sketch:type="MSShapeGroup" x="20" y="28.1325301" width="8" height="3.97590361" rx="3.2"></rect>
            <rect id="Rectangle-34-Copy" sketch:type="MSShapeGroup" x="20" y="36.0843373" width="8" height="3.97590361" rx="3.2"></rect>
            <rect id="Rectangle-34-Copy-2" sketch:type="MSShapeGroup" x="20" y="44.0361446" width="8" height="3.97590361" rx="3.2"></rect>
            <rect id="Rectangle-34-Copy-3" sketch:type="MSShapeGroup" x="20" y="51.9879518" width="8" height="3.97590361" rx="3.2"></rect>
            <rect id="Rectangle-34-Copy-4" sketch:type="MSShapeGroup" x="20" y="59.939759" width="8" height="3.97590361" rx="3.2"></rect>
            <rect id="Rectangle-34-Copy-5" sketch:type="MSShapeGroup" x="20" y="67.8915663" width="8" height="3.97590361" rx="3.2"></rect>
            <rect id="Rectangle-34-Copy-6" sketch:type="MSShapeGroup" x="20" y="67.8915663" width="8" height="3.97590361" rx="3.2"></rect>
            <path d="M35,27.8059872 C35,27.3608528 35.3578134,27 35.8024275,27 L64.1975725,27 C64.640741,27 65,27.3591362 65,27.8059872 L65,38.1940128 C65,38.6391472 64.6421866,39 64.1975725,39 L35.8024275,39 C35.359259,39 35,38.6408638 35,38.1940128 L35,27.8059872 Z M36,28.2992801 C36,28.1339923 36.124836,28 36.2955078,28 L63.7044922,28 C63.8676966,28 64,28.1413631 64,28.2992801 L64,37.7007199 C64,37.8660077 63.875164,38 63.7044922,38 L36.2955078,38 C36.1323034,38 36,37.8586369 36,37.7007199 L36,28.2992801 Z" id="Rectangle-41" sketch:type="MSShapeGroup"></path>
        </g>
    </g>
</svg>