<?xml version="1.0" encoding="UTF-8" standalone="no"?>
<svg width="100px" height="100px" viewBox="0 0 100 100" version="1.1" xmlns="http://www.w3.org/2000/svg" xmlns:xlink="http://www.w3.org/1999/xlink" xmlns:sketch="http://www.bohemiancoding.com/sketch/ns">
    <!-- Generator: Sketch 3.3.2 (12043) - http://www.bohemiancoding.com/sketch -->
    <title>15-05-2015 - paperclip</title>
    <desc>Created with Sketch.</desc>
    <defs></defs>
    <g id="January" stroke="none" stroke-width="1" fill="none" fill-rule="evenodd" sketch:type="MSPage">
        <g id="15-05-2015---paperclip" sketch:type="MSArtboardGroup" fill="#000000">
            <path d="M41,65.5000001 L41,33.5 C41,27.6516253 44.9124557,24 50,24 C55.0875443,24 59,27.6516253 59,33.4999999 L59,69.5 C59,78.1666667 46.5,78.1666667 46.5,69.5 L46.5,38.5 C46.2995753,34.8645985 47.9295782,32.75 50.0625,32.75 C52.2214015,32.75 54,34.9022536 54,38.5 L54,59.5 L54,60.5 L56,60.5 L56,59.5 L56,38.5 C56,33.8729565 53.4192235,30.75 50.0625,30.75 C46.6797968,30.75 44.243492,33.9106116 44.5015396,38.55547 L44.5,69.5 C44.5,80.8333333 61,80.8333333 61,69.5 L61,33.4999999 C61,26.5150413 56.1624557,22 50,22 C43.8375443,22 39,26.5150414 39,33.5 L39,65.5000001 L39,66.5000001 L41,66.5000001 L41,65.5000001 L41,65.5000001 Z" id="Shape" sketch:type="MSShapeGroup"></path>
        </g>
    </g>
</svg>