<?xml version="1.0" encoding="UTF-8" standalone="no"?>
<svg width="100px" height="100px" viewBox="0 0 100 100" version="1.1" xmlns="http://www.w3.org/2000/svg" xmlns:xlink="http://www.w3.org/1999/xlink" xmlns:sketch="http://www.bohemiancoding.com/sketch/ns">
    <!-- Generator: Sketch 3.3.2 (12043) - http://www.bohemiancoding.com/sketch -->
    <title>16-05-2015 - text</title>
    <desc>Created with Sketch.</desc>
    <defs></defs>
    <g id="January" stroke="none" stroke-width="1" fill="none" fill-rule="evenodd" sketch:type="MSPage">
        <g id="16-05-2015---text" sketch:type="MSArtboardGroup" fill="#000000">
            <path d="M34.6136364,65.4883721 C34.6136364,65.4883721 38.8181818,65.4883721 38.8181818,61.3023256 L38.8181818,38.6976744 C38.8181818,34.5116279 34.6136364,34.5116279 34.6136364,34.5116279 L27.8863636,34.5116279 C27.8863636,34.5116279 23.6818182,34.5116279 23.6818182,37.8604651 L22,37.8604651 L22,32 L59,32 L59,37.8604651 L57.3181818,37.8604651 C57.3181818,34.5116279 53.1136364,34.5116279 53.1136364,34.5116279 L46.3863636,34.5116279 C46.3863636,34.5116279 42.1818182,34.5116279 42.1818182,38.6976744 L42.1818182,61.3023256 C42.1818182,65.4883721 46.3863636,65.4883721 46.3863636,65.4883721 L46.3863636,68 L34.6136364,68 L34.6136364,65.4883721 Z M64,75 C70.5,75 70.5,70 70.5,70 L70.5,30 C70.5,30 71.5,25 64,25 C64,24.971267 64,23 64,23 L79,23 L79,25 C72.5,25 72.5,30 72.5,30 L72.5,70 C72.5,70 72.5,75 79,75 L79,77 L64,77 L64,75 Z" id="text" sketch:type="MSShapeGroup"></path>
        </g>
    </g>
</svg>