<?xml version="1.0" encoding="UTF-8" standalone="no"?>
<svg width="100px" height="100px" viewBox="0 0 100 100" version="1.1" xmlns="http://www.w3.org/2000/svg" xmlns:xlink="http://www.w3.org/1999/xlink" xmlns:sketch="http://www.bohemiancoding.com/sketch/ns">
    <!-- Generator: Sketch 3.3.2 (12043) - http://www.bohemiancoding.com/sketch -->
    <title>17-05-2015 - quote</title>
    <desc>Created with Sketch.</desc>
    <defs></defs>
    <g id="January" stroke="none" stroke-width="1" fill="none" fill-rule="evenodd" sketch:type="MSPage">
        <g id="17-05-2015---quote" sketch:type="MSArtboardGroup" fill="#000000">
            <path d="M35.8709677,54.1530612 C35.8709677,54.1530612 47,54.1530613 47,42.8265306 C47,31.5 35.8709677,31.5 35.8709677,31.5 C35.8709677,31.5 24,31.5 24,42.8265306 C24,54.1530612 34.3870968,68.5 36.6129032,68.5 C38.8387097,68.5 24.7419355,54.1530612 35.8709677,54.1530612 Z M64.3709677,53.6530612 C64.3709677,53.6530612 75.5,53.6530613 75.5,42.3265306 C75.5,31 64.3709677,31 64.3709677,31 C64.3709677,31 52.5,31 52.5,42.3265306 C52.5,53.6530612 62.8870968,68 65.1129032,68 C67.3387097,68 53.2419355,53.6530612 64.3709677,53.6530612 Z" id="quote" sketch:type="MSShapeGroup"></path>
        </g>
    </g>
</svg>