<?xml version="1.0" encoding="UTF-8" standalone="no"?>
<svg width="100px" height="100px" viewBox="0 0 100 100" version="1.1" xmlns="http://www.w3.org/2000/svg" xmlns:xlink="http://www.w3.org/1999/xlink" xmlns:sketch="http://www.bohemiancoding.com/sketch/ns">
    <!-- Generator: Sketch 3.3.2 (12043) - http://www.bohemiancoding.com/sketch -->
    <title>19-05-2015 - birthday</title>
    <desc>Created with Sketch.</desc>
    <defs></defs>
    <g id="January" stroke="none" stroke-width="1" fill="none" fill-rule="evenodd" sketch:type="MSPage">
        <g id="19-05-2015---birthday" sketch:type="MSArtboardGroup" fill="#000000">
            <path d="M48,35.503281 C37.6848519,38.3179048 28,42.5 28,42.5 L28,68 L73,88 L73,63 L63,33 C60.2963268,33 57.2033718,33.4109086 54,34.0618086 L54,43.0073661 C54,44.6601521 52.6534829,46 51,46 C49.3431458,46 48,44.6610658 48,43.0073661 L48,35.503281 L48,35.503281 Z M72,86 L29,67 L29,57 L72,76 L72,86 Z M72,75 L29,56 L29,46 L72,65 L72,75 Z M49,22.0035949 C49,20.89704 49.8877296,20 51,20 C52.1045695,20 53,20.8897632 53,22.0035949 L53,42.9964051 C53,44.10296 52.1122704,45 51,45 C49.8954305,45 49,44.1102368 49,42.9964051 L49,22.0035949 Z M51,18.5 C51,18.5 48.5,17.5 51,12 C54.0000001,17.5000002 51,18.5 51,18.5 Z" id="birthday" sketch:type="MSShapeGroup"></path>
        </g>
    </g>
</svg>