<?xml version="1.0" encoding="UTF-8" standalone="no"?>
<svg width="100px" height="100px" viewBox="0 0 100 100" version="1.1" xmlns="http://www.w3.org/2000/svg" xmlns:xlink="http://www.w3.org/1999/xlink" xmlns:sketch="http://www.bohemiancoding.com/sketch/ns">
    <!-- Generator: Sketch 3.3.2 (12043) - http://www.bohemiancoding.com/sketch -->
    <title>20-05-2015 - command</title>
    <desc>Created with Sketch.</desc>
    <defs></defs>
    <g id="January" stroke="none" stroke-width="1" fill="none" fill-rule="evenodd" sketch:type="MSPage">
        <g id="20-05-2015---command" sketch:type="MSArtboardGroup" fill="#000000">
            <path d="M38,43 L33,43 C27.4771525,43 23,38.5228475 23,33 C23,27.4771525 27.4771525,23 33,23 C38.5228475,23 43,27.4771525 43,33 L43,38 L58,38 L58,33 C58,27.4771525 62.4771525,23 68,23 C73.5228475,23 78,27.4771525 78,33 C78,38.5228475 73.5228475,43 68,43 L63,43 L63,57.9909853 L68,57.9909853 C73.5228475,57.9909853 78,62.4681378 78,67.9909853 C78,73.5138328 73.5228475,77.9909853 68,77.9909853 C62.4771525,77.9909853 58,73.5138328 58,67.9909853 L58,63 L43,63 L43,68 C43,73.5228475 38.5228475,78 33,78 C27.4771525,78 23,73.5228475 23,68 C23,62.4771525 27.4771525,58 33,58 L38,58 L38,43 L38,43 Z M43,43 L58,43 L58,58 L43,58 L43,43 Z M33,38 L38,38 L38,33 C38,30.2385763 35.7614237,28 33,28 C30.2385763,28 28,30.2385763 28,33 C28,35.7614237 30.2385763,38 33,38 Z M68,38 L63,38 L63,33 C63,30.2385763 65.2385763,28 68,28 C70.7614237,28 73,30.2385763 73,33 C73,35.7614237 70.7614237,38 68,38 Z M68,63 L63,63 L63,68 C63,70.7614237 65.2385763,73 68,73 C70.7614237,73 73,70.7614237 73,68 C73,65.2385763 70.7614237,63 68,63 Z M33,63 L38,63 L38,68 C38,70.7614237 35.7614237,73 33,73 C30.2385763,73 28,70.7614237 28,68 C28,65.2385763 30.2385763,63 33,63 Z" id="Oval-12" sketch:type="MSShapeGroup"></path>
        </g>
    </g>
</svg>