<?xml version="1.0" encoding="UTF-8" standalone="no"?>
<svg width="100px" height="100px" viewBox="0 0 100 100" version="1.1" xmlns="http://www.w3.org/2000/svg" xmlns:xlink="http://www.w3.org/1999/xlink" xmlns:sketch="http://www.bohemiancoding.com/sketch/ns">
    <!-- Generator: Sketch 3.3.2 (12043) - http://www.bohemiancoding.com/sketch -->
    <title>21-05-2015 - speaker</title>
    <desc>Created with Sketch.</desc>
    <defs></defs>
    <g id="January" stroke="none" stroke-width="1" fill="none" fill-rule="evenodd" sketch:type="MSPage">
        <g id="21-05-2015---speaker" sketch:type="MSArtboardGroup" fill="#000000">
            <path d="M90,39 L90,22 L90,18 L73,21 L73,24.5 L73,24.5 L73,37.9142997 C72.0490595,37.3431401 70.8296292,37 69.5,37 C66.4624339,37 64,38.790861 64,41 C64,43.209139 66.4624339,45 69.5,45 C72.5375661,45 75,43.209139 75,41 L75,24.6470588 L88,22.3529412 L88,22.3529412 L88,35.9142997 C87.0490595,35.3431401 85.8296292,35 84.5,35 C81.4624339,35 79,36.790861 79,39 C79,41.209139 81.4624339,43 84.5,43 C87.5375661,43 90,41.209139 90,39 Z M11,44.2910477 C11,42.3077668 12.6160572,40.7 14.603138,40.7 L27.2352941,40.7 L27.2352941,62.3 L14.603138,62.3 C12.6131798,62.3 11,60.694136 11,58.7089523 L11,44.2910477 Z M29.0392157,40.7 L57,20 L57,83 L29.0392157,62.3 L29.0392157,40.7 Z" id="Rectangle-52" sketch:type="MSShapeGroup"></path>
        </g>
    </g>
</svg>