<?xml version="1.0" encoding="UTF-8" standalone="no"?>
<svg width="100px" height="100px" viewBox="0 0 100 100" version="1.1" xmlns="http://www.w3.org/2000/svg" xmlns:xlink="http://www.w3.org/1999/xlink" xmlns:sketch="http://www.bohemiancoding.com/sketch/ns">
    <!-- Generator: Sketch 3.3.2 (12043) - http://www.bohemiancoding.com/sketch -->
    <title>23-05-2015 - stopsign</title>
    <desc>Created with Sketch.</desc>
    <defs></defs>
    <g id="January" stroke="none" stroke-width="1" fill="none" fill-rule="evenodd" sketch:type="MSPage">
        <g id="23-05-2015---stopsign" sketch:type="MSArtboardGroup" fill="#000000">
            <path d="M51.6698833,67.2526079 L61.6572943,67.3397667 L79.1260387,50.1732795 L79.3397667,25.6824724 L62.1732795,8.21372804 L37.6824724,8 L20.213728,25.1664872 L20,49.6572943 L37.1664872,67.1260387 L47.6698833,67.2177004 L47.6698833,92.6698833 L51.6698833,92.6698833 L51.6698833,67.2526079 Z M38.4316855,9.85436771 L61.3918172,10.0547377 L77.485399,26.4316855 L77.2850289,49.3918172 L60.9080811,65.485399 L37.9479495,65.2850289 L21.8543677,48.9080811 L22.0547377,25.9479495 L38.4316855,9.85436771 Z M39.1808987,11.7087354 L60.6103549,11.8957474 L75.6310313,27.1808987 L75.4440192,48.6103549 L60.158868,63.6310313 L38.7294117,63.4440192 L23.7087354,48.158868 L23.8957474,26.7294117 L39.1808987,11.7087354 Z" id="stopsign" sketch:type="MSShapeGroup"></path>
        </g>
    </g>
</svg>