<?xml version="1.0" encoding="UTF-8" standalone="no"?>
<svg width="100px" height="100px" viewBox="0 0 100 100" version="1.1" xmlns="http://www.w3.org/2000/svg" xmlns:xlink="http://www.w3.org/1999/xlink" xmlns:sketch="http://www.bohemiancoding.com/sketch/ns">
    <!-- Generator: Sketch 3.3.2 (12043) - http://www.bohemiancoding.com/sketch -->
    <title>24-05-2015 - candle</title>
    <desc>Created with Sketch.</desc>
    <defs></defs>
    <g id="January" stroke="none" stroke-width="1" fill="none" fill-rule="evenodd" sketch:type="MSPage">
        <g id="24-05-2015---candle" sketch:type="MSArtboardGroup" fill="#000000">
            <path d="M50.8879484,37.5 L50.8879484,34.4602295 L50.8879484,34.4602295 C51.2420035,34.4880515 51.613534,34.5 52,34.5 C56.9999997,34.5 52.9999999,23.5 51.9999999,25.5 C51.4999999,21 50.5742725,20.7383504 50,20 C45.3470041,30.5749907 46.4197263,33.6349766 49.8879484,34.3266579 L49.8879484,37.5 L45.0058587,37.5 C43.8970601,37.5 43,38.3943077 43,39.4974922 L43,79.5 L57,79.5 L57,39.4974922 C57,38.3966603 56.1019465,37.5 54.9941413,37.5 L50.8879484,37.5 Z M50.3722119,34.0198289 C50.3722119,34.0198289 48.9813845,30.6933293 50.6308432,27.4484432 C52.6078886,30.3795336 50.3722119,34.0198289 50.3722119,34.0198289 Z" id="candle" sketch:type="MSShapeGroup"></path>
        </g>
    </g>
</svg>