<?xml version="1.0" encoding="UTF-8" standalone="no"?>
<svg width="100px" height="100px" viewBox="0 0 100 100" version="1.1" xmlns="http://www.w3.org/2000/svg" xmlns:xlink="http://www.w3.org/1999/xlink" xmlns:sketch="http://www.bohemiancoding.com/sketch/ns">
    <!-- Generator: Sketch 3.3.2 (12043) - http://www.bohemiancoding.com/sketch -->
    <title>24-05-2015 - spatula</title>
    <desc>Created with Sketch.</desc>
    <defs></defs>
    <g id="January" stroke="none" stroke-width="1" fill="none" fill-rule="evenodd" sketch:type="MSPage">
        <g id="24-05-2015---spatula" sketch:type="MSArtboardGroup" fill="#000000">
            <path d="M49.5711505,87 C41.6231677,87 47.5191323,47 47.5191323,47 C47.5191323,47 24.5191327,47 34.5191327,12 L64.5191326,12 C74.5191333,47 51.5191333,47 51.5191333,47 C51.5191333,47 57.5191333,87 49.5711505,87 Z M48.5191326,17.0030706 C48.5191326,16.44909 48.9629974,16 49.5191326,16 C50.0714174,16 50.5191326,16.4389178 50.5191326,17.0030706 L50.5191326,37.9969294 C50.5191326,38.55091 50.0752678,39 49.5191326,39 C48.9668479,39 48.5191326,38.5610822 48.5191326,37.9969294 L48.5191326,17.0030706 Z M40.5191326,16.9918031 C40.5191326,16.4440454 40.9629974,16 41.5191326,16 C42.0714174,16 42.5191326,16.4553056 42.5191326,16.9918031 L42.5191326,35.0081969 C42.5191326,35.5559546 42.0752678,36 41.5191326,36 C40.9668479,36 40.5191326,35.5446944 40.5191326,35.0081969 L40.5191326,16.9918031 Z M56.5191326,16.9918031 C56.5191326,16.4440454 56.9629974,16 57.5191326,16 C58.0714174,16 58.5191326,16.4553056 58.5191326,16.9918031 L58.5191326,35.0081969 C58.5191326,35.5559546 58.0752678,36 57.5191326,36 C56.9668479,36 56.5191326,35.5446944 56.5191326,35.0081969 L56.5191326,16.9918031 Z" id="spatula" sketch:type="MSShapeGroup" transform="translate(49.519133, 49.500000) rotate(-45.000000) translate(-49.519133, -49.500000) "></path>
        </g>
    </g>
</svg>