<?xml version="1.0" encoding="UTF-8" standalone="no"?>
<svg width="100px" height="100px" viewBox="0 0 100 100" version="1.1" xmlns="http://www.w3.org/2000/svg" xmlns:xlink="http://www.w3.org/1999/xlink" xmlns:sketch="http://www.bohemiancoding.com/sketch/ns">
    <!-- Generator: Sketch 3.3.2 (12043) - http://www.bohemiancoding.com/sketch -->
    <title>26-05-2015 - gauge</title>
    <desc>Created with Sketch.</desc>
    <defs></defs>
    <g id="January" stroke="none" stroke-width="1" fill="none" fill-rule="evenodd" sketch:type="MSPage">
        <g id="26-05-2015---gauge" sketch:type="MSArtboardGroup" fill="#000000">
            <path d="M50,85 C69.3299662,85 85,69.3299662 85,50 C85,30.6700338 69.3299662,15 50,15 C30.6700338,15 15,30.6700338 15,50 C15,69.3299662 30.6700338,85 50,85 Z M50,82 C67.673112,82 82,67.673112 82,50 C82,32.326888 67.673112,18 50,18 C32.326888,18 18,32.326888 18,50 C18,67.673112 32.326888,82 50,82 Z M50,77 C52.1802215,77 19,71.5 29,45 C37.5,25 63.5,31.5 64.5,46.5 C68.5,46.5 76,48 77.5,50 C77.5,35.0883118 64.9116882,23 50,23 C35.0883118,23 23,35.0883118 23,50 C23,64.9116882 35.0883118,77 50,77 Z M50,54 C52.209139,54 76,52.209139 76,50 C76,47.790861 52.209139,46 50,46 C47.790861,46 46,47.790861 46,50 C46,52.209139 47.790861,54 50,54 Z M50,52 C51.1045695,52 52,51.1045695 52,50 C52,48.8954305 51.1045695,48 50,48 C48.8954305,48 48,48.8954305 48,50 C48,51.1045695 48.8954305,52 50,52 Z" id="gauge" sketch:type="MSShapeGroup"></path>
        </g>
    </g>
</svg>