<?xml version="1.0" encoding="UTF-8" standalone="no"?>
<svg width="100px" height="100px" viewBox="0 0 100 100" version="1.1" xmlns="http://www.w3.org/2000/svg" xmlns:xlink="http://www.w3.org/1999/xlink" xmlns:sketch="http://www.bohemiancoding.com/sketch/ns">
    <!-- Generator: Sketch 3.3.2 (12043) - http://www.bohemiancoding.com/sketch -->
    <title>28-05-2015 - smartwatch</title>
    <desc>Created with Sketch.</desc>
    <defs></defs>
    <g id="January" stroke="none" stroke-width="1" fill="none" fill-rule="evenodd" sketch:type="MSPage">
        <g id="28-05-2015---smartwatch" sketch:type="MSArtboardGroup" fill="#000000">
            <path d="M69.7704171,38.233432 L69.7704171,34.7709005 C69.7704171,29.7969537 65.7382458,25.7692308 60.7643106,25.7692308 L34.0061065,25.7692308 C29.032237,25.7692308 25,29.7994156 25,34.7709005 L25,65.2290995 C25,70.2030463 29.0321712,74.2307692 34.0061065,74.2307692 L60.7643106,74.2307692 C65.7381801,74.2307692 69.7704171,70.2005844 69.7704171,65.2290995 L69.7704171,49.2030128 C70.2876505,49.6962115 70.9876006,50 71.7581525,50 L72.1168562,50 C73.7010469,50 75,48.7094792 75,47.1175411 L75,40.3183564 C75,38.7331548 73.7091726,37.4358974 72.1168562,37.4358974 L71.7581525,37.4358974 C70.9899821,37.4358974 70.2888784,37.7393321 69.7704171,38.233432 L69.7704171,38.233432 Z M26.7908167,34.7735327 C26.7908167,30.7918744 30.0228315,27.5641026 33.988908,27.5641026 L60.7815091,27.5641026 C64.7569051,27.5641026 67.9796004,30.7911714 67.9796004,34.7735327 L67.9796004,65.2264673 C67.9796004,69.2081256 64.7475856,72.4358974 60.7815091,72.4358974 L33.988908,72.4358974 C30.0135119,72.4358974 26.7908167,69.2088286 26.7908167,65.2264673 L26.7908167,34.7735327 Z M69.8958406,40.5264989 C69.8958406,39.3978537 70.8020633,38.482906 71.9375044,38.482906 C73.0650841,38.482906 73.9791681,39.3937416 73.9791681,40.5264989 L73.9791681,46.9093985 C73.9791681,48.0380437 73.0729454,48.9529915 71.9375044,48.9529915 C70.8099246,48.9529915 69.8958406,48.0421558 69.8958406,46.9093985 L69.8958406,40.5264989 Z M34.0277676,20.3057417 C34.5475294,17.3754615 37.3725026,15 40.3571965,15 L54.4132206,15 C57.3891059,15 60.2231048,17.3766853 60.7426495,20.3057417 L61.711742,25.7692308 L33.0586751,25.7692308 L34.0277676,20.3057417 Z M34.0277676,79.6942583 C34.5475294,82.6245385 37.3725026,85 40.3571965,85 L54.4132206,85 C57.3891059,85 60.2231048,82.6233147 60.7426495,79.6942583 L61.711742,74.2307692 L33.0586751,74.2307692 L34.0277676,79.6942583 Z M41.2484797,30.3878367 L29.6081712,42.0545034 L30.2413205,42.6890864 L41.881629,31.0224197 L41.2484797,30.3878367 Z M47.5163381,30.3878367 L29.0244756,48.921572 L29.6576249,49.556155 L48.1494874,31.0224197 L47.5163381,30.3878367 Z M56.6440931,70.0726819 L65.1622459,61.5352402 L64.5290965,60.9006572 L56.0109438,69.4380989 L56.6440931,70.0726819 Z" id="smartwatch" sketch:type="MSShapeGroup"></path>
        </g>
    </g>
</svg>