<?xml version="1.0" encoding="UTF-8" standalone="no"?>
<svg width="100px" height="100px" viewBox="0 0 100 100" version="1.1" xmlns="http://www.w3.org/2000/svg" xmlns:xlink="http://www.w3.org/1999/xlink" xmlns:sketch="http://www.bohemiancoding.com/sketch/ns">
    <!-- Generator: Sketch 3.3.2 (12043) - http://www.bohemiancoding.com/sketch -->
    <title>29-05-2015 - watermelon</title>
    <desc>Created with Sketch.</desc>
    <defs></defs>
    <g id="January" stroke="none" stroke-width="1" fill="none" fill-rule="evenodd" sketch:type="MSPage">
        <g id="29-05-2015---watermelon" sketch:type="MSArtboardGroup" fill="#000000">
            <path d="M50,66.5 C71.5391052,66.5 89,51.5015391 89,33 L11,33 C11,51.5015391 28.4608948,66.5 50,66.5 Z M50,63.5 C69.882251,63.5 86,49.8446849 86,33 L14,33 C14,49.8446849 30.117749,63.5 50,63.5 Z M50,60.5 C68.2253967,60.5 83,48.1878306 83,33 L17,33 C17,48.1878306 31.7746033,60.5 50,60.5 Z M49,48.9970301 C49,48.4463856 49.4438648,48 50,48 C50.5522847,48 51,48.4530363 51,48.9970301 L51,55.0029699 C51,55.5536144 50.5561352,56 50,56 C49.4477153,56 49,55.5469637 49,55.0029699 L49,48.9970301 Z M58.0332312,47.5201515 C57.8448997,47.0027149 58.1093233,46.431439 58.6319194,46.2412295 C59.1508973,46.052337 59.7265596,46.3249242 59.9126164,46.8361112 L61.9667688,52.4798485 C62.1551003,52.9972851 61.8906767,53.568561 61.3680806,53.7587705 C60.8491027,53.947663 60.2734404,53.6750758 60.0873836,53.1638888 L58.0332312,47.5201515 Z M66.3036837,44.3423792 C65.9497362,43.920561 66.0028253,43.293299 66.4288496,42.9358222 C66.8519242,42.5808204 67.4861001,42.6400806 67.8357726,43.056804 L71.6963163,47.6576208 C72.0502638,48.079439 71.9971747,48.706701 71.5711504,49.0641778 C71.1480758,49.4191796 70.5138999,49.3599194 70.1642274,48.943196 L66.3036837,44.3423792 Z M32.1642274,43.056804 C32.5181749,42.6349858 33.1451262,42.5783454 33.5711504,42.9358222 C33.9942251,43.290824 34.0459888,43.9256558 33.6963163,44.3423792 L29.8357726,48.943196 C29.4818251,49.3650142 28.8548738,49.4216546 28.4288496,49.0641778 C28.0057749,48.709176 27.9540112,48.0743442 28.3036837,47.6576208 L32.1642274,43.056804 Z M40.0873836,46.8361112 C40.2757151,46.3186746 40.8454845,46.0510201 41.3680806,46.2412295 C41.8870585,46.430122 42.1528257,47.0089645 41.9667688,47.5201515 L39.9126164,53.1638888 C39.7242849,53.6813254 39.1545155,53.9489799 38.6319194,53.7587705 C38.1129415,53.569878 37.8471743,52.9910355 38.0332312,52.4798485 L40.0873836,46.8361112 Z" id="watermelon" sketch:type="MSShapeGroup"></path>
        </g>
    </g>
</svg>