<?xml version="1.0" encoding="UTF-8" standalone="no"?>
<svg width="100px" height="100px" viewBox="0 0 100 100" version="1.1" xmlns="http://www.w3.org/2000/svg" xmlns:xlink="http://www.w3.org/1999/xlink" xmlns:sketch="http://www.bohemiancoding.com/sketch/ns">
    <!-- Generator: Sketch 3.3.2 (12043) - http://www.bohemiancoding.com/sketch -->
    <title>30-05-2015 - sunglasses</title>
    <desc>Created with Sketch.</desc>
    <defs></defs>
    <g id="January" stroke="none" stroke-width="1" fill="none" fill-rule="evenodd" sketch:type="MSPage">
        <g id="30-05-2015---sunglasses" sketch:type="MSArtboardGroup" fill="#000000">
            <path d="M46.3847601,40.0465515 C44.4952853,36.9508893 40.3955413,35 31.5,35 C21.5725985,35 17.6181243,37.4297358 16.0429018,41.1687704 L16.0429018,41.1687704 C15.8745491,41.059787 15.6914638,41 15.5,41 C14.6715729,41 14,42.1192881 14,43.5 C14,44.639456 14.4573853,45.6008653 15.0828524,45.9020556 C15,47.2021138 15,48.5739736 15,49.9918033 C15,58.2715476 20,64.5 27.5,64.5 C35,64.5 48,58.2715476 48,49.9918033 C48,47.7946292 48,45.7078514 47.6916624,43.8276032 C49.3455392,43.2540469 50.3808053,43.2621483 52.3115085,43.8083403 C52,45.6935947 52,47.7871231 52,49.9918033 C52,58.2715476 65,64.5 72.5,64.5 C80,64.5 85,58.2715476 85,49.9918033 C85,48.5739736 85,47.2021138 84.9171476,45.9020556 C85.5426147,45.6008653 86,44.639456 86,43.5 C86,42.1192881 85.3284271,41 84.5,41 C84.3085362,41 84.1254509,41.059787 83.9570982,41.1687704 L83.9570982,41.1687704 C82.3818757,37.4297358 78.4274015,35 68.5,35 C59.5676528,35 55.4708708,36.9670666 53.5918997,40.0850358 C50.8231695,39.6515407 49.2847823,39.6387126 46.3847601,40.0465515 Z" id="sunglasses" sketch:type="MSShapeGroup"></path>
        </g>
    </g>
</svg>