<?xml version="1.0" encoding="UTF-8" standalone="no"?>
<svg width="100px" height="100px" viewBox="0 0 100 100" version="1.1" xmlns="http://www.w3.org/2000/svg" xmlns:xlink="http://www.w3.org/1999/xlink" xmlns:sketch="http://www.bohemiancoding.com/sketch/ns">
    <!-- Generator: Sketch 3.3.2 (12043) - http://www.bohemiancoding.com/sketch -->
    <title>31-05-2015 - planet</title>
    <desc>Created with Sketch.</desc>
    <defs></defs>
    <g id="January" stroke="none" stroke-width="1" fill="none" fill-rule="evenodd" sketch:type="MSPage">
        <g id="31-05-2015---planet" sketch:type="MSArtboardGroup" fill="#000000">
            <path d="M50,80 C66.5685425,80 80,66.5685425 80,50 C80,33.4314575 66.5685425,20 50,20 C33.4314575,20 20,33.4314575 20,50 C20,66.5685425 33.4314575,80 50,80 Z M50,79 C66.0162577,79 79,66.0162577 79,50 C79,33.9837423 66.0162577,21 50,21 C33.9837423,21 21,33.9837423 21,50 C21,66.0162577 33.9837423,79 50,79 Z" id="Oval-34" sketch:type="MSShapeGroup"></path>
            <path d="M79.8360207,45.8934797 C81.2697426,46.0159068 82.6423369,46.1479195 83.9460904,46.2890619 C93.5097833,47.3244128 98.3777784,48.5703849 98.3777784,50.818612 C98.3777784,53.0668392 93.5097833,54.3128113 83.9460904,55.3481622 C75.3005041,56.2841202 63.6276948,56.818612 51.1769491,56.818612 C38.7262034,56.818612 27.0533941,56.2841202 18.4078078,55.3481622 C8.84411492,54.3128113 3.97611982,53.0668392 3.97611982,50.818612 C3.97611982,48.5703849 8.84411492,47.3244128 18.4078078,46.2890619 C19.3968449,46.1819903 20.425499,46.0801725 21.4904025,45.9838079 C21.3996788,46.6525074 21.3323523,47.3284467 21.2892556,48.0108105 C20.3738217,48.0955169 19.486506,48.1843233 18.6295655,48.2770944 C14.4641346,48.7280376 11.1405917,49.2606142 8.87594818,49.8402538 C7.76877801,50.123636 6.93623658,50.4134119 6.40976715,50.6919385 C6.19189256,50.8072042 6.04591649,50.9106301 5.97512058,50.9860987 C5.9778874,50.9831493 6.00626302,50.9225477 6.00626302,50.818612 C6.00626302,50.7146764 5.9778874,50.6540748 5.97512058,50.6511254 C6.04591649,50.726594 6.19189256,50.8300199 6.40976715,50.9452856 C6.93623658,51.2238121 7.76877801,51.5135881 8.87594818,51.7969703 C11.1405917,52.3766098 14.4641346,52.9091865 18.6295655,53.3601297 C27.1951996,54.2874323 38.7956767,54.818612 51.1769491,54.818612 C63.5582215,54.818612 75.1586986,54.2874323 83.7243327,53.3601297 C87.8897636,52.9091865 91.2133065,52.3766098 93.47795,51.7969703 C94.5851202,51.5135881 95.4176616,51.2238121 95.944131,50.9452856 C96.1620056,50.8300199 96.3079817,50.726594 96.3787776,50.6511254 C96.3760108,50.6540748 96.3476352,50.7146764 96.3476352,50.818612 C96.3476352,50.9225477 96.3760108,50.9831493 96.3787776,50.9860987 C96.3079817,50.9106301 96.1620056,50.8072042 95.944131,50.6919385 C95.4176616,50.4134119 94.5851202,50.123636 93.47795,49.8402538 C91.2133065,49.2606142 87.8897636,48.7280376 83.7243327,48.2770944 C82.5523232,48.1502144 81.3234967,48.0307505 80.043627,47.9190486 C79.9983495,47.2371233 79.9288698,46.5616617 79.8360207,45.8934797 Z" id="Shape" sketch:type="MSShapeGroup" transform="translate(51.176949, 51.356046) rotate(-15.000000) translate(-51.176949, -51.356046) "></path>
        </g>
    </g>
</svg>