<?xml version="1.0" encoding="UTF-8" standalone="no"?>
<svg width="100px" height="100px" viewBox="0 0 100 100" version="1.1" xmlns="http://www.w3.org/2000/svg" xmlns:xlink="http://www.w3.org/1999/xlink" xmlns:sketch="http://www.bohemiancoding.com/sketch/ns">
    <!-- Generator: Sketch 3.3.3 (12081) - http://www.bohemiancoding.com/sketch -->
    <title>02-08-2015 - soup</title>
    <desc>Created with Sketch.</desc>
    <defs></defs>
    <g id="January" stroke="none" stroke-width="1" fill="none" fill-rule="evenodd" sketch:type="MSPage">
        <g id="02-08-2015---soup" sketch:type="MSArtboardGroup" fill="#000000">
            <path d="M61.8998187,68.9577538 C70.8443802,65.6993722 77,58.8821758 77,51 L23,51 C23,58.8822463 29.1557299,65.6994942 38.1004213,68.9578412 C38.0355203,69.1259895 38,69.3088179 38,69.5 C38,70.3342028 38.6721583,71 39.5013075,71 L60.4986925,71 C61.3330537,71 62,70.3284271 62,69.5 C62,69.3083526 61.964524,69.1255935 61.8998187,68.9577538 L61.8998187,68.9577538 Z M57.5179614,68 C66.5884454,65.6122779 74.2117326,59.3061389 75,53 L25,53 C25.7882674,59.3061389 33.4115546,65.6122779 42.4820386,68 L57.5179614,68 L57.5179614,68 Z M38.7700312,47.5 C38.7700312,47.5 42.4009755,42.3240678 38.7700312,39.5 C34.2700312,36 39.7700312,30 39.7700312,30 C39.7700312,30 36.770031,36 40.7700312,39 C44.7700315,42 38.7700312,47.5 38.7700312,47.5 Z M48.7700312,47.5 C48.7700312,47.5 52.4009755,42.3240678 48.7700312,39.5 C44.2700312,36 49.7700312,30 49.7700312,30 C49.7700312,30 46.770031,36 50.7700312,39 C54.7700315,42 48.7700312,47.5 48.7700312,47.5 Z M58.7700312,47.5 C58.7700312,47.5 62.4009755,42.3240678 58.7700312,39.5 C54.2700312,36 59.7700312,30 59.7700312,30 C59.7700312,30 56.770031,36 60.7700312,39 C64.7700315,42 58.7700312,47.5 58.7700312,47.5 Z" id="soup" sketch:type="MSShapeGroup"></path>
        </g>
    </g>
</svg>