<?xml version="1.0" encoding="UTF-8" standalone="no"?>
<svg width="100px" height="100px" viewBox="0 0 100 100" version="1.1" xmlns="http://www.w3.org/2000/svg" xmlns:xlink="http://www.w3.org/1999/xlink" xmlns:sketch="http://www.bohemiancoding.com/sketch/ns">
    <!-- Generator: Sketch 3.3.3 (12081) - http://www.bohemiancoding.com/sketch -->
    <title>03-08-2015 - floppy</title>
    <desc>Created with Sketch.</desc>
    <defs></defs>
    <g id="January" stroke="none" stroke-width="1" fill="none" fill-rule="evenodd" sketch:type="MSPage">
        <g id="03-08-2015---floppy" sketch:type="MSArtboardGroup" fill="#000000">
            <path d="M18,19.0052872 C18,18.4500824 18.4410549,18 18.9994609,18 C18.9994609,18 77.0095002,18 77.0094994,18 C77.0094986,18 82,23.0608468 82,23.0608466 L82,80.9965681 C82,81.5507482 81.5571375,82 80.9947128,82 L19.0052872,82 C18.4500824,82 18,81.5571375 18,80.9947128 L18,19.0052872 Z M27,48 L73,48 L73,80 L27,80 L27,48 Z M33,20 L67,20 L67,42 L33,42 L33,20 Z M56,23 L63,23 L63,39 L56,39 L56,23 Z" id="floppy" sketch:type="MSShapeGroup"></path>
        </g>
    </g>
</svg>