<?xml version="1.0" encoding="UTF-8" standalone="no"?>
<svg width="100px" height="100px" viewBox="0 0 100 100" version="1.1" xmlns="http://www.w3.org/2000/svg" xmlns:xlink="http://www.w3.org/1999/xlink" xmlns:sketch="http://www.bohemiancoding.com/sketch/ns">
    <!-- Generator: Sketch 3.3.3 (12081) - http://www.bohemiancoding.com/sketch -->
    <title>04-08-2015 - coffee bean</title>
    <desc>Created with Sketch.</desc>
    <defs></defs>
    <g id="January" stroke="none" stroke-width="1" fill="none" fill-rule="evenodd" sketch:type="MSPage">
        <g id="04-08-2015---coffee-bean" sketch:type="MSArtboardGroup" fill="#000000">
            <path d="M53.013492,81.8977197 C52.3493046,81.9654736 51.6778024,82 51,82 C37.1928813,82 26,67.673112 26,50 C26,34.634078 34.4612219,21.7977231 45.7452717,18.7080795 C44.9531967,22.7093998 44.5,27.9151688 44.5,34.5000002 C44.5,42.4339976 45.9330371,46.6972831 49.76972,53.3155607 C49.9333128,53.5975806 49.9333128,53.5975806 50.0956015,53.8773518 C53.3924824,59.5644712 54.5,62.784974 54.5,68.9999995 C54.5,74.1794809 53.9561893,78.4491065 53.013492,81.8977197 Z M57.3581056,80.9559126 C68.0858805,77.3556764 76,64.8608408 76,50 C76,32.326888 64.8071187,18 51,18 C50.6611753,18 50.3239248,18.0086277 49.9883755,18.0257209 C49.0590097,21.8694163 48.5,27.2766465 48.5,34.5000002 C48.5,41.6285027 49.7169628,45.2489671 53.23028,51.3094389 C53.3927741,51.5895646 53.3927741,51.5895646 53.5561614,51.87123 C57.1751527,58.1139897 58.5,61.9664563 58.5,68.9999995 C58.5,73.5860044 58.0935482,77.5567127 57.3581056,80.9559126 Z" id="coffee-bean" sketch:type="MSShapeGroup"></path>
        </g>
    </g>
</svg>