<?xml version="1.0" encoding="UTF-8" standalone="no"?>
<svg width="100px" height="100px" viewBox="0 0 100 100" version="1.1" xmlns="http://www.w3.org/2000/svg" xmlns:xlink="http://www.w3.org/1999/xlink" xmlns:sketch="http://www.bohemiancoding.com/sketch/ns">
    <!-- Generator: Sketch 3.3.3 (12081) - http://www.bohemiancoding.com/sketch -->
    <title>05-08-2015 - fish hook</title>
    <desc>Created with Sketch.</desc>
    <defs></defs>
    <g id="January" stroke="none" stroke-width="1" fill="none" fill-rule="evenodd" sketch:type="MSPage">
        <g id="05-08-2015---fish-hook" sketch:type="MSArtboardGroup" fill="#000000">
            <path d="M55.1936292,35.9093119 L55.1936292,56 L55.1936292,63.5 C55.1936292,66.5244308 54.5031433,69.2299975 53.1980416,70.8234656 C51.7078562,72.6429122 49.4342043,73.031446 46.0913248,71.5824827 C43.3968038,70.4145488 41.689513,68.112532 40.787852,64.9495324 C40.220216,62.9582827 40.025063,60.8544866 40.0710332,58.9064061 L40.0710332,58.9064061 L43.9771682,59.2481487 L38.6100902,51.7518513 L38,58.7252142 L38.0746202,58.7317426 C38.0116387,60.8984403 38.2213158,63.2416384 38.8644747,65.4978203 C39.9174009,69.1914538 41.9883999,71.9838747 45.2959332,73.4175173 C49.4127974,75.2019625 52.6502228,74.6487339 54.7453111,72.0907292 C56.3937267,70.0780909 57.1936292,66.9437915 57.1936292,63.5 L57.1936292,56 L57.1936292,35.9093119 C59.7537472,35.4390556 61.6936292,33.1960696 61.6936292,30.5 C61.6936292,27.4624339 59.2311953,25 56.1936292,25 C53.1560631,25 50.6936292,27.4624339 50.6936292,30.5 C50.6936292,33.1960696 52.6335112,35.4390556 55.1936292,35.9093119 Z M56.1936292,34 C54.2606326,34 52.6936292,32.4329966 52.6936292,30.5 C52.6936292,28.5670034 54.2606326,27 56.1936292,27 C58.1266258,27 59.6936292,28.5670034 59.6936292,30.5 C59.6936292,32.4329966 58.1266258,34 56.1936292,34 L56.1936292,34 Z" id="fish-hook" sketch:type="MSShapeGroup"></path>
        </g>
    </g>
</svg>