<?xml version="1.0" encoding="UTF-8" standalone="no"?>
<svg width="100px" height="100px" viewBox="0 0 100 100" version="1.1" xmlns="http://www.w3.org/2000/svg" xmlns:xlink="http://www.w3.org/1999/xlink" xmlns:sketch="http://www.bohemiancoding.com/sketch/ns">
    <!-- Generator: Sketch 3.3.3 (12081) - http://www.bohemiancoding.com/sketch -->
    <title>08-08-2015 - flag</title>
    <desc>Created with Sketch.</desc>
    <defs></defs>
    <g id="January" stroke="none" stroke-width="1" fill="none" fill-rule="evenodd" sketch:type="MSPage">
        <g id="08-08-2015---flag" sketch:type="MSArtboardGroup" fill="#000000">
            <path d="M25,18.4444444 C25,18.4444444 42,8.44444444 52,18.4444444 C62,28.4444444 79,18.4444444 79,18.4444444 L79,58.4444444 C79,58.4444444 62,68.4444444 52,58.4444444 C42,48.4444444 25,58.4444444 25,58.4444444 L25,18.4444444 Z M22,15.9482668 C22,15.1177286 22.6657972,14.4444444 23.5,14.4444444 C24.3284271,14.4444444 25,15.1112405 25,15.9482668 L25,84.9406221 C25,85.7711603 24.3342028,86.4444444 23.5,86.4444444 C22.6715729,86.4444444 22,85.7776484 22,84.9406221 L22,15.9482668 Z" id="flag" sketch:type="MSShapeGroup"></path>
        </g>
    </g>
</svg>