<?xml version="1.0" encoding="UTF-8" standalone="no"?>
<svg width="100px" height="100px" viewBox="0 0 100 100" version="1.1" xmlns="http://www.w3.org/2000/svg" xmlns:xlink="http://www.w3.org/1999/xlink" xmlns:sketch="http://www.bohemiancoding.com/sketch/ns">
    <!-- Generator: Sketch 3.3.3 (12081) - http://www.bohemiancoding.com/sketch -->
    <title>10-08-2015 - warning</title>
    <desc>Created with Sketch.</desc>
    <defs></defs>
    <g id="January" stroke="none" stroke-width="1" fill="none" fill-rule="evenodd" sketch:type="MSPage">
        <g id="10-08-2015---warning" sketch:type="MSArtboardGroup" fill="#000000">
            <path d="M49.0007661,17.7284046 C49.5526277,16.7738331 50.4478625,16.7746811 50.9992339,17.7284046 L86.0007661,78.2715954 C86.5526277,79.2261669 86.1042749,80 85.0015322,80 L14.9984678,80 C13.8947445,80 13.4478625,79.2253189 13.9992339,78.2715954 L49.0007661,17.7284046 Z M49.875,64 C50.625,64 51.375,58.301998 51.375,50.8461538 C51.375,43.3903097 52.875,37 49.875,37 C46.875,37 48.375,43.3903097 48.375,50.8461538 C48.375,58.301998 49.125,64 49.875,64 Z M50,71 C51.1045695,71 52,70.1045695 52,69 C52,67.8954305 51.1045695,67 50,67 C48.8954305,67 48,67.8954305 48,69 C48,70.1045695 48.8954305,71 50,71 Z" id="warning" sketch:type="MSShapeGroup"></path>
        </g>
    </g>
</svg>