<?xml version="1.0" encoding="UTF-8" standalone="no"?>
<svg width="100px" height="100px" viewBox="0 0 100 100" version="1.1" xmlns="http://www.w3.org/2000/svg" xmlns:xlink="http://www.w3.org/1999/xlink" xmlns:sketch="http://www.bohemiancoding.com/sketch/ns">
    <!-- Generator: Sketch 3.3.3 (12081) - http://www.bohemiancoding.com/sketch -->
    <title>11-08-2015 - mute</title>
    <desc>Created with Sketch.</desc>
    <defs></defs>
    <g id="January" stroke="none" stroke-width="1" fill="none" fill-rule="evenodd" sketch:type="MSPage">
        <g id="11-08-2015---mute" sketch:type="MSArtboardGroup" fill="#000000">
            <path d="M77.4552489,49.7885822 L71.2900149,55.9538162 C70.4986299,56.7452012 70.5071767,58.0071767 71.290811,58.790811 L72.7863535,60.2863535 C73.5658506,61.0658506 74.8401536,61.0703442 75.6233483,60.2871495 L81.7885822,54.1219156 L87.9538162,60.2871495 C88.7452012,61.0785346 90.0071767,61.0699878 90.790811,60.2863535 L92.2863535,58.790811 C93.0658506,58.0113138 93.0703442,56.7370109 92.2871495,55.9538162 L86.1219156,49.7885822 L92.2871495,43.6233483 C93.0785346,42.8319632 93.0699878,41.5699878 92.2863535,40.7863535 L90.790811,39.290811 C90.0113138,38.5113138 88.7370109,38.5068203 87.9538162,39.2900149 L81.7885822,45.4552489 L75.6233483,39.2900149 C74.8319632,38.4986299 73.5699878,38.5071767 72.7863535,39.290811 L71.290811,40.7863535 C70.5113138,41.5658506 70.5068203,42.8401536 71.2900149,43.6233483 L77.4552489,49.7885822 Z M27.972095,60 L27.9720951,40.2932807 C40.1480636,33.5288538 64.5000005,20 64.5000005,20 L64.5000005,80 C64.5000005,80 40.164477,66.7735456 27.972095,60 Z M10,43.99923 C10,41.7905163 11.7888304,40 13.9962028,40 L26.0000005,40 L26.0000005,59.9999995 L13.9962028,59.9999999 C11.7891609,59.9999999 10,58.2075324 10,56.00077 L10,43.99923 Z" id="mute" sketch:type="MSShapeGroup"></path>
        </g>
    </g>
</svg>