<?xml version="1.0" encoding="UTF-8" standalone="no"?>
<svg width="100px" height="100px" viewBox="0 0 100 100" version="1.1" xmlns="http://www.w3.org/2000/svg" xmlns:xlink="http://www.w3.org/1999/xlink" xmlns:sketch="http://www.bohemiancoding.com/sketch/ns">
    <!-- Generator: Sketch 3.3.3 (12081) - http://www.bohemiancoding.com/sketch -->
    <title>12-08-2015 - candy</title>
    <desc>Created with Sketch.</desc>
    <defs></defs>
    <g id="January" stroke="none" stroke-width="1" fill="none" fill-rule="evenodd" sketch:type="MSPage">
        <g id="12-08-2015---candy" sketch:type="MSArtboardGroup" fill="#000000">
            <path d="M71.0051757,41.285983 C66.912448,35.7484527 59.0398894,32 50,32 C40.9601106,32 33.087552,35.7484527 28.9948243,41.285983 L28.9948243,41.285983 C24.6235317,36.6417508 18.0619423,30.8103846 15.4785227,34.4271719 C11.4521146,40.0641433 17.089086,44.895833 17.089086,44.895833 C17.089086,44.895833 9.03626977,46.1037557 11.4521146,52.1433676 C13.8679595,58.1829794 18.2970084,55.7671349 18.2970084,55.7671349 C18.2970084,55.7671349 10.646833,61.0014642 15.0758819,65.8331551 C17.834454,68.8425072 24.4978865,63.4173598 29.1318835,58.8969337 C33.2616834,64.3339329 41.0600045,68 50,68 C58.9399955,68 66.7383166,64.3339329 70.8681165,58.8969337 C75.5021135,63.4173598 82.165546,68.8425072 84.9241181,65.8331551 C89.353167,61.0014642 81.7029916,55.7671349 81.7029916,55.7671349 C81.7029916,55.7671349 86.1320405,58.1829794 88.5478854,52.1433676 C90.9637302,46.1037557 82.910914,44.895833 82.910914,44.895833 C82.910914,44.895833 88.5478854,40.0641433 84.5214773,34.4271719 C81.9380577,30.8103846 75.3764683,36.6417508 71.0051757,41.285983 Z" id="candy" sketch:type="MSShapeGroup"></path>
        </g>
    </g>
</svg>