<?xml version="1.0" encoding="UTF-8" standalone="no"?>
<svg width="100px" height="100px" viewBox="0 0 100 100" version="1.1" xmlns="http://www.w3.org/2000/svg" xmlns:xlink="http://www.w3.org/1999/xlink" xmlns:sketch="http://www.bohemiancoding.com/sketch/ns">
    <!-- Generator: Sketch 3.3.3 (12081) - http://www.bohemiancoding.com/sketch -->
    <title>13-08-2015 - calculator</title>
    <desc>Created with Sketch.</desc>
    <defs></defs>
    <g id="January" stroke="none" stroke-width="1" fill="none" fill-rule="evenodd" sketch:type="MSPage">
        <g id="13-08-2015---calculator" sketch:type="MSArtboardGroup" fill="#000000">
            <path d="M21,14.9984678 L21,14.9984678 L21,85.0015322 C21,85.0015029 20.998502,85 20.9926302,85 L79.0073698,85 C78.9978827,85 79,84.9978825 79,85.0015322 L79,14.9984678 C79,14.9984971 79.001498,15 79.0073698,15 L20.9926302,15 C21.0021173,15 21,15.0021175 21,14.9984678 L21,14.9984678 Z M19,14.9984678 C19,13.8947445 19.900351,13 20.9926302,13 L79.0073698,13 C80.1078691,13 81,13.8957251 81,14.9984678 L81,85.0015322 C81,86.1052555 80.099649,87 79.0073698,87 L20.9926302,87 C19.8921309,87 19,86.1042749 19,85.0015322 L19,14.9984678 Z M28,22.999615 L28,29.000385 C28,29.5562398 28.4464152,30 29.0061411,30 L70.9938589,30 C71.5502277,30 72,29.5517004 72,29.000385 L72,22.999615 C72,22.4437602 71.5535848,22 70.9938589,22 L29.0061411,22 C28.4497723,22 28,22.4482996 28,22.999615 Z M27,22.999615 C27,21.8952581 27.8982417,21 29.0061411,21 L70.9938589,21 C72.10182,21 73,21.8874333 73,22.999615 L73,29.000385 C73,30.1047419 72.1017583,31 70.9938589,31 L29.0061411,31 C27.89818,31 27,30.1125667 27,29.000385 L27,22.999615 Z M31,38.999615 L31,45.000385 C31,45.5569727 31.4442281,46 31.999615,46 L38.000385,46 C38.5569727,46 39,45.5557719 39,45.000385 L39,38.999615 C39,38.4430273 38.5557719,38 38.000385,38 L31.999615,38 C31.4430273,38 31,38.4442281 31,38.999615 Z M30,38.999615 C30,37.8952581 30.8874333,37 31.999615,37 L38.000385,37 C39.1047419,37 40,37.8874333 40,38.999615 L40,45.000385 C40,46.1047419 39.1125667,47 38.000385,47 L31.999615,47 C30.8952581,47 30,46.1125667 30,45.000385 L30,38.999615 Z M46,38.999615 L46,45.000385 C46,45.5569727 46.4442281,46 46.999615,46 L53.000385,46 C53.5569727,46 54,45.5557719 54,45.000385 L54,38.999615 C54,38.4430273 53.5557719,38 53.000385,38 L46.999615,38 C46.4430273,38 46,38.4442281 46,38.999615 Z M45,38.999615 C45,37.8952581 45.8874333,37 46.999615,37 L53.000385,37 C54.1047419,37 55,37.8874333 55,38.999615 L55,45.000385 C55,46.1047419 54.1125667,47 53.000385,47 L46.999615,47 C45.8952581,47 45,46.1125667 45,45.000385 L45,38.999615 Z M61,38.999615 L61,45.000385 C61,45.5569727 61.4442281,46 61.999615,46 L68.000385,46 C68.5569727,46 69,45.5557719 69,45.000385 L69,38.999615 C69,38.4430273 68.5557719,38 68.000385,38 L61.999615,38 C61.4430273,38 61,38.4442281 61,38.999615 Z M60,38.999615 C60,37.8952581 60.8874333,37 61.999615,37 L68.000385,37 C69.1047419,37 70,37.8874333 70,38.999615 L70,45.000385 C70,46.1047419 69.1125667,47 68.000385,47 L61.999615,47 C60.8952581,47 60,46.1125667 60,45.000385 L60,38.999615 Z M31,53.999615 L31,60.000385 C31,60.5569727 31.4442281,61 31.999615,61 L38.000385,61 C38.5569727,61 39,60.5557719 39,60.000385 L39,53.999615 C39,53.4430273 38.5557719,53 38.000385,53 L31.999615,53 C31.4430273,53 31,53.4442281 31,53.999615 Z M30,53.999615 C30,52.8952581 30.8874333,52 31.999615,52 L38.000385,52 C39.1047419,52 40,52.8874333 40,53.999615 L40,60.000385 C40,61.1047419 39.1125667,62 38.000385,62 L31.999615,62 C30.8952581,62 30,61.1125667 30,60.000385 L30,53.999615 Z M46,53.999615 L46,60.000385 C46,60.5569727 46.4442281,61 46.999615,61 L53.000385,61 C53.5569727,61 54,60.5557719 54,60.000385 L54,53.999615 C54,53.4430273 53.5557719,53 53.000385,53 L46.999615,53 C46.4430273,53 46,53.4442281 46,53.999615 Z M45,53.999615 C45,52.8952581 45.8874333,52 46.999615,52 L53.000385,52 C54.1047419,52 55,52.8874333 55,53.999615 L55,60.000385 C55,61.1047419 54.1125667,62 53.000385,62 L46.999615,62 C45.8952581,62 45,61.1125667 45,60.000385 L45,53.999615 Z M61,53.999615 L61,60.000385 C61,60.5569727 61.4442281,61 61.999615,61 L68.000385,61 C68.5569727,61 69,60.5557719 69,60.000385 L69,53.999615 C69,53.4430273 68.5557719,53 68.000385,53 L61.999615,53 C61.4430273,53 61,53.4442281 61,53.999615 Z M60,53.999615 C60,52.8952581 60.8874333,52 61.999615,52 L68.000385,52 C69.1047419,52 70,52.8874333 70,53.999615 L70,60.000385 C70,61.1047419 69.1125667,62 68.000385,62 L61.999615,62 C60.8952581,62 60,61.1125667 60,60.000385 L60,53.999615 Z M31,68.999615 L31,75.000385 C31,75.5569727 31.4442281,76 31.999615,76 L38.000385,76 C38.5569727,76 39,75.5557719 39,75.000385 L39,68.999615 C39,68.4430273 38.5557719,68 38.000385,68 L31.999615,68 C31.4430273,68 31,68.4442281 31,68.999615 Z M30,68.999615 C30,67.8952581 30.8874333,67 31.999615,67 L38.000385,67 C39.1047419,67 40,67.8874333 40,68.999615 L40,75.000385 C40,76.1047419 39.1125667,77 38.000385,77 L31.999615,77 C30.8952581,77 30,76.1125667 30,75.000385 L30,68.999615 Z M46,68.999615 L46,75.000385 C46,75.5569727 46.4442281,76 46.999615,76 L53.000385,76 C53.5569727,76 54,75.5557719 54,75.000385 L54,68.999615 C54,68.4430273 53.5557719,68 53.000385,68 L46.999615,68 C46.4430273,68 46,68.4442281 46,68.999615 Z M45,68.999615 C45,67.8952581 45.8874333,67 46.999615,67 L53.000385,67 C54.1047419,67 55,67.8874333 55,68.999615 L55,75.000385 C55,76.1047419 54.1125667,77 53.000385,77 L46.999615,77 C45.8952581,77 45,76.1125667 45,75.000385 L45,68.999615 Z M61,68.999615 L61,75.000385 C61,75.5569727 61.4442281,76 61.999615,76 L68.000385,76 C68.5569727,76 69,75.5557719 69,75.000385 L69,68.999615 C69,68.4430273 68.5557719,68 68.000385,68 L61.999615,68 C61.4430273,68 61,68.4442281 61,68.999615 Z M60,68.999615 C60,67.8952581 60.8874333,67 61.999615,67 L68.000385,67 C69.1047419,67 70,67.8874333 70,68.999615 L70,75.000385 C70,76.1047419 69.1125667,77 68.000385,77 L61.999615,77 C60.8952581,77 60,76.1125667 60,75.000385 L60,68.999615 L60,68.999615 Z" id="calculator" sketch:type="MSShapeGroup"></path>
        </g>
    </g>
</svg>