<?xml version="1.0" encoding="UTF-8" standalone="no"?>
<svg width="100px" height="100px" viewBox="0 0 100 100" version="1.1" xmlns="http://www.w3.org/2000/svg" xmlns:xlink="http://www.w3.org/1999/xlink" xmlns:sketch="http://www.bohemiancoding.com/sketch/ns">
    <!-- Generator: Sketch 3.3.3 (12081) - http://www.bohemiancoding.com/sketch -->
    <title>14-08-2015 - ruler</title>
    <desc>Created with Sketch.</desc>
    <defs></defs>
    <g id="January" stroke="none" stroke-width="1" fill="none" fill-rule="evenodd" sketch:type="MSPage">
        <g id="14-08-2015---ruler" sketch:type="MSArtboardGroup" fill="#000000">
            <path d="M44,24 L44,21 L44,21 L52,21 L52,19 L44,19 L44,13.0064843 C44,13.0028642 44.0028486,13 43.9907951,13 L60.0092049,13 C59.9982939,13 60,13.0017222 60,13.0064843 L60,86.9935157 C60,86.9971358 59.9971514,87 60.0092049,87 L43.9907951,87 C44.0017061,87 44,86.9982778 44,86.9935157 L44,81 L52,81 L52,79 L44,79 L44,79 L44,76 L49,76 L49,74 L44,74 L44,74 L44,71 L44,71 L49,71 L49,69 L44,69 L44,66 L49,66 L49,64 L44,64 L44,64 L44,61 L44,61 L52,61 L52,59 L44,59 L44,56 L49,56 L49,54 L44,54 L44,54 L44,51 L44,51 L49,51 L49,49 L44,49 L44,46 L49,46 L49,44 L44,44 L44,44 L44,41 L44,41 L52,41 L52,39 L44,39 L44,36 L49,36 L49,34 L44,34 L44,34 L44,31 L44,31 L49,31 L49,29 L44,29 L44,26 L49,26 L49,24 L44,24 Z M42,13.0064843 C42,11.8983336 42.8982124,11 43.9907951,11 L60.0092049,11 C61.1086907,11 62,11.9029509 62,13.0064843 L62,86.9935157 C62,88.1016664 61.1017876,89 60.0092049,89 L43.9907951,89 C42.8913093,89 42,88.0970491 42,86.9935157 L42,13.0064843 Z" id="Path" sketch:type="MSShapeGroup" transform="translate(52.000000, 50.000000) rotate(-45.000000) translate(-52.000000, -50.000000) "></path>
        </g>
    </g>
</svg>