<?xml version="1.0" encoding="UTF-8" standalone="no"?>
<svg width="100px" height="100px" viewBox="0 0 100 100" version="1.1" xmlns="http://www.w3.org/2000/svg" xmlns:xlink="http://www.w3.org/1999/xlink" xmlns:sketch="http://www.bohemiancoding.com/sketch/ns">
    <!-- Generator: Sketch 3.3.3 (12081) - http://www.bohemiancoding.com/sketch -->
    <title>15-08-2015 - sushi</title>
    <desc>Created with Sketch.</desc>
    <defs></defs>
    <g id="January" stroke="none" stroke-width="1" fill="none" fill-rule="evenodd" sketch:type="MSPage">
        <g id="15-08-2015---sushi" sketch:type="MSArtboardGroup" fill="#000000">
            <path d="M23,68 C23,73 34,78 50,78 C66,78 78,74 78,68 L78,32.5 C78,26.7010101 65.1878306,22 50,22 C34.8121694,22 23,26.7010101 23,32.5 L23,68 Z M50.5,43 C64.5832611,43 76,38.7467051 76,33.5 C76,28.2532949 64.5832611,24 50.5,24 C36.4167389,24 25,28.2532949 25,33.5 C25,38.7467051 36.4167389,43 50.5,43 Z M50,37 C57.1797017,37 63,35.209139 63,33 C63,30.790861 57.1797017,29 50,29 C42.8202983,29 37,30.790861 37,33 C37,35.209139 42.8202983,37 50,37 Z" id="sushi" sketch:type="MSShapeGroup"></path>
        </g>
    </g>
</svg>