<?xml version="1.0" encoding="UTF-8" standalone="no"?>
<svg width="100px" height="100px" viewBox="0 0 100 100" version="1.1" xmlns="http://www.w3.org/2000/svg" xmlns:xlink="http://www.w3.org/1999/xlink" xmlns:sketch="http://www.bohemiancoding.com/sketch/ns">
    <!-- Generator: Sketch 3.3.3 (12081) - http://www.bohemiancoding.com/sketch -->
    <title>16-08-2015 - ying yang</title>
    <desc>Created with Sketch.</desc>
    <defs></defs>
    <g id="January" stroke="none" stroke-width="1" fill="none" fill-rule="evenodd" sketch:type="MSPage">
        <g id="16-08-2015---ying-yang" sketch:type="MSArtboardGroup" fill="#000000">
            <path d="M50,84 C68.7776815,84 84,68.7776815 84,50 C84,31.2223185 68.7776815,16 50,16 C31.2223185,16 16,31.2223185 16,50 C16,68.7776815 31.2223185,84 50,84 Z M49.9999999,50 C64.4999997,62 60.4752774,71.5247224 50,82 C67.673112,82 82,67.673112 82,50 C82,32.326888 67.673112,18 50,18 C38.2033169,18 35.5,38 49.9999999,50 Z M54,37 C56.7614237,37 59,34.7614237 59,32 C59,29.2385763 56.7614237,27 54,27 C51.2385763,27 49,29.2385763 49,32 C49,34.7614237 51.2385763,37 54,37 Z M46,72 C48.7614237,72 51,69.7614237 51,67 C51,64.2385763 48.7614237,62 46,62 C43.2385763,62 41,64.2385763 41,67 C41,69.7614237 43.2385763,72 46,72 Z" id="ying-yang" sketch:type="MSShapeGroup"></path>
        </g>
    </g>
</svg>