<?xml version="1.0" encoding="UTF-8" standalone="no"?>
<svg width="100px" height="100px" viewBox="0 0 100 100" version="1.1" xmlns="http://www.w3.org/2000/svg" xmlns:xlink="http://www.w3.org/1999/xlink" xmlns:sketch="http://www.bohemiancoding.com/sketch/ns">
    <!-- Generator: Sketch 3.3.3 (12081) - http://www.bohemiancoding.com/sketch -->
    <title>17-08-2015 - cart</title>
    <desc>Created with Sketch.</desc>
    <defs></defs>
    <g id="January" stroke="none" stroke-width="1" fill="none" fill-rule="evenodd" sketch:type="MSPage">
        <g id="17-08-2015---cart" sketch:type="MSArtboardGroup" fill="#000000">
            <path d="M24.4931789,30.2177443 C23.9586069,28.0794563 25.3209315,26.3460314 27.5318063,26.3460314 L79.5186956,26.3460313 C81.7314552,26.3460313 83.0891335,28.0905019 82.5573228,30.2177442 L74.493178,62.4743184 C73.9586059,64.6126064 71.7288249,66.3460313 69.5252242,66.3460313 L37.525276,66.3460313 C35.316123,66.3460313 33.0891329,64.6015608 32.5573223,62.4743184 L24.4931789,30.2177443 Z M39.5252509,80.3460314 C42.8389594,80.3460314 45.5252509,77.6597399 45.5252509,74.3460314 C45.5252509,71.0323229 42.8389594,68.3460314 39.5252509,68.3460314 C36.2115424,68.3460314 33.5252509,71.0323229 33.5252509,74.3460314 C33.5252509,77.6597399 36.2115424,80.3460314 39.5252509,80.3460314 Z M67.5252509,80.3460314 C70.8389594,80.3460314 73.5252509,77.6597399 73.5252509,74.3460314 C73.5252509,71.0323229 70.8389594,68.3460314 67.5252509,68.3460314 C64.2115424,68.3460314 61.5252509,71.0323229 61.5252509,74.3460314 C61.5252509,77.6597399 64.2115424,80.3460314 67.5252509,80.3460314 Z M8.16121206,21.2201824 C8.59280174,20.2034208 9.76607857,19.728687 10.7782165,20.1583141 L21.8352098,24.8517293 C22.8489517,25.2820372 23.3238884,26.4480302 22.8892897,27.4718804 C22.4577,28.488642 21.2844232,28.9633758 20.2722853,28.5337487 L9.21529196,23.8403335 C8.20155002,23.4100256 7.72661341,22.2440326 8.16121206,21.2201824 Z" id="cart" sketch:type="MSShapeGroup"></path>
        </g>
    </g>
</svg>