<?xml version="1.0" encoding="UTF-8" standalone="no"?>
<svg width="100px" height="100px" viewBox="0 0 100 100" version="1.1" xmlns="http://www.w3.org/2000/svg" xmlns:xlink="http://www.w3.org/1999/xlink" xmlns:sketch="http://www.bohemiancoding.com/sketch/ns">
    <!-- Generator: Sketch 3.3.3 (12081) - http://www.bohemiancoding.com/sketch -->
    <title>18-08-2015 - rook</title>
    <desc>Created with Sketch.</desc>
    <defs></defs>
    <g id="January" stroke="none" stroke-width="1" fill="none" fill-rule="evenodd" sketch:type="MSPage">
        <g id="18-08-2015---rook" sketch:type="MSArtboardGroup" fill="#000000">
            <path d="M48,12 L40,12 L40,17 L36,17 L36,12 L36,12 L30,12 L30,30 L70,30 L70,12 L64,12 L64,12 L64,17 L60,17 L60,12 L52,12 L52,17 L48,17 L48,12 Z M32,30 L68,30 L68,33 L32,33 L32,30 Z M30,70 L70,70 L70,73 L30,73 L30,70 Z M28,73 L72,73 L72,80 L28,80 L28,73 Z M26,83 L74,83 L74,80 L26,80 L26,83 Z M32,70 L68,70 L66.5,33 L34,33 L32,70 Z" id="rook" sketch:type="MSShapeGroup"></path>
        </g>
    </g>
</svg>