<?xml version="1.0" encoding="UTF-8" standalone="no"?>
<svg width="100px" height="100px" viewBox="0 0 100 100" version="1.1" xmlns="http://www.w3.org/2000/svg" xmlns:xlink="http://www.w3.org/1999/xlink" xmlns:sketch="http://www.bohemiancoding.com/sketch/ns">
    <!-- Generator: Sketch 3.3.3 (12081) - http://www.bohemiancoding.com/sketch -->
    <title>19-08-2015 - pawn</title>
    <desc>Created with Sketch.</desc>
    <defs></defs>
    <g id="January" stroke="none" stroke-width="1" fill="none" fill-rule="evenodd" sketch:type="MSPage">
        <g id="19-08-2015---pawn" sketch:type="MSArtboardGroup" fill="#000000">
            <path d="M38,37 L62,37 L62,40 L38,40 L38,37 Z M33.3333333,70 L66.6666667,70 L66.6666667,73 L33.3333333,73 L33.3333333,70 Z M31.6666667,73 L68.3333333,73 L68.3333333,80 L31.6666667,80 L31.6666667,73 Z M30,83 L70,83 L70,80 L30,80 L30,83 Z M35,70 L65,70 C60,60.0000004 60,40 60,40 L40,40 C40,40 40,59.9999996 35,70 Z" id="pawn" sketch:type="MSShapeGroup"></path>
            <circle id="Oval" sketch:type="MSShapeGroup" cx="50" cy="29" r="12"></circle>
        </g>
    </g>
</svg>