<?xml version="1.0" encoding="UTF-8" standalone="no"?>
<svg width="100px" height="100px" viewBox="0 0 100 100" version="1.1" xmlns="http://www.w3.org/2000/svg" xmlns:xlink="http://www.w3.org/1999/xlink" xmlns:sketch="http://www.bohemiancoding.com/sketch/ns">
    <!-- Generator: Sketch 3.3.3 (12081) - http://www.bohemiancoding.com/sketch -->
    <title>20-08-2015 - bishop</title>
    <desc>Created with Sketch.</desc>
    <defs></defs>
    <g id="January" stroke="none" stroke-width="1" fill="none" fill-rule="evenodd" sketch:type="MSPage">
        <g id="20-08-2015---bishop" sketch:type="MSArtboardGroup" fill="#000000">
            <path d="M56.5256783,22.8801809 C58.2731538,25.1994337 59.6,27.9859037 59.6,30.4 C59.6,33.2672621 58.3429883,35.8409333 56.3499785,37.6 L56.3499785,37.6 L59.6,37.6 L59.6,40.8869565 L58,40.8869565 L42,40.8869565 C42,40.8869565 42,62.7999996 38,73.7565217 L62,73.7565217 C58.0000903,62.8002479 58,40.8879461 58,40.8869565 L40.4,40.8869565 L40.4,37.6 L43.6500215,37.6 C41.6570117,35.8409333 40.4,33.2672621 40.4,30.4 C40.4,26.0757929 44.6572033,20.5568197 47.9634074,18.6683711 L47.9634074,18.6683711 C47.2528462,18.0814362 46.8,17.193602 46.8,16.2 C46.8,14.4326888 48.2326888,13 50,13 C51.7673112,13 53.2,14.4326888 53.2,16.2 C53.2,17.193602 52.7471538,18.0814362 52.0365926,18.6683711 C52.9700694,19.2015575 53.9793564,20.0241562 54.9472315,21.0275634 L50.1051046,26.7981856 C49.6789513,27.3060552 49.7498148,28.057429 50.2575044,28.4834311 C50.7687335,28.9124033 51.5200898,28.8456091 51.9436112,28.3408758 L56.5256783,22.8801809 Z M36.6666667,73.7565217 L63.3333333,73.7565217 L63.3333333,77.0434783 L36.6666667,77.0434783 L36.6666667,73.7565217 Z M35.3333333,77.0434783 L64.6666667,77.0434783 L64.6666667,84.7130435 L35.3333333,84.7130435 L35.3333333,77.0434783 Z M34,88 L66,88 L66,84.7130435 L34,84.7130435 L34,88 Z" id="bishop" sketch:type="MSShapeGroup"></path>
        </g>
    </g>
</svg>