<?xml version="1.0" encoding="UTF-8" standalone="no"?>
<svg width="100px" height="100px" viewBox="0 0 100 100" version="1.1" xmlns="http://www.w3.org/2000/svg" xmlns:xlink="http://www.w3.org/1999/xlink" xmlns:sketch="http://www.bohemiancoding.com/sketch/ns">
    <!-- Generator: Sketch 3.3.3 (12081) - http://www.bohemiancoding.com/sketch -->
    <title>21-08-2015 - king</title>
    <desc>Created with Sketch.</desc>
    <defs></defs>
    <g id="January" stroke="none" stroke-width="1" fill="none" fill-rule="evenodd" sketch:type="MSPage">
        <g id="21-08-2015---king" sketch:type="MSArtboardGroup" fill="#000000">
            <path d="M51,15 L51,12 L49,12 L49,15 L46,15 L46,17 L49,17 L49,20 L51,20 L51,17 L54,17 L54,15 L51,15 Z M44.2684375,39.04 L40.4,39.04 L40.4,42.2330435 L59.6,42.2330435 L59.6,39.04 L55.7315628,39.04 C57.6900422,37.2135027 58.9791738,34.5677219 59.6,32.0457143 C60.6999992,27.5771429 65.5000002,20 50,20 C34.4999998,20 39.3000001,27.5771429 40.4,32.0457143 C41.0208266,34.5677219 42.3099582,37.2135027 44.2684375,39.04 L44.2684375,39.04 Z M36.6666667,74.1634783 L63.3333333,74.1634783 L63.3333333,77.3565217 L36.6666667,77.3565217 L36.6666667,74.1634783 Z M35.3333333,77.3565217 L64.6666667,77.3565217 L64.6666667,84.8069565 L35.3333333,84.8069565 L35.3333333,77.3565217 Z M34,88 L66,88 L66,84.8069565 L34,84.8069565 L34,88 Z M38,74.1634783 L62,74.1634783 C58,63.5200005 58,42.2330435 58,42.2330435 L42,42.2330435 C42,42.2330435 42,63.5199996 38,74.1634783 Z" id="king" sketch:type="MSShapeGroup"></path>
        </g>
    </g>
</svg>