<?xml version="1.0" encoding="UTF-8" standalone="no"?>
<svg width="100px" height="100px" viewBox="0 0 100 100" version="1.1" xmlns="http://www.w3.org/2000/svg" xmlns:xlink="http://www.w3.org/1999/xlink" xmlns:sketch="http://www.bohemiancoding.com/sketch/ns">
    <!-- Generator: Sketch 3.3.3 (12081) - http://www.bohemiancoding.com/sketch -->
    <title>22-08-2015 - queen</title>
    <desc>Created with Sketch.</desc>
    <defs></defs>
    <g id="January" stroke="none" stroke-width="1" fill="none" fill-rule="evenodd" sketch:type="MSPage">
        <g id="22-08-2015---queen" sketch:type="MSArtboardGroup" fill="#000000">
            <path d="M54.5256267,22.1275767 C55.1995769,22.0960719 55.719841,22.0561304 56.0000004,22.0081678 C59.0025196,21.4941447 61.3376699,20.0214315 62.0000004,22.0081678 C62.7377002,24.2209825 58.741895,32.0772185 54.4664408,36.0463476 L59.6,36.0463476 L59.6,39.2389771 L40.4,39.2389771 L40.4,36.0463476 L45.5335591,36.0463476 L45.5335591,36.0463476 C41.2581048,32.0772185 37.2622995,24.2209825 38,22.0081678 C38.6146252,20.1645313 41.1760915,21.5541637 44,22.0081678 C44.307424,22.0575929 44.8237001,22.097755 45.4750485,22.1290091 C45.1703557,21.4829161 45,20.7610257 45,19.9993518 C45,17.238286 47.2385763,15 50,15 C52.7614237,15 55,17.238286 55,19.9993518 C55,20.7604629 54.829896,21.4818492 54.5256267,22.1275767 Z M36.6666667,71.1652721 L63.3333333,71.1652721 L63.3333333,74.3579016 L36.6666667,74.3579016 L36.6666667,71.1652721 Z M35.3333333,74.3579016 L64.6666667,74.3579016 L64.6666667,81.8073705 L35.3333333,81.8073705 L35.3333333,74.3579016 Z M34,85 L66,85 L66,81.8073705 L34,81.8073705 L34,85 Z M38,71.1652721 L62,71.1652721 C58,60.5231742 58,39.2389771 58,39.2389771 L42,39.2389771 C42,39.2389771 42,60.5231734 38,71.1652721 Z" id="queen" sketch:type="MSShapeGroup"></path>
        </g>
    </g>
</svg>