<?xml version="1.0" encoding="UTF-8" standalone="no"?>
<svg width="100px" height="100px" viewBox="0 0 100 100" version="1.1" xmlns="http://www.w3.org/2000/svg" xmlns:xlink="http://www.w3.org/1999/xlink" xmlns:sketch="http://www.bohemiancoding.com/sketch/ns">
    <!-- Generator: Sketch 3.3.3 (12081) - http://www.bohemiancoding.com/sketch -->
    <title>23-08-2015 - knight</title>
    <desc>Created with Sketch.</desc>
    <defs></defs>
    <g id="January" stroke="none" stroke-width="1" fill="none" fill-rule="evenodd" sketch:type="MSPage">
        <g id="23-08-2015---knight" sketch:type="MSArtboardGroup" fill="#000000">
            <path d="M37.1666667,65.5850767 L63.8333333,65.5850767 L63.8333333,68.7777062 L37.1666667,68.7777062 L37.1666667,65.5850767 Z M35.8333333,68.7777062 L65.1666667,68.7777062 L65.1666667,76.227175 L35.8333333,76.227175 L35.8333333,68.7777062 Z M34.5,79.4198045 L66.5,79.4198045 L66.5,76.227175 L34.5,76.227175 L34.5,79.4198045 Z M38.5,65.5844944 L62.5,65.5844944 C58.5,52.9890938 65,55.3287563 62.5,34.6167202 C60.7704873,20.2880284 50.5,21.0059573 44.5,21.0059553 C44.5,21.0059553 44.8846445,23.6657333 46.0000001,25.7401342 C44.2863756,25.4086813 44.225334,26.8301527 43.0000001,26.9236791 C41.8663026,27.010211 43.6342848,28.7902986 43.0000001,29.2907684 C38.5000001,32.8414038 37.0000001,34.6167208 34,35.8002657 C34.5,36.9838106 35.8946086,37.3404547 35,37.575583 C32.5714162,38.2138833 36,45.8603972 41,40.5344452 C43,43.4933075 50.5,40.5344452 50.5,40.5344452 C50.5,40.5344452 42.5,52.9890928 38.5,65.5844944 Z" id="knight" sketch:type="MSShapeGroup"></path>
        </g>
    </g>
</svg>