<?xml version="1.0" encoding="UTF-8" standalone="no"?>
<svg width="100px" height="100px" viewBox="0 0 100 100" version="1.1" xmlns="http://www.w3.org/2000/svg" xmlns:xlink="http://www.w3.org/1999/xlink" xmlns:sketch="http://www.bohemiancoding.com/sketch/ns">
    <!-- Generator: Sketch 3.3.3 (12081) - http://www.bohemiancoding.com/sketch -->
    <title>24-08-2015 - eggplant</title>
    <desc>Created with Sketch.</desc>
    <defs></defs>
    <g id="January" stroke="none" stroke-width="1" fill="none" fill-rule="evenodd" sketch:type="MSPage">
        <g id="24-08-2015---eggplant" sketch:type="MSArtboardGroup" fill="#000000">
            <path d="M70.3467699,35.4114014 C70.0993959,40.0890429 68.9845906,46.0018761 67.3271402,53 C62.8271402,72 44.8271401,96 31.3271406,76.5 C22.7489567,58.4406647 30.8854264,55.4652855 54.2640852,31.4984438 C55.5701126,31.3891999 57.9339039,30.7864737 59.3271408,28 C59.3271408,28 59.8271408,33.5 62.8271408,33.5 C65.8271408,33.5 65.8271408,28 65.8271408,28 C65.8271408,28 68.0167378,34.5687912 70.3467699,35.4114014 L70.3467699,35.4114014 Z M34.3271409,57.0000007 C34.3271409,57.0000007 51.981798,38.71656 54.3431673,33.4860886 C54.3431673,33.4860886 56.2172416,31.6413422 54.3431681,36 C52.4690946,40.3586579 36.6067695,58.5157052 33.3271408,59.0000008 C30.0475121,60.4528865 34.3271409,57.0000007 34.3271409,57.0000007 Z M53.3271408,29.5 C53.3271408,29.5 57.8271408,29 59.8271408,25 C59.8271408,25 59.8271408,31 62.8271408,31 C65.8271408,31 65.8271408,25 65.8271408,25 C65.8271408,25 68.3271408,33 70.8271408,33 C73.3271408,33 69.8271408,17 63.8271408,17 C57.8271408,17 53.3271408,29.5 53.3271408,29.5 Z" id="eggplant" sketch:type="MSShapeGroup"></path>
        </g>
    </g>
</svg>