<?xml version="1.0" encoding="UTF-8" standalone="no"?>
<svg width="100px" height="100px" viewBox="0 0 100 100" version="1.1" xmlns="http://www.w3.org/2000/svg" xmlns:xlink="http://www.w3.org/1999/xlink" xmlns:sketch="http://www.bohemiancoding.com/sketch/ns">
    <!-- Generator: Sketch 3.3.3 (12081) - http://www.bohemiancoding.com/sketch -->
    <title>25-08-2015 - torch</title>
    <desc>Created with Sketch.</desc>
    <defs></defs>
    <g id="January" stroke="none" stroke-width="1" fill="none" fill-rule="evenodd" sketch:type="MSPage">
        <g id="25-08-2015---torch" sketch:type="MSArtboardGroup" fill="#000000">
            <path d="M55.0076656,48.1739811 C57.1426542,47.2588649 62.553464,44.1432567 64.6229762,35.5 C66.2686573,28.6268611 59.6229762,14 59.6229762,14 C59.6229762,14 56.6229762,22 55.6229762,20.5 C54.6229762,19 53.1229762,4 53.1229762,4 C50.1229762,4.5 49.6229752,17.5 49.6229752,17.5 C49.6229752,13.1047443 44.6229752,8.5 44.6229752,8.5 C44.6229752,8.5 44.6229752,26.5 42.6229752,25 C40.6229752,23.5 42.1229752,15 42.1229752,15 C42.1229752,15 31.6229752,27 38.1229752,40 C40.2409686,44.2359869 42.6774873,46.6139102 45.0000734,47.8948959 L45.0000734,47.8948959 C44.9905437,41.8355438 45.9049382,38 50,38 C54.144114,38 55.0309059,41.9279813 54.9991903,48.113594 C55.0022248,48.1340926 55.0050527,48.1542423 55.0076656,48.1739811 Z M54.0322062,49.1592418 C54.0089353,54.1159223 53.5165289,60.5144642 53.5165289,67.5 C53.5165289,83.2401154 51.9495255,96 50.0165289,96 C48.0835323,96 46.5165289,83.2401154 46.5165289,67.5 C46.5165289,60.4395003 46.0134976,53.9786605 46.0002657,49.0001661 C47.4027675,49.8766544 48.5539073,50 50.5,50 C51.9854597,50 53.0077543,49.6939452 54.0322062,49.1592418 Z M54.011778,47.1653341 C53.8705394,42.1149793 52.9810562,39 50.0165289,39 C47.1003415,39 46.1920782,42.0142212 46.0287916,46.9198282 C47.1295033,47.594998 48.9597243,48 50.5,48 C51.8432881,48 53.0109764,47.691966 54.011778,47.1653341 Z" id="torch" sketch:type="MSShapeGroup"></path>
        </g>
    </g>
</svg>