<?xml version="1.0" encoding="UTF-8" standalone="no"?>
<svg width="100px" height="100px" viewBox="0 0 100 100" version="1.1" xmlns="http://www.w3.org/2000/svg" xmlns:xlink="http://www.w3.org/1999/xlink" xmlns:sketch="http://www.bohemiancoding.com/sketch/ns">
    <!-- Generator: Sketch 3.3.3 (12081) - http://www.bohemiancoding.com/sketch -->
    <title>27-08-2015 - terminal</title>
    <desc>Created with Sketch.</desc>
    <defs></defs>
    <g id="January" stroke="none" stroke-width="1" fill="none" fill-rule="evenodd" sketch:type="MSPage">
        <g id="27-08-2015---terminal" sketch:type="MSArtboardGroup" fill="#000000">
            <path d="M28.1202164,36.6031935 C28.2157291,36.2541889 28.1249992,35.8663618 27.8506961,35.5920587 L21.4951284,29.2364909 C21.0950205,28.836383 20.4291649,28.8294726 20.0227399,29.2358976 C19.6134814,29.6451561 19.6165806,30.3015334 20.0233333,30.7082861 L25.9155158,36.6004686 L20.0243492,42.4916351 C19.6242413,42.8917431 19.6173309,43.5575986 20.0237559,43.9640236 C20.4330144,44.3732822 21.0893917,44.370183 21.4961444,43.9634303 L27.8517121,37.6078625 C28.1199187,37.3396559 28.2114421,36.9520357 28.1202164,36.6031935 L28.1202164,36.6031935 Z M11,29.003757 C11,24.5834041 14.5798836,21 18.9989785,21 L81.0010215,21 C85.4187354,21 89,24.5843895 89,29.003757 L89,70.996243 C89,75.4165959 85.4201164,79 81.0010215,79 L18.9989785,79 C14.5812646,79 11,75.4156105 11,70.996243 L11,29.003757 Z M29.6376849,43.3003577 C29.6376849,42.8161714 30.0299975,42.4236609 30.5130687,42.4236609 L40.1593595,42.4236609 C40.6428206,42.4236609 41.0347432,42.8127958 41.0347432,43.3003577 C41.0347432,43.784544 40.6424307,44.1770545 40.1593595,44.1770545 L30.5130687,44.1770545 C30.0296076,44.1770545 29.6376849,43.7879196 29.6376849,43.3003577 Z" id="terminal" sketch:type="MSShapeGroup"></path>
        </g>
    </g>
</svg>