<?xml version="1.0" encoding="UTF-8" standalone="no"?>
<svg width="100px" height="100px" viewBox="0 0 100 100" version="1.1" xmlns="http://www.w3.org/2000/svg" xmlns:xlink="http://www.w3.org/1999/xlink" xmlns:sketch="http://www.bohemiancoding.com/sketch/ns">
    <!-- Generator: Sketch 3.3.3 (12081) - http://www.bohemiancoding.com/sketch -->
    <title>28-08-2015 - code</title>
    <desc>Created with Sketch.</desc>
    <defs></defs>
    <g id="January" stroke="none" stroke-width="1" fill="none" fill-rule="evenodd" sketch:type="MSPage">
        <g id="28-08-2015---code" sketch:type="MSArtboardGroup" fill="#000000">
            <path d="M83.9420361,50.0031761 C84.0455988,49.2560782 83.807666,48.4723838 83.2325201,47.8972379 L68.0203173,32.6850351 C67.0506811,31.7153989 65.4688221,31.7109131 64.4959279,32.6838072 C63.5162509,33.6634843 63.5235834,35.2346243 64.4971558,36.2081966 L78.2881642,49.9992051 L64.4995875,63.7877818 C63.5299513,64.757418 63.5254654,66.339277 64.4983596,67.3121712 C65.4780367,68.2918482 67.0491767,68.2845157 68.022749,67.3109433 L83.2349518,52.0987406 C83.8046831,51.5290093 84.0412048,50.7479135 83.9420361,50.0031761 L83.9420361,50.0031761 Z M14.0579639,50.0031761 C13.9544012,49.2560782 14.192334,48.4723838 14.7674799,47.8972379 L29.9796827,32.6850351 C30.9493189,31.7153989 32.5311779,31.7109131 33.5040721,32.6838072 C34.4837491,33.6634843 34.4764166,35.2346243 33.5028442,36.2081966 L19.7118358,49.9992051 L33.5004125,63.7877818 C34.4700487,64.757418 34.4745346,66.339277 33.5016404,67.3121712 C32.5219633,68.2918482 30.9508233,68.2845157 29.977251,67.3109433 L14.7650482,52.0987406 C14.1953169,51.5290093 13.9587952,50.7479135 14.0579639,50.0031761 L14.0579639,50.0031761 Z M54.9901856,27.6944914 C55.3662544,26.661251 56.5053113,26.1272656 57.5505036,26.5076845 C58.5884594,26.8854695 59.1258109,28.0271719 58.7489561,29.062572 L43.0098144,72.3055086 C42.6337456,73.338749 41.4946887,73.8727344 40.4494964,73.4923155 C39.4115406,73.1145305 38.8741891,71.9728281 39.2510439,70.937428 L54.9901856,27.6944914 Z" id="code" sketch:type="MSShapeGroup"></path>
        </g>
    </g>
</svg>