<?xml version="1.0" encoding="UTF-8" standalone="no"?>
<svg width="100px" height="100px" viewBox="0 0 100 100" version="1.1" xmlns="http://www.w3.org/2000/svg" xmlns:xlink="http://www.w3.org/1999/xlink" xmlns:sketch="http://www.bohemiancoding.com/sketch/ns">
    <!-- Generator: Sketch 3.3.3 (12081) - http://www.bohemiancoding.com/sketch -->
    <title>29-08-2015 - yo yo</title>
    <desc>Created with Sketch.</desc>
    <defs></defs>
    <g id="January" stroke="none" stroke-width="1" fill="none" fill-rule="evenodd" sketch:type="MSPage">
        <g id="29-08-2015---yo-yo" sketch:type="MSArtboardGroup" fill="#000000">
            <path d="M50,30.4900888 C60.2700814,32.7601134 68,42.6471062 68,54.5 C68,68.0309764 57.9264069,79 45.5,79 C33.0735931,79 23,68.0309764 23,54.5 C23,40.9690236 33.0735931,30 45.5,30 C46.3450227,30 47.1791654,30.050724 48,30.1495283 L48,3 L50,3 L50,30.4900888 Z M51,30.2946548 C52.1405443,30.1006826 53.3094741,30 54.5,30 C66.9264069,30 77,40.9690236 77,54.5 C77,68.0309764 66.9264069,79 54.5,79 C53.3094741,79 52.1405443,78.8993174 51,78.7053452 C61.7641671,76.874685 70,66.734626 70,54.5 C70,42.265374 61.7641671,32.125315 51,30.2946548 L51,30.2946548 Z" id="yo-yo" sketch:type="MSShapeGroup"></path>
        </g>
    </g>
</svg>