<?xml version="1.0" encoding="UTF-8" standalone="no"?>
<svg width="100px" height="100px" viewBox="0 0 100 100" version="1.1" xmlns="http://www.w3.org/2000/svg" xmlns:xlink="http://www.w3.org/1999/xlink" xmlns:sketch="http://www.bohemiancoding.com/sketch/ns">
    <!-- Generator: Sketch 3.3.3 (12081) - http://www.bohemiancoding.com/sketch -->
    <title>30-08-2015 - erase</title>
    <desc>Created with Sketch.</desc>
    <defs></defs>
    <g id="January" stroke="none" stroke-width="1" fill="none" fill-rule="evenodd" sketch:type="MSPage">
        <g id="30-08-2015---erase" sketch:type="MSArtboardGroup" fill="#000000">
            <path d="M62.25,47.1715729 L51.6454201,36.5669929 C50.8668895,35.7884624 49.5960197,35.7839226 48.8149712,36.5649712 C48.0284772,37.3514651 48.0348278,38.6132549 48.8169929,39.3954201 L59.4215729,50 L48.8169929,60.6045799 C48.0384624,61.3831105 48.0339226,62.6539803 48.8149712,63.4350288 C49.6014651,64.2215228 50.8632549,64.2151722 51.6454201,63.4330071 L62.25,52.8284271 L72.8545799,63.4330071 C73.6331105,64.2115376 74.9039803,64.2160774 75.6850288,63.4350288 C76.4715228,62.6485349 76.4651722,61.3867451 75.6830071,60.6045799 L65.0784271,50 L75.6830071,39.3954201 C76.4615376,38.6168895 76.4660774,37.3460197 75.6850288,36.5649712 C74.8985349,35.7784772 73.6367451,35.7848278 72.8545799,36.5669929 L62.25,47.1715729 Z M10.75,50 C10.75,48 36.1457471,27.5224365 36.1457471,27.5224365 C37.8601786,26.1293333 41.0442683,25 43.2571897,25 L85.2428103,25 C87.4559201,25 89.25,26.7942683 89.25,29.0071897 L89.25,70.9928103 C89.25,73.2059201 87.4557317,75 85.2428103,75 L43.2571897,75 C41.0440799,75 37.8560929,73.870303 36.1457471,72.4775635 C36.1457471,72.4775635 10.75,52 10.75,50 Z" id="erase" sketch:type="MSShapeGroup"></path>
        </g>
    </g>
</svg>