<?xml version="1.0" encoding="UTF-8" standalone="no"?>
<svg width="100px" height="100px" viewBox="0 0 100 100" version="1.1" xmlns="http://www.w3.org/2000/svg" xmlns:xlink="http://www.w3.org/1999/xlink" xmlns:sketch="http://www.bohemiancoding.com/sketch/ns">
    <!-- Generator: Sketch 3.3.3 (12081) - http://www.bohemiancoding.com/sketch -->
    <title>31-08-2015 - grid</title>
    <desc>Created with Sketch.</desc>
    <defs></defs>
    <g id="January" stroke="none" stroke-width="1" fill="none" fill-rule="evenodd" sketch:type="MSPage">
        <g id="31-08-2015---grid" sketch:type="MSArtboardGroup" fill="#000000">
            <path d="M19,19.9933977 C19,19.4447593 19.4449463,19 19.9933977,19 L36.0066023,19 C36.5552407,19 37,19.4449463 37,19.9933977 L37,36.0066023 C37,36.5552407 36.5550537,37 36.0066023,37 L19.9933977,37 C19.4447593,37 19,36.5550537 19,36.0066023 L19,19.9933977 Z M41,19.9933977 C41,19.4447593 41.4449463,19 41.9933977,19 L58.0066023,19 C58.5552407,19 59,19.4449463 59,19.9933977 L59,36.0066023 C59,36.5552407 58.5550537,37 58.0066023,37 L41.9933977,37 C41.4447593,37 41,36.5550537 41,36.0066023 L41,19.9933977 Z M63,19.9933977 C63,19.4447593 63.4449463,19 63.9933977,19 L80.0066023,19 C80.5552407,19 81,19.4449463 81,19.9933977 L81,36.0066023 C81,36.5552407 80.5550537,37 80.0066023,37 L63.9933977,37 C63.4447593,37 63,36.5550537 63,36.0066023 L63,19.9933977 Z M19,41.9933977 C19,41.4447593 19.4449463,41 19.9933977,41 L36.0066023,41 C36.5552407,41 37,41.4449463 37,41.9933977 L37,58.0066023 C37,58.5552407 36.5550537,59 36.0066023,59 L19.9933977,59 C19.4447593,59 19,58.5550537 19,58.0066023 L19,41.9933977 Z M41,41.9933977 C41,41.4447593 41.4449463,41 41.9933977,41 L58.0066023,41 C58.5552407,41 59,41.4449463 59,41.9933977 L59,58.0066023 C59,58.5552407 58.5550537,59 58.0066023,59 L41.9933977,59 C41.4447593,59 41,58.5550537 41,58.0066023 L41,41.9933977 Z M63,41.9933977 C63,41.4447593 63.4449463,41 63.9933977,41 L80.0066023,41 C80.5552407,41 81,41.4449463 81,41.9933977 L81,58.0066023 C81,58.5552407 80.5550537,59 80.0066023,59 L63.9933977,59 C63.4447593,59 63,58.5550537 63,58.0066023 L63,41.9933977 Z M19,63.9933977 C19,63.4447593 19.4449463,63 19.9933977,63 L36.0066023,63 C36.5552407,63 37,63.4449463 37,63.9933977 L37,80.0066023 C37,80.5552407 36.5550537,81 36.0066023,81 L19.9933977,81 C19.4447593,81 19,80.5550537 19,80.0066023 L19,63.9933977 Z M41,63.9933977 C41,63.4447593 41.4449463,63 41.9933977,63 L58.0066023,63 C58.5552407,63 59,63.4449463 59,63.9933977 L59,80.0066023 C59,80.5552407 58.5550537,81 58.0066023,81 L41.9933977,81 C41.4447593,81 41,80.5550537 41,80.0066023 L41,63.9933977 Z M63,63.9933977 C63,63.4447593 63.4449463,63 63.9933977,63 L80.0066023,63 C80.5552407,63 81,63.4449463 81,63.9933977 L81,80.0066023 C81,80.5552407 80.5550537,81 80.0066023,81 L63.9933977,81 C63.4447593,81 63,80.5550537 63,80.0066023 L63,63.9933977 Z" id="grid" sketch:type="MSShapeGroup"></path>
        </g>
    </g>
</svg>