<?xml version="1.0" encoding="UTF-8" standalone="no"?>
<svg width="100px" height="100px" viewBox="0 0 100 100" version="1.1" xmlns="http://www.w3.org/2000/svg" xmlns:xlink="http://www.w3.org/1999/xlink" xmlns:sketch="http://www.bohemiancoding.com/sketch/ns">
    <!-- Generator: Sketch 3.3.3 (12081) - http://www.bohemiancoding.com/sketch -->
    <title>31-08-2015 - certificate</title>
    <desc>Created with Sketch.</desc>
    <defs></defs>
    <g id="January" stroke="none" stroke-width="1" fill="none" fill-rule="evenodd" sketch:type="MSPage">
        <g id="31-08-2015---certificate" sketch:type="MSArtboardGroup" fill="#000000">
            <path d="M21,8.999221 L21,8.999221 L21,91.000779 C21,91.0025547 20.9974515,91 20.9932301,91 L83.0067699,91 C83.0001658,91 83,91.0001662 83,91.000779 L83,8.999221 C83,8.99744533 83.0025485,9 83.0067699,9 L20.9932301,9 C20.9998342,9 21,8.99983384 21,8.999221 L21,8.999221 Z M19,8.999221 C19,7.89508173 19.8954434,7 20.9932301,7 L83.0067699,7 C84.1076005,7 85,7.893354 85,8.999221 L85,91.000779 C85,92.1049183 84.1045566,93 83.0067699,93 L20.9932301,93 C19.8923995,93 19,92.106646 19,91.000779 L19,8.999221 L19,8.999221 Z M28,60 C28,59.4477153 28.4394583,59 29.0024617,59 L48.9975383,59 C49.5511826,59 50,59.4438648 50,60 C50,60.5522847 49.5605417,61 48.9975383,61 L29.0024617,61 C28.4488174,61 28,60.5561352 28,60 Z M28,50 C28,49.4477153 28.4445307,49 29.0025482,49 L74.9974518,49 C75.5511439,49 76,49.4438648 76,50 C76,50.5522847 75.5554693,51 74.9974518,51 L29.0025482,51 C28.4488561,51 28,50.5561352 28,50 Z M28,40 C28,39.4477153 28.4445307,39 29.0025482,39 L74.9974518,39 C75.5511439,39 76,39.4438648 76,40 C76,40.5522847 75.5554693,41 74.9974518,41 L29.0025482,41 C28.4488561,41 28,40.5561352 28,40 Z M28,30 C28,29.4477153 28.4445307,29 29.0025482,29 L74.9974518,29 C75.5511439,29 76,29.4438648 76,30 C76,30.5522847 75.5554693,31 74.9974518,31 L29.0025482,31 C28.4488561,31 28,30.5561352 28,30 Z M28,20 C28,19.4477153 28.4445307,19 29.0025482,19 L74.9974518,19 C75.5511439,19 76,19.4438648 76,20 C76,20.5522847 75.5554693,21 74.9974518,21 L29.0025482,21 C28.4488561,21 28,20.5561352 28,20 Z M65,76 C69.9705627,76 74,71.9705627 74,67 C74,62.0294373 69.9705627,58 65,58 C60.0294373,58 56,62.0294373 56,67 C56,71.9705627 60.0294373,76 65,76 Z M65,74 C61.1340068,74 58,70.8659932 58,67 C58,63.1340068 61.1340068,60 65,60 C68.8659932,60 72,63.1340068 72,67 C72,70.8659932 68.8659932,74 65,74 Z M64.5,75 C63.3796699,74.9199764 62,73.5 62,73.5 L58,87 C58,87 66,81.5 71,86.5 L69,74 C69,74 65.7130033,75.0866431 64.5,75 Z" id="certificate" sketch:type="MSShapeGroup"></path>
        </g>
    </g>
</svg>