<?xml version="1.0" encoding="UTF-8" standalone="no"?>
<svg width="256px" height="256px" viewBox="0 0 256 256" version="1.1" xmlns="http://www.w3.org/2000/svg" xmlns:xlink="http://www.w3.org/1999/xlink" xmlns:sketch="http://www.bohemiancoding.com/sketch/ns">
    <!-- Generator: Sketch 3.2.2 (9983) - http://www.bohemiancoding.com/sketch -->
    <title>02-01-2015 - key</title>
    <desc>Created with Sketch.</desc>
    <defs></defs>
    <g id="Page-1" stroke="none" stroke-width="1" fill="none" fill-rule="evenodd" sketch:type="MSPage">
        <g id="02-01-2015---key" sketch:type="MSArtboardGroup" stroke="#4C4C4C">
            <g id="key" sketch:type="MSLayerGroup" transform="translate(128.000000, 128.707107) rotate(-45.000000) translate(-128.000000, -128.707107) translate(79.500000, 19.207107)">
                <path d="M97,178 L97,164.000038 C97,160.694637 94.3165115,158 91.0062606,158 L84.9937394,158 C81.6947819,158 79,160.686309 79,164.000038 L79,173 L59,173 L59,79.1307056 L59,79.1307056 C80.7099091,75.2968062 97,59.2337175 97,40 C97,17.90861 75.509668,2.84217094e-14 49,2.84217094e-14 C22.490332,2.84217094e-14 1,17.90861 1,40 C1,59.2337175 17.2900909,75.2968062 39,79.1307056 L39,212.004015 C39,215.316779 41.6865868,218 45.0006595,218 L52.9993405,218 C56.3234637,218 59,215.315506 59,212.004015 L59,203 L59,203 L79,203 L79,211.999962 C79,215.305363 81.6834885,218 84.9937394,218 L91.0062606,218 C94.3052181,218 97,215.313691 97,211.999962 L97,198 C91.4771525,198 87,193.522847 87,188 C87,182.477153 91.4771525,178 97,178 Z" id="Oval-11" stroke-width="4" sketch:type="MSShapeGroup"></path>
                <path d="M11.0000002,42 C11.0000002,42 11.0000002,52.2413793 21.2666668,60.6206897 C31.5333334,69 39,69 39,69" id="Line" stroke-width="2" stroke-linecap="square" sketch:type="MSShapeGroup"></path>
                <circle id="hole" stroke-width="2" sketch:type="MSShapeGroup" cx="49" cy="22" r="10"></circle>
                <path d="M60,184 C60,182.895431 60.8945138,182 61.9940603,182 L74.0059397,182 C75.1072288,182 76,182.88773 76,184 C76,185.104569 75.1054862,186 74.0059397,186 L61.9940603,186 C60.8927712,186 60,185.11227 60,184 Z M60,192 C60,190.895431 60.8945138,190 61.9940603,190 L74.0059397,190 C75.1072288,190 76,190.88773 76,192 C76,193.104569 75.1054862,194 74.0059397,194 L61.9940603,194 C60.8927712,194 60,193.11227 60,192 Z" id="detai" stroke-width="2" sketch:type="MSShapeGroup"></path>
            </g>
        </g>
    </g>
</svg>