<?xml version="1.0" encoding="UTF-8" standalone="no"?>
<svg width="256px" height="256px" viewBox="0 0 256 256" version="1.1" xmlns="http://www.w3.org/2000/svg" xmlns:xlink="http://www.w3.org/1999/xlink" xmlns:sketch="http://www.bohemiancoding.com/sketch/ns">
    <!-- Generator: Sketch 3.2.2 (9983) - http://www.bohemiancoding.com/sketch -->
    <title>04-01-2015 - drink</title>
    <desc>Created with Sketch.</desc>
    <defs></defs>
    <g id="Page-1" stroke="none" stroke-width="1" fill="none" fill-rule="evenodd" sketch:type="MSPage">
        <g id="04-01-2015---drink" sketch:type="MSArtboardGroup" stroke="#4C4C4C">
            <g id="drink" sketch:type="MSLayerGroup" transform="translate(62.000000, 22.000000)">
                <g id="lemon" transform="translate(73.000000, 0.000000)" sketch:type="MSShapeGroup">
                    <path d="M27,31 C28.44095,34.7731697 24.9829445,38.6915643 24,43 C22.0431851,51.5770981 21.480508,60 30,60 C46.5685425,60 60,46.5685425 60,30 C60,13.4314575 46.5685425,0 30,0 C13.4314575,0 0,12.4314575 0,29 C0,32.7695513 25.7307545,27.6764437 27,31 Z" id="Oval-46" stroke-width="4"></path>
                    <g id="Group" transform="translate(2.142857, 3.857143)" stroke-width="2">
                        <g id="Triangle-1-+-Triangle-3" transform="translate(22.857143, 0.000000)">
                            <path d="M5.35714286,30.8571429 C8.03571429,30.8571429 10.3297997,49.4622675 10.3297997,49.4622675 C10.5421454,51.0216141 9.44314216,52.2857143 7.8571284,52.2857143 L2.85715732,52.2857143 C1.2791929,52.2857143 0.168295843,51.0094324 0.384486058,49.4622675 C0.384486058,49.4622675 2.67857143,30.8571429 5.35714286,30.8571429 Z" id="Triangle-1"></path>
                            <path d="M5.35714286,0 C8.03571429,-6.56060785e-16 10.3297997,18.6051247 10.3297997,18.6051247 C10.5421454,20.1644713 9.44314216,21.4285714 7.8571284,21.4285714 L2.85715732,21.4285714 C1.2791929,21.4285714 0.168295843,20.1522895 0.384486058,18.6051247 C0.384486058,18.6051247 2.67857143,6.56060785e-16 5.35714286,0 Z" id="Triangle-2" transform="translate(5.357143, 10.714286) scale(1, -1) translate(-5.357143, -10.714286) "></path>
                        </g>
                        <g id="Triangle-1-+-Triangle-4" transform="translate(27.839792, 26.230684) rotate(-35.000000) translate(-27.839792, -26.230684) translate(21.839792, 0.230684)">
                            <path d="M6.11156725,30.4644144 C8.79013868,30.4644144 11.084224,49.069539 11.084224,49.069539 C11.2965698,50.6288856 10.1975666,51.8929858 8.61155279,51.8929858 L3.61158171,51.8929858 C2.03361729,51.8929858 0.922720235,50.6167039 1.13891045,49.069539 C1.13891045,49.069539 3.43299582,30.4644144 6.11156725,30.4644144 Z" id="Triangle-1"></path>
                            <path d="M6.60271847,0.392728481 C9.28128989,0.392728481 11.5753753,18.9978532 11.5753753,18.9978532 C11.7877211,20.5571997 10.6887178,21.8212999 9.10270401,21.8212999 L4.10273292,21.8212999 C2.52476851,21.8212999 1.41387145,20.545018 1.63006167,18.9978532 C1.63006167,18.9978532 3.92414704,0.392728481 6.60271847,0.392728481 Z" id="Triangle-2" transform="translate(6.602718, 11.107014) scale(1, -1) translate(-6.602718, -11.107014) "></path>
                        </g>
                        <g id="Triangle-1-+-Triangle-5" transform="translate(28.299914, 25.489909) rotate(-70.000000) translate(-28.299914, -25.489909) translate(22.299914, -1.510091)">
                            <path d="M5.95481533,31.5754301 C8.63338676,31.5754301 10.9274721,50.1805548 10.9274721,50.1805548 C11.1398179,51.7399014 10.0408146,53.0040015 8.45480088,53.0040015 L3.45482979,53.0040015 C1.87686538,53.0040015 0.765968321,51.7277196 0.982158536,50.1805548 C0.982158536,50.1805548 3.27624391,31.5754301 5.95481533,31.5754301 Z" id="Triangle-1"></path>
                            <path d="M5.699163,0.939692621 C8.37773443,0.939692621 10.6718198,19.5448173 10.6718198,19.5448173 C10.8841656,21.1041639 9.7851623,22.368264 8.19914854,22.368264 L3.19917746,22.368264 C1.62121305,22.368264 0.510315987,21.0919821 0.726506202,19.5448173 C0.726506202,19.5448173 3.02059157,0.939692621 5.699163,0.939692621 Z" id="Triangle-2" transform="translate(5.699163, 11.653978) scale(1, -1) translate(-5.699163, -11.653978) "></path>
                        </g>
                        <g id="Triangle-1-+-Triangle-6" transform="translate(43.011172, 22.030147) rotate(-105.000000) translate(-43.011172, -22.030147) translate(37.511172, 10.530147)">
                            <path d="M5.6159619,0.891217031 C8.29453333,0.891217031 10.5886187,19.4963417 10.5886187,19.4963417 C10.8009645,21.0556883 9.7019612,22.3197885 8.11594744,22.3197885 L3.11597636,22.3197885 C1.53801195,22.3197885 0.427114888,21.0435066 0.643305103,19.4963417 C0.643305103,19.4963417 2.93739047,0.891217031 5.6159619,0.891217031 Z" id="Triangle-1"></path>
                        </g>
                        <g id="Triangle-1-+-Triangle-7" transform="translate(37.453168, 14.506786) rotate(-141.000000) translate(-37.453168, -14.506786) translate(31.953168, 3.506786)">
                            <path d="M5.50496843,0.450676505 C8.18353986,0.450676505 10.4776252,19.0558012 10.4776252,19.0558012 C10.689971,20.6151478 9.59096773,21.8792479 8.00495397,21.8792479 L3.00498289,21.8792479 C1.42701847,21.8792479 0.316121414,20.602966 0.532311629,19.0558012 C0.532311629,19.0558012 2.826397,0.450676505 5.50496843,0.450676505 Z" id="Triangle-1"></path>
                        </g>
                    </g>
                </g>
                <path d="M62.1505563,209.131829 C63.9134313,205.616101 65,200.805488 65,195.5 C65,189.483242 63.602565,184.102942 61.4060698,180.52593 C76.6252194,172.663724 110,151.388026 110,116 C110,102.069571 100.926407,73.3536415 97,58 C94.0764426,46.5678569 102,31 102,31 L55,31 L8,31 C8,31 15.9235574,46.5678569 13,58 C9.07359261,73.3536415 0,102.069571 0,116 C0,151.388026 33.3747806,172.663724 48.5939302,180.52593 L48.5939302,180.52593 C46.397435,184.102942 45,189.483242 45,195.5 C45,200.805488 46.0865687,205.616101 47.8494437,209.131829 C26.394918,209.931126 10,214.268819 10,219.5 C10,225.29899 100,225.29899 100,219.5 C100,214.268819 83.605082,209.931126 62.1505563,209.131829 Z" id="Oval-42" stroke-width="4" sketch:type="MSShapeGroup"></path>
                <path d="M55.781261,171.751575 C55.5372544,172.048842 55.2771627,172.138584 55,172.000003 C49,169.000003 10,151.450682 10,114.000001 C10,102.618931 20.0000003,70.9411767 20,69.0000002 C19.9999998,68.0792218 29.1079796,64.7952509 37,64.9999999 C42.2574291,65.1363976 49.143973,67.276976 53.8011709,68.962887 C57.6163041,70.1675483 64.7989924,72.0664197 72.0000017,71.9999999 C80.428716,71.9222562 90.3636364,68.640162 90.3636364,69.0588235 C90.3636362,70.0000001 101,105.063375 101,116.444444 C101,151.364289 61.1651666,169.464675 55.781261,171.751575 Z" id="Path-2" stroke-width="2" sketch:type="MSShapeGroup"></path>
                <circle id="Oval-49" stroke-width="2" sketch:type="MSShapeGroup" cx="28.5" cy="75.5" r="3.5"></circle>
                <circle id="Oval-50" stroke-width="2" sketch:type="MSShapeGroup" cx="33" cy="84" r="2"></circle>
                <path d="M53.5,208.5 C53.5,208.5 51,205 51,196 C51,187 53.5,183.5 53.5,183.5" id="Line" stroke-width="2" stroke-linecap="square" sketch:type="MSShapeGroup"></path>
            </g>
            <path d="M78.6086868,10.230909 C78.6086868,9.12597954 79.4952416,8.23025728 80.6146058,8.23025728 L83.6027677,8.23025728 C84.7106062,8.23025728 85.6086868,9.12535258 85.6086868,10.230909 L85.6086868,89.1652625 L78.6086868,89.1652625 L78.6086868,10.230909 Z" id="Rectangle-20" stroke-width="2" sketch:type="MSShapeGroup" transform="translate(82.108687, 48.697760) rotate(-11.000000) translate(-82.108687, -48.697760) "></path>
        </g>
    </g>
</svg>