<?xml version="1.0" encoding="UTF-8" standalone="no"?>
<svg width="256px" height="256px" viewBox="0 0 256 256" version="1.1" xmlns="http://www.w3.org/2000/svg" xmlns:xlink="http://www.w3.org/1999/xlink" xmlns:sketch="http://www.bohemiancoding.com/sketch/ns">
    <!-- Generator: Sketch 3.2.2 (9983) - http://www.bohemiancoding.com/sketch -->
    <title>05-01-2015 - pumpkin</title>
    <desc>Created with Sketch.</desc>
    <defs></defs>
    <g id="Page-1" stroke="none" stroke-width="1" fill="none" fill-rule="evenodd" sketch:type="MSPage">
        <g id="05-01-2015---pumpkin" sketch:type="MSArtboardGroup">
            <g id="pumpkin" sketch:type="MSLayerGroup" transform="translate(12.000000, 16.000000)">
                <path d="M116.5,221 C171,237 233,182.048773 233,134 C233,85.9512268 180.841173,29 116.5,29 C52.1588266,29 0,85.9512268 0,134 C0,182.048773 57,237 116.5,221 Z" id="body" stroke="#4C4C4C" stroke-width="4" sketch:type="MSShapeGroup"></path>
                <g id="eyes" transform="translate(54.000000, 63.000000)" stroke="#4C4C4C" sketch:type="MSShapeGroup">
                    <g id="L">
                        <path d="M16.0000001,9.0000002 C3.43745876,19.1544417 -2.76045401,41.4401153 3,40 C14.9999855,36.9999999 34.9999997,43.9999981 38,41 C41.0000003,38.0000019 33,18.999999 44,6 C49.7195775,-0.759500078 29.6073257,-1.99895194 16.0000001,9.0000002 Z" id="Path-3" stroke-width="4"></path>
                        <path d="M9,38 C15,23 11,14 43,3" id="Path-4" stroke-width="2"></path>
                    </g>
                    <g id="R" transform="translate(76.000000, 0.000000)">
                        <path d="M15.201583,9.0000002 C2.63904159,19.1544417 -3.55887118,41.4401153 2.20158283,40 C14.2015683,36.9999999 37.0338128,42.0000014 40.0338128,42.0000019 C43.0338128,42.0000023 37.0338128,15 43.2015828,6 C48.1736201,-1.25518857 28.8089085,-1.99895194 15.201583,9.0000002 Z" id="Path-5" stroke-width="4" transform="translate(22.016907, 21.314199) scale(-1, 1) translate(-22.016907, -21.314199) "></path>
                        <path d="M2,38 C8,23 4,14 36,3" id="Path-6" stroke-width="2" transform="translate(19.000000, 20.500000) scale(-1, 1) translate(-19.000000, -20.500000) "></path>
                    </g>
                </g>
                <g id="mouth" transform="translate(25.000000, 138.000000)" stroke="#4C4C4C" sketch:type="MSShapeGroup">
                    <path d="M18.3870968,13.5754636 C12.8801748,10.714316 0,0 0,0 C0,0 17.3613023,55.2715303 46.4516129,55.2715303 C48.3870968,55.2715303 46.4516129,41.6960667 46.4516129,41.6960667 L64.8387097,44.6050946 L65.8064516,59.1502342 C65.8064516,59.1502342 78.7742788,62.0204523 96.7741935,57.2108822 L96.7741935,41.6960667 L115.16129,38.7870388 L117.096774,52.3625024 C117.096774,52.3625024 137.943175,49.7798574 154.83871,39.7567148 C169.185462,31.2456168 180,16.1237206 180,5.81805582 C180,5.81805581 165.111531,17.2751899 154.83871,20.3631954 C145.841506,23.0677507 136.451613,24.2418993 136.451613,24.2418993 L137.419355,31.999307 L123.870968,35.8780109 L121.935484,25.2115752 C121.935484,25.2115752 109.471232,28.2882951 103.548387,29.0902791 C97.535748,29.9044217 86.1290323,30.0599551 86.1290323,30.0599551 L85.1612903,38.7870388 L71.6129032,37.8173628 L70.6451613,29.0902791 C70.6451613,29.0902791 60.4249475,28.6172763 56.1290323,28.1206031 C52.0378507,27.6476003 43.5483871,25.2115752 43.5483871,25.2115752 L42.5806452,33.938659 L30,30.0599551 L30,18.4238434 C26.7972445,16.7598365 21.5898522,15.2394705 18.3870968,13.5754636 Z" id="Path-7" stroke-width="3.87096774"></path>
                    <path d="M8,17 C8,17 28,46 47,50" id="Path-8" stroke-width="2"></path>
                    <path d="M66,53 C66,53 74,56 96,52" id="Path-9" stroke-width="2"></path>
                    <path d="M116,47 C116,47 141,44 173,23" id="Path-10" stroke-width="2"></path>
                    <path d="M43,34 C43,34 44,30 52,28" id="Path-11" stroke-width="2"></path>
                    <path d="M124,36 C124,36 116,27 110,27" id="Path-12" stroke-width="2"></path>
                </g>
                <g id="wrinkles" transform="translate(13.000000, 28.000000)" stroke="#4C4C4C" stroke-width="2" sketch:type="MSShapeGroup">
                    <path d="M96,2 C96,2 62.9396044,11.6081506 37,33 C13.9555436,52.0042813 1.00001477,73 0.999999989,97 C0.999974461,138.45427 13,172 72,196" id="Path-13"></path>
                    <path d="M204,2 C204,2 170.939604,11.6081506 145,33 C121.955544,52.0042813 109.000015,73 109,97 C108.999974,138.45427 121,172 180,196" id="Path-16" transform="translate(156.500000, 99.000000) scale(-1, 1) translate(-156.500000, -99.000000) "></path>
                    <path d="M104,194 C104,194 78,194 62,170" id="Path-14"></path>
                    <path d="M144,194 C144,194 118,194 102,170" id="Path-15" transform="translate(123.000000, 182.000000) scale(-1, 1) translate(-123.000000, -182.000000) "></path>
                    <path d="M101,0 C101,0 106.783207,43.2112358 107,62 C107.283207,86.5445691 102.5,130 102.5,130" id="Path-17"></path>
                    <path d="M104,194 C104,194 100.707942,187.539712 100,184 C99.3746091,180.873045 100,174 100,174" id="Path-18"></path>
                    <path d="M101,1 C101,1 71,13 60,34" id="Path-19"></path>
                    <path d="M141,1 C141,1 111,13 100,34" id="Path-22" transform="translate(120.500000, 17.500000) scale(-1, 1) translate(-120.500000, -17.500000) "></path>
                    <path d="M42.0000001,82 C40.0862804,82.8771215 37.3876914,92.187864 37,97 C35.6922125,113.232632 42,119 42,119" id="Path-20"></path>
                    <path d="M164,82 C162.08628,82.8771215 159.387691,92.187864 159,97 C157.692213,113.232632 164,119 164,119" id="Path-21" transform="translate(161.410757, 100.500000) scale(-1, 1) translate(-161.410757, -100.500000) "></path>
                </g>
                <path d="M113,31 C113,31 114,14 99,6 C84,-2 119,0 128,4 C137,8 113,31 113,31 Z" id="top" fill="#4C4C4C" sketch:type="MSShapeGroup"></path>
            </g>
        </g>
    </g>
</svg>