<?xml version="1.0" encoding="UTF-8" standalone="no"?>
<svg width="256px" height="256px" viewBox="0 0 256 256" version="1.1" xmlns="http://www.w3.org/2000/svg" xmlns:xlink="http://www.w3.org/1999/xlink" xmlns:sketch="http://www.bohemiancoding.com/sketch/ns">
    <!-- Generator: Sketch 3.2.2 (9983) - http://www.bohemiancoding.com/sketch -->
    <title>06-01-2015 - salt</title>
    <desc>Created with Sketch.</desc>
    <defs></defs>
    <g id="Page-1" stroke="none" stroke-width="1" fill="none" fill-rule="evenodd" sketch:type="MSPage">
        <g id="06-01-2015---salt" sketch:type="MSArtboardGroup">
            <g id="salt" sketch:type="MSLayerGroup" transform="translate(68.000000, 13.000000)">
                <g id="bottle" transform="translate(0.000000, 52.000000)" sketch:type="MSShapeGroup">
                    <path d="M64.0129452,1 L17.7314829,1 L1.23924981,137.653182 C1.23924981,137.653182 -2.26910076,161.481131 6.73666072,168.761223 C14.982777,175.427232 14.0665401,175.427232 26.8938342,178.760237 C38.2730671,181.716982 59.025894,181.977388 63.566412,181.998501 C63.566412,182 63.7213092,182.000584 64.0129452,182.000008 C64.3045812,182.000584 64.4594784,182 64.4594784,182 C68.9999963,181.977388 89.7528232,181.716982 101.132056,178.760237 C113.95935,175.427232 113.043113,175.427232 121.28923,168.761223 C130.294991,161.481131 126.786641,137.653182 126.786641,137.653182 L110.294407,1 L64.0129452,1 Z" id="Rectangle-16" stroke="#4C4C4C" stroke-width="4"></path>
                    <path d="M63.631372,25.1331061 C61.019223,25.5801684 52.3056175,27 47.000001,27 C39.9868675,27 24.4641727,25 24.4641727,25 L10.3711095,138.248527 C10.3711095,138.248527 7.37312815,157.995453 15.0687971,164.02868 C22.1153285,169.552998 21.3323791,169.552998 32.2936519,172.315157 C42.017517,174.765499 59.7513739,174.981306 63.6313704,174.998803 C63.6313704,175.000045 63.7637342,175.000529 64.0129452,175.000051 C64.2621561,175.000529 64.39452,175.000045 64.39452,175.000045 C68.2745165,174.981306 86.0083734,174.765499 95.7322384,172.315157 C106.693511,169.552998 105.910562,169.552998 112.957093,164.02868 C120.652762,157.995453 117.654781,138.248527 117.654781,138.248527 L103.561718,25 C103.561718,25 89.9310485,23 84.0000002,23 C76.6209333,23 63.631372,25 63.631372,25 L63.631372,25.1331061 Z" id="Rectangle-19" stroke="#4C4C4C" stroke-width="2"></path>
                    <rect id="Rectangle-21" fill="#4C4C4C" transform="translate(27.000000, 83.500000) rotate(6.000000) translate(-27.000000, -83.500000) " x="25" y="10" width="4" height="147" rx="40"></rect>
                </g>
                <g id="cap" transform="translate(12.000000, 0.000000)" stroke="#4C4C4C" sketch:type="MSShapeGroup">
                    <path d="M52.0129452,45.9189788 C93.9999981,45.9189788 102.012945,47.9934343 102.012945,31.1487495 C102.012945,14.3040646 78.5226132,0.648749453 52.0129452,0.648749453 C25.5032772,0.648749453 2.01294518,14.3040646 2.01294518,31.1487495 C2.01294518,47.9934343 10.0258923,45.9189788 52.0129452,45.9189788 Z" id="Oval-43" stroke-width="4"></path>
                    <rect id="Rectangle-18" stroke-width="2" x="0" y="46" width="102" height="9" rx="40"></rect>
                    <g id="dots" transform="translate(20.000000, 10.000000)" stroke-width="2" fill="#D8D8D8">
                        <circle id="Oval-29" cx="1" cy="21" r="1"></circle>
                        <circle id="Oval-30" cx="21" cy="21" r="1"></circle>
                        <circle id="Oval-31" cx="41" cy="21" r="1"></circle>
                        <circle id="Oval-32" cx="61" cy="21" r="1"></circle>
                        <circle id="Oval-33" cx="11" cy="11" r="1"></circle>
                        <circle id="Oval-34" cx="31" cy="11" r="1"></circle>
                        <circle id="Oval-35" cx="51" cy="11" r="1"></circle>
                        <circle id="Oval-36" cx="21" cy="1" r="1"></circle>
                        <circle id="Oval-37" cx="41" cy="1" r="1"></circle>
                    </g>
                </g>
            </g>
        </g>
    </g>
</svg>