<?xml version="1.0" encoding="UTF-8" standalone="no"?>
<svg width="256px" height="256px" viewBox="0 0 256 256" version="1.1" xmlns="http://www.w3.org/2000/svg" xmlns:xlink="http://www.w3.org/1999/xlink" xmlns:sketch="http://www.bohemiancoding.com/sketch/ns">
    <!-- Generator: Sketch 3.2.2 (9983) - http://www.bohemiancoding.com/sketch -->
    <title>07-01-2015 - pencil</title>
    <desc>Created with Sketch.</desc>
    <defs></defs>
    <g id="Page-1" stroke="none" stroke-width="1" fill="none" fill-rule="evenodd" sketch:type="MSPage">
        <g id="07-01-2015---pencil" sketch:type="MSArtboardGroup" stroke="#4C4C4C">
            <g id="pencil" sketch:type="MSLayerGroup" transform="translate(128.353553, 126.939340) rotate(-45.000000) translate(-128.353553, -126.939340) translate(92.353553, -21.560660)">
                <g id="body" transform="translate(4.000000, 60.000000)" sketch:type="MSShapeGroup">
                    <path d="M1,177 C1,177 2.1082501,1.6418986 1,2.02586591 C0.999999996,2.02586591 59.8873025,0.61165309 61.0000001,2.02586591 C62.1126977,3.44007874 61,177 61,177 C61,177 41.1035872,237 31,237 C21.1035872,237 1,177 1,177 Z" id="Rectangle-25" stroke-width="4"></path>
                    <path d="M19.9960198,221.810127 C19.9960198,221.810127 19.729569,217 21.8284339,217 C23.5524766,217 27.2799148,214.941588 30.9905042,215 C35.2789822,215.067509 39.5366595,217.253165 40.5190574,217.253165 C42.3514714,217.253165 41.9849879,221.810127 41.9849879,221.810127 C41.9849879,221.810127 34.6932948,237 30.9905039,237 C27.3636388,237 19.9960198,221.810127 19.9960198,221.810127 Z" id="Rectangle-28" stroke-width="4" fill="#4C4C4C"></path>
                    <path d="M1,1 L61,1 L61,176 C61,176 55.7798577,176.805296 51,175 C46.5228641,173.309039 42.483649,169 42,169 C41,169 34.8088593,176 31,176 C27.3717424,176 21,169 20,169 C19.48159,169 14.779599,173.188025 10,175 C5.55987146,176.68328 1,176 1,176 L1,1 Z" id="Rectangle-24" stroke-width="4"></path>
                    <path d="M1,1 L21,1 L21,168 C21,168 14.8001158,171.879954 12,173 C8.13344908,174.54662 1,176 1,176 L1,1 Z" id="Rectangle-26" stroke-width="2"></path>
                    <path d="M41,1 L61,1 L61,176 C61,176 53.5255734,174.410229 50,173 C46.8589067,171.743563 41,168 41,168 L41,1 Z" id="Rectangle-27" stroke-width="2"></path>
                </g>
                <g id="rubber" transform="translate(0.000000, 0.000000)" sketch:type="MSShapeGroup">
                    <rect id="Rectangle-29" stroke-width="2" x="3.83693077e-13" y="54" width="70" height="9" rx="8"></rect>
                    <rect id="Rectangle-30" stroke-width="2" x="5.18696197e-13" y="44" width="70" height="9" rx="8"></rect>
                    <rect id="Rectangle-31" stroke-width="2" x="5" y="51" width="60" height="5"></rect>
                    <rect id="Rectangle-32" stroke-width="2" x="5" y="41" width="60" height="5"></rect>
                    <rect id="Rectangle-33" stroke-width="4" x="5" y="4.26325641e-13" width="60" height="43"></rect>
                    <path d="M12.5,34.5 L12.5,11.5 C12.5,11.5 13,8 16,8 L22,8" id="Line" stroke-width="2" stroke-linecap="square"></path>
                </g>
            </g>
        </g>
    </g>
</svg>