<?xml version="1.0" encoding="UTF-8" standalone="no"?>
<svg width="256px" height="256px" viewBox="0 0 256 256" version="1.1" xmlns="http://www.w3.org/2000/svg" xmlns:xlink="http://www.w3.org/1999/xlink" xmlns:sketch="http://www.bohemiancoding.com/sketch/ns">
    <!-- Generator: Sketch 3.2.2 (9983) - http://www.bohemiancoding.com/sketch -->
    <title>09-01-2015 - stamp</title>
    <desc>Created with Sketch.</desc>
    <defs></defs>
    <g id="Page-1" stroke="none" stroke-width="1" fill="none" fill-rule="evenodd" sketch:type="MSPage">
        <g id="09-01-2015---stamp" sketch:type="MSArtboardGroup" stroke="#4C4C4C">
            <g id="post-stamp" sketch:type="MSLayerGroup" transform="translate(128.500000, 128.500000) rotate(-10.000000) translate(-128.500000, -128.500000) translate(38.000000, 28.000000)">
                <path d="M5.68434189e-14,164.252035 L5.68434189e-14,147.747965 L-1.42774681e-13,147.747965 C0.639239845,147.912494 1.30940086,148 2,148 C6.418278,148 10,144.418278 10,140 C10,135.581722 6.418278,132 2,132 C1.30940086,132 0.639239845,132.087506 5.68434189e-14,132.252035 L5.68434189e-14,119.747965 C0.639239845,119.912494 1.30940086,120 2,120 C6.418278,120 10,116.418278 10,112 C10,107.581722 6.418278,104 2,104 C1.30940086,104 0.639239845,104.087506 2.55351296e-15,104.252035 L5.68434189e-14,104.252035 L5.68434189e-14,91.747965 L1.33226763e-15,91.747965 C0.639239845,91.912494 1.30940086,92 2,92 C6.418278,92 10,88.418278 10,84 C10,79.581722 6.418278,76 2,76 C1.30940086,76 0.639239845,76.087506 5.68434189e-14,76.252035 L5.68434189e-14,63.747965 C0.639239845,63.912494 1.30940086,64 2,64 C6.418278,64 10,60.418278 10,56 C10,51.581722 6.418278,48 2,48 C1.30940086,48 0.639239845,48.087506 3.7081449e-14,48.252035 L5.68434189e-14,48.252035 L5.68434189e-14,35.747965 L1.33226763e-15,35.747965 C0.639239845,35.912494 1.30940086,36 2,36 C6.418278,36 10,32.418278 10,28 C10,23.581722 6.418278,20 2,20 C1.30940086,20 0.639239845,20.087506 5.68434189e-14,20.252035 L5.68434189e-14,7.99464702 C5.68434189e-14,3.57932539 3.57531048,4.26325641e-14 7.99587851,4.26325641e-14 L20.252035,4.26325641e-14 L20.252035,-1.19904087e-14 C20.087506,0.639239845 20,1.30940086 20,2 C20,6.418278 23.581722,10 28,10 C32.418278,10 36,6.418278 36,2 C36,1.30940086 35.912494,0.639239845 35.747965,4.26325641e-14 L51.252035,4.26325641e-14 C51.087506,0.639239845 51,1.30940086 51,2 C51,6.418278 54.581722,10 59,10 C63.418278,10 67,6.418278 67,2 C67,1.30940086 66.912494,0.639239845 66.747965,-1.16573418e-14 L66.747965,4.26325641e-14 L82.252035,4.26325641e-14 L82.252035,-1.19904087e-14 C82.087506,0.639239845 82,1.30940086 82,2 C82,6.418278 85.581722,10 90,10 C94.418278,10 98,6.418278 98,2 C98,1.30940086 97.912494,0.639239845 97.747965,4.26325641e-14 L113.252035,4.26325641e-14 C113.087506,0.639239845 113,1.30940086 113,2 C113,6.418278 116.581722,10 121,10 C125.418278,10 129,6.418278 129,2 C129,1.30940086 128.912494,0.639239845 128.747965,4.27435864e-14 L128.747965,4.26325641e-14 L144.252035,4.26325641e-14 L144.252035,-1.19904087e-14 C144.087506,0.639239845 144,1.30940086 144,2 C144,6.418278 147.581722,10 152,10 C156.418278,10 160,6.418278 160,2 C160,1.30940086 159.912494,0.639239845 159.747965,4.26325641e-14 L172.004121,4.26325641e-14 C176.420123,4.26325641e-14 180,3.57762838 180,7.99464702 L180,20.252035 L180,20.252035 C179.36076,20.087506 178.690599,20 178,20 C173.581722,20 170,23.581722 170,28 C170,32.418278 173.581722,36 178,36 C178.690599,36 179.36076,35.912494 180,35.747965 L180,48.252035 C179.36076,48.087506 178.690599,48 178,48 C173.581722,48 170,51.581722 170,56 C170,60.418278 173.581722,64 178,64 C178.690599,64 179.36076,63.912494 180,63.747965 L180,63.747965 L180,76.252035 L180,76.252035 C179.36076,76.087506 178.690599,76 178,76 C173.581722,76 170,79.581722 170,84 C170,88.418278 173.581722,92 178,92 C178.690599,92 179.36076,91.912494 180,91.747965 L180,104.252035 C179.36076,104.087506 178.690599,104 178,104 C173.581722,104 170,107.581722 170,112 C170,116.418278 173.581722,120 178,120 C178.690599,120 179.36076,119.912494 180,119.747965 L180,119.747965 L180,132.252035 L180,132.252035 C179.36076,132.087506 178.690599,132 178,132 C173.581722,132 170,135.581722 170,140 C170,144.418278 173.581722,148 178,148 C178.690599,148 179.36076,147.912494 180,147.747965 L180,164.252035 C179.36076,164.087506 178.690599,164 178,164 C173.581722,164 170,167.581722 170,172 C170,176.418278 173.581722,180 178,180 C178.690599,180 179.36076,179.912494 180,179.747965 L180,179.747965 L180,192.005353 C180,196.420675 176.42469,200 172.004121,200 L159.747965,200 C159.912494,199.36076 160,198.690599 160,198 C160,193.581722 156.418278,190 152,190 C147.581722,190 144,193.581722 144,198 C144,198.690599 144.087506,199.36076 144.252035,200 L144.252035,200 L128.747965,200 L128.747965,200 C128.912494,199.36076 129,198.690599 129,198 C129,193.581722 125.418278,190 121,190 C116.581722,190 113,193.581722 113,198 C113,198.690599 113.087506,199.36076 113.252035,200 L97.747965,200 C97.912494,199.36076 98,198.690599 98,198 C98,193.581722 94.418278,190 90,190 C85.581722,190 82,193.581722 82,198 C82,198.690599 82.087506,199.36076 82.252035,200 L82.252035,200 L66.747965,200 L66.747965,200 C66.912494,199.36076 67,198.690599 67,198 C67,193.581722 63.418278,190 59,190 C54.581722,190 51,193.581722 51,198 C51,198.690599 51.087506,199.36076 51.252035,200 L35.747965,200 C35.912494,199.36076 36,198.690599 36,198 C36,193.581722 32.418278,190 28,190 C23.581722,190 20,193.581722 20,198 C20,198.690599 20.087506,199.36076 20.252035,200 L20.252035,200 L7.99587851,200 C3.57987675,200 5.68434189e-14,196.422372 5.68434189e-14,192.005353 L5.68434189e-14,179.747965 C0.639239845,179.912494 1.30940086,180 2,180 C6.418278,180 10,176.418278 10,172 C10,167.581722 6.418278,164 2,164 C1.30940086,164 0.639239845,164.087506 2.55351296e-15,164.252035 Z" id="border" stroke-width="4" sketch:type="MSShapeGroup"></path>
                <rect id="body" stroke-width="2" sketch:type="MSShapeGroup" x="25" y="25" width="130" height="150"></rect>
            </g>
        </g>
    </g>
</svg>