<?xml version="1.0" encoding="UTF-8" standalone="no"?>
<svg width="256px" height="256px" viewBox="0 0 256 256" version="1.1" xmlns="http://www.w3.org/2000/svg" xmlns:xlink="http://www.w3.org/1999/xlink" xmlns:sketch="http://www.bohemiancoding.com/sketch/ns">
    <!-- Generator: Sketch 3.2.2 (9983) - http://www.bohemiancoding.com/sketch -->
    <title>10-01-2015 - remote</title>
    <desc>Created with Sketch.</desc>
    <defs></defs>
    <g id="Page-1" stroke="none" stroke-width="1" fill="none" fill-rule="evenodd" sketch:type="MSPage">
        <g id="10-01-2015---remote" sketch:type="MSArtboardGroup">
            <g id="remote" sketch:type="MSLayerGroup" transform="translate(128.500000, 129.207107) rotate(-45.000000) translate(-128.500000, -129.207107) translate(79.500000, 6.207107)">
                <g id="Group" transform="translate(1.000000, 39.000000)" sketch:type="MSShapeGroup">
                    <rect id="Rectangle-41" stroke="#4C4C4C" stroke-width="4" x="0" y="0" width="97" height="206" rx="8"></rect>
                    <rect id="Rectangle-42" fill="#4C4C4C" x="63" y="15" width="22" height="13" rx="8"></rect>
                    <g transform="translate(14.500000, 31.393398)" stroke="#4C4C4C" stroke-width="2">
                        <circle id="Oval-81" cx="34" cy="33" r="33"></circle>
                        <circle id="Oval-86" cx="34" cy="33" r="6"></circle>
                        <circle id="Oval-87" fill="#4C4C4C" cx="34" cy="9" r="3"></circle>
                        <circle id="Oval-88" fill="#4C4C4C" cx="34" cy="58" r="3"></circle>
                        <circle id="Oval-89" fill="#4C4C4C" cx="58" cy="33" r="3"></circle>
                        <circle id="Oval-90" fill="#4C4C4C" cx="10" cy="33" r="3"></circle>
                    </g>
                    <circle id="Oval-82" stroke="#4C4C4C" stroke-width="2" cx="31" cy="132" r="15"></circle>
                    <circle id="Oval-83" stroke="#4C4C4C" stroke-width="2" cx="67" cy="132" r="15"></circle>
                    <circle id="Oval-85" stroke="#4C4C4C" stroke-width="2" cx="31" cy="172" r="15"></circle>
                    <circle id="Oval-84" stroke="#4C4C4C" stroke-width="2" cx="67" cy="172" r="15"></circle>
                </g>
                <path d="M30,20.5 C30,20.5 34.5,13 49.5,13 C64.5,13 70,20.5 70,20.5" id="Line" stroke="#4C4C4C" stroke-width="4" stroke-linecap="square" sketch:type="MSShapeGroup"></path>
                <path d="M22,10.5 C22,10.5 28.9375,5.01820807e-14 49.75,4.97379915e-14 C70.5625,4.92939023e-14 77.5,10.5 77.5,10.5" id="Line-2" stroke="#4C4C4C" stroke-width="4" stroke-linecap="square" sketch:type="MSShapeGroup"></path>
            </g>
        </g>
    </g>
</svg>