<?xml version="1.0" encoding="UTF-8" standalone="no"?>
<svg width="256px" height="256px" viewBox="0 0 256 256" version="1.1" xmlns="http://www.w3.org/2000/svg" xmlns:xlink="http://www.w3.org/1999/xlink" xmlns:sketch="http://www.bohemiancoding.com/sketch/ns">
    <!-- Generator: Sketch 3.2.2 (9983) - http://www.bohemiancoding.com/sketch -->
    <title>12-01-2015 - fireplace</title>
    <desc>Created with Sketch.</desc>
    <defs></defs>
    <g id="Page-1" stroke="none" stroke-width="1" fill="none" fill-rule="evenodd" sketch:type="MSPage">
        <g id="12-01-2015---fireplace" sketch:type="MSArtboardGroup" stroke="#4C4C4C">
            <g id="Group" sketch:type="MSLayerGroup" transform="translate(18.000000, 40.000000)">
                <rect id="Rectangle-43" stroke-width="4" sketch:type="MSShapeGroup" x="0" y="0" width="220" height="40" rx="4"></rect>
                <g transform="translate(16.000000, 42.000000)" stroke-width="2" sketch:type="MSShapeGroup">
                    <rect id="Rectangle-44" x="0" y="0" width="40" height="20" rx="4"></rect>
                    <rect id="Rectangle-49" x="22" y="22" width="40" height="20" rx="4"></rect>
                    <rect id="Rectangle-55" x="42" y="0" width="40" height="20" rx="4"></rect>
                    <rect id="Rectangle-60" x="84" y="0" width="40" height="20" rx="4"></rect>
                    <rect id="Rectangle-58" x="126" y="0" width="40" height="20" rx="4"></rect>
                    <rect id="Rectangle-61" x="168" y="0" width="20" height="20" rx="4"></rect>
                    <rect id="Rectangle-45" x="0" y="44" width="40" height="20" rx="4"></rect>
                    <rect id="Rectangle-46" x="0" y="22" width="20" height="20" rx="4"></rect>
                    <rect id="Rectangle-47" x="0" y="22" width="20" height="20" rx="4"></rect>
                    <rect id="Rectangle-54" x="22" y="66" width="18" height="20" rx="4"></rect>
                    <rect id="Rectangle-50" x="0" y="88" width="40" height="20" rx="4"></rect>
                    <rect id="Rectangle-51" x="0" y="66" width="20" height="20" rx="4"></rect>
                    <rect id="Rectangle-52" x="0" y="66" width="20" height="20" rx="4"></rect>
                    <rect id="Rectangle-59" x="22" y="110" width="18" height="20" rx="4"></rect>
                    <rect id="Rectangle-56" x="0" y="110" width="20" height="20" rx="4"></rect>
                    <rect id="Rectangle-57" x="0" y="110" width="20" height="20" rx="4"></rect>
                    <rect id="Rectangle-74" x="148" y="22" width="40" height="20" rx="4"></rect>
                    <rect id="Rectangle-62" x="148" y="44" width="18" height="20" rx="4"></rect>
                    <rect id="Rectangle-63" x="106" y="22" width="40" height="20" rx="4"></rect>
                    <rect id="Rectangle-64" x="64" y="22" width="40" height="20" rx="4"></rect>
                    <rect id="Rectangle-65" x="168" y="44" width="20" height="20" rx="4"></rect>
                    <rect id="Rectangle-66" x="148" y="66" width="40" height="20" rx="4"></rect>
                    <rect id="Rectangle-67" x="148" y="88" width="18" height="20" rx="4"></rect>
                    <rect id="Rectangle-70" x="168" y="88" width="20" height="20" rx="4"></rect>
                    <rect id="Rectangle-71" x="148" y="110" width="40" height="20" rx="4"></rect>
                </g>
                <rect id="Rectangle-75" stroke-width="4" sketch:type="MSShapeGroup" x="11" y="36" width="198" height="141" rx="4"></rect>
                <rect id="Rectangle-76" stroke-width="2" sketch:type="MSShapeGroup" x="58" y="87" width="104" height="90" rx="4"></rect>
                <path d="M95.4460087,170.474126 C95.4460087,170.474126 82,164.199322 82,140.892907 C82,140.892907 83.7928012,148.960513 89.1712047,147.167711 C89.1712047,147.167711 83.7928012,134.618103 89.1712047,120.275694 C89.1712047,120.275694 89.1712047,124.757697 91.8604064,126.550498 C91.8604064,126.550498 90.9640058,113.104489 98.1352105,107.726086 C98.1352105,107.726086 100.381297,121.694237 102.219427,118.937044 L109.788418,100.554881 L120.600725,118.937043 C120.600725,118.937043 125.027228,114.00089 125.027228,108.622486 C125.027228,108.622486 136.088842,132.825303 130.710438,140.892908 C130.710438,140.892908 136.680436,133.721703 137.576836,131.032501 C137.576836,131.032501 143.85164,157.924518 127.71643,169.577726 C111.581219,181.230933 95.4460087,170.474126 95.4460087,170.474126 Z" id="Path-53" stroke-width="2" sketch:type="MSShapeGroup"></path>
                <path d="M104.151807,173.054568 C104.151807,173.054568 98.372083,170.357363 98.372083,160.339174 C98.372083,160.339174 99.1427129,163.807008 101.454603,163.036378 C101.454603,163.036378 99.1427129,157.641969 101.454603,151.476929 C101.454603,151.476929 101.454603,153.403504 102.610548,154.174134 C102.610548,154.174134 102.225233,148.39441 105.307752,146.08252 C105.307752,146.08252 106.273226,152.086686 107.06334,150.901515 L110.316847,143 L114.964483,150.901514 C114.964483,150.901514 116.867201,148.779724 116.867201,146.467835 C116.867201,146.467835 121.622001,156.871339 119.310111,160.339174 C119.310111,160.339174 121.876296,157.256654 122.261611,156.100709 C122.261611,156.100709 124.958816,167.660158 118.023146,172.669253 C111.087477,177.678347 104.151807,173.054568 104.151807,173.054568 Z" id="Path-54" stroke-width="2" sketch:type="MSShapeGroup" transform="translate(110.574978, 159.000000) scale(-1, 1) translate(-110.574978, -159.000000) "></path>
            </g>
        </g>
    </g>
</svg>