<?xml version="1.0" encoding="UTF-8" standalone="no"?>
<svg width="256px" height="256px" viewBox="0 0 256 256" version="1.1" xmlns="http://www.w3.org/2000/svg" xmlns:xlink="http://www.w3.org/1999/xlink" xmlns:sketch="http://www.bohemiancoding.com/sketch/ns">
    <!-- Generator: Sketch 3.2.2 (9983) - http://www.bohemiancoding.com/sketch -->
    <title>14-01-2015 - prize</title>
    <desc>Created with Sketch.</desc>
    <defs></defs>
    <g id="Page-1" stroke="none" stroke-width="1" fill="none" fill-rule="evenodd" sketch:type="MSPage">
        <g id="14-01-2015---prize" sketch:type="MSArtboardGroup" stroke="#4C4C4C">
            <g id="prize" sketch:type="MSLayerGroup" transform="translate(68.000000, 32.000000)">
                <path d="M69.0490243,3.07933792 L59.5945946,0 L51.138972,2.75402325 L42.2476215,2.5925225 L34.1066167,8.30151573 L24.8040621,11.3313874 L19.6544682,18.4362865 L12.2902469,23.6005495 L9.03615572,33.0863813 L3.30233052,40.9973449 L3.30233052,49.800757 L0.401525249,58.2567436 L3.30233052,67.7448501 L3.30233052,77.6664849 L8.54867562,84.9048717 L11.1225442,93.3236166 L18.9187704,99.2125004 L24.8040621,107.332442 L33.3563864,110.117962 L40.3582389,115.406815 L50.1401649,115.584492 L59.5945946,118.66383 L68.0502172,115.909807 L76.9415677,116.071307 L85.0825725,110.362314 L94.3851271,107.332442 L99.534721,100.227543 L106.898942,95.0632803 L110.153033,85.5774484 L115.886859,77.6664849 L115.886859,68.8630728 L118.787664,60.4070862 L115.886859,50.9189797 L115.886859,40.9973449 L110.640514,33.7589581 L108.066645,25.3402132 L100.270419,19.4513294 L94.3851271,11.3313874 L85.8328028,8.54586813 L78.8309502,3.2570149 L69.0490243,3.07933792 Z" id="Polygon-1" stroke-width="4" sketch:type="MSShapeGroup"></path>
                <ellipse id="Oval-92" stroke-width="2" sketch:type="MSShapeGroup" cx="59.5945946" cy="59.7382979" rx="45.8108108" ry="45.9212766"></ellipse>
                <path d="M110.135135,107.285106 C110.135135,107.285106 91,170 85,181.246809 C85,181.246809 96.7040084,174.647534 102.5,172.000004 C106.370675,170.231931 114,168 114,168 L120,112 L110.135135,107.285106 Z" id="Path-65" stroke-width="4" sketch:type="MSShapeGroup" transform="translate(102.500000, 144.265957) scale(-1, 1) translate(-102.500000, -144.265957) "></path>
                <path d="M68.9189189,116.225532 L60.8108108,115.412766 L51.0810811,118.66383 L42.1621622,116.225532 L33.2432432,116.225532 L25.2702702,111 L17.027027,191 C17.027027,191 29.933601,179.651921 36.2702712,175 C41.2849524,171.318587 51.0810813,166 51.0810813,166 C51.0810813,166 77.8378378,175.557447 93.2432432,185.310638 C93.2432432,185.310638 87.1142052,168.536741 83.5135135,149.548936 C79.2353834,126.988743 77.8300081,110 78.2702712,110 C78.487005,110 68.9189189,116.225532 68.9189189,116.225532 Z" id="Path-66" stroke-width="4" sketch:type="MSShapeGroup" transform="translate(55.135135, 150.500000) scale(-1, 1) translate(-55.135135, -150.500000) "></path>
                <polygon id="Star-1" stroke-width="2" sketch:type="MSShapeGroup" points="60 76.5 40.6030867 86.6975608 44.3075675 65.0987804 28.615135 49.8024392 50.3015433 46.6512196 60 27 69.6984567 46.6512196 91.384865 49.8024392 75.6924325 65.0987804 79.3969133 86.6975608 "></polygon>
                <path d="M50,169 C50,169 43,183 42,184 C41,185 65.9999997,172 69.9999997,172" id="Path-67" stroke-width="4" sketch:type="MSShapeGroup"></path>
            </g>
        </g>
    </g>
</svg>