<?xml version="1.0" encoding="UTF-8" standalone="no"?>
<svg width="256px" height="256px" viewBox="0 0 256 256" version="1.1" xmlns="http://www.w3.org/2000/svg" xmlns:xlink="http://www.w3.org/1999/xlink" xmlns:sketch="http://www.bohemiancoding.com/sketch/ns">
    <!-- Generator: Sketch 3.2.2 (9983) - http://www.bohemiancoding.com/sketch -->
    <title>15-01-2015 - lollipop</title>
    <desc>Created with Sketch.</desc>
    <defs></defs>
    <g id="Page-1" stroke="none" stroke-width="1" fill="none" fill-rule="evenodd" sketch:type="MSPage">
        <g id="15-01-2015---lollipop" sketch:type="MSArtboardGroup" stroke="#4C4C4C">
            <g id="lollipop" sketch:type="MSLayerGroup" transform="translate(128.000000, 130.000000) rotate(-45.000000) translate(-128.000000, -130.000000) translate(74.000000, 15.000000)">
                <rect id="Rectangle-72" stroke-width="4" sketch:type="MSShapeGroup" x="48" y="98" width="12" height="132" rx="8"></rect>
                <path d="M102.792356,60.9720909 C97.7912974,83.3084294 77.8449113,100 54,100 C30.1551971,100 10.208884,83.3085812 5.20771259,60.9723956 C4.33796068,60.8119639 3.92294312,60.7151196 3.92294312,60.7151196 C1.75636146,60.32017 0,58.2125261 0,55.9938052 L0,45.0061948 C0,42.7936345 1.76253319,41.3444998 3.93716955,41.7174284 C3.93716955,41.7174284 4.17180118,41.7721965 4.65803456,41.8675842 C8.54225739,18.121195 29.1549128,0 54,0 C78.8452419,0 99.4579992,18.1214205 103.342038,41.8680276 C103.837844,41.7709402 104.077057,41.7151198 104.077057,41.7151198 C106.243639,41.3201701 108,42.7874739 108,45.0061948 L108,55.9938052 C108,58.2063655 106.237467,60.3444999 104.06283,60.7174286 C104.06283,60.7174286 103.652425,60.8132263 102.792356,60.9720909 Z" id="Oval-93" stroke-width="4" sketch:type="MSShapeGroup"></path>
                <path d="M0,45.0061948 C0,42.7936345 1.76253319,41.3444998 3.93716955,41.7174284 C3.93716955,41.7174284 18,45.0000001 54,45 C90,44.9999999 104.077057,41.7151198 104.077057,41.7151198 C106.243639,41.3201701 108,42.7874739 108,45.0061948 L108,55.9938052 C108,58.2063655 106.237467,60.3444999 104.06283,60.7174286 C104.06283,60.7174286 90,64.0000013 54,64 C18,63.9999987 3.92294312,60.7151196 3.92294312,60.7151196 C1.75636146,60.32017 0,58.2125261 0,55.9938052 L0,45.0061948 Z" id="Rectangle-74" stroke-width="2" sketch:type="MSShapeGroup"></path>
            </g>
        </g>
    </g>
</svg>