<?xml version="1.0" encoding="UTF-8" standalone="no"?>
<svg width="256px" height="256px" viewBox="0 0 256 256" version="1.1" xmlns="http://www.w3.org/2000/svg" xmlns:xlink="http://www.w3.org/1999/xlink" xmlns:sketch="http://www.bohemiancoding.com/sketch/ns">
    <!-- Generator: Sketch 3.2.2 (9983) - http://www.bohemiancoding.com/sketch -->
    <title>18-01-2015 - fridge</title>
    <desc>Created with Sketch.</desc>
    <defs></defs>
    <g id="Page-1" stroke="none" stroke-width="1" fill="none" fill-rule="evenodd" sketch:type="MSPage">
        <g id="18-01-2015---fridge" sketch:type="MSArtboardGroup">
            <g id="fridge" sketch:type="MSLayerGroup" transform="translate(64.000000, 14.000000)">
                <path d="M0,42 C2.74320883e-15,16.1 2.17558008,12.7638674 2.17558008,12.7638674 C3.18317938,8.47600184 7.40251086,3.89963529 11.7251871,3.00231162 C11.7251871,3.00231162 13,-3.85476715e-15 64,0 C115,3.85476732e-15 116.274813,3.00231162 116.274813,3.00231162 C120.541316,4.10560445 124.799846,8.48483626 125.618305,12.8281495 C125.618305,12.8281495 128,19.8 128,42 C128,64.2 125.618305,71.1718505 125.618305,71.1718505 C124.72454,75.4952181 120.408638,79 115.998561,79 L12.0014394,79 C7.58236644,79 3.05205584,75.5490374 2.17266029,71.2196155 C2.17266029,71.2196155 2.74320874e-15,67.9 0,42 Z" id="Rectangle-82" stroke="#4C4C4C" stroke-width="4" sketch:type="MSShapeGroup"></path>
                <path d="M0,145 C3.13509573e-15,89 2.67083657,82.8785419 2.67083657,82.8785419 C3.40491326,78.5273434 7.59136164,75 12.0014394,75 L115.998561,75 C120.417634,75 124.701324,78.5157827 125.329163,82.8785419 C125.329163,82.8785419 128,89 128,145 C128,201 125.329163,207.121458 125.329163,207.121458 C124.595087,211.472657 120.408638,215 115.998561,215 L12.0014394,215 C7.58236644,215 3.2986759,211.484217 2.67083657,207.121458 C2.67083657,207.121458 3.13509581e-15,201 0,145 Z" id="Rectangle-83" stroke="#4C4C4C" stroke-width="4" sketch:type="MSShapeGroup"></path>
                <rect id="Rectangle-84" fill="#4C4C4C" sketch:type="MSShapeGroup" x="16" y="215" width="20" height="8" rx="2"></rect>
                <rect id="Rectangle-85" fill="#4C4C4C" sketch:type="MSShapeGroup" x="92" y="215" width="20" height="8" rx="2"></rect>
                <path d="M107.526204,97.0065993 C107.501703,95.8983851 108.172615,94.4215171 109.092559,93.8250234 C109.092559,93.8250234 109.481841,93 111.981841,93 C114.481841,93 114.871124,93.8250234 114.871124,93.8250234 C115.760699,94.4739451 116.479695,95.9025574 116.474417,97.0065993 C116.474417,97.0065993 116.481841,147 111.981841,147 C108.481841,147 107.526204,97.0065993 107.526204,97.0065993 Z" id="Rectangle-86" stroke="#4C4C4C" stroke-width="2" sketch:type="MSShapeGroup"></path>
                <path d="M107.500707,26.9997073 C107.49343,25.8952994 108.178304,24.4215171 109.098248,23.8250234 C109.098248,23.8250234 109.48753,23 111.98753,23 C114.48753,23 114.876813,23.8250234 114.876813,23.8250234 C115.766387,24.4739451 116.483822,25.8898926 116.474353,26.9997073 C116.474353,26.9997073 116.48753,61 111.98753,61 C107.48753,61 107.500707,26.9997073 107.500707,26.9997073 Z" id="Rectangle-87" stroke="#4C4C4C" stroke-width="2" sketch:type="MSShapeGroup"></path>
            </g>
        </g>
    </g>
</svg>