<?xml version="1.0" encoding="UTF-8" standalone="no"?>
<svg width="256px" height="256px" viewBox="0 0 256 256" version="1.1" xmlns="http://www.w3.org/2000/svg" xmlns:xlink="http://www.w3.org/1999/xlink" xmlns:sketch="http://www.bohemiancoding.com/sketch/ns">
    <!-- Generator: Sketch 3.2.2 (9983) - http://www.bohemiancoding.com/sketch -->
    <title>19-01-2015 - amplifier</title>
    <desc>Created with Sketch.</desc>
    <defs>
        <rect id="path-1" x="0" y="0" width="160" height="120" rx="8"></rect>
    </defs>
    <g id="January" stroke="none" stroke-width="1" fill="none" fill-rule="evenodd" sketch:type="MSPage">
        <g id="19-01-2015---amplifier" sketch:type="MSArtboardGroup">
            <g id="amplifier" sketch:type="MSLayerGroup" transform="translate(48.000000, 26.000000)">
                <g id="body" transform="translate(0.000000, 68.000000)">
                    <mask id="mask-2" sketch:name="Rectangle 88" fill="white">
                        <use xlink:href="#path-1"></use>
                    </mask>
                    <use id="Rectangle-88" stroke="#4C4C4C" stroke-width="4" sketch:type="MSShapeGroup" xlink:href="#path-1"></use>
                    <g id="Group" mask="url(#mask-2)" stroke-linecap="square" stroke="#4C4C4C" stroke-width="2" sketch:type="MSShapeGroup">
                        <g transform="translate(-113.000000, -12.000000)">
                            <path d="M90.5,0.5 L233.39856,143.39856" id="Line"></path>
                            <path d="M60.5,0.5 L203.39856,143.39856" id="Line-7"></path>
                            <path d="M30.5,0.5 L173.39856,143.39856" id="Line-8"></path>
                            <path d="M0.5,0.5 L143.39856,143.39856" id="Line-9"></path>
                            <path d="M120.5,0.5 L263.39856,143.39856" id="Line-2"></path>
                            <path d="M150.5,0.5 L293.39856,143.39856" id="Line-3"></path>
                            <path d="M180.5,0.5 L323.39856,143.39856" id="Line-4"></path>
                            <path d="M210.5,0.5 L353.39856,143.39856" id="Line-5"></path>
                            <path d="M240.5,0.5 L383.39856,143.39856" id="Line-6"></path>
                        </g>
                    </g>
                    <g id="Group-2" mask="url(#mask-2)" stroke-linecap="square" stroke="#4C4C4C" stroke-width="2" sketch:type="MSShapeGroup">
                        <g transform="translate(79.000000, 60.000000) scale(-1, 1) translate(-79.000000, -60.000000) translate(-113.000000, -12.000000)">
                            <path d="M90.5,0.5 L233.39856,143.39856" id="Line"></path>
                            <path d="M60.5,0.5 L203.39856,143.39856" id="Line-7"></path>
                            <path d="M30.5,0.5 L173.39856,143.39856" id="Line-8"></path>
                            <path d="M0.5,0.5 L143.39856,143.39856" id="Line-9"></path>
                            <path d="M120.5,0.5 L263.39856,143.39856" id="Line-2"></path>
                            <path d="M150.5,0.5 L293.39856,143.39856" id="Line-3"></path>
                            <path d="M180.5,0.5 L323.39856,143.39856" id="Line-4"></path>
                            <path d="M210.5,0.5 L353.39856,143.39856" id="Line-5"></path>
                            <path d="M240.5,0.5 L383.39856,143.39856" id="Line-6"></path>
                        </g>
                    </g>
                </g>
                <g id="head" sketch:type="MSShapeGroup">
                    <rect id="Rectangle-89" stroke="#4C4C4C" stroke-width="4" x="0" y="12" width="160" height="60" rx="8"></rect>
                    <rect id="Rectangle-90" stroke="#4C4C4C" stroke-width="2" x="16" y="14" width="129" height="42" rx="8"></rect>
                    <rect id="Rectangle-91" stroke="#4C4C4C" stroke-width="2" x="60" y="0" width="40" height="14" rx="8"></rect>
                    <circle id="Oval-128" stroke="#4C4C4C" stroke-width="2" cx="28" cy="35" r="4"></circle>
                    <circle id="Oval-132" stroke="#4C4C4C" stroke-width="2" cx="28" cy="35" r="4"></circle>
                    <circle id="Oval-133" fill="#4C4C4C" cx="131" cy="35" r="4"></circle>
                    <path d="M53,44 C57.9705627,44 62,39.9705627 62,35 C62,30.0294373 57.9705627,26 53,26 C48.0294373,26 44,30.0294373 44,35 C44,39.9705627 48.0294373,44 53,44 Z M52,28.9989566 C52,28.4472481 52.4438648,28 53,28 C53.5522847,28 54,28.4426603 54,28.9989566 L54,30.0010434 C54,30.5527519 53.5561352,31 53,31 C52.4477153,31 52,30.5573397 52,30.0010434 L52,28.9989566 Z" id="Oval-129" fill="#4C4C4C" transform="translate(53.000000, 35.000000) rotate(58.000000) translate(-53.000000, -35.000000) "></path>
                    <path d="M79.2971053,44 C84.267668,44 88.2971053,39.9705627 88.2971053,35 C88.2971053,30.0294373 84.267668,26 79.2971053,26 C74.3265425,26 70.2971053,30.0294373 70.2971053,35 C70.2971053,39.9705627 74.3265425,44 79.2971053,44 Z M78.2971053,28.9989566 C78.2971053,28.4472481 78.7409701,28 79.2971053,28 C79.84939,28 80.2971053,28.4426603 80.2971053,28.9989566 L80.2971053,30.0010434 C80.2971053,30.5527519 79.8532404,31 79.2971053,31 C78.7448205,31 78.2971053,30.5573397 78.2971053,30.0010434 L78.2971053,28.9989566 Z" id="Oval-130" fill="#4C4C4C" transform="translate(79.297105, 35.000000) rotate(81.000000) translate(-79.297105, -35.000000) "></path>
                    <path d="M106,44 C110.970563,44 115,39.9705627 115,35 C115,30.0294373 110.970563,26 106,26 C101.029437,26 97,30.0294373 97,35 C97,39.9705627 101.029437,44 106,44 Z M105,28.9989566 C105,28.4472481 105.443865,28 106,28 C106.552285,28 107,28.4426603 107,28.9989566 L107,30.0010434 C107,30.5527519 106.556135,31 106,31 C105.447715,31 105,30.5573397 105,30.0010434 L105,28.9989566 Z" id="Oval-131" fill="#4C4C4C" transform="translate(106.000000, 35.000000) rotate(51.000000) translate(-106.000000, -35.000000) "></path>
                </g>
            </g>
        </g>
    </g>
</svg>