<?xml version="1.0" encoding="UTF-8" standalone="no"?>
<svg width="256px" height="256px" viewBox="0 0 256 256" version="1.1" xmlns="http://www.w3.org/2000/svg" xmlns:xlink="http://www.w3.org/1999/xlink" xmlns:sketch="http://www.bohemiancoding.com/sketch/ns">
    <!-- Generator: Sketch 3.2.2 (9983) - http://www.bohemiancoding.com/sketch -->
    <title>20-01-2015 - paintbrush</title>
    <desc>Created with Sketch.</desc>
    <defs></defs>
    <g id="January" stroke="none" stroke-width="1" fill="none" fill-rule="evenodd" sketch:type="MSPage">
        <g id="20-01-2015---paintbrush" sketch:type="MSArtboardGroup" stroke="#4C4C4C">
            <g id="paintbrush" sketch:type="MSLayerGroup" transform="translate(127.292893, 128.500000) rotate(-45.000000) translate(-127.292893, -128.500000) translate(104.792893, 6.500000)">
                <g id="Rectangle-95-+-Rectangle-96-+-Rectangle-97" transform="translate(0.000000, 146.000000)" stroke-width="2" sketch:type="MSShapeGroup">
                    <rect id="Rectangle-95" x="1" y="24" width="44" height="8" rx="8"></rect>
                    <rect id="Rectangle-96" x="1" y="0" width="44" height="8" rx="8"></rect>
                    <rect id="Rectangle-97" x="4.52" y="6" width="36.96" height="20"></rect>
                </g>
                <path d="M23,1 C43,1 43,148 43,148 L3,148 C3,148 3,1 23,1 Z" id="Rectangle-98" stroke-width="4" fill="#4C4C4C" sketch:type="MSShapeGroup"></path>
                <path d="M8.7640792,178 C8.7640792,178 -7.87954006,200 7.65450458,219 C7.65450458,219 19.8598254,234 16.5311018,241 C13.2023782,248 29.8459967,239 39.8321685,220 C49.8183403,201 38.7225939,178 38.7225939,178 L8.7640792,178 Z" id="Path-88" stroke-width="4" sketch:type="MSShapeGroup"></path>
                <path d="M18,236.087238 C18,236.087238 15.1406442,242.068292 27,223.315429 C41.9999998,199.596354 31,185 31,185" id="Line" stroke-width="2" stroke-linecap="square" sketch:type="MSShapeGroup"></path>
            </g>
        </g>
    </g>
</svg>