<?xml version="1.0" encoding="UTF-8" standalone="no"?>
<svg width="256px" height="256px" viewBox="0 0 256 256" version="1.1" xmlns="http://www.w3.org/2000/svg" xmlns:xlink="http://www.w3.org/1999/xlink" xmlns:sketch="http://www.bohemiancoding.com/sketch/ns">
    <!-- Generator: Sketch 3.2.2 (9983) - http://www.bohemiancoding.com/sketch -->
    <title>22-01-2015 - beer</title>
    <desc>Created with Sketch.</desc>
    <defs></defs>
    <g id="January" stroke="none" stroke-width="1" fill="none" fill-rule="evenodd" sketch:type="MSPage">
        <g id="22-01-2015---beer" sketch:type="MSArtboardGroup" stroke="#4C4C4C">
            <g id="Rectangle-104-+-Path-92" sketch:type="MSLayerGroup" transform="translate(43.000000, 72.000000)" stroke-width="4">
                <path d="M109.096998,12.7301458 C110.372495,12.9080363 111.675508,13 113,13 C122.703838,13 131.254732,8.06366313 136.278556,0.56511648 L136.278556,0.56511648 L149.577908,146.026729 C149.980515,150.430245 146.732387,154 142.315579,154 L7.68437638,154 C3.27089579,154 0.0198818253,150.425418 0.422047641,146.026729 L12.8308494,10.3054599 C16.1669845,12.0261233 19.9673419,13 24,13 C27.24853,13 30.3463155,12.3680322 33.1721216,11.2228059 L33.1721243,11.2228048 C36.9549588,17.0885894 43.748418,21 51.5,21 C58.444209,21 64.6194894,17.8609496 68.5501995,12.9898558 C68.8658726,12.9966057 69.1824874,13 69.5,13 C74.1046561,13 78.5205075,12.286116 82.6133831,10.976837 C85.8123931,15.8553556 90.8427028,19 96.5,19 C101.446768,19 105.914152,16.5956558 109.096998,12.7301458 Z" id="Rectangle-104" sketch:type="MSShapeGroup"></path>
                <path d="M138.028098,37.3696168 C137.714854,33.8858133 137.373826,30.1120889 137,25.9999995 C194,-9.99999993 218.801709,121.86534 145,112.000001 C144.535326,107.539127 144.132121,103.623986 143.773739,100.093803 C199.059655,106.364943 181.240983,11.084092 138.028098,37.3696168 Z" id="Path-92" sketch:type="MSShapeGroup"></path>
            </g>
            <path d="M152.096998,86.7301458 C153.372495,86.9080363 154.675508,87 156,87 C159.734505,87 163.298249,86.2688882 166.55591,84.9419878 L166.55591,84.9419878 C166.629395,85.2780836 166.682451,85.6207422 166.713604,85.968615 L177.286393,204.031386 C177.680507,208.43233 174.422373,212 170.007294,212 L66.9927062,212 C62.5784565,212 59.2661865,208.433101 59.5955982,204.018984 L68.3310094,86.9644719 C71.0951874,86.8165261 73.7348217,86.2105807 76.1721219,85.2228058 L76.1721243,85.2228048 C79.9549588,91.0885894 86.748418,95 94.5,95 C101.444209,95 107.619489,91.8609496 111.550199,86.9898558 C111.865873,86.9966057 112.182487,87 112.5,87 C117.104656,87 121.520508,86.286116 125.613383,84.976837 C128.812393,89.8553556 133.842703,93 139.5,93 C144.446768,93 148.914152,90.5956558 152.096998,86.7301458 Z" id="Rectangle-105" stroke-width="2" sketch:type="MSShapeGroup"></path>
            <path d="M79,106 C81.209139,106 83,104.209139 83,102 C83,99.790861 81.209139,98 79,98 C76.790861,98 75,99.790861 75,102 C75,104.209139 76.790861,106 79,106 Z" id="Oval-149" sketch:type="MSShapeGroup"></path>
            <path d="M79.5,132 C81.4329966,132 83,130.432997 83,128.5 C83,126.567003 81.4329966,125 79.5,125 C77.5670034,125 76,126.567003 76,128.5 C76,130.432997 77.5670034,132 79.5,132 Z" id="Oval-151" sketch:type="MSShapeGroup"></path>
            <path d="M83,116 C84.6568542,116 86,114.656854 86,113 C86,111.343146 84.6568542,110 83,110 C81.3431458,110 80,111.343146 80,113 C80,114.656854 81.3431458,116 83,116 Z" id="Oval-150" sketch:type="MSShapeGroup"></path>
            <path d="M152.096998,86.7301458 C153.372495,86.9080363 154.675508,87 156,87 C171.463973,87 184,74.463973 184,59 C184,43.536027 171.463973,31 156,31 C151.761828,31 147.743584,31.9416181 144.143058,33.6270622 L144.143058,33.6270622 C137.190634,24.7873516 125.610622,19 112.5,19 C95.693869,19 81.4028289,28.5097419 76.1502382,41.7683378 C73.3303254,40.6287101 70.2401464,40 67,40 C53.745166,40 43,50.5213084 43,63.5 C43,76.4786916 53.745166,87 67,87 C70.24853,87 73.3463155,86.3680322 76.1721216,85.2228059 L76.1721243,85.2228048 C79.9549588,91.0885894 86.748418,95 94.5,95 C101.444209,95 107.619489,91.8609496 111.550199,86.9898558 C111.865873,86.9966057 112.182487,87 112.5,87 C117.104656,87 121.520508,86.286116 125.613383,84.976837 C128.812393,89.8553556 133.842703,93 139.5,93 C144.446768,93 148.914152,90.5956558 152.096998,86.7301458 Z" id="Oval-139" stroke-width="4" sketch:type="MSShapeGroup"></path>
        </g>
    </g>
</svg>