<?xml version="1.0" encoding="UTF-8" standalone="no"?>
<svg width="256px" height="256px" viewBox="0 0 256 256" version="1.1" xmlns="http://www.w3.org/2000/svg" xmlns:xlink="http://www.w3.org/1999/xlink" xmlns:sketch="http://www.bohemiancoding.com/sketch/ns">
    <!-- Generator: Sketch 3.2.2 (9983) - http://www.bohemiancoding.com/sketch -->
    <title>23-01-2015 - note</title>
    <desc>Created with Sketch.</desc>
    <defs></defs>
    <g id="January" stroke="none" stroke-width="1" fill="none" fill-rule="evenodd" sketch:type="MSPage">
        <g id="23-01-2015---note" sketch:type="MSArtboardGroup" stroke="#4C4C4C" stroke-width="4">
            <g id="note" sketch:type="MSLayerGroup" transform="translate(-2.000000, -6.000000)">
                <path d="M124.868268,39.7755944 C124.378154,36.5265059 121.575402,34.038174 118.191235,34.038174 C114.469252,34.038174 111.438247,37.0621384 111.438247,40.7923877 L111.438247,165.641492 C102.286475,159.391531 89.5311084,155.513634 75.4223108,155.513634 C47.5748375,155.513634 25,170.620971 25,189.256817 C25,207.892662 47.5748375,223 75.4223108,223 C103.269784,223 125.844622,207.892662 125.844622,189.256817 C125.844622,187.075156 125.535235,184.941854 124.944223,182.875486 L124.944223,182.875486 L124.944223,80.2936912 C129.987629,77.4810467 156.01451,65.3101257 197.876494,86.2276304 C204.179283,89.8269067 236.593625,92.5263579 251,74.5299936 C209.581673,70.9307224 205.079681,64.6319938 178.067729,41.2367196 C156.14149,20.9477288 129.820673,36.5246746 124.868268,39.7755944 Z" id="Oval-152" sketch:type="MSShapeGroup" transform="translate(138.000000, 127.000000) rotate(-18.000000) translate(-138.000000, -127.000000) "></path>
            </g>
        </g>
    </g>
</svg>