<?xml version="1.0" encoding="UTF-8" standalone="no"?>
<svg width="100px" height="100px" viewBox="0 0 100 100" version="1.1" xmlns="http://www.w3.org/2000/svg" xmlns:xlink="http://www.w3.org/1999/xlink" xmlns:sketch="http://www.bohemiancoding.com/sketch/ns">
    <!-- Generator: Sketch 3.2.2 (9983) - http://www.bohemiancoding.com/sketch -->
    <title>26-01-2015 - envelope</title>
    <desc>Created with Sketch.</desc>
    <defs></defs>
    <g id="January" stroke="none" stroke-width="1" fill="none" fill-rule="evenodd" sketch:type="MSPage">
        <g id="26-01-2015---envelope" sketch:type="MSArtboardGroup" fill="#000000">
            <path d="M55.5108781,48.3625586 C65.7199717,42.5200188 86,29 86,29 L50,48 L14,29 C14,29 34.2800283,42.5200188 44.4891219,48.3625586 L44.4891219,48.3625586 L14,70 L46.3598587,49.4073626 C48.1989857,50.4036679 49.5060829,51 50,51 C50.4939171,51 51.8010143,50.4036679 53.6401413,49.4073626 L86,70 L55.5108781,48.3625586 Z M10,26.9909141 C10,25.8913626 10.8984375,25 11.9974983,25 L88.0025017,25 C89.1056896,25 90,25.8890643 90,26.9909141 L90,73.0090859 C90,74.1086374 89.1015625,75 88.0025017,75 L11.9974983,75 C10.8943104,75 10,74.1109357 10,73.0090859 L10,26.9909141 Z M12,28.0035552 C12,27.449307 12.4463193,27 13.0027563,27 L86.9972437,27 C87.5510507,27 88,27.4552782 88,28.0035552 L88,71.9964448 C88,72.550693 87.5536807,73 86.9972437,73 L13.0027563,73 C12.4489493,73 12,72.5447218 12,71.9964448 L12,28.0035552 Z" id="Rectangle-113" sketch:type="MSShapeGroup"></path>
        </g>
    </g>
</svg>