<?xml version="1.0" encoding="UTF-8" standalone="no"?>
<svg width="100px" height="100px" viewBox="0 0 100 100" version="1.1" xmlns="http://www.w3.org/2000/svg" xmlns:xlink="http://www.w3.org/1999/xlink" xmlns:sketch="http://www.bohemiancoding.com/sketch/ns">
    <!-- Generator: Sketch 3.2.2 (9983) - http://www.bohemiancoding.com/sketch -->
    <title>27-01-2015 - comment</title>
    <desc>Created with Sketch.</desc>
    <defs></defs>
    <g id="January" stroke="none" stroke-width="1" fill="none" fill-rule="evenodd" sketch:type="MSPage">
        <g id="27-01-2015---comment" sketch:type="MSArtboardGroup" fill="#000000">
            <path d="M28.0566836,64.5047797 C18.3413066,60.0668251 12,52.7608697 12,44.5 C12,30.9690236 29.0131795,20 50,20 C70.9868205,20 88,30.9690236 88,44.5 C88,58.0309764 70.9868205,69 50,69 C47.1018876,69 44.2795502,68.7908272 41.5673252,68.3946203 C29.8796914,79 25,79 25,79 C25,79 28.8330558,72.2921524 28.0566836,64.5047797 Z M26.1914241,65.7966091 C16.3670532,60.9680796 10,53.2266433 10,44.5 C10,29.8644541 27.90861,18 50,18 C72.09139,18 90,29.8644541 90,44.5 C90,59.1355459 72.09139,71 50,71 C47.1131376,71 44.2977036,70.7973933 41.584328,70.4124722 C29.8156124,82 22,82 22,82 C22,82 27.5599664,72.7333893 26.1914241,65.7966091 L26.1914241,65.7966091 Z" id="Oval-157" sketch:type="MSShapeGroup"></path>
        </g>
    </g>
</svg>