<?xml version="1.0" encoding="UTF-8" standalone="no"?>
<svg width="100px" height="100px" viewBox="0 0 100 100" version="1.1" xmlns="http://www.w3.org/2000/svg" xmlns:xlink="http://www.w3.org/1999/xlink" xmlns:sketch="http://www.bohemiancoding.com/sketch/ns">
    <!-- Generator: Sketch 3.2.2 (9983) - http://www.bohemiancoding.com/sketch -->
    <title>28-01-2015 - icecream</title>
    <desc>Created with Sketch.</desc>
    <defs></defs>
    <g id="January" stroke="none" stroke-width="1" fill="none" fill-rule="evenodd" sketch:type="MSPage">
        <g id="28-01-2015---icecream" sketch:type="MSArtboardGroup" fill="#000000">
            <path d="M63.3509589,53.8461491 C65.7510956,47.159281 67.8060085,41.3710477 68.8028131,38.5568784 L68.8028131,38.5568784 C66.9213918,39.4782609 64.7764996,40 62.5,40 C59.7005814,40 57.1001755,39.2110419 54.9439852,37.8601653 C53.0345157,40.0596572 48.8615752,41.0004548 45.1569211,43.0900705 L45.1569211,43.0900705 C45.0293824,44.8365779 44,47.9265245 44,49 C44,51.7614237 41.8807119,54 40.5,54 C39.2868439,54 39.0475293,52.2717797 39.0073115,49.9791687 C39.0048695,49.9861067 39.0024323,49.9930505 39,50 C37.5604506,45.2015019 34.2788544,41.7623328 31.2544877,38.7200654 C33.4457143,44.915534 49.0702682,89 50,89 C50.2393863,89 51.485346,85.9858488 53.2406042,81.4052688 L53.2406042,81.4052688 L44,62 L53.4408502,80.8817003 C54.3985537,78.373019 55.4962418,75.4329154 56.6581197,72.2820514 L47,52 L56.8630143,71.7260287 L56.8630143,71.7260287 C57.895702,68.9217605 58.9750053,65.9631458 60.0486911,63.0022514 L60.0486911,63.0022514 L51,44 L60.2388432,62.4776864 C61.2312732,59.7389547 62.2162566,57.005957 63.1524468,54.3990662 L55,39 L63.3509589,53.8461491 Z M64,55.8218036 C66.6511736,47.7083399 68.8425347,40.7177905 69.6581939,38.1000856 L69.6581939,38.1000856 C73.4671804,35.8901869 76,31.9689693 76,27.5 C76,21.6570405 71.6703251,16.7504233 65.819588,15.3807157 L65.819588,15.3807157 C63.7074823,11.0297633 58.9858663,8 53.5,8 C47.9807854,8 43.2351409,11.0667108 41.1421835,15.4602095 C39.9835431,15.1603366 38.7619938,15 37.5,15 C30.0441559,15 24,20.5964406 24,27.5 C24,31.8216452 26.3685782,35.6310578 29.9693104,37.8759933 C29.9762427,37.9132464 29.9863729,37.9544812 30,38 C32.6137005,46.7305546 47.2992313,92 50,92 C51.4837562,92 56.3921184,78.5461913 60.974618,64.9466883 L60.9746161,64.9466938 L61,65 L61,64.8713506 C62.0181571,61.8488498 63.0198772,58.8203666 63.9639915,55.9319839 L64,56 L64,55.8218036 Z M39.0254504,46.5376609 C37.0312946,42.5210177 33.5695372,39.7263017 30.5843147,37.1619405 C28.7377102,36.0963173 27.3011667,34.6211273 26.3477553,32.8805466 C25.5107113,31.6863666 25,30.4241974 25,29 C25,28.7788286 25.0103092,28.5636175 25.0305122,28.3542119 L25.0305122,28.3542119 C25.0102325,28.0721792 25,27.7873201 25,27.5 C25,21.1487254 30.8202983,16 38,16 C39.2329609,16 40.425832,16.1518398 41.5560215,16.4355343 C43.1366304,11.7097278 47.9360401,9 54,9 C59.615941,9 63.5799342,11.8914681 65.1943552,16.2687337 L65.1943552,16.2687337 C70.985348,17.2834728 75,21.1253865 75,27 C75,33.9035594 69.4558441,39 62,39 C59.1965242,39 56.6633303,38.3501373 54.5935271,37.1721163 C52.4909985,39.074818 48.4105629,39.8035522 45,42 L45,42 C44.8126426,41.758585 44.4542494,41.7882054 44.0162798,41.9614608 C43.7984486,43.9817635 43.2415787,46.881861 43.2415787,47.6396218 C43.2415787,49.720868 42.0275265,53.3084049 41,53 C40.115815,52.734618 40,52.2378431 40,50 C40,49.0972368 39.5288517,47.7836722 39.0254504,46.5376609 L39.0254504,46.5376609 Z" id="Oval-159" sketch:type="MSShapeGroup"></path>
        </g>
    </g>
</svg>