<?xml version="1.0" encoding="UTF-8" standalone="no"?>
<svg width="100px" height="100px" viewBox="0 0 100 100" version="1.1" xmlns="http://www.w3.org/2000/svg" xmlns:xlink="http://www.w3.org/1999/xlink" xmlns:sketch="http://www.bohemiancoding.com/sketch/ns">
    <!-- Generator: Sketch 3.2.2 (9983) - http://www.bohemiancoding.com/sketch -->
    <title>29-01-2015 - lightbulb</title>
    <desc>Created with Sketch.</desc>
    <defs></defs>
    <g id="January" stroke="none" stroke-width="1" fill="none" fill-rule="evenodd" sketch:type="MSPage">
        <g id="29-01-2015---lightbulb" sketch:type="MSArtboardGroup" fill="#000000">
            <path d="M59.0000008,65 L61.7863424,65 L61.7863424,66.799383 C62.7716352,66.8307646 63.6060487,67.577115 63.712388,68.5888657 C63.827847,69.6873843 63.0280278,70.6718115 61.9251114,70.7877327 L61.7863424,70.8023179 L61.7863424,71.799383 C62.7716352,71.8307646 63.6060487,72.577115 63.712388,73.5888657 C63.827847,74.6873843 63.0280278,75.6718115 61.9251114,75.7877327 L61.7863424,75.8023179 L61.7863424,75.8023179 L61.7863424,76.799383 L61.7863424,76.799383 C62.7716352,76.8307646 63.6060487,77.577115 63.712388,78.5888657 C63.827847,79.6873843 63.0280278,80.6718115 61.9251114,80.7877327 L61.7863424,80.8023179 L61.7863424,81.00077 C61.7863424,83.2094838 60.0007095,85 57.7800482,85 L52.7016962,85 C52.4973185,85.5825962 51.9449116,86 51.2877664,86 L48.2849184,86 C47.6315805,86 47.0758933,85.5851089 46.8708134,85 L46.8708134,85 L42.7926367,85 C41.3743528,85 40.1282012,84.2635117 39.4162526,83.153509 L39.0656873,83.1903549 C37.9631428,83.306237 36.9765608,82.5173115 36.8602968,81.4111343 C36.7448379,80.3126157 37.544657,79.3281885 38.6475735,79.2122673 L38.7863424,79.1976821 L38.7863424,78.200617 C37.8010497,78.1692354 36.9666361,77.422885 36.8602968,76.4111343 C36.7448379,75.3126157 37.544657,74.3281885 38.6475735,74.2122673 L38.7863424,74.1976821 L38.7863424,73.200617 L38.7863424,73.200617 C37.8010497,73.1692354 36.9666361,72.422885 36.8602968,71.4111343 C36.7448379,70.3126157 37.544657,69.3281885 38.6475735,69.2122673 L38.7863424,69.1976821 L38.7863424,65 L39.7863426,65 L39.7863426,65 C39.786162,64.9995484 35.7862067,54.9997742 29.7863423,45 C23.7863424,35 21.4917742,15 49.7863424,15 C78.2896302,15 75.7863437,34 69.7863437,45 C63.7863437,56 60.7863426,65 60.7863426,65 L59.0000008,65 C59.0001815,64.9995033 63.0001101,53.9997968 68.0000008,45 C73.0000044,36 78.5032871,17 49.9999994,17 C21.7054311,17 26.9999997,37 31.9999999,45 C36.9998872,52.9998194 41.9997741,64.9994581 41.9999999,65 L39.7863426,65 L59.0000008,65 Z M59.7863424,71.0125263 L59.7863424,71.9904932 L59.7863424,71.9904932 L40.7863424,73.9874737 L40.7863424,73.0095068 L59.7863424,71.0125263 L59.7863424,71.0125263 Z M59.6958913,67 L40.7863424,67 L40.7863424,68.9874737 L59.6958913,67 L59.6958913,67 Z M59.7863424,76.0125263 L59.7863424,76.9904932 L59.7863424,76.9904932 L40.7863424,78.9874737 L40.7863424,78.0095068 L59.7863424,76.0125263 Z M59.7863318,81.0125274 C59.7827873,82.1107869 58.8932099,83 57.7889205,83 L42.7837643,83 C42.5368719,83 42.3004416,82.9551939 42.0821574,82.8733112 L59.7863331,81.0125273 L59.7863318,81.0125274 Z M37.8548187,81.3066058 C37.7970893,80.7573465 38.2030592,80.264496 38.7402941,80.2080303 L61.6233338,77.8029259 C62.1700979,77.7454587 62.6597342,78.1403056 62.7178661,78.6933942 C62.7755956,79.2426535 62.3696257,79.735504 61.8323908,79.7919697 L38.949351,82.1970741 C38.402587,82.2545413 37.9129507,81.8596944 37.8548187,81.3066058 Z M37.8548187,76.3066058 C37.7970893,75.7573465 38.2030592,75.264496 38.7402941,75.2080303 L61.6233338,72.8029259 C62.1700979,72.7454587 62.6597342,73.1403056 62.7178661,73.6933942 C62.7755956,74.2426535 62.3696257,74.735504 61.8323908,74.7919697 L38.949351,77.1970741 C38.402587,77.2545413 37.9129507,76.8596944 37.8548187,76.3066058 Z M37.8548187,71.3066058 C37.7970893,70.7573465 38.2030592,70.264496 38.7402941,70.2080303 L61.6233338,67.8029259 C62.1700979,67.7454587 62.6597342,68.1403056 62.7178661,68.6933942 C62.7755956,69.2426535 62.3696257,69.735504 61.8323908,69.7919697 L38.949351,72.1970741 C38.402587,72.2545413 37.9129507,71.8596944 37.8548187,71.3066058 Z" id="Rectangle-115" sketch:type="MSShapeGroup"></path>
        </g>
    </g>
</svg>