<?xml version="1.0" encoding="UTF-8" standalone="no"?>
<svg width="100px" height="100px" viewBox="0 0 100 100" version="1.1" xmlns="http://www.w3.org/2000/svg" xmlns:xlink="http://www.w3.org/1999/xlink" xmlns:sketch="http://www.bohemiancoding.com/sketch/ns">
    <!-- Generator: Sketch 3.2.2 (9983) - http://www.bohemiancoding.com/sketch -->
    <title>30-01-2015 - thermometer</title>
    <desc>Created with Sketch.</desc>
    <defs></defs>
    <g id="January" stroke="none" stroke-width="1" fill="none" fill-rule="evenodd" sketch:type="MSPage">
        <g id="30-01-2015---thermometer" sketch:type="MSArtboardGroup" fill="#000000">
            <path d="M55,70.1994192 C58.5616759,72.0201302 61,75.7253145 61,80 C61,86.0751322 56.0751322,91 50,91 C43.9248678,91 39,86.0751322 39,80 C39,75.7253145 41.4383241,72.0201302 45,70.1994192 L45,67.5 L45,13.991886 C45,11.2349435 47.2441952,9 50,9 C52.7614237,9 55,11.2433664 55,13.991886 L55,67.5 L55,70.1994192 Z M57,69.0436358 C60.6083127,71.3537742 63,75.3975829 63,80 C63,87.1797017 57.1797017,93 50,93 C42.8202983,93 37,87.1797017 37,80 C37,75.3975829 39.3916873,71.3537742 43,69.0436358 L43,13.9979695 C43,10.1330977 46.1418733,7 50,7 C53.8659932,7 57,10.1241798 57,13.9979695 L57,69.0436358 L57,69.0436358 Z M54,70.8320874 C57.5318096,72.3752006 60,75.8993619 60,80 C60,85.5228475 55.5228475,90 50,90 C44.4771525,90 40,85.5228475 40,80 C40,75.8993619 42.4681904,72.3752006 46,70.8320874 L46,56 L54,56 L54,70.8320874 Z M45,50 L50,50 L50,51 L45,51 L45,50 Z M45,44 L48,44 L48,45 L45,45 L45,44 Z M45,38 L50,38 L50,39 L45,39 L45,38 Z M45,32 L48,32 L48,33 L45,33 L45,32 Z M45,26 L50,26 L50,27 L45,27 L45,26 Z M45,20 L48,20 L48,21 L45,21 L45,20 Z M45,14 L50,14 L50,15 L45,15 L45,14 Z" id="Path" sketch:type="MSShapeGroup"></path>
        </g>
    </g>
</svg>