<?xml version="1.0" encoding="UTF-8" standalone="no"?>
<svg width="100px" height="100px" viewBox="0 0 100 100" version="1.1" xmlns="http://www.w3.org/2000/svg" xmlns:xlink="http://www.w3.org/1999/xlink" xmlns:sketch="http://www.bohemiancoding.com/sketch/ns">
    <!-- Generator: Sketch 3.2.2 (9983) - http://www.bohemiancoding.com/sketch -->
    <title>31-01-2015 - carrot</title>
    <desc>Created with Sketch.</desc>
    <defs></defs>
    <g id="January" stroke="none" stroke-width="1" fill="none" fill-rule="evenodd" sketch:type="MSPage">
        <g id="31-01-2015---carrot" sketch:type="MSArtboardGroup" fill="#000000">
            <path d="M49.36772,24 L44.2165614,24 C37.7446238,24 33.229044,29.1881385 34.1097577,35.5880317 C34.1097577,35.5880317 41.5061957,96 50.4973079,96 C59.48842,96 66.8848581,35.5880317 66.8848581,35.5880317 C67.7912231,29.1925357 63.2406016,24 56.7780543,24 L53.4948481,24 C53.8145674,17.8039427 69.2151042,11.7582359 65.3899135,10.2079208 C61.43236,8.60396035 54.3087615,15.019802 54.3087615,15.0198021 C54.3087616,15.0198021 53.5172507,7.00000003 51.1427183,7 C48.7681859,6.99999997 48.7681874,15.8217823 48.7681865,15.019802 C48.7681856,14.2178218 44.4148771,11.8118812 40.8530785,11.009901 C37.2912798,10.2079208 30.563438,14.2178218 39.2700568,15.8217822 C46.3872382,17.1329315 48.7443165,22.195354 49.36772,24 Z M64.3230308,44 C63.4897787,49.9789548 62.2610737,58.1002415 60.7488019,66.0674405 C60.6759818,66.0247562 60.5916379,66 60.5017326,66 L47.4982674,66 C47.2199066,66 47,66.2238576 47,66.5 C47,66.7680664 47.2230819,67 47.4982674,67 L60.5017326,67 C60.5253603,67 60.5485668,66.9983871 60.5712535,66.9952663 L60.5712535,66.9952663 C57.8744103,80.9735701 54.3147307,94.2 50.5000005,94.2 C47.7245212,94.2 45.0835036,87.1985023 42.8114104,78 L42.8114104,78 L51.4903505,78 C51.7723472,78 52,77.7761424 52,77.5 C52,77.2319336 51.7718221,77 51.4903505,77 L42.5678913,77 C40.9140848,70.1128972 39.4650054,62.1275097 38.3143491,54.9638039 L38.3143491,54.9638039 C38.3712526,54.9870761 38.4333083,55 38.4982674,55 L51.5017326,55 C51.7800934,55 52,54.7761424 52,54.5 C52,54.2319336 51.7769181,54 51.5017326,54 L38.4982674,54 C38.3759199,54 38.264865,54.043246 38.1788114,54.1151696 C36.4763713,43.3951477 35.4635924,34.7245548 35.4635924,34.7245548 C34.8283072,29.7956593 38.3472912,25.8 43.3081012,25.8 L57.6865158,25.8 C62.6542036,25.8 66.1826237,29.7982114 65.5317271,34.7245548 C65.5317271,34.7245548 65.150082,37.9940939 64.4614911,43 L46.5082041,43 C46.2266151,43 46,43.2238576 46,43.5 C46,43.7680664 46.2275307,44 46.5082041,44 L64.3230308,44 L64.3230308,44 Z" id="Rectangle-138" sketch:type="MSShapeGroup" transform="translate(50.499944, 51.500000) rotate(-45.000000) translate(-50.499944, -51.500000) "></path>
        </g>
    </g>
</svg>