<?xml version="1.0" encoding="UTF-8" standalone="no"?>
<svg width="100px" height="100px" viewBox="0 0 100 100" version="1.1" xmlns="http://www.w3.org/2000/svg" xmlns:xlink="http://www.w3.org/1999/xlink" xmlns:sketch="http://www.bohemiancoding.com/sketch/ns">
    <!-- Generator: Sketch 3.2.2 (9983) - http://www.bohemiancoding.com/sketch -->
    <title>01-02-2015 - poison</title>
    <desc>Created with Sketch.</desc>
    <defs></defs>
    <g id="January" stroke="none" stroke-width="1" fill="none" fill-rule="evenodd" sketch:type="MSPage">
        <g id="01-02-2015---poison" sketch:type="MSArtboardGroup" fill="#000000">
            <path d="M47.7233301,71.449677 L40.246279,74.1711011 C39.7518181,74.3510701 39.5032608,74.8940099 39.6826477,75.3868713 C39.8632852,75.8831688 40.4052245,76.1345 40.8958964,75.9559101 L50.5,72.4603022 L60.1041036,75.9559101 C60.5985645,76.1358791 61.1379655,75.8797327 61.3173523,75.3868713 C61.4979899,74.8905738 61.2443929,74.349691 60.753721,74.1711011 L53.2766699,71.449677 L60.753721,68.728253 C61.2481819,68.5482839 61.4967392,68.0053442 61.3173523,67.5124828 C61.1367148,67.0161852 60.5947755,66.764854 60.1041036,66.943444 L50.5,70.4390518 L40.8958964,66.943444 C40.4014355,66.7634749 39.8620345,67.0196214 39.6826477,67.5124828 C39.5020101,68.0087803 39.7556071,68.549663 40.246279,68.728253 L47.7233301,71.449677 L47.7233301,71.449677 Z M42.8814401,25.7 C37.4066728,29.1850559 32.8683132,34.8065598 32.8683132,34.8065598 C30.1395399,37.6862558 28,43.3222537 28,47.297105 L28,78.802895 C28,82.7724011 31.2258196,86 35.2050696,86 L65.7949304,86 C69.7817701,86 73,82.7777463 73,78.802895 L73,47.297105 C73,43.3275989 70.820382,37.7300461 68.1316868,34.8065598 C68.1316868,34.8065598 63.5933272,29.1850559 58.1185599,25.7 L60.4006527,25.7 C62.3918848,25.7 64,24.0856041 64,22.0941459 L64,17.6058541 C64,15.6023028 62.3885173,14 60.4006527,14 L40.5993473,14 C38.6081152,14 37,15.6143959 37,17.6058541 L37,22.0941459 C37,24.0976972 38.6114827,25.7 40.5993473,25.7 L42.8814401,25.7 L42.8814401,25.7 Z M43.2999996,27.5181728 C45.5013667,26.4217562 55.3893043,26.2867655 57.6999998,27.5181728 C64.3618502,31.0683816 68.6729108,38.2692411 68.6729108,38.2692411 C70.0685836,40.2744539 69.2171395,41.9 66.7694748,41.9 L34.2305252,41.9 C31.7836137,41.9 30.864704,40.2397483 32.2617362,38.229811 C32.2617362,38.229811 36.346258,30.9815651 43.2999996,27.5181728 Z M46.0046045,65.8107144 C46.0046045,65.8107141 47.7543177,68.0728572 50.52889,68.0728572 C53.0646975,68.0728572 55.0531756,65.8107148 55.0531756,65.8107141 C55.0531756,65.8107133 58.069366,63.2054359 58.069366,61.5321465 C58.069366,57.7841056 55.1098289,54.5 50.52889,54.5 C45.9479512,54.5 42.9884141,57.7841054 42.9884141,61.5321464 C42.9884141,63.0100826 46.0046045,65.8107148 46.0046045,65.8107144 Z" id="Rectangle-1" sketch:type="MSShapeGroup"></path>
        </g>
    </g>
</svg>