<?xml version="1.0" encoding="UTF-8" standalone="no"?>
<svg width="100px" height="100px" viewBox="0 0 100 100" version="1.1" xmlns="http://www.w3.org/2000/svg" xmlns:xlink="http://www.w3.org/1999/xlink" xmlns:sketch="http://www.bohemiancoding.com/sketch/ns">
    <!-- Generator: Sketch 3.2.2 (9983) - http://www.bohemiancoding.com/sketch -->
    <title>02-02-2015 - tophat</title>
    <desc>Created with Sketch.</desc>
    <defs></defs>
    <g id="January" stroke="none" stroke-width="1" fill="none" fill-rule="evenodd" sketch:type="MSPage">
        <g id="02-02-2015---tophat" sketch:type="MSArtboardGroup" fill="#000000">
            <path d="M76.5429201,22.1898734 C76.5807741,22.3383999 76.6,22.4882403 76.6,22.6392405 C76.6,22.7807282 76.5831201,22.9211978 76.5498521,23.0605222 C76.5518236,23.0698794 76.5537375,23.0792412 76.5555938,23.0886076 L76.6,23.0886076 L76.5824444,23.2551516 C76.5941144,23.3490039 76.6,23.4432881 76.6,23.5379747 C76.6,23.7943671 76.5568455,24.0478093 76.4725465,24.2977132 L71.7496021,69.1025793 C70.2369728,69.828339 63.7365338,72.5189873 50.5,72.5189873 C37.2634662,72.5189873 30.7630272,69.828339 29.2503979,69.1025793 L29.2503979,69.1025793 L24.5274535,24.2977132 C24.4431545,24.0478093 24.4,23.7943671 24.4,23.5379747 C24.4,23.4432881 24.4058856,23.3490039 24.4175556,23.2551516 L24.4,23.0886076 L24.4444062,23.0886076 C24.4462625,23.0792412 24.4481764,23.0698794 24.4501479,23.0605222 L24.4501479,23.0605222 C24.4168799,22.9211978 24.4,22.7807282 24.4,22.6392405 C24.4,22.4882403 24.4192259,22.3383999 24.4570799,22.1898734 C24.4192259,22.041347 24.4,21.8915065 24.4,21.7405063 C24.4,18.0178275 36.085368,15 50.5,15 C64.914632,15 76.6,18.0178275 76.6,21.7405063 C76.6,21.8915065 76.5807741,22.041347 76.5429201,22.1898734 Z M24.6019284,22.5830696 C24.5347383,22.740778 24.4839725,22.8999792 24.4501479,23.0605222 L24.4501479,23.0605222 C25.2921932,26.5869569 36.6332244,29.3797468 50.5,29.3797468 C64.3667756,29.3797468 75.7078068,26.5869569 76.5498521,23.0605222 C76.5160275,22.8999792 76.4652617,22.740778 76.3980716,22.5830696 C74.7926016,25.9080869 63.8097526,28.4810127 50.5,28.4810127 C37.1902474,28.4810127 26.2073984,25.9080869 24.6019284,22.5830696 Z M71.8527882,70.4052351 C78.0920319,72.0473892 82,74.3998135 82,77.0126582 C82,81.97623 67.8969696,86 50.5,86 C33.1030304,86 19,81.97623 19,77.0126582 C19,74.3998135 22.9079681,72.0473892 29.1472118,70.4052351 L29.8,74.3164557 C29.8,74.3164557 30.7,78.8101266 50.5,78.8101266 C70.3,78.8101266 71.2,74.3164557 71.2,74.3164557 L71.8527882,70.4052351 L71.8527882,70.4052351 Z" id="Oval-2" sketch:type="MSShapeGroup"></path>
        </g>
    </g>
</svg>