<?xml version="1.0" encoding="UTF-8" standalone="no"?>
<svg width="100px" height="100px" viewBox="0 0 100 100" version="1.1" xmlns="http://www.w3.org/2000/svg" xmlns:xlink="http://www.w3.org/1999/xlink" xmlns:sketch="http://www.bohemiancoding.com/sketch/ns">
    <!-- Generator: Sketch 3.2.2 (9983) - http://www.bohemiancoding.com/sketch -->
    <title>03-02-2015 - sign</title>
    <desc>Created with Sketch.</desc>
    <defs></defs>
    <g id="January" stroke="none" stroke-width="1" fill="none" fill-rule="evenodd" sketch:type="MSPage">
        <g id="03-02-2015---sign" sketch:type="MSArtboardGroup" fill="#000000">
            <path d="M16,21.991155 C16,20.8914705 16.9023082,20 17.9930696,20 L70.0069304,20 C71.1076723,20 72.736184,20.5157042 73.6332958,21.1525307 C73.6332958,21.1525307 85,29 85,31 C85,33 73.6332958,40.8474693 73.6332958,40.8474693 C72.7312514,41.4839944 71.0976918,42 70.0069304,42 L17.9930696,42 C16.8923277,42 16,41.1103261 16,40.008845 L16,21.991155 Z M18,23.9950893 C18,22.8932319 18.8935033,22 20.0035868,22 L69.7469057,22 C70.3029004,22 71.1335618,22.2303735 71.6147646,22.5247678 C71.6147646,22.5247678 83,29.3636364 83,31 C83,32.6363636 71.6050417,39.4812038 71.6050417,39.4812038 C71.1348162,39.767727 70.2975651,40 69.7469057,40 L20.0035868,40 C18.8970364,40 18,39.1073772 18,38.0049107 L18,23.9950893 Z M43,42 L50,42 L50,88 L43,88 L43,42 Z M43,15.5089165 C43,13.5709954 44.5709366,12 46.5,12 C48.4329966,12 50,13.5614718 50,15.5089165 L50,20 L43,20 L43,15.5089165 Z" id="Rectangle-8" sketch:type="MSShapeGroup"></path>
        </g>
    </g>
</svg>