<?xml version="1.0" encoding="UTF-8" standalone="no"?>
<svg width="100px" height="100px" viewBox="0 0 100 100" version="1.1" xmlns="http://www.w3.org/2000/svg" xmlns:xlink="http://www.w3.org/1999/xlink" xmlns:sketch="http://www.bohemiancoding.com/sketch/ns">
    <!-- Generator: Sketch 3.2.2 (9983) - http://www.bohemiancoding.com/sketch -->
    <title>04-02-2015 - umbrella</title>
    <desc>Created with Sketch.</desc>
    <defs></defs>
    <g id="January" stroke="none" stroke-width="1" fill="none" fill-rule="evenodd" sketch:type="MSPage">
        <g id="04-02-2015---umbrella" sketch:type="MSArtboardGroup" fill="#000000">
            <path d="M50,66 L52,66 L52,42.2078427 C54.1242997,42.7943239 55.919802,44.5787716 56.9714433,47.0077675 C58.2673974,44.0144776 60.6929804,42 63.4714433,42 C66.2499062,42 68.6754892,44.0144776 69.9714433,47.0077675 C71.2673974,44.0144776 73.6929804,42 76.4714433,42 C79.2296269,42 81.640063,43.9851787 82.9428866,46.9423827 L82.9428866,46.9423827 C82.2435305,34.0159467 68.7841749,23.6249296 52,23.0271623 L52,23.0271623 L52,22.0029823 C52,21.4453808 51.5522847,21 51,21 C50.4438648,21 50,21.4490505 50,22.0029823 L50,23.0025767 C32.7271432,23.1914992 18.7139792,33.7456633 18,46.9423827 L18,46.9423827 C19.3028236,43.9851787 21.7132597,42 24.4714433,42 C27.2499062,42 29.6754892,44.0144776 30.9714433,47.0077675 C32.2673974,44.0144776 34.6929804,42 37.4714433,42 C40.2499062,42 42.6754892,44.0144776 43.9714433,47.0077675 C45.1935423,44.1850622 47.4201862,42.232785 50,42.0194358 L50,66 C49,66 49.702315,74.2330977 49.702315,74.2330977 C49.8529322,76.8678715 52.1327085,79 54.7635378,79 L54.2364622,79 C56.8671256,79 59,76.8657851 59,74.2330977 L59,70.7669023 C59,68.1321285 57.6568542,67.3431457 55.9999999,69 C55.9999999,69 57,76 54,76 C51,76 54,66 52,66 C52,66 54.5,66 50,66 Z" id="Oval-6" sketch:type="MSShapeGroup"></path>
        </g>
    </g>
</svg>