<?xml version="1.0" encoding="UTF-8" standalone="no"?>
<svg width="100px" height="100px" viewBox="0 0 100 100" version="1.1" xmlns="http://www.w3.org/2000/svg" xmlns:xlink="http://www.w3.org/1999/xlink" xmlns:sketch="http://www.bohemiancoding.com/sketch/ns">
    <!-- Generator: Sketch 3.2.2 (9983) - http://www.bohemiancoding.com/sketch -->
    <title>05-02-2015 - baloon</title>
    <desc>Created with Sketch.</desc>
    <defs></defs>
    <g id="January" stroke="none" stroke-width="1" fill="none" fill-rule="evenodd" sketch:type="MSPage">
        <g id="05-02-2015---baloon" sketch:type="MSArtboardGroup" fill="#000000">
            <path d="M50.0543478,58.1807229 L50.9456522,58.1807229 L50.9456522,88 L50.0543478,88 L50.0543478,58.1807229 Z M53.2730178,55.2772517 C63.2833177,53.8750806 71,44.9884814 71,34.2349398 C71,22.5072064 61.8218374,13 50.5,13 C39.1781626,13 30,22.5072064 30,34.2349398 C30,44.9884814 37.7166823,53.8750806 47.7269822,55.2772517 C46.3240583,56.3300846 44.1301632,58.1807229 46.0434783,58.1807229 C48.7173914,58.1807229 48.7173913,57.2771084 48.7173913,57.2771084 C48.7173913,57.2771084 49.6086956,58.1807229 50.5,58.1807229 C51.3913044,58.1807229 52.2826087,57.2771084 52.2826087,57.2771084 C52.2826087,57.2771084 52.2826086,58.1807229 54.9565217,58.1807229 C56.8698368,58.1807229 54.6759417,56.3300846 53.2730178,55.2772517 L53.2730178,55.2772517 Z M43.3695652,16.6144578 C43.3695652,16.6144578 36.2391304,20.2289155 34.4565217,25.6506024 C34.4565217,31.9759035 35.3478261,24.7469879 43.3695652,19.3253012 C51.3913043,13.9036145 43.3695652,16.6144578 43.3695652,16.6144578 Z" id="Oval-12" sketch:type="MSShapeGroup"></path>
        </g>
    </g>
</svg>