<?xml version="1.0" encoding="UTF-8" standalone="no"?>
<svg width="100px" height="100px" viewBox="0 0 100 100" version="1.1" xmlns="http://www.w3.org/2000/svg" xmlns:xlink="http://www.w3.org/1999/xlink" xmlns:sketch="http://www.bohemiancoding.com/sketch/ns">
    <!-- Generator: Sketch 3.2.2 (9983) - http://www.bohemiancoding.com/sketch -->
    <title>06-02-2015 - acorn</title>
    <desc>Created with Sketch.</desc>
    <defs></defs>
    <g id="January" stroke="none" stroke-width="1" fill="none" fill-rule="evenodd" sketch:type="MSPage">
        <g id="06-02-2015---acorn" sketch:type="MSArtboardGroup" fill="#000000">
            <path d="M49.9707742,86.3118497 C32.0731226,85.4131474 25.2605206,54.3240269 25.2605206,41.7792698 C31.6373322,38.5969495 69.8982017,38.5969495 76.2750133,41.7792699 C76.2750133,54.3240275 69.4624113,85.4131474 51.5647597,86.3118497 C51.5648321,86.3184722 51.5648684,86.3251078 51.5648684,86.3317561 C51.5648684,86.9908362 51.2079939,87.5251263 50.767767,87.5251263 C50.32754,87.5251263 49.9706655,86.9908362 49.9706655,86.3317561 C49.9706655,86.3251078 49.9707018,86.3184722 49.9707742,86.3118497 Z M51.8588922,16.5397355 C72.880642,17.1051774 82.6713755,33.9307504 76.3756602,40.1881097 C69.9720061,37.6422533 31.5500802,37.0057892 25.1464257,40.1881097 C18.9335333,34.0130685 28.3992846,17.5460428 48.8528,16.5704324 C48.4350898,14.0209689 48.3633472,9.74950744 51.9906054,7.93933983 C51.9906054,7.93933983 53.3244456,11.933223 55.9921259,10.6019286 C58.2196102,9.49031211 51.147467,13.0196348 51.8588922,16.5397355 L51.8588922,16.5397355 Z" id="Path-3" sketch:type="MSShapeGroup" transform="translate(50.761732, 47.732233) rotate(45.000000) translate(-50.761732, -47.732233) "></path>
        </g>
    </g>
</svg>