<?xml version="1.0" encoding="UTF-8" standalone="no"?>
<svg width="100px" height="100px" viewBox="0 0 100 100" version="1.1" xmlns="http://www.w3.org/2000/svg" xmlns:xlink="http://www.w3.org/1999/xlink" xmlns:sketch="http://www.bohemiancoding.com/sketch/ns">
    <!-- Generator: Sketch 3.2.2 (9983) - http://www.bohemiancoding.com/sketch -->
    <title>07-02-2015 - react</title>
    <desc>Created with Sketch.</desc>
    <defs></defs>
    <g id="January" stroke="none" stroke-width="1" fill="none" fill-rule="evenodd" sketch:type="MSPage">
        <g id="07-02-2015---react" sketch:type="MSArtboardGroup" fill="#000000">
            <path d="M28,88.1051178 C19.3907328,83.134555 22.2612782,62.0448754 34.4115427,41 C46.5618072,19.9551246 63.3907328,6.92431949 72,11.8948822 C80.6092672,16.865445 77.7387218,37.9551246 65.5884573,59 C53.4381928,80.0448754 36.6092672,93.0756805 28,88.1051178 L28,88.1051178 L28,88.1051178 Z M29.5,85.5070416 C22.3256106,81.3649059 25.6877816,62.1099976 37.0096189,42.5 C48.3314563,22.8900024 63.3256106,10.3508228 70.5,14.4929584 C77.6743894,18.6350941 74.3122184,37.8900024 62.9903811,57.5 C51.6685437,77.1099976 36.6743894,89.6491772 29.5,85.5070416 L29.5,85.5070416 L29.5,85.5070416 Z" id="Path" sketch:type="MSShapeGroup"></path>
            <path d="M50,68 C74.300529,68 94,59.9411255 94,50 C94,40.0588745 74.300529,32 50,32 C25.699471,32 6,40.0588745 6,50 C6,59.9411255 25.699471,68 50,68 L50,68 L50,68 Z M50,65 C72.6436747,65 91,58.2842712 91,50 C91,41.7157288 72.6436747,35 50,35 C27.3563253,35 9,41.7157288 9,50 C9,58.2842712 27.3563253,65 50,65 L50,65 L50,65 Z" id="Path" sketch:type="MSShapeGroup"></path>
            <path d="M28,11.8948822 C36.6092672,6.92431949 53.4381928,19.9551246 65.5884573,41 C77.7387218,62.0448754 80.6092672,83.134555 72,88.1051178 C63.3907328,93.0756805 46.5618072,80.0448754 34.4115427,59 C22.2612782,37.9551246 19.3907328,16.865445 28,11.8948822 L28,11.8948822 L28,11.8948822 Z M37.0096189,57.5 C48.3314563,77.1099976 63.3256106,89.6491772 70.5,85.5070416 C77.6743894,81.3649059 74.3122184,62.1099976 62.9903811,42.5 C51.6685437,22.8900024 36.6743894,10.3508228 29.5,14.4929584 C22.3256106,18.6350941 25.6877816,37.8900024 37.0096189,57.5 L37.0096189,57.5 L37.0096189,57.5 Z" id="Path" sketch:type="MSShapeGroup"></path>
            <path d="M50,58 C54.418278,58 58,54.418278 58,50 C58,45.581722 54.418278,42 50,42 C45.581722,42 42,45.581722 42,50 C42,54.418278 45.581722,58 50,58 L50,58 Z" id="Oval-20" sketch:type="MSShapeGroup"></path>
        </g>
    </g>
</svg>