<?xml version="1.0" encoding="UTF-8" standalone="no"?>
<svg width="100px" height="100px" viewBox="0 0 100 100" version="1.1" xmlns="http://www.w3.org/2000/svg" xmlns:xlink="http://www.w3.org/1999/xlink" xmlns:sketch="http://www.bohemiancoding.com/sketch/ns">
    <!-- Generator: Sketch 3.2.2 (9983) - http://www.bohemiancoding.com/sketch -->
    <title>08-02-2015 - ink</title>
    <desc>Created with Sketch.</desc>
    <defs></defs>
    <g id="January" stroke="none" stroke-width="1" fill="none" fill-rule="evenodd" sketch:type="MSPage">
        <g id="08-02-2015---ink" sketch:type="MSArtboardGroup" fill="#000000">
            <path d="M73.3830828,19.9648402 C67.7226235,28.4465183 56.8345586,40.6228948 52.122712,45.7783073 C50.0395664,49.7103421 48,53.2332295 48,53.2332295 L46,53.2332295 C46,53.2332295 47.4558282,49.6976467 49.3241808,45.7563927 L49.3241808,45.7563927 C48.5149303,40.5446675 48.2349973,28.1039543 61,18.1338568 L61,18.1338568 L61,27.2332295 L63.3092082,16.4569247 C64.9669946,15.3366352 66.8099125,14.257023 68.8574994,13.2332295 C77.7878352,8.76806159 78.3419673,11.4993505 75.220366,17.0102749 L65.6504476,22.3149673 L73.3830828,19.9648402 Z M32,60.2332295 L64,60.2332295 L64,64.2332295 L32,64.2332295 L32,60.2332295 Z M23,70.2332295 L32,64.2332295 L64,64.2332295 L73,70.2332295 L69,89.2332295 L27,89.2332295 L23,70.2332295 Z M29,54.2332295 L67,54.2332295 L67,59.2332295 L29,59.2332295 L29,54.2332295 Z" id="Rectangle-16" sketch:type="MSShapeGroup"></path>
        </g>
    </g>
</svg>