<?xml version="1.0" encoding="UTF-8" standalone="no"?>
<svg width="100px" height="100px" viewBox="0 0 100 100" version="1.1" xmlns="http://www.w3.org/2000/svg" xmlns:xlink="http://www.w3.org/1999/xlink" xmlns:sketch="http://www.bohemiancoding.com/sketch/ns">
    <!-- Generator: Sketch 3.2.2 (9983) - http://www.bohemiancoding.com/sketch -->
    <title>10-02-2015 - rocket</title>
    <desc>Created with Sketch.</desc>
    <defs></defs>
    <g id="January" stroke="none" stroke-width="1" fill="none" fill-rule="evenodd" sketch:type="MSPage">
        <g id="10-02-2015---rocket" sketch:type="MSArtboardGroup" fill="#000000">
            <path d="M59.0742084,76.8433288 C59.0428386,76.9214225 59.0112371,76.9990642 58.9794031,77.076249 C58.9641422,77.0783678 58.9484896,77.0805218 58.9324434,77.0827099 C58.51159,77.140099 57.9811951,77.1977506 57.3334773,77.2517271 C55.4728446,77.4067798 53.0491205,77.5 50,77.5 C46.9508795,77.5 44.5271554,77.4067798 42.6665227,77.2517271 C42.0188049,77.1977506 41.48841,77.140099 41.0675566,77.0827099 C41.0515104,77.0805218 41.0358578,77.0783678 41.0205969,77.076249 L41.0205969,77.076249 C41.0067247,77.0426144 40.9928966,77.0088929 40.9791126,76.9750852 L40.9791126,76.9750852 C35.9888647,71.0584603 32.0000002,91.9999993 32.0000002,91.9999993 C28.2929923,67.9044483 36.610153,62.7040203 37.8484735,62.0714572 C36.7851526,49.7003798 38.1504428,34.8238815 41.0058851,24.1452421 L41.0058851,24.1452421 C43.390043,23.740221 46.3713411,23.5 50,23.5 C53.6286589,23.5 56.609957,23.740221 58.9941149,24.1452421 C61.8475112,34.8162299 63.2128901,49.6790629 62.1538084,62.0448605 C63.1798361,62.544552 71.821078,67.5241031 68.0555555,91.9999993 C68.0555555,91.9999993 64.0555557,71 59.0555557,77 C59.0617262,76.9477318 59.0679442,76.8955064 59.0742087,76.8433253 Z M41.4889634,78.142384 C41.8390407,78.8902224 42.214029,79.5873207 42.6146729,80.2283608 C50.0000004,81 50.0000004,81 57.4443064,80.1332872 C57.8228286,79.5185676 58.178192,78.8534096 58.5110366,78.142384 C58.189165,78.1786429 57.8249333,78.2142387 57.4165227,78.2482729 C55.5271554,78.4057202 53.0758795,78.5 50,78.5 C46.9241205,78.5 44.4728446,78.4057202 42.5834773,78.2482729 C42.1750667,78.2142387 41.810835,78.1786429 41.4889634,78.142384 L41.4889634,78.142384 Z M41.2984235,23.0843674 C43.5117991,15.3009929 46.5438598,10 50,10 C53.4561402,10 56.4882009,15.3009929 58.7015765,23.0843674 C56.3418941,22.7153332 53.4550811,22.5 50,22.5 C46.5449189,22.5 43.6581059,22.7153332 41.2984235,23.0843674 L41.2984235,23.0843674 Z M50,49 C53.3137085,49 56,46.3137085 56,43 C56,39.6862915 53.3137085,37 50,37 C46.6862915,37 44,39.6862915 44,43 C44,46.3137085 46.6862915,49 50,49 Z M50,47 C52.209139,47 54,45.209139 54,43 C54,40.790861 52.209139,39 50,39 C47.790861,39 46,40.790861 46,43 C46,45.209139 47.790861,47 50,47 Z" id="Rectangle-20" sketch:type="MSShapeGroup" transform="translate(50.027778, 51.000000) rotate(-45.000000) translate(-50.027778, -51.000000) "></path>
        </g>
    </g>
</svg>