<?xml version="1.0" encoding="UTF-8" standalone="no"?>
<svg width="100px" height="100px" viewBox="0 0 100 100" version="1.1" xmlns="http://www.w3.org/2000/svg" xmlns:xlink="http://www.w3.org/1999/xlink" xmlns:sketch="http://www.bohemiancoding.com/sketch/ns">
    <!-- Generator: Sketch 3.2.2 (9983) - http://www.bohemiancoding.com/sketch -->
    <title>11-02-2015 - cupcake</title>
    <desc>Created with Sketch.</desc>
    <defs></defs>
    <g id="January" stroke="none" stroke-width="1" fill="none" fill-rule="evenodd" sketch:type="MSPage">
        <g id="11-02-2015---cupcake" sketch:type="MSArtboardGroup" fill="#000000">
            <path d="M44.3819691,23.1765761 C31.0950353,25.8683609 24.0424325,37.7870698 21.3325266,44.9880652 C19.9559399,45.6202429 19,47.0109856 19,48.625 C19,50.3458213 20.0866441,51.8128432 21.6111832,52.3773167 L21.6111832,52.3773167 C21.6684083,52.7374173 21.7344054,53.1437844 21.8090521,53.593091 C22.0588657,55.0967458 22.3538182,56.7719617 22.6923403,58.5759281 C23.6596813,63.7308376 24.7823819,68.8860951 26.048269,73.7000323 C27.1509729,77.8934132 28.3137164,81.6335014 29.5333272,84.8044895 L29.633523,85.0649987 L29.9078557,85.1164361 C45.9687546,88.1278546 54.0312454,88.1278546 70.0921443,85.1164361 L70.366477,85.0649987 L70.4666728,84.8044895 C71.6862836,81.6335014 72.8490271,77.8934132 73.951731,73.7000323 C75.2176181,68.8860951 76.3403187,63.7308376 77.3076597,58.5759281 C77.6461818,56.7719617 77.9411343,55.0967458 78.1909479,53.593091 C78.2655946,53.1437844 78.3315917,52.7374173 78.3888168,52.3773167 L78.3888168,52.3773167 C79.9133559,51.8128432 81,50.3458213 81,48.625 C81,47.0109856 80.0440601,45.6202429 78.6674734,44.9880652 C75.9575675,37.7870698 68.9049647,25.8683609 55.6180309,23.1765761 C56.4861934,22.0106904 57,20.5653482 57,19 C57,15.1340068 53.8659932,12 50,12 C46.1340068,12 43,15.1340068 43,19 C43,20.5653482 43.5138066,22.0106904 44.3819691,23.1765761 L44.3819691,23.1765761 Z M76.6282929,53.1217858 C75.051949,59.4428257 69,83.6249989 69,83.6249989 C53.0608989,86.6135804 46.9391011,86.6135804 31,83.6249989 L24.183556,53.4378906 C29.4107421,55.3460103 39.0160078,56.625 50,56.625 C61.580073,56.625 71.6277173,55.2034268 76.6282929,53.1217858 L76.6282929,53.1217858 Z M50,24 C52.7614237,24 55,21.7614237 55,19 C55,16.2385763 52.7614237,14 50,14 C47.2385763,14 45,16.2385763 45,19 C45,21.7614237 47.2385763,24 50,24 Z" id="Oval-19" sketch:type="MSShapeGroup"></path>
        </g>
    </g>
</svg>