<?xml version="1.0" encoding="UTF-8" standalone="no"?>
<svg width="100px" height="100px" viewBox="0 0 100 100" version="1.1" xmlns="http://www.w3.org/2000/svg" xmlns:xlink="http://www.w3.org/1999/xlink" xmlns:sketch="http://www.bohemiancoding.com/sketch/ns">
    <!-- Generator: Sketch 3.2.2 (9983) - http://www.bohemiancoding.com/sketch -->
    <title>12-02-2015 - cassette</title>
    <desc>Created with Sketch.</desc>
    <defs></defs>
    <g id="January" stroke="none" stroke-width="1" fill="none" fill-rule="evenodd" sketch:type="MSPage">
        <g id="12-02-2015---cassette" sketch:type="MSArtboardGroup" fill="#000000">
            <path d="M15.6315789,18 L7.00596461,18 C5.89076161,18 5,18.8969073 5,20.0032986 L5,79.9967014 C5,81.0952759 5.89810095,82 7.00596461,82 L92.9940354,82 C94.1092384,82 95,81.1030927 95,79.9967014 L95,20.0032986 C95,18.9047241 94.1018991,18 92.9940354,18 L84.3684211,18 L82,33 L18,33 L15.6315789,18 L15.6315789,18 Z M14,39.9991421 C14,39.4473312 14.4411162,39 14.9904144,39 L85.0095856,39 C85.5565764,39 86,39.4549243 86,39.9991421 L86,72.0008579 C86,72.5526688 85.5588838,73 85.0095856,73 L14.9904144,73 C14.4434236,73 14,72.5450757 14,72.0008579 L14,39.9991421 Z M16,16 L84,16 L81.0857143,32 L18.9142857,32 L16,16 Z M21,56 C21,52.6862915 23.6811374,50 27.0021239,50 L72.9978761,50 C76.3127576,50 79,52.6930342 79,56 C79,59.3137085 76.3188626,62 72.9978761,62 L27.0021239,62 C23.6872424,62 21,59.3069658 21,56 Z M73,60 C75.209139,60 77,58.209139 77,56 C77,53.790861 75.209139,52 73,52 C70.790861,52 69,53.790861 69,56 C69,58.209139 70.790861,60 73,60 Z M27,60 C29.209139,60 31,58.209139 31,56 C31,53.790861 29.209139,52 27,52 C24.790861,52 23,53.790861 23,56 C23,58.209139 24.790861,60 27,60 Z M20.5,21 C21.3284271,21 22,20.3284271 22,19.5 C22,18.6715729 21.3284271,18 20.5,18 C19.6715729,18 19,18.6715729 19,19.5 C19,20.3284271 19.6715729,21 20.5,21 Z M79.5,21 C80.3284271,21 81,20.3284271 81,19.5 C81,18.6715729 80.3284271,18 79.5,18 C78.6715729,18 78,18.6715729 78,19.5 C78,20.3284271 78.6715729,21 79.5,21 Z" id="cassette" sketch:type="MSShapeGroup"></path>
        </g>
    </g>
</svg>