<?xml version="1.0" encoding="UTF-8" standalone="no"?>
<svg width="100px" height="100px" viewBox="0 0 100 100" version="1.1" xmlns="http://www.w3.org/2000/svg" xmlns:xlink="http://www.w3.org/1999/xlink" xmlns:sketch="http://www.bohemiancoding.com/sketch/ns">
    <!-- Generator: Sketch 3.2.2 (9983) - http://www.bohemiancoding.com/sketch -->
    <title>13-02-2015 - eye</title>
    <desc>Created with Sketch.</desc>
    <defs></defs>
    <g id="January" stroke="none" stroke-width="1" fill="none" fill-rule="evenodd" sketch:type="MSPage">
        <g id="13-02-2015---eye" sketch:type="MSArtboardGroup" fill="#000000">
            <path d="M50,59 C54.9705627,59 59,54.9705627 59,50 C59,45.0294373 54.9705627,41 50,41 C45.0294373,41 41,45.0294373 41,50 C41,54.9705627 45.0294373,59 50,59 Z M43,46 C43,44.3431458 44.3431458,43 46,43 C47.6568542,43 49,44.3431458 49,46 C49,47.6568542 47.6568542,49 46,49 C44.3431458,49 43,47.6568542 43,46 Z M68,50 C68,40.0588745 59.9411255,32 50,32 C40.0588745,32 32,40.0588745 32,50 C32,59.9411255 40.0588745,68 50,68 C59.9411255,68 68,59.9411255 68,50 Z M35,50 C35,41.7157288 41.7157288,35 50,35 C58.2842712,35 65,41.7157288 65,50 C65,58.2842712 58.2842712,65 50,65 C41.7157288,65 35,58.2842712 35,50 Z M77.7282186,60.9736974 C80.7990049,58.7967524 83.5849287,56.4661081 86.0379576,54.1339886 C86.898299,53.3160533 87.6565314,52.5552746 88.3064858,51.8706405 C88.7009583,51.4551201 88.9745197,51.1539556 89.1209367,50.9861368 L89.9813122,50 L89.1209367,49.0138632 C88.9745197,48.8460444 88.7009583,48.5448799 88.3064858,48.1293595 C87.6565314,47.4447254 86.898299,46.6839467 86.0379576,45.8660114 C83.5849287,43.5338919 80.7990049,41.2032476 77.7282186,39.0263026 C68.9009364,32.7684566 59.529382,29 49.9906561,29 C40.4519302,29 31.0803758,32.7684566 22.2530936,39.0263026 C19.1823073,41.2032476 16.3963835,43.5338919 13.9433545,45.8660114 C13.0830132,46.6839467 12.3247808,47.4447254 11.6748264,48.1293595 C11.2803539,48.5448799 11.0067925,48.8460444 10.8603755,49.0138632 L10,50 L10.8603755,50.9861368 C11.0067925,51.1539556 11.2803539,51.4551201 11.6748264,51.8706405 C12.3247808,52.5552746 13.0830132,53.3160533 13.9433545,54.1339886 C16.3963835,56.4661081 19.1823073,58.7967524 22.2530936,60.9736974 C31.0803758,67.2315434 40.4519302,71 49.9906561,71 C59.529382,71 68.9009364,67.2315434 77.7282186,60.9736974 Z M23.9881032,58.5263026 C21.0418231,56.4376226 18.364647,54.1979544 16.0104144,51.9597614 C15.1882141,51.1780873 14.6155307,50.6483737 14,50 C14.6155307,49.3516263 15.1882141,48.8219127 16.0104144,48.0402386 C18.364647,45.8020456 21.0418231,43.5623774 23.9881032,41.4736974 C32.3524396,35.5440434 41.1659141,32 49.9906561,32 C58.8153981,32 67.6288726,35.5440434 75.9932089,41.4736974 C78.9394891,43.5623774 81.6166652,45.8020456 83.9708978,48.0402386 C84.7930981,48.8219127 85.5152438,49.3516263 86.1307745,50 C85.5152438,50.6483737 84.7930981,51.1780873 83.9708978,51.9597614 C81.6166652,54.1979544 78.9394891,56.4376226 75.9932089,58.5263026 C67.6288726,64.4559566 58.8153981,68 49.9906561,68 C41.1659141,68 32.3524396,64.4559566 23.9881032,58.5263026 Z" id="eye" sketch:type="MSShapeGroup"></path>
        </g>
    </g>
</svg>