<?xml version="1.0" encoding="UTF-8" standalone="no"?>
<svg width="100px" height="100px" viewBox="0 0 100 100" version="1.1" xmlns="http://www.w3.org/2000/svg" xmlns:xlink="http://www.w3.org/1999/xlink" xmlns:sketch="http://www.bohemiancoding.com/sketch/ns">
    <!-- Generator: Sketch 3.2.2 (9983) - http://www.bohemiancoding.com/sketch -->
    <title>14-02-2015 - swift</title>
    <desc>Created with Sketch.</desc>
    <defs></defs>
    <g id="January" stroke="none" stroke-width="1" fill="none" fill-rule="evenodd" sketch:type="MSPage">
        <g id="14-02-2015---swift" sketch:type="MSArtboardGroup" fill="#000000">
            <path d="M16,60 C16,60 39,93 69,76 C69,76 77,72 83,81 C83,81 86,74 78,63 C78,63 85,38 58,20 C58,20 70,39 64,53 C64,53 47,43 31,26 C31,26 43,44 49,50 C49,50 37,43 22,29 C22,29 40,53 54,64 C37,75 16,60 16,60 Z" id="swift" sketch:type="MSShapeGroup"></path>
        </g>
    </g>
</svg>