<?xml version="1.0" encoding="UTF-8" standalone="no"?>
<svg width="100px" height="100px" viewBox="0 0 100 100" version="1.1" xmlns="http://www.w3.org/2000/svg" xmlns:xlink="http://www.w3.org/1999/xlink" xmlns:sketch="http://www.bohemiancoding.com/sketch/ns">
    <!-- Generator: Sketch 3.2.2 (9983) - http://www.bohemiancoding.com/sketch -->
    <title>15-02-2015 - knife</title>
    <desc>Created with Sketch.</desc>
    <defs></defs>
    <g id="January" stroke="none" stroke-width="1" fill="none" fill-rule="evenodd" sketch:type="MSPage">
        <g id="15-02-2015---knife" sketch:type="MSArtboardGroup" fill="#000000">
            <path d="M15.7900578,51.276824 L35.9742563,51.276824 L35.9742563,38.8390558 L26.5836382,38.8390558 C17.9997663,38.4655536 6.0153196,38.8390558 3.51049908,38.8390558 C-1.22082764,38.8390558 -0.9983562,42.6177341 -0.9983562,47.27897 C-0.9983562,51.9402058 2.83714193,55.7188841 7.56846866,55.7188841 C9.82020111,55.7188841 12.2775305,53.8072459 15.7900578,51.276824 L15.7900578,51.276824 Z M35.9742563,38.7896996 C35.9742563,38.7896996 100,37.0128755 100,38.7896996 C100,49.5000002 59.4203033,59.2231763 35.9742563,61 C35.9742563,61.0000004 35.9742563,38.7896996 35.9742563,38.7896996 Z M37.7777984,40.6158798 C37.7777984,40.6158798 97.2946869,38.8390558 97.2946869,40.6158798 C97.2946869,45.0579399 61.2238454,57.4957087 37.7777984,59.2725323 C37.7777984,59.2725327 37.7777984,40.6158798 37.7777984,40.6158798 Z M5.31404106,45.0579399 C6.31010985,45.0579399 7.11758314,44.2624287 7.11758314,43.2811159 C7.11758314,42.2998031 6.31010985,41.5042918 5.31404106,41.5042918 C4.31797228,41.5042918 3.51049899,42.2998031 3.51049899,43.2811159 C3.51049899,44.2624287 4.31797228,45.0579399 5.31404106,45.0579399 Z M29.6618591,45.0579399 C30.6579279,45.0579399 31.4654012,44.2624287 31.4654012,43.2811159 C31.4654012,42.2998031 30.6579279,41.5042918 29.6618591,41.5042918 C28.6657903,41.5042918 27.858317,42.2998031 27.858317,43.2811159 C27.858317,44.2624287 28.6657903,45.0579399 29.6618591,45.0579399 Z" id="knife" sketch:type="MSShapeGroup" transform="translate(49.500000, 49.500000) rotate(-45.000000) translate(-49.500000, -49.500000) "></path>
        </g>
    </g>
</svg>