<?xml version="1.0" encoding="UTF-8" standalone="no"?>
<svg width="100px" height="100px" viewBox="0 0 100 100" version="1.1" xmlns="http://www.w3.org/2000/svg" xmlns:xlink="http://www.w3.org/1999/xlink" xmlns:sketch="http://www.bohemiancoding.com/sketch/ns">
    <!-- Generator: Sketch 3.2.2 (9983) - http://www.bohemiancoding.com/sketch -->
    <title>16-02-2015 - calendar</title>
    <desc>Created with Sketch.</desc>
    <defs></defs>
    <g id="January" stroke="none" stroke-width="1" fill="none" fill-rule="evenodd" sketch:type="MSPage">
        <g id="16-02-2015---calendar" sketch:type="MSArtboardGroup" fill="#000000">
            <path d="M75,16 L81.9903086,16 C86.413939,16 90,19.5884807 90,23.9994708 L90,77.0005292 C90,81.4185149 86.4261982,85 81.9903086,85 L19.0096914,85 C14.586061,85 11,81.4115193 11,77.0005292 L11,23.9994708 C11,19.5814851 14.5738018,16 19.0096914,16 L26,16 L26,16 L26,19.9999798 C26,22.2055487 27.790861,24 30,24 C32.2046438,24 34,22.2091299 34,19.9999798 L34,16 L67,16 L67,19.9999798 C67,22.2055487 68.790861,24 71,24 C73.2046438,24 75,22.2091299 75,19.9999798 L75,16 L75,16 Z M15,35.2126897 L15,77.7873103 C15,79.557467 16.7970153,81 19.0096914,81 L81.9903086,81 C84.2130213,81 86,79.5648726 86,77.7873103 L86,35.2126897 C86,35.2126897 15,35.2126897 15,35.2126897 Z M46,42.9973917 C46,41.8942627 46.8958578,41 47.9973917,41 L53.0026083,41 C54.1057373,41 55,41.8958578 55,42.9973917 L55,48.0026083 C55,49.1057373 54.1041422,50 53.0026083,50 L47.9973917,50 C46.8942627,50 46,49.1041422 46,48.0026083 L46,42.9973917 Z M58,42.9973917 C58,41.8942627 58.8958578,41 59.9973917,41 L65.0026083,41 C66.1057373,41 67,41.8958578 67,42.9973917 L67,48.0026083 C67,49.1057373 66.1041422,50 65.0026083,50 L59.9973917,50 C58.8942627,50 58,49.1041422 58,48.0026083 L58,42.9973917 Z M70,42.9973917 C70,41.8942627 70.8958578,41 71.9973917,41 L77.0026083,41 C78.1057373,41 79,41.8958578 79,42.9973917 L79,48.0026083 C79,49.1057373 78.1041422,50 77.0026083,50 L71.9973917,50 C70.8942627,50 70,49.1041422 70,48.0026083 L70,42.9973917 Z M22,54.9973917 C22,53.8942627 22.8958578,53 23.9973917,53 L29.0026083,53 C30.1057373,53 31,53.8958578 31,54.9973917 L31,60.0026083 C31,61.1057373 30.1041422,62 29.0026083,62 L23.9973917,62 C22.8942627,62 22,61.1041422 22,60.0026083 L22,54.9973917 Z M34,54.9973917 C34,53.8942627 34.8958578,53 35.9973917,53 L41.0026083,53 C42.1057373,53 43,53.8958578 43,54.9973917 L43,60.0026083 C43,61.1057373 42.1041422,62 41.0026083,62 L35.9973917,62 C34.8942627,62 34,61.1041422 34,60.0026083 L34,54.9973917 Z M46,54.9973917 C46,53.8942627 46.8958578,53 47.9973917,53 L53.0026083,53 C54.1057373,53 55,53.8958578 55,54.9973917 L55,60.0026083 C55,61.1057373 54.1041422,62 53.0026083,62 L47.9973917,62 C46.8942627,62 46,61.1041422 46,60.0026083 L46,54.9973917 Z M58,54.9973917 C58,53.8942627 58.8958578,53 59.9973917,53 L65.0026083,53 C66.1057373,53 67,53.8958578 67,54.9973917 L67,60.0026083 C67,61.1057373 66.1041422,62 65.0026083,62 L59.9973917,62 C58.8942627,62 58,61.1041422 58,60.0026083 L58,54.9973917 Z M70,54.9973917 C70,53.8942627 70.8958578,53 71.9973917,53 L77.0026083,53 C78.1057373,53 79,53.8958578 79,54.9973917 L79,60.0026083 C79,61.1057373 78.1041422,62 77.0026083,62 L71.9973917,62 C70.8942627,62 70,61.1041422 70,60.0026083 L70,54.9973917 Z M22,66.9973917 C22,65.8942627 22.8958578,65 23.9973917,65 L29.0026083,65 C30.1057373,65 31,65.8958578 31,66.9973917 L31,72.0026083 C31,73.1057373 30.1041422,74 29.0026083,74 L23.9973917,74 C22.8942627,74 22,73.1041422 22,72.0026083 L22,66.9973917 Z M34,66.9973917 C34,65.8942627 34.8958578,65 35.9973917,65 L41.0026083,65 C42.1057373,65 43,65.8958578 43,66.9973917 L43,72.0026083 C43,73.1057373 42.1041422,74 41.0026083,74 L35.9973917,74 C34.8942627,74 34,73.1041422 34,72.0026083 L34,66.9973917 Z M46,66.9973917 C46,65.8942627 46.8958578,65 47.9973917,65 L53.0026083,65 C54.1057373,65 55,65.8958578 55,66.9973917 L55,72.0026083 C55,73.1057373 54.1041422,74 53.0026083,74 L47.9973917,74 C46.8942627,74 46,73.1041422 46,72.0026083 L46,66.9973917 Z M58,66.9973917 C58,65.8942627 58.8958578,65 59.9973917,65 L65.0026083,65 C66.1057373,65 67,65.8958578 67,66.9973917 L67,72.0026083 C67,73.1057373 66.1041422,74 65.0026083,74 L59.9973917,74 C58.8942627,74 58,73.1041422 58,72.0026083 L58,66.9973917 Z M68,12.0033512 C68,10.3446462 69.3465171,9 71,9 C72.6568542,9 74,10.3423789 74,12.0033512 L74,19.9966488 C74,21.6553538 72.6534829,23 71,23 C69.3431458,23 68,21.6576211 68,19.9966488 L68,12.0033512 Z M27,12.0033512 C27,10.3446462 28.3465171,9 30,9 C31.6568542,9 33,10.3423789 33,12.0033512 L33,19.9966488 C33,21.6553538 31.6534829,23 30,23 C28.3431458,23 27,21.6576211 27,19.9966488 L27,12.0033512 Z" id="calendar" sketch:type="MSShapeGroup"></path>
        </g>
    </g>
</svg>