<?xml version="1.0" encoding="UTF-8" standalone="no"?>
<svg width="100px" height="100px" viewBox="0 0 100 100" version="1.1" xmlns="http://www.w3.org/2000/svg" xmlns:xlink="http://www.w3.org/1999/xlink" xmlns:sketch="http://www.bohemiancoding.com/sketch/ns">
    <!-- Generator: Sketch 3.2.2 (9983) - http://www.bohemiancoding.com/sketch -->
    <title>17-02-2015 - drop</title>
    <desc>Created with Sketch.</desc>
    <defs></defs>
    <g id="January" stroke="none" stroke-width="1" fill="none" fill-rule="evenodd" sketch:type="MSPage">
        <g id="17-02-2015---drop" sketch:type="MSArtboardGroup" fill="#000000">
            <path d="M50.2208431,20.970951 C49.9963948,21.2211475 49.7363612,21.5144543 49.443703,21.8487116 C48.608769,22.8023247 47.6789305,23.8937551 46.6778655,25.1057462 C43.8182313,28.56791 40.9586837,32.3044386 38.2884418,36.1780533 C34.9065674,41.084005 32.0757703,45.8563546 29.9769874,50.367404 C26.0299393,58.8510486 24.8607791,65.9710773 27.1940821,71.2996403 C29.9699578,77.6389065 37.5128082,81 50.2905112,81 C63.0628801,81 70.688158,77.6431144 73.6318455,71.3160572 C76.1090814,65.9915745 75.134446,58.8690962 71.4188629,50.3838208 C69.4063274,45.7877944 66.6427484,40.9226189 63.3166754,35.9239706 C60.7775325,32.1079742 58.0583563,28.4331872 55.3390658,25.0327746 C54.387098,23.8423599 53.5028453,22.7709563 52.7088195,21.835303 C52.4304778,21.5073144 52.1831533,21.2195655 51.969661,20.9741514 C51.8408818,20.826117 51.7515739,20.7246189 51.7045527,20.6717538 L51.1070573,20 L50.4993904,20.6627958 C50.4500319,20.7166322 50.3561957,20.820071 50.2208431,20.970951 Z M50.4913009,21.7241755 C50.534467,21.7727064 50.619897,21.8697972 50.7447696,22.013341 C50.9540304,22.2538908 51.1970993,22.5366886 51.4711548,22.8596264 C52.255407,23.7837629 53.1298068,24.8432282 54.0717725,26.0211355 C56.7637205,29.387357 59.4557828,33.0255012 61.9671292,36.7997231 C65.2457129,41.7270014 67.9652647,46.5146687 69.9366776,51.0167834 C73.4878406,59.1265728 74.405587,65.8333152 72.1644846,70.650261 C69.5319541,76.3085284 62.4975814,79.4052791 50.2905112,79.4052791 C38.0887753,79.4052791 31.1485973,76.3127363 28.6762675,70.6666778 C26.5687812,65.8538124 27.670479,59.1446204 31.4443482,51.0332002 C33.5014777,46.6116793 36.2883899,41.9133138 39.6233201,37.0754621 C42.2652232,33.2429575 45.0972596,29.5423774 47.9292094,26.1137311 C48.9201988,24.9139386 49.8401251,23.834143 50.6652365,22.8917487 C50.9535941,22.5624033 51.2093603,22.27391 51.429567,22.0284416 C51.5610074,21.8819226 51.6509619,21.7827627 51.6964632,21.7331335 L50.4913009,21.7241755 Z M38.1176619,42.7266973 C38.1176619,42.7266973 19.5470892,71.4316743 41.3409082,76.6125935 C26.813835,69.0395928 38.1176619,42.7266973 38.1176619,42.7266973 Z" id="drop" sketch:type="MSShapeGroup"></path>
        </g>
    </g>
</svg>