<?xml version="1.0" encoding="UTF-8" standalone="no"?>
<svg width="100px" height="100px" viewBox="0 0 100 100" version="1.1" xmlns="http://www.w3.org/2000/svg" xmlns:xlink="http://www.w3.org/1999/xlink" xmlns:sketch="http://www.bohemiancoding.com/sketch/ns">
    <!-- Generator: Sketch 3.2.2 (9983) - http://www.bohemiancoding.com/sketch -->
    <title>18-02-2015 - mushroom</title>
    <desc>Created with Sketch.</desc>
    <defs></defs>
    <g id="January" stroke="none" stroke-width="1" fill="none" fill-rule="evenodd" sketch:type="MSPage">
        <g id="18-02-2015---mushroom" sketch:type="MSArtboardGroup" fill="#000000">
            <path d="M62.4856444,59.3810228 C75.6310679,57.8127803 85,52.8748423 85,40.2804878 C85,24.1093209 69.5538239,11 50.5,11 C31.4461761,11 16,24.1093209 16,40.2804878 C16,52.976574 25.5208997,57.8920538 38.833641,59.4183683 C36.8388621,62.9564437 35.5124137,66.4653672 35.1332134,69.8023296 C34.7104068,73.5230259 35.5015608,76.8505271 37.7125913,79.6143152 L37.7863533,79.6967269 C40.1075588,82.0179327 43.2401542,83.2610264 46.954206,83.6147456 C50.0667259,83.9111762 53.3736443,83.5727011 56.6178624,82.8294165 C57.4665111,82.6349821 58.2460725,82.4264776 58.9402232,82.2174948 C59.3610064,82.0908127 59.6630209,81.9909246 59.8297958,81.9313621 L59.9973303,81.8533991 C65.3380448,78.7379829 66.8959655,73.5844684 65.4895208,67.0999689 C64.8896104,64.3340452 63.9711096,62.2756897 62.4856444,59.3810228 Z M78.5,49 C80.9852814,49 83,45.418278 83,41 C83,37.3400557 82,32 78.5,31 C76.039697,30.2970563 74,36.581722 74,41 C74,45.418278 76.0147186,49 78.5,49 Z M49.5448142,19.7443185 C48.1063636,23.9218824 51.1734999,28.7660853 56.3954548,30.5641486 C61.6174097,32.3622119 67.0167351,30.4332455 68.4551858,26.2556815 C69.8936364,22.0781176 66.8265001,17.2339147 61.6045452,15.4358514 C56.3825903,13.6377881 50.9832649,15.5667545 49.5448142,19.7443185 Z M51,56 C57.0751322,56 62,52.8659932 62,49 C62,45.1340068 57.0751322,42 51,42 C44.9248678,42 40,45.1340068 40,49 C40,52.8659932 44.9248678,56 51,56 Z M27.2635182,42.8480775 C33.1723647,43.8899666 35.9194296,39.8281285 36.878462,34.3891854 C37.8374944,28.9502424 33.690905,23.672867 30.7364818,23.1519225 C27.7820585,22.6309779 22.0805704,26.1718715 21.121538,31.6108146 C20.1625056,37.0497576 19.3850562,41.4588921 27.2635182,42.8480775 Z M60.0000008,60 C61.6999888,63.2654996 62.9155242,64.6679235 63.5349662,67.5238987 C64.7742885,73.2378701 63.4847232,77.5036797 58.9895884,80.1258413 L59.1571229,80.0478783 C59.0211296,80.0964474 58.7510014,80.1857894 58.3636607,80.3024032 C57.7109384,80.4989135 56.9744328,80.6959022 56.171214,80.8799281 C53.1184084,81.5793581 50.0140032,81.8971051 47.1438243,81.6237547 C43.8578766,81.3108072 41.1571391,80.2390859 39.2005669,78.2825135 L39.2743289,78.3649252 C37.4192435,76.0460684 36.7543495,73.2496021 37.1204239,70.028149 C37.4971801,66.7126955 38.8235093,63.6447586 41.0000001,60 C45.9999998,61 54.0000008,61 60.0000008,60 Z" id="Oval-33" sketch:type="MSShapeGroup"></path>
        </g>
    </g>
</svg>