<?xml version="1.0" encoding="UTF-8" standalone="no"?>
<svg width="100px" height="100px" viewBox="0 0 100 100" version="1.1" xmlns="http://www.w3.org/2000/svg" xmlns:xlink="http://www.w3.org/1999/xlink" xmlns:sketch="http://www.bohemiancoding.com/sketch/ns">
    <!-- Generator: Sketch 3.2.2 (9983) - http://www.bohemiancoding.com/sketch -->
    <title>19-02-2015 - fire</title>
    <desc>Created with Sketch.</desc>
    <defs></defs>
    <g id="January" stroke="none" stroke-width="1" fill="none" fill-rule="evenodd" sketch:type="MSPage">
        <g id="19-02-2015---fire" sketch:type="MSArtboardGroup" fill="#000000">
            <path d="M73.2937051,90.1004293 C75.9347115,87.1129656 88.5140491,70.3263864 65.9264767,32.8814994 C65.9264767,32.8814994 62.8350196,47.8331127 63.1017236,55.4705317 C63.3684277,63.1079507 55.7597852,29.1882579 58.716927,21.8880675 C61.6740688,14.5878771 46.2520113,44.363934 51.8888577,56.3119014 C41.1721051,48.3646945 44.6095268,8.82708432 44.4547138,4.39380614 C44.2999008,-0.0394720467 26.938383,66.1793509 33.4526797,22.7703175 C20.3043531,37.1735088 12.4771718,77.4797308 31.3790487,89.8640888 C50.2809255,102.248447 70.6526988,93.087893 73.2937051,90.1004293 Z M71.7194507,88.5349573 C74.2717791,85.1851832 77.338259,81.4397557 70.1761767,55.5239343 C70.1761767,55.5239343 61.4703808,68.5189193 61.8800183,72.4163635 C62.2896558,76.3138078 56.4745929,50.0587613 57.098328,55.9932048 C57.7220631,61.9276484 49.8635687,67.652698 54.1256156,73.4631782 C46.4569409,69.9809984 40.4487441,41.4025666 40.7378999,44.1537037 C41.0270557,46.9048408 41.1873658,82.979318 34.2363933,55.2332683 C25.5380619,63.3331153 27.4055012,86.4705136 40.8832575,91.7759718 C54.3610139,97.08143 69.1671223,91.8847315 71.7194507,88.5349573 Z" id="fire" sketch:type="MSShapeGroup"></path>
        </g>
    </g>
</svg>