<?xml version="1.0" encoding="UTF-8" standalone="no"?>
<svg width="100px" height="100px" viewBox="0 0 100 100" version="1.1" xmlns="http://www.w3.org/2000/svg" xmlns:xlink="http://www.w3.org/1999/xlink" xmlns:sketch="http://www.bohemiancoding.com/sketch/ns">
    <!-- Generator: Sketch 3.2.2 (9983) - http://www.bohemiancoding.com/sketch -->
    <title>20-02-2015 - cherries</title>
    <desc>Created with Sketch.</desc>
    <defs></defs>
    <g id="January" stroke="none" stroke-width="1" fill="none" fill-rule="evenodd" sketch:type="MSPage">
        <g id="20-02-2015---cherries" sketch:type="MSArtboardGroup" fill="#000000">
            <path d="M53.5661174,18.0777277 C40.3278773,28.6507452 36.2237048,49.6877254 35.2542553,56.1005015 L35.2542553,56.1005015 C27.7924514,56.9653688 22,63.3062346 22,71 C22,79.2842712 28.7157288,86 37,86 C42.2732455,86 46.9109498,83.2789251 49.5855935,79.1642947 L49.5855935,79.1642947 C51.3903939,85.4226464 57.1606478,90 64,90 C72.2842712,90 79,83.2842712 79,75 C79,66.7157288 72.2842712,60 64,60 C62.7817284,60 61.5973784,60.1452355 60.4633196,60.4193368 L60.4633196,60.4193368 C53.83578,40.6513206 53.0515716,28.789175 53.341082,22.8246422 C61.5006142,36.5140303 76.075179,33.4645661 76.075179,33.4645661 C59.6786228,8.23237432 54.6649103,15.4864267 53.5661174,18.0777277 L53.5661174,18.0777277 Z M57.9087843,61.2883485 C55.2441677,62.4738408 52.9890748,64.41326 51.4144065,66.8357053 C49.6950852,60.873762 44.3770393,56.4373566 37.9642754,56.0304956 C38.1935602,43.0939654 47.2256968,28.1697854 52.0428528,21.1092884 C47.3787753,31.9845763 54.963371,53.6807918 57.9087843,61.2883485 L57.9087843,61.2883485 Z M61.7300111,25.0717554 C61.7300111,25.0717554 57.7707997,18.9623655 54.6095137,18.8831759 C51.4482277,18.8039863 61.7300111,25.0717554 61.7300111,25.0717554 Z M52,80 C52,80 49,71 53,68 C51,72 52,80 52,80 Z M25.1645721,73.9471753 C25.1645721,73.9471753 23.4463258,64.6172434 27.8249174,62.2031316 C25.2876889,65.8858577 25.1645721,73.9471753 25.1645721,73.9471753 Z" id="cherries" sketch:type="MSShapeGroup"></path>
        </g>
    </g>
</svg>