<?xml version="1.0" encoding="UTF-8" standalone="no"?>
<svg width="100px" height="100px" viewBox="0 0 100 100" version="1.1" xmlns="http://www.w3.org/2000/svg" xmlns:xlink="http://www.w3.org/1999/xlink" xmlns:sketch="http://www.bohemiancoding.com/sketch/ns">
    <!-- Generator: Sketch 3.2.2 (9983) - http://www.bohemiancoding.com/sketch -->
    <title>21-02-2015 - clover</title>
    <desc>Created with Sketch.</desc>
    <defs></defs>
    <g id="January" stroke="none" stroke-width="1" fill="none" fill-rule="evenodd" sketch:type="MSPage">
        <g id="21-02-2015---clover" sketch:type="MSArtboardGroup" fill="#000000">
            <path d="M58.0573702,32.94893 C67.1475889,21.8745809 77.3078329,3.45330889 50.1316409,10.6049383 C24.1257025,3.57630651 33.1949472,21.248507 41.9223107,32.37119 L41.9223107,32.37119 C30.7996277,23.6438265 13.1274272,14.5745817 20.156059,40.5805201 C13.4176989,66.1862889 29.3820872,58.6460449 40.512951,50.0854397 L40.512951,50.0854397 C32.3187904,61.190628 25.5281344,76.6495961 50.1316409,70 C75.7191795,76.7335627 68.2078855,60.7966921 59.6548432,49.6668893 C70.7995568,58.391889 87.3991232,66.6029299 80.5511207,40.5805201 C87.735085,13.9998514 69.1143779,24.0618174 58.0573702,32.94893 Z" id="Path-44" sketch:type="MSShapeGroup" transform="translate(50.353590, 40.302469) rotate(40.000000) translate(-50.353590, -40.302469) "></path>
            <path d="M49.4306905,43 C49.4306905,43 52.4306905,87.773064 46.4306905,94.3024691 C46.4306905,94.3024691 50.4099805,96 53.4306905,93.369697 C56.4514005,90.7393939 50.4099805,43 50.4099805,43 L49.4306905,43 Z" id="Path-47" sketch:type="MSShapeGroup"></path>
        </g>
    </g>
</svg>