<?xml version="1.0" encoding="UTF-8" standalone="no"?>
<svg width="100px" height="100px" viewBox="0 0 100 100" version="1.1" xmlns="http://www.w3.org/2000/svg" xmlns:xlink="http://www.w3.org/1999/xlink" xmlns:sketch="http://www.bohemiancoding.com/sketch/ns">
    <!-- Generator: Sketch 3.2.2 (9983) - http://www.bohemiancoding.com/sketch -->
    <title>22-02-2015 - dice</title>
    <desc>Created with Sketch.</desc>
    <defs></defs>
    <g id="January" stroke="none" stroke-width="1" fill="none" fill-rule="evenodd" sketch:type="MSPage">
        <g id="22-02-2015---dice" sketch:type="MSArtboardGroup" fill="#000000">
            <path d="M25.0267389,28.8841826 L64.7294754,38.0502815 L57.0000005,79.0000018 L19,69.0000018 L25.0267389,28.8841826 Z M29.0000004,65 C31.2091394,65 33.0000004,63.209139 33.0000004,61 C33.0000004,58.790861 31.2091394,57 29.0000004,57 C26.7908614,57 25.0000004,58.790861 25.0000004,61 C25.0000004,63.209139 26.7908614,65 29.0000004,65 Z M41.0000004,57 C43.2091394,57 45.0000004,55.209139 45.0000004,53 C45.0000004,50.790861 43.2091394,49 41.0000004,49 C38.7908614,49 37.0000004,50.790861 37.0000004,53 C37.0000004,55.209139 38.7908614,57 41.0000004,57 Z M54.0000004,49 C56.2091394,49 58.0000004,47.209139 58.0000004,45 C58.0000004,42.790861 56.2091394,41 54.0000004,41 C51.7908614,41 50.0000004,42.790861 50.0000004,45 C50.0000004,47.209139 51.7908614,49 54.0000004,49 Z M44.0000004,20 L81.0000004,28 L65.0000004,37 L25.0000004,28 L44.0000004,20 Z M52.6881329,28.9672214 C55.3892129,29.5413537 57.7184988,29.3498825 57.8907384,28.5395585 C58.0629781,27.7292344 56.012948,26.6069109 53.311868,26.0327786 C50.610788,25.4586463 48.2815021,25.6501175 48.1092624,26.4604415 C47.9370228,27.2707656 49.9870529,28.3930891 52.6881329,28.9672214 Z M66.0000004,38 L81.0000004,29 L74.0000004,69 L58.0000004,79 L66.0000004,38 Z M65.0352697,69.8644159 C66.09705,70.1688766 67.3897178,68.9093903 67.9225238,67.0512747 C68.4553299,65.1931591 68.0265115,63.4400447 66.9647312,63.1355841 C65.9029508,62.8311234 64.6102831,64.0906097 64.077477,65.9487253 C63.544671,67.8068409 63.9734893,69.5599553 65.0352697,69.8644159 Z M72.0352697,44.8644159 C73.09705,45.1688766 74.3897178,43.9093903 74.9225238,42.0512747 C75.4553299,40.1931591 75.0265115,38.4400447 73.9647312,38.1355841 C72.9029508,37.8311234 71.6102831,39.0906097 71.077477,40.9487253 C70.544671,42.8068409 70.9734893,44.5599553 72.0352697,44.8644159 Z" id="Rectangle-45" sketch:type="MSShapeGroup"></path>
        </g>
    </g>
</svg>