<?xml version="1.0" encoding="UTF-8" standalone="no"?>
<svg width="100px" height="100px" viewBox="0 0 100 100" version="1.1" xmlns="http://www.w3.org/2000/svg" xmlns:xlink="http://www.w3.org/1999/xlink" xmlns:sketch="http://www.bohemiancoding.com/sketch/ns">
    <!-- Generator: Sketch 3.2.2 (9983) - http://www.bohemiancoding.com/sketch -->
    <title>24-02-2015 - cook</title>
    <desc>Created with Sketch.</desc>
    <defs></defs>
    <g id="January" stroke="none" stroke-width="1" fill="none" fill-rule="evenodd" sketch:type="MSPage">
        <g id="24-02-2015---cook" sketch:type="MSArtboardGroup" fill="#000000">
            <path d="M64.0540541,49.8466711 L64.0540541,59 L35.3513514,59 L35.3513514,49.5107329 C35.2189218,49.5150622 35.0860306,49.5172414 34.9527027,49.5172414 C27.2468378,49.5172414 21,42.2380089 21,33.2586207 C21,24.2792324 27.2468378,17 34.9527027,17 C38.9091718,17 42.481017,18.9189265 45.020207,22.0016501 C48.7344702,19.3863903 53.6631929,17.7931034 59.0709459,17.7931034 C70.6297433,17.7931034 80,25.0723359 80,34.0517241 C80,41.697125 73.2070485,48.1100009 64.0540541,49.8466711 L64.0540541,49.8466711 Z M43,24 C43,24 35.0123966,26.6 38.6431254,37 C37.9169797,27.9 43,24 43,24 Z M49.8892735,76 C49.8892747,75 44.8645584,73.8624692 38.0389777,78.8624692 C31.2133971,83.8624691 31.972122,77 31.972122,77 C31.972122,77 26.9474077,84.9999999 39.7453725,80.9999999 C49.889273,77.9999999 49.8892723,77 49.8892735,76 Z M51,76 C50.9999988,75 56.024715,73.8624692 62.8502957,78.8624692 C69.6758764,83.8624691 68.9171514,77 68.9171514,77 C68.9171514,77 73.9418657,84.9999999 61.1439009,80.9999999 C51.0000005,77.9999999 51.0000012,77 51,76 Z M39,50 L40,50 L40,59 L39,59 L39,50 Z M49,50 L50,50 L50,59 L49,59 L49,50 Z M59,50 L60,50 L60,59 L59,59 L59,50 Z" id="cook" sketch:type="MSShapeGroup"></path>
        </g>
    </g>
</svg>