<?xml version="1.0" encoding="UTF-8" standalone="no"?>
<svg width="100px" height="100px" viewBox="0 0 100 100" version="1.1" xmlns="http://www.w3.org/2000/svg" xmlns:xlink="http://www.w3.org/1999/xlink" xmlns:sketch="http://www.bohemiancoding.com/sketch/ns">
    <!-- Generator: Sketch 3.2.2 (9983) - http://www.bohemiancoding.com/sketch -->
    <title>25-02-2015 - upload</title>
    <desc>Created with Sketch.</desc>
    <defs></defs>
    <g id="January" stroke="none" stroke-width="1" fill="none" fill-rule="evenodd" sketch:type="MSPage">
        <g id="25-02-2015---upload" sketch:type="MSArtboardGroup" fill="#000000">
            <path d="M50.4800484,43.13366 C50.4951942,43.1332402 50.5103629,43.1329135 50.5255538,43.1326805 L50.5255538,43.1326805 C51.6499404,42.9369959 52.8481848,43.2728496 53.7158496,44.1405143 L58.5979571,49.0226219 C60.0149811,50.4396458 60.0106882,52.7413884 58.5948168,54.1572599 C57.4071273,55.3449493 55.6026988,55.5393959 54.2151123,54.7399023 L54.2151123,72.4312203 C54.2151123,74.4384769 52.584499,76.0656798 50.5821544,76.0656798 C48.5757272,76.0656798 46.9491965,74.4325057 46.9491965,72.4312203 L46.9491965,54.6392796 C45.5425209,55.5533522 43.6403408,55.3924175 42.4051832,54.1572599 C40.9893118,52.7413884 40.9850189,50.4396458 42.4020429,49.0226219 L47.2841504,44.1405143 C48.1532564,43.2714084 49.354041,42.9358817 50.4800484,43.13366 L50.4800484,43.13366 Z M35.8046621,64.4323618 C12.6045293,65.5074864 10.2711848,44.3075377 26.2712766,39.2310054 C24.4712659,21.8257513 53.9079877,9.49702932 66.2715053,32.8853392 C92.4716554,32.8853393 90.6716451,66.6080185 64.0714927,64.4323618 C60.271471,63.3445334 62.0714813,59.7184389 64.4349416,59.7184392 C85.4716153,62.0754004 85.4716153,32.5227299 62.0714813,38.5057859 C60.0714698,18.9248757 26.87128,21.1005324 31.8713079,42.8570993 C17.8712283,43.7636229 16.6045521,60.2496494 35.8046622,59.7184389 C39.1696217,60.2496493 38.2412286,64.4323618 35.8046621,64.4323618 Z" id="Rectangle-1" sketch:type="MSShapeGroup"></path>
        </g>
    </g>
</svg>