<?xml version="1.0" encoding="UTF-8" standalone="no"?>
<svg width="100px" height="100px" viewBox="0 0 100 100" version="1.1" xmlns="http://www.w3.org/2000/svg" xmlns:xlink="http://www.w3.org/1999/xlink" xmlns:sketch="http://www.bohemiancoding.com/sketch/ns">
    <!-- Generator: Sketch 3.2.2 (9983) - http://www.bohemiancoding.com/sketch -->
    <title>26-02-2015 - puzzle</title>
    <desc>Created with Sketch.</desc>
    <defs></defs>
    <g id="January" stroke="none" stroke-width="1" fill="none" fill-rule="evenodd" sketch:type="MSPage">
        <g id="26-02-2015---puzzle" sketch:type="MSArtboardGroup" fill="#000000">
            <path d="M20.9994351,60.4976538 C20.9994351,56.2413285 32.1227228,74.064162 32.1227228,54.1134147 C32.1227228,34.1626675 20.9994351,49.5914113 20.9994351,45.3350859 C20.9994351,43.2067069 21.6056135,33.3673155 21.6056135,33.3673155 C21.8141033,29.8399187 24.7285511,27.7687687 28.1377644,28.7309334 C28.1377644,28.7309334 39.3419902,32.0259671 41.4610097,32.0259671 C45.6986178,32.0259671 25.7665584,19.0000996 46.4240926,19.0000996 C67.0816269,19.0000996 47.7486239,32.0259671 51.9857365,32.0259671 C54.1052515,32.0259671 64.9426072,28.7592772 64.9426072,28.7592772 C68.3179631,27.7768296 70.1231629,29.6943452 69.0644718,33.0721072 C69.0644718,33.0721072 65.9447233,41.0114918 67.0816269,45.3350859 C68.2013071,49.5931806 78.9994351,31.7685778 78.9994351,52.517355 C78.9994351,73.2661321 69.0970039,54.7258367 67.8761474,59.699624 C66.7911857,64.1197743 69.5824149,74.2318047 69.5824149,74.2318047 C70.3952757,77.6651361 68.1909878,80.2422794 64.6741581,79.9781807 C64.6741581,79.9781807 56.9641254,79.4654956 51.9857365,78.8370592 C48.5142445,78.3988428 62.3145036,65.9730648 46.4240926,66.0838631 C30.5336817,66.1946613 45.3862904,78.7624397 42.4514899,78.8370592 C36.9184832,78.9777401 27.3962461,79.3868362 27.3962461,79.3868362 C23.8633849,79.5323826 20.9994351,76.7831492 20.9994351,73.2483537 L20.9994351,60.4976538 Z" id="puzzle" sketch:type="MSShapeGroup" transform="translate(49.999435, 49.498448) rotate(-20.000000) translate(-49.999435, -49.498448) "></path>
        </g>
    </g>
</svg>