<?xml version="1.0" encoding="UTF-8" standalone="no"?>
<svg width="100px" height="100px" viewBox="0 0 100 100" version="1.1" xmlns="http://www.w3.org/2000/svg" xmlns:xlink="http://www.w3.org/1999/xlink" xmlns:sketch="http://www.bohemiancoding.com/sketch/ns">
    <!-- Generator: Sketch 3.2.2 (9983) - http://www.bohemiancoding.com/sketch -->
    <title>27-02-2015 - eraser</title>
    <desc>Created with Sketch.</desc>
    <defs></defs>
    <g id="January" stroke="none" stroke-width="1" fill="none" fill-rule="evenodd" sketch:type="MSPage">
        <g id="27-02-2015---eraser" sketch:type="MSArtboardGroup" fill="#000000">
            <path d="M43.6000457,76.5305372 C44.6898323,76.2975264 45.5873318,75.9352691 46.0753788,75.4472222 L50.3180195,71.2045815 L83.5520382,37.9705627 L66.5814755,21 L33.3474567,54.2340187 L33.3474567,54.2340187 L23.4479618,64.1335137 L34.7616703,75.4472222 C34.9921541,75.6777059 35.3072763,75.8792013 35.6862997,76.0520382 L0,76.0520382 L0,79.0520382 L42.4981492,79.0520382 C43.3264722,79.0520382 44,78.3804653 44,77.5520382 C44,77.1557632 43.8482674,76.7974902 43.6000457,76.5305372 Z M26.2763889,64.1335137 L36.1758839,74.0330086 C39.7114178,74.7401154 41.1256313,74.7401154 44.6611652,74.0330086 L48.1966991,70.4974747 L34.0545635,56.3553391 L26.2763889,64.1335137 Z" id="eraser" sketch:type="MSShapeGroup"></path>
        </g>
    </g>
</svg>