<?xml version="1.0" encoding="UTF-8" standalone="no"?>
<svg width="100px" height="100px" viewBox="0 0 100 100" version="1.1" xmlns="http://www.w3.org/2000/svg" xmlns:xlink="http://www.w3.org/1999/xlink" xmlns:sketch="http://www.bohemiancoding.com/sketch/ns">
    <!-- Generator: Sketch 3.2.2 (9983) - http://www.bohemiancoding.com/sketch -->
    <title>28-02-2015 - grain</title>
    <desc>Created with Sketch.</desc>
    <defs></defs>
    <g id="January" stroke="none" stroke-width="1" fill="none" fill-rule="evenodd" sketch:type="MSPage">
        <g id="28-02-2015---grain" sketch:type="MSArtboardGroup" fill="#000000">
            <path d="M40,64 C40,64 41,53 31,52 C21,51 40,64 40,64 Z M40.0555556,60 C40.0555556,60 39.0555556,49 49.0555556,48 C59.0555556,47 40.0555556,60 40.0555556,60 Z M40,53.9725652 C40,53.9725652 41,42.9725652 31,41.9725652 C21,40.9725652 40,53.9725652 40,53.9725652 Z M40.0555556,49.9725652 C40.0555556,49.9725652 39.0555556,38.9725652 49.0555556,37.9725652 C59.0555556,36.9725652 40.0555556,49.9725652 40.0555556,49.9725652 Z M40,43.9451303 C40,43.9451303 41,32.9451303 31,31.9451303 C21,30.9451303 40,43.9451303 40,43.9451303 Z M40.0555556,39.9451303 C40.0555556,39.9451303 39.0555556,28.9451303 49.0555556,27.9451303 C59.0555556,26.9451303 40.0555556,39.9451303 40.0555556,39.9451303 Z M40.004024,33.9176955 C40.004024,33.9176955 40.8591608,25.658297 32.3077928,24.9074426 C23.7564248,24.1565882 40.004024,33.9176955 40.004024,33.9176955 Z M40.0515316,30.9142778 C40.0515316,30.9142778 39.1963948,22.6548793 47.7477628,21.9040249 C56.2991308,21.1531705 40.0515316,30.9142778 40.0515316,30.9142778 Z" id="Path-55" sketch:type="MSShapeGroup" transform="translate(40.027778, 42.931413) rotate(-22.000000) translate(-40.027778, -42.931413) "></path>
            <path d="M39.0456398,32.0787843 C39.0456398,32.0787843 51.061743,73.2189324 51.0617426,81.9146493 C51.0617421,90.6103662 39.0456398,32.0787843 39.0456398,32.0787843 Z" id="Path-71" sketch:type="MSShapeGroup" transform="translate(45.053691, 57.437278) rotate(-7.000000) translate(-45.053691, -57.437278) "></path>
            <path d="M63.9079861,64 C63.9079861,64 64.9079861,53 54.9079861,52 C44.9079861,51 63.9079861,64 63.9079861,64 Z M63.9635417,60 C63.9635417,60 62.9635417,49 72.9635417,48 C82.9635417,47 63.9635417,60 63.9635417,60 Z M63.9079861,53.9725652 C63.9079861,53.9725652 64.9079861,42.9725652 54.9079861,41.9725652 C44.9079861,40.9725652 63.9079861,53.9725652 63.9079861,53.9725652 Z M63.9635417,49.9725652 C63.9635417,49.9725652 62.9635417,38.9725652 72.9635417,37.9725652 C82.9635417,36.9725652 63.9635417,49.9725652 63.9635417,49.9725652 Z M63.9079861,43.9451303 C63.9079861,43.9451303 64.9079861,32.9451303 54.9079861,31.9451303 C44.9079861,30.9451303 63.9079861,43.9451303 63.9079861,43.9451303 Z M63.9635417,39.9451303 C63.9635417,39.9451303 62.9635417,28.9451303 72.9635417,27.9451303 C82.9635417,26.9451303 63.9635417,39.9451303 63.9635417,39.9451303 Z M63.9120101,33.9176955 C63.9120101,33.9176955 64.7671469,25.658297 56.2157789,24.9074426 C47.6644109,24.1565882 63.9120101,33.9176955 63.9120101,33.9176955 Z M63.9595177,30.9142778 C63.9595177,30.9142778 63.1043809,22.6548793 71.6557489,21.9040249 C80.2071169,21.1531705 63.9595177,30.9142778 63.9595177,30.9142778 Z" id="Path-63" sketch:type="MSShapeGroup" transform="translate(63.935764, 42.931413) rotate(11.000000) translate(-63.935764, -42.931413) "></path>
            <path d="M70.9196621,27.0968101 C70.9196621,27.0968101 61.9196621,27.0968101 62.9196621,20.0968101 C63.9196621,13.0968101 70.9196621,27.0968101 70.9196621,27.0968101 Z" id="Path-74" sketch:type="MSShapeGroup" transform="translate(66.880881, 22.616810) scale(-1, 1) rotate(33.000000) translate(-66.880881, -22.616810) "></path>
            <path d="M55.0456398,32.0787843 C55.0456398,32.0787843 67.061743,73.2189324 67.0617426,81.9146493 C67.0617421,90.6103662 55.0456398,32.0787843 55.0456398,32.0787843 Z" id="Path-72" sketch:type="MSShapeGroup" transform="translate(61.053691, 57.437278) scale(-1, 1) rotate(1.000000) translate(-61.053691, -57.437278) "></path>
            <path d="M36.0361589,28.7297377 C36.0361589,28.7297377 27.0361589,28.7297377 28.0361589,21.7297377 C29.0361589,14.7297377 36.0361589,28.7297377 36.0361589,28.7297377 Z" id="Path-73" sketch:type="MSShapeGroup" transform="translate(31.997378, 24.249738) rotate(14.000000) translate(-31.997378, -24.249738) "></path>
        </g>
    </g>
</svg>