<?xml version="1.0" encoding="UTF-8" standalone="no"?>
<svg width="100px" height="100px" viewBox="0 0 100 100" version="1.1" xmlns="http://www.w3.org/2000/svg" xmlns:xlink="http://www.w3.org/1999/xlink" xmlns:sketch="http://www.bohemiancoding.com/sketch/ns">
    <!-- Generator: Sketch 3.3.3 (12081) - http://www.bohemiancoding.com/sketch -->
    <title>01-10-2015 - image</title>
    <desc>Created with Sketch.</desc>
    <defs></defs>
    <g id="January" stroke="none" stroke-width="1" fill="none" fill-rule="evenodd" sketch:type="MSPage">
        <g id="01-10-2015---image" sketch:type="MSArtboardGroup" fill="#000000">
            <path d="M12,21.9963074 L12,21.9963074 L12,78.0036926 C12,78.0009099 11.9990898,78 11.9974983,78 L88.0025017,78 C87.9993229,78 88,77.9993242 88,78.0036926 L88,21.9963074 C88,21.9990901 88.0009102,22 88.0025017,22 L11.9974983,22 C12.0006771,22 12,22.0006758 12,21.9963074 L12,21.9963074 Z M10,21.9963074 C10,20.8937773 10.8984375,20 11.9974983,20 L88.0025017,20 C89.1056896,20 90,20.8947304 90,21.9963074 L90,78.0036926 C90,79.1062227 89.1015625,80 88.0025017,80 L11.9974983,80 C10.8943104,80 10,79.1052696 10,78.0036926 L10,21.9963074 L10,21.9963074 Z" id="Shape" sketch:type="MSShapeGroup"></path>
            <path d="M45.7566147,48.7835212 C45.6028023,48.8038505 45.4590624,48.8936405 45.3812562,49.0399727 L38.5528227,61.8823882 L25.5310282,39.3279785 C25.3983706,39.0982087 25.0891463,39.0103318 24.85,39.148403 C24.8241165,39.1633469 24.8000023,39.180457 24.7777744,39.1993933 L24.7777744,39.1993933 C24.6111795,39.2098404 24.4514236,39.3016096 24.3678937,39.4587065 L10.7491587,65.071822 C10.6217219,65.3114956 10.7141073,65.6145729 10.9579266,65.7442139 C11.1946151,65.8700634 11.5035863,65.7830043 11.6321063,65.5412935 L24.9977113,40.4042464 L47.6689718,79.6720215 C47.8016294,79.9017913 48.1108537,79.9896682 48.35,79.851597 C48.5821523,79.7175638 48.6719724,79.4092695 48.5349972,79.1720215 L39.1286714,62.8797874 L39.1286714,62.8797874 C39.163955,62.8455983 39.1945397,62.8055487 39.2187438,62.7600273 L45.9100917,50.1754322 L63.0125336,79.7977306 C63.1520428,80.0393676 63.4608537,80.1265285 63.7,79.9884573 C63.9321523,79.8544241 64.0190899,79.5411372 63.878559,79.2977306 L46.3874664,49.0022694 C46.2587446,48.7793168 45.9858913,48.6878745 45.7566147,48.7835212 Z" id="Rectangle-1" sketch:type="MSShapeGroup"></path>
            <path d="M72.5,50.5 C77.4705627,50.5 81.5,46.4705627 81.5,41.5 C81.5,36.5294373 77.4705627,32.5 72.5,32.5 C67.5294373,32.5 63.5,36.5294373 63.5,41.5 C63.5,46.4705627 67.5294373,50.5 72.5,50.5 L72.5,50.5 Z M72.5,49.5 C68.081722,49.5 64.5,45.918278 64.5,41.5 C64.5,37.081722 68.081722,33.5 72.5,33.5 C76.918278,33.5 80.5,37.081722 80.5,41.5 C80.5,45.918278 76.918278,49.5 72.5,49.5 L72.5,49.5 Z" id="Shape" sketch:type="MSShapeGroup"></path>
        </g>
    </g>
</svg>