<?xml version="1.0" encoding="UTF-8" standalone="no"?>
<svg width="100px" height="100px" viewBox="0 0 100 100" version="1.1" xmlns="http://www.w3.org/2000/svg" xmlns:xlink="http://www.w3.org/1999/xlink" xmlns:sketch="http://www.bohemiancoding.com/sketch/ns">
    <!-- Generator: Sketch 3.4.1 (15681) - http://www.bohemiancoding.com/sketch -->
    <title>04-10-2015 - lan</title>
    <desc>Created with Sketch.</desc>
    <defs></defs>
    <g id="January" stroke="none" stroke-width="1" fill="none" fill-rule="evenodd" sketch:type="MSPage">
        <g id="04-10-2015---lan" sketch:type="MSArtboardGroup" fill="#000000">
            <path d="M78,52 L51,52 L51,65 L49,65 L49,52 L22,52 L22,65 L20,65 L20,50 L21,50 L79,50 L80,50 L80,65 L78,65 L78,52 Z M10,68.9907951 C10,67.8913093 10.8982124,67 11.9907951,67 L28.0092049,67 C29.1086907,67 30,67.8982124 30,68.9907951 L30,85.0092049 C30,86.1086907 29.1017876,87 28.0092049,87 L11.9907951,87 C10.8913093,87 10,86.1017876 10,85.0092049 L10,68.9907951 Z M40,68.9907951 C40,67.8913093 40.8982124,67 41.9907951,67 L58.0092049,67 C59.1086907,67 60,67.8982124 60,68.9907951 L60,85.0092049 C60,86.1086907 59.1017876,87 58.0092049,87 L41.9907951,87 C40.8913093,87 40,86.1017876 40,85.0092049 L40,68.9907951 Z M40,14.9907951 C40,13.8913093 40.8982124,13 41.9907951,13 L58.0092049,13 C59.1086907,13 60,13.8982124 60,14.9907951 L60,31.0092049 C60,32.1086907 59.1017876,33 58.0092049,33 L41.9907951,33 C40.8913093,33 40,32.1017876 40,31.0092049 L40,14.9907951 Z M70,68.9907951 C70,67.8913093 70.8982124,67 71.9907951,67 L88.0092049,67 C89.1086907,67 90,67.8982124 90,68.9907951 L90,85.0092049 C90,86.1086907 89.1017876,87 88.0092049,87 L71.9907951,87 C70.8913093,87 70,86.1017876 70,85.0092049 L70,68.9907951 Z M49,35 L51,35 L51,50 L49,50 L49,35 Z" id="lan" sketch:type="MSShapeGroup"></path>
        </g>
    </g>
</svg>