<?xml version="1.0" encoding="UTF-8" standalone="no"?>
<svg width="100px" height="100px" viewBox="0 0 100 100" version="1.1" xmlns="http://www.w3.org/2000/svg" xmlns:xlink="http://www.w3.org/1999/xlink" xmlns:sketch="http://www.bohemiancoding.com/sketch/ns">
    <!-- Generator: Sketch 3.4.1 (15681) - http://www.bohemiancoding.com/sketch -->
    <title>05-10-2015 - ethernet</title>
    <desc>Created with Sketch.</desc>
    <defs></defs>
    <g id="January" stroke="none" stroke-width="1" fill="none" fill-rule="evenodd" sketch:type="MSPage">
        <g id="05-10-2015---ethernet" sketch:type="MSArtboardGroup" fill="#000000">
            <path d="M69,42 L67,42 L67,28 L64,28 L64,42 L62,42 L62,28 L59,28 L59,42 L57,42 L57,28 L54,28 L54,42 L52,42 L52,28 L49,28 L49,42 L47,42 L47,28 L44,28 L44,42 L42,42 L42,28 L39,28 L39,42 L37,42 L37,28 L34,28 L34,42 L32,42 L32,28 L29,28 L29,47.5 L29,64 L37,64 L37,69 L42,69 L42,73 L59,73 L59,69 L64,69 L64,64 L72,64 L72,47.5 L72,28 L69,28 L69,42 Z M16,16 L84,16 L84,84 L16,84 L16,16 Z" id="ethernet" sketch:type="MSShapeGroup"></path>
        </g>
    </g>
</svg>