<?xml version="1.0" encoding="UTF-8" standalone="no"?>
<svg width="100px" height="100px" viewBox="0 0 100 100" version="1.1" xmlns="http://www.w3.org/2000/svg" xmlns:xlink="http://www.w3.org/1999/xlink" xmlns:sketch="http://www.bohemiancoding.com/sketch/ns">
    <!-- Generator: Sketch 3.4.1 (15681) - http://www.bohemiancoding.com/sketch -->
    <title>06-10-2015 - bricks</title>
    <desc>Created with Sketch.</desc>
    <defs></defs>
    <g id="January" stroke="none" stroke-width="1" fill="none" fill-rule="evenodd" sketch:type="MSPage">
        <g id="06-10-2015---bricks" sketch:type="MSArtboardGroup" fill="#000000">
            <path d="M23,21.0058587 C23,19.8980535 23.8949789,19 24.9970047,19 L47.0029953,19 C48.1059106,19 49,19.8970601 49,21.0058587 L49,30.9941413 C49,32.1019465 48.1050211,33 47.0029953,33 L24.9970047,33 C23.8940894,33 23,32.1029399 23,30.9941413 L23,21.0058587 Z M51,21.0058587 C51,19.8980535 51.8949789,19 52.9970047,19 L75.0029953,19 C76.1059106,19 77,19.8970601 77,21.0058587 L77,30.9941413 C77,32.1019465 76.1050211,33 75.0029953,33 L52.9970047,33 C51.8940894,33 51,32.1029399 51,30.9941413 L51,21.0058587 Z M23,53.0058587 C23,51.8980535 23.8949789,51 24.9970047,51 L47.0029953,51 C48.1059106,51 49,51.8970601 49,53.0058587 L49,62.9941413 C49,64.1019465 48.1050211,65 47.0029953,65 L24.9970047,65 C23.8940894,65 23,64.1029399 23,62.9941413 L23,53.0058587 Z M51,53.0058587 C51,51.8980535 51.8949789,51 52.9970047,51 L75.0029953,51 C76.1059106,51 77,51.8970601 77,53.0058587 L77,62.9941413 C77,64.1019465 76.1050211,65 75.0029953,65 L52.9970047,65 C51.8940894,65 51,64.1029399 51,62.9941413 L51,53.0058587 Z M9,37.0058587 C9,35.8980535 9.89497885,35 10.9970047,35 L33.0029953,35 C34.1059106,35 35,35.8970601 35,37.0058587 L35,46.9941413 C35,48.1019465 34.1050211,49 33.0029953,49 L10.9970047,49 C9.89408944,49 9,48.1029399 9,46.9941413 L9,37.0058587 Z M37,37.0058587 C37,35.8980535 37.8949789,35 38.9970047,35 L61.0029953,35 C62.1059106,35 63,35.8970601 63,37.0058587 L63,46.9941413 C63,48.1019465 62.1050211,49 61.0029953,49 L38.9970047,49 C37.8940894,49 37,48.1029399 37,46.9941413 L37,37.0058587 Z M65,37.0058587 C65,35.8980535 65.8949789,35 66.9970047,35 L89.0029953,35 C90.1059106,35 91,35.8970601 91,37.0058587 L91,46.9941413 C91,48.1019465 90.1050211,49 89.0029953,49 L66.9970047,49 C65.8940894,49 65,48.1029399 65,46.9941413 L65,37.0058587 Z M9,69.0058587 C9,67.8980535 9.89497885,67 10.9970047,67 L33.0029953,67 C34.1059106,67 35,67.8970601 35,69.0058587 L35,78.9941413 C35,80.1019465 34.1050211,81 33.0029953,81 L10.9970047,81 C9.89408944,81 9,80.1029399 9,78.9941413 L9,69.0058587 Z M37,69.0058587 C37,67.8980535 37.8949789,67 38.9970047,67 L61.0029953,67 C62.1059106,67 63,67.8970601 63,69.0058587 L63,78.9941413 C63,80.1019465 62.1050211,81 61.0029953,81 L38.9970047,81 C37.8940894,81 37,80.1029399 37,78.9941413 L37,69.0058587 Z M65,69.0058587 C65,67.8980535 65.8949789,67 66.9970047,67 L89.0029953,67 C90.1059106,67 91,67.8970601 91,69.0058587 L91,78.9941413 C91,80.1019465 90.1050211,81 89.0029953,81 L66.9970047,81 C65.8940894,81 65,80.1029399 65,78.9941413 L65,69.0058587 Z" id="bricks" sketch:type="MSShapeGroup"></path>
        </g>
    </g>
</svg>