<?xml version="1.0" encoding="UTF-8" standalone="no"?>
<svg width="100px" height="100px" viewBox="0 0 100 100" version="1.1" xmlns="http://www.w3.org/2000/svg" xmlns:xlink="http://www.w3.org/1999/xlink" xmlns:sketch="http://www.bohemiancoding.com/sketch/ns">
    <!-- Generator: Sketch 3.4.1 (15681) - http://www.bohemiancoding.com/sketch -->
    <title>09-10-2015 - selection</title>
    <desc>Created with Sketch.</desc>
    <defs></defs>
    <g id="January" stroke="none" stroke-width="1" fill="none" fill-rule="evenodd" sketch:type="MSPage">
        <g id="09-10-2015---selection" sketch:type="MSArtboardGroup" fill="#000000">
            <path d="M76,76 L71,76 L71,79 L77.5,79 L79,79 L79,71 L76,71 L76,76 Z M79,22.5 L79,21 L71,21 L71,24 L76,24 L76,29 L79,29 L79,22.5 Z M24,76 L29,76 L29,79 L21,79 L21,77.5 L21,71 L24,71 L24,76 Z M22.5,21 L29,21 L29,24 L24,24 L24,29 L21,29 L21,21 L22.5,21 Z M31,21 L39,21 L39,24 L31,24 L31,21 Z M41,21 L49,21 L49,24 L41,24 L41,21 Z M51,21 L59,21 L59,24 L51,24 L51,21 Z M61,21 L69,21 L69,24 L61,24 L61,21 Z M31,76 L39,76 L39,79 L31,79 L31,76 Z M41,76 L49,76 L49,79 L41,79 L41,76 Z M51,76 L59,76 L59,79 L51,79 L51,76 Z M61,76 L69,76 L69,79 L61,79 L61,76 Z M21,31 L24,31 L24,39 L21,39 L21,31 Z M21,41 L24,41 L24,49 L21,49 L21,41 Z M21,51 L24,51 L24,59 L21,59 L21,51 Z M21,61 L24,61 L24,69 L21,69 L21,61 Z M76,31 L79,31 L79,39 L76,39 L76,31 Z M76,41 L79,41 L79,49 L76,49 L76,41 Z M76,51 L79,51 L79,59 L76,59 L76,51 Z M76,61 L79,61 L79,69 L76,69 L76,61 Z" id="selection" sketch:type="MSShapeGroup"></path>
        </g>
    </g>
</svg>