<?xml version="1.0" encoding="UTF-8" standalone="no"?>
<svg width="100px" height="100px" viewBox="0 0 100 100" version="1.1" xmlns="http://www.w3.org/2000/svg" xmlns:xlink="http://www.w3.org/1999/xlink" xmlns:sketch="http://www.bohemiancoding.com/sketch/ns">
    <!-- Generator: Sketch 3.4.1 (15681) - http://www.bohemiancoding.com/sketch -->
    <title>10-10-2015 - door sign</title>
    <desc>Created with Sketch.</desc>
    <defs></defs>
    <g id="January" stroke="none" stroke-width="1" fill="none" fill-rule="evenodd" sketch:type="MSPage">
        <g id="10-10-2015---door-sign" sketch:type="MSArtboardGroup" fill="#000000">
            <path d="M29,45.4338081 C29,41.6142554 60,43.5 60,28.5 C55.5,12 34,23.5 31,28.5 C29,26 29.7795337,25.4547875 29.7795337,25.4547875 C29.3490091,21.0614797 32.2692394,16.0549397 36.4172199,14.524639 C36.4172199,14.524639 40,12 50,12 C60,12 63.5827801,14.524639 63.5827801,14.524639 C67.6791975,16.1678855 71,21.079658 71,25.4957852 L71,79.5042148 C71,83.920165 67.4191036,87.5 63.0012616,87.5 L36.9987384,87.5 C32.5811572,87.5 29,83.9176671 29,79.5003887 L29,45.4338081 Z M36,55.5 C36,54.6715729 36.6645216,54 37.5054016,54 L62.4945984,54 C63.3260087,54 64,54.6657972 64,55.5 C64,56.3284271 63.3354784,57 62.4945984,57 L37.5054016,57 C36.6739913,57 36,56.3342028 36,55.5 Z M36,62.5 C36,61.6715729 36.6645216,61 37.5054016,61 L62.4945984,61 C63.3260087,61 64,61.6657972 64,62.5 C64,63.3284271 63.3354784,64 62.4945984,64 L37.5054016,64 C36.6739913,64 36,63.3342028 36,62.5 Z M36,69.5 C36,68.6715729 36.6645216,68 37.5054016,68 L62.4945984,68 C63.3260087,68 64,68.6657972 64,69.5 C64,70.3284271 63.3354784,71 62.4945984,71 L37.5054016,71 C36.6739913,71 36,70.3342028 36,69.5 Z M36,76.5 C36,75.6715729 36.6645216,75 37.5054016,75 L62.4945984,75 C63.3260087,75 64,75.6657972 64,76.5 C64,77.3284271 63.3354784,78 62.4945984,78 L37.5054016,78 C36.6739913,78 36,77.3342028 36,76.5 Z" id="door-sign" sketch:type="MSShapeGroup"></path>
        </g>
    </g>
</svg>