<?xml version="1.0" encoding="UTF-8" standalone="no"?>
<svg width="100px" height="100px" viewBox="0 0 100 100" version="1.1" xmlns="http://www.w3.org/2000/svg" xmlns:xlink="http://www.w3.org/1999/xlink" xmlns:sketch="http://www.bohemiancoding.com/sketch/ns">
    <!-- Generator: Sketch 3.4.1 (15681) - http://www.bohemiancoding.com/sketch -->
    <title>11-10-2015 - hierarchy</title>
    <desc>Created with Sketch.</desc>
    <defs></defs>
    <g id="January" stroke="none" stroke-width="1" fill="none" fill-rule="evenodd" sketch:type="MSPage">
        <g id="11-10-2015---hierarchy" sketch:type="MSArtboardGroup" fill="#000000">
            <path d="M49,30.9170416 C48.8247572,30.8876414 48.6520902,30.8506448 48.4823492,30.806402 L33.7679432,55.330412 C35.1293485,56.4303246 36,58.1134865 36,60 C36,63.3137085 33.3137085,66 30,66 C26.6862915,66 24,63.3137085 24,60 C24,56.6862915 26.6862915,54 30,54 C30.7101981,54 31.3915766,54.123391 32.023867,54.3499044 L46.6476844,29.9768753 C45.050359,28.8988364 44,27.0720805 44,25 C44,21.6862915 46.6862915,19 50,19 C53.3137085,19 56,21.6862915 56,25 C56,26.8020024 55.2056073,28.4184644 53.9479172,29.5182907 L68.1108651,54.3034494 C68.704839,54.1065729 69.3399738,54 70,54 C73.3137085,54 76,56.6862915 76,60 C76,63.3137085 73.3137085,66 70,66 C66.6862915,66 64,63.3137085 64,60 C64,58.0623539 64.9184879,56.3392322 66.3438306,55.2422679 L52.2434069,30.5665265 C51.8480749,30.7260041 51.431859,30.8445893 51,30.9170416 L51,71.0829584 C53.8377133,71.5590365 56,74.0270037 56,77 C56,80.3137085 53.3137085,83 50,83 C46.6862915,83 44,80.3137085 44,77 C44,74.0270037 46.1622867,71.5590365 49,71.0829584 L49,30.9170394 Z" id="hierarchy" sketch:type="MSShapeGroup"></path>
        </g>
    </g>
</svg>