<?xml version="1.0" encoding="UTF-8" standalone="no"?>
<svg width="100px" height="100px" viewBox="0 0 100 100" version="1.1" xmlns="http://www.w3.org/2000/svg" xmlns:xlink="http://www.w3.org/1999/xlink" xmlns:sketch="http://www.bohemiancoding.com/sketch/ns">
    <!-- Generator: Sketch 3.4.1 (15681) - http://www.bohemiancoding.com/sketch -->
    <title>12-10-2015 - operations</title>
    <desc>Created with Sketch.</desc>
    <defs></defs>
    <g id="January" stroke="none" stroke-width="1" fill="none" fill-rule="evenodd" sketch:type="MSPage">
        <g id="12-10-2015---operations" sketch:type="MSArtboardGroup" fill="#000000">
            <path d="M32,67.5857864 L28.4644661,64.0502525 L27.0502525,65.4644661 L30.5857864,69 L27.0502525,72.5355339 L28.4644661,73.9497475 L32,70.4142136 L35.5355339,73.9497475 L36.9497475,72.5355339 L33.4142136,69 L36.9497475,65.4644661 L35.5355339,64.0502525 L32,67.5857864 Z M31,35 L26,35 L26,37 L31,37 L31,42 L33,42 L33,37 L38,37 L38,35 L33,35 L33,30 L31,30 L31,35 Z M17,21 L47,21 L47,51 L17,51 L17,21 Z M19,23 L45,23 L45,49 L19,49 L19,23 Z M50,21 L80,21 L80,51 L50,51 L50,21 Z M52,23 L78,23 L78,49 L52,49 L52,23 Z M59,35 L71,35 L71,37 L59,37 L59,35 Z M50,54 L80,54 L80,84 L50,84 L50,54 Z M52,56 L78,56 L78,82 L52,82 L52,56 Z M59,68 L71,68 L71,70 L59,70 L59,68 Z M65,65 C65.5522847,65 66,64.5522847 66,64 C66,63.4477153 65.5522847,63 65,63 C64.4477153,63 64,63.4477153 64,64 C64,64.5522847 64.4477153,65 65,65 Z M65,75 C65.5522847,75 66,74.5522847 66,74 C66,73.4477153 65.5522847,73 65,73 C64.4477153,73 64,73.4477153 64,74 C64,74.5522847 64.4477153,75 65,75 Z M17,54 L47,54 L47,84 L17,84 L17,54 Z M19,56 L45,56 L45,82 L19,82 L19,56 Z" id="operations" sketch:type="MSShapeGroup"></path>
        </g>
    </g>
</svg>