<?xml version="1.0" encoding="UTF-8" standalone="no"?>
<svg width="100px" height="100px" viewBox="0 0 100 100" version="1.1" xmlns="http://www.w3.org/2000/svg" xmlns:xlink="http://www.w3.org/1999/xlink" xmlns:sketch="http://www.bohemiancoding.com/sketch/ns">
    <!-- Generator: Sketch 3.4.1 (15681) - http://www.bohemiancoding.com/sketch -->
    <title>13-10-2015 - checklist</title>
    <desc>Created with Sketch.</desc>
    <defs></defs>
    <g id="January" stroke="none" stroke-width="1" fill="none" fill-rule="evenodd" sketch:type="MSPage">
        <g id="13-10-2015---checklist" sketch:type="MSArtboardGroup" fill="#000000">
            <path d="M22.0061093,83.8319254 L17.7763078,78.6085555 C17.4366427,78.189104 16.8019437,78.1167426 16.3727378,78.4643067 C15.9405396,78.8142939 15.8760514,79.4399658 16.2220158,79.8671963 L21.2623718,86.0915175 C21.3991884,86.2604719 21.5838732,86.3731121 21.7837155,86.4246782 C22.189214,86.5515945 22.6439022,86.4079564 22.9002088,86.0419126 L30.929279,74.575212 C31.2483256,74.1195663 31.1366085,73.4985471 30.6842034,73.1817695 C30.2286441,72.8627835 29.6080286,72.9752597 29.2909749,73.4280592 L22.0061093,83.8319254 Z M22.0061093,63.8319254 L17.7763078,58.6085555 C17.4366427,58.189104 16.8019437,58.1167426 16.3727378,58.4643067 C15.9405396,58.8142939 15.8760514,59.4399658 16.2220158,59.8671963 L21.2623718,66.0915175 C21.3991884,66.2604719 21.5838732,66.3731121 21.7837155,66.4246782 C22.189214,66.5515945 22.6439022,66.4079564 22.9002088,66.0419126 L30.929279,54.575212 C31.2483256,54.1195663 31.1366085,53.4985471 30.6842034,53.1817695 C30.2286441,52.8627835 29.6080286,52.9752597 29.2909749,53.4280592 L22.0061093,63.8319254 Z M22.0061093,43.8319254 L17.7763078,38.6085555 C17.4366427,38.189104 16.8019437,38.1167426 16.3727378,38.4643067 C15.9405396,38.8142939 15.8760514,39.4399658 16.2220158,39.8671963 L21.2623718,46.0915175 C21.3991884,46.2604719 21.5838732,46.3731121 21.7837155,46.4246782 C22.189214,46.5515945 22.6439022,46.4079564 22.9002088,46.0419126 L30.929279,34.575212 C31.2483256,34.1195663 31.1366085,33.4985471 30.6842034,33.1817695 C30.2286441,32.8627835 29.6080286,32.9752597 29.2909749,33.4280592 L22.0061093,43.8319254 Z M22.0061093,23.8319254 L17.7763078,18.6085555 C17.4366427,18.189104 16.8019437,18.1167426 16.3727378,18.4643067 C15.9405396,18.8142939 15.8760514,19.4399658 16.2220158,19.8671963 L21.2623718,26.0915175 C21.3991884,26.2604719 21.5838732,26.3731121 21.7837155,26.4246782 C22.189214,26.5515945 22.6439022,26.4079564 22.9002088,26.0419126 L30.929279,14.575212 C31.2483256,14.1195663 31.1366085,13.4985471 30.6842034,13.1817695 C30.2286441,12.8627835 29.6080286,12.9752597 29.2909749,13.4280592 L22.0061093,23.8319254 Z M37.0955919,19.7349859 L84.0955919,19.7349859 L84.0955919,21.7349859 L37.0955919,21.7349859 L37.0955919,19.7349859 Z M37.0955919,39.7349859 L84.0955919,39.7349859 L84.0955919,41.7349859 L37.0955919,41.7349859 L37.0955919,39.7349859 Z M37.0955919,59.7349859 L84.0955919,59.7349859 L84.0955919,61.7349859 L37.0955919,61.7349859 L37.0955919,59.7349859 Z M37.0955919,79.7349859 L84.0955919,79.7349859 L84.0955919,81.7349859 L37.0955919,81.7349859 L37.0955919,79.7349859 Z" id="checklist" sketch:type="MSShapeGroup"></path>
        </g>
    </g>
</svg>