<?xml version="1.0" encoding="UTF-8" standalone="no"?>
<svg width="100px" height="100px" viewBox="0 0 100 100" version="1.1" xmlns="http://www.w3.org/2000/svg" xmlns:xlink="http://www.w3.org/1999/xlink" xmlns:sketch="http://www.bohemiancoding.com/sketch/ns">
    <!-- Generator: Sketch 3.4.1 (15681) - http://www.bohemiancoding.com/sketch -->
    <title>14-10-2015 - flowchart</title>
    <desc>Created with Sketch.</desc>
    <defs></defs>
    <g id="January" stroke="none" stroke-width="1" fill="none" fill-rule="evenodd" sketch:type="MSPage">
        <g id="14-10-2015---flowchart" sketch:type="MSArtboardGroup" fill="#000000">
            <path d="M25,86 C31.0751322,86 36,81.0751322 36,75 C36,68.9248678 31.0751322,64 25,64 C18.9248678,64 14,68.9248678 14,75 C14,81.0751322 18.9248678,86 25,86 L25,86 Z M25,84 C20.0294373,84 16,79.9705627 16,75 C16,70.0294373 20.0294373,66 25,66 C29.9705627,66 34,70.0294373 34,75 C34,79.9705627 29.9705627,84 25,84 Z M75,86 C81.0751322,86 86,81.0751322 86,75 C86,68.9248678 81.0751322,64 75,64 C68.9248678,64 64,68.9248678 64,75 C64,81.0751322 68.9248678,86 75,86 Z M75,84 C70.0294373,84 66,79.9705627 66,75 C66,70.0294373 70.0294373,66 75,66 C79.9705627,66 84,70.0294373 84,75 C84,79.9705627 79.9705627,84 75,84 Z M50,36 C56.0751322,36 61,31.0751322 61,25 C61,18.9248678 56.0751322,14 50,14 C43.9248678,14 39,18.9248678 39,25 C39,31.0751322 43.9248678,36 50,36 Z M76,49.5 L76,48 L51,48 L51,34 L49,34 L49,48 L24,48 L24,49.5 L24,65 L26,65 L26,50 L74,50 L74,65 L76,65 L76,49.5 Z M50,34 C45.0294373,34 41,29.9705627 41,25 C41,20.0294373 45.0294373,16 50,16 C54.9705627,16 59,20.0294373 59,25 C59,29.9705627 54.9705627,34 50,34 Z" id="flowchart" sketch:type="MSShapeGroup"></path>
        </g>
    </g>
</svg>