<?xml version="1.0" encoding="UTF-8" standalone="no"?>
<svg width="100px" height="100px" viewBox="0 0 100 100" version="1.1" xmlns="http://www.w3.org/2000/svg" xmlns:xlink="http://www.w3.org/1999/xlink" xmlns:sketch="http://www.bohemiancoding.com/sketch/ns">
    <!-- Generator: Sketch 3.4.1 (15681) - http://www.bohemiancoding.com/sketch -->
    <title>15-10-2015 - flask</title>
    <desc>Created with Sketch.</desc>
    <defs></defs>
    <g id="January" stroke="none" stroke-width="1" fill="none" fill-rule="evenodd" sketch:type="MSPage">
        <g id="15-10-2015---flask" sketch:type="MSArtboardGroup" fill="#000000">
            <path d="M50,89 C66.5685425,89 80,75.5685425 80,59 C80,46.3915725 72.1427192,35.406837 60.4393399,31.0625057 L60.7824875,31.2772871 C60.5811598,31.0847524 60.3266576,29.857884 60.2243951,27.999757 C60.1255984,26.2046031 60.146342,23.8677289 60.2671295,21.124318 C60.347853,19.2908661 60.4704514,17.3382488 60.6236828,15.3355487 C60.7249003,14.0126591 60.8333584,12.7472606 60.9417942,11.5835173 C60.9797236,11.1764553 61.0149283,10.8112965 61.0465002,10.4935513 C61.0653884,10.3034565 61.0788299,10.1717705 61.0859164,10.1039999 L61.2013583,9 L60.0913391,9 L40.2693634,8.99999998 L39.1790947,8.99999998 L39.2730864,10.0862097 C39.2783871,10.1474669 39.288441,10.2667366 39.3025691,10.4392881 C39.3261847,10.7277129 39.3525177,11.0599722 39.3808891,11.4313322 C39.4620037,12.4930597 39.5431368,13.6545168 39.6188578,14.8777752 C39.7520622,17.0296642 39.8538672,19.1363555 39.9117758,21.1096657 C39.9923325,23.8547355 39.9833087,26.1932671 39.8678636,27.9906102 C39.747962,29.8573357 39.4901544,31.095632 39.2928932,31.2928932 L39.6645311,31.0579487 C27.8192203,35.2761198 20,46.199714 20,59 C20,75.5685425 33.4314575,89 50,89 L50,89 Z M50,87 C34.536027,87 22,74.463973 22,59 C22,47.0512078 29.2818813,36.878286 40.3354689,32.9420513 L40.5477602,32.8664533 L40.7071068,32.7071068 C41.8541739,31.5600397 42.1048044,27.6580185 41.9109152,21.0509991 C41.8523108,19.0539793 41.7494902,16.9262728 41.6150371,14.7542095 C41.5386901,13.5208397 41.4568932,12.3498794 41.3750778,11.2789788 C41.3464237,10.9039191 41.3198044,10.5680479 41.2958987,10.276079 C41.281514,10.1003942 41.2712017,9.97805917 41.2656404,9.91379031 L40.2693634,11 L60.0913391,11 L59.0967618,9.89600008 C59.0893252,9.96711837 59.0755356,10.1022148 59.0563005,10.2958006 C59.0243335,10.6175229 58.9887376,10.9867391 58.9504203,11.3979641 C58.8410083,12.5721839 58.7316185,13.848452 58.6295114,15.1829698 C58.4747385,17.205816 58.3508217,19.1794324 58.2690651,21.0363468 C57.977554,27.6573568 58.1927791,31.5680349 59.4001907,32.7227128 L59.549568,32.8655661 L59.7433383,32.9374942 C70.6725519,36.9944527 78,47.2384648 78,59 C78,74.463973 65.463973,87 50,87 L50,87 Z" id="Shape" sketch:type="MSShapeGroup"></path>
            <path d="M50,83 C63.254834,83 74,72.254834 74,59 C74,52.372583 71.3137085,46.372583 66.9705627,42.0294373 C64.9846464,40.0435209 65,48.5 56.8017161,45.0579943 C48.6034322,41.6159887 46.0970108,48.5 42.5,48.5 C35.872583,48.5 37.372583,37.6862915 33.0294373,42.0294373 C28.6862915,46.372583 26,52.372583 26,59 C26,72.254834 36.745166,83 50,83 Z M36,59 C37.6568542,59 39,57.6568542 39,56 C39,54.3431458 37.6568542,53 36,53 C34.3431458,53 33,54.3431458 33,56 C33,57.6568542 34.3431458,59 36,59 Z M66,67 C67.1045695,67 68,66.1045695 68,65 C68,63.8954305 67.1045695,63 66,63 C64.8954305,63 64,63.8954305 64,65 C64,66.1045695 64.8954305,67 66,67 Z M62.5,72 C63.3284271,72 64,71.3284271 64,70.5 C64,69.6715729 63.3284271,69 62.5,69 C61.6715729,69 61,69.6715729 61,70.5 C61,71.3284271 61.6715729,72 62.5,72 Z M58,66 C59.6568542,66 61,64.6568542 61,63 C61,61.3431458 59.6568542,60 58,60 C56.3431458,60 55,61.3431458 55,63 C55,64.6568542 56.3431458,66 58,66 Z" id="Oval-9" sketch:type="MSShapeGroup"></path>
        </g>
    </g>
</svg>