<?xml version="1.0" encoding="UTF-8" standalone="no"?>
<svg width="100px" height="100px" viewBox="0 0 100 100" version="1.1" xmlns="http://www.w3.org/2000/svg" xmlns:xlink="http://www.w3.org/1999/xlink" xmlns:sketch="http://www.bohemiancoding.com/sketch/ns">
    <!-- Generator: Sketch 3.4.1 (15681) - http://www.bohemiancoding.com/sketch -->
    <title>17-10-2015 - ornament</title>
    <desc>Created with Sketch.</desc>
    <defs></defs>
    <g id="January" stroke="none" stroke-width="1" fill="none" fill-rule="evenodd" sketch:type="MSPage">
        <g id="17-10-2015---ornament" sketch:type="MSArtboardGroup" fill="#000000">
            <path d="M57.3,31.0803666 C68.0820358,34.0464751 76,43.8932562 76,55.5833333 C76,69.6205707 64.5832611,81 50.5,81 C36.4167389,81 25,69.6205707 25,55.5833333 C25,43.8932562 32.9179642,34.0464751 43.7,31.0803666 L43.7,23.3888889 L57.3,23.3888889 L57.3,31.0803666 Z M44.55,24.2361111 L56.45,24.2361111 L56.45,31.0138889 C56.45,31.0138889 53.9,31.4375 50.5,31.4375 C47.1,31.4375 44.55,31.0138889 44.55,31.0138889 L44.55,24.2361111 Z M53.05,23.3888889 C53.05,21.7512112 51.9083261,20 50.5,20 C49.0916739,20 47.95,21.7512112 47.95,23.3888889 L53.05,23.3888889 Z M52.2,23.3888889 C52.2,22.7083378 52.0532144,22.1544867 51.8206412,21.7395567 C51.4935504,21.1559993 50.9967752,20.8472222 50.5,20.8472222 C49.65,20.8472222 48.8,21.7512112 48.8,23.3888889 L52.2,23.3888889 Z M38.175,37.3680556 C33.0874086,41.1805556 30.1,45.4166667 28.825,52.1944444 C31.8,45.8402778 33.0874086,44.5694444 38.175,37.3680556 Z" id="ornament" sketch:type="MSShapeGroup"></path>
        </g>
    </g>
</svg>