<?xml version="1.0" encoding="UTF-8" standalone="no"?>
<svg width="100px" height="100px" viewBox="0 0 100 100" version="1.1" xmlns="http://www.w3.org/2000/svg" xmlns:xlink="http://www.w3.org/1999/xlink" xmlns:sketch="http://www.bohemiancoding.com/sketch/ns">
    <!-- Generator: Sketch 3.4.1 (15681) - http://www.bohemiancoding.com/sketch -->
    <title>18-10-2015 - bank</title>
    <desc>Created with Sketch.</desc>
    <defs></defs>
    <g id="January" stroke="none" stroke-width="1" fill="none" fill-rule="evenodd" sketch:type="MSPage">
        <g id="18-10-2015---bank" sketch:type="MSArtboardGroup" fill="#000000">
            <path d="M68.8694386,69 L67.4955452,69 C66.6795545,69 66,69.6715729 66,70.5 C66,71.3342028 66.6695784,72 67.4955452,72 L76.5044548,72 C77.3204455,72 78,71.3284271 78,70.5 C78,69.6657972 77.3304216,69 76.5044548,69 L75.1305614,69 C75.4015425,66.8674132 76,61.8365346 76,59 C76,56.1634654 75.4015425,51.1325868 75.1305614,49 L76.5044548,49 C77.3204455,49 78,48.3284271 78,47.5 C78,46.6657972 77.3304216,46 76.5044548,46 L67.4955452,46 C66.6795545,46 66,46.6715729 66,47.5 C66,48.3342028 66.6695784,49 67.4955452,49 L68.8694386,49 C68.5984575,51.1325868 68,56.1634654 68,59 C68,61.8365346 68.5984575,66.8674132 68.8694386,69 Z M48.8694386,69 L47.4955452,69 C46.6795545,69 46,69.6715729 46,70.5 C46,71.3342028 46.6695784,72 47.4955452,72 L56.5044548,72 C57.3204455,72 58,71.3284271 58,70.5 C58,69.6657972 57.3304216,69 56.5044548,69 L55.1305614,69 C55.4015425,66.8674132 56,61.8365346 56,59 C56,56.1634654 55.4015425,51.1325868 55.1305614,49 L56.5044548,49 C57.3204455,49 58,48.3284271 58,47.5 C58,46.6657972 57.3304216,46 56.5044548,46 L47.4955452,46 C46.6795545,46 46,46.6715729 46,47.5 C46,48.3342028 46.6695784,49 47.4955452,49 L48.8694386,49 C48.5984575,51.1325868 48,56.1634654 48,59 C48,61.8365346 48.5984575,66.8674132 48.8694386,69 Z M28.8694386,69 L27.4955452,69 C26.6795545,69 26,69.6715729 26,70.5 C26,71.3342028 26.6695784,72 27.4955452,72 L36.5044548,72 C37.3204455,72 38,71.3284271 38,70.5 C38,69.6657972 37.3304216,69 36.5044548,69 L35.1305614,69 C35.4015425,66.8674132 36,61.8365346 36,59 C36,56.1634654 35.4015425,51.1325868 35.1305614,49 L36.5044548,49 C37.3204455,49 38,48.3284271 38,47.5 C38,46.6657972 37.3304216,46 36.5044548,46 L27.4955452,46 C26.6795545,46 26,46.6715729 26,47.5 C26,48.3342028 26.6695784,49 27.4955452,49 L28.8694386,49 C28.5984575,51.1325868 28,56.1634654 28,59 C28,61.8365346 28.5984575,66.8674132 28.8694386,69 Z M21,75.9968697 C21,74.3417443 22.3526179,73 23.9903889,73 L80.0096111,73 C81.6611573,73 83,74.3473909 83,75.9968697 L83,79.0031303 C83,80.6582557 81.6473821,82 80.0096111,82 L23.9903889,82 C22.3388427,82 21,80.6526091 21,79.0031303 L21,75.9968697 Z M51.9986656,27 C55.4986656,27 80.1884543,42.6190289 80.1884543,42.6190289 C82.2935129,43.9340029 81.9789034,45 79.4996443,45 L24.5003557,45 C22.0148779,45 21.7088226,43.9279232 23.8111926,42.6190289 C23.8111926,42.6190289 48.4986656,27 51.9986656,27 Z" id="bank" sketch:type="MSShapeGroup"></path>
        </g>
    </g>
</svg>