<?xml version="1.0" encoding="UTF-8" standalone="no"?>
<svg width="100px" height="100px" viewBox="0 0 100 100" version="1.1" xmlns="http://www.w3.org/2000/svg" xmlns:xlink="http://www.w3.org/1999/xlink" xmlns:sketch="http://www.bohemiancoding.com/sketch/ns">
    <!-- Generator: Sketch 3.4.1 (15681) - http://www.bohemiancoding.com/sketch -->
    <title>21-10-2015 - breakout</title>
    <desc>Created with Sketch.</desc>
    <defs></defs>
    <g id="January" stroke="none" stroke-width="1" fill="none" fill-rule="evenodd" sketch:type="MSPage">
        <g id="21-10-2015---breakout" sketch:type="MSArtboardGroup" fill="#000000">
            <path d="M30,75 L66,75 L66,83 L30,83 L30,75 Z M28,83 L28,75 C25.790861,75 24,76.790861 24,79 C24,81.209139 25.790861,83 28,83 Z M68,83 L68,75 C70.209139,75 72,76.790861 72,79 C72,81.209139 70.209139,83 68,83 Z M12,17 L36,17 L36,29 L12,29 L12,17 Z M12,31 L36,31 L36,43 L12,43 L12,31 Z M64,31 L88,31 L88,43 L64,43 L64,31 Z M53,55 C55.7614237,55 58,52.7614237 58,50 C58,47.2385763 55.7614237,45 53,45 C50.2385763,45 48,47.2385763 48,50 C48,52.7614237 50.2385763,55 53,55 Z M38,17 L62,17 L62,29 L38,29 L38,17 Z M64,17 L88,17 L88,29 L64,29 L64,17 Z" id="breakout" sketch:type="MSShapeGroup"></path>
        </g>
    </g>
</svg>