<?xml version="1.0" encoding="UTF-8" standalone="no"?>
<svg width="100px" height="100px" viewBox="0 0 100 100" version="1.1" xmlns="http://www.w3.org/2000/svg" xmlns:xlink="http://www.w3.org/1999/xlink" xmlns:sketch="http://www.bohemiancoding.com/sketch/ns">
    <!-- Generator: Sketch 3.4.1 (15681) - http://www.bohemiancoding.com/sketch -->
    <title>22-10-2015 - bullet list</title>
    <desc>Created with Sketch.</desc>
    <defs></defs>
    <g id="January" stroke="none" stroke-width="1" fill="none" fill-rule="evenodd" sketch:type="MSPage">
        <g id="22-10-2015---bullet-list" sketch:type="MSArtboardGroup" fill="#000000">
            <path d="M18,25 C20.7614237,25 23,22.7614237 23,20 C23,17.2385763 20.7614237,15 18,15 C15.2385763,15 13,17.2385763 13,20 C13,22.7614237 15.2385763,25 18,25 Z M27,19 L87,19 L87,21 L27,21 L27,19 Z M18,45 C20.7614237,45 23,42.7614237 23,40 C23,37.2385763 20.7614237,35 18,35 C15.2385763,35 13,37.2385763 13,40 C13,42.7614237 15.2385763,45 18,45 Z M27,39 L87,39 L87,41 L27,41 L27,39 Z M18,65 C20.7614237,65 23,62.7614237 23,60 C23,57.2385763 20.7614237,55 18,55 C15.2385763,55 13,57.2385763 13,60 C13,62.7614237 15.2385763,65 18,65 Z M27,59 L87,59 L87,61 L27,61 L27,59 Z M18,85 C20.7614237,85 23,82.7614237 23,80 C23,77.2385763 20.7614237,75 18,75 C15.2385763,75 13,77.2385763 13,80 C13,82.7614237 15.2385763,85 18,85 Z M27,79 L87,79 L87,81 L27,81 L27,79 Z" id="bullet-list" sketch:type="MSShapeGroup"></path>
        </g>
    </g>
</svg>