<?xml version="1.0" encoding="UTF-8" standalone="no"?>
<svg width="100px" height="100px" viewBox="0 0 100 100" version="1.1" xmlns="http://www.w3.org/2000/svg" xmlns:xlink="http://www.w3.org/1999/xlink" xmlns:sketch="http://www.bohemiancoding.com/sketch/ns">
    <!-- Generator: Sketch 3.4.2 (15857) - http://www.bohemiancoding.com/sketch -->
    <title>23-10-2015 - hashtag</title>
    <desc>Created with Sketch.</desc>
    <defs></defs>
    <g id="January" stroke="none" stroke-width="1" fill="none" fill-rule="evenodd" sketch:type="MSPage">
        <g id="23-10-2015---hashtag" sketch:type="MSArtboardGroup" fill="#000000">
            <path d="M56.1781589,64.1154798 L37.3192637,64.1154798 L34.2007628,75.7538836 C33.9158698,76.8171187 32.8274374,77.4492797 31.7530667,77.1614029 C30.6861345,76.8755193 30.0547496,75.772202 30.3370595,74.7186074 L33.1781589,64.1154798 L21.9930696,64.1154798 C20.8923277,64.1154798 20,63.2277501 20,62.1154798 C20,61.0109103 20.9023082,60.1154798 21.9930696,60.1154798 L34.2499557,60.1154798 L39.3409904,41.1154798 L26.9930696,41.1154798 C25.8923277,41.1154798 25,40.2277501 25,39.1154798 C25,38.0109103 25.9023082,37.1154798 26.9930696,37.1154798 L40.4127871,37.1154798 L43.7992372,24.477076 C44.0841302,23.4138409 45.1725626,22.7816799 46.2469333,23.0695566 C47.3138655,23.3554403 47.9452504,24.4587575 47.6629405,25.5123522 L44.5538919,37.1154798 L63.4127871,37.1154798 L66.7992372,24.477076 C67.0841302,23.4138409 68.1725626,22.7816799 69.2469333,23.0695566 C70.3138655,23.3554403 70.9452504,24.4587575 70.6629405,25.5123522 L67.5538919,37.1154798 L79.0069304,37.1154798 C80.1076723,37.1154798 81,38.0032094 81,39.1154798 C81,40.2200493 80.0976918,41.1154798 79.0069304,41.1154798 L66.4820951,41.1154798 L61.3910604,60.1154798 L74.0069304,60.1154798 C75.1076723,60.1154798 76,61.0032094 76,62.1154798 C76,63.2200493 75.0976918,64.1154798 74.0069304,64.1154798 L60.3192637,64.1154798 L57.2007628,75.7538836 C56.9158698,76.8171187 55.8274374,77.4492797 54.7530667,77.1614029 C53.6861345,76.8755193 53.0547496,75.772202 53.3370595,74.7186074 L56.1781589,64.1154798 Z M57.2499557,60.1154798 L38.3910604,60.1154798 L43.4820951,41.1154798 L62.3409904,41.1154798 L57.2499557,60.1154798 Z" id="hashtag" sketch:type="MSShapeGroup"></path>
        </g>
    </g>
</svg>