<?xml version="1.0" encoding="UTF-8" standalone="no"?>
<svg width="100px" height="100px" viewBox="0 0 100 100" version="1.1" xmlns="http://www.w3.org/2000/svg" xmlns:xlink="http://www.w3.org/1999/xlink" xmlns:sketch="http://www.bohemiancoding.com/sketch/ns">
    <!-- Generator: Sketch 3.4.2 (15857) - http://www.bohemiancoding.com/sketch -->
    <title>26-10-2015 - receipt</title>
    <desc>Created with Sketch.</desc>
    <defs></defs>
    <g id="January" stroke="none" stroke-width="1" fill="none" fill-rule="evenodd" sketch:type="MSPage">
        <g id="26-10-2015---receipt" sketch:type="MSArtboardGroup" fill="#000000">
            <path d="M30,21.3333333 L33.3333333,18 L36.6666667,21.3333333 L40,18 L43.3333333,21.3333333 L46.6666667,18 L50,21.3333333 L53.3333333,18 L56.6666667,21.3333333 L60,18 L63.3333333,21.3333333 L66.6666667,18 L70,21.3333333 L70,79.6666667 L66.6666667,83 L63.3333333,79.6666667 L60,83 L56.6666667,79.6666667 L53.3333333,83 L50,79.6666667 L46.6666667,83 L43.3333333,79.6666667 L40,83 L36.6666667,79.6666667 L33.3333333,83 L30,79.6666667 L30,21.3333333 Z M35,38 C35,37.5397627 35.3793108,37.1666667 35.8336829,37.1666667 L64.1663171,37.1666667 C64.6267475,37.1666667 65,37.536554 65,38 C65,38.4602373 64.6206892,38.8333333 64.1663171,38.8333333 L35.8336829,38.8333333 C35.3732525,38.8333333 35,38.463446 35,38 Z M35,29.6666667 C35,29.2064294 35.3793108,28.8333333 35.8336829,28.8333333 L64.1663171,28.8333333 C64.6267475,28.8333333 65,29.2032207 65,29.6666667 C65,30.126904 64.6206892,30.5 64.1663171,30.5 L35.8336829,30.5 C35.3732525,30.5 35,30.1301126 35,29.6666667 Z M35,46.3333333 C35,45.873096 35.3793108,45.5 35.8336829,45.5 L64.1663171,45.5 C64.6267475,45.5 65,45.8698874 65,46.3333333 C65,46.7935706 64.6206892,47.1666667 64.1663171,47.1666667 L35.8336829,47.1666667 C35.3732525,47.1666667 35,46.7967793 35,46.3333333 Z M35,54.6666667 C35,54.2064294 35.3793108,53.8333333 35.8336829,53.8333333 L64.1663171,53.8333333 C64.6267475,53.8333333 65,54.2032207 65,54.6666667 C65,55.126904 64.6206892,55.5 64.1663171,55.5 L35.8336829,55.5 C35.3732525,55.5 35,55.1301126 35,54.6666667 Z M57.6791857,62.5407915 C57.1264686,62.5620498 56.6587919,62.7560294 56.2761416,63.1227359 C55.8934912,63.4894425 55.7021689,63.97572 55.7021689,64.581583 C55.7021689,65.1555584 55.8828622,65.6046344 56.2442542,65.9288242 C56.6056461,66.2530141 57.0839519,66.4948242 57.6791857,66.6542618 L57.6791857,62.5407915 Z M58.4444825,72.3939878 C58.6783244,72.3833586 58.9201345,72.3381853 59.1699201,72.2584665 C59.4197057,72.1787477 59.6455723,72.0538568 59.8475266,71.88379 C60.049481,71.7137231 60.2142307,71.4931711 60.3417808,71.2221271 C60.4693309,70.9510831 60.533105,70.6189264 60.533105,70.2256469 C60.533105,69.6835589 60.3364682,69.2265112 59.9431887,68.8544901 C59.5499092,68.482469 59.0503455,68.2008 58.4444825,68.0094749 L58.4444825,72.3939878 Z M57.6791857,67.8181507 C57.3177937,67.7118589 56.9537499,67.5789962 56.5870434,67.4195586 C56.2203368,67.260121 55.8908373,67.0581697 55.598535,66.8136986 C55.3062327,66.5692276 55.0670798,66.2742724 54.8810693,65.9288242 C54.6950587,65.583376 54.6020548,65.1661871 54.6020548,64.6772451 C54.6020548,64.2201905 54.6844297,63.8083161 54.8491819,63.4416096 C55.0139341,63.074903 55.2371434,62.7613471 55.5188166,62.5009323 C55.8004897,62.2405175 56.127332,62.0385662 56.4993531,61.8950723 C56.8713743,61.7515784 57.2646479,61.6692036 57.6791857,61.6479452 L57.6791857,60.5 L58.4444825,60.5 L58.4444825,61.6479452 C58.6995827,61.6585744 58.9626509,61.6904614 59.2336948,61.7436073 C59.5047388,61.7967532 59.7704642,61.8764708 60.030879,61.9827626 C60.2912938,62.0890543 60.5384184,62.221917 60.7722603,62.3813546 C61.0061021,62.5407923 61.2133679,62.7268001 61.3940639,62.9393836 L60.5171613,63.6090183 C60.2726903,63.2582555 59.9617916,62.9951873 59.5844559,62.8198059 C59.2071201,62.6444245 58.8271328,62.5514207 58.4444825,62.5407915 L58.4444825,66.9253044 C58.8483912,67.0634837 59.244322,67.2202617 59.6322869,67.3956431 C60.0202518,67.5710245 60.3656948,67.7889193 60.6686263,68.0493341 C60.9715578,68.3097489 61.2160252,68.6206476 61.4020358,68.9820396 C61.5880463,69.3434315 61.6810502,69.7845357 61.6810502,70.3053653 C61.6810502,70.7517907 61.5986754,71.1583505 61.4339231,71.5250571 C61.2691709,71.8917636 61.0406471,72.2053196 60.7483447,72.4657344 C60.4560424,72.7261492 60.1132567,72.9307578 59.7199772,73.0795662 C59.3266977,73.2283747 58.901537,73.3080923 58.4444825,73.3187215 L58.4444825,74.4666667 L57.6791857,74.4666667 L57.6791857,73.3187215 C56.9564018,73.2974631 56.310689,73.1327134 55.7420282,72.8244673 C55.1733673,72.5162212 54.6977188,72.1176331 54.3150685,71.628691 L55.2238584,70.9909437 C55.3620377,71.2354147 55.5374165,71.4426805 55.75,71.6127473 C55.9625835,71.7828141 56.1831356,71.9263059 56.4116629,72.0432268 C56.6401901,72.1601477 56.8660567,72.2478371 57.0892694,72.3062976 C57.3124821,72.364758 57.5091189,72.3939878 57.6791857,72.3939878 L57.6791857,67.8181507 Z" id="receipt" sketch:type="MSShapeGroup"></path>
        </g>
    </g>
</svg>