<?xml version="1.0" encoding="UTF-8" standalone="no"?>
<svg width="100px" height="100px" viewBox="0 0 100 100" version="1.1" xmlns="http://www.w3.org/2000/svg" xmlns:xlink="http://www.w3.org/1999/xlink" xmlns:sketch="http://www.bohemiancoding.com/sketch/ns">
    <!-- Generator: Sketch 3.4.2 (15857) - http://www.bohemiancoding.com/sketch -->
    <title>27-10-2015 - perfume</title>
    <desc>Created with Sketch.</desc>
    <defs></defs>
    <g id="January" stroke="none" stroke-width="1" fill="none" fill-rule="evenodd" sketch:type="MSPage">
        <g id="27-10-2015---perfume" sketch:type="MSArtboardGroup" fill="#000000">
            <path d="M46,33 L46,31.5839563 C47.1534424,31.0799959 48.0799959,30.1534424 48.5839563,29 L52.4883178,29 C54.2089836,32.4504544 60.2776222,35 67.5,35 C76.0604136,35 83,31.418278 83,27 C83,22.581722 76.0604136,19 67.5,19 C60.2776222,19 54.2089836,21.5495456 52.4883178,25 L48.5839563,25 C48.0799959,23.8465576 47.1534424,22.9200041 46,22.4160437 L46,20.5052412 C46,19.6671298 45.3280543,19 44.4991673,19 L43.5008327,19 C42.6785455,19 42,19.6739194 42,20.5052412 L42,22.4160437 C40.2340952,23.1876003 39,24.949681 39,27 C39,29.050319 40.2340952,30.8123997 42,31.5839563 L42,33 L38,33 L38,39 L50,39 L50,33 L46,33 Z M30.1457713,79.7004786 C34.284497,81.8575229 53.5018965,81.920808 57.6367339,79.812599 C65.2450562,75.9333815 70,69.0709109 70,61.5 C70,53.0323315 69.4729826,49.7233894 66.6398114,46.3600567 C63.0285638,42.073049 56.0029528,40 44,40 C31.9970472,40 24.9714362,42.073049 21.3601886,46.3600567 C18.5270174,49.7233894 18,53.0323315 18,61.5 C18,68.9951482 22.659905,75.7989528 30.1457713,79.7004786 L30.1457713,79.7004786 Z M31.0701316,77.9269065 C24.2113378,74.3522018 20,68.2033384 20,61.5 C20,53.5208311 20.4795634,50.5098345 22.8898114,47.6485653 C26.0334103,43.9167157 32.5292041,42 44,42 C55.4707959,42 61.9665897,43.9167157 65.1101886,47.6485653 C67.5204366,50.5098345 68,53.5208311 68,61.5 C68,68.2717348 63.7015286,74.4754113 56.7282726,78.0308307 C53.1689675,79.845596 34.6344147,79.7845596 31.0701316,77.9269065 L31.0701316,77.9269065 Z" id="perfume" sketch:type="MSShapeGroup"></path>
        </g>
    </g>
</svg>