<?xml version="1.0" encoding="UTF-8" standalone="no"?>
<svg width="100px" height="100px" viewBox="0 0 100 100" version="1.1" xmlns="http://www.w3.org/2000/svg" xmlns:xlink="http://www.w3.org/1999/xlink" xmlns:sketch="http://www.bohemiancoding.com/sketch/ns">
    <!-- Generator: Sketch 3.4.2 (15857) - http://www.bohemiancoding.com/sketch -->
    <title>28-10-2015 - margin</title>
    <desc>Created with Sketch.</desc>
    <defs></defs>
    <g id="January" stroke="none" stroke-width="1" fill="none" fill-rule="evenodd" sketch:type="MSPage">
        <g id="28-10-2015---margin" sketch:type="MSArtboardGroup" fill="#000000">
            <path d="M30.5180723,19.5820312 C30.5180723,18.7082995 31.2239778,18 32.1084337,18 C32.9867661,18 33.6987952,18.71875 33.6987952,19.5820312 L33.6987952,80.4179688 C33.6987952,81.2917005 32.9928897,82 32.1084337,82 C31.2301014,82 30.5180723,81.28125 30.5180723,80.4179688 L30.5180723,19.5820312 Z M35.2891566,26 C35.2891566,25.1163444 36.0132571,24.4 36.88828,24.4 L65.4972622,24.4 C66.3804336,24.4 67.0963855,25.1101837 67.0963855,26 C67.0963855,26.8836556 66.3722851,27.6 65.4972622,27.6 L36.88828,27.6 C36.0051085,27.6 35.2891566,26.8898163 35.2891566,26 Z M35.2891566,34 C35.2891566,33.1163444 36.000629,32.4 36.8902245,32.4 L81.3989322,32.4 C82.2831775,32.4 83,33.1101837 83,34 C83,34.8836556 82.2885276,35.6 81.3989322,35.6 L36.8902245,35.6 C36.0059791,35.6 35.2891566,34.8898163 35.2891566,34 Z M35.2891566,42 C35.2891566,41.1163444 36.0131892,40.4 36.8970011,40.4 L73.4403483,40.4 C74.3283363,40.4 75.0481928,41.1101837 75.0481928,42 C75.0481928,42.8836556 74.3241602,43.6 73.4403483,43.6 L36.8970011,43.6 C36.0090131,43.6 35.2891566,42.8898163 35.2891566,42 Z M35.2891566,50 C35.2891566,49.1163444 36.0132571,48.4 36.88828,48.4 L65.4972622,48.4 C66.3804336,48.4 67.0963855,49.1101837 67.0963855,50 C67.0963855,50.8836556 66.3722851,51.6 65.4972622,51.6 L36.88828,51.6 C36.0051085,51.6 35.2891566,50.8898163 35.2891566,50 Z M35.2891566,58 C35.2891566,57.1163444 36.0131892,56.4 36.8970011,56.4 L73.4403483,56.4 C74.3283363,56.4 75.0481928,57.1101837 75.0481928,58 C75.0481928,58.8836556 74.3241602,59.6 73.4403483,59.6 L36.8970011,59.6 C36.0090131,59.6 35.2891566,58.8898163 35.2891566,58 Z M35.2891566,66 C35.2891566,65.1163444 36.0132571,64.4 36.88828,64.4 L65.4972622,64.4 C66.3804336,64.4 67.0963855,65.1101837 67.0963855,66 C67.0963855,66.8836556 66.3722851,67.6 65.4972622,67.6 L36.88828,67.6 C36.0051085,67.6 35.2891566,66.8898163 35.2891566,66 Z M35.2891566,74 C35.2891566,73.1163444 36.003102,72.4 36.8914203,72.4 L57.5423146,72.4 C58.4272204,72.4 59.1445783,73.1101837 59.1445783,74 C59.1445783,74.8836556 58.4306329,75.6 57.5423146,75.6 L36.8914203,75.6 C36.0065145,75.6 35.2891566,74.8898163 35.2891566,74 Z M17,44.7989742 C17,43.6931575 17.7609363,43.2827324 18.6865073,43.8894346 C18.6865073,43.8894346 25.746988,48.2641354 25.746988,49.9967159 C25.746988,51.7292965 18.6761577,56.1108664 18.6761577,56.1108664 C17.7504414,56.7105645 17,56.2959314 17,55.1944576 L17,44.7989742 Z" id="margin" sketch:type="MSShapeGroup"></path>
        </g>
    </g>
</svg>