<?xml version="1.0" encoding="UTF-8" standalone="no"?>
<svg width="100px" height="100px" viewBox="0 0 100 100" version="1.1" xmlns="http://www.w3.org/2000/svg" xmlns:xlink="http://www.w3.org/1999/xlink" xmlns:sketch="http://www.bohemiancoding.com/sketch/ns">
    <!-- Generator: Sketch 3.4.2 (15857) - http://www.bohemiancoding.com/sketch -->
    <title>29-10-2015 - plot</title>
    <desc>Created with Sketch.</desc>
    <defs></defs>
    <g id="January" stroke="none" stroke-width="1" fill="none" fill-rule="evenodd" sketch:type="MSPage">
        <g id="29-10-2015---plot" sketch:type="MSArtboardGroup" fill="#000000">
            <path d="M67.5980413,48.0596139 C67.4047826,48.0205193 67.2047876,48 67,48 C65.3431458,48 64,49.3431458 64,51 C64,51.4205627 64.0865398,51.820913 64.2427835,52.1842148 L55.4005273,60.3462974 C54.9824571,60.1251979 54.5058493,60 54,60 C53.0779373,60 52.2530325,60.4159829 51.7027163,61.0705182 L40.999473,57.0568019 C40.9998238,57.0379101 41,57.0189756 41,57 C41,55.3431458 39.6568542,54 38,54 C36.3431458,54 35,55.3431458 35,57 C35,57.3126667 35.0478319,57.6141617 35.1365776,57.8975668 L23.6630123,66.5027407 C23.1870389,66.1851412 22.6151405,66 22,66 C20.3431458,66 19,67.3431458 19,69 C19,70.6568542 20.3431458,72 22,72 C23.6568542,72 25,70.6568542 25,69 C25,68.6873333 24.9521681,68.3858383 24.8634224,68.1024332 L36.3369877,59.4972593 C36.8129611,59.8148588 37.3848595,60 38,60 C38.9220627,60 39.7469675,59.5840171 40.2972837,58.9294818 L51.000527,62.9431981 C51.0001762,62.9620899 51,62.9810244 51,63 C51,64.6568542 52.3431458,66 54,66 C55.6568542,66 57,64.6568542 57,63 C57,62.5794373 56.9134602,62.179087 56.7572165,61.8157852 L65.5994727,53.6537026 C66.0175429,53.8748021 66.4941507,54 67,54 C68.6568542,54 70,52.6568542 70,51 C70,50.2738881 69.7420345,49.6080272 69.3127512,49.0890653 L78.4019587,33.9403861 C78.5952174,33.9794807 78.7952124,34 79,34 C80.6568542,34 82,32.6568542 82,31 C82,29.3431458 80.6568542,28 79,28 C77.3431458,28 76,29.3431458 76,31 C76,31.7261119 76.2579655,32.3919728 76.6872488,32.9109347 L67.5980413,48.0596139 Z" id="plot" sketch:type="MSShapeGroup"></path>
        </g>
    </g>
</svg>