<?xml version="1.0" encoding="UTF-8" standalone="no"?>
<svg width="100px" height="100px" viewBox="0 0 100 100" version="1.1" xmlns="http://www.w3.org/2000/svg" xmlns:xlink="http://www.w3.org/1999/xlink" xmlns:sketch="http://www.bohemiancoding.com/sketch/ns">
    <!-- Generator: Sketch 3.4.2 (15857) - http://www.bohemiancoding.com/sketch -->
    <title>30-10-2015 - ping pong</title>
    <desc>Created with Sketch.</desc>
    <defs></defs>
    <g id="January" stroke="none" stroke-width="1" fill="none" fill-rule="evenodd" sketch:type="MSPage">
        <g id="30-10-2015---ping-pong" sketch:type="MSArtboardGroup" fill="#000000">
            <path d="M64.0859777,58 C61.0160554,61.4714499 56.9561901,63.8865171 52.4048835,64.6992234 L54.5541091,79.0273939 C54.8008383,80.6722553 53.6581293,82 52.002848,82 L45.997152,82 C44.3416228,82 43.1996322,80.6691189 43.4458909,79.0273939 L45.5951165,64.6992234 C41.0438099,63.8865171 36.9839446,61.4714499 33.9140223,58 L64.0859777,58 Z M65.6628154,56 C68.3829418,52.1222817 70,47.2679679 70,42 C70,29.2974508 60.5979797,19 49,19 C37.4020203,19 28,29.2974508 28,42 C28,47.2679679 29.6170582,52.1222817 32.3371846,56 L65.6628154,56 Z M23,29 C25.7614237,29 28,26.7614237 28,24 C28,21.2385763 25.7614237,19 23,19 C20.2385763,19 18,21.2385763 18,24 C18,26.7614237 20.2385763,29 23,29 Z" id="ping-pong" sketch:type="MSShapeGroup" transform="translate(44.000000, 50.500000) rotate(-314.000000) translate(-44.000000, -50.500000) "></path>
        </g>
    </g>
</svg>