<?xml version="1.0" encoding="UTF-8" standalone="no"?>
<svg width="100px" height="100px" viewBox="0 0 100 100" version="1.1" xmlns="http://www.w3.org/2000/svg" xmlns:xlink="http://www.w3.org/1999/xlink" xmlns:sketch="http://www.bohemiancoding.com/sketch/ns">
    <!-- Generator: Sketch 3.4.2 (15857) - http://www.bohemiancoding.com/sketch -->
    <title>31-10-2015 - turn</title>
    <desc>Created with Sketch.</desc>
    <defs></defs>
    <g id="January" stroke="none" stroke-width="1" fill="none" fill-rule="evenodd" sketch:type="MSPage">
        <g id="31-10-2015---turn" sketch:type="MSArtboardGroup" fill="#000000">
            <path d="M43,45.1882561 L43,11.4915641 C43,10.6675757 42.3284271,10 41.5,10 C40.6657972,10 40,10.667796 40,11.4915641 L40,88.5084359 C40,89.3324243 40.6715729,90 41.5,90 C42.3342028,90 43,89.332204 43,88.5084359 L43,50.7653273 C44.0672329,47.0860042 45.8882367,43.4167419 48.6398688,39.9772018 C48.9948383,39.5334899 49.3639335,39.0957809 49.7474093,38.6643705 C51.9267186,36.2126476 54.7489195,34.3043023 58.0679557,32.8818582 C61.0040379,31.6235372 64.1614498,30.8116313 67.3208078,30.3602945 C68.4272819,30.2022268 69.4537741,30.1007056 70.3729414,30.04443 C70.9189653,30.011 70.0544513,32.0000068 70.250721,32.0000068 L74.5,28.3803956 C74.5,28.3803956 69.1615714,25.9953904 69,26.0000067 C68.7361586,26.007545 70.5925487,28.0272397 70.2507213,28.0481679 C69.2796201,28.1076231 68.1998132,28.2144172 67.0379651,28.3803955 C63.7164025,28.8549044 60.392894,29.7095209 57.2801171,31.0435681 C53.7067212,32.5750235 50.6424425,34.6470596 48.2525907,37.3356428 C47.8460665,37.7929825 47.4546617,38.2571485 47.0781312,38.7278117 C45.4088147,40.8144572 44.0609556,42.9824236 43,45.1882561 Z" id="turn" sketch:type="MSShapeGroup"></path>
        </g>
    </g>
</svg>