<?xml version="1.0" encoding="UTF-8" standalone="no"?>
<svg width="100px" height="100px" viewBox="0 0 100 100" version="1.1" xmlns="http://www.w3.org/2000/svg" xmlns:xlink="http://www.w3.org/1999/xlink" xmlns:sketch="http://www.bohemiancoding.com/sketch/ns">
    <!-- Generator: Sketch 3.3.2 (12043) - http://www.bohemiancoding.com/sketch -->
    <title>03-06-2015 - gasoline</title>
    <desc>Created with Sketch.</desc>
    <defs></defs>
    <g id="January" stroke="none" stroke-width="1" fill="none" fill-rule="evenodd" sketch:type="MSPage">
        <g id="03-06-2015---gasoline" sketch:type="MSArtboardGroup" fill="#000000">
            <path d="M53.0665357,60.6700732 L63.2454844,50.4911246 C63.946642,49.789967 63.9523265,48.6352053 63.2435972,47.926476 C62.5299268,47.2128056 61.3866357,47.2169018 60.6789487,47.9245888 L50.5,58.1035375 L40.3210513,47.9245888 C39.6198938,47.2234313 38.4651321,47.2177468 37.7564028,47.926476 C37.0427324,48.6401464 37.0468286,49.7834376 37.7545156,50.4911246 L47.9334643,60.6700732 L37.7545156,70.8490219 C37.053358,71.5501795 37.0476735,72.7049412 37.7564028,73.4136704 C38.4700732,74.1273408 39.6133643,74.1232446 40.3210513,73.4155576 L50.5,63.236609 L60.6789487,73.4155576 C61.3801062,74.1167152 62.5348679,74.1223997 63.2435972,73.4136704 C63.9572676,72.7 63.9531714,71.5567089 63.2454844,70.8490219 L53.0665357,60.6700732 Z M26,34.5310559 C26,30.5535048 29.0198352,26.202677 32.7631474,24.8633045 C32.7631474,24.8633045 44.7521613,20.1201953 50.5,20.1201953 L67.8007022,20.1201953 C71.7767646,20.1201953 75,23.3375949 75,27.3113622 L75,77.8088331 C75,81.7804049 71.7849731,85 67.7962101,85 L33.2037899,85 C29.2252466,85 26,81.7757846 26,77.7980066 L26,34.5310559 Z M30.5891105,21.3343632 C30.2653987,20.3942357 30.7726296,19.3670996 31.6984696,19.0483073 L40.3190749,16.0799949 C41.2554689,15.7575686 42.2742947,16.2504967 42.6006984,17.1984418 L43.1886672,18.9060274 C43.5123791,19.8461549 43.0051482,20.8732909 42.0793081,21.1920833 L33.4587028,24.1603957 C32.5223089,24.482822 31.5034831,23.9898939 31.1770794,23.0419488 L30.5891105,21.3343632 Z M49.5925926,27.3290625 C49.5925926,25.3383888 51.2116735,23.7246289 53.1887497,23.7246289 L67.7742133,23.7246289 C69.760316,23.7246289 71.3703704,25.3424394 71.3703704,27.3290625 C71.3703704,29.3197362 69.7512894,30.9334961 67.7742133,30.9334961 L53.1887497,30.9334961 C51.202647,30.9334961 49.5925926,29.3156856 49.5925926,27.3290625 Z" id="Rectangle-2" sketch:type="MSShapeGroup"></path>
        </g>
    </g>
</svg>