<?xml version="1.0" encoding="UTF-8" standalone="no"?>
<svg width="100px" height="100px" viewBox="0 0 100 100" version="1.1" xmlns="http://www.w3.org/2000/svg" xmlns:xlink="http://www.w3.org/1999/xlink" xmlns:sketch="http://www.bohemiancoding.com/sketch/ns">
    <!-- Generator: Sketch 3.3.2 (12043) - http://www.bohemiancoding.com/sketch -->
    <title>04-06-2015 - cloche</title>
    <desc>Created with Sketch.</desc>
    <defs></defs>
    <g id="January" stroke="none" stroke-width="1" fill="none" fill-rule="evenodd" sketch:type="MSPage">
        <g id="04-06-2015---cloche" sketch:type="MSArtboardGroup" fill="#000000">
            <path d="M52.0914571,32.6852142 C67.0209056,33.545956 78.8,43.5488705 78.8,55.7619577 C78.8,68.5400699 21.2,68.5400699 21.2,55.7619577 C21.2,43.548502 32.9798054,33.5453522 47.9098945,32.6851363 C47.716076,33.3847898 47.538155,34.3826513 47.538155,34.6591451 C47.538155,35.501658 48.6401996,36.1846496 49.9996404,36.1846496 C51.3590812,36.1846496 52.4611258,35.501658 52.4611258,34.6591451 C52.4611258,34.3792764 52.2893331,33.3830877 52.0914571,32.6852142 L52.0914571,32.6852142 Z M79.6286489,53.9519274 C83.6464487,55.6031952 86,57.6066703 86,59.7664071 C86,65.4182644 69.882251,70 50,70 C30.117749,70 14,65.4182644 14,59.7664071 C14,57.6066703 16.3535513,55.6031952 20.3713511,53.9519274 C20.3240449,54.5473812 20.3,55.1483941 20.3,55.7542852 C20.3,70.0025575 79.7,70.0025575 79.7,55.7542852 C79.7,55.1483941 79.6759551,54.5473812 79.6286489,53.9519274 L79.6286489,53.9519274 Z M49.9997123,35.7397108 C51.087265,35.7397108 51.9689006,35.2502335 51.9689006,34.6464326 C51.9689006,34.3832641 51.7322981,33.2363056 51.5224013,32.8480908 C51.3125046,32.4598761 57.2200696,30 49.9997123,30 C42.7793549,30 48.6869202,32.4598761 48.4873556,32.8195446 C48.287791,33.1792131 48.030524,34.3800314 48.030524,34.6464326 C48.030524,35.2502335 48.9121597,35.7397108 49.9997123,35.7397108 Z M47.3,31.1123471 C49.1,31.5572859 50.9,31.5572859 52.7,31.1123471 C50.9,32.0022247 49.1,32.0022247 47.3,31.1123471 Z" id="cloche" sketch:type="MSShapeGroup"></path>
        </g>
    </g>
</svg>