<?xml version="1.0" encoding="UTF-8" standalone="no"?>
<svg width="100px" height="100px" viewBox="0 0 100 100" version="1.1" xmlns="http://www.w3.org/2000/svg" xmlns:xlink="http://www.w3.org/1999/xlink" xmlns:sketch="http://www.bohemiancoding.com/sketch/ns">
    <!-- Generator: Sketch 3.3.2 (12043) - http://www.bohemiancoding.com/sketch -->
    <title>05-06-2015 - tag</title>
    <desc>Created with Sketch.</desc>
    <defs></defs>
    <g id="January" stroke="none" stroke-width="1" fill="none" fill-rule="evenodd" sketch:type="MSPage">
        <g id="05-06-2015---tag" sketch:type="MSArtboardGroup" fill="#000000">
            <path d="M17,50.5 C17,46.0747546 30.9059839,35.9347569 30.9059839,35.9347569 C32.3105091,34.8662202 34.8805632,34 36.6496367,34 L80.7994651,34 C82.5670717,34 84,35.4391882 84,37.1941631 L84,63.8058369 C84,65.5699244 82.5685386,67 80.7994651,67 L36.6496367,67 C34.8820301,67 32.3054926,66.1419998 30.8969776,65.0582307 C30.8969776,65.0582307 17,54.9252454 17,50.5 Z M18.6047904,50.5 C18.6047904,47.2804879 30.9644978,37.6196075 30.9644978,37.6196075 C32.3367067,36.5095972 34.8874582,35.6097561 36.6417119,35.6097561 L80.7945127,35.6097561 C81.6785532,35.6097561 82.3952096,36.3165339 82.3952096,37.2108844 L82.3952096,63.7891151 C82.3952096,64.6733938 81.6844244,65.3902434 80.7945127,65.3902434 L36.6417119,65.3902438 C34.878482,65.3902439 32.3333658,64.4977849 30.9644978,63.3803925 C30.9644978,63.3803925 18.6047904,53.7195121 18.6047904,50.5 Z M23.8203593,52.5121951 C24.9282359,52.5121951 25.8263473,51.6113047 25.8263473,50.5 C25.8263473,49.3886953 24.9282359,48.4878049 23.8203593,48.4878049 C22.7124827,48.4878049 21.8143713,49.3886953 21.8143713,50.5 C21.8143713,51.6113047 22.7124827,52.5121951 23.8203593,52.5121951 Z M37.0598802,40.4336216 L37.0598802,60.5663784 C37.0598802,61.0037368 37.421561,61.3658537 37.8639527,61.3658537 L77.9803587,61.3658537 C78.4271484,61.3658537 78.7844311,61.0085296 78.7844311,60.5663784 L78.7844311,40.4336216 C78.7844311,39.9962632 78.4227504,39.6341463 77.9803587,39.6341463 L37.8639527,39.6341463 C37.417163,39.6341463 37.0598802,39.9914704 37.0598802,40.4336216 Z M36.257485,40.4336216 C36.257485,39.5475617 36.9733959,38.8292683 37.8639527,38.8292683 L77.9803587,38.8292683 C78.8675863,38.8292683 79.5868263,39.5534273 79.5868263,40.4336216 L79.5868263,60.5663784 C79.5868263,61.4524383 78.8709155,62.1707317 77.9803587,62.1707317 L37.8639527,62.1707317 C36.9767251,62.1707317 36.257485,61.4465727 36.257485,60.5663784 L36.257485,40.4336216 L36.257485,40.4336216 Z" id="tag" sketch:type="MSShapeGroup" transform="translate(50.500000, 50.500000) rotate(45.000000) translate(-50.500000, -50.500000) "></path>
        </g>
    </g>
</svg>