<?xml version="1.0" encoding="UTF-8" standalone="no"?>
<svg width="100px" height="100px" viewBox="0 0 100 100" version="1.1" xmlns="http://www.w3.org/2000/svg" xmlns:xlink="http://www.w3.org/1999/xlink" xmlns:sketch="http://www.bohemiancoding.com/sketch/ns">
    <!-- Generator: Sketch 3.3.2 (12043) - http://www.bohemiancoding.com/sketch -->
    <title>06-06-2015 - diamond</title>
    <desc>Created with Sketch.</desc>
    <defs></defs>
    <g id="January" stroke="none" stroke-width="1" fill="none" fill-rule="evenodd" sketch:type="MSPage">
        <g id="06-06-2015---diamond" sketch:type="MSArtboardGroup" fill="#000000">
            <path d="M49.9401496,74 L37.9700748,35.6 L61.9102244,35.6 L49.9401496,74 Z M49.3416459,74 L37.3715711,35.6 L26,35.6 L49.3416459,74 Z M50.6583541,74 L62.6284289,35.6 L74,35.6 L50.6583541,74 Z M26,35.12 L31.9850374,26 L37.3715711,35.12 L26,35.12 Z M73.8802993,35.12 L67.8952618,26 L62.5087282,35.12 L73.8802993,35.12 Z M37.9700748,35.12 L49.9401496,26 L61.9102244,35.12 L37.9700748,35.12 Z M37.9700748,34.64 L32.5835411,26 L49.3416459,26 L37.9700748,34.64 Z M61.9102244,34.64 L67.2967581,26 L50.5386534,26 L61.9102244,34.64 Z" id="diamond" sketch:type="MSShapeGroup"></path>
        </g>
    </g>
</svg>