<?xml version="1.0" encoding="UTF-8" standalone="no"?>
<svg width="100px" height="100px" viewBox="0 0 100 100" version="1.1" xmlns="http://www.w3.org/2000/svg" xmlns:xlink="http://www.w3.org/1999/xlink" xmlns:sketch="http://www.bohemiancoding.com/sketch/ns">
    <!-- Generator: Sketch 3.3.2 (12043) - http://www.bohemiancoding.com/sketch -->
    <title>07-06-2015 - signature</title>
    <desc>Created with Sketch.</desc>
    <defs></defs>
    <g id="January" stroke="none" stroke-width="1" fill="none" fill-rule="evenodd" sketch:type="MSPage">
        <g id="07-06-2015---signature" sketch:type="MSArtboardGroup" fill="#000000">
            <path d="M12.5,50.7327932 L8.60648695,46.8392802 C8.41691042,46.6497036 8.09906807,46.6484438 7.90380592,46.8437059 C7.71425435,47.0332575 7.7065623,47.3535691 7.89938017,47.5463869 L11.7928932,51.4399 L7.89938017,55.333413 C7.70980364,55.5229896 7.70854378,55.8408319 7.90380592,56.0360941 C8.0933575,56.2256456 8.41366908,56.2333377 8.60648695,56.0405198 L12.5,52.1470068 L16.3935131,56.0405198 C16.5830896,56.2300963 16.9009319,56.2313562 17.0961941,56.0360941 C17.2857457,55.8465425 17.2934377,55.5262309 17.1006198,55.333413 L13.2071068,51.4399 L17.1006198,47.5463869 C17.2901964,47.3568104 17.2914562,47.0389681 17.0961941,46.8437059 C16.9066425,46.6541543 16.5863309,46.6464623 16.3935131,46.8392802 L12.5,50.7327932 Z M6,60.4399 C6,60.1637576 6.224692,59.9399 6.50052158,59.9399 L94.4994784,59.9399 C94.7759089,59.9399 95,60.1718336 95,60.4399 C95,60.7160424 94.775308,60.9399 94.4994784,60.9399 L6.50052158,60.9399 C6.22409114,60.9399 6,60.7079664 6,60.4399 Z M24,57.698082 C30,48.9399005 35.2809726,37.5110785 34.0935018,40.4797555 C32.906031,43.4484326 31.7185602,51.166993 36.4684434,53.5419346 C41.2183265,55.9168762 44.1870035,51.1669927 44.1870035,51.1669927 C44.1870035,51.1669927 41.2183265,55.3231413 44.7807389,55.3231405 C48.3431513,55.3231396 50.7180929,50.5732581 52.4992991,50.5732573 C54.2805053,50.5732565 49.5306221,56.5106113 73.280038,55.3231408 C97.029454,54.1356703 89.3108938,56.5106113 89.3108938,56.5106113 L63.1865363,55.9168758 C63.1865363,55.9168758 57.8429177,56.5106109 52.4992991,52.9481988 C47.7494159,55.3231404 43.5,57.698083 42,54.4399005 C38.5,55.3231412 33.4997664,55.3231408 32.3122956,50.5732573 C32.3122956,49.9795222 26.5,54.4399005 24,57.698082 Z" id="Rectangle-9" sketch:type="MSShapeGroup"></path>
        </g>
    </g>
</svg>