<?xml version="1.0" encoding="UTF-8" standalone="no"?>
<svg width="100px" height="100px" viewBox="0 0 100 100" version="1.1" xmlns="http://www.w3.org/2000/svg" xmlns:xlink="http://www.w3.org/1999/xlink" xmlns:sketch="http://www.bohemiancoding.com/sketch/ns">
    <!-- Generator: Sketch 3.3.2 (12043) - http://www.bohemiancoding.com/sketch -->
    <title>09-06-2015 - crosshair</title>
    <desc>Created with Sketch.</desc>
    <defs></defs>
    <g id="January" stroke="none" stroke-width="1" fill="none" fill-rule="evenodd" sketch:type="MSPage">
        <g id="09-06-2015---crosshair" sketch:type="MSArtboardGroup" fill="#000000">
            <path d="M18.1387747,53 C19.559345,68.2787153 31.7212847,80.440655 47,81.8612253 L47,87.002848 C47,88.6583772 48.3431458,90 50,90 C51.6534829,90 53,88.6581293 53,87.002848 L53,81.8612253 L53,81.8612253 C68.2787153,80.440655 80.440655,68.2787153 81.8612253,53 L81.8612253,53 L87.002848,53 C88.6583772,53 90,51.6568542 90,50 C90,48.3465171 88.6581293,47 87.002848,47 L81.8612253,47 C80.440655,31.7212847 68.2787153,19.559345 53,18.1387747 L53,18.1387747 L53,12.997152 C53,11.3416228 51.6568542,10 50,10 C48.3465171,10 47,11.3418707 47,12.997152 L47,18.1387747 C31.7212847,19.559345 19.559345,31.7212847 18.1387747,47 L12.997152,47 C11.3416228,47 10,48.3431458 10,50 C10,51.6534829 11.3418707,53 12.997152,53 L18.1387747,53 L18.1387747,53 Z M50,77 C64.9116882,77 77,64.9116882 77,50 C77,35.0883118 64.9116882,23 50,23 C35.0883118,23 23,35.0883118 23,50 C23,64.9116882 35.0883118,77 50,77 Z M47,50 C47,48.3431458 48.3465171,47 50,47 C51.6568542,47 53,48.3465171 53,50 C53,51.6568542 51.6534829,53 50,53 C48.3431458,53 47,51.6534829 47,50 Z" id="crosshair" sketch:type="MSShapeGroup"></path>
        </g>
    </g>
</svg>