<?xml version="1.0" encoding="UTF-8" standalone="no"?>
<svg width="100px" height="100px" viewBox="0 0 100 100" version="1.1" xmlns="http://www.w3.org/2000/svg" xmlns:xlink="http://www.w3.org/1999/xlink" xmlns:sketch="http://www.bohemiancoding.com/sketch/ns">
    <!-- Generator: Sketch 3.3.2 (12043) - http://www.bohemiancoding.com/sketch -->
    <title>11-06-2015 - right</title>
    <desc>Created with Sketch.</desc>
    <defs></defs>
    <g id="January" stroke="none" stroke-width="1" fill="none" fill-rule="evenodd" sketch:type="MSPage">
        <g id="11-06-2015---right" sketch:type="MSArtboardGroup" fill="#000000">
            <path d="M31.0251847,50.0084848 C30.941414,49.092819 31.2508472,48.1470505 31.9543081,47.4435896 L55.4393033,23.9585945 C56.6927683,22.7051295 58.7241771,22.70427 59.9730751,23.953168 L61.0511184,25.0312113 C62.3015864,26.2816793 62.3013391,28.3093359 61.0456919,29.5649831 L40.6098739,50.0008011 L61.0456919,70.4366191 C62.2991569,71.6900841 62.3000164,73.7214929 61.0511184,74.9703909 L59.9730751,76.0484342 C58.722607,77.2989023 56.6949505,77.298655 55.4393033,76.0430077 L31.9543081,52.5580126 C31.2559802,51.8596847 30.9464366,50.9198983 31.0251847,50.0084848 Z M50,90 C72.09139,90 90,72.09139 90,50 C90,27.90861 72.09139,10 50,10 C27.90861,10 10,27.90861 10,50 C10,72.09139 27.90861,90 50,90 Z" id="right" sketch:type="MSShapeGroup" transform="translate(50.000000, 50.000000) scale(-1, 1) translate(-50.000000, -50.000000) "></path>
        </g>
    </g>
</svg>