<?xml version="1.0" encoding="UTF-8" standalone="no"?>
<svg width="100px" height="100px" viewBox="0 0 100 100" version="1.1" xmlns="http://www.w3.org/2000/svg" xmlns:xlink="http://www.w3.org/1999/xlink" xmlns:sketch="http://www.bohemiancoding.com/sketch/ns">
    <!-- Generator: Sketch 3.3.2 (12043) - http://www.bohemiancoding.com/sketch -->
    <title>15-06-2015 - windsock</title>
    <desc>Created with Sketch.</desc>
    <defs></defs>
    <g id="January" stroke="none" stroke-width="1" fill="none" fill-rule="evenodd" sketch:type="MSPage">
        <g id="15-06-2015---windsock" sketch:type="MSArtboardGroup" fill="#000000">
            <path d="M74.8068206,22.5965803 C74.8068206,21.7148133 75.5154906,21 76.4034103,21 C77.2851824,21 78,21.7124092 78,22.5965803 L78,77.4034197 C78,78.2851867 77.29133,79 76.4034103,79 C75.5216381,79 74.8068206,78.2875908 74.8068206,77.4034197 L74.8068206,22.5965803 Z M72.0127886,27.4444444 L59.6392184,21 L23.2120619,44.3198903 C22.9808772,44.4678898 22.5185077,44.7638889 22.1193603,45.9722222 C21.7202129,47.1805556 22.1193602,54.0277778 26.5099818,55.6388889 C26.5099818,55.6388889 27.7013426,55.7674049 28.1065716,55.6388889 C41.6715026,51.3368494 68.4204618,42.3472222 68.4204618,42.3472222 L72.0127886,27.4444444 Z M28.0767283,54.4154697 C29.2850367,53.8774961 29.3844036,51.4645093 28.2986705,49.0259127 C27.2129373,46.5873161 25.3532492,45.0465567 24.1449408,45.5845303 C22.9366324,46.1225039 22.8372655,48.5354907 23.9229987,50.9740873 C25.0087318,53.4126839 26.8684199,54.9534433 28.0767283,54.4154697 Z M35.2912254,45.1666667 C34.0937831,42.3472222 31.6988985,40.7361111 31.6988985,40.7361111 L38.2848311,36.3055556 C38.2848311,36.3055556 40.8792893,37.9166667 42.475879,41.5416667 C44.0724688,45.1666667 44.0724688,48.7916667 44.0724688,48.7916667 L36.8878151,51.2083333 C36.8878151,51.2083333 36.4886677,47.9861111 35.2912254,45.1666667 Z M48.8622379,39.125 C50.857975,43.1527778 51.2571224,46.375 51.2571224,46.375 L60.0383658,43.5555556 C60.0383658,43.5555556 58.8409235,39.5277778 56.8451864,35.0972222 C54.8494493,30.6666667 51.6562699,27.4444444 51.6562699,27.4444444 L44.0724688,32.2777778 C44.0724688,32.2777778 46.8665007,35.0972222 48.8622379,39.125 Z M64.8281349,31.875 C67.2230195,37.5138889 67.6221669,40.7361111 67.6221669,40.7361111 L70.4161989,28.25 L60.0383658,22.6111111 C60.0383658,22.6111111 62.4332504,26.2361111 64.8281349,31.875 Z" id="windsock" sketch:type="MSShapeGroup"></path>
        </g>
    </g>
</svg>