<?xml version="1.0" encoding="UTF-8" standalone="no"?>
<svg width="100px" height="100px" viewBox="0 0 100 100" version="1.1" xmlns="http://www.w3.org/2000/svg" xmlns:xlink="http://www.w3.org/1999/xlink" xmlns:sketch="http://www.bohemiancoding.com/sketch/ns">
    <!-- Generator: Sketch 3.3.2 (12043) - http://www.bohemiancoding.com/sketch -->
    <title>17-06-2015 - pause</title>
    <desc>Created with Sketch.</desc>
    <defs></defs>
    <g id="January" stroke="none" stroke-width="1" fill="none" fill-rule="evenodd" sketch:type="MSPage">
        <g id="17-06-2015---pause" sketch:type="MSArtboardGroup" fill="#000000">
            <path d="M22,23.9930696 C22,22.8923277 22.8970262,22 24.0049466,22 L43.9950534,22 C45.1023548,22 46,22.9023082 46,23.9930696 L46,76.0069304 C46,77.1076723 45.1029738,78 43.9950534,78 L24.0049466,78 C22.8976452,78 22,77.0976918 22,76.0069304 L22,23.9930696 Z M54,23.9930696 C54,22.8923277 54.8970262,22 56.0049466,22 L75.9950534,22 C77.1023548,22 78,22.9023082 78,23.9930696 L78,76.0069304 C78,77.1076723 77.1029738,78 75.9950534,78 L56.0049466,78 C54.8976452,78 54,77.0976918 54,76.0069304 L54,23.9930696 Z" id="pause" sketch:type="MSShapeGroup"></path>
        </g>
    </g>
</svg>