<?xml version="1.0" encoding="UTF-8" standalone="no"?>
<svg width="100px" height="100px" viewBox="0 0 100 100" version="1.1" xmlns="http://www.w3.org/2000/svg" xmlns:xlink="http://www.w3.org/1999/xlink" xmlns:sketch="http://www.bohemiancoding.com/sketch/ns">
    <!-- Generator: Sketch 3.3.2 (12043) - http://www.bohemiancoding.com/sketch -->
    <title>20-06-2015 - eject</title>
    <desc>Created with Sketch.</desc>
    <defs></defs>
    <g id="January" stroke="none" stroke-width="1" fill="none" fill-rule="evenodd" sketch:type="MSPage">
        <g id="20-06-2015---eject" sketch:type="MSArtboardGroup" fill="#000000">
            <path d="M50.798546,24.5726477 C50.3576066,23.8057966 49.6388796,23.8124455 49.2017634,24.5726477 L27.798546,61.7956344 C27.3576066,62.5624854 27.7227048,63.184141 28.5969373,63.184141 L71.403372,63.184141 C72.2852507,63.184141 72.6388796,62.5558366 72.2017634,61.7956344 L50.798546,24.5726477 Z M27,69.2012201 C27,68.0976992 27.8982417,67.2031187 29.0061411,67.2031187 L70.9938589,67.2031187 C72.10182,67.2031187 73,68.0898251 73,69.2012201 L73,73.2050174 C73,74.3085383 72.1017583,75.2031187 70.9938589,75.2031187 L29.0061411,75.2031187 C27.89818,75.2031187 27,74.3164124 27,73.2050174 L27,69.2012201 Z" id="eject" sketch:type="MSShapeGroup"></path>
        </g>
    </g>
</svg>