<?xml version="1.0" encoding="UTF-8" standalone="no"?>
<svg width="100px" height="100px" viewBox="0 0 100 100" version="1.1" xmlns="http://www.w3.org/2000/svg" xmlns:xlink="http://www.w3.org/1999/xlink" xmlns:sketch="http://www.bohemiancoding.com/sketch/ns">
    <!-- Generator: Sketch 3.3.2 (12043) - http://www.bohemiancoding.com/sketch -->
    <title>22-06-2015 - cookie</title>
    <desc>Created with Sketch.</desc>
    <defs></defs>
    <g id="January" stroke="none" stroke-width="1" fill="none" fill-rule="evenodd" sketch:type="MSPage">
        <g id="22-06-2015---cookie" sketch:type="MSArtboardGroup" fill="#000000">
            <path d="M50,85 C69.3299662,85 85,69.3299662 85,50 C85,43.3785251 83.1947089,40.2798148 80,35 C80,35 78,39.5 74.5,38.5 C71,37.5 72,33.5 72,33.5 C72,33.5 68,36.5 66,34 C64,31.5 66,28 66,28 C66,28 60.5737686,33.5 57,27 C53.4262314,20.5 63.5737699,17.7294514 63.5737699,17.7294514 C59.3997396,15.9716289 54.8133378,15 50,15 C30.6700338,15 15,30.6700338 15,50 C15,69.3299662 30.6700338,85 50,85 Z M50,83 C66,83 83,69.3299672 83,50.000001 C83,43.378526 81.5,40.5 80,38 C80,38 77.5,41.5000004 74,40.5 C70.5,39.4999996 70.5,36 70.5,36 C70.5,36 67,38 65,35.5 C63,33 64,31 64,31 C64,31 59,34.5000004 55.5,28 C52,21.4999996 59,18 59,18 C57,17.5 54.8063213,16.7401988 50,17 C31.5,18 17,31 17,50 C17,69 34,83 50,83 Z M33,39 C34.6568542,39 36,37.6568542 36,36 C36,34.3431458 34.6568542,33 33,33 C31.3431458,33 30,34.3431458 30,36 C30,37.6568542 31.3431458,39 33,39 Z M41,53 C42.6568542,53 44,51.6568542 44,50 C44,48.3431458 42.6568542,47 41,47 C39.3431458,47 38,48.3431458 38,50 C38,51.6568542 39.3431458,53 41,53 Z M33,67 C34.6568542,67 36,65.6568542 36,64 C36,62.3431458 34.6568542,61 33,61 C31.3431458,61 30,62.3431458 30,64 C30,65.6568542 31.3431458,67 33,67 Z M50,77 C51.6568542,77 53,75.6568542 53,74 C53,72.3431458 51.6568542,71 50,71 C48.3431458,71 47,72.3431458 47,74 C47,75.6568542 48.3431458,77 50,77 Z M56,64 C57.6568542,64 59,62.6568542 59,61 C59,59.3431458 57.6568542,58 56,58 C54.3431458,58 53,59.3431458 53,61 C53,62.6568542 54.3431458,64 56,64 Z M52,42 C53.6568542,42 55,40.6568542 55,39 C55,37.3431458 53.6568542,36 52,36 C50.3431458,36 49,37.3431458 49,39 C49,40.6568542 50.3431458,42 52,42 Z" id="cookie" sketch:type="MSShapeGroup"></path>
        </g>
    </g>
</svg>