<?xml version="1.0" encoding="UTF-8" standalone="no"?>
<svg width="100px" height="100px" viewBox="0 0 100 100" version="1.1" xmlns="http://www.w3.org/2000/svg" xmlns:xlink="http://www.w3.org/1999/xlink" xmlns:sketch="http://www.bohemiancoding.com/sketch/ns">
    <!-- Generator: Sketch 3.3.2 (12043) - http://www.bohemiancoding.com/sketch -->
    <title>24-06-2015 - orange</title>
    <desc>Created with Sketch.</desc>
    <defs></defs>
    <g id="January" stroke="none" stroke-width="1" fill="none" fill-rule="evenodd" sketch:type="MSPage">
        <g id="24-06-2015---orange" sketch:type="MSArtboardGroup" fill="#000000">
            <path d="M50,80 C66.5685425,80 80,66.5685425 80,50 C80,33.4314575 66.5685425,20 50,20 C33.4314575,20 20,33.4314575 20,50 C20,66.5685425 33.4314575,80 50,80 L50,80 Z M50,78 C34.536027,78 22,65.463973 22,50 C22,34.536027 34.536027,22 50,22 C65.463973,22 78,34.536027 78,50 C78,65.463973 65.463973,78 50,78 L50,78 Z M49.1256264,53.7230907 C49.6412308,51.574739 50.4790322,51.5824123 50.9927951,53.7230906 L56.0977132,74.9935829 C56.0977132,74.9935829 53.078462,76 50.0592107,76 C47.0399594,76 44.0207082,74.9935834 44.0207082,74.9935834 L49.1256264,53.7230907 Z M47.2145251,52.6238187 C48.8170235,51.1028777 49.5154838,51.5656124 48.7804646,53.6407516 L41.4770688,74.2600252 C41.4770688,74.2600252 38.3967776,73.4596755 35.8646204,71.8152734 C33.3324633,70.1708713 31.3484398,67.6824172 31.3484398,67.6824172 L47.2145251,52.6238187 Z M46.0918793,50.5284967 C48.256851,50.0878603 48.6039669,50.8504092 46.880979,52.2207262 L29.7607979,65.8366518 C29.7607979,65.8366518 27.5726835,63.5256111 26.2966928,60.7892401 C25.0207021,58.0528692 24.6568345,54.8911682 24.6568345,54.8911682 L46.0918793,50.5284967 Z M46.3434178,48.322576 C48.3991036,49.1321554 48.2749055,49.9607355 46.0835582,50.1715736 L24.3096016,52.2665307 C24.3096016,52.2665307 23.7331774,49.1365964 24.153376,46.1467283 C24.5735746,43.1568601 25.9903953,40.3070581 25.9903953,40.3070581 L46.3434178,48.322576 Z M47.721127,46.5935956 C49.0042417,48.3921727 48.4488033,49.0194354 46.4961542,48.0027658 L27.0939822,37.900798 C27.0939822,37.900798 28.3152366,34.9618711 30.2960437,32.6832132 C32.2768508,30.4045554 35.0172101,28.7861662 35.0172101,28.7861662 L47.721127,46.5935956 Z M49.7976838,45.8617486 C49.894219,48.0689967 49.0867575,48.29255 48.002846,46.3764102 L37.2327415,27.3370069 C37.2327415,27.3370069 39.8576259,25.5373582 42.7599165,24.7051398 C45.6622071,23.8729213 48.8419037,24.0081326 48.8419037,24.0081326 L49.7976838,45.8617486 Z M52.1155754,46.3764101 C51.0277786,48.2994184 50.2245472,48.061113 50.3207376,45.8617487 L51.2765175,24.0081331 C51.2765175,24.0081331 54.4562143,23.8729213 57.3585049,24.7051398 C60.2607955,25.5373582 62.8856801,27.3370064 62.8856801,27.3370064 L52.1155754,46.3764101 Z M53.6222673,48.0027658 C51.6626188,49.0230797 51.1187626,48.3857488 52.3972944,46.5935957 L65.101211,28.7861665 C65.101211,28.7861665 67.8415707,30.4045554 69.8223777,32.6832132 C71.8031848,34.9618711 73.0244396,37.9007976 73.0244396,37.9007976 L53.6222673,48.0027658 Z M54.0348633,50.1715736 C51.835661,49.9599798 51.7266601,49.1292638 53.7750036,48.322576 L74.1280256,40.3070582 C74.1280256,40.3070582 75.5448468,43.1568601 75.9650454,46.1467283 C76.385244,49.1365964 75.8088203,52.2665306 75.8088203,52.2665306 L54.0348633,50.1715736 Z M53.2374425,52.2207262 C51.5082785,50.8454973 51.869303,50.0894341 54.026542,50.5284967 L75.4615864,54.891168 C75.4615864,54.891168 75.0977194,58.0528692 73.8217286,60.7892401 C72.5457379,63.5256111 70.357624,65.836652 70.357624,65.836652 L53.2374425,52.2207262 Z M51.3379569,53.6407517 C50.6003029,51.5581741 51.3071215,51.10831 52.9038963,52.6238187 L68.7699813,67.6824168 C68.7699813,67.6824168 66.7859581,70.1708713 64.253801,71.8152734 C61.7216438,73.4596755 58.6413528,74.2600256 58.6413528,74.2600256 L51.3379569,53.6407517 Z" id="orange" sketch:type="MSShapeGroup"></path>
        </g>
    </g>
</svg>