<?xml version="1.0" encoding="UTF-8" standalone="no"?>
<svg width="100px" height="100px" viewBox="0 0 100 100" version="1.1" xmlns="http://www.w3.org/2000/svg" xmlns:xlink="http://www.w3.org/1999/xlink" xmlns:sketch="http://www.bohemiancoding.com/sketch/ns">
    <!-- Generator: Sketch 3.3.2 (12043) - http://www.bohemiancoding.com/sketch -->
    <title>25-06-2015 - doughnut</title>
    <desc>Created with Sketch.</desc>
    <defs></defs>
    <g id="January" stroke="none" stroke-width="1" fill="none" fill-rule="evenodd" sketch:type="MSPage">
        <g id="25-06-2015---doughnut" sketch:type="MSArtboardGroup" fill="#000000">
            <path d="M50,85 C30.6700338,85 15,69.3299662 15,50 C15,43.3785251 16.8052911,40.2798148 20,35 C20,35 22,39.5 25.5,38.5 C29,37.5 28,33.5 28,33.5 C28,33.5 32,36.5 34,34 C36,31.5 34,28 34,28 C34,28 39.4262314,33.5 43,27 C46.5737686,20.5 36.4262301,17.7294514 36.4262301,17.7294514 C40.6002604,15.9716289 45.1866622,15 50,15 C69.3299662,15 85,30.6700338 85,50 C85,69.3299662 69.3299662,85 50,85 Z M50,83 C34,83 17,69.3299672 17,50.000001 C17,43.378526 18.5,40.5 20,38 C20,38 22.5,41.5000004 26,40.5 C29.5,39.4999996 29.5,36 29.5,36 C29.5,36 33,38 35,35.5 C37,33 36,31 36,31 C36,31 41,34.5000004 44.5,28 C48,21.4999996 41,18 41,18 C43,17.5 45.1936787,16.7401988 50,17 C68.5,18 83,31 83,50 C83,69 66,83 50,83 Z M50,61 C56.0751322,61 61,56.0751322 61,50 C61,43.9248678 56.0751322,39 50,39 C43.9248678,39 39,43.9248678 39,50 C39,56.0751322 43.9248678,61 50,61 Z M50,59 C54.9705627,59 59,54.9705627 59,50 C59,45.0294373 54.9705627,41 50,41 C45.0294373,41 41,45.0294373 41,50 C41,54.9705627 45.0294373,59 50,59 Z M31,67 C31.5522847,67 32,66.5522847 32,66 C32,65.4477153 31.5522847,65 31,65 C30.4477153,65 30,65.4477153 30,66 C30,66.5522847 30.4477153,67 31,67 Z M33,57 C33.5522847,57 34,56.5522847 34,56 C34,55.4477153 33.5522847,55 33,55 C32.4477153,55 32,55.4477153 32,56 C32,56.5522847 32.4477153,57 33,57 Z M26,50 C26.5522847,50 27,49.5522847 27,49 C27,48.4477153 26.5522847,48 26,48 C25.4477153,48 25,48.4477153 25,49 C25,49.5522847 25.4477153,50 26,50 Z M42,74 C42.5522847,74 43,73.5522847 43,73 C43,72.4477153 42.5522847,72 42,72 C41.4477153,72 41,72.4477153 41,73 C41,73.5522847 41.4477153,74 42,74 Z M51,69 C51.5522847,69 52,68.5522847 52,68 C52,67.4477153 51.5522847,67 51,67 C50.4477153,67 50,67.4477153 50,68 C50,68.5522847 50.4477153,69 51,69 Z M56,76 C56.5522847,76 57,75.5522847 57,75 C57,74.4477153 56.5522847,74 56,74 C55.4477153,74 55,74.4477153 55,75 C55,75.5522847 55.4477153,76 56,76 Z M61,66 C61.5522847,66 62,65.5522847 62,65 C62,64.4477153 61.5522847,64 61,64 C60.4477153,64 60,64.4477153 60,65 C60,65.5522847 60.4477153,66 61,66 Z M67,71 C67.5522847,71 68,70.5522847 68,70 C68,69.4477153 67.5522847,69 67,69 C66.4477153,69 66,69.4477153 66,70 C66,70.5522847 66.4477153,71 67,71 Z M67,59 C67.5522847,59 68,58.5522847 68,58 C68,57.4477153 67.5522847,57 67,57 C66.4477153,57 66,57.4477153 66,58 C66,58.5522847 66.4477153,59 67,59 Z M75,61 C75.5522847,61 76,60.5522847 76,60 C76,59.4477153 75.5522847,59 75,59 C74.4477153,59 74,59.4477153 74,60 C74,60.5522847 74.4477153,61 75,61 Z M72,51 C72.5522847,51 73,50.5522847 73,50 C73,49.4477153 72.5522847,49 72,49 C71.4477153,49 71,49.4477153 71,50 C71,50.5522847 71.4477153,51 72,51 Z M64,44 C64.5522847,44 65,43.5522847 65,43 C65,42.4477153 64.5522847,42 64,42 C63.4477153,42 63,42.4477153 63,43 C63,43.5522847 63.4477153,44 64,44 Z M74,39 C74.5522847,39 75,38.5522847 75,38 C75,37.4477153 74.5522847,37 74,37 C73.4477153,37 73,37.4477153 73,38 C73,38.5522847 73.4477153,39 74,39 Z M58,33 C58.5522847,33 59,32.5522847 59,32 C59,31.4477153 58.5522847,31 58,31 C57.4477153,31 57,31.4477153 57,32 C57,32.5522847 57.4477153,33 58,33 Z M52,26 C52.5522847,26 53,25.5522847 53,25 C53,24.4477153 52.5522847,24 52,24 C51.4477153,24 51,24.4477153 51,25 C51,25.5522847 51.4477153,26 52,26 Z M42,37 C42.5522847,37 43,36.5522847 43,36 C43,35.4477153 42.5522847,35 42,35 C41.4477153,35 41,35.4477153 41,36 C41,36.5522847 41.4477153,37 42,37 Z M32,43 C32.5522847,43 33,42.5522847 33,42 C33,41.4477153 32.5522847,41 32,41 C31.4477153,41 31,41.4477153 31,42 C31,42.5522847 31.4477153,43 32,43 Z M67,32 C67.5522847,32 68,31.5522847 68,31 C68,30.4477153 67.5522847,30 67,30 C66.4477153,30 66,30.4477153 66,31 C66,31.5522847 66.4477153,32 67,32 Z M40,65 C40.5522847,65 41,64.5522847 41,64 C41,63.4477153 40.5522847,63 40,63 C39.4477153,63 39,63.4477153 39,64 C39,64.5522847 39.4477153,65 40,65 Z" id="cookie" sketch:type="MSShapeGroup"></path>
        </g>
    </g>
</svg>