<?xml version="1.0" encoding="UTF-8" standalone="no"?>
<svg width="100px" height="100px" viewBox="0 0 100 100" version="1.1" xmlns="http://www.w3.org/2000/svg" xmlns:xlink="http://www.w3.org/1999/xlink" xmlns:sketch="http://www.bohemiancoding.com/sketch/ns">
    <!-- Generator: Sketch 3.3.2 (12043) - http://www.bohemiancoding.com/sketch -->
    <title>26-06-2015 - mouse</title>
    <desc>Created with Sketch.</desc>
    <defs></defs>
    <g id="January" stroke="none" stroke-width="1" fill="none" fill-rule="evenodd" sketch:type="MSPage">
        <g id="26-06-2015---mouse" sketch:type="MSArtboardGroup" fill="#000000">
            <path d="M50,94 C63.9048603,94 75,77.8195879 75,58 C75,38.1804121 63.9048603,22 50,22 C36.0951397,22 25,38.1804121 25,58 C25,77.8195879 36.0951397,94 50,94 L50,94 Z M50,92 C37.3951923,92 27,76.8403446 27,58 C27,39.1596554 37.3951923,24 50,24 C62.6048077,24 73,39.1596554 73,58 C73,76.8403446 62.6048077,92 50,92 Z M47,38.0065045 L47,42.9934955 C47,44.6541993 48.3435759,46 50,46 C51.6537215,46 53,44.6525782 53,42.9934955 L53,38.0065045 C53,36.3458007 51.6564241,35 50,35 C48.3462785,35 47,36.3474218 47,38.0065045 Z M46,38.0065045 C46,35.7937732 47.7953562,34 50,34 C52.209139,34 54,35.7939455 54,38.0065045 L54,42.9934955 C54,45.2062268 52.2046438,47 50,47 C47.790861,47 46,45.2060545 46,42.9934955 L46,38.0065045 Z M50.5,21.0000001 C49.8887025,18.0453957 50.0290778,14.6446152 51.1949535,11.6949495 C52.1837113,9.1933923 53.9200835,7.04463167 56.5449882,5.33844362 L55.4550115,3.66155638 C52.478447,5.59632334 50.4749411,8.07566187 49.3349736,10.9597796 C48.0050466,14.3244951 47.8165316,17.6965697 48.5,21.0000001 C48.6574862,21.7611837 48.387578,22.1767868 48.5,22.5000001 L50.9444968,22.1714794 C50.9260601,22.1184739 50.5814043,21.3934546 50.5,21.0000001 Z" id="mouse" sketch:type="MSShapeGroup"></path>
        </g>
    </g>
</svg>