<?xml version="1.0" encoding="UTF-8" standalone="no"?>
<svg width="100px" height="100px" viewBox="0 0 100 100" version="1.1" xmlns="http://www.w3.org/2000/svg" xmlns:xlink="http://www.w3.org/1999/xlink" xmlns:sketch="http://www.bohemiancoding.com/sketch/ns">
    <!-- Generator: Sketch 3.3.2 (12043) - http://www.bohemiancoding.com/sketch -->
    <title>27-06-2015 - olive</title>
    <desc>Created with Sketch.</desc>
    <defs></defs>
    <g id="January" stroke="none" stroke-width="1" fill="none" fill-rule="evenodd" sketch:type="MSPage">
        <g id="27-06-2015---olive" sketch:type="MSArtboardGroup" fill="#000000">
            <path d="M50,88 C65.463973,88 78,70.9868205 78,50 C78,29.0131795 65.463973,12 50,12 C34.536027,12 22,29.0131795 22,50 C22,70.9868205 34.536027,88 50,88 Z M50,30 C57.7319865,30 64,26.6421356 64,22.5 C64,18.3578644 57.7319865,15 50,15 C42.2680135,15 36,18.3578644 36,22.5 C36,26.6421356 42.2680135,30 50,30 Z M68.5,26.5 C69.5,28.0000001 79.5,50.0000006 70,71.0000015 C75,50.0000006 67.5,24.9999999 68.5,26.5 Z" id="Oval-49" sketch:type="MSShapeGroup" transform="translate(50.000000, 50.000000) rotate(-30.000000) translate(-50.000000, -50.000000) "></path>
        </g>
    </g>
</svg>