<?xml version="1.0" encoding="UTF-8" standalone="no"?>
<svg width="100px" height="100px" viewBox="0 0 100 100" version="1.1" xmlns="http://www.w3.org/2000/svg" xmlns:xlink="http://www.w3.org/1999/xlink" xmlns:sketch="http://www.bohemiancoding.com/sketch/ns">
    <!-- Generator: Sketch 3.3.2 (12043) - http://www.bohemiancoding.com/sketch -->
    <title>28-06-2015 - glasses</title>
    <desc>Created with Sketch.</desc>
    <defs></defs>
    <g id="January" stroke="none" stroke-width="1" fill="none" fill-rule="evenodd" sketch:type="MSPage">
        <g id="28-06-2015---glasses" sketch:type="MSArtboardGroup" fill="#000000">
            <path d="M27,67 C36.3888407,67 44,59.3888407 44,50 C44,40.6111593 36.3888407,33 27,33 C17.6111593,33 10,40.6111593 10,50 C10,59.3888407 17.6111593,67 27,67 L27,67 Z M27,65 C18.7157288,65 12,58.2842712 12,50 C12,41.7157288 18.7157288,35 27,35 C35.2842712,35 42,41.7157288 42,50 C42,58.2842712 35.2842712,65 27,65 Z M73,67 C82.3888407,67 90,59.3888407 90,50 C90,40.6111593 82.3888407,33 73,33 C63.6111593,33 56,40.6111593 56,50 C56,59.3888407 63.6111593,67 73,67 Z M73,65 C64.7157288,65 58,58.2842712 58,50 C58,41.7157288 64.7157288,35 73,35 C81.2842712,35 88,41.7157288 88,50 C88,58.2842712 81.2842712,65 73,65 Z M41.624695,42.7808688 C41.6600921,42.7525512 41.7763363,42.6741213 41.9795537,42.5606977 C42.348841,42.3545839 42.8171885,42.1440906 43.3910206,41.9444968 C45.0804411,41.3568723 47.2662838,41 50,41 C52.7337162,41 54.9195589,41.3568723 56.6089794,41.9444968 C57.1828115,42.1440906 57.651159,42.3545839 58.0204463,42.5606977 C58.2236637,42.6741213 58.3399079,42.7525512 58.375305,42.7808688 L59.1561738,43.4055639 L60.4055639,41.8438262 L59.624695,41.2191312 C59.2245961,40.899052 58.4528662,40.468319 57.2660206,40.0555032 C55.3616911,39.3931277 52.9537838,39 50,39 C47.0462162,39 44.6383089,39.3931277 42.7339794,40.0555032 C41.5471338,40.468319 40.7754039,40.899052 40.375305,41.2191312 L39.5944361,41.8438262 L40.8438262,43.4055639 L41.624695,42.7808688 Z" id="glasses" sketch:type="MSShapeGroup"></path>
        </g>
    </g>
</svg>