<?xml version="1.0" encoding="UTF-8" standalone="no"?>
<svg width="100px" height="100px" viewBox="0 0 100 100" version="1.1" xmlns="http://www.w3.org/2000/svg" xmlns:xlink="http://www.w3.org/1999/xlink" xmlns:sketch="http://www.bohemiancoding.com/sketch/ns">
    <!-- Generator: Sketch 3.3.2 (12043) - http://www.bohemiancoding.com/sketch -->
    <title>29-06-2015 - spy</title>
    <desc>Created with Sketch.</desc>
    <defs></defs>
    <g id="January" stroke="none" stroke-width="1" fill="none" fill-rule="evenodd" sketch:type="MSPage">
        <g id="29-06-2015---spy" sketch:type="MSArtboardGroup" fill="#000000">
            <path d="M60.4924823,32.2614821 C67.1179451,32.6700326 71.6,33.4535191 71.6,34.352941 C71.6,35.6740928 61.9293506,36.7450978 50,36.7450978 C38.0706494,36.7450978 28.4,35.6740928 28.4,34.352941 C28.4,33.4535191 32.8820549,32.6700326 39.5075177,32.2614821 C38.7101103,30.9619768 39.7153948,29.1635345 39.7153948,27.1764705 C39.7153948,23.2130153 44.3199694,20 50,20 C55.6800306,20 60.2846052,23.2130153 60.2846052,27.1764705 C60.2846052,29.1635345 61.2898897,30.9619768 60.4924823,32.2614821 L60.4924823,32.2614821 Z M50,81 C60.2,81 69.2,80.4019608 74,74.4215669 C74,68.6887736 66.8832456,58.784248 62,55.8823526 C74,31.9607838 57.8,57.2018463 50,57.2018463 C42.2,57.2018463 26,31.9607838 38,55.8823527 C33.8230951,60.7900816 26,68.7503826 26,74.4215669 C31.4,80.4019608 39.8,81 50,81 Z M43.4,46.3137252 C45.8,46.3137252 50,43.3235291 50,41.5294115 C50,39.7352939 50,39.1372547 44.6,39.1372547 C39.2,39.1372547 39.2,40.9313723 39.2,42.7254899 C39.2,44.5196076 41,46.3137252 43.4,46.3137252 Z M56.6,46.3137252 C54.2,46.3137252 50,43.3235291 50,41.5294115 C50,39.7352939 50,39.1372547 55.4,39.1372547 C60.8,39.1372547 60.8,40.9313723 60.8,42.7254899 C60.8,44.5196076 59,46.3137252 56.6,46.3137252 Z" id="spy" sketch:type="MSShapeGroup"></path>
        </g>
    </g>
</svg>