<?xml version="1.0" encoding="UTF-8" standalone="no"?>
<svg width="100px" height="100px" viewBox="0 0 100 100" version="1.1" xmlns="http://www.w3.org/2000/svg" xmlns:xlink="http://www.w3.org/1999/xlink" xmlns:sketch="http://www.bohemiancoding.com/sketch/ns">
    <!-- Generator: Sketch 3.3.2 (12043) - http://www.bohemiancoding.com/sketch -->
    <title>30-06-2015 - screwdriver</title>
    <desc>Created with Sketch.</desc>
    <defs></defs>
    <g id="January" stroke="none" stroke-width="1" fill="none" fill-rule="evenodd" sketch:type="MSPage">
        <g id="30-06-2015---screwdriver" sketch:type="MSArtboardGroup" fill="#000000">
            <path d="M41,52.0274644 L41,47.9916575 C41,46.8916955 41.8926228,46 42.9950893,46 L57.0049107,46 C58.1067681,46 59,46.8988921 59,47.9916575 L59,52.0274644 L59,52.0274644 C56.7500248,52.2761865 55,54.1837232 55,56.5 C55,58.8162768 56.7500248,60.7238135 59,60.9725356 L59,82.0017326 C59,86.9713384 54.9716556,91 50,91 C45.0294373,91 41,86.9669478 41,82.0017326 L41,60.9725356 C43.2499752,60.7238135 45,58.8162768 45,56.5 C45,54.1837232 43.2499752,52.2761865 41,52.0274644 L41,52.0274644 Z M47,22 L45,15 L47,9 L53,9 L55,15 L53,22 L53,45 L47,45 L47,22 Z" id="screwdriver" sketch:type="MSShapeGroup" transform="translate(50.000000, 50.000000) rotate(-30.000000) translate(-50.000000, -50.000000) "></path>
        </g>
    </g>
</svg>