<?xml version="1.0" encoding="UTF-8" standalone="no"?>
<svg width="99px" height="100px" viewBox="0 0 99 100" version="1.1" xmlns="http://www.w3.org/2000/svg" xmlns:xlink="http://www.w3.org/1999/xlink" xmlns:sketch="http://www.bohemiancoding.com/sketch/ns">
    <!-- Generator: Sketch 3.3.3 (12081) - http://www.bohemiancoding.com/sketch -->
    <title>01-09-2015 - nurse</title>
    <desc>Created with Sketch.</desc>
    <defs></defs>
    <g id="January" stroke="none" stroke-width="1" fill="none" fill-rule="evenodd" sketch:type="MSPage">
        <g id="01-09-2015---nurse" sketch:type="MSArtboardGroup" fill="#000000">
            <path d="M11.1847809,41.111302 L11.1847809,41.111302 L11.9677398,39.1422291 L17.9677398,72.1422291 L16,70.5 L84,70.5 L82.0322602,72.1422291 L88.0322602,39.1422291 L88.8152191,41.111302 C88.7053005,41.0304795 88.4686681,40.8639933 88.1108066,40.6240479 C87.500914,40.215116 86.7806015,39.7569917 85.9553835,39.2618609 C83.5840278,37.8390475 80.8579567,36.413278 77.821677,35.0815764 C69.1525216,31.2793153 59.7617426,29 50,29 C40.2382574,29 30.8474784,31.2793153 22.178323,35.0815764 C19.1420433,36.413278 16.4159722,37.8390475 14.0446165,39.2618609 C13.2193985,39.7569917 12.499086,40.215116 11.8891934,40.6240479 C11.5313319,40.8639933 11.2946995,41.0304795 11.1847809,41.111302 L11.1847809,41.111302 Z M10,39.5 C10,39.5 27,27 50,27 C73,27 90,39.5 90,39.5 L84,72.5 L16,72.5 L10,39.5 L10,39.5 Z M55,44.5 L55,39.5 L45,39.5 L45,44.5 L40,44.5 L40,54.5 L45,54.5 L45,59.5 L55,59.5 L55,54.5 L60,54.5 L60,44.5 L55,44.5 Z" id="Shape" sketch:type="MSShapeGroup"></path>
        </g>
    </g>
</svg>