<?xml version="1.0" encoding="UTF-8" standalone="no"?>
<svg width="100px" height="100px" viewBox="0 0 100 100" version="1.1" xmlns="http://www.w3.org/2000/svg" xmlns:xlink="http://www.w3.org/1999/xlink" xmlns:sketch="http://www.bohemiancoding.com/sketch/ns">
    <!-- Generator: Sketch 3.3.3 (12081) - http://www.bohemiancoding.com/sketch -->
    <title>02-09-2015 - grapes</title>
    <desc>Created with Sketch.</desc>
    <defs></defs>
    <g id="January" stroke="none" stroke-width="1" fill="none" fill-rule="evenodd" sketch:type="MSPage">
        <g id="02-09-2015---grapes" sketch:type="MSArtboardGroup" fill="#000000">
            <path d="M49.4339623,78.7807183 C52.356399,78.7807183 54.7255021,76.060637 54.7255021,72.7052466 C54.7255021,69.3498563 52.356399,66.6297749 49.4339623,66.6297749 C46.5115255,66.6297749 44.1424224,69.3498563 44.1424224,72.7052466 C44.1424224,76.060637 46.5115255,78.7807183 49.4339623,78.7807183 Z M49.4339623,56.2146806 C52.356399,56.2146806 54.7255021,53.4945993 54.7255021,50.1392089 C54.7255021,46.7838185 52.356399,44.0637372 49.4339623,44.0637372 C46.5115255,44.0637372 44.1424224,46.7838185 44.1424224,50.1392089 C44.1424224,53.4945993 46.5115255,56.2146806 49.4339623,56.2146806 Z M37.339014,56.2146806 C40.2614508,56.2146806 42.6305539,53.4945993 42.6305539,50.1392089 C42.6305539,46.7838185 40.2614508,44.0637372 37.339014,44.0637372 C34.4165772,44.0637372 32.0474741,46.7838185 32.0474741,50.1392089 C32.0474741,53.4945993 34.4165772,56.2146806 37.339014,56.2146806 Z M61.5289105,56.2146806 C64.4513473,56.2146806 66.8204504,53.4945993 66.8204504,50.1392089 C66.8204504,46.7838185 64.4513473,44.0637372 61.5289105,44.0637372 C58.6064738,44.0637372 56.2373707,46.7838185 56.2373707,50.1392089 C56.2373707,53.4945993 58.6064738,56.2146806 61.5289105,56.2146806 Z M43.3864881,44.9316617 C46.3089249,44.9316617 48.678028,42.2115804 48.678028,38.85619 C48.678028,35.5007997 46.3089249,32.7807183 43.3864881,32.7807183 C40.4640514,32.7807183 38.0949483,35.5007997 38.0949483,38.85619 C38.0949483,42.2115804 40.4640514,44.9316617 43.3864881,44.9316617 Z M31.2915399,44.9316617 C34.2139766,44.9316617 36.5830797,42.2115804 36.5830797,38.85619 C36.5830797,35.5007997 34.2139766,32.7807183 31.2915399,32.7807183 C28.3691031,32.7807183 26,35.5007997 26,38.85619 C26,42.2115804 28.3691031,44.9316617 31.2915399,44.9316617 Z M55.4814364,44.9316617 C58.4038732,44.9316617 60.7729763,42.2115804 60.7729763,38.85619 C60.7729763,35.5007997 58.4038732,32.7807183 55.4814364,32.7807183 C52.5589996,32.7807183 50.1898965,35.5007997 50.1898965,38.85619 C50.1898965,42.2115804 52.5589996,44.9316617 55.4814364,44.9316617 Z M67.5763847,44.9316617 C70.4988214,44.9316617 72.8679245,42.2115804 72.8679245,38.85619 C72.8679245,35.5007997 70.4988214,32.7807183 67.5763847,32.7807183 C64.6539479,32.7807183 62.2848448,35.5007997 62.2848448,38.85619 C62.2848448,42.2115804 64.6539479,44.9316617 67.5763847,44.9316617 Z M43.3864881,67.4976995 C46.3089249,67.4976995 48.678028,64.7776181 48.678028,61.4222278 C48.678028,58.0668374 46.3089249,55.3467561 43.3864881,55.3467561 C40.4640514,55.3467561 38.0949483,58.0668374 38.0949483,61.4222278 C38.0949483,64.7776181 40.4640514,67.4976995 43.3864881,67.4976995 Z M55.4814364,67.4976995 C58.4038732,67.4976995 60.7729763,64.7776181 60.7729763,61.4222278 C60.7729763,58.0668374 58.4038732,55.3467561 55.4814364,55.3467561 C52.5589996,55.3467561 50.1898965,58.0668374 50.1898965,61.4222278 C50.1898965,64.7776181 52.5589996,67.4976995 55.4814364,67.4976995 Z M49.6395623,32.7807183 C49.6395623,32.7807183 48.1395623,26.2807183 50.6395623,24.7807183 L28.1395623,24.7807183 C28.1395623,24.7807183 69.1395623,19.7807183 70.6395623,21.2807183 C72.1395623,22.7807183 54.1395623,24.7807183 54.1395623,24.7807183 L49.6395623,32.7807183 Z" id="grapes" sketch:type="MSShapeGroup"></path>
        </g>
    </g>
</svg>