<?xml version="1.0" encoding="UTF-8" standalone="no"?>
<svg width="100px" height="100px" viewBox="0 0 100 100" version="1.1" xmlns="http://www.w3.org/2000/svg" xmlns:xlink="http://www.w3.org/1999/xlink" xmlns:sketch="http://www.bohemiancoding.com/sketch/ns">
    <!-- Generator: Sketch 3.3.3 (12081) - http://www.bohemiancoding.com/sketch -->
    <title>04-09-2015 - stats</title>
    <desc>Created with Sketch.</desc>
    <defs></defs>
    <g id="January" stroke="none" stroke-width="1" fill="none" fill-rule="evenodd" sketch:type="MSPage">
        <g id="04-09-2015---stats" sketch:type="MSArtboardGroup" fill="#000000">
            <path d="M12,73 L88,73 L88,77 L12,77 L12,73 Z M21,71 L31,71 L31,41 L21,41 L21,71 Z M33,71 L43,71 L43,31 L33,31 L33,71 Z M45,71 L55,71 L55,23 L45,23 L45,71 Z M57,71 L67,71 L67,28 L57,28 L57,71 Z M69,71 L79,71 L79,36 L69,36 L69,71 Z" id="stats" sketch:type="MSShapeGroup"></path>
        </g>
    </g>
</svg>