<?xml version="1.0" encoding="UTF-8" standalone="no"?>
<svg width="100px" height="100px" viewBox="0 0 100 100" version="1.1" xmlns="http://www.w3.org/2000/svg" xmlns:xlink="http://www.w3.org/1999/xlink" xmlns:sketch="http://www.bohemiancoding.com/sketch/ns">
    <!-- Generator: Sketch 3.3.3 (12081) - http://www.bohemiancoding.com/sketch -->
    <title>05-09-2015 - record</title>
    <desc>Created with Sketch.</desc>
    <defs></defs>
    <g id="January" stroke="none" stroke-width="1" fill="none" fill-rule="evenodd" sketch:type="MSPage">
        <g id="05-09-2015---record" sketch:type="MSArtboardGroup">
            <path d="M50,90 C72.09139,90 90,72.09139 90,50 C90,27.90861 72.09139,10 50,10 C27.90861,10 10,27.90861 10,50 C10,72.09139 27.90861,90 50,90 Z M50,65 C58.2842712,65 65,58.2842712 65,50 C65,41.7157288 58.2842712,35 50,35 C41.7157288,35 35,41.7157288 35,50 C35,58.2842712 41.7157288,65 50,65 Z M50,52 C51.1045695,52 52,51.1045695 52,50 C52,48.8954305 51.1045695,48 50,48 C48.8954305,48 48,48.8954305 48,50 C48,51.1045695 48.8954305,52 50,52 Z" id="Oval-14" fill="#000000" sketch:type="MSShapeGroup"></path>
            <path d="M62.8139563,16.9337892 C59.7124162,15.0567483 55.8281999,14 51,14 C43.4772771,14 36.968398,16.565377 31.9180686,20.8017569 C37.332947,17.1218136 43.9354164,15 51,15 C55.2171028,15 59.1878905,15.6785788 62.8139563,16.9337892 Z" id="Oval-16" fill="#FFFFFF" sketch:type="MSShapeGroup" transform="translate(48.020763, 47.000000) rotate(46.000000) translate(-48.020763, -47.000000) "></path>
            <path d="M62.6307892,20.9062746 C60.6155159,19.6866384 58.0916867,19 54.9544896,19 C50.0664849,19 45.8372407,20.6668931 42.5557116,23.4195461 C46.074112,21.0284463 50.3641679,19.6497654 54.9544896,19.6497654 C57.694617,19.6497654 60.2746972,20.0906824 62.6307892,20.9062746 Z" id="Oval-16-Copy-2" fill="#FFFFFF" sketch:type="MSShapeGroup" transform="translate(53.018685, 40.442257) rotate(44.000000) translate(-53.018685, -40.442257) "></path>
            <path d="M66.8139563,23.9337892 C63.7124162,22.0567483 59.8281999,21 55,21 C47.4772771,21 40.968398,23.565377 35.9180686,27.8017569 C41.332947,24.1218136 47.9354164,22 55,22 C59.2171028,22 63.1878905,22.6785788 66.8139563,23.9337892 Z" id="Oval-16-Copy-4" fill="#FFFFFF" sketch:type="MSShapeGroup" transform="translate(52.020763, 54.000000) rotate(217.000000) translate(-52.020763, -54.000000) "></path>
            <path d="M57.6307892,40.9062746 C55.6155159,39.6866384 53.0916867,39 49.9544896,39 C45.0664849,39 40.8372407,40.6668931 37.5557116,43.4195461 C41.074112,41.0284463 45.3641679,39.6497654 49.9544896,39.6497654 C52.694617,39.6497654 55.2746972,40.0906824 57.6307892,40.9062746 Z" id="Oval-16-Copy-3" fill="#FFFFFF" sketch:type="MSShapeGroup" transform="translate(48.018685, 60.442257) rotate(217.000000) translate(-48.018685, -60.442257) "></path>
        </g>
    </g>
</svg>