<?xml version="1.0" encoding="UTF-8" standalone="no"?>
<svg width="100px" height="100px" viewBox="0 0 100 100" version="1.1" xmlns="http://www.w3.org/2000/svg" xmlns:xlink="http://www.w3.org/1999/xlink" xmlns:sketch="http://www.bohemiancoding.com/sketch/ns">
    <!-- Generator: Sketch 3.3.3 (12081) - http://www.bohemiancoding.com/sketch -->
    <title>06-09-2015 - shield</title>
    <desc>Created with Sketch.</desc>
    <defs></defs>
    <g id="January" stroke="none" stroke-width="1" fill="none" fill-rule="evenodd" sketch:type="MSPage">
        <g id="06-09-2015---shield" sketch:type="MSArtboardGroup" fill="#000000">
            <path d="M50,87.1163701 C56.165802,87.1163701 64.4154909,82.3391141 71.0574927,74.9212674 C78.4863974,66.6246004 83,56.2180586 83,45.6163701 C83,39.6845555 82.5268102,34.1545703 81.7376869,29.1725289 C81.461024,27.4258488 81.1642772,25.8712686 80.8670382,24.5270608 C80.7625553,24.0545562 80.6652986,23.6415302 80.5777147,23.2902682 C80.5244345,23.0765839 80.4857232,22.9292531 80.464026,22.8505621 L80.0548294,21.3664981 L78.8652606,22.3436439 C78.7669259,22.4244188 78.5527803,22.5830715 78.2308418,22.7940004 C77.6810662,23.1542045 77.0388475,23.5163427 76.3123674,23.8551726 C73.2541124,25.281541 69.7780185,25.8448901 66.0210846,25.0496624 C60.9331806,23.9727092 55.8101806,20.4809153 50.7904151,14.0037985 L50.0124713,13 L49.2191312,13.9916751 C44.0333259,20.4739316 38.7858114,23.9703186 33.6092495,25.049015 C29.7869052,25.8455183 26.272127,25.28158 23.1953216,23.8543003 C22.4649528,23.5154941 21.8203548,23.1534385 21.2693814,22.7933641 C20.9468915,22.5826091 20.7327739,22.4241721 20.6347394,22.3436439 L19.3555871,21.2929116 L19.0206795,22.914055 C19.0039092,22.9952331 18.9735014,23.1489204 18.9314111,23.371931 C18.8618976,23.7402403 18.7846155,24.1714836 18.7015204,24.6624767 C18.4647583,26.0614584 18.2282441,27.6610986 18.0076364,29.4359499 C17.3778091,34.50309 17,39.9642131 17,45.6163701 C17,56.2180586 21.5136026,66.6246004 28.9425073,74.9212674 C35.5845091,82.3391141 43.834198,87.1163701 50,87.1163701 L50,87.1163701 Z M50,85.1163701 C44.493895,85.1163701 36.7303623,80.620639 30.4324927,73.5871221 C23.3137897,65.6368912 19,55.691037 19,45.6163701 C19,40.0520235 19.3721909,34.6721102 19.9923636,29.6826444 C20.2092559,27.9376836 20.4414917,26.3669807 20.6734796,24.9962088 C20.754447,24.5177881 20.8295086,24.0989351 20.8967139,23.7428558 C20.9366548,23.5312332 20.9648408,23.3887749 20.9793205,23.3186853 L19.3652606,23.8890964 C19.9273976,24.3508518 20.9410167,25.0132764 22.3536992,25.6685967 C25.7967702,27.2657812 29.7394309,27.8983722 34.0172472,27.0069572 C39.6770931,25.8275538 45.3190267,22.0683677 50.7808688,15.2410652 L49.2095849,15.2289418 C54.5047278,22.0613841 60.0267721,25.8251633 65.6069224,27.00631 C69.8243057,27.8990006 73.7312874,27.2658203 77.1577406,25.6677245 C78.5625949,25.0125012 79.5731508,24.3504014 80.1347394,23.8890964 L78.535974,23.3821782 C78.5533393,23.4451581 78.5878701,23.5765785 78.637129,23.7741351 C78.7204436,24.1082744 78.8136166,24.5039582 78.9142118,24.9588811 C79.2029103,26.264466 79.492101,27.7794617 79.7623131,29.4854155 C80.5356898,34.3680425 81,39.7942563 81,45.6163701 C81,55.691037 76.6862103,65.6368912 69.5675073,73.5871221 C63.2696377,80.620639 55.506105,85.1163701 50,85.1163701 L50,85.1163701 Z" id="shield" sketch:type="MSShapeGroup"></path>
        </g>
    </g>
</svg>