<?xml version="1.0" encoding="UTF-8" standalone="no"?>
<svg width="100px" height="100px" viewBox="0 0 100 100" version="1.1" xmlns="http://www.w3.org/2000/svg" xmlns:xlink="http://www.w3.org/1999/xlink" xmlns:sketch="http://www.bohemiancoding.com/sketch/ns">
    <!-- Generator: Sketch 3.3.3 (12081) - http://www.bohemiancoding.com/sketch -->
    <title>08-09-2015 - video</title>
    <desc>Created with Sketch.</desc>
    <defs></defs>
    <g id="January" stroke="none" stroke-width="1" fill="none" fill-rule="evenodd" sketch:type="MSPage">
        <g id="08-09-2015---video" sketch:type="MSArtboardGroup" fill="#000000">
            <path d="M15,31.9968376 L15,31.9968376 L15,68.0031624 C15,71.3183217 17.6865845,74 21.0072221,74 L78.9927779,74 C82.3130808,74 85,71.3158042 85,68.0031624 L85,31.9968376 C85,28.6816783 82.3134155,26 78.9927779,26 L21.0072221,26 C17.6869192,26 15,28.6841958 15,31.9968376 L15,31.9968376 Z M13,31.9968376 C13,27.5803062 16.5816681,24 21.0072221,24 L78.9927779,24 C83.4150446,24 87,27.5741706 87,31.9968376 L87,68.0031624 C87,72.4196938 83.4183319,76 78.9927779,76 L21.0072221,76 C16.5849554,76 13,72.4258294 13,68.0031624 L13,31.9968376 L13,31.9968376 Z M61.7553079,49.0086977 C62.7188747,49.5561788 62.7170084,50.4448816 61.7553079,50.9913023 L43.2446921,61.5086977 C42.2811253,62.0561788 41.5,61.6102368 41.5,60.4964051 L41.5,39.5035949 C41.5,38.39704 42.2829916,37.9448816 43.2446921,38.4913023 L61.7553079,49.0086977 Z" id="video" sketch:type="MSShapeGroup"></path>
        </g>
    </g>
</svg>