<?xml version="1.0" encoding="UTF-8" standalone="no"?>
<svg width="100px" height="100px" viewBox="0 0 100 100" version="1.1" xmlns="http://www.w3.org/2000/svg" xmlns:xlink="http://www.w3.org/1999/xlink" xmlns:sketch="http://www.bohemiancoding.com/sketch/ns">
    <!-- Generator: Sketch 3.3.3 (12081) - http://www.bohemiancoding.com/sketch -->
    <title>09-09-2015 - road</title>
    <desc>Created with Sketch.</desc>
    <defs></defs>
    <g id="January" stroke="none" stroke-width="1" fill="none" fill-rule="evenodd" sketch:type="MSPage">
        <g id="09-09-2015---road" sketch:type="MSArtboardGroup" fill="#000000">
            <path d="M7,14.9941851 C7,10.5791186 10.5858224,7 14.9941851,7 L85.0058149,7 C89.4208814,7 93,10.5858224 93,14.9941851 L93,85.0058149 C93,89.4208814 89.4141776,93 85.0058149,93 L14.9941851,93 C10.5791186,93 7,89.4141776 7,85.0058149 L7,14.9941851 Z M42,13 L48,13 L48,27 L42,27 L42,13 Z M42,33 L48,33 L48,47 L42,47 L42,33 Z M42,53 L48,53 L48,67 L42,67 L42,53 Z M42,73 L48,73 L48,87 L42,87 L42,73 Z M52,13 L58,13 L58,87 L52,87 L52,13 Z" id="road" sketch:type="MSShapeGroup"></path>
        </g>
    </g>
</svg>