<?xml version="1.0" encoding="UTF-8" standalone="no"?>
<svg width="100px" height="100px" viewBox="0 0 100 100" version="1.1" xmlns="http://www.w3.org/2000/svg" xmlns:xlink="http://www.w3.org/1999/xlink" xmlns:sketch="http://www.bohemiancoding.com/sketch/ns">
    <!-- Generator: Sketch 3.3.3 (12081) - http://www.bohemiancoding.com/sketch -->
    <title>11-09-2015 microwave</title>
    <desc>Created with Sketch.</desc>
    <defs></defs>
    <g id="January" stroke="none" stroke-width="1" fill="none" fill-rule="evenodd" sketch:type="MSPage">
        <g id="11-09-2015-microwave" sketch:type="MSArtboardGroup" fill="#000000">
            <path d="M13,29.9936777 L13,29.9936777 L13,70.0063223 C13,73.3104837 15.6891274,76 18.9989785,76 L81.0010215,76 C84.3153133,76 87,73.3167723 87,70.0063223 L87,29.9936777 C87,26.6895163 84.3108726,24 81.0010215,24 L18.9989785,24 C15.6846867,24 13,26.6832277 13,29.9936777 L13,29.9936777 Z M11,29.9936777 C11,25.5788914 14.5798836,22 18.9989785,22 L81.0010215,22 C85.4187354,22 89,25.5882405 89,29.9936777 L89,70.0063223 C89,74.4211086 85.4201164,78 81.0010215,78 L18.9989785,78 C14.5812646,78 11,74.4117595 11,70.0063223 L11,29.9936777 L11,29.9936777 Z M19,34.0000255 C19,31.7908724 20.7942683,30 23.0071897,30 L64.9928103,30 C67.2059201,30 69,31.7964248 69,34.0000255 L69,65.9999745 C69,68.2091276 67.2057317,70 64.9928103,70 L23.0071897,70 C20.7940799,70 19,68.2035752 19,65.9999745 L19,34.0000255 Z M78,44 C80.7614237,44 83,41.7614237 83,39 C83,36.2385763 80.7614237,34 78,34 C75.2385763,34 73,36.2385763 73,39 C73,41.7614237 75.2385763,44 78,44 Z M73,52 L77,52 L77,56 L73,56 L73,52 Z M79,52 L83,52 L83,56 L79,56 L79,52 Z M79,58 L83,58 L83,62 L79,62 L79,58 Z M79,64 L83,64 L83,68 L79,68 L79,64 Z M73,58 L77,58 L77,62 L73,62 L73,58 Z M73,64 L77,64 L77,68 L73,68 L73,64 Z" id="microwave" sketch:type="MSShapeGroup"></path>
        </g>
    </g>
</svg>