<?xml version="1.0" encoding="UTF-8" standalone="no"?>
<svg width="100px" height="100px" viewBox="0 0 100 100" version="1.1" xmlns="http://www.w3.org/2000/svg" xmlns:xlink="http://www.w3.org/1999/xlink" xmlns:sketch="http://www.bohemiancoding.com/sketch/ns">
    <!-- Generator: Sketch 3.3.3 (12081) - http://www.bohemiancoding.com/sketch -->
    <title>12-09-2015 voice</title>
    <desc>Created with Sketch.</desc>
    <defs></defs>
    <g id="January" stroke="none" stroke-width="1" fill="none" fill-rule="evenodd" sketch:type="MSPage">
        <g id="12-09-2015-voice" sketch:type="MSArtboardGroup" fill="#000000">
            <path d="M12,33.9976599 C12,32.342098 13.3465171,31 15,31 C16.6568542,31 18,32.3524401 18,33.9976599 L18,66.0023401 C18,67.657902 16.6534829,69 15,69 C13.3431458,69 12,67.6475599 12,66.0023401 L12,33.9976599 Z M22,27.0014819 C22,25.3438092 23.3465171,24 25,24 C26.6568542,24 28,25.3376562 28,27.0014819 L28,72.9985181 C28,74.6561908 26.6534829,76 25,76 C23.3431458,76 22,74.6623438 22,72.9985181 L22,27.0014819 Z M32,21.0010118 C32,19.3435988 33.3465171,18 35,18 C36.6568542,18 38,19.336731 38,21.0010118 L38,78.9989882 C38,80.6564012 36.6534829,82 35,82 C33.3431458,82 32,80.663269 32,78.9989882 L32,21.0010118 Z M42,33.0065012 C42,31.3460564 43.3465171,30 45,30 C46.6568542,30 48,31.3423094 48,33.0065012 L48,66.9934988 C48,68.6539436 46.6534829,70 45,70 C43.3431458,70 42,68.6576906 42,66.9934988 L42,33.0065012 Z M52,40.9910904 C52,39.3391568 53.3465171,38 55,38 C56.6568542,38 58,39.3417706 58,40.9910904 L58,59.0089096 C58,60.6608432 56.6534829,62 55,62 C53.3431458,62 52,60.6582294 52,59.0089096 L52,40.9910904 Z M62,33.9976599 C62,32.342098 63.3465171,31 65,31 C66.6568542,31 68,32.3524401 68,33.9976599 L68,66.0023401 C68,67.657902 66.6534829,69 65,69 C63.3431458,69 62,67.6475599 62,66.0023401 L62,33.9976599 Z M82,33.9976599 C82,32.342098 83.3465171,31 85,31 C86.6568542,31 88,32.3524401 88,33.9976599 L88,66.0023401 C88,67.657902 86.6534829,69 85,69 C83.3431458,69 82,67.6475599 82,66.0023401 L82,33.9976599 Z M72,27.0014819 C72,25.3438092 73.3465171,24 75,24 C76.6568542,24 78,25.3376562 78,27.0014819 L78,72.9985181 C78,74.6561908 76.6534829,76 75,76 C73.3431458,76 72,74.6623438 72,72.9985181 L72,27.0014819 Z" id="voice" sketch:type="MSShapeGroup"></path>
        </g>
    </g>
</svg>