<?xml version="1.0" encoding="UTF-8" standalone="no"?>
<svg width="100px" height="100px" viewBox="0 0 100 100" version="1.1" xmlns="http://www.w3.org/2000/svg" xmlns:xlink="http://www.w3.org/1999/xlink" xmlns:sketch="http://www.bohemiancoding.com/sketch/ns">
    <!-- Generator: Sketch 3.3.3 (12081) - http://www.bohemiancoding.com/sketch -->
    <title>13-09-2015 quit</title>
    <desc>Created with Sketch.</desc>
    <defs></defs>
    <g id="January" stroke="none" stroke-width="1" fill="none" fill-rule="evenodd" sketch:type="MSPage">
        <g id="13-09-2015-quit" sketch:type="MSArtboardGroup" fill="#000000">
            <path d="M60.5,12.0600644 L20.4794289,21.9416869 L22,20 L22,80 L20.4794289,78.0583131 L60.5,87.9399356 L60.5,88.4337628 L58.9794289,89.6245503 L58.5,89.5061728 L58.5,10.4938272 L58.9794289,10.3754497 L60.5,11.5662372 L60.5,12.0600644 L60.5,12.0600644 Z M20,20 L60.5,10 L60.5,90 L20,80 L20,20 L20,20 Z" id="Shape" sketch:type="MSShapeGroup"></path>
            <path d="M59,22 L59,22 L61,20 L61,80 L59,78 L79,78 L77,80 L77,20 L79,22 L59,22 Z M59,20 L79,20 L79,80 L59,80 L59,20 L59,20 Z" id="Shape" sketch:type="MSShapeGroup"></path>
        </g>
    </g>
</svg>