<?xml version="1.0" encoding="UTF-8" standalone="no"?>
<svg width="100px" height="100px" viewBox="0 0 100 100" version="1.1" xmlns="http://www.w3.org/2000/svg" xmlns:xlink="http://www.w3.org/1999/xlink" xmlns:sketch="http://www.bohemiancoding.com/sketch/ns">
    <!-- Generator: Sketch 3.3.3 (12081) - http://www.bohemiancoding.com/sketch -->
    <title>15-09-2015 sausage</title>
    <desc>Created with Sketch.</desc>
    <defs></defs>
    <g id="January" stroke="none" stroke-width="1" fill="none" fill-rule="evenodd" sketch:type="MSPage">
        <g id="15-09-2015-sausage" sketch:type="MSArtboardGroup" fill="#000000">
            <path d="M14.6030416,44.7276538 C15.8989235,41.5073999 19.1419976,39.4748689 22.942921,39.8724863 C22.942921,39.8724863 40.6640664,41.9191456 49.5,41.9191456 C58.3359336,41.9191456 76.057079,39.8724863 76.057079,39.8724863 C80.1892629,39.4319837 83.6668727,41.8809481 84.6928193,45.6043152 L84.6928193,45.6043152 C85.2613415,43.3579044 87.0461495,37.3742701 89.5,39.4191455 C92.5,41.9191455 88,46.9191455 88,46.9191455 C88,46.9191455 91.5,52.4191454 90,53.4191455 C88.8763545,54.1682425 86.0692701,51.5504617 84.7313944,50.1896861 C83.7654879,54.2914507 80.3057065,57.893718 76.1699182,58.6718473 C76.1699182,58.6718473 65.5,61.4191419 49.5,61.4191457 C33.5,61.4191495 22.8300818,58.6718497 22.8300818,58.6718497 C18.8458909,57.881018 15.4780033,54.5237625 14.3786868,50.6103202 C12.9407199,52.0201504 10.5474896,54.0966386 9.53125,53.4191455 C8.03125,52.4191454 11.53125,46.9191455 11.53125,46.9191455 C11.53125,46.9191455 7.03125,41.9191455 10.03125,39.4191455 C12.2108939,37.6027755 13.8626659,42.1208692 14.6030416,44.7276538 Z" id="sausage" sketch:type="MSShapeGroup" transform="translate(49.765625, 50.209573) rotate(-90.000000) translate(-49.765625, -50.209573) "></path>
        </g>
    </g>
</svg>