<?xml version="1.0" encoding="UTF-8" standalone="no"?>
<svg width="100px" height="100px" viewBox="0 0 100 100" version="1.1" xmlns="http://www.w3.org/2000/svg" xmlns:xlink="http://www.w3.org/1999/xlink" xmlns:sketch="http://www.bohemiancoding.com/sketch/ns">
    <!-- Generator: Sketch 3.3.3 (12081) - http://www.bohemiancoding.com/sketch -->
    <title>16-09-2015 sponge</title>
    <desc>Created with Sketch.</desc>
    <defs></defs>
    <g id="January" stroke="none" stroke-width="1" fill="none" fill-rule="evenodd" sketch:type="MSPage">
        <g id="16-09-2015-sponge" sketch:type="MSArtboardGroup" fill="#000000">
            <path d="M18,37.9971657 C18,33.0281683 22.0292272,29 27.0038249,29 L73.9961751,29 C78.9688503,29 83,33.0271366 83,37.9971657 L83,62.0028343 C83,66.9718317 78.9707728,71 73.9961751,71 L27.0038249,71 C22.0311497,71 18,66.9728634 18,62.0028343 L18,37.9971657 Z M31,40 C32.1045695,40 33,39.1045695 33,38 C33,36.8954305 32.1045695,36 31,36 C29.8954305,36 29,36.8954305 29,38 C29,39.1045695 29.8954305,40 31,40 Z M39,52 C40.1045695,52 41,51.1045695 41,50 C41,48.8954305 40.1045695,48 39,48 C37.8954305,48 37,48.8954305 37,50 C37,51.1045695 37.8954305,52 39,52 Z M55,44 C56.1045695,44 57,43.1045695 57,42 C57,40.8954305 56.1045695,40 55,40 C53.8954305,40 53,40.8954305 53,42 C53,43.1045695 53.8954305,44 55,44 Z M63,56 C64.1045695,56 65,55.1045695 65,54 C65,52.8954305 64.1045695,52 63,52 C61.8954305,52 61,52.8954305 61,54 C61,55.1045695 61.8954305,56 63,56 Z M70,44 C71.1045695,44 72,43.1045695 72,42 C72,40.8954305 71.1045695,40 70,40 C68.8954305,40 68,40.8954305 68,42 C68,43.1045695 68.8954305,44 70,44 Z M45,64 C46.1045695,64 47,63.1045695 47,62 C47,60.8954305 46.1045695,60 45,60 C43.8954305,60 43,60.8954305 43,62 C43,63.1045695 43.8954305,64 45,64 Z M29,60 C30.1045695,60 31,59.1045695 31,58 C31,56.8954305 30.1045695,56 29,56 C27.8954305,56 27,56.8954305 27,58 C27,59.1045695 27.8954305,60 29,60 Z M38,58 C38.5522847,58 39,57.5522847 39,57 C39,56.4477153 38.5522847,56 38,56 C37.4477153,56 37,56.4477153 37,57 C37,57.5522847 37.4477153,58 38,58 Z M38,42 C38.5522847,42 39,41.5522847 39,41 C39,40.4477153 38.5522847,40 38,40 C37.4477153,40 37,40.4477153 37,41 C37,41.5522847 37.4477153,42 38,42 Z M48,46 C48.5522847,46 49,45.5522847 49,45 C49,44.4477153 48.5522847,44 48,44 C47.4477153,44 47,44.4477153 47,45 C47,45.5522847 47.4477153,46 48,46 Z M51,56 C51.5522847,56 52,55.5522847 52,55 C52,54.4477153 51.5522847,54 51,54 C50.4477153,54 50,54.4477153 50,55 C50,55.5522847 50.4477153,56 51,56 Z M57,64 C57.5522847,64 58,63.5522847 58,63 C58,62.4477153 57.5522847,62 57,62 C56.4477153,62 56,62.4477153 56,63 C56,63.5522847 56.4477153,64 57,64 Z M59,49 C59.5522847,49 60,48.5522847 60,48 C60,47.4477153 59.5522847,47 59,47 C58.4477153,47 58,47.4477153 58,48 C58,48.5522847 58.4477153,49 59,49 Z M63,37 C63.5522847,37 64,36.5522847 64,36 C64,35.4477153 63.5522847,35 63,35 C62.4477153,35 62,35.4477153 62,36 C62,36.5522847 62.4477153,37 63,37 Z M70,49 C70.5522847,49 71,48.5522847 71,48 C71,47.4477153 70.5522847,47 70,47 C69.4477153,47 69,47.4477153 69,48 C69,48.5522847 69.4477153,49 70,49 Z M70,59 C70.5522847,59 71,58.5522847 71,58 C71,57.4477153 70.5522847,57 70,57 C69.4477153,57 69,57.4477153 69,58 C69,58.5522847 69.4477153,59 70,59 Z M66,66 C66.5522847,66 67,65.5522847 67,65 C67,64.4477153 66.5522847,64 66,64 C65.4477153,64 65,64.4477153 65,65 C65,65.5522847 65.4477153,66 66,66 Z M33,65 C33.5522847,65 34,64.5522847 34,64 C34,63.4477153 33.5522847,63 33,63 C32.4477153,63 32,63.4477153 32,64 C32,64.5522847 32.4477153,65 33,65 Z M31,48 C31.5522847,48 32,47.5522847 32,47 C32,46.4477153 31.5522847,46 31,46 C30.4477153,46 30,46.4477153 30,47 C30,47.5522847 30.4477153,48 31,48 Z M44,36 C44.5522847,36 45,35.5522847 45,35 C45,34.4477153 44.5522847,34 44,34 C43.4477153,34 43,34.4477153 43,35 C43,35.5522847 43.4477153,36 44,36 Z" id="sponge" sketch:type="MSShapeGroup"></path>
        </g>
    </g>
</svg>