<?xml version="1.0" encoding="UTF-8" standalone="no"?>
<svg width="100px" height="100px" viewBox="0 0 100 100" version="1.1" xmlns="http://www.w3.org/2000/svg" xmlns:xlink="http://www.w3.org/1999/xlink" xmlns:sketch="http://www.bohemiancoding.com/sketch/ns">
    <!-- Generator: Sketch 3.3.3 (12081) - http://www.bohemiancoding.com/sketch -->
    <title>19-09-2015 dice one</title>
    <desc>Created with Sketch.</desc>
    <defs></defs>
    <g id="January" stroke="none" stroke-width="1" fill="none" fill-rule="evenodd" sketch:type="MSPage">
        <g id="19-09-2015-dice-one" sketch:type="MSArtboardGroup" fill="#000000">
            <path d="M15,22.9957852 C15,18.579835 18.579658,15 22.9957852,15 L77.0042148,15 C81.420165,15 85,18.579658 85,22.9957852 L85,77.0042148 C85,81.420165 81.420342,85 77.0042148,85 L22.9957852,85 C18.579835,85 15,81.420342 15,77.0042148 L15,22.9957852 Z M50,56 C53.3137085,56 56,53.3137085 56,50 C56,46.6862915 53.3137085,44 50,44 C46.6862915,44 44,46.6862915 44,50 C44,53.3137085 46.6862915,56 50,56 Z" id="dice-one" sketch:type="MSShapeGroup"></path>
        </g>
    </g>
</svg>