<?xml version="1.0" encoding="UTF-8" standalone="no"?>
<svg width="100px" height="100px" viewBox="0 0 100 100" version="1.1" xmlns="http://www.w3.org/2000/svg" xmlns:xlink="http://www.w3.org/1999/xlink" xmlns:sketch="http://www.bohemiancoding.com/sketch/ns">
    <!-- Generator: Sketch 3.3.3 (12081) - http://www.bohemiancoding.com/sketch -->
    <title>25-09-2015 beachball</title>
    <desc>Created with Sketch.</desc>
    <defs></defs>
    <g id="January" stroke="none" stroke-width="1" fill="none" fill-rule="evenodd" sketch:type="MSPage">
        <g id="25-09-2015-beachball" sketch:type="MSArtboardGroup" fill="#000000">
            <path d="M50,88 C70.9868205,88 88,70.9868205 88,50 C88,29.0131795 70.9868205,12 50,12 C29.0131795,12 12,29.0131795 12,50 C12,70.9868205 29.0131795,88 50,88 L50,88 Z M50,86 C30.117749,86 14,69.882251 14,50 C14,30.117749 30.117749,14 50,14 C69.882251,14 86,30.117749 86,50 C86,69.882251 69.882251,86 50,86 L50,86 Z" id="Shape" sketch:type="MSShapeGroup"></path>
            <path d="M61.9155472,62.8323206 C59.2526679,62.2596312 57.1150388,60.2731368 56.3269662,57.6971438 C48.1275788,56.1887616 12.6152788,49.3659673 13.5,44.5 C14.5,38.9999992 19.5,25 28,20 C35.4263505,15.6315585 55.829332,41.7963664 60.865118,48.4759065 L60.865118,48.4759065 C61.6848683,48.168258 62.5727848,48 63.5,48 C65.0264364,48 66.4463666,48.4560075 67.6309944,49.2392263 L67.6309944,49.2392263 C69.5999501,43.7144556 75.5,26.9159926 75.5,24 C75.5,20.5 85.5,36.5 85.5,41.5 C85.5,45.9585723 74.3678344,52.8026088 70.893353,54.2325489 C70.9634779,54.6445562 71,55.068013 71,55.5 C71,58.5628049 69.1640824,61.1968083 66.532706,62.3615512 C70.6678581,72.2087057 78,74.5 78,74.5 C61.5,91.5 43,85.5 43,85.5 C58.4564442,84.1751619 61.4314952,66.8585388 61.9155472,62.8323206 Z" id="Oval-69" sketch:type="MSShapeGroup"></path>
        </g>
    </g>
</svg>