<?xml version="1.0" encoding="UTF-8" standalone="no"?>
<svg width="100px" height="100px" viewBox="0 0 100 100" version="1.1" xmlns="http://www.w3.org/2000/svg" xmlns:xlink="http://www.w3.org/1999/xlink" xmlns:sketch="http://www.bohemiancoding.com/sketch/ns">
    <!-- Generator: Sketch 3.3.3 (12081) - http://www.bohemiancoding.com/sketch -->
    <title>26-09-2015 browser</title>
    <desc>Created with Sketch.</desc>
    <defs></defs>
    <g id="January" stroke="none" stroke-width="1" fill="none" fill-rule="evenodd" sketch:type="MSPage">
        <g id="26-09-2015-browser" sketch:type="MSArtboardGroup" fill="#000000">
            <path d="M14,22.9964277 L14,22.9964277 L14,77.0035723 C14,78.1054662 14.8967042,79 16.0057184,79 L83.9942816,79 C85.1078052,79 86,78.1086082 86,77.0035723 L86,22.9964277 C86,21.8945338 85.1032958,21 83.9942816,21 L16.0057184,21 C14.8921948,21 14,21.8913918 14,22.9964277 L14,22.9964277 Z M12,22.9964277 C12,20.7892616 13.7851831,19 16.0057184,19 L83.9942816,19 C86.2065788,19 88,20.7886753 88,22.9964277 L88,77.0035723 C88,79.2107384 86.2148169,81 83.9942816,81 L16.0057184,81 C13.7934212,81 12,79.2113247 12,77.0035723 L12,22.9964277 L12,22.9964277 Z M12,28 L88,28 L88,30 L12,30 L12,28 Z M17.5,26 C18.3284271,26 19,25.3284271 19,24.5 C19,23.6715729 18.3284271,23 17.5,23 C16.6715729,23 16,23.6715729 16,24.5 C16,25.3284271 16.6715729,26 17.5,26 Z M21.5,26 C22.3284271,26 23,25.3284271 23,24.5 C23,23.6715729 22.3284271,23 21.5,23 C20.6715729,23 20,23.6715729 20,24.5 C20,25.3284271 20.6715729,26 21.5,26 Z M25.5,26 C26.3284271,26 27,25.3284271 27,24.5 C27,23.6715729 26.3284271,23 25.5,23 C24.6715729,23 24,23.6715729 24,24.5 C24,25.3284271 24.6715729,26 25.5,26 Z" id="browser" sketch:type="MSShapeGroup"></path>
        </g>
    </g>
</svg>