<?xml version="1.0" encoding="UTF-8" standalone="no"?>
<svg width="100px" height="100px" viewBox="0 0 100 100" version="1.1" xmlns="http://www.w3.org/2000/svg" xmlns:xlink="http://www.w3.org/1999/xlink" xmlns:sketch="http://www.bohemiancoding.com/sketch/ns">
    <!-- Generator: Sketch 3.3.3 (12081) - http://www.bohemiancoding.com/sketch -->
    <title>27-09-2015 bread</title>
    <desc>Created with Sketch.</desc>
    <defs></defs>
    <g id="January" stroke="none" stroke-width="1" fill="none" fill-rule="evenodd" sketch:type="MSPage">
        <g id="27-09-2015-bread" sketch:type="MSArtboardGroup" fill="#000000">
            <path d="M48.8954139,26.8070508 C52.9622372,28.5689558 57.1164534,30.9283864 61.1459028,33.8559528 C77.4543856,45.7047591 85.5433949,62.3731948 79.2132107,71.0859459 C72.8830265,79.798697 54.5307608,77.2564219 38.222278,65.4076156 C21.9137952,53.5588092 13.8247859,36.8903736 20.1549701,28.1776225 C24.9016227,21.6444156 36.407889,21.4395329 48.743427,26.7414648 C46.143452,27.4422154 33.0269362,31.7480571 36.1840904,46.6317842 C36.1840904,35.2404967 46.9802414,28.001575 48.8954139,26.8070508 Z M74.1840904,46.6317842 C74.1840904,46.6317842 57.6840904,50.1317842 61.1840904,66.6317842 C61.1840904,54.1317842 74.1840904,46.6317842 74.1840904,46.6317842 Z M63.1840904,35.6317842 C63.1840904,35.6317842 46.6840904,39.1317842 50.1840904,55.6317842 C50.1840904,43.1317842 63.1840904,35.6317842 63.1840904,35.6317842 Z" id="bread" sketch:type="MSShapeGroup"></path>
        </g>
    </g>
</svg>