<?xml version="1.0" encoding="UTF-8" standalone="no"?>
<svg width="100px" height="100px" viewBox="0 0 100 100" version="1.1" xmlns="http://www.w3.org/2000/svg" xmlns:xlink="http://www.w3.org/1999/xlink" xmlns:sketch="http://www.bohemiancoding.com/sketch/ns">
    <!-- Generator: Sketch 3.3.3 (12081) - http://www.bohemiancoding.com/sketch -->
    <title>28-09-2015 wine glass</title>
    <desc>Created with Sketch.</desc>
    <defs></defs>
    <g id="January" stroke="none" stroke-width="1" fill="none" fill-rule="evenodd" sketch:type="MSPage">
        <g id="28-09-2015-wine-glass" sketch:type="MSArtboardGroup" fill="#000000">
            <path d="M50.827431,64.0000004 C50.827431,62.4935491 50.8274316,54.0000004 50.8274316,54.0000004 C50.8274316,54.0000004 69.8382902,44.0000004 63.8382911,24 L34.8382909,24 C29.8382911,44.0000004 48.8382911,54.0000004 48.8382911,54.0000004 C48.8382911,54.0000004 48.8382914,52.0000004 48.8382914,64.0000004 C48.8382914,76.0000004 36.8382909,72.0000004 39.8382909,74 C49.8382905,76.5000004 59.8382914,74.0000004 59.8382914,74.0000004 C62.8682556,72.135407 50.827431,76.0000004 50.827431,64.0000004 Z M63.8382905,34 C63.9632073,31.297449 63.824814,28.288412 62.8382905,25 L35.8382909,25 C35.0522357,28.1442212 35.1050884,31.3500852 35.3382909,34 L63.8382905,34 Z" id="wine-glass" sketch:type="MSShapeGroup"></path>
        </g>
    </g>
</svg>