<?xml version="1.0" encoding="UTF-8" standalone="no"?>
<svg width="100px" height="100px" viewBox="0 0 100 100" version="1.1" xmlns="http://www.w3.org/2000/svg" xmlns:xlink="http://www.w3.org/1999/xlink" xmlns:sketch="http://www.bohemiancoding.com/sketch/ns">
    <!-- Generator: Sketch 3.3.3 (12081) - http://www.bohemiancoding.com/sketch -->
    <title>29-09-2015 activity</title>
    <desc>Created with Sketch.</desc>
    <defs></defs>
    <g id="January" stroke="none" stroke-width="1" fill="none" fill-rule="evenodd" sketch:type="MSPage">
        <g id="29-09-2015-activity" sketch:type="MSArtboardGroup" fill="#000000">
            <path d="M67.9998486,48.0000034 C67.9951474,47.9982533 67.9904359,47.9965189 67.9857139,47.9948003 C66.9405217,47.6143814 65.8000715,48.1521948 65.4222841,49.1901572 L64.6163803,51.4043596 L58.3864113,24.4193992 C58.3121629,24.097794 58.1653036,23.8132278 57.9673004,23.5786107 L57.9673004,23.5786107 C57.7248836,23.1406918 57.319062,22.7918164 56.8025693,22.6339087 C55.7388999,22.3087123 54.6287284,22.9036148 54.3064831,23.9576316 L43.4215745,59.5605633 L37.3864113,33.4193992 C37.1365696,32.3372162 36.0645671,31.6744199 34.9883076,31.9228939 C34.196456,32.1057073 33.6288067,32.7267714 33.4772657,33.4673759 L28.187823,48 L28.187823,48 L11.9945615,48 C10.9023438,48 10,48.8954305 10,50 C10,51.1122704 10.8929956,52 11.9945615,52 L29.0054385,52 C29.1183226,52 29.2291784,51.9904351 29.3372194,51.9720631 C30.2491325,52.0927049 31.1447055,51.5712499 31.4703539,50.6765381 L35.0161822,40.934455 L41.1729891,67.6025158 C41.4228308,68.6846988 42.4948334,69.3474951 43.5710928,69.099021 C44.2219905,68.9487495 44.7214003,68.5023627 44.9627374,67.936873 C45.0621647,67.7836664 45.142122,67.6141206 45.1982097,67.4306662 L56.0309431,31.9983916 L62.1729891,58.6025158 C62.3136286,59.211692 62.7147881,59.6879762 63.2305767,59.9436299 L63.2305767,59.9436299 C63.3385721,60.0081067 63.4542337,60.0633664 63.5768691,60.108002 C64.6220613,60.4884209 65.7625115,59.9506076 66.1402989,58.9126452 L68.656296,52 L88.9964051,52 C90.1102368,52 91,51.1045695 91,50 C91,48.8877296 90.10296,48 88.9964051,48 L68.0035949,48 C68.0023458,48 68.0010971,48.0000011 67.9998486,48.0000034 Z" id="activity" sketch:type="MSShapeGroup"></path>
        </g>
    </g>
</svg>