<?xml version="1.0" encoding="UTF-8" standalone="no"?>
<svg width="100px" height="100px" viewBox="0 0 100 100" version="1.1" xmlns="http://www.w3.org/2000/svg" xmlns:xlink="http://www.w3.org/1999/xlink" xmlns:sketch="http://www.bohemiancoding.com/sketch/ns">
    <!-- Generator: Sketch 3.4.4 (17249) - http://www.bohemiancoding.com/sketch -->
    <title>01-12-2015 - wand</title>
    <desc>Created with Sketch.</desc>
    <defs></defs>
    <g id="January" stroke="none" stroke-width="1" fill="none" fill-rule="evenodd" sketch:type="MSPage">
        <g id="01-12-2015---wand" sketch:type="MSArtboardGroup" fill="#000000">
            <path d="M46,21.9917458 C46,20.891735 46.8867064,20 47.9981014,20 L52.0018986,20 C53.1054196,20 54,20.8977023 54,21.9917458 L54,89.0082542 C54,90.108265 53.1132936,91 52.0018986,91 L47.9981014,91 C46.8945804,91 46,90.1022977 46,89.0082542 L46,21.9917458 Z M47,21.9975446 C47,21.446616 47.4509752,21 47.990778,21 L52.009222,21 C52.5564136,21 53,21.4463114 53,21.9975446 L53,30 L47,30 L47,21.9975446 Z M49.1595195,8.50342274 C49.1595195,8.22539004 49.3914531,8 49.6595195,8 C49.9356619,8 50.1595195,8.23290253 50.1595195,8.50342274 L50.1595195,14.4965773 C50.1595195,14.77461 49.9275859,15 49.6595195,15 C49.3833771,15 49.1595195,14.7670975 49.1595195,14.4965773 L49.1595195,8.50342274 Z M59.8828678,13.1789769 C60.0989398,13.0040053 60.4200613,13.042409 60.588761,13.2507357 C60.762543,13.4653386 60.7224219,13.785879 60.5121882,13.9561229 L55.8546324,17.7277372 C55.6385604,17.9027089 55.3174389,17.8643052 55.1487392,17.6559784 C54.9749572,17.4413755 55.0150783,17.1208352 55.225312,16.9505913 L59.8828678,13.1789769 Z M62.9285133,24.523368 C63.19942,24.5859117 63.3668596,24.8626026 63.3065578,25.1237985 C63.2444393,25.3928634 62.967149,25.5585919 62.7035623,25.4977381 L56.8640119,24.1495716 C56.5931051,24.0870279 56.4256656,23.810337 56.4859674,23.5491411 C56.5480859,23.2800763 56.8253761,23.1143478 57.0889629,23.1752016 L62.9285133,24.523368 Z M36.6154768,25.4977381 C36.34457,25.5602818 36.072783,25.3849944 36.0124812,25.1237985 C35.9503627,24.8547336 36.1269389,24.5842218 36.3905257,24.523368 L42.2300761,23.1752016 C42.5009828,23.1126578 42.7727698,23.2879452 42.8330717,23.5491411 C42.8951902,23.818206 42.7186139,24.0887178 42.4550272,24.1495716 L36.6154768,25.4977381 Z M38.8068508,13.9561229 C38.5907789,13.7811512 38.5615784,13.4590624 38.7302781,13.2507357 C38.9040601,13.0361328 39.2259375,13.008733 39.4361712,13.1789769 L44.0937271,16.9505913 C44.3097991,17.1255629 44.3389995,17.4476517 44.1702998,17.6559784 C43.9965178,17.8705814 43.6746404,17.8979811 43.4644067,17.7277372 L38.8068508,13.9561229 Z" id="wand" sketch:type="MSShapeGroup" transform="translate(49.659419, 49.500000) rotate(-315.000000) translate(-49.659419, -49.500000) "></path>
        </g>
    </g>
</svg>