<?xml version="1.0" encoding="UTF-8" standalone="no"?>
<svg width="100px" height="100px" viewBox="0 0 100 100" version="1.1" xmlns="http://www.w3.org/2000/svg" xmlns:xlink="http://www.w3.org/1999/xlink" xmlns:sketch="http://www.bohemiancoding.com/sketch/ns">
    <!-- Generator: Sketch 3.4.4 (17249) - http://www.bohemiancoding.com/sketch -->
    <title>03-12-2015 - wifi</title>
    <desc>Created with Sketch.</desc>
    <defs></defs>
    <g id="January" stroke="none" stroke-width="1" fill="none" fill-rule="evenodd" sketch:type="MSPage">
        <g id="03-12-2015---wifi" sketch:type="MSArtboardGroup" fill="#000000">
            <path d="M50,53.861042 C52.209139,53.861042 54,52.070181 54,49.861042 C54,47.651903 52.209139,45.861042 50,45.861042 C47.790861,45.861042 46,47.651903 46,49.861042 C46,52.070181 47.790861,53.861042 50,53.861042 Z M40.8247207,40.6515765 C38.3927644,43.0745572 37,46.3587217 37,49.861042 C37,53.3144807 38.3539701,56.5566798 40.7261113,58.9712048 C41.1131625,59.3651716 41.7463027,59.3707777 42.1402695,58.9837265 C42.5342362,58.5966753 42.5398424,57.9635352 42.1527912,57.5695684 C40.1444707,55.5253646 39,52.78483 39,49.861042 C39,46.8959091 40.1772951,44.1198252 42.2363173,42.0684022 C42.6275629,41.6786006 42.6287335,41.0454367 42.2389319,40.6541911 C41.8491302,40.2629455 41.2159663,40.2617749 40.8247207,40.6515765 Z M59.462181,58.7755242 C61.7196564,56.3801707 63,53.21972 63,49.861042 C63,46.4099332 61.6478653,43.169738 59.2785641,40.7556405 C58.891714,40.3614763 58.2585768,40.355547 57.8644125,40.7423971 C57.4702483,41.1292472 57.464319,41.7623844 57.851169,42.1565486 C59.8570821,44.2003874 61,46.9392247 61,49.861042 C61,52.7046778 59.917819,55.3759761 58.0066987,57.4038204 C57.6279132,57.8057407 57.6466676,58.4386279 58.048588,58.8174134 C58.4505083,59.196199 59.0833954,59.1774445 59.462181,58.7755242 Z M35.2759575,34.8876403 C31.2879546,38.8096206 29,44.1549434 29,49.861042 C29,55.419589 31.1705545,60.6382763 34.9777093,64.5352078 C35.3636566,64.9302561 35.9967786,64.937634 36.3918269,64.5516867 C36.7868752,64.1657394 36.794253,63.5326174 36.4083058,63.1375692 C32.9626016,59.6106117 31,54.8919077 31,49.861042 C31,44.6967092 33.0688185,39.8633516 36.6783181,36.3136083 C37.0720883,35.9263571 37.077373,35.2932142 36.6901218,34.899444 C36.3028706,34.5056738 35.6697277,34.5003891 35.2759575,34.8876403 Z M64.8678129,64.6916908 C68.7687536,60.7810329 71,55.4963594 71,49.861042 C71,44.2508556 68.7887146,38.9877595 64.9185497,35.0814299 C64.5298457,34.6890937 63.8966876,34.6861492 63.5043514,35.0748532 C63.1120152,35.4635571 63.1090707,36.0967152 63.4977747,36.4890514 C67.0005484,40.0245567 69,44.7834657 69,49.861042 C69,54.9613504 66.9824889,59.739795 63.4518412,63.2792375 C63.061803,63.6702473 63.0625907,64.3034118 63.4536004,64.69345 C63.8446102,65.0834882 64.4777747,65.0827005 64.8678129,64.6916908 Z M29.5583585,29.2906909 C24.1164976,34.6987065 21,42.0341373 21,49.861042 C21,57.679634 24.1098448,65.0079391 29.5414849,70.4146107 C29.9329078,70.8042343 30.5660711,70.8027757 30.9556947,70.4113528 C31.3453183,70.0199298 31.3438597,69.3867665 30.9524368,68.997143 C25.8941198,63.9620784 23,57.1421261 23,49.861042 C23,42.5722198 25.9003138,35.7456299 30.9681537,30.7093091 C31.3598943,30.3200049 31.3618694,29.686843 30.9725652,29.2951024 C30.583261,28.9033618 29.9500991,28.9013867 29.5583585,29.2906909 Z M70.6535547,70.218619 C75.9668975,64.8284947 79,57.5830838 79,49.861042 C79,42.1122459 75.9457294,34.8438405 70.5996833,29.4489584 C70.2109386,29.0566626 69.5777802,29.0537838 69.1854843,29.4425285 C68.7931885,29.8312731 68.7903097,30.4644316 69.1790544,30.8567274 C74.1576209,35.880773 77,42.6449291 77,49.861042 C77,57.0522499 74.1773287,63.7949872 69.2292329,68.8145864 C68.84152,69.207902 68.8460619,69.8410507 69.2393776,70.2287636 C69.6326932,70.6164765 70.2658418,70.6119346 70.6535547,70.218619 L70.6535547,70.218619 Z" id="wifi" sketch:type="MSShapeGroup"></path>
        </g>
    </g>
</svg>