<?xml version="1.0" encoding="UTF-8" standalone="no"?>
<svg width="100px" height="100px" viewBox="0 0 100 100" version="1.1" xmlns="http://www.w3.org/2000/svg" xmlns:xlink="http://www.w3.org/1999/xlink" xmlns:sketch="http://www.bohemiancoding.com/sketch/ns">
    <!-- Generator: Sketch 3.4.4 (17249) - http://www.bohemiancoding.com/sketch -->
    <title>04-12-2015 - router</title>
    <desc>Created with Sketch.</desc>
    <defs></defs>
    <g id="January" stroke="none" stroke-width="1" fill="none" fill-rule="evenodd" sketch:type="MSPage">
        <g id="04-12-2015---router" sketch:type="MSArtboardGroup" fill="#000000">
            <path d="M30,26.2873277 C30.9141265,26.2873277 31.6551724,25.5462818 31.6551724,24.6321553 C31.6551724,23.7180288 30.9141265,22.9769829 30,22.9769829 C29.0858735,22.9769829 28.3448276,23.7180288 28.3448276,24.6321553 C28.3448276,25.5462818 29.0858735,26.2873277 30,26.2873277 Z M26.2033327,20.821342 C25.197006,21.8239547 24.6206897,23.1829193 24.6206897,24.6321553 C24.6206897,26.0611644 25.1809531,27.402764 26.1625288,28.4018778 C26.322688,28.5648986 26.584677,28.5672184 26.7476977,28.4070593 C26.9107184,28.2469001 26.9130382,27.9849111 26.7528791,27.8218904 C25.9218499,26.976013 25.4482759,25.8419986 25.4482759,24.6321553 C25.4482759,23.4052038 25.9354325,22.2564794 26.7874417,21.4076147 C26.9493364,21.2463175 26.9498208,20.9843186 26.7885235,20.8224239 C26.6272263,20.6605292 26.3652275,20.6600448 26.2033327,20.821342 Z M33.9153852,28.3209066 C34.849513,27.3297258 35.3793103,26.0219531 35.3793103,24.6321553 C35.3793103,23.2041103 34.8198063,21.8633399 33.8394058,20.864403 C33.6793299,20.7013005 33.4173421,20.698847 33.2542397,20.8589229 C33.0911372,21.0189988 33.0886837,21.2809866 33.2487596,21.4440891 C34.0787926,22.2898155 34.5517241,23.4231275 34.5517241,24.6321553 C34.5517241,25.8088322 34.1039251,26.914197 33.3131167,27.753305 C33.1563779,27.9196169 33.1641383,28.1815012 33.3304502,28.33824 C33.496762,28.4949789 33.7586464,28.4872184 33.9153852,28.3209066 Z M23.9072928,18.436265 C22.2570847,20.0591534 21.3103448,22.2710111 21.3103448,24.6321553 C21.3103448,26.9322437 22.2085053,29.0917006 23.7838797,30.7042239 C23.943582,30.8676922 24.2055636,30.8707451 24.3690318,30.7110428 C24.5325001,30.5513405 24.535553,30.2893589 24.3758507,30.1258907 C22.950042,28.66646 22.137931,26.7138929 22.137931,24.6321553 C22.137931,22.49519 22.9939939,20.49518 24.4875799,19.0263207 C24.6505193,18.8660788 24.6527061,18.6040886 24.4924642,18.4411492 C24.3322223,18.2782099 24.0702321,18.2760231 23.9072928,18.436265 Z M36.1521984,30.7689755 C37.7663808,29.1507722 38.6896552,26.9640108 38.6896552,24.6321553 C38.6896552,22.3106989 37.7746405,20.132866 36.173193,18.5164538 C36.0123499,18.3541077 35.7503535,18.3528893 35.5880075,18.5137323 C35.4256615,18.6745754 35.4244431,18.9365718 35.5852861,19.0989178 C37.0347097,20.5618855 37.862069,22.5310893 37.862069,24.6321553 C37.862069,26.7426278 37.0272368,28.7199152 35.5662791,30.1845121 C35.404884,30.3463092 35.4052099,30.6083083 35.5670071,30.7697034 C35.7288042,30.9310985 35.9908033,30.9307726 36.1521984,30.7689755 Z M21.5413897,16.1202859 C19.2895852,18.3580855 18,21.3934361 18,24.6321553 C18,27.8674347 19.2868323,30.8998369 21.5344076,33.1370803 C21.6963757,33.2983039 21.9583743,33.2977003 22.1195978,33.1357322 C22.2808214,32.9737641 22.2802178,32.7117655 22.1182497,32.5505419 C20.025153,30.4670669 18.8275862,27.6450177 18.8275862,24.6321553 C18.8275862,21.6160909 20.027716,18.7912951 22.1247532,16.7073003 C22.2868528,16.5462089 22.2876701,16.2842109 22.1265787,16.1221114 C21.9654873,15.9600118 21.7034893,15.9591945 21.5413897,16.1202859 Z M38.5462985,33.0559803 C40.7449231,30.825584 42,27.827483 42,24.6321553 C42,21.4257569 40.7361639,18.4181409 38.5240069,16.1857759 C38.363147,16.0234466 38.1011504,16.0222554 37.9388211,16.1831152 C37.7764918,16.3439751 37.7753006,16.6059717 37.9361604,16.768301 C39.9962569,18.8472164 41.1724138,21.6461776 41.1724138,24.6321553 C41.1724138,27.6078276 40.0044119,30.3979257 37.956924,32.4750013 C37.7964911,32.6377526 37.7983705,32.8997451 37.9611217,33.060178 C38.123873,33.220611 38.3858656,33.2187316 38.5462985,33.0559803 Z M17,49.990053 L17,66.009947 C17,67.1088813 17.8941548,68 19.0021821,68 L80.9978179,68 C82.0998344,68 83,67.1039316 83,66.009947 L83,49.990053 C83,48.8911187 82.1058452,48 80.9978179,48 L19.0021821,48 C17.9001656,48 17,48.8960684 17,49.990053 Z M32,46 L19.0021821,46 C16.800691,46 15,47.7864076 15,49.990053 L15,66.009947 C15,68.2157067 16.791838,70 19.0021821,70 L80.9978179,70 C83.199309,70 85,68.2135924 85,66.009947 L85,49.990053 C85,47.7842933 83.208162,46 80.9978179,46 L32,46 C31.9999432,45.9992323 30.7414553,29 30,29 C29.4081387,29 28,46 28,46 L32,46 Z M26,61 C27.6568542,61 29,59.6568542 29,58 C29,56.3431458 27.6568542,55 26,55 C24.3431458,55 23,56.3431458 23,58 C23,59.6568542 24.3431458,61 26,61 Z M36,61 C37.6568542,61 39,59.6568542 39,58 C39,56.3431458 37.6568542,55 36,55 C34.3431458,55 33,56.3431458 33,58 C33,59.6568542 34.3431458,61 36,61 Z M46,61 C47.6568542,61 49,59.6568542 49,58 C49,56.3431458 47.6568542,55 46,55 C44.3431458,55 43,56.3431458 43,58 C43,59.6568542 44.3431458,61 46,61 Z" id="router" sketch:type="MSShapeGroup"></path>
        </g>
    </g>
</svg>