<?xml version="1.0" encoding="UTF-8" standalone="no"?>
<svg width="100px" height="100px" viewBox="0 0 100 100" version="1.1" xmlns="http://www.w3.org/2000/svg" xmlns:xlink="http://www.w3.org/1999/xlink" xmlns:sketch="http://www.bohemiancoding.com/sketch/ns">
    <!-- Generator: Sketch 3.4.4 (17249) - http://www.bohemiancoding.com/sketch -->
    <title>08-12-2015 - resistor</title>
    <desc>Created with Sketch.</desc>
    <defs></defs>
    <g id="January" stroke="none" stroke-width="1" fill="none" fill-rule="evenodd" sketch:type="MSPage">
        <g id="08-12-2015---resistor" sketch:type="MSArtboardGroup" fill="#000000">
            <path d="M77.4550521,49.0769612 L72.1293749,32.6862122 C71.9593613,32.1629641 71.3963087,31.8789034 70.8710547,32.0495687 C70.8030962,32.0716498 70.7391715,32.1001477 70.6797258,32.1341568 C70.3705485,32.2472152 70.1236283,32.511544 70.0435053,32.8585948 L62.8738457,63.9138025 L55.1448271,32.9144021 C55.0617917,32.5813655 54.825151,32.3290009 54.5308747,32.2145588 C54.4442971,32.1629311 54.348389,32.1237275 54.2449786,32.0998534 C53.7030972,31.9747502 53.168931,32.3153165 53.0435053,32.8585948 L45.8257685,64.1220476 L38.0448286,32.9144021 C38.0089152,32.7703615 37.9442681,32.6414116 37.8586518,32.5321842 C37.7227972,32.3207007 37.5081897,32.1606205 37.2449786,32.0998534 C36.7030972,31.9747502 36.168931,32.3153165 36.0435053,32.8585948 L28.8111424,64.1854001 L24.208597,50.020222 C24.1422047,49.8158874 24.0115482,49.6461248 23.8450124,49.5269752 C23.6580716,49.2994946 23.3204851,49.2106039 22.9350801,49.2106039 L12,49.2106039 L12,51.2106039 L22.4924511,51.2106039 L27.8738559,67.7728647 C27.9011458,67.8568545 27.9392935,67.9350032 27.9863276,68.0061968 C28.0305686,68.4209402 28.3289997,68.7785207 28.7543688,68.8767249 C29.2962503,69.0018281 29.8304165,68.6612619 29.9558422,68.1179835 L37.0737725,37.28684 L44.7469257,68.0621762 C44.8498698,68.4750628 45.1889076,68.7639554 45.581165,68.8197615 C45.6360957,68.8435956 45.6939519,68.8627766 45.7543688,68.8767249 C46.2962503,69.0018281 46.8304165,68.6612619 46.9558422,68.1179835 L54.1218497,37.078595 L61.8469241,68.0621762 C61.9319461,68.4031806 62.1780111,68.6596066 62.4820953,68.7699958 C62.5650752,68.8176949 62.656352,68.8540959 62.7543688,68.8767249 C63.2962503,69.0018281 63.8304165,68.6612619 63.9558422,68.1179835 L71.2596643,36.4816542 L75.6416561,49.9680382 C75.6821895,50.0927872 75.7450635,50.2039406 75.8244396,50.2985776 C75.9250783,50.7464922 76.3247537,51.0769612 76.8024763,51.0769612 L87.8000031,51.0769612 L87.8000031,49.0769612 L77.4550521,49.0769612 Z" id="resistor" sketch:type="MSShapeGroup"></path>
        </g>
    </g>
</svg>