<?xml version="1.0" encoding="UTF-8" standalone="no"?>
<svg width="100px" height="100px" viewBox="0 0 100 100" version="1.1" xmlns="http://www.w3.org/2000/svg" xmlns:xlink="http://www.w3.org/1999/xlink" xmlns:sketch="http://www.bohemiancoding.com/sketch/ns">
    <!-- Generator: Sketch 3.4.4 (17249) - http://www.bohemiancoding.com/sketch -->
    <title>09-12-2015 - dvd</title>
    <desc>Created with Sketch.</desc>
    <defs></defs>
    <g id="January" stroke="none" stroke-width="1" fill="none" fill-rule="evenodd" sketch:type="MSPage">
        <g id="09-12-2015---dvd" sketch:type="MSArtboardGroup" fill="#000000">
            <path d="M50,91 C72.6436747,91 91,72.6436747 91,50 C91,27.3563253 72.6436747,9 50,9 C27.3563253,9 9,27.3563253 9,50 C9,72.6436747 27.3563253,91 50,91 L50,91 Z M50,89 C28.4608948,89 11,71.5391052 11,50 C11,28.4608948 28.4608948,11 50,11 C71.5391052,11 89,28.4608948 89,50 C89,71.5391052 71.5391052,89 50,89 L50,89 Z M19,50 C19,67.1208272 32.8791728,81 50,81 C50.5522847,81 51,80.5522847 51,80 C51,79.4477153 50.5522847,79 50,79 C33.9837423,79 21,66.0162577 21,50 C21,49.4477153 20.5522847,49 20,49 C19.4477153,49 19,49.4477153 19,50 L19,50 Z M81,50 C81,32.8791728 67.1208272,19 50,19 C49.4477153,19 49,19.4477153 49,20 C49,20.5522847 49.4477153,21 50,21 C66.0162577,21 79,33.9837423 79,50 C79,50.5522847 79.4477153,51 80,51 C80.5522847,51 81,50.5522847 81,50 Z M50,58 C54.418278,58 58,54.418278 58,50 C58,45.581722 54.418278,42 50,42 C45.581722,42 42,45.581722 42,50 C42,54.418278 45.581722,58 50,58 Z M50,56 C46.6862915,56 44,53.3137085 44,50 C44,46.6862915 46.6862915,44 50,44 C53.3137085,44 56,46.6862915 56,50 C56,53.3137085 53.3137085,56 50,56 L50,56 Z" id="dvd" sketch:type="MSShapeGroup"></path>
        </g>
    </g>
</svg>