<?xml version="1.0" encoding="UTF-8" standalone="no"?>
<svg width="100px" height="100px" viewBox="0 0 100 100" version="1.1" xmlns="http://www.w3.org/2000/svg" xmlns:xlink="http://www.w3.org/1999/xlink" xmlns:sketch="http://www.bohemiancoding.com/sketch/ns">
    <!-- Generator: Sketch 3.4.4 (17249) - http://www.bohemiancoding.com/sketch -->
    <title>10-12-2015 - bamboo</title>
    <desc>Created with Sketch.</desc>
    <defs></defs>
    <g id="January" stroke="none" stroke-width="1" fill="none" fill-rule="evenodd" sketch:type="MSPage">
        <g id="10-12-2015---bamboo" sketch:type="MSArtboardGroup" fill="#000000">
            <path d="M44.3903201,27.3478261 C44.3903201,24.4147786 44.5503472,19.5063888 44.3903201,16.5869565 C44.3112637,15.1447019 44.0386015,14.1695194 44.0386015,14.1695194 C43.8955268,13.5236117 44.3229354,13 44.9719968,13 L56.0242087,13 C56.6827833,13 57.0964709,13.5160371 56.9576965,14.1681507 C56.9576965,14.1681507 56.685199,15.1408979 56.6058858,16.5869565 C56.4458552,19.5046752 56.6058858,24.4080761 56.6058858,27.3478261 C56.6058858,28.1355989 56.975268,29.7659741 56.975268,29.7659741 C57.1085871,30.4114892 56.6732701,30.9347826 56.0242087,30.9347826 L44.9719968,30.9347826 C44.3134221,30.9347826 43.891568,30.4076592 44.0244495,29.7528551 C44.0244495,29.7528551 44.3903201,28.1502983 44.3903201,27.3478261 Z M44.3903201,45.8804348 C44.3903201,42.9473873 44.5503472,38.0389975 44.3903201,35.1195652 C44.3112637,33.6773106 44.0386015,32.7021281 44.0386015,32.7021281 C43.8955268,32.0562204 44.3229354,31.5326087 44.9719968,31.5326087 L56.0242087,31.5326087 C56.6827833,31.5326087 57.0964709,32.0486458 56.9576965,32.7007594 C56.9576965,32.7007594 56.685199,33.6735066 56.6058858,35.1195652 C56.4458552,38.0372839 56.6058858,42.9406848 56.6058858,45.8804348 C56.6058858,46.6682076 56.975268,48.2985828 56.975268,48.2985828 C57.1085871,48.9440979 56.6732701,49.4673913 56.0242087,49.4673913 L44.9719968,49.4673913 C44.3134221,49.4673913 43.891568,48.9402679 44.0244495,48.2854638 C44.0244495,48.2854638 44.3903201,46.682907 44.3903201,45.8804348 Z M44.3903201,82.8804348 C44.3903201,79.9473873 44.5503472,75.0389975 44.3903201,72.1195652 C44.3112637,70.6773106 44.0386015,69.7021281 44.0386015,69.7021281 C43.8955268,69.0562204 44.3229354,68.5326087 44.9719968,68.5326087 L56.0242087,68.5326087 C56.6827833,68.5326087 57.0964709,69.0486458 56.9576965,69.7007594 C56.9576965,69.7007594 56.685199,70.6735066 56.6058858,72.1195652 C56.4458552,75.0372839 56.6058858,79.9406848 56.6058858,82.8804348 C56.6058858,83.6682076 56.975268,85.2985828 56.975268,85.2985828 C57.1085871,85.9440979 56.6732701,86.4673913 56.0242087,86.4673913 L44.9719968,86.4673913 C44.3134221,86.4673913 43.891568,85.9402679 44.0244495,85.2854638 C44.0244495,85.2854638 44.3903201,83.682907 44.3903201,82.8804348 Z M44.3903201,64.4130435 C44.3903201,61.479996 44.5503472,56.5716062 44.3903201,53.6521739 C44.3112637,52.2099193 44.0386015,51.2347368 44.0386015,51.2347368 C43.8955268,50.5888291 44.3229354,50.0652174 44.9719968,50.0652174 L56.0242087,50.0652174 C56.6827833,50.0652174 57.0964709,50.5812545 56.9576965,51.2333681 C56.9576965,51.2333681 56.685199,52.2061153 56.6058858,53.6521739 C56.4458552,56.5698926 56.6058858,61.4732934 56.6058858,64.4130435 C56.6058858,65.2008163 56.975268,66.8311915 56.975268,66.8311915 C57.1085871,67.4767066 56.6732701,68 56.0242087,68 L44.9719968,68 C44.3134221,68 43.891568,67.4728766 44.0244495,66.8180725 C44.0244495,66.8180725 44.3903201,65.2155157 44.3903201,64.4130435 Z M57.5,32.5 C57.5,32.5 58,26.5 68,24 C67,31.4999998 57.5,32.5 57.5,32.5 Z M57.5,32.5 C57.5,32.5 57.8571429,36.0294118 65,37.5 C64.2857143,33.0882354 57.5,32.5 57.5,32.5 Z" id="bamboo" sketch:type="MSShapeGroup"></path>
        </g>
    </g>
</svg>