<?xml version="1.0" encoding="UTF-8" standalone="no"?>
<svg width="100px" height="100px" viewBox="0 0 100 100" version="1.1" xmlns="http://www.w3.org/2000/svg" xmlns:xlink="http://www.w3.org/1999/xlink" xmlns:sketch="http://www.bohemiancoding.com/sketch/ns">
    <!-- Generator: Sketch 3.4.4 (17249) - http://www.bohemiancoding.com/sketch -->
    <title>12-12-2015 - replace</title>
    <desc>Created with Sketch.</desc>
    <defs></defs>
    <g id="January" stroke="none" stroke-width="1" fill="none" fill-rule="evenodd" sketch:type="MSPage">
        <g id="12-12-2015---replace" sketch:type="MSArtboardGroup" fill="#000000">
            <path d="M16,16.9912443 C16,15.8915104 16.8998975,15 17.9912443,15 L42.0087557,15 C43.1084896,15 44,15.8998975 44,16.9912443 L44,41.0087557 C44,42.1084896 43.1001025,43 42.0087557,43 L17.9912443,43 C16.8915104,43 16,42.1001025 16,41.0087557 L16,16.9912443 Z M18,18.0006946 C18,17.4480262 18.4474692,17 19.0006946,17 L40.9993054,17 C41.5519738,17 42,17.4474692 42,18.0006946 L42,39.9993054 C42,40.5519738 41.5525308,41 40.9993054,41 L19.0006946,41 C18.4480262,41 18,40.5525308 18,39.9993054 L18,18.0006946 Z M54,54.9912443 C54,53.8915104 54.8998975,53 55.9912443,53 L80.0087557,53 C81.1084896,53 82,53.8998975 82,54.9912443 L82,79.0087557 C82,80.1084896 81.1001025,81 80.0087557,81 L55.9912443,81 C54.8915104,81 54,80.1001025 54,79.0087557 L54,54.9912443 Z M56,56.0006946 C56,55.4480262 56.4474692,55 57.0006946,55 L78.9993054,55 C79.5519738,55 80,55.4474692 80,56.0006946 L80,77.9993054 C80,78.5519738 79.5525308,79 78.9993054,79 L57.0006946,79 C56.4480262,79 56,78.5525308 56,77.9993054 L56,56.0006946 Z M50.033597,29.6939447 C50.6686915,29.8977332 51.3798292,30.1653566 52.1478642,30.5040797 C54.3503873,31.4754488 56.5551031,32.8186294 58.6117354,34.5904973 C59.3623866,35.2372121 60.0808333,35.9317106 60.7628458,36.6757244 C63.1036708,39.2293517 64.8800082,41.8710843 66.1680728,44.4472136 C66.6164802,45.3440284 63.7290394,43.7184241 63.9999996,44.4472138 C64.1592495,44.8755411 68.2302931,48.6100796 68.7631174,48.4647638 C69.2959418,48.3194481 69.6453571,42.9857348 69.4647633,42.4999996 C69.1693173,41.7053518 68.4382073,44.5153466 67.9569272,43.5527864 C66.5887418,40.8164155 64.7088292,38.0206481 62.2371542,35.3242751 C61.501389,34.5216222 60.7265023,33.7725651 59.9171535,33.0752799 C57.7018414,31.1667033 55.3294738,29.721384 52.9549135,28.6741422 C52.1209694,28.3063515 51.344555,28.0141624 50.6446668,27.789583 C50.2168295,27.6522989 49.9039115,27.5669285 49.7248594,27.5256088 C49.186718,27.4014223 48.6497952,27.7369992 48.5256088,28.2751406 C48.4014223,28.813282 48.7369992,29.3502048 49.2751406,29.4743912 C49.4012274,29.5034882 49.6604448,29.574208 50.033597,29.6939447 Z M47.9789714,66.2747279 C47.343877,66.0709394 46.6327393,65.803316 45.8647042,65.4645929 C43.6621812,64.4932239 41.4574654,63.1500432 39.4008331,61.3781754 C38.6501819,60.7314605 37.9317352,60.036962 37.2497226,59.2929483 C34.9088977,56.739321 33.1325603,54.0975883 31.8444957,51.5214591 C31.3960883,50.6246443 34.2835291,52.2502486 34.0125688,51.5214589 C33.853319,51.0931316 29.7822754,47.3585931 29.2494511,47.5039088 C28.7166267,47.6492246 28.3672114,52.9829378 28.5478052,53.468673 C28.8432512,54.2633208 29.5743612,51.4533261 30.0556413,52.4158863 C31.4238267,55.1522571 33.3037393,57.9480246 35.7754143,60.6443975 C36.5111795,61.4470505 37.2860661,62.1961076 38.095415,62.8933927 C40.3107271,64.8019694 42.6830947,66.2472886 45.0576549,67.2945305 C45.8915991,67.6623212 46.6680135,67.9545102 47.3679016,68.1790897 C47.795739,68.3163737 48.108657,68.4017442 48.287709,68.4430639 C48.8258504,68.5672503 49.3627732,68.2316735 49.4869597,67.6935321 C49.6111461,67.1553907 49.2755693,66.6184679 48.7374279,66.4942814 C48.6113411,66.4651845 48.3521236,66.3944647 47.9789714,66.2747279 Z" id="replace" sketch:type="MSShapeGroup"></path>
        </g>
    </g>
</svg>