<?xml version="1.0" encoding="UTF-8" standalone="no"?>
<svg width="100px" height="100px" viewBox="0 0 100 100" version="1.1" xmlns="http://www.w3.org/2000/svg" xmlns:xlink="http://www.w3.org/1999/xlink" xmlns:sketch="http://www.bohemiancoding.com/sketch/ns">
    <!-- Generator: Sketch 3.4.4 (17249) - http://www.bohemiancoding.com/sketch -->
    <title>13-12-2015 - peace</title>
    <desc>Created with Sketch.</desc>
    <defs></defs>
    <g id="January" stroke="none" stroke-width="1" fill="none" fill-rule="evenodd" sketch:type="MSPage">
        <g id="13-12-2015---peace" sketch:type="MSArtboardGroup" fill="#000000">
            <path d="M50,89 C71.5391052,89 89,71.5391052 89,50 C89,28.4608948 71.5391052,11 50,11 C28.4608948,11 11,28.4608948 11,50 C11,71.5391052 28.4608948,89 50,89 L50,89 Z M50,81 C32.8791728,81 19,67.1208272 19,50 C19,32.8791728 32.8791728,19 50,19 C67.1208272,19 81,32.8791728 81,50 C81,67.1208272 67.1208272,81 50,81 L50,81 Z M46,18.5 L46,82 L46,86 L54,86 L54,82 L54,18.5 L54,14.5 L46,14.5 L46,18.5 L46,18.5 Z M47.1715729,46.1715728 L24.666018,68.677127 C23.1039208,70.2392242 23.1039208,72.7718841 24.6660179,74.3339813 C26.2281151,75.8960785 28.760775,75.8960785 30.3228722,74.3339814 L52.8284271,51.8284272 C54.3905243,50.26633 54.3905243,47.7336701 52.8284272,46.1715729 C51.26633,44.6094757 48.7336701,44.6094757 47.1715729,46.1715728 L47.1715729,46.1715728 Z M47.1715729,51.8284271 L69.6771271,74.3339813 C71.2392242,75.8960785 73.7718842,75.8960785 75.3339813,74.3339813 C76.8960785,72.7718842 76.8960785,70.2392242 75.3339813,68.6771271 L52.8284271,46.1715729 C51.26633,44.6094757 48.73367,44.6094757 47.1715729,46.1715729 C45.6094757,47.73367 45.6094757,50.26633 47.1715729,51.8284271 L47.1715729,51.8284271 Z" id="peace" sketch:type="MSShapeGroup"></path>
        </g>
    </g>
</svg>