<?xml version="1.0" encoding="UTF-8" standalone="no"?>
<svg width="100px" height="100px" viewBox="0 0 100 100" version="1.1" xmlns="http://www.w3.org/2000/svg" xmlns:xlink="http://www.w3.org/1999/xlink" xmlns:sketch="http://www.bohemiancoding.com/sketch/ns">
    <!-- Generator: Sketch 3.4.4 (17249) - http://www.bohemiancoding.com/sketch -->
    <title>14-12-2015 - middle</title>
    <desc>Created with Sketch.</desc>
    <defs></defs>
    <g id="January" stroke="none" stroke-width="1" fill="none" fill-rule="evenodd" sketch:type="MSPage">
        <g id="14-12-2015---middle" sketch:type="MSArtboardGroup" fill="#000000">
            <path d="M20,30 L20,30 L21,29 L21,71 L20,70 L32,70 L31,71 L31,29 L32,30 L20,30 Z M20,29 L32,29 L32,71 L20,71 L20,29 Z M44,20 L56,20 L56,80 L44,80 L44,20 Z M68,30 L69,29 L69,71 L68,70 L80,70 L79,71 L79,29 L80,30 L68,30 Z M68,29 L80,29 L80,71 L68,71 L68,29 L68,29 Z" id="middle" sketch:type="MSShapeGroup"></path>
        </g>
    </g>
</svg>