<?xml version="1.0" encoding="UTF-8" standalone="no"?>
<svg width="100px" height="100px" viewBox="0 0 100 100" version="1.1" xmlns="http://www.w3.org/2000/svg" xmlns:xlink="http://www.w3.org/1999/xlink" xmlns:sketch="http://www.bohemiancoding.com/sketch/ns">
    <!-- Generator: Sketch 3.4.4 (17249) - http://www.bohemiancoding.com/sketch -->
    <title>16-12-2015 - sim card</title>
    <desc>Created with Sketch.</desc>
    <defs></defs>
    <g id="January" stroke="none" stroke-width="1" fill="none" fill-rule="evenodd" sketch:type="MSPage">
        <g id="16-12-2015---sim-card" sketch:type="MSArtboardGroup" fill="#000000">
            <path d="M28,33.7208784 L42.485633,19 L69.7921018,19 C71.5637751,19 73,20.4412989 73,22.2028327 L73,77.7971673 C73,79.566043 71.5663516,81 69.7997859,81 L31.2002141,81 C29.4327846,81 28,79.5592146 28,77.8059999 L28,33.7208784 Z M37.6428571,46.370815 C37.6428571,45.9293261 38.0063624,45.5714286 38.4406319,45.5714286 L62.5593681,45.5714286 C62.9999669,45.5714286 63.3571429,45.9356682 63.3571429,46.370815 L63.3571429,70.5382759 C63.3571429,70.9797648 62.9936376,71.3376623 62.5593681,71.3376623 L38.4406319,71.3376623 C38.0000331,71.3376623 37.6428571,70.9734228 37.6428571,70.5382759 L37.6428571,46.370815 Z" id="sim-card" sketch:type="MSShapeGroup" transform="translate(50.500000, 50.000000) rotate(-315.000000) translate(-50.500000, -50.000000) "></path>
        </g>
    </g>
</svg>