<?xml version="1.0" encoding="UTF-8" standalone="no"?>
<svg width="100px" height="100px" viewBox="0 0 100 100" version="1.1" xmlns="http://www.w3.org/2000/svg" xmlns:xlink="http://www.w3.org/1999/xlink" xmlns:sketch="http://www.bohemiancoding.com/sketch/ns">
    <!-- Generator: Sketch 3.4.4 (17249) - http://www.bohemiancoding.com/sketch -->
    <title>18-12-2015 - shoe print</title>
    <desc>Created with Sketch.</desc>
    <defs></defs>
    <g id="January" stroke="none" stroke-width="1" fill="none" fill-rule="evenodd" sketch:type="MSPage">
        <g id="18-12-2015---shoe-print" sketch:type="MSArtboardGroup" fill="#000000">
            <path d="M38.1034483,78 C42.9216566,78 46.8275862,74.0601058 46.8275862,69.2 C46.8275862,67.5488235 46.3767488,66.0038614 45.5924676,64.6835281 C38.8965517,64.9029195 38.1034483,64.9029195 30.4883362,64.9029195 C29.7820213,66.1737576 29.3793103,67.6394408 29.3793103,69.2 C29.3793103,74.0601058 33.2852399,78 38.1034483,78 Z M30.2753893,62.3370229 L46.0388727,62.1070431 C47.9987217,57.8513199 49.2068966,52.0255465 49.2068966,45.6 C49.2068966,32.5660799 44.2357134,22 38.1034483,22 C31.9711831,22 27,32.5660799 27,45.6 C27,52.1420749 28.2523931,58.0624253 30.2753893,62.3370229 Z M61.8965517,78 C57.0783434,78 53.1724138,74.0601058 53.1724138,69.2 C53.1724138,67.5488235 53.6232512,66.0038614 54.4075324,64.6835281 C61.1034483,64.9029195 61.8965517,64.9029195 69.5116638,64.9029195 C70.2179787,66.1737576 70.6206897,67.6394408 70.6206897,69.2 C70.6206897,74.0601058 66.7147601,78 61.8965517,78 Z M69.7246107,62.3370229 L53.9611273,62.1070431 C52.0012783,57.8513199 50.7931034,52.0255465 50.7931034,45.6 C50.7931034,32.5660799 55.7642866,22 61.8965517,22 C68.0288169,22 73,32.5660799 73,45.6 C73,52.1420749 71.7476069,58.0624253 69.7246107,62.3370229 Z" id="shoe-print" sketch:type="MSShapeGroup"></path>
        </g>
    </g>
</svg>