<?xml version="1.0" encoding="UTF-8" standalone="no"?>
<svg width="100px" height="100px" viewBox="0 0 100 100" version="1.1" xmlns="http://www.w3.org/2000/svg" xmlns:xlink="http://www.w3.org/1999/xlink" xmlns:sketch="http://www.bohemiancoding.com/sketch/ns">
    <!-- Generator: Sketch 3.4.4 (17249) - http://www.bohemiancoding.com/sketch -->
    <title>19-12-2015 - pattern</title>
    <desc>Created with Sketch.</desc>
    <defs></defs>
    <g id="January" stroke="none" stroke-width="1" fill="none" fill-rule="evenodd" sketch:type="MSPage">
        <g id="19-12-2015---pattern" sketch:type="MSArtboardGroup" fill="#000000">
            <path d="M83.7989899,29.0710678 L85.1421356,30.4142136 L79.4852814,36.0710678 L78.0710678,34.6568542 L83.6568542,29.0710678 L78.0710678,23.4852814 L79.4852814,22.0710678 L85.1421356,27.7279221 L83.7989899,29.0710678 Z M71.0710678,16.3431458 L69.7279221,15 L64.0710678,20.6568542 L65.4852814,22.0710678 L71.0710678,16.4852814 L76.6568542,22.0710678 L78.0710678,20.6568542 L72.4142136,15 L71.0710678,16.3431458 Z M72.3431458,29.0710678 L71.0710678,30.3431458 L69.7989899,29.0710678 L71.0710678,27.7989899 L72.3431458,29.0710678 Z M72.4852814,29.0710678 L78.0710678,34.6568542 L76.6568542,36.0710678 L71.0710678,30.4852814 L65.4852814,36.0710678 L64.0710678,34.6568542 L69.6568542,29.0710678 L64.0710678,23.4852814 L65.4852814,22.0710678 L71.0710678,27.6568542 L76.6568542,22.0710678 L78.0710678,23.4852814 L72.4852814,29.0710678 Z M57.0710678,16.3431458 L55.7279221,15 L50.0710678,20.6568542 L51.4852814,22.0710678 L57.0710678,16.4852814 L62.6568542,22.0710678 L64.0710678,20.6568542 L58.4142136,15 L57.0710678,16.3431458 Z M58.3431458,29.0710678 L57.0710678,30.3431458 L55.7989899,29.0710678 L57.0710678,27.7989899 L58.3431458,29.0710678 Z M58.4852814,29.0710678 L64.0710678,34.6568542 L62.6568542,36.0710678 L57.0710678,30.4852814 L51.4852814,36.0710678 L50.0710678,34.6568542 L55.6568542,29.0710678 L50.0710678,23.4852814 L51.4852814,22.0710678 L57.0710678,27.6568542 L62.6568542,22.0710678 L64.0710678,23.4852814 L58.4852814,29.0710678 Z M43.0710678,16.3431458 L41.7279221,15 L36.0710678,20.6568542 L37.4852814,22.0710678 L43.0710678,16.4852814 L48.6568542,22.0710678 L50.0710678,20.6568542 L44.4142136,15 L43.0710678,16.3431458 Z M44.3431458,29.0710678 L43.0710678,30.3431458 L41.7989899,29.0710678 L43.0710678,27.7989899 L44.3431458,29.0710678 Z M44.4852814,29.0710678 L50.0710678,34.6568542 L48.6568542,36.0710678 L43.0710678,30.4852814 L37.4852814,36.0710678 L36.0710678,34.6568542 L41.6568542,29.0710678 L36.0710678,23.4852814 L37.4852814,22.0710678 L43.0710678,27.6568542 L48.6568542,22.0710678 L50.0710678,23.4852814 L44.4852814,29.0710678 Z M29.0710678,16.3431458 L27.7279221,15 L22.0710678,20.6568542 L23.4852814,22.0710678 L29.0710678,16.4852814 L34.6568542,22.0710678 L36.0710678,20.6568542 L30.4142136,15 L29.0710678,16.3431458 Z M30.3431458,29.0710678 L29.0710678,30.3431458 L27.7989899,29.0710678 L29.0710678,27.7989899 L30.3431458,29.0710678 Z M30.4852814,29.0710678 L36.0710678,34.6568542 L34.6568542,36.0710678 L29.0710678,30.4852814 L23.4852814,36.0710678 L22.0710678,34.6568542 L27.6568542,29.0710678 L22.0710678,23.4852814 L23.4852814,22.0710678 L29.0710678,27.6568542 L34.6568542,22.0710678 L36.0710678,23.4852814 L30.4852814,29.0710678 Z M16.4852814,29.0710678 L22.0710678,34.6568542 L20.6568542,36.0710678 L15,30.4142136 L16.3431458,29.0710678 L15,27.7279221 L20.6568542,22.0710678 L22.0710678,23.4852814 L16.4852814,29.0710678 Z M83.7989899,43.0710678 L85.1421356,44.4142136 L79.4852814,50.0710678 L78.0710678,48.6568542 L83.6568542,43.0710678 L78.0710678,37.4852814 L79.4852814,36.0710678 L85.1421356,41.7279221 L83.7989899,43.0710678 Z M72.3431458,43.0710678 L71.0710678,44.3431458 L69.7989899,43.0710678 L71.0710678,41.7989899 L72.3431458,43.0710678 Z M72.4852814,43.0710678 L78.0710678,48.6568542 L76.6568542,50.0710678 L71.0710678,44.4852814 L65.4852814,50.0710678 L64.0710678,48.6568542 L69.6568542,43.0710678 L64.0710678,37.4852814 L65.4852814,36.0710678 L71.0710678,41.6568542 L76.6568542,36.0710678 L78.0710678,37.4852814 L72.4852814,43.0710678 Z M58.3431458,43.0710678 L57.0710678,44.3431458 L55.7989899,43.0710678 L57.0710678,41.7989899 L58.3431458,43.0710678 Z M58.4852814,43.0710678 L64.0710678,48.6568542 L62.6568542,50.0710678 L57.0710678,44.4852814 L51.4852814,50.0710678 L50.0710678,48.6568542 L55.6568542,43.0710678 L50.0710678,37.4852814 L51.4852814,36.0710678 L57.0710678,41.6568542 L62.6568542,36.0710678 L64.0710678,37.4852814 L58.4852814,43.0710678 Z M44.3431458,43.0710678 L43.0710678,44.3431458 L41.7989899,43.0710678 L43.0710678,41.7989899 L44.3431458,43.0710678 Z M44.4852814,43.0710678 L50.0710678,48.6568542 L48.6568542,50.0710678 L43.0710678,44.4852814 L37.4852814,50.0710678 L36.0710678,48.6568542 L41.6568542,43.0710678 L36.0710678,37.4852814 L37.4852814,36.0710678 L43.0710678,41.6568542 L48.6568542,36.0710678 L50.0710678,37.4852814 L44.4852814,43.0710678 Z M30.3431458,43.0710678 L29.0710678,44.3431458 L27.7989899,43.0710678 L29.0710678,41.7989899 L30.3431458,43.0710678 Z M30.4852814,43.0710678 L36.0710678,48.6568542 L34.6568542,50.0710678 L29.0710678,44.4852814 L23.4852814,50.0710678 L22.0710678,48.6568542 L27.6568542,43.0710678 L22.0710678,37.4852814 L23.4852814,36.0710678 L29.0710678,41.6568542 L34.6568542,36.0710678 L36.0710678,37.4852814 L30.4852814,43.0710678 Z M16.4852814,43.0710678 L22.0710678,48.6568542 L20.6568542,50.0710678 L15,44.4142136 L16.3431458,43.0710678 L15,41.7279221 L20.6568542,36.0710678 L22.0710678,37.4852814 L16.4852814,43.0710678 Z M83.7989899,57.0710678 L85.1421356,58.4142136 L79.4852814,64.0710678 L78.0710678,62.6568542 L83.6568542,57.0710678 L78.0710678,51.4852814 L79.4852814,50.0710678 L85.1421356,55.7279221 L83.7989899,57.0710678 Z M72.3431458,57.0710678 L71.0710678,58.3431458 L69.7989899,57.0710678 L71.0710678,55.7989899 L72.3431458,57.0710678 Z M72.4852814,57.0710678 L78.0710678,62.6568542 L76.6568542,64.0710678 L71.0710678,58.4852814 L65.4852814,64.0710678 L64.0710678,62.6568542 L69.6568542,57.0710678 L64.0710678,51.4852814 L65.4852814,50.0710678 L71.0710678,55.6568542 L76.6568542,50.0710678 L78.0710678,51.4852814 L72.4852814,57.0710678 Z M58.3431458,57.0710678 L57.0710678,58.3431458 L55.7989899,57.0710678 L57.0710678,55.7989899 L58.3431458,57.0710678 Z M58.4852814,57.0710678 L64.0710678,62.6568542 L62.6568542,64.0710678 L57.0710678,58.4852814 L51.4852814,64.0710678 L50.0710678,62.6568542 L55.6568542,57.0710678 L50.0710678,51.4852814 L51.4852814,50.0710678 L57.0710678,55.6568542 L62.6568542,50.0710678 L64.0710678,51.4852814 L58.4852814,57.0710678 Z M44.3431458,57.0710678 L43.0710678,58.3431458 L41.7989899,57.0710678 L43.0710678,55.7989899 L44.3431458,57.0710678 Z M44.4852814,57.0710678 L50.0710678,62.6568542 L48.6568542,64.0710678 L43.0710678,58.4852814 L37.4852814,64.0710678 L36.0710678,62.6568542 L41.6568542,57.0710678 L36.0710678,51.4852814 L37.4852814,50.0710678 L43.0710678,55.6568542 L48.6568542,50.0710678 L50.0710678,51.4852814 L44.4852814,57.0710678 Z M30.3431458,57.0710678 L29.0710678,58.3431458 L27.7989899,57.0710678 L29.0710678,55.7989899 L30.3431458,57.0710678 Z M30.4852814,57.0710678 L36.0710678,62.6568542 L34.6568542,64.0710678 L29.0710678,58.4852814 L23.4852814,64.0710678 L22.0710678,62.6568542 L27.6568542,57.0710678 L22.0710678,51.4852814 L23.4852814,50.0710678 L29.0710678,55.6568542 L34.6568542,50.0710678 L36.0710678,51.4852814 L30.4852814,57.0710678 Z M16.4852814,57.0710678 L22.0710678,62.6568542 L20.6568542,64.0710678 L15,58.4142136 L16.3431458,57.0710678 L15,55.7279221 L20.6568542,50.0710678 L22.0710678,51.4852814 L16.4852814,57.0710678 Z M83.7989899,71.0710678 L85.1421356,72.4142136 L79.4852814,78.0710678 L78.0710678,76.6568542 L83.6568542,71.0710678 L78.0710678,65.4852814 L79.4852814,64.0710678 L85.1421356,69.7279221 L83.7989899,71.0710678 Z M72.3431458,71.0710678 L71.0710678,72.3431458 L69.7989899,71.0710678 L71.0710678,69.7989899 L72.3431458,71.0710678 Z M72.4852814,71.0710678 L78.0710678,76.6568542 L76.6568542,78.0710678 L71.0710678,72.4852814 L65.4852814,78.0710678 L64.0710678,76.6568542 L69.6568542,71.0710678 L64.0710678,65.4852814 L65.4852814,64.0710678 L71.0710678,69.6568542 L76.6568542,64.0710678 L78.0710678,65.4852814 L72.4852814,71.0710678 Z M58.3431458,71.0710678 L57.0710678,72.3431458 L55.7989899,71.0710678 L57.0710678,69.7989899 L58.3431458,71.0710678 Z M58.4852814,71.0710678 L64.0710678,76.6568542 L62.6568542,78.0710678 L57.0710678,72.4852814 L51.4852814,78.0710678 L50.0710678,76.6568542 L55.6568542,71.0710678 L50.0710678,65.4852814 L51.4852814,64.0710678 L57.0710678,69.6568542 L62.6568542,64.0710678 L64.0710678,65.4852814 L58.4852814,71.0710678 Z M44.3431458,71.0710678 L43.0710678,72.3431458 L41.7989899,71.0710678 L43.0710678,69.7989899 L44.3431458,71.0710678 Z M44.4852814,71.0710678 L50.0710678,76.6568542 L48.6568542,78.0710678 L43.0710678,72.4852814 L37.4852814,78.0710678 L36.0710678,76.6568542 L41.6568542,71.0710678 L36.0710678,65.4852814 L37.4852814,64.0710678 L43.0710678,69.6568542 L48.6568542,64.0710678 L50.0710678,65.4852814 L44.4852814,71.0710678 Z M30.3431458,71.0710678 L29.0710678,72.3431458 L27.7989899,71.0710678 L29.0710678,69.7989899 L30.3431458,71.0710678 Z M30.4852814,71.0710678 L36.0710678,76.6568542 L34.6568542,78.0710678 L29.0710678,72.4852814 L23.4852814,78.0710678 L22.0710678,76.6568542 L27.6568542,71.0710678 L22.0710678,65.4852814 L23.4852814,64.0710678 L29.0710678,69.6568542 L34.6568542,64.0710678 L36.0710678,65.4852814 L30.4852814,71.0710678 Z M16.4852814,71.0710678 L22.0710678,76.6568542 L20.6568542,78.0710678 L15,72.4142136 L16.3431458,71.0710678 L15,69.7279221 L20.6568542,64.0710678 L22.0710678,65.4852814 L16.4852814,71.0710678 Z M71.0710678,83.6568542 L65.4852814,78.0710678 L64.0710678,79.4852814 L69.7279221,85.1421356 L71.0710678,83.7989899 L72.4142136,85.1421356 L78.0710678,79.4852814 L76.6568542,78.0710678 L71.0710678,83.6568542 Z M57.0710678,83.6568542 L51.4852814,78.0710678 L50.0710678,79.4852814 L55.7279221,85.1421356 L57.0710678,83.7989899 L58.4142136,85.1421356 L64.0710678,79.4852814 L62.6568542,78.0710678 L57.0710678,83.6568542 Z M43.0710678,83.6568542 L37.4852814,78.0710678 L36.0710678,79.4852814 L41.7279221,85.1421356 L43.0710678,83.7989899 L44.4142136,85.1421356 L50.0710678,79.4852814 L48.6568542,78.0710678 L43.0710678,83.6568542 Z M29.0710678,83.6568542 L23.4852814,78.0710678 L22.0710678,79.4852814 L27.7279221,85.1421356 L29.0710678,83.7989899 L30.4142136,85.1421356 L36.0710678,79.4852814 L34.6568542,78.0710678 L29.0710678,83.6568542 Z M20.6568542,78.0710678 L22.0710678,79.4852814 L16.4142136,85.1421356 L15,83.7279221 L20.6568542,78.0710678 Z M79.4852814,78.0710678 L85.1421356,83.7279221 L83.7279221,85.1421356 L78.0710678,79.4852814 L79.4852814,78.0710678 Z M16.4142136,15 L22.0710678,20.6568542 L20.6568542,22.0710678 L15,16.4142136 L16.4142136,15 Z M83.7279221,15 L85.1421356,16.4142136 L79.4852814,22.0710678 L78.0710678,20.6568542 L83.7279221,15 Z" id="pattern" sketch:type="MSShapeGroup"></path>
        </g>
    </g>
</svg>