<?xml version="1.0" encoding="UTF-8" standalone="no"?>
<svg width="100px" height="100px" viewBox="0 0 100 100" version="1.1" xmlns="http://www.w3.org/2000/svg" xmlns:xlink="http://www.w3.org/1999/xlink" xmlns:sketch="http://www.bohemiancoding.com/sketch/ns">
    <!-- Generator: Sketch 3.4.4 (17249) - http://www.bohemiancoding.com/sketch -->
    <title>20-12-2015 - film reel</title>
    <desc>Created with Sketch.</desc>
    <defs></defs>
    <g id="January" stroke="none" stroke-width="1" fill="none" fill-rule="evenodd" sketch:type="MSPage">
        <g id="20-12-2015---film-reel" sketch:type="MSArtboardGroup" fill="#000000">
            <path d="M50,86 C69.882251,86 86,69.882251 86,50 C86,30.117749 69.882251,14 50,14 C30.117749,14 14,30.117749 14,50 C14,69.882251 30.117749,86 50,86 Z M49.9997636,41 C56.3510382,41 61.4997636,35.8512746 61.4997636,29.5 C61.4997636,23.1487254 56.3510382,18 49.9997636,18 C43.648489,18 38.4997636,23.1487254 38.4997636,29.5 C38.4997636,35.8512746 43.648489,41 49.9997636,41 Z M58.5592722,47.2188471 C60.521924,53.2592682 67.0096965,56.5649533 73.0501176,54.6023016 C79.0905387,52.6396498 82.3962239,46.1518773 80.4335721,40.1114562 C78.4709203,34.0710351 71.9831478,30.7653499 65.9427267,32.7280017 C59.9023056,34.6906535 56.5966204,41.1784259 58.5592722,47.2188471 Z M55.2898308,57.2811529 C50.1515417,61.0143385 49.0124803,68.2060897 52.7456658,73.3443788 C56.4788514,78.4826679 63.6706025,79.6217294 68.8088916,75.8885438 C73.9471808,72.1553583 75.0862422,64.9636071 71.3530567,59.825318 C67.6198711,54.6870289 60.42812,53.5479674 55.2898308,57.2811529 Z M44.7096963,57.2811529 C39.5714072,53.5479674 32.379656,54.6870289 28.6464705,59.825318 C24.9132849,64.9636071 26.0523464,72.1553583 31.1906355,75.8885438 C36.3289246,79.6217294 43.5206758,78.4826679 47.2538613,73.3443788 C50.9870469,68.2060897 49.8479854,61.0143385 44.7096963,57.2811529 Z M41.4402549,47.2188471 C43.4029067,41.1784259 40.0972215,34.6906535 34.0568004,32.7280017 C28.0163793,30.7653499 21.5286068,34.0710351 19.5659551,40.1114562 C17.6033033,46.1518773 20.9089884,52.6396498 26.9494096,54.6023016 C32.9898307,56.5649533 39.4776031,53.2592682 41.4402549,47.2188471 Z M50.5,55 C52.9852814,55 55,52.9852814 55,50.5 C55,48.0147186 52.9852814,46 50.5,46 C48.0147186,46 46,48.0147186 46,50.5 C46,52.9852814 48.0147186,55 50.5,55 Z" id="film-reel" sketch:type="MSShapeGroup"></path>
        </g>
    </g>
</svg>