<?xml version="1.0" encoding="UTF-8" standalone="no"?>
<svg width="100px" height="100px" viewBox="0 0 100 100" version="1.1" xmlns="http://www.w3.org/2000/svg" xmlns:xlink="http://www.w3.org/1999/xlink" xmlns:sketch="http://www.bohemiancoding.com/sketch/ns">
    <!-- Generator: Sketch 3.4.4 (17249) - http://www.bohemiancoding.com/sketch -->
    <title>21-12-2015 - beanie</title>
    <desc>Created with Sketch.</desc>
    <defs></defs>
    <g id="January" stroke="none" stroke-width="1" fill="none" fill-rule="evenodd" sketch:type="MSPage">
        <g id="21-12-2015---beanie" sketch:type="MSArtboardGroup" fill="#000000">
            <path d="M29,46 L29,46 L29,68 L27,66 L73,66 L71,68 L71,46 C71,34.9527235 62.0439296,26 50.9936215,26 L49.0063785,26 C37.9489205,26 29,34.9498835 29,46 L29,46 Z M27,46 C27,33.8497355 36.8399299,24 49.0063785,24 L50.9936215,24 C63.1474088,24 73,33.847064 73,46 L73,68 L27,68 L27,46 Z M23,69.9958262 L23,74.0041738 C23,75.1005659 23.9013296,76 25.0094586,76 L74.9905414,76 C76.0993549,76 77,75.1030861 77,74.0041738 L77,69.9958262 C77,68.8994341 76.0986704,68 74.9905414,68 L25.0094586,68 C23.9006451,68 23,68.8969139 23,69.9958262 Z M21,69.9958262 C21,67.7889923 22.7994254,66 25.0094586,66 L74.9905414,66 C77.2049042,66 79,67.7965212 79,69.9958262 L79,74.0041738 C79,76.2110077 77.2005746,78 74.9905414,78 L25.0094586,78 C22.7950958,78 21,76.2034788 21,74.0041738 L21,69.9958262 L21,69.9958262 Z M50,24 C52.7614237,24 55,21.7614237 55,19 C55,16.2385763 52.7614237,14 50,14 C47.2385763,14 45,16.2385763 45,19 C45,21.7614237 47.2385763,24 50,24 Z" id="beanie" sketch:type="MSShapeGroup"></path>
        </g>
    </g>
</svg>