<?xml version="1.0" encoding="UTF-8" standalone="no"?>
<svg width="100px" height="100px" viewBox="0 0 100 100" version="1.1" xmlns="http://www.w3.org/2000/svg" xmlns:xlink="http://www.w3.org/1999/xlink" xmlns:sketch="http://www.bohemiancoding.com/sketch/ns">
    <!-- Generator: Sketch 3.4.4 (17249) - http://www.bohemiancoding.com/sketch -->
    <title>22-12-2015 - DNA</title>
    <desc>Created with Sketch.</desc>
    <defs></defs>
    <g id="January" stroke="none" stroke-width="1" fill="none" fill-rule="evenodd" sketch:type="MSPage">
        <g id="22-12-2015---DNA" sketch:type="MSArtboardGroup" fill="#000000">
            <path d="M48.5,52.0010819 C39.514757,52.4290516 33.6709055,58.5188507 30.3255868,68.5548067 C29.0915079,72.2570436 28.2957812,76.2356771 27.8534967,80.2162375 C27.6985805,81.6104833 27.5990434,82.9044651 27.5438198,84.0641618 C27.5245627,84.4685609 27.5122111,84.826757 27.5053721,85.134509 C27.5013252,85.3166216 27.5,85.4398638 27.5,85.5 C27.5,86.0522847 27.0522847,86.5 26.5,86.5 C25.9477153,86.5 25.5,86.0522847 25.5,85.5 C25.5,85.4252814 25.5014843,85.2872423 25.5058658,85.0900756 C25.5130742,84.7656954 25.5260079,84.3906183 25.5460835,83.9690315 C25.6032389,82.7687682 25.7059841,81.4330805 25.8657292,79.9953744 C26.3224771,75.8846437 27.1450086,71.7719861 28.4282202,67.9223512 C31.298991,59.3100387 36.0089111,53.2899512 42.9006576,51 C36.0089111,48.7100488 31.298991,42.6899613 28.4282202,34.0776488 C27.1450086,30.2280139 26.3224771,26.1153563 25.8657292,22.0046256 C25.7059841,20.5669195 25.6032389,19.2312318 25.5460835,18.0309685 C25.5260079,17.6093817 25.5130742,17.2343046 25.5058658,16.9099244 C25.5014843,16.7127577 25.5,16.5747186 25.5,16.5 C25.5,15.9477153 25.9477153,15.5 26.5,15.5 C27.0522847,15.5 27.5,15.9477153 27.5,16.5 C27.5,16.5601362 27.5013252,16.6833784 27.5053721,16.865491 C27.5122111,17.173243 27.5245627,17.5314391 27.5438198,17.9358382 C27.5990434,19.0955349 27.6985805,20.3895167 27.8534967,21.7837625 C28.2957812,25.7643229 29.0915079,29.7429564 30.3255868,33.4451933 C33.6709055,43.4811493 39.514757,49.5709484 48.5,49.9989181 C57.485243,49.5709484 63.3290945,43.4811493 66.6744132,33.4451933 C67.9084921,29.7429564 68.7042188,25.7643229 69.1465033,21.7837625 C69.3014195,20.3895167 69.4009566,19.0955349 69.4561802,17.9358382 C69.4754373,17.5314391 69.4877889,17.173243 69.4946279,16.865491 C69.4986748,16.6833784 69.5,16.5601362 69.5,16.5 C69.5,15.9477153 69.9477153,15.5 70.5,15.5 C71.0522847,15.5 71.5,15.9477153 71.5,16.5 C71.5,16.5747186 71.4985157,16.7127577 71.4941342,16.9099244 C71.4869258,17.2343046 71.4739921,17.6093817 71.4539165,18.0309685 C71.3967611,19.2312318 71.2940159,20.5669195 71.1342708,22.0046256 C70.6775229,26.1153563 69.8549914,30.2280139 68.5717798,34.0776488 C65.701009,42.6899613 60.9910889,48.7100488 54.0993424,51 C60.9910889,53.2899512 65.701009,59.3100387 68.5717798,67.9223512 C69.8549914,71.7719861 70.6775229,75.8846437 71.1342708,79.9953744 C71.2940159,81.4330805 71.3967611,82.7687682 71.4539165,83.9690315 C71.4739921,84.3906183 71.4869258,84.7656954 71.4941342,85.0900756 C71.4985157,85.2872423 71.5,85.4252814 71.5,85.5 C71.5,86.0522847 71.0522847,86.5 70.5,86.5 C69.9477153,86.5 69.5,86.0522847 69.5,85.5 C69.5,85.4398638 69.4986748,85.3166216 69.4946279,85.134509 C69.4877889,84.826757 69.4754373,84.4685609 69.4561802,84.0641618 C69.4009566,82.9044651 69.3014195,81.6104833 69.1465033,80.2162375 C68.7042188,76.2356771 67.9084921,72.2570436 66.6744132,68.5548067 C63.3290945,58.5188507 57.485243,52.4290516 48.5,52.0010819 Z M36.5,40 L60.5,40 C61.3284271,40 62,39.3284271 62,38.5 C62,37.6715729 61.3284271,37 60.5,37 L36.5,37 C35.6715729,37 35,37.6715729 35,38.5 C35,39.3284271 35.6715729,40 36.5,40 Z M43.5,47 L53.5,47 C54.3284271,47 55,46.3284271 55,45.5 C55,44.6715729 54.3284271,44 53.5,44 L43.5,44 C42.6715729,44 42,44.6715729 42,45.5 C42,46.3284271 42.6715729,47 43.5,47 Z M33.5,33 L63.5,33 C64.3284271,33 65,32.3284271 65,31.5 C65,30.6715729 64.3284271,30 63.5,30 L33.5,30 C32.6715729,30 32,30.6715729 32,31.5 C32,32.3284271 32.6715729,33 33.5,33 Z M31.5,26 L65.5,26 C66.3284271,26 67,25.3284271 67,24.5 C67,23.6715729 66.3284271,23 65.5,23 L31.5,23 C30.6715729,23 30,23.6715729 30,24.5 C30,25.3284271 30.6715729,26 31.5,26 Z M30.5,19 L66.5,19 C67.3284271,19 68,18.3284271 68,17.5 C68,16.6715729 67.3284271,16 66.5,16 L30.5,16 C29.6715729,16 29,16.6715729 29,17.5 C29,18.3284271 29.6715729,19 30.5,19 Z M36.5,62 L60.5,62 C61.3284271,62 62,62.6715729 62,63.5 C62,64.3284271 61.3284271,65 60.5,65 L36.5,65 C35.6715729,65 35,64.3284271 35,63.5 C35,62.6715729 35.6715729,62 36.5,62 Z M43.5,55 L53.5,55 C54.3284271,55 55,55.6715729 55,56.5 C55,57.3284271 54.3284271,58 53.5,58 L43.5,58 C42.6715729,58 42,57.3284271 42,56.5 C42,55.6715729 42.6715729,55 43.5,55 Z M33.5,69 L63.5,69 C64.3284271,69 65,69.6715729 65,70.5 C65,71.3284271 64.3284271,72 63.5,72 L33.5,72 C32.6715729,72 32,71.3284271 32,70.5 C32,69.6715729 32.6715729,69 33.5,69 Z M31.5,76 L65.5,76 C66.3284271,76 67,76.6715729 67,77.5 C67,78.3284271 66.3284271,79 65.5,79 L31.5,79 C30.6715729,79 30,78.3284271 30,77.5 C30,76.6715729 30.6715729,76 31.5,76 Z M30.5,83 L66.5,83 C67.3284271,83 68,83.6715729 68,84.5 C68,85.3284271 67.3284271,86 66.5,86 L30.5,86 C29.6715729,86 29,85.3284271 29,84.5 C29,83.6715729 29.6715729,83 30.5,83 Z" id="DNA" sketch:type="MSShapeGroup"></path>
        </g>
    </g>
</svg>