<?xml version="1.0" encoding="UTF-8" standalone="no"?>
<svg width="100px" height="100px" viewBox="0 0 100 100" version="1.1" xmlns="http://www.w3.org/2000/svg" xmlns:xlink="http://www.w3.org/1999/xlink" xmlns:sketch="http://www.bohemiancoding.com/sketch/ns">
    <!-- Generator: Sketch 3.4.4 (17249) - http://www.bohemiancoding.com/sketch -->
    <title>23-12-2015 - twins</title>
    <desc>Created with Sketch.</desc>
    <defs></defs>
    <g id="January" stroke="none" stroke-width="1" fill="none" fill-rule="evenodd" sketch:type="MSPage">
        <g id="23-12-2015---twins" sketch:type="MSArtboardGroup" fill="#000000">
            <path d="M37.5002332,71.5 L37.5002332,72.5 L39.5002332,72.5 L39.5002332,71.5 L39.5002332,27.5 L37.5002332,27.2999992 L37.5002332,71.5 Z M59.5002332,71.5 L59.5002332,72.5 L61.5002332,72.5 L61.5002332,71.5 L61.5002332,27.3999996 L59.5002332,27.6000004 L59.5002332,71.5 Z M20.4301668,21.0973727 C20.4983255,21.1298292 20.6475332,21.1967385 20.8770529,21.2932333 C21.2685293,21.4578179 21.7388526,21.6422584 22.2872888,21.8416898 C23.8655986,22.4156206 25.7475924,22.9911539 27.9274476,23.5293898 C34.1784268,25.0728414 41.5511916,26.0002332 50.0002332,26.0002332 C58.4492748,26.0002332 65.8220396,25.0728414 72.0730188,23.5293898 C74.252874,22.9911539 76.1348678,22.4156206 77.7131776,21.8416898 C78.2616138,21.6422584 78.7319371,21.4578179 79.1234135,21.2932333 C79.3529332,21.1967385 79.5021409,21.1298292 79.5702996,21.0973727 C80.0689357,20.8599269 80.665648,21.0716635 80.9030937,21.5702996 C81.1405395,22.0689357 80.9288029,22.665648 80.4301668,22.9030937 C80.334263,22.9487622 80.1568105,23.0283373 79.8985373,23.1369206 C79.4770254,23.3141328 78.9761573,23.5105517 78.3966638,23.7212766 C76.7523174,24.3192208 74.8022799,24.9155625 72.5524476,25.4710766 C66.1471768,27.052625 58.6136916,28.0002332 50.0002332,28.0002332 C41.3867748,28.0002332 33.8532896,27.052625 27.4480188,25.4710766 C25.1981865,24.9155625 23.248149,24.3192208 21.6038026,23.7212766 C21.0243091,23.5105517 20.523441,23.3141328 20.1019291,23.1369206 C19.8436559,23.0283373 19.6662034,22.9487622 19.5702996,22.9030937 C19.0716635,22.665648 18.8599269,22.0689357 19.0973727,21.5702996 C19.3348184,21.0716635 19.9315307,20.8599269 20.4301668,21.0973727 L20.4301668,21.0973727 Z M20.4301668,77.9028605 C20.4983255,77.870404 20.6475332,77.8034947 20.8770529,77.7069999 C21.2685293,77.5424153 21.7388526,77.3579748 22.2872888,77.1585434 C23.8655986,76.5846126 25.7475924,76.0090793 27.9274476,75.4708434 C34.1784268,73.9273918 41.5511916,73 50.0002332,73 C58.4492748,73 65.8220396,73.9273918 72.0730188,75.4708434 C74.252874,76.0090793 76.1348678,76.5846126 77.7131776,77.1585434 C78.2616138,77.3579748 78.7319371,77.5424153 79.1234135,77.7069999 C79.3529332,77.8034947 79.5021409,77.870404 79.5702996,77.9028605 C80.0689357,78.1403063 80.665648,77.9285697 80.9030937,77.4299336 C81.1405395,76.9312975 80.9288029,76.3345852 80.4301668,76.0971395 C80.334263,76.051471 80.1568105,75.9718959 79.8985373,75.8633126 C79.4770254,75.6861004 78.9761573,75.4896815 78.3966638,75.2789566 C76.7523174,74.6810124 74.8022799,74.0846707 72.5524476,73.5291566 C66.1471768,71.9476082 58.6136916,71 50.0002332,71 C41.3867748,71 33.8532896,71.9476082 27.4480188,73.5291566 C25.1981865,74.0846707 23.248149,74.6810124 21.6038026,75.2789566 C21.0243091,75.4896815 20.523441,75.6861004 20.1019291,75.8633126 C19.8436559,75.9718959 19.6662034,76.051471 19.5702996,76.0971395 C19.0716635,76.3345852 18.8599269,76.9312975 19.0973727,77.4299336 C19.3348184,77.9285697 19.9315307,78.1403063 20.4301668,77.9028605 L20.4301668,77.9028605 Z" id="twins" sketch:type="MSShapeGroup"></path>
        </g>
    </g>
</svg>