<?xml version="1.0" encoding="UTF-8" standalone="no"?>
<svg width="100px" height="100px" viewBox="0 0 100 100" version="1.1" xmlns="http://www.w3.org/2000/svg" xmlns:xlink="http://www.w3.org/1999/xlink" xmlns:sketch="http://www.bohemiancoding.com/sketch/ns">
    <!-- Generator: Sketch 3.4.4 (17249) - http://www.bohemiancoding.com/sketch -->
    <title>24-12-2015 - line</title>
    <desc>Created with Sketch.</desc>
    <defs></defs>
    <g id="January" stroke="none" stroke-width="1" fill="none" fill-rule="evenodd" sketch:type="MSPage">
        <g id="24-12-2015---line" sketch:type="MSArtboardGroup" fill="#000000">
            <path d="M30,39 C34.9705627,39 39,34.9705627 39,30 C39,25.0294373 34.9705627,21 30,21 C25.0294373,21 21,25.0294373 21,30 C21,34.9705627 25.0294373,39 30,39 L30,39 Z M30,35 C27.2385763,35 25,32.7614237 25,30 C25,27.2385763 27.2385763,25 30,25 C32.7614237,25 35,27.2385763 35,30 C35,32.7614237 32.7614237,35 30,35 Z M71,79 C75.9705627,79 80,74.9705627 80,70 C80,65.0294373 75.9705627,61 71,61 C66.0294373,61 62,65.0294373 62,70 C62,74.9705627 66.0294373,79 71,79 Z M71,75 C68.2385763,75 66,72.7614237 66,70 C66,67.2385763 68.2385763,65 71,65 C73.7614237,65 76,67.2385763 76,70 C76,72.7614237 73.7614237,75 71,75 Z M39.0630709,40.891498 L41.1843912,43.0128183 C41.9654398,43.7938669 43.2317698,43.7938669 44.0128183,43.0128183 C44.7938669,42.2317698 44.7938669,40.9654398 44.0128183,40.1843912 L41.891498,38.0630709 C41.1104494,37.2820223 39.8441195,37.2820223 39.0630709,38.0630709 C38.2820223,38.8441195 38.2820223,40.1104494 39.0630709,40.891498 Z M48.255459,50.0838861 L50.3767794,52.2052065 C51.157828,52.9862551 52.4241579,52.9862551 53.2052065,52.2052065 C53.9862551,51.4241579 53.9862551,50.157828 53.2052065,49.3767794 L51.0838861,47.255459 C50.3028376,46.4744104 49.0365076,46.4744104 48.255459,47.255459 C47.4744104,48.0365076 47.4744104,49.3028376 48.255459,50.0838861 L48.255459,50.0838861 Z M57.4478472,59.2762743 L59.5691675,61.3975946 C60.3502161,62.1786432 61.6165461,62.1786432 62.3975946,61.3975946 C63.1786432,60.6165461 63.1786432,59.3502161 62.3975946,58.5691675 L60.2762743,56.4478472 C59.4952257,55.6667986 58.2288958,55.6667986 57.4478472,56.4478472 C56.6667986,57.2288958 56.6667986,58.4952257 57.4478472,59.2762743 L57.4478472,59.2762743 Z" id="line" sketch:type="MSShapeGroup"></path>
        </g>
    </g>
</svg>