<?xml version="1.0" encoding="UTF-8" standalone="no"?>
<svg width="100px" height="100px" viewBox="0 0 100 100" version="1.1" xmlns="http://www.w3.org/2000/svg" xmlns:xlink="http://www.w3.org/1999/xlink" xmlns:sketch="http://www.bohemiancoding.com/sketch/ns">
    <!-- Generator: Sketch 3.4.4 (17249) - http://www.bohemiancoding.com/sketch -->
    <title>25-12-2015 - christmas</title>
    <desc>Created with Sketch.</desc>
    <defs></defs>
    <g id="January" stroke="none" stroke-width="1" fill="none" fill-rule="evenodd" sketch:type="MSPage">
        <g id="25-12-2015---christmas" sketch:type="MSArtboardGroup" fill="#000000">
            <path d="M27,65.9931023 L27,65.9931023 L27,72.0068977 C27,73.1063334 27.8968881,74 29.0071897,74 L70.9928103,74 C72.1028154,74 73,73.1059985 73,72.0068977 L73,65.9931023 C73,64.8936666 72.1031119,64 70.9928103,64 L29.0071897,64 C27.8971846,64 27,64.8940015 27,65.9931023 L27,65.9931023 Z M25,65.9931023 C25,63.7877728 26.7942683,62 29.0071897,62 L70.9928103,62 C73.2059201,62 75,63.7873299 75,65.9931023 L75,72.0068977 C75,74.2122272 73.2057317,76 70.9928103,76 L29.0071897,76 C26.7940799,76 25,74.2126701 25,72.0068977 L25,65.9931023 Z M64.7287294,28.0976187 C48.0348843,27.2576057 38.6250543,33.9167598 34.4517542,45.682856 C32.4156407,51.4234226 31.9134488,57.5152829 32.2753309,62.7350344 C32.3103556,63.2402281 32.3444233,63.5866398 32.3651337,63.7531625 L30.3804243,62 L68.9923012,62 L67.00933,63.7395678 C67.0188356,63.6671908 67.036633,63.4936529 67.055582,63.2279135 C67.3909548,58.5246822 66.5068377,52.7656501 63.388639,47.2720488 C62.610198,45.9006016 61.7075356,44.5908014 60.6264321,43.2921406 C56.7752425,38.3071342 57.5282305,34.8594034 61.6236986,30.9769754 C61.8092742,30.8010531 61.9988984,30.6244672 62.2582175,30.3852217 C62.087894,30.5423606 62.735739,29.9453267 62.8820713,29.8095336 C63.7035285,29.0472401 64.2286318,28.5207882 64.692556,27.9731448 C64.5025412,28.1974494 64.4503868,28.3963248 64.4562946,28.5132226 C64.4536102,28.4601055 64.4222651,28.3437993 64.3632577,28.2162191 C64.3018181,28.0833802 64.2254844,27.9712363 64.1729482,27.9195219 C64.1806764,27.9271292 64.2056297,27.9461814 64.2576764,27.9743329 C64.3782829,28.0395676 64.5360005,28.0879208 64.7287294,28.0976187 Z M64.8292397,26.1001458 C65.8396293,26.1509874 66.953768,28.3980542 66.2185951,29.2658955 C62.8367597,33.2580131 57.0658425,35.4119043 62.2091343,42.0694168 C70.5576483,52.0812046 68.9923012,64 68.9923012,64 L30.3804243,64 C30.3804243,64 25.4202088,24.1171338 64.8292397,26.1001458 L64.8292397,26.1001458 Z M72,30 C75.8659932,30 79,26.8659932 79,23 C79,19.1340068 75.8659932,16 72,16 C68.1340068,16 65,19.1340068 65,23 C65,26.8659932 68.1340068,30 72,30 L72,30 Z M72,28 C69.2385763,28 67,25.7614237 67,23 C67,20.2385763 69.2385763,18 72,18 C74.7614237,18 77,20.2385763 77,23 C77,25.7614237 74.7614237,28 72,28 L72,28 Z" id="christmas" sketch:type="MSShapeGroup"></path>
        </g>
    </g>
</svg>