<?xml version="1.0" encoding="UTF-8" standalone="no"?>
<svg width="100px" height="100px" viewBox="0 0 100 100" version="1.1" xmlns="http://www.w3.org/2000/svg" xmlns:xlink="http://www.w3.org/1999/xlink" xmlns:sketch="http://www.bohemiancoding.com/sketch/ns">
    <!-- Generator: Sketch 3.4.4 (17249) - http://www.bohemiancoding.com/sketch -->
    <title>26-12-2015 - knob</title>
    <desc>Created with Sketch.</desc>
    <defs></defs>
    <g id="January" stroke="none" stroke-width="1" fill="none" fill-rule="evenodd" sketch:type="MSPage">
        <g id="26-12-2015---knob" sketch:type="MSArtboardGroup" fill="#000000">
            <path d="M49.8980662,82 C64.2574697,82 75.8980662,70.3594035 75.8980662,56 C75.8980662,41.6405965 64.2574697,30 49.8980662,30 C35.5386627,30 23.8980662,41.6405965 23.8980662,56 C23.8980662,70.3594035 35.5386627,82 49.8980662,82 L49.8980662,82 Z M49.8980662,78 C37.7478017,78 27.8980662,68.1502645 27.8980662,56 C27.8980662,43.8497355 37.7478017,34 49.8980662,34 C62.0483307,34 71.8980662,43.8497355 71.8980662,56 C71.8980662,68.1502645 62.0483307,78 49.8980662,78 Z M48.8980662,18.9953976 C48.8980662,18.4456547 49.341931,18 49.8980662,18 C50.4503509,18 50.8980662,18.4556644 50.8980662,18.9953976 L50.8980662,27.0046024 C50.8980662,27.5543453 50.4542013,28 49.8980662,28 C49.3457814,28 48.8980662,27.5443356 48.8980662,27.0046024 L48.8980662,18.9953976 Z M59.8395146,20.3441054 C60.0002439,19.8183836 60.5550107,19.5219754 61.0868454,19.6845736 C61.614998,19.8460461 61.9099268,20.4126994 61.7521241,20.9288488 L59.4104592,28.5880895 C59.24973,29.1138112 58.6949631,29.4102194 58.1631284,29.2476212 C57.6349759,29.0861488 57.340047,28.5194955 57.4978497,28.0033461 L59.8395146,20.3441054 Z M69.8979358,24.8549617 C70.2053481,24.3992041 70.8225356,24.2779457 71.2835926,24.5889326 C71.7414574,24.8977663 71.8578259,25.5258884 71.5560109,25.9733475 L67.0773204,32.6132792 C66.7699081,33.0690367 66.1527205,33.1902952 65.6916636,32.8793083 C65.2337987,32.5704746 65.1174303,31.9423525 65.4192452,31.4948934 L69.8979358,24.8549617 Z M78.1813453,32.1275126 C78.6085758,31.7815482 79.2342477,31.8460364 79.5842349,32.2782346 C79.9317989,32.7074404 79.8594375,33.3421394 79.4399861,33.6818045 L73.2156649,38.7221605 C72.7884344,39.0681249 72.1627625,39.0036367 71.8127753,38.5714385 C71.4652112,38.1422326 71.5375726,37.5075336 71.9570241,37.1678685 L78.1813453,32.1275126 Z M83.9971504,41.5750446 C84.5103796,41.3780344 85.085501,41.6327095 85.284802,42.1519064 C85.4827231,42.6675087 85.2177706,43.2487824 84.7138863,43.4422055 L77.2366494,46.3124478 C76.7234202,46.509458 76.1482988,46.2547829 75.9489977,45.7355859 C75.7510766,45.2199837 76.0160291,44.63871 76.5199135,44.4452869 L83.9971504,41.5750446 Z M86.7308824,52.2569959 C87.2792862,52.2186478 87.7548177,52.6303441 87.7936117,53.1851245 C87.8321372,53.736064 87.4088138,54.2144741 86.8703954,54.252124 L78.8807005,54.8108179 C78.3322968,54.849166 77.8567652,54.4374697 77.8179712,53.8826893 C77.7794458,53.3317499 78.2027692,52.8533397 78.7411876,52.8156898 L86.7308824,52.2569959 Z M86.197603,63.2696603 C86.7332561,63.3933255 87.0676408,63.9260646 86.9425376,64.4679461 C86.8183005,65.0060758 86.2736008,65.339814 85.7477009,65.2184004 L77.9437715,63.4167213 C77.4081185,63.2930561 77.0737337,62.760317 77.1988369,62.2184355 C77.323074,61.6803058 77.8677737,61.3465677 78.3936736,61.4679812 L86.197603,63.2696603 Z M14.0484314,65.2184004 C13.5127784,65.3420657 12.9786979,65.0098276 12.8535947,64.4679461 C12.7293577,63.9298164 13.0726294,63.3910738 13.5985293,63.2696603 L21.4024587,61.4679812 C21.9381118,61.344316 22.4721922,61.6765541 22.5972954,62.2184355 C22.7215324,62.7565653 22.3782607,63.2953078 21.8523608,63.4167213 L14.0484314,65.2184004 Z M12.925737,54.252124 C12.3773332,54.2137759 11.9637266,53.739905 12.0025206,53.1851245 C12.041046,52.6341851 12.5268315,52.219346 13.0652499,52.2569959 L21.0549447,52.8156898 C21.6033485,52.8540379 22.0169551,53.3279088 21.9781611,53.8826893 C21.9396357,54.4336287 21.4538502,54.8484678 20.9154318,54.8108179 L12.925737,54.252124 Z M15.0822461,43.4422055 C14.5690168,43.2451952 14.3120293,42.6711034 14.5113303,42.1519064 C14.7092515,41.6363042 15.2950976,41.3816215 15.798982,41.5750446 L23.2762188,44.4452869 C23.7894481,44.6422972 24.0464356,45.216389 23.8471346,45.7355859 C23.6492134,46.2511882 23.0633673,46.5058709 22.559483,46.3124478 L15.0822461,43.4422055 Z M20.3561462,33.6818045 C19.9289158,33.3358401 19.8619102,32.7104328 20.2118974,32.2782346 C20.5594615,31.8490287 21.1953356,31.7878475 21.614787,32.1275126 L27.8391082,37.1678685 C28.2663387,37.513833 28.3333443,38.1392403 27.983357,38.5714385 C27.635793,39.0006444 26.9999189,39.0618256 26.5804675,38.7221605 L20.3561462,33.6818045 Z M28.2401214,25.9733475 C27.9327091,25.51759 28.0514828,24.8999194 28.5125397,24.5889326 C28.9704045,24.2800989 29.5963816,24.4075026 29.8981966,24.8549617 L34.3768871,31.4948934 C34.6842994,31.9506509 34.5655257,32.5683215 34.1044688,32.8793083 C33.646604,33.188142 33.0206269,33.0607383 32.7188119,32.6132792 L28.2401214,25.9733475 Z M38.0440082,20.9288488 C37.8832789,20.403127 38.1774522,19.8471718 38.7092869,19.6845736 C39.2374394,19.5231012 39.798815,19.827956 39.9566177,20.3441054 L42.2982826,28.0033461 C42.4590119,28.5290678 42.1648386,29.085023 41.6330039,29.2476212 C41.1048514,29.4090936 40.5434758,29.1042389 40.3856731,28.5880895 L38.0440082,20.9288488 Z M45.8980662,42 C45.8980662,39.790861 47.6934223,38 49.8980662,38 L49.8980662,38 C52.1072052,38 53.8980662,39.7953562 53.8980662,42 L53.8980662,42 C53.8980662,44.209139 52.10271,46 49.8980662,46 L49.8980662,46 C47.6889272,46 45.8980662,44.2046438 45.8980662,42 L45.8980662,42 Z" id="knob" sketch:type="MSShapeGroup"></path>
        </g>
    </g>
</svg>