<?xml version="1.0" encoding="UTF-8" standalone="no"?>
<svg width="100px" height="100px" viewBox="0 0 100 100" version="1.1" xmlns="http://www.w3.org/2000/svg" xmlns:xlink="http://www.w3.org/1999/xlink" xmlns:sketch="http://www.bohemiancoding.com/sketch/ns">
    <!-- Generator: Sketch 3.4.4 (17249) - http://www.bohemiancoding.com/sketch -->
    <title>27-12-2015 - passport</title>
    <desc>Created with Sketch.</desc>
    <defs></defs>
    <g id="January" stroke="none" stroke-width="1" fill="none" fill-rule="evenodd" sketch:type="MSPage">
        <g id="27-12-2015---passport" sketch:type="MSArtboardGroup" fill="#000000">
            <path d="M22,18.9989785 C22,14.5812646 25.5882405,11 29.9936777,11 L70.0063223,11 C74.4211086,11 78,14.5798836 78,18.9989785 L78,81.0010215 C78,85.4187354 74.4117595,89 70.0063223,89 L29.9936777,89 C25.5788914,89 22,85.4201164 22,81.0010215 L22,18.9989785 Z M50,50 C56.627417,50 62,44.627417 62,38 C62,31.372583 56.627417,26 50,26 C43.372583,26 38,31.372583 38,38 C38,44.627417 43.372583,50 50,50 Z M33,65 C33,64.4477153 33.455173,64 34.0004194,64 L67.9995806,64 C68.552097,64 69,64.4438648 69,65 C69,65.5522847 68.544827,66 67.9995806,66 L34.0004194,66 C33.447903,66 33,65.5561352 33,65 Z M33,75 C33,74.4477153 33.455173,74 34.0004194,74 L67.9995806,74 C68.552097,74 69,74.4438648 69,75 C69,75.5522847 68.544827,76 67.9995806,76 L34.0004194,76 C33.447903,76 33,75.5561352 33,75 Z" id="passport" sketch:type="MSShapeGroup"></path>
        </g>
    </g>
</svg>