<?xml version="1.0" encoding="UTF-8" standalone="no"?>
<svg width="100px" height="100px" viewBox="0 0 100 100" version="1.1" xmlns="http://www.w3.org/2000/svg" xmlns:xlink="http://www.w3.org/1999/xlink" xmlns:sketch="http://www.bohemiancoding.com/sketch/ns">
    <!-- Generator: Sketch 3.4.4 (17249) - http://www.bohemiancoding.com/sketch -->
    <title>28-12-2015 - basket</title>
    <desc>Created with Sketch.</desc>
    <defs></defs>
    <g id="January" stroke="none" stroke-width="1" fill="none" fill-rule="evenodd" sketch:type="MSPage">
        <g id="28-12-2015---basket" sketch:type="MSArtboardGroup" fill="#000000">
            <path d="M22.4796604,47.6367539 L22.4796604,47.6367539 L22.3626077,47.2130165 L23.2616216,46.0386884 L23.703069,46.0386884 L31.9891254,76.0347021 C32.0315962,76.1884488 32.3123674,76.4019344 32.4738414,76.4019344 L68.9907429,76.4019332 C69.1391093,76.4019332 69.3937145,76.2042544 69.4299282,76.0600492 L76.9690722,46.0386884 L77.370388,46.0386884 L78.3197572,47.2491661 L78.2224238,47.6367539 L22.4796604,47.6367539 Z M78.2224238,47.6367539 L70.9872622,76.4476371 C70.7719604,77.3049828 69.8739153,77.9999988 68.9907429,77.9999988 L32.4738414,78 C31.5864961,78 30.6745445,77.3027187 30.441322,76.4584396 L22.4796604,47.6367539 L20,47.6367539 L20,43.64159 L81,43.64159 L81,47.6367539 L78.2224238,47.6367539 Z M39.4284473,23.6889988 C39.938144,22.9610766 40.9349968,22.7796636 41.6662893,23.2917201 C42.3925187,23.8002314 42.5688151,24.8014706 42.0583565,25.5304811 L31.0715527,41.221263 C30.561856,41.9491853 29.5650032,42.1305983 28.8337107,41.6185417 C28.1074813,41.1100304 27.9311849,40.1087913 28.4416435,39.3797808 L39.4284473,23.6889988 Z M59.7442751,25.5304811 C59.2345784,24.8025588 59.4050497,23.8037766 60.1363423,23.2917201 C60.8625716,22.7832088 61.8637256,22.9599883 62.3741843,23.6889988 L73.3609881,39.3797808 C73.8706847,40.107703 73.7002134,41.1064852 72.9689209,41.6185417 C72.2426915,42.127053 71.2415375,41.9502735 70.7310789,41.221263 L59.7442751,25.5304811 Z" id="basket" sketch:type="MSShapeGroup"></path>
        </g>
    </g>
</svg>