<?xml version="1.0" encoding="UTF-8" standalone="no"?>
<svg width="100px" height="100px" viewBox="0 0 100 100" version="1.1" xmlns="http://www.w3.org/2000/svg" xmlns:xlink="http://www.w3.org/1999/xlink" xmlns:sketch="http://www.bohemiancoding.com/sketch/ns">
    <!-- Generator: Sketch 3.4.4 (17249) - http://www.bohemiancoding.com/sketch -->
    <title>29-12-2015 - flower</title>
    <desc>Created with Sketch.</desc>
    <defs></defs>
    <g id="January" stroke="none" stroke-width="1" fill="none" fill-rule="evenodd" sketch:type="MSPage">
        <g id="29-12-2015---flower" sketch:type="MSArtboardGroup" fill="#000000">
            <path d="M34.302607,30.2919978 C35.5891392,22.7451098 42.1608454,17 50.0743938,17 C57.9879422,17 64.5596484,22.7451098 65.8461806,30.2919978 C73.4212579,29.183446 80.9159509,33.6581734 83.3613719,41.1844052 C85.8067928,48.710637 82.3736376,56.7360375 75.593681,60.291719 C78.988804,67.1534843 77.0490728,75.6641277 70.6468776,80.3155948 C64.2446825,84.9670619 55.5511697,84.1819224 50.0743938,78.8325664 C44.5976179,84.1819224 35.9041051,84.9670619 29.50191,80.3155948 C23.0997148,75.6641277 21.1599836,67.1534843 24.5551066,60.291719 C17.77515,56.7360375 14.3419948,48.710637 16.7874157,41.1844052 C19.2328367,33.6581734 26.7275297,29.183446 34.302607,30.2919978 Z M50,58 C54.418278,58 58,54.418278 58,50 C58,45.581722 54.418278,42 50,42 C45.581722,42 42,45.581722 42,50 C42,54.418278 45.581722,58 50,58 Z" id="flower" sketch:type="MSShapeGroup"></path>
        </g>
    </g>
</svg>