<?xml version="1.0" encoding="UTF-8" standalone="no"?>
<svg width="100px" height="100px" viewBox="0 0 100 100" version="1.1" xmlns="http://www.w3.org/2000/svg" xmlns:xlink="http://www.w3.org/1999/xlink" xmlns:sketch="http://www.bohemiancoding.com/sketch/ns">
    <!-- Generator: Sketch 3.4.4 (17249) - http://www.bohemiancoding.com/sketch -->
    <title>30-12-2015 - easel</title>
    <desc>Created with Sketch.</desc>
    <defs></defs>
    <g id="January" stroke="none" stroke-width="1" fill="none" fill-rule="evenodd" sketch:type="MSPage">
        <g id="30-12-2015---easel" sketch:type="MSArtboardGroup" fill="#000000">
            <path d="M20,27.9974922 L20,27.9974922 L20,66.0025078 C20,65.9986461 20.0013567,66 20.0032986,66 L79.9967014,66 C79.9959029,66 80,65.9959258 80,66.0025078 L80,27.9974922 C80,28.0013539 79.9986433,28 79.9967014,28 L20.0032986,28 C20.0040971,28 20,28.0040742 20,27.9974922 L20,27.9974922 Z M50.4201899,68.0143989 L39.1554713,68 L29.5838343,77.571637 C28.8082875,78.3471838 28.8027538,79.6178453 29.583061,80.3981524 L32.4141732,83.2292646 C33.2000481,84.0151395 34.4634809,84.0138505 35.2485653,83.2388215 L50.4201899,68.2615164 L65.5918145,83.2388215 C66.3768989,84.0138505 67.6403316,84.0151395 68.4262066,83.2292646 L71.2573188,80.3981524 C72.0376259,79.6178453 72.0320923,78.3471838 71.2565455,77.571637 L61.6849084,68 L50.4201899,68.0143989 Z M18,27.9974922 C18,26.8943077 18.9047241,26 20.0032986,26 L79.9967014,26 C81.1030927,26 82,26.8966603 82,27.9974922 L82,66.0025078 C82,67.1056923 81.0952759,68 79.9967014,68 L20.0032986,68 C18.8969073,68 18,67.1033397 18,66.0025078 L18,27.9974922 Z M46,19.9981014 C46,18.8945804 46.8867064,18 47.9981014,18 L52.0018986,18 C53.1054196,18 54,18.8867064 54,19.9981014 L54,26 L46,26 L46,19.9981014 Z" id="easel" sketch:type="MSShapeGroup"></path>
        </g>
    </g>
</svg>