<?xml version="1.0" encoding="UTF-8" standalone="no"?>
<svg width="100px" height="100px" viewBox="0 0 100 100" version="1.1" xmlns="http://www.w3.org/2000/svg" xmlns:xlink="http://www.w3.org/1999/xlink" xmlns:sketch="http://www.bohemiancoding.com/sketch/ns">
    <!-- Generator: Sketch 3.4.4 (17249) - http://www.bohemiancoding.com/sketch -->
    <title>31-12-2015 - new year</title>
    <desc>Created with Sketch.</desc>
    <defs></defs>
    <g id="January" stroke="none" stroke-width="1" fill="none" fill-rule="evenodd" sketch:type="MSPage">
        <g id="31-12-2015---new-year" sketch:type="MSArtboardGroup" fill="#000000">
            <path d="M68.0000804,64.197139 L68.0129631,64.1941647 C73.5782734,62.9093116 76.6727683,57.4704004 74.9467395,52.0409308 L66.8256914,26.495016 L51.2357708,30.0942328 L55.1352134,56.614782 C55.9305567,62.0240016 60.7421482,65.5018541 66.0466515,64.6267317 L69.2006551,78.288222 L71.1493952,77.8383199 L68.0000804,64.197139 Z M33.144335,64.4954592 L33.1572177,64.4984334 C38.722528,65.7832865 43.8881033,62.2513628 44.7168817,56.6147466 L48.616324,30.0941973 L33.0264034,26.4949805 L24.9053556,52.0408954 C23.2489597,57.2513253 26.0489993,62.4864614 31.2002837,64.0252478 L28.0462801,77.686738 L29.9950202,78.1366401 L33.144335,64.4954592 Z M36.5906596,80.6856675 C36.7148967,80.1475378 33.325688,78.9055853 29.0206502,77.911689 C24.7156124,76.9177927 21.1249756,76.5483209 21.0007386,77.0864507 C20.8765016,77.6245804 36.4664226,81.2237973 36.5906596,80.6856675 Z M33.6424872,27.6635188 L47.5759784,30.8803187 L45.5917742,43 L29.0917746,42.9999996 L33.6424872,27.6635188 Z M78.1949367,77.2380325 C78.0706997,76.6999028 74.4800629,77.0693746 70.1750251,78.0632709 C65.8699873,79.0571672 62.4807786,80.2991197 62.6050157,80.8372494 C62.7292527,81.3753791 78.3191737,77.7761623 78.1949367,77.2380325 Z M52.3017567,30.8744347 L66.2352479,27.6576348 L71.0917744,43 L54.0917745,42.9999997 L52.3017567,30.8744347 Z M49.0917745,20.4976988 C49.0917745,20.2228273 49.3237081,20 49.5917745,20 C49.8679169,20 50.0917745,20.2148438 50.0917745,20.4976988 L50.0917745,24.5023012 C50.0917745,24.7771727 49.8598409,25 49.5917745,25 C49.3156322,25 49.0917745,24.7851562 49.0917745,24.5023012 L49.0917745,20.4976988 Z M53.8909007,21.7321097 C54.0524661,21.509734 54.3710789,21.4657901 54.5879492,21.6233555 C54.811353,21.785668 54.8661757,22.0910604 54.6999177,22.3198949 L52.3460714,25.5596864 C52.184506,25.782062 51.8658932,25.826006 51.6490229,25.6684405 C51.425619,25.5061281 51.3707964,25.2007356 51.5370544,24.9719011 L53.8909007,21.7321097 Z M57.0479067,25.5516247 C57.309325,25.4666847 57.5929178,25.6184092 57.6757549,25.8733555 C57.7610876,26.1359826 57.6259349,26.4152742 57.3569237,26.5026812 L53.5483205,27.7401714 C53.2869022,27.8251113 53.0033094,27.6733868 52.9204723,27.4184405 C52.8351396,27.1558135 52.9702924,26.8765219 53.2393035,26.7891149 L57.0479067,25.5516247 Z M41.8266253,26.5026812 C41.565207,26.4177412 41.4249571,26.1283019 41.5077941,25.8733555 C41.5931268,25.6107285 41.8666312,25.4642177 42.1356423,25.5516247 L45.9442455,26.7891149 C46.2056638,26.8740548 46.3459138,27.1634942 46.2630767,27.4184405 C46.177744,27.6810675 45.9042397,27.8275784 45.6352286,27.7401714 L41.8266253,26.5026812 Z M44.4836314,22.3198949 C44.322066,22.0975193 44.3787296,21.780921 44.5955999,21.6233555 C44.8190038,21.4610431 45.1263904,21.5032752 45.2926484,21.7321097 L47.6464946,24.9719011 C47.80806,25.1942768 47.7513964,25.510875 47.5345261,25.6684405 C47.3111223,25.8307529 47.0037357,25.7885209 46.8374776,25.5596864 L44.4836314,22.3198949 Z M42.0917745,40 C42.6440593,40 43.0917745,39.5522847 43.0917745,39 C43.0917745,38.4477153 42.6440593,38 42.0917745,38 C41.5394898,38 41.0917745,38.4477153 41.0917745,39 C41.0917745,39.5522847 41.5394898,40 42.0917745,40 Z M57.0917745,38 C57.6440593,38 58.0917745,37.5522847 58.0917745,37 C58.0917745,36.4477153 57.6440593,36 57.0917745,36 C56.5394898,36 56.0917745,36.4477153 56.0917745,37 C56.0917745,37.5522847 56.5394898,38 57.0917745,38 Z M56.5917745,41 C56.8679169,41 57.0917745,40.7761424 57.0917745,40.5 C57.0917745,40.2238576 56.8679169,40 56.5917745,40 C56.3156322,40 56.0917745,40.2238576 56.0917745,40.5 C56.0917745,40.7761424 56.3156322,41 56.5917745,41 Z M54.5917745,36 C54.8679169,36 55.0917745,35.7761424 55.0917745,35.5 C55.0917745,35.2238576 54.8679169,35 54.5917745,35 C54.3156322,35 54.0917745,35.2238576 54.0917745,35.5 C54.0917745,35.7761424 54.3156322,36 54.5917745,36 Z M44.5917745,36 C44.8679169,36 45.0917745,35.7761424 45.0917745,35.5 C45.0917745,35.2238576 44.8679169,35 44.5917745,35 C44.3156322,35 44.0917745,35.2238576 44.0917745,35.5 C44.0917745,35.7761424 44.3156322,36 44.5917745,36 Z M41.5917745,37 C41.8679169,37 42.0917745,36.7761424 42.0917745,36.5 C42.0917745,36.2238576 41.8679169,36 41.5917745,36 C41.3156322,36 41.0917745,36.2238576 41.0917745,36.5 C41.0917745,36.7761424 41.3156322,37 41.5917745,37 Z" id="new-year" sketch:type="MSShapeGroup"></path>
        </g>
    </g>
</svg>