<?xml version="1.0" encoding="UTF-8" standalone="no"?>
<svg width="100px" height="100px" viewBox="0 0 100 100" version="1.1" xmlns="http://www.w3.org/2000/svg" xmlns:xlink="http://www.w3.org/1999/xlink" xmlns:sketch="http://www.bohemiancoding.com/sketch/ns">
    <!-- Generator: Sketch 3.4.2 (15857) - http://www.bohemiancoding.com/sketch -->
    <title>01-11-2015 - marble</title>
    <desc>Created with Sketch.</desc>
    <defs></defs>
    <g id="January" stroke="none" stroke-width="1" fill="none" fill-rule="evenodd" sketch:type="MSPage">
        <g id="01-11-2015---marble" sketch:type="MSArtboardGroup" fill="#000000">
            <path d="M67.508782,58.1644579 C80.3347473,58.9412824 90,62.377994 90,66.5 C90,71.1944204 77.463973,75 62,75 C54.8638054,75 48.3511365,74.1895765 43.4062136,72.855368 C31.9247483,71.5667585 23,61.8256226 23,50 C23,37.2974508 33.2974508,27 46,27 C58.7025492,27 69,37.2974508 69,50 C69,52.875218 68.4724186,55.6272128 67.508782,58.1644579 Z M46,69 C56.4934102,69 65,60.4934102 65,50 C65,39.5065898 56.4934102,31 46,31 C35.5065898,31 27,39.5065898 27,50 C27,60.4934102 35.5065898,69 46,69 Z" id="marble" sketch:type="MSShapeGroup"></path>
        </g>
    </g>
</svg>