<?xml version="1.0" encoding="UTF-8" standalone="no"?>
<svg width="100px" height="100px" viewBox="0 0 100 100" version="1.1" xmlns="http://www.w3.org/2000/svg" xmlns:xlink="http://www.w3.org/1999/xlink" xmlns:sketch="http://www.bohemiancoding.com/sketch/ns">
    <!-- Generator: Sketch 3.4.2 (15857) - http://www.bohemiancoding.com/sketch -->
    <title>02-11-2015 - dumbell</title>
    <desc>Created with Sketch.</desc>
    <defs></defs>
    <g id="January" stroke="none" stroke-width="1" fill="none" fill-rule="evenodd" sketch:type="MSPage">
        <g id="02-11-2015---dumbell" sketch:type="MSArtboardGroup" fill="#000000">
            <path d="M37,46 L37,31.9994471 C37,28.1357289 33.8659932,25 30,25 C26.1418733,25 23,28.1337592 23,31.9994471 L23,46 L22,46 L22,36.0053221 C22,33.2362844 19.7614237,31 17,31 C14.2441952,31 12,33.240959 12,36.0053221 L12,46 L10.9970148,46 C10.449907,46 10,46.4456547 10,46.9953976 L10,55.0046024 C10,55.5443356 10.4463787,56 10.9970148,56 L12,56 L12,65.9946779 C12,68.7637156 14.2385763,71 17,71 C19.7558048,71 22,68.759041 22,65.9946779 L22,56 L23,56 L23,70.0005529 C23,73.8642711 26.1340068,77 30,77 C33.8581267,77 37,73.8662408 37,70.0005529 L37,56 L63,56 L63,70.0005529 C63,73.8642711 66.1340068,77 70,77 C73.8581267,77 77,73.8662408 77,70.0005529 L77,56 L78,56 L78,65.9946779 C78,68.7637156 80.2385763,71 83,71 C85.7558048,71 88,68.759041 88,65.9946779 L88,56 L89.0029852,56 C89.550093,56 90,55.5543453 90,55.0046024 L90,46.9953976 C90,46.4556644 89.5536213,46 89.0029852,46 L88,46 L88,36.0053221 C88,33.2362844 85.7614237,31 83,31 C80.2441952,31 78,33.240959 78,36.0053221 L78,46 L77,46 L77,31.9994471 C77,28.1357289 73.8659932,25 70,25 C66.1418733,25 63,28.1337592 63,31.9994471 L63,46 L37,46 Z" id="dumbell" sketch:type="MSShapeGroup"></path>
        </g>
    </g>
</svg>