<?xml version="1.0" encoding="UTF-8" standalone="no"?>
<svg width="100px" height="100px" viewBox="0 0 100 100" version="1.1" xmlns="http://www.w3.org/2000/svg" xmlns:xlink="http://www.w3.org/1999/xlink" xmlns:sketch="http://www.bohemiancoding.com/sketch/ns">
    <!-- Generator: Sketch 3.4.2 (15857) - http://www.bohemiancoding.com/sketch -->
    <title>05-11-2015 - washing machine</title>
    <desc>Created with Sketch.</desc>
    <defs></defs>
    <g id="January" stroke="none" stroke-width="1" fill="none" fill-rule="evenodd" sketch:type="MSPage">
        <g id="05-11-2015---washing-machine" sketch:type="MSArtboardGroup" fill="#000000">
            <path d="M18,15.0022777 C18,12.7918808 19.7953765,11 22.0034866,11 L77.9965134,11 C80.207578,11 82,12.7944236 82,15.0022777 L82,84.9977223 C82,87.2081192 80.2046235,89 77.9965134,89 L22.0034866,89 C19.792422,89 18,87.2055764 18,84.9977223 L18,15.0022777 Z M18,27 L82,27 L82,29 L18,29 L18,27 Z M72.5,23 C74.4329966,23 76,21.4329966 76,19.5 C76,17.5670034 74.4329966,16 72.5,16 C70.5670034,16 69,17.5670034 69,19.5 C69,21.4329966 70.5670034,23 72.5,23 Z M62.5,23 C64.4329966,23 66,21.4329966 66,19.5 C66,17.5670034 64.4329966,16 62.5,16 C60.5670034,16 59,17.5670034 59,19.5 C59,21.4329966 60.5670034,23 62.5,23 Z M23,16.9981014 C23,15.8945804 23.8900584,15 25.0001062,15 L37.9998938,15 C39.104522,15 40,15.8867064 40,16.9981014 L40,21.0018986 C40,22.1054196 39.1099416,23 37.9998938,23 L25.0001062,23 C23.895478,23 23,22.1132936 23,21.0018986 L23,16.9981014 Z M50,75 C60.4934102,75 69,66.4934102 69,56 C69,45.5065898 60.4934102,37 50,37 C39.5065898,37 31,45.5065898 31,56 C31,66.4934102 39.5065898,75 50,75 Z M50,72 C58.836556,72 66,64.836556 66,56 C66,50.0561712 61,57.4581226 55.7016719,57.4581228 C50.4033437,57.4581229 49.8927272,60.5 47,60.5 C38.163444,60.5 34,47.163444 34,56 C34,64.836556 41.163444,72 50,72 Z" id="washing-machine" sketch:type="MSShapeGroup"></path>
        </g>
    </g>
</svg>