<?xml version="1.0" encoding="UTF-8" standalone="no"?>
<svg width="100px" height="100px" viewBox="0 0 100 100" version="1.1" xmlns="http://www.w3.org/2000/svg" xmlns:xlink="http://www.w3.org/1999/xlink" xmlns:sketch="http://www.bohemiancoding.com/sketch/ns">
    <!-- Generator: Sketch 3.4.2 (15857) - http://www.bohemiancoding.com/sketch -->
    <title>06-11-2015 - memory</title>
    <desc>Created with Sketch.</desc>
    <defs></defs>
    <g id="January" stroke="none" stroke-width="1" fill="none" fill-rule="evenodd" sketch:type="MSPage">
        <g id="06-11-2015---memory" sketch:type="MSArtboardGroup" fill="#000000">
            <path d="M36,32 L64,32 L64,80.0059907 C64,82.2118211 62.2058797,84 60.0031611,84 L39.9968389,84 C37.7894457,84 36,82.2100423 36,80.0059907 L36,32 Z M40,16 L60,16 L60,32 L40,32 L40,16 Z M42,18 L58,18 L58,32 L42,32 L42,18 Z M44,23 L48,23 L48,26 L44,26 L44,23 Z M52,23 L56,23 L56,26 L52,26 L52,23 Z" id="memory" sketch:type="MSShapeGroup" transform="translate(50.000000, 50.000000) rotate(-315.000000) translate(-50.000000, -50.000000) "></path>
        </g>
    </g>
</svg>