<?xml version="1.0" encoding="UTF-8" standalone="no"?>
<svg width="100px" height="100px" viewBox="0 0 100 100" version="1.1" xmlns="http://www.w3.org/2000/svg" xmlns:xlink="http://www.w3.org/1999/xlink" xmlns:sketch="http://www.bohemiancoding.com/sketch/ns">
    <!-- Generator: Sketch 3.4.2 (15857) - http://www.bohemiancoding.com/sketch -->
    <title>07-11-2015 - fox</title>
    <desc>Created with Sketch.</desc>
    <defs></defs>
    <g id="January" stroke="none" stroke-width="1" fill="none" fill-rule="evenodd" sketch:type="MSPage">
        <g id="07-11-2015---fox" sketch:type="MSArtboardGroup" fill="#000000">
            <path d="M44.3181109,83.5 C44.3181109,83.5 20.318111,69 39.318111,48 C58.318111,27 50.8181109,16 50.8181109,16 C50.8181109,16 82.8181114,46 60.8181114,57 C38.8181114,68 44.3181109,83.5 44.3181109,83.5 Z M53.3158915,20.7987244 C54.3181109,23.9999999 51.8181109,34.4999997 48.3181109,38.5000006 C48.3181109,38.5000006 52.3181109,36 53.8181109,37 C55.3181109,38 54.8181109,39.5 54.8181109,39.5 C54.8181109,39.5 56.8181109,35 57.8181109,36.5 C58.8181109,38 59.8181109,38 60.8181109,38.5 C61.8181109,39 61.8181109,35 61.8181109,35 C61.8181109,35 64.8181109,36.5 64.8181109,37.5 C64.8181109,34.9999999 54.3181109,20.5 53.3158915,20.7987244 Z" id="fox" sketch:type="MSShapeGroup"></path>
        </g>
    </g>
</svg>