<?xml version="1.0" encoding="UTF-8" standalone="no"?>
<svg width="100px" height="100px" viewBox="0 0 100 100" version="1.1" xmlns="http://www.w3.org/2000/svg" xmlns:xlink="http://www.w3.org/1999/xlink" xmlns:sketch="http://www.bohemiancoding.com/sketch/ns">
    <!-- Generator: Sketch 3.4.2 (15857) - http://www.bohemiancoding.com/sketch -->
    <title>08-11-2015 - plug</title>
    <desc>Created with Sketch.</desc>
    <defs></defs>
    <g id="January" stroke="none" stroke-width="1" fill="none" fill-rule="evenodd" sketch:type="MSPage">
        <g id="08-11-2015---plug" sketch:type="MSArtboardGroup" fill="#000000">
            <path d="M48,69.9524332 C30,69.0692081 30,55.9967519 30,40 L70,40 C70,55.9967519 70,69.0692081 52,69.9524332 L52,86 L48,86 L48,69.9524332 Z M62,35 L70.494173,35 C71.878103,35 73,36.1096621 73,37.5 C73,38.8807119 71.8857077,40 70.494173,40 L29.505827,40 C28.121897,40 27,38.8903379 27,37.5 C27,36.1192881 28.1142923,35 29.505827,35 L38,35 L38,23.5034561 C38,22.1208355 39.1096621,21 40.5,21 C41.8807119,21 43,22.1176026 43,23.5034561 L43,35 L57,35 L57,23.5034561 C57,22.1208355 58.1096621,21 59.5,21 C60.8807119,21 62,22.1176026 62,23.5034561 L62,35 Z" id="plug" sketch:type="MSShapeGroup"></path>
        </g>
    </g>
</svg>