<?xml version="1.0" encoding="UTF-8" standalone="no"?>
<svg width="100px" height="100px" viewBox="0 0 100 100" version="1.1" xmlns="http://www.w3.org/2000/svg" xmlns:xlink="http://www.w3.org/1999/xlink" xmlns:sketch="http://www.bohemiancoding.com/sketch/ns">
    <!-- Generator: Sketch 3.4.2 (15857) - http://www.bohemiancoding.com/sketch -->
    <title>09-11-2015 - serial port</title>
    <desc>Created with Sketch.</desc>
    <defs></defs>
    <g id="January" stroke="none" stroke-width="1" fill="none" fill-rule="evenodd" sketch:type="MSPage">
        <g id="09-11-2015---serial-port" sketch:type="MSArtboardGroup" fill="#000000">
            <path d="M24.213059,43.773597 C23.4836239,41.6894969 24.6889766,40 26.8849786,40 L72.8996207,40 C75.1047162,40 76.3015163,41.687952 75.5715409,43.773597 L71.2130603,56.226403 C70.4836255,58.3105031 68.095877,60 65.8922761,60 L33.8923257,60 C31.6831725,60 29.3015168,58.312048 28.571541,56.226403 L24.213059,43.773597 Z M31.8923,48 C32.9968695,48 33.8923,47.1045695 33.8923,46 C33.8923,44.8954305 32.9968695,44 31.8923,44 C30.7877305,44 29.8923,44.8954305 29.8923,46 C29.8923,47.1045695 30.7877305,48 31.8923,48 Z M40.8923,48 C41.9968695,48 42.8923,47.1045695 42.8923,46 C42.8923,44.8954305 41.9968695,44 40.8923,44 C39.7877305,44 38.8923,44.8954305 38.8923,46 C38.8923,47.1045695 39.7877305,48 40.8923,48 Z M49.8923,48 C50.9968695,48 51.8923,47.1045695 51.8923,46 C51.8923,44.8954305 50.9968695,44 49.8923,44 C48.7877305,44 47.8923,44.8954305 47.8923,46 C47.8923,47.1045695 48.7877305,48 49.8923,48 Z M58.8923,48 C59.9968695,48 60.8923,47.1045695 60.8923,46 C60.8923,44.8954305 59.9968695,44 58.8923,44 C57.7877305,44 56.8923,44.8954305 56.8923,46 C56.8923,47.1045695 57.7877305,48 58.8923,48 Z M67.8923,48 C68.9968695,48 69.8923,47.1045695 69.8923,46 C69.8923,44.8954305 68.9968695,44 67.8923,44 C66.7877305,44 65.8923,44.8954305 65.8923,46 C65.8923,47.1045695 66.7877305,48 67.8923,48 Z M36.8923,56 C37.9968695,56 38.8923,55.1045695 38.8923,54 C38.8923,52.8954305 37.9968695,52 36.8923,52 C35.7877305,52 34.8923,52.8954305 34.8923,54 C34.8923,55.1045695 35.7877305,56 36.8923,56 Z M45.8923,56 C46.9968695,56 47.8923,55.1045695 47.8923,54 C47.8923,52.8954305 46.9968695,52 45.8923,52 C44.7877305,52 43.8923,52.8954305 43.8923,54 C43.8923,55.1045695 44.7877305,56 45.8923,56 Z M54.8923,56 C55.9968695,56 56.8923,55.1045695 56.8923,54 C56.8923,52.8954305 55.9968695,52 54.8923,52 C53.7877305,52 52.8923,52.8954305 52.8923,54 C52.8923,55.1045695 53.7877305,56 54.8923,56 Z M63.8923,56 C64.9968695,56 65.8923,55.1045695 65.8923,54 C65.8923,52.8954305 64.9968695,52 63.8923,52 C62.7877305,52 61.8923,52.8954305 61.8923,54 C61.8923,55.1045695 62.7877305,56 63.8923,56 Z" id="Rectangle-19" sketch:type="MSShapeGroup"></path>
            <path d="M11,39.0050741 L11,39.0050741 L11,61.9949259 C11,63.6505157 12.3441989,65 13.9945832,65 L86.0054168,65 C87.6619896,65 89,63.657232 89,61.9949259 L89,39.0050741 C89,37.3494843 87.6558011,36 86.0054168,36 L13.9945832,36 C12.3380104,36 11,37.342768 11,39.0050741 L11,39.0050741 Z M10,39.0050741 C10,36.7931328 11.7830797,35 13.9945832,35 L86.0054168,35 C88.2115642,35 90,36.8006843 90,39.0050741 L90,61.9949259 C90,64.2068672 88.2169203,66 86.0054168,66 L13.9945832,66 C11.7884358,66 10,64.1993157 10,61.9949259 L10,39.0050741 L10,39.0050741 Z M19,54 C20.6568542,54 22,52.6568542 22,51 C22,49.3431458 20.6568542,48 19,48 C17.3431458,48 16,49.3431458 16,51 C16,52.6568542 17.3431458,54 19,54 Z M81,54 C82.6568542,54 84,52.6568542 84,51 C84,49.3431458 82.6568542,48 81,48 C79.3431458,48 78,49.3431458 78,51 C78,52.6568542 79.3431458,54 81,54 Z" id="Shape" sketch:type="MSShapeGroup"></path>
        </g>
    </g>
</svg>