<?xml version="1.0" encoding="UTF-8" standalone="no"?>
<svg width="100px" height="100px" viewBox="0 0 100 100" version="1.1" xmlns="http://www.w3.org/2000/svg" xmlns:xlink="http://www.w3.org/1999/xlink" xmlns:sketch="http://www.bohemiancoding.com/sketch/ns">
    <!-- Generator: Sketch 3.4.2 (15857) - http://www.bohemiancoding.com/sketch -->
    <title>10-11-2015 - CPU</title>
    <desc>Created with Sketch.</desc>
    <defs></defs>
    <g id="January" stroke="none" stroke-width="1" fill="none" fill-rule="evenodd" sketch:type="MSPage">
        <g id="10-11-2015---CPU" sketch:type="MSArtboardGroup" fill="#000000">
            <path d="M29,33.0081112 C29,30.7944925 30.7912518,29 33.0081112,29 L66.9918888,29 C69.2055075,29 71,30.7912518 71,33.0081112 L71,66.9918888 C71,69.2055075 69.2087482,71 66.9918888,71 L33.0081112,71 C30.7944925,71 29,69.2087482 29,66.9918888 L29,33.0081112 Z M41,41 L59,41 L59,59 L41,59 L41,41 Z M65.5,73.5 L65.5,79.5 L63.5,79.5 L63.5,73.5 L65.5,73.5 Z M55.5,73.5 L55.5,79.5 L53.5,79.5 L53.5,73.5 L55.5,73.5 Z M45.5,73.5 L45.5,79.5 L43.5,79.5 L43.5,73.5 L45.5,73.5 Z M35.5,73.5 L35.5,79.5 L33.5,79.5 L33.5,73.5 L35.5,73.5 Z M40.5,73.5 L40.5,79.5 L38.5,79.5 L38.5,73.5 L40.5,73.5 Z M50.5,73.5 L50.5,79.5 L48.5,79.5 L48.5,73.5 L50.5,73.5 Z M60.5,73.5 L60.5,79.5 L58.5,79.5 L58.5,73.5 L60.5,73.5 Z M65.5,20.5 L65.5,26.5 L63.5,26.5 L63.5,20.5 L65.5,20.5 Z M55.5,20.5 L55.5,26.5 L53.5,26.5 L53.5,20.5 L55.5,20.5 Z M45.5,20.5 L45.5,26.5 L43.5,26.5 L43.5,20.5 L45.5,20.5 Z M35.5,20.5 L35.5,26.5 L33.5,26.5 L33.5,20.5 L35.5,20.5 Z M40.5,20.5 L40.5,26.5 L38.5,26.5 L38.5,20.5 L40.5,20.5 Z M50.5,20.5 L50.5,26.5 L48.5,26.5 L48.5,20.5 L50.5,20.5 Z M60.5,20.5 L60.5,26.5 L58.5,26.5 L58.5,20.5 L60.5,20.5 Z M73,34 L79,34 L79,36 L73,36 L73,34 Z M73,44 L79,44 L79,46 L73,46 L73,44 Z M73,54 L79,54 L79,56 L73,56 L73,54 Z M73,64 L79,64 L79,66 L73,66 L73,64 Z M73,59 L79,59 L79,61 L73,61 L73,59 Z M73,49 L79,49 L79,51 L73,51 L73,49 Z M73,39 L79,39 L79,41 L73,41 L73,39 Z M20,34 L26,34 L26,36 L20,36 L20,34 Z M20,44 L26,44 L26,46 L20,46 L20,44 Z M20,54 L26,54 L26,56 L20,56 L20,54 Z M20,64 L26,64 L26,66 L20,66 L20,64 Z M20,59 L26,59 L26,61 L20,61 L20,59 Z M20,49 L26,49 L26,51 L20,51 L20,49 Z M20,39 L26,39 L26,41 L20,41 L20,39 Z" id="CPU" sketch:type="MSShapeGroup"></path>
        </g>
    </g>
</svg>