<?xml version="1.0" encoding="UTF-8" standalone="no"?>
<svg width="100px" height="100px" viewBox="0 0 100 100" version="1.1" xmlns="http://www.w3.org/2000/svg" xmlns:xlink="http://www.w3.org/1999/xlink" xmlns:sketch="http://www.bohemiancoding.com/sketch/ns">
    <!-- Generator: Sketch 3.4.2 (15857) - http://www.bohemiancoding.com/sketch -->
    <title>11-11-2015 - news</title>
    <desc>Created with Sketch.</desc>
    <defs></defs>
    <g id="January" stroke="none" stroke-width="1" fill="none" fill-rule="evenodd" sketch:type="MSPage">
        <g id="11-11-2015---news" sketch:type="MSArtboardGroup" fill="#000000">
            <path d="M21,31.0017284 L21,31.0017284 L21,68.9982716 C21,70.1058313 21.8933695,71 22.9964277,71 L77.0035723,71 C78.1059134,71 79,70.1046367 79,68.9982716 L79,31.0017284 C79,29.8941687 78.1066305,29 77.0035723,29 L22.9964277,29 C21.8940866,29 21,29.8953633 21,31.0017284 L21,31.0017284 Z M19,31.0017284 C19,28.7916349 20.7886753,27 22.9964277,27 L77.0035723,27 C79.2107384,27 81,28.7891365 81,31.0017284 L81,68.9982716 C81,71.2083651 79.2113247,73 77.0035723,73 L22.9964277,73 C20.7892616,73 19,71.2108635 19,68.9982716 L19,31.0017284 L19,31.0017284 Z M26,34.990778 C26,34.4435864 26.4445307,34 27.0025482,34 L72.9974518,34 C73.5511439,34 74,34.4509752 74,34.990778 L74,39.009222 C74,39.5564136 73.5554693,40 72.9974518,40 L27.0025482,40 C26.4488561,40 26,39.5490248 26,39.009222 L26,34.990778 Z M27,44 L42,44 L42,58 L27,58 L27,44 Z M46,44 L73,44 L73,46 L46,46 L46,44 Z M46,48 L73,48 L73,50 L46,50 L46,48 Z M46,52 L73,52 L73,54 L46,54 L46,52 Z M46,56 L73,56 L73,58 L46,58 L46,56 Z M27,60 L73,60 L73,62 L27,62 L27,60 Z M27,64 L73,64 L73,66 L27,66 L27,64 Z" id="news" sketch:type="MSShapeGroup"></path>
        </g>
    </g>
</svg>