<?xml version="1.0" encoding="UTF-8" standalone="no"?>
<svg width="100px" height="100px" viewBox="0 0 100 100" version="1.1" xmlns="http://www.w3.org/2000/svg" xmlns:xlink="http://www.w3.org/1999/xlink" xmlns:sketch="http://www.bohemiancoding.com/sketch/ns">
    <!-- Generator: Sketch 3.4.2 (15857) - http://www.bohemiancoding.com/sketch -->
    <title>14-11-2015 - dashboard</title>
    <desc>Created with Sketch.</desc>
    <defs></defs>
    <g id="January" stroke="none" stroke-width="1" fill="none" fill-rule="evenodd" sketch:type="MSPage">
        <g id="14-11-2015---dashboard" sketch:type="MSArtboardGroup" fill="#000000">
            <path d="M50,23 C59.35,23 67.85,26.9789474 74.0318182,33.475188 C80.2136364,39.9714286 84,48.9037594 84,58.7293233 C84,65.3879699 82.2227273,71.6406015 79.2090909,77 L77.0454545,77 C76.0409091,77 75.1136364,76.4315789 74.5727273,75.5383459 C74.0318182,74.5639098 74.0318182,73.5082707 74.4954545,72.5338346 C76.2727273,69.0421053 77.4318182,65.1443609 77.7409091,61.0030075 L74.7272727,61.0030075 C73.9545455,61.0030075 73.2590909,60.3533835 73.2590909,59.4601504 L73.2590909,57.9172932 C73.2590909,57.1052632 73.8772727,56.3744361 74.7272727,56.3744361 L77.7409091,56.3744361 C77.4318182,52.7203008 76.5818182,49.2285714 75.1136364,46.0616541 L72.4863636,47.6045113 C71.7909091,48.0105263 70.8636364,47.7669173 70.4772727,47.0360902 L69.7818182,45.7368421 C69.3954545,45.006015 69.6272727,44.0315789 70.3227273,43.6255639 L72.95,42.0827068 C72.0227273,40.6210526 70.8636364,39.2406015 69.7045455,37.9413534 C68.4681818,36.6421053 67.2318182,35.5052632 65.7636364,34.5308271 L64.2954545,37.2917293 C63.9090909,38.0225564 62.9818182,38.2661654 62.2863636,37.8601504 L61.05,37.1293233 C60.3545455,36.7233083 60.1227273,35.7488722 60.5090909,35.0180451 L61.9772727,32.2571429 C58.9636364,30.7142857 55.6409091,29.8210526 52.1636364,29.4962406 L52.1636364,32.6631579 C52.1636364,33.475188 51.5454545,34.206015 50.6954545,34.206015 L49.2272727,34.206015 C48.4545455,34.206015 47.7590909,33.556391 47.7590909,32.6631579 L47.7590909,29.4962406 C44.2818182,29.7398496 40.9590909,30.7142857 37.9454545,32.2571429 L39.4136364,35.0180451 C39.8,35.7488722 39.5681818,36.7233083 38.8727273,37.1293233 L37.6363636,37.8601504 C36.9409091,38.2661654 36.0136364,38.0225564 35.6272727,37.2917293 L34.1590909,34.5308271 C32.7681818,35.5864662 31.4545455,36.7233083 30.2181818,37.9413534 C28.9818182,39.2406015 27.9,40.5398496 26.9727273,42.0827068 L29.6,43.6255639 C30.2954545,44.0315789 30.5272727,45.006015 30.1409091,45.7368421 L29.4454545,47.0360902 C29.0590909,47.7669173 28.1318182,48.0105263 27.4363636,47.6045113 L24.8090909,46.0616541 C23.3409091,49.2285714 22.4909091,52.7203008 22.1818182,56.3744361 L25.2727273,56.3744361 C26.0454545,56.3744361 26.7409091,57.0240602 26.7409091,57.9172932 L26.7409091,59.4601504 C26.7409091,60.2721805 26.1227273,61.0030075 25.2727273,61.0030075 L22.2590909,61.0030075 C22.5681818,65.1443609 23.7272727,69.0421053 25.5045455,72.5338346 C25.9681818,73.5082707 25.9681818,74.5639098 25.4272727,75.5383459 C24.8863636,76.512782 24.0363636,77 22.9545455,77 L20.7909091,77 C17.7772727,71.6406015 16,65.3879699 16,58.6481203 C16,48.8225564 19.7863636,39.8090226 25.9681818,33.393985 C32.0727273,26.9789474 40.65,23 50,23 Z M53.6197244,73.2813912 C50.8838921,74.0890702 47.6159303,71.7844772 47.0018184,69.9847425 C46.9616582,69.8179086 46.5148099,58.4938026 46.252069,53.6452566 C46.2303145,53.4046013 46.3625034,53.2023283 46.63023,53.1122592 C46.8979567,53.02219 47.1104661,53.153585 47.2275981,53.3396102 C50.0538221,57.4159163 56.7939207,66.7806356 56.8340809,66.9474695 C57.5251645,68.7663954 56.3555567,72.4737123 53.6197244,73.2813912 Z" id="dashboard" sketch:type="MSShapeGroup"></path>
        </g>
    </g>
</svg>