<?xml version="1.0" encoding="UTF-8" standalone="no"?>
<svg width="100px" height="100px" viewBox="0 0 100 100" version="1.1" xmlns="http://www.w3.org/2000/svg" xmlns:xlink="http://www.w3.org/1999/xlink" xmlns:sketch="http://www.bohemiancoding.com/sketch/ns">
    <!-- Generator: Sketch 3.4.2 (15857) - http://www.bohemiancoding.com/sketch -->
    <title>15-11-2015 - team</title>
    <desc>Created with Sketch.</desc>
    <defs></defs>
    <g id="January" stroke="none" stroke-width="1" fill="none" fill-rule="evenodd" sketch:type="MSPage">
        <g id="15-11-2015---team" sketch:type="MSArtboardGroup" fill="#000000">
            <path d="M50.1111111,50.368421 C57.0149935,50.368421 62.6116959,44.4656489 62.6116959,37.1842105 C62.6116959,29.9027721 57.0149935,24 50.1111111,24 C43.2072288,24 37.6105263,29.9027721 37.6105263,37.1842105 C37.6105263,44.4656489 43.2072288,50.368421 50.1111111,50.368421 Z M50.1111111,76.7368421 C62.6243979,76.7368421 73.5497076,67.4303406 73.5497076,62.7770898 C73.5497076,55.4956514 62.6243979,50.368421 50.1111111,50.368421 C37.5978244,50.368421 26.6725146,55.251462 26.6725146,62.7770898 C26.6725146,70.3027176 37.5978244,76.7368421 50.1111111,76.7368421 Z M63.7836257,41.5789474 C65.3744346,42.8742235 67.4676526,43.5321637 69.6432749,43.5321637 C74.8211866,43.5321637 79.0187135,39.15974 79.0187135,33.7660819 C79.0187135,28.3724238 74.8211866,24 69.6432749,24 C66.5421161,24 62.8070175,24.9766082 60.8538012,27.9064327 C63.8743042,31.8128655 64.7602339,36.6959064 63.7836257,41.5789474 Z M57.9239766,49.3918129 C79.4093567,55.251462 73.6737623,62.7228052 75.3656755,62.2388425 C82.1246022,60.3054877 87.2222222,55.4424553 87.2222222,52.7237702 C87.2222222,47.3301121 79.0282399,43.5321637 69.6432749,43.5321637 C66.2663836,43.5321637 61.903593,45.4548662 61.8304094,45.4853801 L57.9239766,49.3918129 Z M36.4385965,41.5789474 C34.8477876,42.8742235 32.7545697,43.5321637 30.5789474,43.5321637 C25.4010356,43.5321637 21.2035088,39.15974 21.2035088,33.7660819 C21.2035088,28.3724238 25.4010356,24 30.5789474,24 C33.6801062,24 37.4152047,24.9766082 39.368421,27.9064327 C36.347918,31.8128655 35.4619883,36.6959064 36.4385965,41.5789474 Z M42.2982456,49.3918129 C20.8128655,55.251462 26.5484599,62.7228052 24.8565468,62.2388425 C18.09762,60.3054877 13,55.4424553 13,52.7237702 C13,47.3301121 21.1939823,43.5321637 30.5789474,43.5321637 C33.9558386,43.5321637 38.3186293,45.4548662 38.3918129,45.4853801 L42.2982456,49.3918129 Z" id="team" sketch:type="MSShapeGroup"></path>
        </g>
    </g>
</svg>