<?xml version="1.0" encoding="UTF-8" standalone="no"?>
<svg width="100px" height="100px" viewBox="0 0 100 100" version="1.1" xmlns="http://www.w3.org/2000/svg" xmlns:xlink="http://www.w3.org/1999/xlink" xmlns:sketch="http://www.bohemiancoding.com/sketch/ns">
    <!-- Generator: Sketch 3.4.2 (15857) - http://www.bohemiancoding.com/sketch -->
    <title>16-11-2015 - help</title>
    <desc>Created with Sketch.</desc>
    <defs></defs>
    <g id="January" stroke="none" stroke-width="1" fill="none" fill-rule="evenodd" sketch:type="MSPage">
        <g id="16-11-2015---help" sketch:type="MSArtboardGroup" fill="#000000">
            <path d="M50,82 C67.673112,82 82,67.673112 82,50 C82,32.326888 67.673112,18 50,18 C32.326888,18 18,32.326888 18,50 C18,67.673112 32.326888,82 50,82 Z M45,47.0044356 C45,44.2405621 47.2441952,42 50,42 C52.7614237,42 55,44.2303666 55,47.0044356 L55,66.9955644 C55,69.7594379 52.7558048,72 50,72 C47.2385763,72 45,69.7696334 45,66.9955644 L45,47.0044356 Z M45,33 C45,30.2385763 47.2441952,28 50,28 C52.7614237,28 55,30.2441952 55,33 C55,35.7614237 52.7558048,38 50,38 C47.2385763,38 45,35.7558048 45,33 Z" id="help" sketch:type="MSShapeGroup"></path>
        </g>
    </g>
</svg>