<?xml version="1.0" encoding="UTF-8" standalone="no"?>
<svg width="100px" height="100px" viewBox="0 0 100 100" version="1.1" xmlns="http://www.w3.org/2000/svg" xmlns:xlink="http://www.w3.org/1999/xlink" xmlns:sketch="http://www.bohemiancoding.com/sketch/ns">
    <!-- Generator: Sketch 3.4.2 (15857) - http://www.bohemiancoding.com/sketch -->
    <title>19-11-2015 - machete</title>
    <desc>Created with Sketch.</desc>
    <defs></defs>
    <g id="January" stroke="none" stroke-width="1" fill="none" fill-rule="evenodd" sketch:type="MSPage">
        <g id="19-11-2015---machete" sketch:type="MSArtboardGroup" fill="#000000">
            <path d="M47.4157909,71 L57.4157909,71 L57.4157909,87.4949731 C57.4157909,89.9830308 55.3921417,92 52.9131057,92 L51.9184761,92 C49.4317118,92 47.4157909,89.9864317 47.4157909,87.4949731 L47.4157909,71 Z M52.4157909,77 C52.9680757,77 53.4157909,76.5522847 53.4157909,76 C53.4157909,75.4477153 52.9680757,75 52.4157909,75 C51.8635062,75 51.4157909,75.4477153 51.4157909,76 C51.4157909,76.5522847 51.8635062,77 52.4157909,77 Z M52.4157909,85 C52.9680757,85 53.4157909,84.5522847 53.4157909,84 C53.4157909,83.4477153 52.9680757,83 52.4157909,83 C51.8635062,83 51.4157909,83.4477153 51.4157909,84 C51.4157909,84.5522847 51.8635062,85 52.4157909,85 Z M55.5086718,11.2123659 C53.9813058,11.4420152 52.4573028,11.8050844 51.0555249,12.3238124 C47.788286,13.5328544 45.7971495,15.33656 45.3894463,17.8235501 C44.6833968,22.1304515 44.9581259,30.567695 46.0007507,41.7803401 C46.333479,45.3585834 46.7363547,49.1308683 47.1942011,53.0231942 C47.6755561,57.1153761 48.1914007,61.1219029 48.7072043,64.8755551 C48.8876862,66.1889744 49.4157911,68 49.4157911,68 L55.4157911,67.9999991 C55.4157911,67.9999991 56.0449582,11.1317318 55.5086718,11.2123659 Z M57.4157909,9 L57.4157909,70 L47.4157909,70 C47.4157909,70 41.3916214,29.8474344 43.4157909,17.5 C44.7249547,9.51410104 57.4157909,9 57.4157909,9 Z" id="machete" sketch:type="MSShapeGroup" transform="translate(50.207895, 50.500000) rotate(-40.000000) translate(-50.207895, -50.500000) "></path>
        </g>
    </g>
</svg>