<?xml version="1.0" encoding="UTF-8" standalone="no"?>
<svg width="100px" height="100px" viewBox="0 0 100 100" version="1.1" xmlns="http://www.w3.org/2000/svg" xmlns:xlink="http://www.w3.org/1999/xlink" xmlns:sketch="http://www.bohemiancoding.com/sketch/ns">
    <!-- Generator: Sketch 3.4.3 (16044) - http://www.bohemiancoding.com/sketch -->
    <title>20-11-2015 - volume down</title>
    <desc>Created with Sketch.</desc>
    <defs></defs>
    <g id="January" stroke="none" stroke-width="1" fill="none" fill-rule="evenodd" sketch:type="MSPage">
        <g id="20-11-2015---volume-down" sketch:type="MSArtboardGroup" fill="#000000">
            <path d="M27.5,42.1646734 C27.5,41.0651875 28.2439717,39.6694906 29.1492597,39.055736 L55.3507403,21.2920207 C56.2616013,20.6744878 57,21.0686088 57,22.1701858 L57,78.1775695 C57,79.2800996 56.2560283,79.6694893 55.3507403,79.0557347 L29.1492597,61.2920206 C28.2383987,60.6744878 27.5,59.2756661 27.5,58.1830833 L27.5,42.1646734 Z M16,42.1646733 C16,41.0651875 16.8874333,40.1738782 17.999615,40.1738782 L24.000385,40.1738782 C25.1047419,40.1738782 26,41.0720906 26,42.1646733 L26,58.1830831 C26,59.2825688 25.1125667,60.1738782 24.000385,60.1738782 L17.999615,60.1738782 C16.8952581,60.1738782 16,59.2756658 16,58.1830831 L16,42.1646733 Z M63,50.1738782 C63,49.0693087 63.8896739,48.1738782 64.991155,48.1738782 L83.008845,48.1738782 C84.1085295,48.1738782 85,49.0616078 85,50.1738782 C85,51.2784477 84.1103261,52.1738782 83.008845,52.1738782 L64.991155,52.1738782 C63.8914705,52.1738782 63,51.2861485 63,50.1738782 Z" id="volume-down" sketch:type="MSShapeGroup"></path>
        </g>
    </g>
</svg>