<?xml version="1.0" encoding="UTF-8" standalone="no"?>
<svg width="100px" height="100px" viewBox="0 0 100 100" version="1.1" xmlns="http://www.w3.org/2000/svg" xmlns:xlink="http://www.w3.org/1999/xlink" xmlns:sketch="http://www.bohemiancoding.com/sketch/ns">
    <!-- Generator: Sketch 3.4.3 (16044) - http://www.bohemiancoding.com/sketch -->
    <title>22-11-2015 - peeler</title>
    <desc>Created with Sketch.</desc>
    <defs></defs>
    <g id="January" stroke="none" stroke-width="1" fill="none" fill-rule="evenodd" sketch:type="MSPage">
        <g id="22-11-2015---peeler" sketch:type="MSArtboardGroup" fill="#000000">
            <path d="M37.0378896,21 C37.0127829,20.6699584 37,20.336472 37,20 L63,20 C63,20.336472 62.9872171,20.6699584 62.9621104,21 L37.0378896,21 Z M37.3478637,23 C38.7021913,28.7334 43.8528367,33 50,33 C56.1471633,33 61.2978087,28.7334 62.6521363,23 L37.3478637,23 Z M53.4281276,39.7073333 L55.6411097,74.3773858 C55.8393194,77.4826699 53.4697717,80 50.3513837,80 L49.6486163,80 C46.5289717,80 44.161293,77.4730759 44.3588903,74.3773858 L46.5718723,39.7073333 C37.1595099,38.0815203 30,29.8768567 30,20 L70,20 C70,29.8768567 62.8404901,38.0815203 53.4281276,39.7073333 Z M50,76 C51.1045695,76 52,75.1045695 52,74 C52,72.8954305 51.1045695,72 50,72 C48.8954305,72 48,72.8954305 48,74 C48,75.1045695 48.8954305,76 50,76 Z" id="peeler" sketch:type="MSShapeGroup"></path>
        </g>
    </g>
</svg>