<?xml version="1.0" encoding="UTF-8" standalone="no"?>
<svg width="100px" height="100px" viewBox="0 0 100 100" version="1.1" xmlns="http://www.w3.org/2000/svg" xmlns:xlink="http://www.w3.org/1999/xlink" xmlns:sketch="http://www.bohemiancoding.com/sketch/ns">
    <!-- Generator: Sketch 3.4.3 (16044) - http://www.bohemiancoding.com/sketch -->
    <title>23-11-2015 - turnip</title>
    <desc>Created with Sketch.</desc>
    <defs></defs>
    <g id="January" stroke="none" stroke-width="1" fill="none" fill-rule="evenodd" sketch:type="MSPage">
        <g id="23-11-2015---turnip" sketch:type="MSArtboardGroup" fill="#000000">
            <path d="M54.1118778,29.7804426 C65.9626289,31.4146407 75,39.9944907 75,50.3333333 C75,61.8392656 57,66 50,80 C47.9010477,77.271362 48.8545694,74.0994526 46.5,72 C37.6367373,64.0970691 25,59.4242254 25,50.3333333 C25,40.3264073 33.4664169,31.9673459 44.7556632,29.9591388 C44.6719058,27.0905124 43.3623134,22.4409914 36.5,19.5 C26,15 48,18.5 49,26 C50,33.5 46.9999992,13.0000001 53.5,13 C60.0000008,12.9999999 52.0000008,23.5 52,25.5 C53.5000008,22.75 57.0000019,19 64.0000008,19 C58.4152338,22.723178 55.3256361,27.5553204 54.1118778,29.7804426 Z" id="turnip" sketch:type="MSShapeGroup"></path>
        </g>
    </g>
</svg>