<?xml version="1.0" encoding="UTF-8" standalone="no"?>
<svg width="100px" height="100px" viewBox="0 0 100 100" version="1.1" xmlns="http://www.w3.org/2000/svg" xmlns:xlink="http://www.w3.org/1999/xlink" xmlns:sketch="http://www.bohemiancoding.com/sketch/ns">
    <!-- Generator: Sketch 3.4.3 (16044) - http://www.bohemiancoding.com/sketch -->
    <title>26-11-2015 - theta</title>
    <desc>Created with Sketch.</desc>
    <defs></defs>
    <g id="January" stroke="none" stroke-width="1" fill="none" fill-rule="evenodd" sketch:type="MSPage">
        <g id="26-11-2015---theta" sketch:type="MSArtboardGroup" fill="#000000">
            <path d="M24,50.5 C24,72.3152476 35.8644541,90 50.5,90 C65.1355459,90 77,72.3152476 77,50.5 C77,28.6847524 65.1355459,11 50.5,11 C35.8644541,11 24,28.6847524 24,50.5 Z M27.6136364,50.5 C27.6136364,65.7045665 37.8602104,78.030303 50.5,78.030303 C63.1397896,78.030303 73.3863636,65.7045665 73.3863636,50.5 C73.3863636,35.2954335 63.1397896,22.969697 50.5,22.969697 C37.8602104,22.969697 27.6136364,35.2954335 27.6136364,50.5 Z M33,42.5 C33,42.5 33,48.1 34,48.1 C35,48.1 55.3338457,48.1 66,48.1 C67,48.1 67,42.5 67,42.5 L68.5,42.5 L68.5,58.5 L67,58.5 C67,58.5 67,52.9 66,52.9 C65.2192896,52.9 34.9757968,52.9 33.9878984,52.9 C33,52.9 33,58.5 33,58.5 L31.5,58.5 L31.5,42.5 L33,42.5 Z" id="theta" sketch:type="MSShapeGroup"></path>
        </g>
    </g>
</svg>