<?xml version="1.0" encoding="UTF-8" standalone="no"?>
<svg width="100px" height="100px" viewBox="0 0 100 100" version="1.1" xmlns="http://www.w3.org/2000/svg" xmlns:xlink="http://www.w3.org/1999/xlink" xmlns:sketch="http://www.bohemiancoding.com/sketch/ns">
    <!-- Generator: Sketch 3.4.3 (16044) - http://www.bohemiancoding.com/sketch -->
    <title>27-11-2015 - metronome</title>
    <desc>Created with Sketch.</desc>
    <defs></defs>
    <g id="January" stroke="none" stroke-width="1" fill="none" fill-rule="evenodd" sketch:type="MSPage">
        <g id="27-11-2015---metronome" sketch:type="MSArtboardGroup" fill="#000000">
            <path d="M68.64225,30.3613585 L67.0164458,34.191513 L76.5996345,81.0426574 C76.8207502,82.1236679 76.1077828,83 74.9979097,83 L25.0020903,83 C23.8963663,83 23.1806317,82.1169117 23.4003655,81.0426574 L35.6984404,20.9187359 C36.1411295,18.7544778 38.2924553,17 40.4984707,17 L59.5015293,17 C61.7098237,17 63.857615,18.7483398 64.3015596,20.9187359 L66.6631821,32.4644457 L67.7219292,29.9701938 C66.7619883,29.3111986 66.3654952,28.0471427 66.8393154,26.9308921 L68.7588579,22.4087334 C69.2323482,21.2932603 70.4123007,20.6961826 71.5584476,20.9319227 L72.0622171,19.7451161 L72.982722,20.1358472 L72.4787685,21.3230873 C73.4387093,21.9820825 73.8352025,23.2461384 73.3613822,24.362389 L71.4418397,28.8845478 C70.9683495,30.0000209 69.788397,30.5970985 68.64225,30.3613585 Z M64.9616384,36.4730314 L61.8892953,20.9650145 C61.6734867,19.8756947 60.6041826,19 59.4991358,19 L40.5008642,19 C39.4016273,19 38.3257065,19.879767 38.1107047,20.9650145 L28.1957678,71.0118388 C28.0876193,71.5577311 28.448464,72 29.0016723,72 L49.8813349,72 L64.9616384,36.4730314 Z M65.3073282,38.2179419 L71.8042324,71.0118388 C71.912352,71.5575852 71.5501846,72 70.998328,72 L50.9676953,72 L65.3073282,38.2179419 Z" id="metronome" sketch:type="MSShapeGroup"></path>
        </g>
    </g>
</svg>