<?xml version="1.0" encoding="UTF-8" standalone="no"?>
<svg width="100px" height="100px" viewBox="0 0 100 100" version="1.1" xmlns="http://www.w3.org/2000/svg" xmlns:xlink="http://www.w3.org/1999/xlink" xmlns:sketch="http://www.bohemiancoding.com/sketch/ns">
    <!-- Generator: Sketch 3.4.3 (16044) - http://www.bohemiancoding.com/sketch -->
    <title>28-11-2015 - palette</title>
    <desc>Created with Sketch.</desc>
    <defs></defs>
    <g id="January" stroke="none" stroke-width="1" fill="none" fill-rule="evenodd" sketch:type="MSPage">
        <g id="28-11-2015---palette" sketch:type="MSArtboardGroup" fill="#000000">
            <path d="M50,82 C69.882251,82 86,67.8969696 86,50.5 C86,33.1030304 69.882251,19 50,19 C40.810621,19 56.5,31 46,39 C35.5,47 14,41.143737 14,50.5 C14,67.8969696 30.117749,82 50,82 Z M41,73 C43.7614237,73 46,71.209139 46,69 C46,66.790861 43.7614237,65 41,65 C38.2385763,65 36,66.790861 36,69 C36,71.209139 38.2385763,73 41,73 Z M61,73 C63.7614237,73 66,71.209139 66,69 C66,66.790861 63.7614237,65 61,65 C58.2385763,65 56,66.790861 56,69 C56,71.209139 58.2385763,73 61,73 Z M73,61 C75.7614237,61 78,59.209139 78,57 C78,54.790861 75.7614237,53 73,53 C70.2385763,53 68,54.790861 68,57 C68,59.209139 70.2385763,61 73,61 Z M71,46 C73.7614237,46 76,44.209139 76,42 C76,39.790861 73.7614237,38 71,38 C68.2385763,38 66,39.790861 66,42 C66,44.209139 68.2385763,46 71,46 Z" id="palette" sketch:type="MSShapeGroup"></path>
        </g>
    </g>
</svg>