<?xml version="1.0" encoding="UTF-8" standalone="no"?>
<svg width="100px" height="100px" viewBox="0 0 100 100" version="1.1" xmlns="http://www.w3.org/2000/svg" xmlns:xlink="http://www.w3.org/1999/xlink" xmlns:sketch="http://www.bohemiancoding.com/sketch/ns">
    <!-- Generator: Sketch 3.4.4 (17249) - http://www.bohemiancoding.com/sketch -->
    <title>29-11-2015 - wallet</title>
    <desc>Created with Sketch.</desc>
    <defs></defs>
    <g id="January" stroke="none" stroke-width="1" fill="none" fill-rule="evenodd" sketch:type="MSPage">
        <g id="29-11-2015---wallet" sketch:type="MSArtboardGroup" fill="#000000">
            <path d="M77.6,43.5483871 L77.6,28.2037862 C77.6,26.4424801 76.1675209,25 74.4004684,25 L20,25 L20,75 L74.4004684,75 C76.1761719,75 77.6,73.5656161 77.6,71.7962138 L77.6,56.4516129 L68.7953617,56.4516129 C67.4724399,56.4516129 66.4,55.3736846 66.4,54.054855 L66.4,45.945145 C66.4,44.6214522 67.4746496,43.5483871 68.7953617,43.5483871 L77.6,43.5483871 Z M68,46.7593193 C68,45.8767523 68.7081449,45.1612903 69.5926361,45.1612903 L82.4073639,45.1612903 C83.2869525,45.1612903 84,45.8728941 84,46.7593193 L84,53.2406807 C84,54.1232477 83.2918551,54.8387097 82.4073639,54.8387097 L69.5926361,54.8387097 C68.7130475,54.8387097 68,54.1271059 68,53.2406807 L68,46.7593193 Z M80,51.6129032 C80.8836556,51.6129032 81.6,50.8907819 81.6,50 C81.6,49.1092181 80.8836556,48.3870968 80,48.3870968 C79.1163444,48.3870968 78.4,49.1092181 78.4,50 C78.4,50.8907819 79.1163444,51.6129032 80,51.6129032 Z" id="wallet" sketch:type="MSShapeGroup"></path>
        </g>
    </g>
</svg>