<?xml version="1.0" encoding="UTF-8" standalone="no"?>
<svg width="100px" height="100px" viewBox="0 0 100 100" version="1.1" xmlns="http://www.w3.org/2000/svg" xmlns:xlink="http://www.w3.org/1999/xlink" xmlns:sketch="http://www.bohemiancoding.com/sketch/ns">
    <!-- Generator: Sketch 3.4.4 (17249) - http://www.bohemiancoding.com/sketch -->
    <title>30-11-2015 - soap</title>
    <desc>Created with Sketch.</desc>
    <defs></defs>
    <g id="January" stroke="none" stroke-width="1" fill="none" fill-rule="evenodd" sketch:type="MSPage">
        <g id="30-11-2015---soap" sketch:type="MSArtboardGroup" fill="#000000">
            <path d="M30,45.9994481 L30,45.9994481 L30,76.0005519 C30,79.3087967 32.6871615,82 35.9935776,82 L64.0064224,82 C67.3142827,82 70,79.3130539 70,76.0005519 L70,45.9994481 C70,42.6912033 67.3128385,40 64.0064224,40 L35.9935776,40 C32.6857173,40 30,42.6869461 30,45.9994481 L30,45.9994481 Z M28,45.9994481 C28,41.5814749 31.5820489,38 35.9935776,38 L64.0064224,38 C68.4211534,38 72,41.5903827 72,45.9994481 L72,76.0005519 C72,80.4185251 68.4179511,84 64.0064224,84 L35.9935776,84 C31.5788466,84 28,80.4096173 28,76.0005519 L28,45.9994481 Z M59.5,38 C59,36 57.3180918,34 54.0083475,34 L45.9916525,34 C42.68431,34 41,36 40.5,38 L59.5,38 Z M38,40 C38,35.581722 41.5800761,32 45.9916525,32 L54.0083475,32 C58.4220153,32 62,35.5788202 62,40 L38,40 Z M49,24 L51,24 L51,32 L49,32 L49,24 Z M39,22 C39,22 42.5,20.5 48,20.5 C53.5,20.5 59.5,22 59.5,22 L63,22 C63,22 66,22 67,25 C67,25 66,26 65.5,26 C65,24 63,24 63,24 L39,24 L39,22 Z" id="soap" sketch:type="MSShapeGroup"></path>
        </g>
    </g>
</svg>