<?xml version="1.0" encoding="UTF-8" standalone="no"?>
<svg width="100px" height="100px" viewBox="0 0 100 100" version="1.1" xmlns="http://www.w3.org/2000/svg" xmlns:xlink="http://www.w3.org/1999/xlink" xmlns:sketch="http://www.bohemiancoding.com/sketch/ns">
    <!-- Generator: Sketch 3.2.2 (9983) - http://www.bohemiancoding.com/sketch -->
    <title>01-04-2015 - fish</title>
    <desc>Created with Sketch.</desc>
    <defs></defs>
    <g id="January" stroke="none" stroke-width="1" fill="none" fill-rule="evenodd" sketch:type="MSPage">
        <g id="01-04-2015---fish" sketch:type="MSArtboardGroup" fill="#000000">
            <path d="M33.7272727,39.0570729 C33.8170987,39.0192979 33.9080664,39 34,39 C35.6568542,39 37,45.2680135 37,53 C37,60.7319865 35.6568542,67 34,67 C33.9080664,67 33.8170987,66.9807021 33.7272727,66.9429271 C35.0014773,66.2999086 36,60.3029633 36,53 C36,45.6970367 35.0014773,39.7000914 33.7272727,39.0570729 Z M55.6890474,35.4302086 C66.1259139,38.5013191 74.0737509,45.4600016 76.3432343,50.6424981 L76.3432343,50.6424981 C78.1525291,43.3787452 86.5,37.8617933 86.5,37.8617933 C86.5,37.8617933 83,46.8617933 83,53.3617933 C83,59.8617933 86.5,68.8617933 86.5,68.8617933 C86.5,68.8617933 78.1525291,63.3448413 76.3432343,56.0810884 C73.3469,62.923391 60.4525315,72.8617933 45,72.8617933 C27.326888,72.8617933 13,64.1313459 13,53.3617933 C13,43.6585895 24.6301908,35.6106778 39.8593608,34.1120776 C39.8810358,34.0320471 39.9273074,33.9486653 40.0000002,33.8617933 C42,31.4716789 42.9999999,25.7235865 48.0000001,27.8617933 C52.0607625,29.5983431 54.8023409,33.8820996 55.6890474,35.4302086 L55.6890474,35.4302086 Z M52.0277574,50.4068927 C52.1837127,50.3982793 52.3411912,50.3938984 52.5,50.3938984 C56.0898509,50.3938984 59,52.6324746 59,55.3938984 C59,58.1553221 56.0898509,60.3938984 52.5,60.3938984 C49.5183922,60.3938984 47.0056697,58.8496395 46.2397838,56.7441612 C47.421406,57.743954 49.3373633,58.3938984 51.5,58.3938984 C55.0898509,58.3938984 58,56.6030374 58,54.3938984 C58,52.2940974 55.3707891,50.5721949 52.0277574,50.4068927 L52.0277574,50.4068927 Z M45,70.8617933 C28.4314575,70.8617933 15,63.0267764 15,53.3617933 C15,43.6968101 28.4314575,35.8617933 45,35.8617933 C61.5685425,35.8617933 75,47.5284599 75,53.3617933 C75,59.1951266 61.5685425,70.8617933 45,70.8617933 Z M26,49.8617933 C27.6568542,49.8617933 29,48.5186475 29,46.8617933 C29,45.204939 27.6568542,43.8617933 26,43.8617933 C24.3431458,43.8617933 23,45.204939 23,46.8617933 C23,48.5186475 24.3431458,49.8617933 26,49.8617933 Z M25,46.8617933 C25.5522847,46.8617933 26,46.414078 26,45.8617933 C26,45.3095085 25.5522847,44.8617933 25,44.8617933 C24.4477153,44.8617933 24,45.3095085 24,45.8617933 C24,46.414078 24.4477153,46.8617933 25,46.8617933 Z" id="fish" sketch:type="MSShapeGroup"></path>
        </g>
    </g>
</svg>