<?xml version="1.0" encoding="UTF-8" standalone="no"?>
<svg width="100px" height="100px" viewBox="0 0 100 100" version="1.1" xmlns="http://www.w3.org/2000/svg" xmlns:xlink="http://www.w3.org/1999/xlink" xmlns:sketch="http://www.bohemiancoding.com/sketch/ns">
    <!-- Generator: Sketch 3.2.2 (9983) - http://www.bohemiancoding.com/sketch -->
    <title>02-04-2015 martini</title>
    <desc>Created with Sketch.</desc>
    <defs></defs>
    <g id="January" stroke="none" stroke-width="1" fill="none" fill-rule="evenodd" sketch:type="MSPage">
        <g id="02-04-2015-martini" sketch:type="MSArtboardGroup" fill="#000000">
            <path d="M34.7272727,21 L28,21 C28,21 41.9655454,41.948318 48.0276791,46.9410892 L49,80 L51,80 L51.9723209,46.9410892 L51.9723209,46.9410892 C58.0344546,41.948318 72,21 72,21 L34.9090909,21 L47.2755294,38.003853 C47.5209184,37.8601849 47.7877506,37.739497 48.072949,37.6468305 C49.9113381,37.0495016 51.8167017,37.8426785 52.3286978,39.4184405 C52.8406939,40.9942026 51.76544,42.7558407 49.927051,43.3531695 C48.0886619,43.9504984 46.1832983,43.1573215 45.6713022,41.5815595 C45.3139816,40.4818397 45.7297475,39.2915871 46.6384686,38.4697539 L34.7272727,21 Z M34.0454545,20 L26,20 C26,20 39.8841011,41.1915228 47.0384021,47.3440752 L47.9442824,79.0498851 C37.3147608,79.5710327 32,84 32,84 L68,84 C68,84 62.6852392,79.5710327 52.0557176,79.0498851 L52.0557176,79.0498851 L52.9615979,47.3440752 L52.9615979,47.3440752 C60.1158989,41.1915228 74,20 74,20 L34.1818182,20 L32,17 L34.0454545,20 Z M50,80 C59,80 64,83 64,83 L36,83 C36,83 41,80 50,80 Z M50.1095659,40.1394802 C50.2802313,40.6647342 50.7497627,40.9829299 51.1582936,40.8501901 C51.5668245,40.7174504 51.7596526,40.1840411 51.5889872,39.6587871 C51.4183218,39.1335331 50.9487905,38.8153374 50.5402596,38.9480771 C50.1317287,39.0808168 49.9389006,39.6142262 50.1095659,40.1394802 Z" id="martini" sketch:type="MSShapeGroup"></path>
        </g>
    </g>
</svg>