<?xml version="1.0" encoding="UTF-8" standalone="no"?>
<svg width="100px" height="100px" viewBox="0 0 100 100" version="1.1" xmlns="http://www.w3.org/2000/svg" xmlns:xlink="http://www.w3.org/1999/xlink" xmlns:sketch="http://www.bohemiancoding.com/sketch/ns">
    <!-- Generator: Sketch 3.2.2 (9983) - http://www.bohemiancoding.com/sketch -->
    <title>03-04-2015 syringe</title>
    <desc>Created with Sketch.</desc>
    <defs></defs>
    <g id="January" stroke="none" stroke-width="1" fill="none" fill-rule="evenodd" sketch:type="MSPage">
        <g id="03-04-2015-syringe" sketch:type="MSArtboardGroup" fill="#000000">
            <path d="M51,70 L52.25,70 L52.25,69 L52.25,69 L55.2570819,69 C57.4594337,69 59.25,67.2047175 59.25,64.9901243 L59.25,22 L59.25,22 L60.0012539,22 C60.5613852,22 61,21.5522847 61,21 C61,20.4438648 60.5528461,20 60.0012539,20 L53,20 L53,20 L53,12 L48,12 L48,20 L40.9987461,20 C40.4386148,20 40,20.4477153 40,21 C40,21.5561352 40.4471539,22 40.9987461,22 L41.75,22 L41.75,64.9901243 C41.75,67.2125608 43.5376903,69 45.7429181,69 L48.75,69 L48.75,70 L50,70 L50,87 L51,89 L51,70 Z M42.625,22 L58.375,22 L58.375,64.9995558 C58.375,66.6566554 57.0321639,68 55.3754731,68 L45.6245269,68 C43.9679339,68 42.625,66.6482195 42.625,64.9995558 L42.625,22 Z M43,47.5 C43,47.5 45,45 48,45 C48.930645,45 50.8816102,46.4211447 53,47 C55.4341298,47.6651321 58,47.5 58,47.5 L58,64.5057979 C58,66.1594501 56.6556493,67.5 55.0005775,67.5 L45.9994225,67.5 C44.3428872,67.5 43,66.156688 43,64.5057979 L43,47.5 Z M49.5,53 L49,53 L49,54 L49.5,54 L57.5,54 L58,54 L58,53 L57.5,53 L49.5,53 Z M49.5,43 L49,43 L49,44 L49.5,44 L57.5,44 L58,44 L58,43 L57.5,43 L49.5,43 Z M49.5,33 L49,33 L49,34 L49.5,34 L57.5,34 L58,34 L58,33 L57.5,33 L49.5,33 Z M40,11 C40,10.4477153 40.4386148,10 40.9987461,10 L60.0012539,10 C60.5528461,10 61,10.4438648 61,11 C61,11.5522847 60.5613852,12 60.0012539,12 L40.9987461,12 C40.4471539,12 40,11.5561352 40,11 Z" id="Rectangle-7" sketch:type="MSShapeGroup" transform="translate(50.500000, 49.500000) rotate(-45.000000) translate(-50.500000, -49.500000) "></path>
        </g>
    </g>
</svg>