<?xml version="1.0" encoding="UTF-8" standalone="no"?>
<svg width="100px" height="100px" viewBox="0 0 100 100" version="1.1" xmlns="http://www.w3.org/2000/svg" xmlns:xlink="http://www.w3.org/1999/xlink" xmlns:sketch="http://www.bohemiancoding.com/sketch/ns">
    <!-- Generator: Sketch 3.2.2 (9983) - http://www.bohemiancoding.com/sketch -->
    <title>04-04-2015 mitten</title>
    <desc>Created with Sketch.</desc>
    <defs></defs>
    <g id="January" stroke="none" stroke-width="1" fill="none" fill-rule="evenodd" sketch:type="MSPage">
        <g id="04-04-2015-mitten" sketch:type="MSArtboardGroup" fill="#000000">
            <path d="M33.313118,38.2977423 C32.9502561,35.1058836 30.2415301,32.6299213 26.9538598,32.6299213 L25.4005706,32.6299213 C21.8703334,32.6299213 19,35.4950322 19,39.0293257 L19,69.6005955 C19,73.1375955 21.8656331,76 25.4005706,76 L26.9538598,76 C29.8801738,76 32.3530532,74.0313182 33.1134918,71.3447011 C38.550928,72.9005485 82,84.3553583 82,53.1102362 C82,19.7795276 49.3037975,35.8425197 49.3037975,35.8425197 C53.2911392,27.8110236 49.7025316,25 45.7151899,25 C42.4210679,25 35.5890974,34.8669149 33.313118,38.2977423 L33.313118,38.2977423 Z M20.5949367,39.0402634 C20.5949367,36.3870638 22.7475756,34.2362205 25.3945071,34.2362205 L26.9599233,34.2362205 C29.6106528,34.2362205 31.7594937,36.3810639 31.7594937,39.0402634 L31.7594937,69.5896578 C31.7594937,72.2428575 29.6068548,74.3937008 26.9599233,74.3937008 L25.3945071,74.3937008 C22.7437776,74.3937008 20.5949367,72.2488574 20.5949367,69.5896578 L20.5949367,39.0402634 Z M32.556962,41.8661417 C32.556962,41.8661417 42.1265823,26.6062992 45.7151899,26.6062992 C49.3037975,26.6062992 52.0949367,28.6141732 46.9113924,38.2519685 C46.9113924,38.2519685 80.8037975,20.984252 80.8037975,53.1102362 C81.2025316,84.4330709 32.556962,69.5748031 32.556962,69.5748031 L32.556962,41.8661417 Z" id="mitten" sketch:type="MSShapeGroup"></path>
        </g>
    </g>
</svg>