<?xml version="1.0" encoding="UTF-8" standalone="no"?>
<svg width="100px" height="100px" viewBox="0 0 100 100" version="1.1" xmlns="http://www.w3.org/2000/svg" xmlns:xlink="http://www.w3.org/1999/xlink" xmlns:sketch="http://www.bohemiancoding.com/sketch/ns">
    <!-- Generator: Sketch 3.2.2 (9983) - http://www.bohemiancoding.com/sketch -->
    <title>05-04-2015 easter</title>
    <desc>Created with Sketch.</desc>
    <defs></defs>
    <g id="January" stroke="none" stroke-width="1" fill="none" fill-rule="evenodd" sketch:type="MSPage">
        <g id="05-04-2015-easter" sketch:type="MSArtboardGroup" fill="#000000">
            <path d="M51.1542232,42.0924195 C50.1824197,44.7785245 48.9450575,55.7142525 48.5,61.5 C47,61 46.5,56.5 46.5,56.5 C46.5,56.5 43,64.5 44,59 C45,53.5 48.5,41 48.5,41 C48.5,41 49.6879724,41.7919816 51.0067009,41.6139174 C51.0044416,41.6090545 51.002208,41.6044144 51,41.5999985 C51.0358194,41.5999985 51.0722802,41.599357 51.1092907,41.5981199 C51.2388676,41.5756791 51.3694338,41.5435221 51.5,41.5 C51.4703438,41.5148281 51.4402478,41.5406498 51.4097513,41.5769696 C52.3636936,41.4787673 53.5,41.0999985 53.5,41.0999985 C53.5,41.0999985 57.3203125,53.5999985 58.3203125,59.0999985 C59.3203125,64.5999985 55.8203125,56.5999985 55.8203125,56.5999985 C55.8203125,56.5999985 55.3203125,61.0999985 53.8203125,61.5999985 C53.362748,55.6516599 51.7994731,44.6785547 51.1542232,42.0924195 Z M50.5,86 C63.4786916,86 74,76.7106781 74,56 C74,35.2893219 59,15 50.5,15 C42,15 27,35.2893219 27,56 C27,76.7106781 37.5213084,86 50.5,86 Z M50.5,85 C62,85 73,76.7106781 73,56 C73,35.2893219 58,16 50.5,16 C43,16 28,35.2893219 28,56 C28,76.7106781 39,85 50.5,85 Z M51,41 C53.209139,41 55,39.209139 55,37 C55,34.790861 53.209139,33 51,33 C48.790861,33 47,34.790861 47,37 C47,39.209139 48.790861,41 51,41 Z M47.5000002,34.1999739 C47.5000002,33.6817501 46,28.499512 42.5,29.0177358 C39,29.5359596 40,35.2364217 40,35.2364217 C40,35.2364217 36.5000002,41.4551072 40.5,42.4915552 C44.4999998,43.5280031 47.0000002,40.9368835 47.5000002,39.9004359 C47.0000002,38.8639883 45.4999998,36.791093 47.5000002,34.1999739 Z M54.5826447,34.1999739 C54.5826447,33.6817501 56.0826449,28.499512 59.5826449,29.0177358 C63.0826449,29.5359596 62.0826449,35.2364217 62.0826449,35.2364217 C62.0826449,35.2364217 65.5826448,41.4551072 61.5826449,42.4915552 C57.5826451,43.5280031 55.0826447,40.9368835 54.5826447,39.9004359 C55.0826447,38.8639883 56.5826452,36.791093 54.5826447,34.1999739 Z" id="easter" sketch:type="MSShapeGroup"></path>
        </g>
    </g>
</svg>