<?xml version="1.0" encoding="UTF-8" standalone="no"?>
<svg width="100px" height="100px" viewBox="0 0 100 100" version="1.1" xmlns="http://www.w3.org/2000/svg" xmlns:xlink="http://www.w3.org/1999/xlink" xmlns:sketch="http://www.bohemiancoding.com/sketch/ns">
    <!-- Generator: Sketch 3.2.2 (9983) - http://www.bohemiancoding.com/sketch -->
    <title>07-04-2015 parrot</title>
    <desc>Created with Sketch.</desc>
    <defs></defs>
    <g id="January" stroke="none" stroke-width="1" fill="none" fill-rule="evenodd" sketch:type="MSPage">
        <g id="07-04-2015-parrot" sketch:type="MSArtboardGroup">
            <g id="Group" sketch:type="MSLayerGroup" transform="translate(21.000000, 19.000000)">
                <path d="M44.6486486,19.8717949 C44.6486486,19.8717949 62.1891892,23.0512821 57.4054054,36.5641026 C57.4054054,36.5641026 58.2027027,30.2051282 44.6486486,32.5897436 C44.6486486,32.5897436 42.2567568,38.1538462 47.0405405,38.9487179 C51.8243243,39.7435897 42.2567568,44.5128205 36.6756757,39.7435897 C31.0945946,34.974359 44.6486486,19.8717949 44.6486486,19.8717949 Z" id="Path-12" fill="#000000" sketch:type="MSShapeGroup"></path>
                <path d="M7.00000022,29.0000009 C11.3614325,10.889611 16.921974,1.60528198 27.0000007,2 C36.0082156,2.35281755 41.1717696,7.72069642 42.9999988,16.0000003 C44.5639275,23.0823952 43.1080884,30.3474457 39.4840544,33.895937 C36.701439,36.6205489 35.5363876,39.3041008 36.9999988,43.0000013 C37.6880517,44.7374674 39.2380266,47.3280617 40.9999988,50.0000013 C43.8299768,54.2915163 44,55.7725118 44,55.7725118 C43,59.0000013 39.4840546,61.0000013 32,55.0000013 C27,64.0000013 17,55.9517377 16,54.0000013 C8,62.0000013 4.78262637,57.4275121 2,53.0000013 C2,53.0000013 5.34161905,35.8862546 7.00000022,29.0000009 Z M0.459483043,54.2623055 C3.38404381,58.915652 6.19610287,60.8929039 9.07293182,60.6535504 C11.2660521,60.4710817 13.0929739,59.2310627 15.8841994,56.5261421 C16.0573321,56.3583627 16.1947819,56.2241278 16.5007122,55.9245748 L15.9224646,55.903989 C21.9913893,62.7606253 27.0976921,62.9480653 30.9608203,59.0754015 C31.4948506,58.540053 31.9544708,57.9675176 32.3400216,57.3945846 C32.4753282,57.1935173 32.5919377,57.0063445 32.6898193,56.8376415 C32.7496217,56.7345695 32.790538,56.6592315 32.8125091,56.6162053 L32.1779118,56.7194453 C38.0240225,62.4436942 41.556233,62.4436942 45.7683475,56.6696559 L45.8784539,56.5187202 L45.8322752,56.3378561 C45.3612957,54.4932091 44.7149381,53.3879476 41.8188275,48.9961459 C40.0857316,46.3679958 39.1725414,44.7984035 38.5105972,43.1268668 C37.1564429,39.7073661 37.5092574,36.9436963 40.042727,34.4630368 C43.883098,30.7027181 45.6272517,22.3467116 44.0087363,15.0171155 C42.1067275,6.40369395 36.184153,0.765662129 26.790342,0.397742237 C16.1726617,-0.0181119633 9.43156677,10.4223837 4.98700373,28.8779653 C3.32016566,35.7993355 0.190417541,55.0306818 0.406665687,53.9719792 L0.459483043,54.2623055 Z" id="Path-11" fill="#000000" sketch:type="MSShapeGroup"></path>
                <ellipse id="Oval-19" stroke="#000000" stroke-width="0.8" sketch:type="MSShapeGroup" cx="36.0337838" cy="15.7715696" rx="3.03378378" ry="4.10022523"></ellipse>
                <ellipse id="Oval-20" fill="#000000" sketch:type="MSShapeGroup" cx="37.5743243" cy="16.5" rx="1.49324322" ry="1.98717949"></ellipse>
            </g>
        </g>
    </g>
</svg>