<?xml version="1.0" encoding="UTF-8" standalone="no"?>
<svg width="100px" height="100px" viewBox="0 0 100 100" version="1.1" xmlns="http://www.w3.org/2000/svg" xmlns:xlink="http://www.w3.org/1999/xlink" xmlns:sketch="http://www.bohemiancoding.com/sketch/ns">
    <!-- Generator: Sketch 3.3 (11970) - http://www.bohemiancoding.com/sketch -->
    <title>08-04-2015 popcorn</title>
    <desc>Created with Sketch.</desc>
    <defs></defs>
    <g id="January" stroke="none" stroke-width="1" fill="none" fill-rule="evenodd" sketch:type="MSPage">
        <g id="08-04-2015-popcorn" sketch:type="MSArtboardGroup" fill="#000000">
            <path d="M28.1707259,36.441095 L24,36.441095 L32,86.441095 L68,86.441095 L76,36.441095 L72.3748189,36.441095 C77.4965562,26.2004947 69.1058132,22.533828 66.5329182,25.4410953 C64.7629432,14.441095 58.5680304,12.4410954 55.9130677,18.4410953 C50.6031439,11.4410955 44.4082314,12.4410951 39.9832937,18.4410953 C33.7883807,17.4410953 34.6733682,24.441095 34.6733682,24.441095 C34.6733682,24.441095 32.0184056,21.441095 27.5934679,27.441095 C24.4786319,31.6646608 26.6260818,34.8971981 28.1707259,36.441095 L28.1707259,36.441095 Z M33,84.441095 L26,38.441095 L35,38.441095 L40,84.441095 L33,84.441095 Z M67,84.441095 L74,38.441095 L65,38.441095 L60,84.441095 L67,84.441095 Z M54,84.441095 L55,38.441095 L45,38.441095 L46,84.441095 L54,84.441095 Z M31,36.4410957 C31,36.4410957 24.9999998,34.4410943 28.9999999,28.4410947 C33,22.4410951 35.9999996,27.4410947 35.9999996,27.4410947 C35.9999996,27.4410947 35,17.4410951 39.9999996,20.4410951 C45.0000005,13.4410951 50.6900767,13.4410952 56.0000005,20.441095 C59.0000005,13.4410952 64.0000005,16.441095 66.0000005,27.4410945 C68.6549631,24.441094 76.0000005,26.4410955 71.0000005,36.4410955 L31,36.4410957 Z M39.3017778,30.2879276 C39.1173857,29.7434963 38.979828,29.1476684 38.9446626,28.5788581 C38.8407531,26.8980919 39.5908479,26.102387 41.8625968,26.4541295 L42.4566125,26.546103 L42.4388844,25.9452707 C42.437085,25.8842863 42.4403699,25.7613351 42.4568384,25.5957615 C42.4845894,25.3167542 42.5408839,25.0313914 42.6321698,24.7595416 C43.1544585,23.2041638 44.4909296,22.7160737 47.3438578,24.0866313 L47.5890456,24.2044204 L47.8211363,24.0625572 C47.976047,23.9678696 48.2600045,23.810823 48.6330879,23.632641 C49.2526946,23.3367213 49.8840531,23.0994766 50.4834814,22.9610877 C52.0731496,22.5940839 53.0496558,22.9628814 53.3693087,24.3474501 C53.3693087,24.3474501 53.7006499,24.6712898 53.9442423,24.615052 C54.1878347,24.5588143 54.3436788,24.1224991 54.3436788,24.1224991 C53.876003,22.0967726 52.32275,21.5101549 50.2585304,21.9867176 C49.5790981,22.1435769 48.8824269,22.405364 48.202123,22.7302723 C47.9652614,22.8433957 47.5520138,23.0642823 47.5520138,23.0642823 C45.6420216,21.657515 42.4056138,22.2928078 41.684189,24.441214 C41.4835489,25.0387213 41.6210435,25.407847 41.6210435,25.407847 C38.6796471,24.9524207 37.8053601,26.3564825 37.9465682,28.640563 C37.988002,29.3107672 38.1442579,29.9875859 38.3546268,30.6087158 C38.4076544,30.7652839 38.7789682,31.2221207 39.0291737,31.1373793 C39.2793792,31.0526378 39.3474403,30.4227498 39.3017778,30.2879276 Z M64.4605653,34.6747376 C64.517761,34.1027808 64.517761,33.4912801 64.4240706,32.9291379 C64.1472268,31.2680751 63.2373622,30.6614987 61.1029629,31.5152584 L60.5448614,31.738499 L60.4269773,31.1490781 C60.415012,31.0892519 60.3841533,30.9701909 60.330861,30.8125655 C60.2410582,30.5469518 60.1220139,30.2815664 59.9719147,30.0372189 C59.1131284,28.6391947 57.7011145,28.4642549 55.2296151,30.4414545 L55.0172083,30.6113799 L54.7591537,30.5253617 C54.5869133,30.4679482 54.2749058,30.3788032 53.8713024,30.2891136 C53.2010086,30.1401594 52.5324634,30.05102 51.9172676,30.05102 C50.2857847,30.05102 49.4172676,30.6300314 49.4172676,32.05102 C49.4172676,32.05102 49.1672668,32.4410952 48.9172668,32.4410952 C48.6672669,32.4410952 48.4172676,32.05102 48.4172676,32.05102 C48.4172676,29.9720087 49.7987505,29.05102 51.9172676,29.05102 C52.6145718,29.05102 53.3522766,29.1493807 54.0882328,29.3129265 C54.3444709,29.3698683 54.7968157,29.4921331 54.7968157,29.4921331 C56.3414011,27.6917664 59.6377697,27.5827434 60.8239907,29.5138008 C61.1538984,30.0508597 61.102963,30.4414544 61.102963,30.4414544 C63.8665229,29.3360304 65.0342471,30.5074344 65.4104646,32.7647389 C65.5208558,33.4270865 65.5208558,34.1217083 65.4556025,34.7742413 C65.4391541,34.9387252 65.1801231,35.4673808 64.9172676,35.4410952 C64.6544122,35.4148097 64.4464015,34.8163761 64.4605653,34.6747376 Z" id="popcorn" sketch:type="MSShapeGroup"></path>
        </g>
    </g>
</svg>