<?xml version="1.0" encoding="UTF-8" standalone="no"?>
<svg width="100px" height="100px" viewBox="0 0 100 100" version="1.1" xmlns="http://www.w3.org/2000/svg" xmlns:xlink="http://www.w3.org/1999/xlink" xmlns:sketch="http://www.bohemiancoding.com/sketch/ns">
    <!-- Generator: Sketch 3.3 (11970) - http://www.bohemiancoding.com/sketch -->
    <title>09-04-2015 sun</title>
    <desc>Created with Sketch.</desc>
    <defs></defs>
    <g id="January" stroke="none" stroke-width="1" fill="none" fill-rule="evenodd" sketch:type="MSPage">
        <g id="09-04-2015-sun" sketch:type="MSArtboardGroup" fill="#000000">
            <path d="M49.5,76.1666667 C63.6152051,76.1666667 75.0578397,64.6753086 75.0578397,50.5 C75.0578397,36.3246914 63.6152051,24.8333333 49.5,24.8333333 C35.3847949,24.8333333 23.9421603,36.3246914 23.9421603,50.5 C23.9421603,64.6753086 35.3847949,76.1666667 49.5,76.1666667 Z M49.5,74.5625 C62.7330048,74.5625 73.4604747,63.7893518 73.4604747,50.5 C73.4604747,37.2106482 62.7330048,26.4375 49.5,26.4375 C36.2669952,26.4375 25.5395253,37.2106482 25.5395253,50.5 C25.5395253,63.7893518 36.2669952,74.5625 49.5,74.5625 Z M48.7013175,12.8040671 C48.7013175,12.3599931 49.0558246,12 49.5,12 C49.9411002,12 50.2986825,12.3655583 50.2986825,12.8040671 L50.2986825,20.8209329 C50.2986825,21.2650069 49.9441754,21.625 49.5,21.625 C49.0588998,21.625 48.7013175,21.2594417 48.7013175,20.8209329 L48.7013175,12.8040671 Z M70.9270092,19.5338959 C71.1880293,19.1746325 71.6864302,19.091766 72.0457757,19.3528457 C72.4026332,19.6121179 72.4770536,20.1180424 72.2193046,20.4728035 L67.5071091,26.9585841 C67.246089,27.3178475 66.7476881,27.4007141 66.3883426,27.1396343 C66.0314851,26.8803621 65.9570647,26.3744376 66.2148137,26.0196765 L70.9270092,19.5338959 Z M84.9683116,38.0917239 C85.3906511,37.9544975 85.8425736,38.1804098 85.9798313,38.6028457 C86.1161388,39.0223569 85.8789712,39.4754016 85.4619245,39.6109083 L77.8374321,42.0882561 C77.4150926,42.2254825 76.9631701,41.9995702 76.8259123,41.5771343 C76.6896049,41.1576231 76.9267725,40.7045784 77.3438192,40.5690717 L84.9683116,38.0917239 Z M85.4619245,61.3890917 C85.884264,61.5263181 86.1170891,61.9747183 85.9798313,62.3971543 C85.8435239,62.8166655 85.3853583,63.0437828 84.9683116,62.9082761 L77.3438192,60.4309283 C76.9214797,60.2937019 76.6886546,59.8453016 76.8259123,59.4228657 C76.9622198,59.0033545 77.4203854,58.7762372 77.8374321,58.9117439 L85.4619245,61.3890917 Z M72.2193046,80.5271965 C72.4803247,80.8864599 72.4051211,81.3860745 72.0457757,81.6471543 C71.6889181,81.9064265 71.1847582,81.8208652 70.9270092,81.4661041 L66.2148137,74.9803235 C65.9537935,74.62106 66.0289971,74.1214455 66.3883426,73.8603657 C66.7452001,73.6010935 67.2493601,73.6866548 67.5071091,74.0414159 L72.2193046,80.5271965 Z M50.2986825,88.1959329 C50.2986825,88.6400069 49.9441754,89 49.5,89 C49.0588998,89 48.7013175,88.6344417 48.7013175,88.1959329 L48.7013175,80.1790671 C48.7013175,79.7349931 49.0558246,79.375 49.5,79.375 C49.9411002,79.375 50.2986825,79.7405583 50.2986825,80.1790671 L50.2986825,88.1959329 Z M28.0729908,81.4661041 C27.8119707,81.8253675 27.3135698,81.908234 26.9542243,81.6471543 C26.5973668,81.3878821 26.5229464,80.8819576 26.7806954,80.5271965 L31.4928909,74.0414159 C31.753911,73.6821525 32.2523119,73.5992859 32.6116574,73.8603657 C32.9685149,74.1196379 33.0429353,74.6255624 32.7851863,74.9803235 L28.0729908,81.4661041 Z M14.0316884,62.9082761 C13.6093489,63.0455025 13.1574264,62.8195902 13.0201687,62.3971543 C12.8838612,61.9776431 13.1210288,61.5245984 13.5380755,61.3890917 L21.1625679,58.9117439 C21.5849074,58.7745175 22.0368299,59.0004298 22.1740877,59.4228657 C22.3103951,59.8423769 22.0732275,60.2954216 21.6561808,60.4309283 L14.0316884,62.9082761 Z M13.5380755,39.6109083 C13.115736,39.4736819 12.8829109,39.0252817 13.0201687,38.6028457 C13.1564761,38.1833345 13.6146417,37.9562172 14.0316884,38.0917239 L21.6561808,40.5690717 C22.0785203,40.7062981 22.3113454,41.1546984 22.1740877,41.5771343 C22.0377802,41.9966455 21.5796146,42.2237628 21.1625679,42.0882561 L13.5380755,39.6109083 Z M26.7806954,20.4728035 C26.5196753,20.1135401 26.5948789,19.6139255 26.9542243,19.3528457 C27.3110819,19.0935735 27.8152418,19.1791348 28.0729908,19.5338959 L32.7851863,26.0196765 C33.0462065,26.37894 32.9710029,26.8785545 32.6116574,27.1396343 C32.2547999,27.3989065 31.7506399,27.3133452 31.4928909,26.9585841 L26.7806954,20.4728035 Z" id="sun" sketch:type="MSShapeGroup"></path>
        </g>
    </g>
</svg>