<?xml version="1.0" encoding="UTF-8" standalone="no"?>
<svg width="100px" height="100px" viewBox="0 0 100 100" version="1.1" xmlns="http://www.w3.org/2000/svg" xmlns:xlink="http://www.w3.org/1999/xlink" xmlns:sketch="http://www.bohemiancoding.com/sketch/ns">
    <!-- Generator: Sketch 3.3 (11970) - http://www.bohemiancoding.com/sketch -->
    <title>10-04-2015 cloudy</title>
    <desc>Created with Sketch.</desc>
    <defs></defs>
    <g id="January" stroke="none" stroke-width="1" fill="none" fill-rule="evenodd" sketch:type="MSPage">
        <g id="10-04-2015-cloudy" sketch:type="MSArtboardGroup" fill="#000000">
            <path d="M67.5986638,46.9047404 C66.3121899,35.4239898 56.5925193,26.5 44.7930627,26.5 C32.1180812,26.5 21.8429785,36.7974508 21.8429785,49.5 C21.8429785,57.2848757 25.7022716,64.1664048 31.608077,68.3278635 C27.4736203,69.9639186 25.6895059,72.487186 25.3938826,75.0335264 L24.3962765,76.4066134 C24.1653065,76.7245162 24.2325338,77.1782686 24.5529799,77.4110863 C24.8540843,77.6298514 25.2635725,77.5801583 25.5070361,77.3109542 C26.2586659,80.8931082 29.5710663,83.9827371 32.8540111,83.9827376 L44.6373621,83.9827373 C44.6874922,83.9940308 44.7395941,84 44.7930627,84 C44.8472825,84 44.9000143,83.9940387 44.9506607,83.9827373 L72.1261207,83.9827368 C96.9026644,84.7480869 87.7688499,58.644912 77.572365,60.0253751 C77.6135162,59.6900477 77.4120499,59.3646981 77.078566,59.2563427 L74.8619825,58.536131 C74.5971506,51.7807655 71.5136556,48.1977504 67.5986638,46.9047404 L67.5986638,46.9047404 Z M66.1059775,46.5273771 C64.6610043,36.0254277 55.669502,27.9375 44.7930627,27.9375 C32.9102675,27.9375 23.2773587,37.5913601 23.2773587,49.5 C23.2773587,57.180935 27.2847459,63.9238588 33.3184951,67.7434379 C33.659273,67.6434733 34.0127061,67.5486415 34.3791124,67.4592613 C27.0142862,58.2869802 45.2420459,49.0519479 49.9325919,58.7723062 C49.3376957,51.0263511 58.6842687,45.1884039 66.1059775,46.5273771 L66.1059775,46.5273771 Z M76.0641623,60.4349396 L74.8745361,60.0484066 C74.867326,60.3901015 74.8534776,60.7390488 74.83278,61.0953422 C75.2409075,60.8238215 75.6520857,60.6048744 76.0641623,60.4349396 L76.0641623,60.4349396 Z M44.0758726,15.7205277 C44.0758726,15.3225912 44.3942081,15 44.7930627,15 C45.1891559,15 45.5102529,15.3275782 45.5102529,15.7205277 L45.5102529,22.9044723 C45.5102529,23.3024088 45.1919174,23.625 44.7930627,23.625 C44.3969696,23.625 44.0758726,23.2974218 44.0758726,22.9044723 L44.0758726,15.7205277 Z M64.029411,21.750279 C64.2633122,21.4283417 64.7104653,21.3544728 65.0331455,21.5889137 C65.3535916,21.8217314 65.4208189,22.2754838 65.189849,22.5933866 L60.9672323,28.4053199 C60.7333311,28.7272573 60.2861779,28.8011262 59.9634977,28.5666853 C59.6430516,28.3338675 59.5758244,27.8801152 59.8067943,27.5622123 L64.029411,21.750279 Z M76.6353182,38.3794806 C77.0137782,38.2565115 77.4189518,38.4595804 77.5422046,38.8389137 C77.6646042,39.2156207 77.4522832,39.6222293 77.078566,39.7436573 L70.2462287,41.9636183 C69.8677686,42.0865874 69.4625951,41.8835186 69.3393422,41.5041853 C69.2169427,41.1274783 69.4292636,40.7208697 69.8029808,40.5994416 L76.6353182,38.3794806 Z M12.9508073,60.6205194 C12.5723472,60.7434885 12.1671737,60.5404196 12.0439208,60.1610863 C11.9215213,59.7843793 12.1338422,59.3777707 12.5075594,59.2563427 L19.3398968,57.0363817 C19.7183568,56.9134126 20.1235304,57.1164814 20.2467833,57.4958147 C20.3691828,57.8725217 20.1568618,58.2791303 19.7831447,58.4005584 L12.9508073,60.6205194 Z M12.5075594,39.7436573 C12.1290994,39.6206882 11.9206679,39.218247 12.0439208,38.8389137 C12.1663203,38.4622067 12.5770901,38.2580526 12.9508073,38.3794806 L19.7831447,40.5994416 C20.1616047,40.7224107 20.3700361,41.1248519 20.2467833,41.5041853 C20.1243837,41.8808923 19.7136139,42.0850464 19.3398968,41.9636183 L12.5075594,39.7436573 Z M24.3962765,22.5933866 C24.1623753,22.2714493 24.2302997,21.8233546 24.5529799,21.5889137 C24.873426,21.356096 25.3257445,21.4323762 25.5567145,21.750279 L29.7793312,27.5622123 C30.0132324,27.8841497 29.9453079,28.3322444 29.6226277,28.5666853 C29.3021816,28.799503 28.8498631,28.7232227 28.6188932,28.4053199 L24.3962765,22.5933866 Z M33.3876196,82.6558413 C26.691255,82.6558405 21.7140549,70.5584421 36.0815189,68.3181824 C27.9998203,59.3571426 45.0611834,49.4999999 49.9999992,60.7012984 C50.4489825,60.7012983 50.6298457,59.8051947 50.6298457,59.8051948 C50.6298457,45.4675324 76.1638173,40.2455582 73.9769757,62.9415578 C84.3035906,53.9805197 98.2220716,83.1038967 72.1810431,82.6558426 L33.3876196,82.6558413 Z" id="cloudy" sketch:type="MSShapeGroup"></path>
        </g>
    </g>
</svg>