<?xml version="1.0" encoding="UTF-8" standalone="no"?>
<svg width="100px" height="100px" viewBox="0 0 100 100" version="1.1" xmlns="http://www.w3.org/2000/svg" xmlns:xlink="http://www.w3.org/1999/xlink" xmlns:sketch="http://www.bohemiancoding.com/sketch/ns">
    <!-- Generator: Sketch 3.3 (11970) - http://www.bohemiancoding.com/sketch -->
    <title>11-04-2015 clouds</title>
    <desc>Created with Sketch.</desc>
    <defs></defs>
    <g id="January" stroke="none" stroke-width="1" fill="none" fill-rule="evenodd" sketch:type="MSPage">
        <g id="11-04-2015-clouds" sketch:type="MSArtboardGroup" fill="#000000">
            <path d="M34.0473054,43.5678501 C31.395052,36.3638087 42.8777596,30.1355119 48.7444103,34.482489 C49.5795076,34.2288203 50.4304206,34.0381177 51.2839837,33.9162327 C54.4674864,23.0350665 77.0611042,18.5027124 75.8406626,39.511653 C85.7859074,32.8952425 97.5426211,57.4969233 79.9688577,61.7869765 C80.4733557,68.6780774 76.1637617,75.6514069 62.5213729,75.229992 L19.259602,75.2299929 C11.8829523,75.229992 4.37130125,61.0695314 20.9396386,57.0278935 C14.2980702,48.75637 26.5499145,40.4385212 34.0473054,43.5678501 L34.0473054,43.5678501 Z M35.5233174,44.3827048 C32.6141366,37.8361502 41.416752,31.8351475 47.3483704,34.9709578 C41.9891504,37.0991465 37.6401546,41.8198932 38.0731992,47.4584289 C37.427861,46.1210754 36.5499082,45.109439 35.5233174,44.3827048 L35.5233174,44.3827048 Z M52.5174621,33.7886784 C56.9908017,23.0660853 76.9276902,21.1943085 74.9848582,41.3578687 C84.28684,33.2859677 96.5032619,56.1157611 79.8028236,60.3982123 C78.5432173,52.7829134 71.7035113,45.892364 65.5030021,50.0174626 C66.2191488,37.6895622 59.4916909,33.3451516 52.5174621,33.7886784 L52.5174621,33.7886784 Z M19.8474199,73.768297 C12.4707703,73.7682961 6.98793549,60.4419207 22.8149929,57.9740725 C13.912273,48.1026789 32.7069033,37.2441473 38.1474544,49.5833878 C38.6420499,49.5833878 38.8412871,48.5962488 38.8412871,48.5962489 C38.8412871,32.8020206 66.9692598,27.049545 64.5602565,52.0512356 C75.9359542,42.1798439 91.2684164,74.2618705 62.5818748,73.7682984 L19.8474199,73.768297 Z" id="cloudy" sketch:type="MSShapeGroup"></path>
        </g>
    </g>
</svg>