<?xml version="1.0" encoding="UTF-8" standalone="no"?>
<svg width="100px" height="100px" viewBox="0 0 100 100" version="1.1" xmlns="http://www.w3.org/2000/svg" xmlns:xlink="http://www.w3.org/1999/xlink" xmlns:sketch="http://www.bohemiancoding.com/sketch/ns">
    <!-- Generator: Sketch 3.3 (11970) - http://www.bohemiancoding.com/sketch -->
    <title>12-04-2015 rain</title>
    <desc>Created with Sketch.</desc>
    <defs></defs>
    <g id="January" stroke="none" stroke-width="1" fill="none" fill-rule="evenodd" sketch:type="MSPage">
        <g id="12-04-2015-rain" sketch:type="MSArtboardGroup" fill="#000000">
            <path d="M22.000229,56.7194813 C14.1289879,56.7194803 6.11369374,41.6095856 23.7929093,37.2969628 C15.1359251,26.515406 36.5617432,15.6600883 42.0752451,27.0858824 C40.8966312,11.7395238 72.915655,2.76459318 71.3441685,29.8164948 C84.3089271,21.1912505 99.8926205,57.6996234 68.1626262,56.7194803 L22.000229,56.7194813 Z M22.6274592,55.1597812 C14.756218,55.1597802 8.90576874,40.9398946 25.7940027,38.3065816 C16.294371,27.7733282 36.3491484,16.186751 42.154479,29.3533161 C42.6822363,29.353316 42.894832,28.2999911 42.894832,28.2999912 C42.894832,11.4467874 72.9087362,5.30861839 70.3382134,31.9866287 C82.4766319,21.4533774 98.8371089,55.6864479 68.2271848,55.1597827 L22.6274592,55.1597812 Z M33.5965221,62.5762343 C33.4949383,62.3248055 33.6276334,62.0340983 33.8761802,61.9336789 C34.132215,61.8302341 34.4251377,61.9576627 34.5237059,62.2016277 L36.4034779,66.8542266 C36.5050617,67.1056554 36.3723666,67.3963626 36.1238198,67.496782 C35.867785,67.6002268 35.5748623,67.4727982 35.4762941,67.2288332 L33.5965221,62.5762343 Z M37.5965221,72.5762343 C37.4949383,72.3248055 37.6276334,72.0340983 37.8761802,71.9336789 C38.132215,71.8302341 38.4251377,71.9576627 38.5237059,72.2016277 L40.4034779,76.8542266 C40.5050617,77.1056554 40.3723666,77.3963626 40.1238198,77.496782 C39.867785,77.6002268 39.5748623,77.4727982 39.4762941,77.2288332 L37.5965221,72.5762343 Z M41.5965221,82.5762343 C41.4949383,82.3248055 41.6276334,82.0340983 41.8761802,81.9336789 C42.132215,81.8302341 42.4251377,81.9576627 42.5237059,82.2016277 L44.4034779,86.8542266 C44.5050617,87.1056554 44.3723666,87.3963626 44.1238198,87.496782 C43.867785,87.6002268 43.5748623,87.4727982 43.4762941,87.2288332 L41.5965221,82.5762343 Z M43.5965221,62.5762343 C43.4949383,62.3248055 43.6276334,62.0340983 43.8761802,61.9336789 C44.132215,61.8302341 44.4251377,61.9576627 44.5237059,62.2016277 L46.4034779,66.8542266 C46.5050617,67.1056554 46.3723666,67.3963626 46.1238198,67.496782 C45.867785,67.6002268 45.5748623,67.4727982 45.4762941,67.2288332 L43.5965221,62.5762343 Z M47.5965221,72.5762343 C47.4949383,72.3248055 47.6276334,72.0340983 47.8761802,71.9336789 C48.132215,71.8302341 48.4251377,71.9576627 48.5237059,72.2016277 L50.4034779,76.8542266 C50.5050617,77.1056554 50.3723666,77.3963626 50.1238198,77.496782 C49.867785,77.6002268 49.5748623,77.4727982 49.4762941,77.2288332 L47.5965221,72.5762343 Z M51.5965221,82.5762343 C51.4949383,82.3248055 51.6276334,82.0340983 51.8761802,81.9336789 C52.132215,81.8302341 52.4251377,81.9576627 52.5237059,82.2016277 L54.4034779,86.8542266 C54.5050617,87.1056554 54.3723666,87.3963626 54.1238198,87.496782 C53.867785,87.6002268 53.5748623,87.4727982 53.4762941,87.2288332 L51.5965221,82.5762343 Z M53.5965221,62.5762343 C53.4949383,62.3248055 53.6276334,62.0340983 53.8761802,61.9336789 C54.132215,61.8302341 54.4251377,61.9576627 54.5237059,62.2016277 L56.4034779,66.8542266 C56.5050617,67.1056554 56.3723666,67.3963626 56.1238198,67.496782 C55.867785,67.6002268 55.5748623,67.4727982 55.4762941,67.2288332 L53.5965221,62.5762343 Z M57.5965221,72.5762343 C57.4949383,72.3248055 57.6276334,72.0340983 57.8761802,71.9336789 C58.132215,71.8302341 58.4251377,71.9576627 58.5237059,72.2016277 L60.4034779,76.8542266 C60.5050617,77.1056554 60.3723666,77.3963626 60.1238198,77.496782 C59.867785,77.6002268 59.5748623,77.4727982 59.4762941,77.2288332 L57.5965221,72.5762343 Z M61.5965221,82.5762343 C61.4949383,82.3248055 61.6276334,82.0340983 61.8761802,81.9336789 C62.132215,81.8302341 62.4251377,81.9576627 62.5237059,82.2016277 L64.4034779,86.8542266 C64.5050617,87.1056554 64.3723666,87.3963626 64.1238198,87.496782 C63.867785,87.6002268 63.5748623,87.4727982 63.4762941,87.2288332 L61.5965221,82.5762343 Z M63.5965221,62.5762343 C63.4949383,62.3248055 63.6276334,62.0340983 63.8761802,61.9336789 C64.132215,61.8302341 64.4251377,61.9576627 64.5237059,62.2016277 L66.4034779,66.8542266 C66.5050617,67.1056554 66.3723666,67.3963626 66.1238198,67.496782 C65.867785,67.6002268 65.5748623,67.4727982 65.4762941,67.2288332 L63.5965221,62.5762343 Z M67.5965221,72.5762343 C67.4949383,72.3248055 67.6276334,72.0340983 67.8761802,71.9336789 C68.132215,71.8302341 68.4251377,71.9576627 68.5237059,72.2016277 L70.4034779,76.8542266 C70.5050617,77.1056554 70.3723666,77.3963626 70.1238198,77.496782 C69.867785,77.6002268 69.5748623,77.4727982 69.4762941,77.2288332 L67.5965221,72.5762343 Z M71.5965221,82.5762343 C71.4949383,82.3248055 71.6276334,82.0340983 71.8761802,81.9336789 C72.132215,81.8302341 72.4251377,81.9576627 72.5237059,82.2016277 L74.4034779,86.8542266 C74.5050617,87.1056554 74.3723666,87.3963626 74.1238198,87.496782 C73.867785,87.6002268 73.5748623,87.4727982 73.4762941,87.2288332 L71.5965221,82.5762343 Z" id="rain" sketch:type="MSShapeGroup"></path>
        </g>
    </g>
</svg>