<?xml version="1.0" encoding="UTF-8" standalone="no"?>
<svg width="100px" height="100px" viewBox="0 0 100 100" version="1.1" xmlns="http://www.w3.org/2000/svg" xmlns:xlink="http://www.w3.org/1999/xlink" xmlns:sketch="http://www.bohemiancoding.com/sketch/ns">
    <!-- Generator: Sketch 3.3 (11970) - http://www.bohemiancoding.com/sketch -->
    <title>13-04-2015 snow</title>
    <desc>Created with Sketch.</desc>
    <defs></defs>
    <g id="January" stroke="none" stroke-width="1" fill="none" fill-rule="evenodd" sketch:type="MSPage">
        <g id="13-04-2015-snow" sketch:type="MSArtboardGroup" fill="#000000">
            <path d="M22.000229,56.7194813 C14.1289879,56.7194803 6.11369374,41.6095856 23.7929093,37.2969628 C15.1359251,26.515406 36.5617432,15.6600883 42.0752451,27.0858824 C40.8966312,11.7395238 72.915655,2.76459318 71.3441685,29.8164948 C84.3089271,21.1912505 99.8926205,57.6996234 68.1626262,56.7194803 L22.000229,56.7194813 Z M22.6274592,55.1597812 C14.756218,55.1597802 8.90576874,40.9398946 25.7940027,38.3065816 C16.294371,27.7733282 36.3491484,16.186751 42.154479,29.3533161 C42.6822363,29.353316 42.894832,28.2999911 42.894832,28.2999912 C42.894832,11.4467874 72.9087362,5.30861839 70.3382134,31.9866287 C82.4766319,21.4533774 98.8371089,55.6864479 68.2271848,55.1597827 L22.6274592,55.1597812 Z" id="rain" sketch:type="MSShapeGroup"></path>
            <path d="M31,69.5 C32.3807119,69.5 33.5,68.3807119 33.5,67 C33.5,65.6192881 32.3807119,64.5 31,64.5 C29.6192881,64.5 28.5,65.6192881 28.5,67 C28.5,68.3807119 29.6192881,69.5 31,69.5 L31,69.5 Z M31,68.5 C30.1715729,68.5 29.5,67.8284271 29.5,67 C29.5,66.1715729 30.1715729,65.5 31,65.5 C31.8284271,65.5 32.5,66.1715729 32.5,67 C32.5,67.8284271 31.8284271,68.5 31,68.5 L31,68.5 Z" id="Shape" sketch:type="MSShapeGroup"></path>
            <path d="M48,69.5 C49.3807119,69.5 50.5,68.3807119 50.5,67 C50.5,65.6192881 49.3807119,64.5 48,64.5 C46.6192881,64.5 45.5,65.6192881 45.5,67 C45.5,68.3807119 46.6192881,69.5 48,69.5 L48,69.5 Z M48,68.5 C47.1715729,68.5 46.5,67.8284271 46.5,67 C46.5,66.1715729 47.1715729,65.5 48,65.5 C48.8284271,65.5 49.5,66.1715729 49.5,67 C49.5,67.8284271 48.8284271,68.5 48,68.5 L48,68.5 Z" id="Shape-Copy" sketch:type="MSShapeGroup"></path>
            <path d="M65,69.5 C66.3807119,69.5 67.5,68.3807119 67.5,67 C67.5,65.6192881 66.3807119,64.5 65,64.5 C63.6192881,64.5 62.5,65.6192881 62.5,67 C62.5,68.3807119 63.6192881,69.5 65,69.5 L65,69.5 Z M65,68.5 C64.1715729,68.5 63.5,67.8284271 63.5,67 C63.5,66.1715729 64.1715729,65.5 65,65.5 C65.8284271,65.5 66.5,66.1715729 66.5,67 C66.5,67.8284271 65.8284271,68.5 65,68.5 L65,68.5 Z" id="Shape-Copy-2" sketch:type="MSShapeGroup"></path>
            <path d="M58,79.5 C59.3807119,79.5 60.5,78.3807119 60.5,77 C60.5,75.6192881 59.3807119,74.5 58,74.5 C56.6192881,74.5 55.5,75.6192881 55.5,77 C55.5,78.3807119 56.6192881,79.5 58,79.5 L58,79.5 Z M58,78.5 C57.1715729,78.5 56.5,77.8284271 56.5,77 C56.5,76.1715729 57.1715729,75.5 58,75.5 C58.8284271,75.5 59.5,76.1715729 59.5,77 C59.5,77.8284271 58.8284271,78.5 58,78.5 L58,78.5 Z" id="Shape-Copy-3" sketch:type="MSShapeGroup"></path>
            <path d="M41,79.5 C42.3807119,79.5 43.5,78.3807119 43.5,77 C43.5,75.6192881 42.3807119,74.5 41,74.5 C39.6192881,74.5 38.5,75.6192881 38.5,77 C38.5,78.3807119 39.6192881,79.5 41,79.5 L41,79.5 Z M41,78.5 C40.1715729,78.5 39.5,77.8284271 39.5,77 C39.5,76.1715729 40.1715729,75.5 41,75.5 C41.8284271,75.5 42.5,76.1715729 42.5,77 C42.5,77.8284271 41.8284271,78.5 41,78.5 L41,78.5 Z" id="Shape-Copy-4" sketch:type="MSShapeGroup"></path>
            <path d="M51,89.5 C52.3807119,89.5 53.5,88.3807119 53.5,87 C53.5,85.6192881 52.3807119,84.5 51,84.5 C49.6192881,84.5 48.5,85.6192881 48.5,87 C48.5,88.3807119 49.6192881,89.5 51,89.5 L51,89.5 Z M51,88.5 C50.1715729,88.5 49.5,87.8284271 49.5,87 C49.5,86.1715729 50.1715729,85.5 51,85.5 C51.8284271,85.5 52.5,86.1715729 52.5,87 C52.5,87.8284271 51.8284271,88.5 51,88.5 L51,88.5 Z" id="Shape-Copy-5" sketch:type="MSShapeGroup"></path>
            <path d="M68,89.5 C69.3807119,89.5 70.5,88.3807119 70.5,87 C70.5,85.6192881 69.3807119,84.5 68,84.5 C66.6192881,84.5 65.5,85.6192881 65.5,87 C65.5,88.3807119 66.6192881,89.5 68,89.5 L68,89.5 Z M68,88.5 C67.1715729,88.5 66.5,87.8284271 66.5,87 C66.5,86.1715729 67.1715729,85.5 68,85.5 C68.8284271,85.5 69.5,86.1715729 69.5,87 C69.5,87.8284271 68.8284271,88.5 68,88.5 L68,88.5 Z" id="Shape-Copy-6" sketch:type="MSShapeGroup"></path>
            <path d="M78,79.5 C79.3807119,79.5 80.5,78.3807119 80.5,77 C80.5,75.6192881 79.3807119,74.5 78,74.5 C76.6192881,74.5 75.5,75.6192881 75.5,77 C75.5,78.3807119 76.6192881,79.5 78,79.5 L78,79.5 Z M78,78.5 C77.1715729,78.5 76.5,77.8284271 76.5,77 C76.5,76.1715729 77.1715729,75.5 78,75.5 C78.8284271,75.5 79.5,76.1715729 79.5,77 C79.5,77.8284271 78.8284271,78.5 78,78.5 L78,78.5 Z" id="Shape-Copy-7" sketch:type="MSShapeGroup"></path>
            <path d="M88,89.5 C89.3807119,89.5 90.5,88.3807119 90.5,87 C90.5,85.6192881 89.3807119,84.5 88,84.5 C86.6192881,84.5 85.5,85.6192881 85.5,87 C85.5,88.3807119 86.6192881,89.5 88,89.5 L88,89.5 Z M88,88.5 C87.1715729,88.5 86.5,87.8284271 86.5,87 C86.5,86.1715729 87.1715729,85.5 88,85.5 C88.8284271,85.5 89.5,86.1715729 89.5,87 C89.5,87.8284271 88.8284271,88.5 88,88.5 L88,88.5 Z" id="Shape-Copy-8" sketch:type="MSShapeGroup"></path>
        </g>
    </g>
</svg>