<?xml version="1.0" encoding="UTF-8" standalone="no"?>
<svg width="100px" height="100px" viewBox="0 0 100 100" version="1.1" xmlns="http://www.w3.org/2000/svg" xmlns:xlink="http://www.w3.org/1999/xlink" xmlns:sketch="http://www.bohemiancoding.com/sketch/ns">
    <!-- Generator: Sketch 3.3 (11970) - http://www.bohemiancoding.com/sketch -->
    <title>14-04-2015 storm</title>
    <desc>Created with Sketch.</desc>
    <defs></defs>
    <g id="January" stroke="none" stroke-width="1" fill="none" fill-rule="evenodd" sketch:type="MSPage">
        <g id="14-04-2015-storm" sketch:type="MSArtboardGroup" fill="#000000">
            <path d="M22.000229,56.7194813 C14.1289879,56.7194803 6.11369374,41.6095856 23.7929093,37.2969628 C15.1359251,26.515406 36.5617432,15.6600883 42.0752451,27.0858824 C40.8966312,11.7395238 72.915655,2.76459318 71.3441685,29.8164948 C84.3089271,21.1912505 99.8926205,57.6996234 68.1626262,56.7194803 L22.000229,56.7194813 Z M22.6274592,55.1597812 C14.756218,55.1597802 8.90576874,40.9398946 25.7940027,38.3065816 C16.294371,27.7733282 36.3491484,16.186751 42.154479,29.3533161 C42.6822363,29.353316 42.894832,28.2999911 42.894832,28.2999912 C42.894832,11.4467874 72.9087362,5.30861839 70.3382134,31.9866287 C82.4766319,21.4533774 98.8371089,55.6864479 68.2271848,55.1597827 L22.6274592,55.1597812 Z M39.734532,68.6456008 L33.1784241,68.6456008 L50.2243046,89.6251461 L43.6681967,73.8904872 L48.913083,73.8904872 L42.0769733,59.4670498 L33.3847403,59.4670498 L39.734532,68.6456008 Z M35.8008672,60.7782714 L40.7372308,60.7782714 L46.2906399,72.5792656 L41.3542763,72.5792656 L45.4010758,81.8010207 L36.4179127,69.9568224 L41.971322,69.9568224 L35.8008672,60.7782714 Z M55.734532,68.6456008 L49.1784241,68.6456008 L66.2243046,89.6251461 L59.6681967,73.8904872 L64.913083,73.8904872 L58.0769733,59.4670498 L49.3847403,59.4670498 L55.734532,68.6456008 Z M51.8008672,60.7782714 L56.7372308,60.7782714 L62.2906399,72.5792656 L57.3542763,72.5792656 L61.4010758,81.8010207 L52.4179127,69.9568224 L57.971322,69.9568224 L51.8008672,60.7782714 Z" id="storm" sketch:type="MSShapeGroup"></path>
        </g>
    </g>
</svg>