<?xml version="1.0" encoding="UTF-8" standalone="no"?>
<svg width="100px" height="100px" viewBox="0 0 100 100" version="1.1" xmlns="http://www.w3.org/2000/svg" xmlns:xlink="http://www.w3.org/1999/xlink" xmlns:sketch="http://www.bohemiancoding.com/sketch/ns">
    <!-- Generator: Sketch 3.3 (11970) - http://www.bohemiancoding.com/sketch -->
    <title>15-04-2015 tea</title>
    <desc>Created with Sketch.</desc>
    <defs></defs>
    <g id="January" stroke="none" stroke-width="1" fill="none" fill-rule="evenodd" sketch:type="MSPage">
        <g id="15-04-2015-tea" sketch:type="MSArtboardGroup" fill="#000000">
            <path d="M28.5,34.5 L21.5,34.5 C17.6335775,34.5 14.5,37.6355801 14.5,41.5049964 L14.5,47.4950036 C14.5,51.3646779 17.6338433,54.5 21.5,54.5 L28.5,54.5 L28.5,34.5 Z M68.5,35.6269463 L68.5,36.7000008 C68.5,36.7000008 69,36.5 69.5,36.5 C70,36.5 70.5,36.7000008 70.5,36.7000008 L70.5,35.6269463 L70.5,23.3730537 L70.5,22.5 L68.5,22.5 L68.5,23.3730537 L68.5,35.6269463 Z M28.5,56.5 L20.5,56.5 C16.081722,56.5 12.5,52.4694111 12.5,47.4950036 L12.5,41.5049964 C12.5,36.5316742 16.0807505,32.5 20.5,32.5 L28.5,32.5 L28.5,56.5 Z M28.4999996,38.5 L23.4838343,38.5 C20.7984261,38.5 18.6220127,40.3303997 18.6220127,42.7192776 L18.6220127,46.4173535 C18.6220127,48.8063906 20.8757825,50.5 23.5610061,50.5 L28.4999996,50.5 L28.4999996,38.5 Z M28.5,51.976806 L22.9436321,51.976806 C19.8749349,51.976806 17.3872643,49.4884244 17.3872643,46.4173535 L17.3872643,42.7192776 C17.3872643,39.6488767 19.8742602,37.159825 22.9436321,37.159825 L28.5,37.159825 L28.5,51.976806 Z M30.5,22.5 L30.5,63.4948503 C30.5,71.2327895 36.7685343,77.5 44.5051497,77.5 L71.4948503,77.5 C79.2327895,77.5 85.5,71.2314657 85.5,63.4948503 L85.5,22.5 L30.5,22.5 Z M87.5,20.5 L87.5,63.4948503 C87.5,72.3342504 80.3391435,79.5 71.4948503,79.5 L44.5051497,79.5 C35.6657496,79.5 28.5,72.3391435 28.5,63.4948503 L28.5,20.5 L87.5,20.5 Z M64.5,43 L64.5,53.5 L74.5,53.5 L74.5000004,43 C74.5000004,43 74.6632043,42.4722797 74.3279962,42.1407552 C73.7671087,41.5860313 73.1720265,41.0316068 72.5734173,40.5185132 C72.0888377,40.1031593 71.6236074,39.7339289 71.1893755,39.4237632 C70.7268404,39.0933811 70.312775,38.8398716 69.9688365,38.6760914 C69.7038308,38.5498982 69.5291871,38.5 69.5,38.5 C69.4708129,38.5 69.2961692,38.5498982 69.0311635,38.6760914 C68.687225,38.8398716 68.2731596,39.0933811 67.8106245,39.4237632 C67.3763926,39.7339289 66.9111623,40.1031593 66.4265827,40.5185132 C65.8279735,41.0316068 65.2328913,41.5860313 64.6720038,42.1407552 C64.3367957,42.4722797 64.5,43 64.5,43 Z M69.5,36.5 C71.8333333,36.5 76.5,41.5 76.5,41.5 L76.5,55.5 L62.5,55.5 L62.5,41.5 C62.5,41.5 67.1666667,36.5 69.5,36.5 Z" id="tea" sketch:type="MSShapeGroup"></path>
        </g>
    </g>
</svg>