<?xml version="1.0" encoding="UTF-8" standalone="no"?>
<svg width="100px" height="100px" viewBox="0 0 100 100" version="1.1" xmlns="http://www.w3.org/2000/svg" xmlns:xlink="http://www.w3.org/1999/xlink" xmlns:sketch="http://www.bohemiancoding.com/sketch/ns">
    <!-- Generator: Sketch 3.3 (11970) - http://www.bohemiancoding.com/sketch -->
    <title>16-04-2015 lipstick</title>
    <desc>Created with Sketch.</desc>
    <defs></defs>
    <g id="January" stroke="none" stroke-width="1" fill="none" fill-rule="evenodd" sketch:type="MSPage">
        <g id="16-04-2015-lipstick" sketch:type="MSArtboardGroup" fill="#000000">
            <path d="M41.0625,52.6592991 L41.0625,80.7855486 C41.0625,81.6701305 41.7934534,82.3927846 42.6919852,82.3927846 L57.3080148,82.3927846 C58.2113847,82.3927846 58.9375,81.6748278 58.9375,80.7855486 L58.9375,52.6592991 L41.0625,52.6592991 Z M60.5625,52.6592991 L60.5625,80.7855486 C60.5625,82.5608411 59.1104932,84 57.3080148,84 L42.6919852,84 C40.8945827,84 39.4375,82.5563792 39.4375,80.7855486 L39.4375,52.6592991 L38.6264164,52.6592991 C37.7281714,52.6592991 37,51.9459127 37,51.0520837 C37,50.1644431 37.7225251,49.4448683 38.6264164,49.4448683 L61.3735836,49.4448683 C62.2718286,49.4448683 63,50.1582547 63,51.0520837 C63,51.9397243 62.2774749,52.6592991 61.3735836,52.6592991 L60.5625,52.6592991 Z M37.8125,51.0520837 C37.8125,51.4993181 38.1740926,51.8556914 38.6264164,51.8556914 L61.3735836,51.8556914 C61.826515,51.8556914 62.1875,51.4981106 62.1875,51.0520837 C62.1875,50.6048493 61.8259074,50.248476 61.3735836,50.248476 L38.6264164,50.248476 C38.173485,50.248476 37.8125,50.6060568 37.8125,51.0520837 Z M41.0625,28.5510677 C47.5625,24.9348329 57.1265045,16.4577222 57.1265045,16.4577222 C58.1266897,15.5917476 58.9375,15.9672599 58.9375,17.2922877 L58.9375,50.248476 L41.0625,50.248476 L41.0625,28.5510677 Z M43.90625,29.3546754 C43.90625,29.3546754 57.3125,24.934833 57.71875,18.5059713 C55.28125,24.5330291 43.90625,29.3546754 43.90625,29.3546754 Z" id="lipstick" sketch:type="MSShapeGroup" transform="translate(50.000000, 50.000000) rotate(-45.000000) translate(-50.000000, -50.000000) "></path>
        </g>
    </g>
</svg>