<?xml version="1.0" encoding="UTF-8" standalone="no"?>
<svg width="100px" height="100px" viewBox="0 0 100 100" version="1.1" xmlns="http://www.w3.org/2000/svg" xmlns:xlink="http://www.w3.org/1999/xlink" xmlns:sketch="http://www.bohemiancoding.com/sketch/ns">
    <!-- Generator: Sketch 3.3 (11970) - http://www.bohemiancoding.com/sketch -->
    <title>17-04-2015 diploma</title>
    <desc>Created with Sketch.</desc>
    <defs></defs>
    <g id="January" stroke="none" stroke-width="1" fill="none" fill-rule="evenodd" sketch:type="MSPage">
        <g id="17-04-2015-diploma" sketch:type="MSArtboardGroup" fill="#000000">
            <path d="M23.1368118,54.8957176 C23.658357,54.5347673 24,53.9322811 24,53.25 C24,52.5097176 23.5978014,51.8633738 23,51.5175644 L23,44.25 L23,44.25 L50,53.25 L86,41.25 L50,29.25 L14,41.25 L21,43.5833333 L21,51.5175644 L21,51.5175644 C20.4021986,51.8633738 20,52.5097176 20,53.25 C20,53.9621884 20.3722508,54.587433 20.9327962,54.9417777 C20.4918805,56.2049709 18.0446714,63.2946714 18.5,63.75 C19,64.25 21,62.75 21,62.75 C21,62.75 21.5,64.25 22,64.25 C22.5,64.25 23,62.75 23,62.75 C23,62.75 24.5,64.75 25,64.25 C25.4623372,63.7876629 23.787118,56.0576343 23.1368118,54.8957176 Z M30,48.25 L30,63.25 C30,63.25 33.5,70.75 50,70.75 C66.5,70.75 70,63.25 70,63.25 L70,48.25 L50,55.25 L30,48.25 Z" id="diploma" sketch:type="MSShapeGroup"></path>
        </g>
    </g>
</svg>