<?xml version="1.0" encoding="UTF-8" standalone="no"?>
<svg width="100px" height="100px" viewBox="0 0 100 100" version="1.1" xmlns="http://www.w3.org/2000/svg" xmlns:xlink="http://www.w3.org/1999/xlink" xmlns:sketch="http://www.bohemiancoding.com/sketch/ns">
    <!-- Generator: Sketch 3.3 (11970) - http://www.bohemiancoding.com/sketch -->
    <title>18-04-2015 ufo</title>
    <desc>Created with Sketch.</desc>
    <defs></defs>
    <g id="January" stroke="none" stroke-width="1" fill="none" fill-rule="evenodd" sketch:type="MSPage">
        <g id="18-04-2015-ufo" sketch:type="MSArtboardGroup" fill="#000000">
            <path d="M66.7413733,40.2440704 C83.021136,42.7710771 94.5,48.8734313 94.5,56 C94.5,65.3888407 74.5766714,73 50,73 C25.4233286,73 5.5,65.3888407 5.5,56 C5.5,49.0247571 16.4965543,43.0306942 32.2281293,40.4098578 C33.5820501,32.8050056 40.7995546,27 49.5,27 C58.1371119,27 65.3127939,32.7207999 66.7413733,40.2440704 L66.7413733,40.2440704 Z M49.5,53.5 C57.5,53.5 65.5,51 65.5,43 C65.5,35 59.1649831,28.5 49.5,28.5 C39.8350169,28.5 33.5,35.5 33.5,43 C33.5,50.5 41.5,53.5 49.5,53.5 Z M45.5,30.5 C45.5,30.5 36,35 36,43 C37,35.5 45.5,30.5 45.5,30.5 Z" id="Oval-26" sketch:type="MSShapeGroup"></path>
        </g>
    </g>
</svg>