<?xml version="1.0" encoding="UTF-8" standalone="no"?>
<svg width="100px" height="100px" viewBox="0 0 100 100" version="1.1" xmlns="http://www.w3.org/2000/svg" xmlns:xlink="http://www.w3.org/1999/xlink" xmlns:sketch="http://www.bohemiancoding.com/sketch/ns">
    <!-- Generator: Sketch 3.3 (11970) - http://www.bohemiancoding.com/sketch -->
    <title>19-04-2015 flashlight</title>
    <desc>Created with Sketch.</desc>
    <defs></defs>
    <g id="January" stroke="none" stroke-width="1" fill="none" fill-rule="evenodd" sketch:type="MSPage">
        <g id="19-04-2015-flashlight" sketch:type="MSArtboardGroup" fill="#000000">
            <path d="M40.9199822,40.7421907 L40.9199822,40.7421907 L42.4333185,39.1321369 L42.4333185,74.5482357 C42.4333185,76.330619 43.7868848,77.7734278 45.4556812,77.7734278 L54.5443188,77.7734278 C56.2130709,77.7734278 57.5666815,76.3303395 57.5666815,74.5482357 L57.5666815,39.1321369 L59.0800178,40.7421907 L40.9199822,40.7421907 Z M40.9199822,39.1321369 L59.0800178,39.1321369 L59.0800178,74.5482357 C59.0800178,77.2186683 57.0496913,79.3834816 54.5443188,79.3834816 L45.4556812,79.3834816 C42.9506838,79.3834816 40.9199822,77.2193945 40.9199822,74.5482357 L40.9199822,39.1321369 Z M33.4289675,26.2517066 L33.4289675,26.2517066 L33.0278497,25.4757915 L33.4914248,24.6416528 L34.3237597,24.6416528 L42.2459916,39.9662756 L40.9199822,39.1321369 L59.0800178,39.1321369 L57.7540084,39.9662756 L65.6762403,24.6416528 L66.5085752,24.6416528 L66.9721503,25.4757915 L66.5710325,26.2517066 L33.4289675,26.2517066 Z M32.5966326,24.6416528 L67.4033674,24.6416528 L59.0800178,40.7421907 L40.9199822,40.7421907 L32.5966326,24.6416528 Z M31.8399644,22.2313372 L31.8399644,24.6368878 C31.8399644,24.6440342 31.8377164,24.6416528 31.8449579,24.6416528 L68.1550421,24.6416528 C68.1563337,24.6416528 68.1600356,24.6377214 68.1600356,24.6368878 L68.1600356,22.2313372 C68.1600356,22.2241908 68.1622836,22.2265722 68.1550421,22.2265722 L31.8449579,22.2265722 C31.8436663,22.2265722 31.8399644,22.2305036 31.8399644,22.2313372 Z M30.3266281,22.2313372 C30.3266281,21.3394974 31.0095645,20.6165184 31.8449579,20.6165184 L68.1550421,20.6165184 C68.9935925,20.6165184 69.6733719,21.3302189 69.6733719,22.2313372 L69.6733719,24.6368878 C69.6733719,25.5287276 68.9904355,26.2517066 68.1550421,26.2517066 L31.8449579,26.2517066 C31.0064075,26.2517066 30.3266281,25.5380061 30.3266281,24.6368878 L30.3266281,22.2313372 Z M47.1895183,49.1945472 L47.1895183,54.8305873 C47.1895183,56.3885779 48.4464893,57.6477555 50,57.6477555 C51.5496884,57.6477555 52.8104817,56.3849004 52.8104817,54.8305873 L52.8104817,49.1945472 C52.8104817,47.6365565 51.5535107,46.377379 50,46.377379 C48.4503116,46.377379 47.1895183,47.640234 47.1895183,49.1945472 Z M46.3865235,49.1945472 C46.3865235,47.1940641 48.0083928,45.5723521 50,45.5723521 C51.9956679,45.5723521 53.6134765,47.1906253 53.6134765,49.1945472 L53.6134765,54.8305873 C53.6134765,56.8310704 51.9916072,58.4527824 50,58.4527824 C48.0043321,58.4527824 46.3865235,56.8345091 46.3865235,54.8305873 L46.3865235,49.1945472 L46.3865235,49.1945472 Z M50,51.2075403 C50.8869635,51.2075403 51.6059895,50.4866947 51.6059895,49.5974866 C51.6059895,48.7082784 50.8869635,47.9874328 50,47.9874328 C49.1130365,47.9874328 48.3940105,48.7082784 48.3940105,49.5974866 C48.3940105,50.4866947 49.1130365,51.2075403 50,51.2075403 Z" id="flashlight" sketch:type="MSShapeGroup" transform="translate(50.000000, 50.000000) rotate(-45.000000) translate(-50.000000, -50.000000) "></path>
        </g>
    </g>
</svg>