<?xml version="1.0" encoding="UTF-8" standalone="no"?>
<svg width="100px" height="100px" viewBox="0 0 100 100" version="1.1" xmlns="http://www.w3.org/2000/svg" xmlns:xlink="http://www.w3.org/1999/xlink" xmlns:sketch="http://www.bohemiancoding.com/sketch/ns">
    <!-- Generator: Sketch 3.3 (11970) - http://www.bohemiancoding.com/sketch -->
    <title>20-04-2015 tv</title>
    <desc>Created with Sketch.</desc>
    <defs></defs>
    <g id="January" stroke="none" stroke-width="1" fill="none" fill-rule="evenodd" sketch:type="MSPage">
        <g id="20-04-2015-tv" sketch:type="MSArtboardGroup" fill="#000000">
            <path d="M12.5,39.1871223 L12.5,39.1871223 L12.5,77.1932396 C12.5,80.5017377 15.19167,83.190181 18.5096914,83.190181 L81.4903086,83.190181 C84.8176343,83.190181 87.5,80.5092508 87.5,77.1932396 L87.5,39.1871223 C87.5,35.8786243 84.80833,33.190181 81.4903086,33.190181 L18.5096914,33.190181 C15.1823657,33.190181 12.5,35.8711111 12.5,39.1871223 L12.5,39.1871223 Z M10.5,39.1871223 C10.5,34.7705336 14.0738018,31.190181 18.5096914,31.190181 L81.4903086,31.190181 C85.913939,31.190181 89.5,34.7750916 89.5,39.1871223 L89.5,77.1932396 C89.5,81.6098284 85.9261982,85.190181 81.4903086,85.190181 L18.5096914,85.190181 C14.086061,85.190181 10.5,81.6052703 10.5,77.1932396 L10.5,39.1871223 Z M19.5,43.6849838 L19.5,72.6953782 C19.5,74.3512022 20.8434274,75.690181 22.5053395,75.690181 L67.4946605,75.690181 C69.1547304,75.690181 70.5,74.3485713 70.5,72.6953782 L70.5,43.6849838 C70.5,42.0291598 69.1565726,40.690181 67.4946605,40.690181 L22.5053395,40.690181 C20.8452696,40.690181 19.5,42.0317906 19.5,43.6849838 Z M18.5,43.6849838 C18.5,41.4787151 20.2937742,39.690181 22.5053395,39.690181 L67.4946605,39.690181 C69.7067484,39.690181 71.5,41.4747679 71.5,43.6849838 L71.5,72.6953782 C71.5,74.9016468 69.7062258,76.690181 67.4946605,76.690181 L22.5053395,76.690181 C20.2932516,76.690181 18.5,74.9055941 18.5,72.6953782 L18.5,43.6849838 Z M79.5,53.690181 C82.5375661,53.690181 85,51.2277471 85,48.190181 C85,45.1526148 82.5375661,42.690181 79.5,42.690181 C76.4624339,42.690181 74,45.1526148 74,48.190181 C74,51.2277471 76.4624339,53.690181 79.5,53.690181 Z M79.5,52.690181 C77.0147186,52.690181 75,50.6754623 75,48.190181 C75,45.7048996 77.0147186,43.690181 79.5,43.690181 C81.9852814,43.690181 84,45.7048996 84,48.190181 C84,50.6754623 81.9852814,52.690181 79.5,52.690181 Z M79.5,64.690181 C81.4329966,64.690181 83,63.1231776 83,61.190181 C83,59.2571843 81.4329966,57.690181 79.5,57.690181 C77.5670034,57.690181 76,59.2571843 76,61.190181 C76,63.1231776 77.5670034,64.690181 79.5,64.690181 Z M79.5,63.690181 C78.1192881,63.690181 77,62.5708928 77,61.190181 C77,59.8094691 78.1192881,58.690181 79.5,58.690181 C80.8807119,58.690181 82,59.8094691 82,61.190181 C82,62.5708928 80.8807119,63.690181 79.5,63.690181 Z M79.5,74.690181 C81.4329966,74.690181 83,73.1231776 83,71.190181 C83,69.2571843 81.4329966,67.690181 79.5,67.690181 C77.5670034,67.690181 76,69.2571843 76,71.190181 C76,73.1231776 77.5670034,74.690181 79.5,74.690181 Z M79.5,73.690181 C78.1192881,73.690181 77,72.5708928 77,71.190181 C77,69.8094691 78.1192881,68.690181 79.5,68.690181 C80.8807119,68.690181 82,69.8094691 82,71.190181 C82,72.5708928 80.8807119,73.690181 79.5,73.690181 Z M33.9389422,11.9944185 L34.0746733,12.1630021 L42.5000003,31.1901817 L41,31.190181 L33.9389422,11.9944185 Z M51.5538749,11.809819 L42.9999999,31.1901812 L44.5000002,31.1901805 L51.5538749,11.809819 Z M19.5,85.0999985 L25.5,85.0999985 L25.5,86.7899985 C25.5,87.7233598 24.7400959,88.4799986 23.8126984,88.4799986 L21.1873016,88.4799986 C20.2554307,88.4799986 19.5,87.729867 19.5,86.7899985 L19.5,85.0999985 Z M74.5,85.0999985 L80.5,85.0999985 L80.5,86.7901794 C80.5,87.7236406 79.7400959,88.4803604 78.8126984,88.4803604 L76.1873016,88.4803604 C75.2554307,88.4803604 74.5,87.7301485 74.5,86.7901794 L74.5,85.0999985 Z M21.3535534,53.0437344 L31.4034287,42.9938587 L30.6963219,42.286752 L20.6464466,52.3366276 L21.3535534,53.0437344 Z M57.3535534,73.0437344 L67.4034287,62.9938587 L66.6963219,62.286752 L56.6464466,72.3366276 L57.3535534,73.0437344 Z M21.3535534,63.0437344 L40.911161,43.4861271 L40.2040543,42.7790203 L20.6464466,62.3366276 L21.3535534,63.0437344 Z" id="tv" sketch:type="MSShapeGroup"></path>
        </g>
    </g>
</svg>