<?xml version="1.0" encoding="UTF-8" standalone="no"?>
<svg width="100px" height="100px" viewBox="0 0 100 100" version="1.1" xmlns="http://www.w3.org/2000/svg" xmlns:xlink="http://www.w3.org/1999/xlink" xmlns:sketch="http://www.bohemiancoding.com/sketch/ns">
    <!-- Generator: Sketch 3.3 (11970) - http://www.bohemiancoding.com/sketch -->
    <title>21-04-2015 card</title>
    <desc>Created with Sketch.</desc>
    <defs></defs>
    <g id="January" stroke="none" stroke-width="1" fill="none" fill-rule="evenodd" sketch:type="MSPage">
        <g id="21-04-2015-card" sketch:type="MSArtboardGroup" fill="#000000">
            <path d="M27.5932203,21.2122662 L27.5932203,21.2122662 L27.5932203,79.7877338 C27.5932203,80.6776784 28.3071622,81.3950617 29.1935501,81.3950617 L69.8064499,81.3950617 C70.689385,81.3950617 71.4067797,80.6738493 71.4067797,79.7877338 L71.4067797,21.2122662 C71.4067797,20.3223216 70.6928378,19.6049383 69.8064499,19.6049383 L29.1935501,19.6049383 C28.310615,19.6049383 27.5932203,20.3261507 27.5932203,21.2122662 L27.5932203,21.2122662 Z M26,21.2122662 C26,19.4381806 27.4322795,18 29.1935501,18 L69.8064499,18 C71.5701989,18 73,19.4333714 73,21.2122662 L73,79.7877338 C73,81.5618194 71.5677205,83 69.8064499,83 L29.1935501,83 C27.4298011,83 26,81.5666286 26,79.7877338 L26,21.2122662 L26,21.2122662 Z M43.5554979,61.1290961 C43.5554979,61.1290961 48.6083247,61.1290961 48.6083247,55.1408729 C48.6083247,55.1408729 42.6638226,55.1408729 43.5554979,49.1526498 C44.4471732,43.1644266 49.4999999,39.8709039 49.4999999,39.8709039 C49.4999999,39.8709039 54.5528268,43.1644266 55.4445021,49.1526498 C56.3361774,55.1408729 50.3916753,55.1408729 50.3916753,55.1408729 C50.3916753,55.1408729 49.5,61.1290961 55.4445021,61.1290961 L43.5554979,61.1290961 Z M65.8562819,28.0236243 C65.8562819,28.0236243 67.2850934,28.0236243 67.2850934,26.3303064 C67.2850934,26.3303064 65.6041387,26.3303064 65.8562819,24.6369885 C66.1084251,22.9436705 67.5372366,22.0123457 67.5372366,22.0123457 C67.5372366,22.0123457 68.9660481,22.9436705 69.2181913,24.6369885 C69.4703345,26.3303064 67.7893798,26.3303064 67.7893798,26.3303064 C67.7893798,26.3303064 67.5372366,28.0236243 69.2181913,28.0236243 L65.8562819,28.0236243 Z M30.0088243,79.381649 C30.0088243,79.381649 31.4376358,79.381649 31.4376358,77.6883311 C31.4376358,77.6883311 29.7566811,77.6883311 30.0088243,75.9950131 C30.2609675,74.3016952 31.689779,73.3703704 31.689779,73.3703704 C31.689779,73.3703704 33.1185905,74.3016952 33.3707337,75.9950131 C33.6228769,77.6883311 31.9419222,77.6883311 31.9419222,77.6883311 C31.9419222,77.6883311 31.689779,79.381649 33.3707337,79.381649 L30.0088243,79.381649 Z" id="Shape" sketch:type="MSShapeGroup"></path>
        </g>
    </g>
</svg>