<?xml version="1.0" encoding="UTF-8" standalone="no"?>
<svg width="100px" height="100px" viewBox="0 0 100 100" version="1.1" xmlns="http://www.w3.org/2000/svg" xmlns:xlink="http://www.w3.org/1999/xlink" xmlns:sketch="http://www.bohemiancoding.com/sketch/ns">
    <!-- Generator: Sketch 3.3.1 (12005) - http://www.bohemiancoding.com/sketch -->
    <title>22-04-2015 clubs</title>
    <desc>Created with Sketch.</desc>
    <defs></defs>
    <g id="January" stroke="none" stroke-width="1" fill="none" fill-rule="evenodd" sketch:type="MSPage">
        <g id="22-04-2015-clubs" sketch:type="MSArtboardGroup" fill="#000000">
            <path d="M35.0476185,81.2488681 C35.4223307,81.2310247 36.044863,81.1611486 36.8352972,81.0043164 C38.1478167,80.7438959 39.4617337,80.3246938 40.697267,79.7069272 C44.2974563,77.9068325 46.5000534,74.8127081 46.5000534,70.25 C46.5000534,65.6003439 44.1831347,63.0076016 40.4595824,62.2096976 C38.8887397,61.8730884 37.241499,61.8878596 35.6864244,62.1115559 C35.2672769,62.1718499 34.9526248,62.2333385 34.7684327,62.2771938 L35.0000532,62.25 C26.801208,62.25 23.2803514,55.975867 25.2806277,48.2506622 C27.2300013,40.7220472 33.0643898,37.0263642 38.9323202,41.0732128 L41.9472659,43.1524857 L40.4073638,39.829539 C40.3446236,39.6941523 40.2288187,39.4259501 40.0775749,39.0437926 C39.8227196,38.3998329 39.5672867,37.6790364 39.3288156,36.9005459 C38.6082139,34.5481362 38.1968476,32.193621 38.2497559,30.024383 C38.3929013,24.1554224 41.7983237,20.75 50.0000532,20.75 C58.2017827,20.75 61.607205,24.1554224 61.7503502,30.024383 C61.8032584,32.1936209 61.3918921,34.5481361 60.6712903,36.9005457 C60.4328193,37.6790362 60.1773863,38.3998327 59.9225309,39.0437926 C59.7712872,39.4259501 59.6554823,39.6941522 59.592742,39.829539 L58.0666621,43.1226586 L61.0639928,41.0758157 C66.9335379,37.0675702 72.7709361,40.7752372 74.7195847,48.2878675 C76.7189984,55.9962127 73.2003778,62.25 65.0000532,62.25 L65.2874011,62.2921737 C65.0786052,62.229535 64.7252209,62.1417982 64.2587487,62.0556803 C62.7954331,61.7855298 61.2649124,61.7272242 59.8039369,62.0194192 C56.2147768,62.7372511 54.0000527,65.3949199 54.0000527,70.25 C54.0000527,75.0429928 56.3110653,78.1943735 60.0862501,79.9103665 C61.3810974,80.4989334 62.7572369,80.8742442 64.1314979,81.0824655 C64.9583477,81.2077458 65.6090629,81.25 66.0000534,81.25 L66.0000534,79.25 L35.0000534,79.25 L35.0476185,81.2488681 L35.0476185,81.2488681 Z M34.9524882,79.2511319 L35.0000534,81.25 L66.0000534,81.25 L66.0000534,79.25 C65.9350725,79.25 65.7954586,79.2457693 65.5921957,79.2325704 C65.2437226,79.2099423 64.8529991,79.1689573 64.4311086,79.1050345 C63.2272444,78.9226308 62.0252588,78.5948166 60.913856,78.0896335 C57.8140403,76.6806265 56.0000527,74.2070072 56.0000527,70.25 C56.0000527,66.3550797 57.5353288,64.5127485 60.1961691,63.9805806 C61.3719121,63.7454321 62.6612153,63.7945484 63.8956538,64.0224447 C64.286115,64.0945298 64.5699393,64.1649965 64.7127056,64.2078264 L64.8532844,64.25 L65.0000532,64.25 C74.6717613,64.25 78.9525707,56.6415435 76.6555203,47.7857187 C74.4016608,39.0964083 67.1556455,34.4940476 59.9361125,39.4241843 L61.4073632,40.670461 C61.485546,40.5017509 61.6163562,40.1987969 61.782189,39.7797762 C62.0557946,39.088439 62.3288226,38.3179915 62.5835818,37.4863283 C63.361994,34.9451963 63.8086159,32.3888905 63.7497556,29.975617 C63.5804012,23.0320776 59.2983237,18.75 50.0000532,18.75 C40.7017828,18.75 36.4197051,23.0320776 36.2503505,29.975617 C36.1914902,32.3888905 36.638112,34.9451964 37.4165241,37.4863285 C37.6712833,38.3179916 37.9443113,39.0884391 38.2179169,39.7797762 C38.3837497,40.1987969 38.5145598,40.5017509 38.5927426,40.670461 L40.0677861,39.4267872 C32.8492561,34.4484906 25.5993693,39.0407943 23.3444784,47.7493378 C21.047362,56.6209596 25.3285523,64.25 35.0000532,64.25 L35.1174598,64.25 L35.2316737,64.2228062 C35.35961,64.1923452 35.6153995,64.1423594 35.9711916,64.091179 C37.3118077,63.8983324 38.7351034,63.8855694 40.0405242,64.1653024 C42.8794719,64.7736484 44.5000534,66.5871561 44.5000534,70.25 C44.5000534,73.9997919 42.7651504,76.4369175 39.8028398,77.9180728 C38.741498,78.4487437 37.5944776,78.8146978 36.4460595,79.0425586 C36.0439277,79.1223466 35.6716158,79.1789435 35.3396808,79.2162015 C35.1463384,79.2379032 35.0137827,79.2482131 34.9524882,79.2511319 L34.9524882,79.2511319 Z" id="Shape" sketch:type="MSShapeGroup"></path>
        </g>
    </g>
</svg>