<?xml version="1.0" encoding="UTF-8" standalone="no"?>
<svg width="100px" height="100px" viewBox="0 0 100 100" version="1.1" xmlns="http://www.w3.org/2000/svg" xmlns:xlink="http://www.w3.org/1999/xlink" xmlns:sketch="http://www.bohemiancoding.com/sketch/ns">
    <!-- Generator: Sketch 3.3.1 (12005) - http://www.bohemiancoding.com/sketch -->
    <title>23-04-2015 bowling</title>
    <desc>Created with Sketch.</desc>
    <defs></defs>
    <g id="January" stroke="none" stroke-width="1" fill="none" fill-rule="evenodd" sketch:type="MSPage">
        <g id="23-04-2015-bowling" sketch:type="MSArtboardGroup" fill="#000000">
            <path d="M51.9085783,48.2375945 C52.4156773,46.2973419 53.2696931,44.5974373 54.5800366,43.2894737 C56.2339002,41.6386136 57.0417418,39.6333752 57.3683767,37.4736842 L57.3683767,37.4736842 L67.9783084,37.4736842 C68.3368333,39.5679349 69.1450781,41.5578868 70.7146023,43.2894737 C79.2300672,52.6842105 68.4736905,76.8421053 68.4736905,76.8421053 L58.6078763,76.8421053 C61.1375888,73.6427942 62.6473192,69.6026483 62.6473192,65.2105263 C62.6473192,57.7220783 58.2586358,51.2568006 51.9085783,48.2375945 L51.9085783,48.2375945 Z M50.9354667,47.8083351 C51.4661597,45.8721083 52.3469298,44.1699106 53.6836718,42.8421053 C62.6912596,33.8947368 47.4969986,16.0000001 62.6912596,16 C77.8855206,15.9999999 62.6473193,33.8947369 71.6109666,42.8421053 C80.5746139,51.7894737 68.921873,77.7368421 68.921873,77.7368421 L57.8542288,77.7368421 C54.4074878,81.5808513 49.3985989,84 43.8236596,84 C33.4276395,84 25,75.5876661 25,65.2105263 C25,54.8333865 33.4276395,46.4210526 43.8236596,46.4210526 C46.3401345,46.4210526 48.7412747,46.9139625 50.9354667,47.8083351 L50.9354667,47.8083351 Z M57.5348948,33.8947368 C57.5460739,34.1939568 57.5522838,34.4923555 57.5526867,34.7894737 L57.5526867,34.7894737 L67.7414483,34.7894737 C67.7365372,34.4918493 67.7377084,34.1934704 67.7441406,33.8947428 L57.5348948,33.8947368 L57.5348948,33.8947368 Z M57.3248016,31.2105263 C56.5110469,23.8898771 54.22519,16.8947369 62.6376594,16.8947368 C71.2014364,16.8947368 68.6864103,23.781319 67.9216248,31.2105263 L57.3248016,31.2105263 L57.3248016,31.2105263 Z M35.0355921,56.2464848 C35.7726299,56.3369817 36.4921654,55.4163404 36.6427196,54.1901749 C36.7932738,52.9640094 36.3178349,51.8966436 35.580797,51.8061468 C34.8437592,51.7156499 34.1242237,52.6362912 33.9736695,53.8624567 C33.8231153,55.0886222 34.2985542,56.1559879 35.0355921,56.2464848 Z M39.5174158,57.1412217 C40.2544536,57.2317185 40.9739891,56.3110772 41.1245433,55.0849117 C41.2750975,53.8587462 40.7996586,52.7913805 40.0626207,52.7008836 C39.3255829,52.6103867 38.6060474,53.5310281 38.4554932,54.7571936 C38.304939,55.9833591 38.7803779,57.0507248 39.5174158,57.1412217 Z M34.1392273,65.1938532 C34.8762652,65.2843501 35.5958007,64.3637088 35.7463549,63.1375433 C35.896909,61.9113778 35.4214701,60.8440121 34.6844323,60.7535152 C33.9473944,60.6630183 33.2278589,61.5836596 33.0773047,62.8098251 C32.9267505,64.0359906 33.4021895,65.1033564 34.1392273,65.1938532 Z" id="Oval-30" sketch:type="MSShapeGroup"></path>
        </g>
    </g>
</svg>