<?xml version="1.0" encoding="UTF-8" standalone="no"?>
<svg width="100px" height="100px" viewBox="0 0 100 100" version="1.1" xmlns="http://www.w3.org/2000/svg" xmlns:xlink="http://www.w3.org/1999/xlink" xmlns:sketch="http://www.bohemiancoding.com/sketch/ns">
    <!-- Generator: Sketch 3.3.1 (12005) - http://www.bohemiancoding.com/sketch -->
    <title>24-04-2015 pen</title>
    <desc>Created with Sketch.</desc>
    <defs></defs>
    <g id="January" stroke="none" stroke-width="1" fill="none" fill-rule="evenodd" sketch:type="MSPage">
        <g id="24-04-2015-pen" sketch:type="MSArtboardGroup" fill="#000000">
            <path d="M50,11 C54.5,11 55,50 55,50 L45,50 C45,50 45.5,11 50,11 Z M46.5,76 C46.5,76 53.5,76 53.5,76 C53.5,76 55,53 55,53 L45,53 C45,53 45.5600047,65.2005906 46.5,76 Z M44,51.5 C44,51.7795889 44.2207404,52 44.4982452,52 L55.5017548,52 C55.774205,52 56,51.7744047 56,51.5 C56,51.2204111 55.7792596,51 55.5017548,51 L44.4982452,51 C44.225795,51 44,51.2255953 44,51.5 Z M43,51.5 C43,50.6715729 43.6752491,50 44.4982452,50 L55.5017548,50 C56.3292128,50 57,50.6657972 57,51.5 C57,52.3284271 56.3247509,53 55.5017548,53 L44.4982452,53 C43.6707872,53 43,52.3342028 43,51.5 Z M46,77.5 C46,77.7797601 46.2204005,78 46.497101,78 L53.502899,78 C53.7762456,78 54,77.775955 54,77.5 C54,77.2202399 53.7795995,77 53.502899,77 L46.497101,77 C46.2237544,77 46,77.224045 46,77.5 Z M53.4001345,79 L53.502899,79 C54.328344,79 55,78.3284271 55,77.5 C55,76.6657972 54.329725,76 53.502899,76 L46.497101,76 C45.671656,76 45,76.6715729 45,77.5 C45,78.2902486 45.6015022,78.9293707 46.3677836,78.9945275 L45.5039135,84.9116932 L45.4331272,85.3965517 L46,85.3965517 C47.4716981,85.3965517 48.4484249,86.3788919 49.0192381,88.1011729 C49.2286927,88.7331477 49.3643193,89.4151779 49.4397525,90.0979781 C49.466206,90.337428 49.4831935,90.5595346 49.4926037,90.7582844 C49.498176,90.8759759 49.5000002,90.9585365 49.5000002,91 L50.5000002,91 C50.5000002,90.9585364 50.5018244,90.8759757 50.5073968,90.7582842 C50.5168069,90.5595344 50.5337944,90.3374278 50.560248,90.0979778 C50.6356811,89.4151777 50.7713077,88.7331476 50.9807621,88.1011729 C51.5515753,86.3788919 52.5283021,85.3965517 54.0000004,85.3965517 L54.5862775,85.3965517 L54.4937317,84.897477 L53.4001345,79 L53.4001345,79 Z M50,84 C50.5522847,84 51,83.5522847 51,83 C51,82.4477153 50.5522847,82 50,82 C49.4477153,82 49,82.4477153 49,83 C49,83.5522847 49.4477153,84 50,84 Z M47,78.9848585 L53,78.9848585 L53.5,84.5344829 C53.5,84.5344829 50.5,85 50.5,88 L50,84 C50,83.9471747 49.5000002,88 49.5000002,88 C49.5000002,85.0335574 46.5,84.5344829 46.5,84.5344829 L47,78.9848585 Z" id="pen" sketch:type="MSShapeGroup" transform="translate(50.000000, 51.000000) rotate(-45.000000) translate(-50.000000, -51.000000) "></path>
        </g>
    </g>
</svg>