<?xml version="1.0" encoding="UTF-8" standalone="no"?>
<svg width="100px" height="100px" viewBox="0 0 100 100" version="1.1" xmlns="http://www.w3.org/2000/svg" xmlns:xlink="http://www.w3.org/1999/xlink" xmlns:sketch="http://www.bohemiancoding.com/sketch/ns">
    <!-- Generator: Sketch 3.3.1 (12005) - http://www.bohemiancoding.com/sketch -->
    <title>25-04-2015 brackets</title>
    <desc>Created with Sketch.</desc>
    <defs></defs>
    <g id="January" stroke="none" stroke-width="1" fill="none" fill-rule="evenodd" sketch:type="MSPage">
        <g id="25-04-2015-brackets" sketch:type="MSArtboardGroup" fill="#000000">
            <path d="M40,10 C40,10 30,10 30,20 L30,40 C30,40 30,50 20,50 C20,50 30,50 30,60 L30,80 C30,80 30,90 40,90 L40,85 C40,85 35,85 35,80 C35,75 35,60 35,60 C35,60 35,50 30,50 C30,50 35,50 35,40 C35,30 35,20 35,20 C35,20 35,15 40,15 L40,10 Z M60,10 C60,10 70,10 70,20 L70,40 C70,40 70,50 80,50 C80,50 70,50 70,60 L70,80 C70,80 70,90 60,90 L60,85 C60,85 65,85 65,80 C65,75 65,60 65,60 C65,60 65,50 70,50 C70,50 65,50 65,40 C65,30 65,20 65,20 C65,20 65,15 60,15 L60,10 Z" id="brackets" sketch:type="MSShapeGroup"></path>
        </g>
    </g>
</svg>