<?xml version="1.0" encoding="UTF-8" standalone="no"?>
<svg width="100px" height="100px" viewBox="0 0 100 100" version="1.1" xmlns="http://www.w3.org/2000/svg" xmlns:xlink="http://www.w3.org/1999/xlink" xmlns:sketch="http://www.bohemiancoding.com/sketch/ns">
    <!-- Generator: Sketch 3.3.1 (12005) - http://www.bohemiancoding.com/sketch -->
    <title>27-04-2015 rugby</title>
    <desc>Created with Sketch.</desc>
    <defs></defs>
    <g id="January" stroke="none" stroke-width="1" fill="none" fill-rule="evenodd" sketch:type="MSPage">
        <g id="27-04-2015-rugby" sketch:type="MSArtboardGroup" fill="#000000">
            <path d="M42.5688619,51.125319 L45.3498061,51.125319 L45.3498061,51.125319 L45.3498061,52.605546 C45.3498061,52.9104771 45.6036238,53.1657651 45.9167239,53.1657651 C46.2206671,53.1657651 46.4836417,52.9149464 46.4836417,52.605546 L46.4836417,51.125319 L49.2645858,51.125319 L49.2645858,52.605546 C49.2645858,52.9104771 49.5184036,53.1657651 49.8315036,53.1657651 C50.1354468,53.1657651 50.3984214,52.9149464 50.3984214,52.605546 L50.3984214,51.125319 L53.1793655,51.125319 L53.1793655,52.605546 C53.1793655,52.9104771 53.4331833,53.1657651 53.7462833,53.1657651 C54.0502266,53.1657651 54.3132011,52.9149464 54.3132011,52.605546 L54.3132011,51.125319 L57.0941453,51.125319 L57.0941453,52.605546 C57.0941453,52.9104771 57.347963,53.1657651 57.6610631,53.1657651 C57.9650063,53.1657651 58.2279809,52.9149464 58.2279809,52.605546 L58.2279809,51.125319 L58.2279809,51.125319 L61.008925,51.125319 L61.008925,51.125319 L61.008925,52.605546 C61.008925,52.9104771 61.2627427,53.1657651 61.5758428,53.1657651 C61.879786,53.1657651 62.1427606,52.9149464 62.1427606,52.605546 L62.1427606,51.125319 L65.1635177,51.125319 C65.6990289,51.125319 66.1472784,50.6835887 66.1472784,50.1386868 C66.1472784,49.5899859 65.7068337,49.1520545 65.1635177,49.1520545 L62.1427606,49.1520545 L62.1427606,47.413182 C62.1427606,47.1082509 61.8889429,46.852963 61.5758428,46.852963 C61.2718996,46.852963 61.008925,47.1037816 61.008925,47.413182 L61.008925,49.1520545 L58.2279809,49.1520545 L58.2279809,47.413182 C58.2279809,47.1082509 57.9741631,46.852963 57.6610631,46.852963 C57.3571198,46.852963 57.0941453,47.1037816 57.0941453,47.413182 L57.0941453,49.1520545 L54.3132011,49.1520545 L54.3132011,47.413182 C54.3132011,47.1082509 54.0593834,46.852963 53.7462833,46.852963 C53.4423401,46.852963 53.1793655,47.1037816 53.1793655,47.413182 L53.1793655,49.1520545 L53.1793655,49.1520545 L50.3984214,49.1520545 L50.3984214,49.1520545 L50.3984214,47.413182 C50.3984214,47.1082509 50.1446037,46.852963 49.8315036,46.852963 C49.5275604,46.852963 49.2645858,47.1037816 49.2645858,47.413182 L49.2645858,49.1520545 L46.4836417,49.1520545 L46.4836417,47.413182 C46.4836417,47.1082509 46.2298239,46.852963 45.9167239,46.852963 C45.6127806,46.852963 45.3498061,47.1037816 45.3498061,47.413182 L45.3498061,49.1520545 L42.5688619,49.1520545 L42.5688619,47.413182 C42.5688619,47.1082509 42.3150442,46.852963 42.0019441,46.852963 C41.6980009,46.852963 41.4350264,47.1037816 41.4350264,47.413182 L41.4350264,49.1520545 L38.6540822,49.1520545 L38.6540822,47.413182 C38.6540822,47.1082509 38.4002645,46.852963 38.0871644,46.852963 C37.7832212,46.852963 37.5202466,47.1037816 37.5202466,47.413182 L37.5202466,49.1520545 L37.5202466,49.1520545 L35.4219598,49.1520545 C34.8864486,49.1520545 34.4381991,49.5937848 34.4381991,50.1386868 C34.4381991,50.6873877 34.8786438,51.125319 35.4219598,51.125319 L37.5202466,51.125319 L37.5202466,52.605546 C37.5202466,52.9104771 37.7740644,53.1657651 38.0871644,53.1657651 C38.3911077,53.1657651 38.6540822,52.9149464 38.6540822,52.605546 L38.6540822,51.125319 L41.4350264,51.125319 L41.4350264,52.605546 C41.4350264,52.9104771 41.6888441,53.1657651 42.0019441,53.1657651 C42.3058874,53.1657651 42.5688619,52.9149464 42.5688619,52.605546 L42.5688619,51.125319 Z M50,72 C70.9868205,72 88,59.5 88,50 C88,40.5 70.9868205,28 50,28 C29.0131795,28 12,40.5 12,50 C12,59.5 29.0131795,72 50,72 Z" id="Oval-35" sketch:type="MSShapeGroup" transform="translate(50.000000, 50.000000) rotate(-45.000000) translate(-50.000000, -50.000000) "></path>
        </g>
    </g>
</svg>