<?xml version="1.0" encoding="UTF-8" standalone="no"?>
<svg width="100px" height="100px" viewBox="0 0 100 100" version="1.1" xmlns="http://www.w3.org/2000/svg" xmlns:xlink="http://www.w3.org/1999/xlink" xmlns:sketch="http://www.bohemiancoding.com/sketch/ns">
    <!-- Generator: Sketch 3.3.1 (12005) - http://www.bohemiancoding.com/sketch -->
    <title>28-04-2015 submarine</title>
    <desc>Created with Sketch.</desc>
    <defs></defs>
    <g id="January" stroke="none" stroke-width="1" fill="none" fill-rule="evenodd" sketch:type="MSPage">
        <g id="28-04-2015-submarine" sketch:type="MSArtboardGroup" fill="#000000">
            <path d="M42.2990131,32.0919131 C45.9030147,32.3663259 49.0941174,32.8743691 49.0941174,32.8743691 C51.2822911,35.9226126 53.4704651,39.8123514 53.615858,44.9501141 L53.615858,44.9501141 C67.7017032,47.3762076 80.9996724,54.8250877 83.1998945,61.2680824 L83.1998945,61.2680824 L84.6690674,61.2680824 C83.7033306,60.1072045 81.9528086,57.2033307 83.4628459,52.597872 C85.2372442,47.1861395 85.2510122,58.5256847 85.229703,61.2680824 L85.229703,61.2680824 L86.2352941,61.2680824 C86.2352941,61.2680824 88.5,61.2680824 88.5,63.0708578 C88.5,64.8736333 86.2352941,64.8736333 86.2352941,64.8736333 L85.2271657,64.8736333 L85.2271657,64.8736333 C85.2494314,66.9899816 85.3060699,79.4443226 83.4628459,73.8226786 C81.8122493,68.7885287 84.0574703,65.7874853 84.9150873,64.8736333 L83.1998945,64.8736333 C80.528781,72.6955574 61.5013146,82 44.5647059,82 C26.3035731,82 11.5,73.5251344 11.5,63.0708578 C11.5,55.4081354 19.4532524,48.808856 30.8917834,45.83088 C30.6712711,42.7335557 30.3119597,33.5454676 33.6941176,32.4236752 C35.0293337,31.9808115 37.1420424,31.876413 39.3796732,31.9362687 C39.4600567,29.8848113 39.5604362,22.0577164 36.4117647,22.0577164 L36.4117647,18.0014717 C36.4117647,18.0014717 42.2120873,17.5575068 42.2990131,32.0919131 Z M26.2895141,63.0708578 C28.7040295,63.0708578 30.6613811,61.0530327 30.6613811,58.5639192 C30.6613811,56.0748057 28.7040295,54.0569806 26.2895141,54.0569806 C23.8749986,54.0569806 21.9176471,56.0748057 21.9176471,58.5639192 C21.9176471,61.0530327 23.8749986,63.0708578 26.2895141,63.0708578 Z M41.3941176,63.0708578 C43.8086331,63.0708578 45.7659847,61.0530327 45.7659847,58.5639192 C45.7659847,56.0748057 43.8086331,54.0569806 41.3941176,54.0569806 C38.9796022,54.0569806 37.0222506,56.0748057 37.0222506,58.5639192 C37.0222506,61.0530327 38.9796022,63.0708578 41.3941176,63.0708578 Z M56.4987212,63.0708578 C58.9132367,63.0708578 60.8705882,61.0530327 60.8705882,58.5639192 C60.8705882,56.0748057 58.9132367,54.0569806 56.4987212,54.0569806 C54.0842058,54.0569806 52.1268542,56.0748057 52.1268542,58.5639192 C52.1268542,61.0530327 54.0842058,63.0708578 56.4987212,63.0708578 Z" id="Oval-36-Copy" sketch:type="MSShapeGroup"></path>
        </g>
    </g>
</svg>