<?xml version="1.0" encoding="UTF-8" standalone="no"?>
<svg width="100px" height="100px" viewBox="0 0 100 100" version="1.1" xmlns="http://www.w3.org/2000/svg" xmlns:xlink="http://www.w3.org/1999/xlink" xmlns:sketch="http://www.bohemiancoding.com/sketch/ns">
    <!-- Generator: Sketch 3.3.1 (12005) - http://www.bohemiancoding.com/sketch -->
    <title>29-04-2015 kite</title>
    <desc>Created with Sketch.</desc>
    <defs></defs>
    <g id="January" stroke="none" stroke-width="1" fill="none" fill-rule="evenodd" sketch:type="MSPage">
        <g id="29-04-2015-kite" sketch:type="MSArtboardGroup" fill="#000000">
            <path d="M26.5,38 C26.5,36 47.5,11.9997723 49.5,12 C51.5,12.0002277 73.5,36 73.5,38 C73.5,40 51.5,78 49.5,78 C47.5,78 26.5,40 26.5,38 Z M27.5,38 C27.5,36 48,12.9997723 49.5,13 C51,13.0002277 72.5,36 72.5,38 C72.5,40 50.5,77 49.5,77 C48.5,77 27.5,40 27.5,38 Z M49.25,39.8824044 C38.255475,39.9772801 27.5,39.4666612 27.5,38 C33.8453102,39.0575517 41.1692341,39.4160937 49.25,39.2973975 L49.25,13 L49.75,13 L49.75,39.2894625 C56.8119579,39.1691051 64.4440669,38.6905085 72.5,38 C72.5,39.0074076 61.082713,39.7610976 49.75,39.8776748 L49.75,77 L49.25,77 L49.25,39.8824044 L49.25,39.8824044 Z M49.5,77.5 C49.5,77.5 51,88 39.5,94.5 C28,101 31,102 31,102 C31.5,99 40,95 40,95 C40,95 51.5000004,88 49.5,77.5 Z" id="Rectangle-76" sketch:type="MSShapeGroup" transform="translate(50.000000, 57.000000) rotate(30.000000) translate(-50.000000, -57.000000) "></path>
        </g>
    </g>
</svg>