<?xml version="1.0" encoding="UTF-8" standalone="no"?>
<svg width="100px" height="100px" viewBox="0 0 100 100" version="1.1" xmlns="http://www.w3.org/2000/svg" xmlns:xlink="http://www.w3.org/1999/xlink" xmlns:sketch="http://www.bohemiancoding.com/sketch/ns">
    <!-- Generator: Sketch 3.3.1 (12005) - http://www.bohemiancoding.com/sketch -->
    <title>30-04-2015 index</title>
    <desc>Created with Sketch.</desc>
    <defs></defs>
    <g id="January" stroke="none" stroke-width="1" fill="none" fill-rule="evenodd" sketch:type="MSPage">
        <g id="30-04-2015-index" sketch:type="MSArtboardGroup" fill="#000000">
            <path d="M36.8484848,27.984375 C36.8484848,25.7838655 38.625553,24 40.8266868,24 L73.021798,24 C75.2188983,24 77,25.788343 77,27.984375 C77,30.1848845 75.2229318,31.96875 73.021798,31.96875 L40.8266868,31.96875 C38.6295865,31.96875 36.8484848,30.180407 36.8484848,27.984375 Z M24,27.984375 C24,25.7838655 25.7821845,24 27.9916254,24 L28.0386777,24 C30.2431915,24 32.030303,25.788343 32.030303,27.984375 C32.030303,30.1848845 30.2481185,31.96875 28.0386777,31.96875 L27.9916254,31.96875 C25.7871115,31.96875 24,30.180407 24,27.984375 Z M36.8484848,42.328125 C36.8484848,40.1276155 38.625553,38.34375 40.8266868,38.34375 L73.021798,38.34375 C75.2188983,38.34375 77,40.132093 77,42.328125 C77,44.5286345 75.2229318,46.3125 73.021798,46.3125 L40.8266868,46.3125 C38.6295865,46.3125 36.8484848,44.524157 36.8484848,42.328125 Z M24,42.328125 C24,40.1276155 25.7821845,38.34375 27.9916254,38.34375 L28.0386777,38.34375 C30.2431915,38.34375 32.030303,40.132093 32.030303,42.328125 C32.030303,44.5286345 30.2481185,46.3125 28.0386777,46.3125 L27.9916254,46.3125 C25.7871115,46.3125 24,44.524157 24,42.328125 Z M36.8484848,56.671875 C36.8484848,54.4713655 38.625553,52.6875 40.8266868,52.6875 L73.021798,52.6875 C75.2188983,52.6875 77,54.475843 77,56.671875 C77,58.8723845 75.2229318,60.65625 73.021798,60.65625 L40.8266868,60.65625 C38.6295865,60.65625 36.8484848,58.867907 36.8484848,56.671875 Z M24,56.671875 C24,54.4713655 25.7821845,52.6875 27.9916254,52.6875 L28.0386777,52.6875 C30.2431915,52.6875 32.030303,54.475843 32.030303,56.671875 C32.030303,58.8723845 30.2481185,60.65625 28.0386777,60.65625 L27.9916254,60.65625 C25.7871115,60.65625 24,58.867907 24,56.671875 Z M36.8484848,71.015625 C36.8484848,68.8151155 38.625553,67.03125 40.8266868,67.03125 L73.021798,67.03125 C75.2188983,67.03125 77,68.819593 77,71.015625 C77,73.2161345 75.2229318,75 73.021798,75 L40.8266868,75 C38.6295865,75 36.8484848,73.211657 36.8484848,71.015625 Z M24,71.015625 C24,68.8151155 25.7821845,67.03125 27.9916254,67.03125 L28.0386777,67.03125 C30.2431915,67.03125 32.030303,68.819593 32.030303,71.015625 C32.030303,73.2161345 30.2481185,75 28.0386777,75 L27.9916254,75 C25.7871115,75 24,73.211657 24,71.015625 Z" id="index" sketch:type="MSShapeGroup"></path>
        </g>
    </g>
</svg>